G04 #@! TF.GenerationSoftware,KiCad,Pcbnew,6.0.10-86aedd382b~118~ubuntu18.04.1*
G04 #@! TF.CreationDate,2024-08-26T14:20:04-06:00*
G04 #@! TF.ProjectId,ckt-iiab,636b742d-6969-4616-922e-6b696361645f,rev?*
G04 #@! TF.SameCoordinates,Original*
G04 #@! TF.FileFunction,Legend,Bot*
G04 #@! TF.FilePolarity,Positive*
%FSLAX46Y46*%
G04 Gerber Fmt 4.6, Leading zero omitted, Abs format (unit mm)*
G04 Created by KiCad (PCBNEW 6.0.10-86aedd382b~118~ubuntu18.04.1) date 2024-08-26 14:20:04*
%MOMM*%
%LPD*%
G01*
G04 APERTURE LIST*
%ADD10C,0.150000*%
%ADD11C,0.120000*%
G04 APERTURE END LIST*
D10*
X134484904Y-83042380D02*
X133913476Y-83042380D01*
X134199190Y-84042380D02*
X134199190Y-83042380D01*
X133580142Y-84042380D02*
X133580142Y-83042380D01*
X133199190Y-83042380D01*
X133103952Y-83090000D01*
X133056333Y-83137619D01*
X133008714Y-83232857D01*
X133008714Y-83375714D01*
X133056333Y-83470952D01*
X133103952Y-83518571D01*
X133199190Y-83566190D01*
X133580142Y-83566190D01*
X132675380Y-83042380D02*
X132008714Y-83042380D01*
X132437285Y-84042380D01*
X139533095Y-114294380D02*
X138961666Y-114294380D01*
X139247380Y-115294380D02*
X139247380Y-114294380D01*
X138628333Y-115294380D02*
X138628333Y-114294380D01*
X138247380Y-114294380D01*
X138152142Y-114342000D01*
X138104523Y-114389619D01*
X138056904Y-114484857D01*
X138056904Y-114627714D01*
X138104523Y-114722952D01*
X138152142Y-114770571D01*
X138247380Y-114818190D01*
X138628333Y-114818190D01*
X137104523Y-115294380D02*
X137675952Y-115294380D01*
X137390238Y-115294380D02*
X137390238Y-114294380D01*
X137485476Y-114437238D01*
X137580714Y-114532476D01*
X137675952Y-114580095D01*
X136152142Y-115294380D02*
X136723571Y-115294380D01*
X136437857Y-115294380D02*
X136437857Y-114294380D01*
X136533095Y-114437238D01*
X136628333Y-114532476D01*
X136723571Y-114580095D01*
X128611095Y-114294380D02*
X128039666Y-114294380D01*
X128325380Y-115294380D02*
X128325380Y-114294380D01*
X127706333Y-115294380D02*
X127706333Y-114294380D01*
X127325380Y-114294380D01*
X127230142Y-114342000D01*
X127182523Y-114389619D01*
X127134904Y-114484857D01*
X127134904Y-114627714D01*
X127182523Y-114722952D01*
X127230142Y-114770571D01*
X127325380Y-114818190D01*
X127706333Y-114818190D01*
X126182523Y-115294380D02*
X126753952Y-115294380D01*
X126468238Y-115294380D02*
X126468238Y-114294380D01*
X126563476Y-114437238D01*
X126658714Y-114532476D01*
X126753952Y-114580095D01*
X125563476Y-114294380D02*
X125468238Y-114294380D01*
X125373000Y-114342000D01*
X125325380Y-114389619D01*
X125277761Y-114484857D01*
X125230142Y-114675333D01*
X125230142Y-114913428D01*
X125277761Y-115103904D01*
X125325380Y-115199142D01*
X125373000Y-115246761D01*
X125468238Y-115294380D01*
X125563476Y-115294380D01*
X125658714Y-115246761D01*
X125706333Y-115199142D01*
X125753952Y-115103904D01*
X125801571Y-114913428D01*
X125801571Y-114675333D01*
X125753952Y-114484857D01*
X125706333Y-114389619D01*
X125658714Y-114342000D01*
X125563476Y-114294380D01*
X165980904Y-110230380D02*
X165409476Y-110230380D01*
X165695190Y-111230380D02*
X165695190Y-110230380D01*
X165076142Y-111230380D02*
X165076142Y-110230380D01*
X164695190Y-110230380D01*
X164599952Y-110278000D01*
X164552333Y-110325619D01*
X164504714Y-110420857D01*
X164504714Y-110563714D01*
X164552333Y-110658952D01*
X164599952Y-110706571D01*
X164695190Y-110754190D01*
X165076142Y-110754190D01*
X164171380Y-110230380D02*
X163552333Y-110230380D01*
X163885666Y-110611333D01*
X163742809Y-110611333D01*
X163647571Y-110658952D01*
X163599952Y-110706571D01*
X163552333Y-110801809D01*
X163552333Y-111039904D01*
X163599952Y-111135142D01*
X163647571Y-111182761D01*
X163742809Y-111230380D01*
X164028523Y-111230380D01*
X164123761Y-111182761D01*
X164171380Y-111135142D01*
X106243333Y-82996380D02*
X106243333Y-83710666D01*
X106290952Y-83853523D01*
X106386190Y-83948761D01*
X106529047Y-83996380D01*
X106624285Y-83996380D01*
X105767142Y-83996380D02*
X105767142Y-82996380D01*
X105386190Y-82996380D01*
X105290952Y-83044000D01*
X105243333Y-83091619D01*
X105195714Y-83186857D01*
X105195714Y-83329714D01*
X105243333Y-83424952D01*
X105290952Y-83472571D01*
X105386190Y-83520190D01*
X105767142Y-83520190D01*
X104814761Y-83091619D02*
X104767142Y-83044000D01*
X104671904Y-82996380D01*
X104433809Y-82996380D01*
X104338571Y-83044000D01*
X104290952Y-83091619D01*
X104243333Y-83186857D01*
X104243333Y-83282095D01*
X104290952Y-83424952D01*
X104862380Y-83996380D01*
X104243333Y-83996380D01*
X105020904Y-110450380D02*
X104449476Y-110450380D01*
X104735190Y-111450380D02*
X104735190Y-110450380D01*
X104116142Y-111450380D02*
X104116142Y-110450380D01*
X103735190Y-110450380D01*
X103639952Y-110498000D01*
X103592333Y-110545619D01*
X103544714Y-110640857D01*
X103544714Y-110783714D01*
X103592333Y-110878952D01*
X103639952Y-110926571D01*
X103735190Y-110974190D01*
X104116142Y-110974190D01*
X102687571Y-110783714D02*
X102687571Y-111450380D01*
X102925666Y-110402761D02*
X103163761Y-111117047D01*
X102544714Y-111117047D01*
X110307333Y-82996380D02*
X110307333Y-83710666D01*
X110354952Y-83853523D01*
X110450190Y-83948761D01*
X110593047Y-83996380D01*
X110688285Y-83996380D01*
X109831142Y-83996380D02*
X109831142Y-82996380D01*
X109450190Y-82996380D01*
X109354952Y-83044000D01*
X109307333Y-83091619D01*
X109259714Y-83186857D01*
X109259714Y-83329714D01*
X109307333Y-83424952D01*
X109354952Y-83472571D01*
X109450190Y-83520190D01*
X109831142Y-83520190D01*
X108307333Y-83996380D02*
X108878761Y-83996380D01*
X108593047Y-83996380D02*
X108593047Y-82996380D01*
X108688285Y-83139238D01*
X108783523Y-83234476D01*
X108878761Y-83282095D01*
X130928904Y-83042380D02*
X130357476Y-83042380D01*
X130643190Y-84042380D02*
X130643190Y-83042380D01*
X130024142Y-84042380D02*
X130024142Y-83042380D01*
X129643190Y-83042380D01*
X129547952Y-83090000D01*
X129500333Y-83137619D01*
X129452714Y-83232857D01*
X129452714Y-83375714D01*
X129500333Y-83470952D01*
X129547952Y-83518571D01*
X129643190Y-83566190D01*
X130024142Y-83566190D01*
X128881285Y-83470952D02*
X128976523Y-83423333D01*
X129024142Y-83375714D01*
X129071761Y-83280476D01*
X129071761Y-83232857D01*
X129024142Y-83137619D01*
X128976523Y-83090000D01*
X128881285Y-83042380D01*
X128690809Y-83042380D01*
X128595571Y-83090000D01*
X128547952Y-83137619D01*
X128500333Y-83232857D01*
X128500333Y-83280476D01*
X128547952Y-83375714D01*
X128595571Y-83423333D01*
X128690809Y-83470952D01*
X128881285Y-83470952D01*
X128976523Y-83518571D01*
X129024142Y-83566190D01*
X129071761Y-83661428D01*
X129071761Y-83851904D01*
X129024142Y-83947142D01*
X128976523Y-83994761D01*
X128881285Y-84042380D01*
X128690809Y-84042380D01*
X128595571Y-83994761D01*
X128547952Y-83947142D01*
X128500333Y-83851904D01*
X128500333Y-83661428D01*
X128547952Y-83566190D01*
X128595571Y-83518571D01*
X128690809Y-83470952D01*
X135977095Y-87624380D02*
X135405666Y-87624380D01*
X135691380Y-88624380D02*
X135691380Y-87624380D01*
X135072333Y-88624380D02*
X135072333Y-87624380D01*
X134691380Y-87624380D01*
X134596142Y-87672000D01*
X134548523Y-87719619D01*
X134500904Y-87814857D01*
X134500904Y-87957714D01*
X134548523Y-88052952D01*
X134596142Y-88100571D01*
X134691380Y-88148190D01*
X135072333Y-88148190D01*
X133548523Y-88624380D02*
X134119952Y-88624380D01*
X133834238Y-88624380D02*
X133834238Y-87624380D01*
X133929476Y-87767238D01*
X134024714Y-87862476D01*
X134119952Y-87910095D01*
X133167571Y-87719619D02*
X133119952Y-87672000D01*
X133024714Y-87624380D01*
X132786619Y-87624380D01*
X132691380Y-87672000D01*
X132643761Y-87719619D01*
X132596142Y-87814857D01*
X132596142Y-87910095D01*
X132643761Y-88052952D01*
X133215190Y-88624380D01*
X132596142Y-88624380D01*
X121022904Y-83042380D02*
X120451476Y-83042380D01*
X120737190Y-84042380D02*
X120737190Y-83042380D01*
X120118142Y-84042380D02*
X120118142Y-83042380D01*
X119737190Y-83042380D01*
X119641952Y-83090000D01*
X119594333Y-83137619D01*
X119546714Y-83232857D01*
X119546714Y-83375714D01*
X119594333Y-83470952D01*
X119641952Y-83518571D01*
X119737190Y-83566190D01*
X120118142Y-83566190D01*
X118641952Y-83042380D02*
X119118142Y-83042380D01*
X119165761Y-83518571D01*
X119118142Y-83470952D01*
X119022904Y-83423333D01*
X118784809Y-83423333D01*
X118689571Y-83470952D01*
X118641952Y-83518571D01*
X118594333Y-83613809D01*
X118594333Y-83851904D01*
X118641952Y-83947142D01*
X118689571Y-83994761D01*
X118784809Y-84042380D01*
X119022904Y-84042380D01*
X119118142Y-83994761D01*
X119165761Y-83947142D01*
X102179333Y-82996380D02*
X102179333Y-83710666D01*
X102226952Y-83853523D01*
X102322190Y-83948761D01*
X102465047Y-83996380D01*
X102560285Y-83996380D01*
X101703142Y-83996380D02*
X101703142Y-82996380D01*
X101322190Y-82996380D01*
X101226952Y-83044000D01*
X101179333Y-83091619D01*
X101131714Y-83186857D01*
X101131714Y-83329714D01*
X101179333Y-83424952D01*
X101226952Y-83472571D01*
X101322190Y-83520190D01*
X101703142Y-83520190D01*
X100798380Y-82996380D02*
X100179333Y-82996380D01*
X100512666Y-83377333D01*
X100369809Y-83377333D01*
X100274571Y-83424952D01*
X100226952Y-83472571D01*
X100179333Y-83567809D01*
X100179333Y-83805904D01*
X100226952Y-83901142D01*
X100274571Y-83948761D01*
X100369809Y-83996380D01*
X100655523Y-83996380D01*
X100750761Y-83948761D01*
X100798380Y-83901142D01*
X87621904Y-97276380D02*
X87050476Y-97276380D01*
X87336190Y-98276380D02*
X87336190Y-97276380D01*
X86717142Y-98276380D02*
X86717142Y-97276380D01*
X86336190Y-97276380D01*
X86240952Y-97324000D01*
X86193333Y-97371619D01*
X86145714Y-97466857D01*
X86145714Y-97609714D01*
X86193333Y-97704952D01*
X86240952Y-97752571D01*
X86336190Y-97800190D01*
X86717142Y-97800190D01*
X85193333Y-98276380D02*
X85764761Y-98276380D01*
X85479047Y-98276380D02*
X85479047Y-97276380D01*
X85574285Y-97419238D01*
X85669523Y-97514476D01*
X85764761Y-97562095D01*
X87541904Y-102356380D02*
X86970476Y-102356380D01*
X87256190Y-103356380D02*
X87256190Y-102356380D01*
X86637142Y-103356380D02*
X86637142Y-102356380D01*
X86256190Y-102356380D01*
X86160952Y-102404000D01*
X86113333Y-102451619D01*
X86065714Y-102546857D01*
X86065714Y-102689714D01*
X86113333Y-102784952D01*
X86160952Y-102832571D01*
X86256190Y-102880190D01*
X86637142Y-102880190D01*
X85684761Y-102451619D02*
X85637142Y-102404000D01*
X85541904Y-102356380D01*
X85303809Y-102356380D01*
X85208571Y-102404000D01*
X85160952Y-102451619D01*
X85113333Y-102546857D01*
X85113333Y-102642095D01*
X85160952Y-102784952D01*
X85732380Y-103356380D01*
X85113333Y-103356380D01*
X117466904Y-83042380D02*
X116895476Y-83042380D01*
X117181190Y-84042380D02*
X117181190Y-83042380D01*
X116562142Y-84042380D02*
X116562142Y-83042380D01*
X116181190Y-83042380D01*
X116085952Y-83090000D01*
X116038333Y-83137619D01*
X115990714Y-83232857D01*
X115990714Y-83375714D01*
X116038333Y-83470952D01*
X116085952Y-83518571D01*
X116181190Y-83566190D01*
X116562142Y-83566190D01*
X115133571Y-83042380D02*
X115324047Y-83042380D01*
X115419285Y-83090000D01*
X115466904Y-83137619D01*
X115562142Y-83280476D01*
X115609761Y-83470952D01*
X115609761Y-83851904D01*
X115562142Y-83947142D01*
X115514523Y-83994761D01*
X115419285Y-84042380D01*
X115228809Y-84042380D01*
X115133571Y-83994761D01*
X115085952Y-83947142D01*
X115038333Y-83851904D01*
X115038333Y-83613809D01*
X115085952Y-83518571D01*
X115133571Y-83470952D01*
X115228809Y-83423333D01*
X115419285Y-83423333D01*
X115514523Y-83470952D01*
X115562142Y-83518571D01*
X115609761Y-83613809D01*
X117212904Y-114294380D02*
X116641476Y-114294380D01*
X116927190Y-115294380D02*
X116927190Y-114294380D01*
X116308142Y-115294380D02*
X116308142Y-114294380D01*
X115927190Y-114294380D01*
X115831952Y-114342000D01*
X115784333Y-114389619D01*
X115736714Y-114484857D01*
X115736714Y-114627714D01*
X115784333Y-114722952D01*
X115831952Y-114770571D01*
X115927190Y-114818190D01*
X116308142Y-114818190D01*
X115260523Y-115294380D02*
X115070047Y-115294380D01*
X114974809Y-115246761D01*
X114927190Y-115199142D01*
X114831952Y-115056285D01*
X114784333Y-114865809D01*
X114784333Y-114484857D01*
X114831952Y-114389619D01*
X114879571Y-114342000D01*
X114974809Y-114294380D01*
X115165285Y-114294380D01*
X115260523Y-114342000D01*
X115308142Y-114389619D01*
X115355761Y-114484857D01*
X115355761Y-114722952D01*
X115308142Y-114818190D01*
X115260523Y-114865809D01*
X115165285Y-114913428D01*
X114974809Y-114913428D01*
X114879571Y-114865809D01*
X114831952Y-114818190D01*
X114784333Y-114722952D01*
X98115333Y-82996380D02*
X98115333Y-83710666D01*
X98162952Y-83853523D01*
X98258190Y-83948761D01*
X98401047Y-83996380D01*
X98496285Y-83996380D01*
X97639142Y-83996380D02*
X97639142Y-82996380D01*
X97258190Y-82996380D01*
X97162952Y-83044000D01*
X97115333Y-83091619D01*
X97067714Y-83186857D01*
X97067714Y-83329714D01*
X97115333Y-83424952D01*
X97162952Y-83472571D01*
X97258190Y-83520190D01*
X97639142Y-83520190D01*
X96210571Y-83329714D02*
X96210571Y-83996380D01*
X96448666Y-82948761D02*
X96686761Y-83663047D01*
X96067714Y-83663047D01*
D11*
X134423000Y-81592000D02*
G75*
G03*
X134423000Y-81592000I-1200000J0D01*
G01*
X138995000Y-116840000D02*
G75*
G03*
X138995000Y-116840000I-1200000J0D01*
G01*
X128073000Y-116840000D02*
G75*
G03*
X128073000Y-116840000I-1200000J0D01*
G01*
X165919000Y-112776000D02*
G75*
G03*
X165919000Y-112776000I-1200000J0D01*
G01*
X106110000Y-84344000D02*
X104710000Y-84344000D01*
X104010000Y-85044000D02*
X104010000Y-85644000D01*
X106810000Y-85644000D02*
X106810000Y-85044000D01*
X104710000Y-86344000D02*
X106110000Y-86344000D01*
X106110000Y-86344000D02*
G75*
G03*
X106810000Y-85644000I1J699999D01*
G01*
X106810000Y-85044000D02*
G75*
G03*
X106110000Y-84344000I-699999J1D01*
G01*
X104710000Y-84344000D02*
G75*
G03*
X104010000Y-85044000I0J-700000D01*
G01*
X104010000Y-85644000D02*
G75*
G03*
X104710000Y-86344000I700000J0D01*
G01*
X104959000Y-108839000D02*
G75*
G03*
X104959000Y-108839000I-1200000J0D01*
G01*
X110174000Y-84344000D02*
X108774000Y-84344000D01*
X108774000Y-86344000D02*
X110174000Y-86344000D01*
X108074000Y-85044000D02*
X108074000Y-85644000D01*
X110874000Y-85644000D02*
X110874000Y-85044000D01*
X110174000Y-86344000D02*
G75*
G03*
X110874000Y-85644000I1J699999D01*
G01*
X110874000Y-85044000D02*
G75*
G03*
X110174000Y-84344000I-699999J1D01*
G01*
X108774000Y-84344000D02*
G75*
G03*
X108074000Y-85044000I0J-700000D01*
G01*
X108074000Y-85644000D02*
G75*
G03*
X108774000Y-86344000I700000J0D01*
G01*
X130867000Y-81592000D02*
G75*
G03*
X130867000Y-81592000I-1200000J0D01*
G01*
X135439000Y-90170000D02*
G75*
G03*
X135439000Y-90170000I-1200000J0D01*
G01*
X120961000Y-81592000D02*
G75*
G03*
X120961000Y-81592000I-1200000J0D01*
G01*
X99946000Y-85044000D02*
X99946000Y-85644000D01*
X102746000Y-85644000D02*
X102746000Y-85044000D01*
X100646000Y-86344000D02*
X102046000Y-86344000D01*
X102046000Y-84344000D02*
X100646000Y-84344000D01*
X102746000Y-85044000D02*
G75*
G03*
X102046000Y-84344000I-699999J1D01*
G01*
X99946000Y-85644000D02*
G75*
G03*
X100646000Y-86344000I700000J0D01*
G01*
X100646000Y-84344000D02*
G75*
G03*
X99946000Y-85044000I0J-700000D01*
G01*
X102046000Y-86344000D02*
G75*
G03*
X102746000Y-85644000I1J699999D01*
G01*
X87560000Y-99822000D02*
G75*
G03*
X87560000Y-99822000I-1200000J0D01*
G01*
X87480000Y-104902000D02*
G75*
G03*
X87480000Y-104902000I-1200000J0D01*
G01*
X117405000Y-81592000D02*
G75*
G03*
X117405000Y-81592000I-1200000J0D01*
G01*
X117151000Y-116840000D02*
G75*
G03*
X117151000Y-116840000I-1200000J0D01*
G01*
X96582000Y-86344000D02*
X97982000Y-86344000D01*
X98682000Y-85644000D02*
X98682000Y-85044000D01*
X95882000Y-85044000D02*
X95882000Y-85644000D01*
X97982000Y-84344000D02*
X96582000Y-84344000D01*
X95882000Y-85644000D02*
G75*
G03*
X96582000Y-86344000I700000J0D01*
G01*
X96582000Y-84344000D02*
G75*
G03*
X95882000Y-85044000I0J-700000D01*
G01*
X97982000Y-86344000D02*
G75*
G03*
X98682000Y-85644000I1J699999D01*
G01*
X98682000Y-85044000D02*
G75*
G03*
X97982000Y-84344000I-699999J1D01*
G01*
M02*
