G04 #@! TF.GenerationSoftware,KiCad,Pcbnew,6.0.10-86aedd382b~118~ubuntu18.04.1*
G04 #@! TF.CreationDate,2024-08-26T14:20:04-06:00*
G04 #@! TF.ProjectId,ckt-iiab,636b742d-6969-4616-922e-6b696361645f,rev?*
G04 #@! TF.SameCoordinates,Original*
G04 #@! TF.FileFunction,Soldermask,Top*
G04 #@! TF.FilePolarity,Negative*
%FSLAX46Y46*%
G04 Gerber Fmt 4.6, Leading zero omitted, Abs format (unit mm)*
G04 Created by KiCad (PCBNEW 6.0.10-86aedd382b~118~ubuntu18.04.1) date 2024-08-26 14:20:04*
%MOMM*%
%LPD*%
G01*
G04 APERTURE LIST*
%ADD10C,2.452400*%
%ADD11C,6.552400*%
%ADD12C,2.527300*%
%ADD13C,1.143000*%
%ADD14C,0.939800*%
%ADD15C,2.652400*%
G04 APERTURE END LIST*
G36*
G01*
X101760000Y-106169800D02*
X102710000Y-106169800D01*
G75*
G02*
X103036200Y-106496000I0J-326200D01*
G01*
X103036200Y-106996000D01*
G75*
G02*
X102710000Y-107322200I-326200J0D01*
G01*
X101760000Y-107322200D01*
G75*
G02*
X101433800Y-106996000I0J326200D01*
G01*
X101433800Y-106496000D01*
G75*
G02*
X101760000Y-106169800I326200J0D01*
G01*
G37*
G36*
G01*
X101760000Y-108069800D02*
X102710000Y-108069800D01*
G75*
G02*
X103036200Y-108396000I0J-326200D01*
G01*
X103036200Y-108896000D01*
G75*
G02*
X102710000Y-109222200I-326200J0D01*
G01*
X101760000Y-109222200D01*
G75*
G02*
X101433800Y-108896000I0J326200D01*
G01*
X101433800Y-108396000D01*
G75*
G02*
X101760000Y-108069800I326200J0D01*
G01*
G37*
G36*
G01*
X138458800Y-122323000D02*
X138458800Y-121073000D01*
G75*
G02*
X138685000Y-120846800I226200J0D01*
G01*
X138985000Y-120846800D01*
G75*
G02*
X139211200Y-121073000I0J-226200D01*
G01*
X139211200Y-122323000D01*
G75*
G02*
X138985000Y-122549200I-226200J0D01*
G01*
X138685000Y-122549200D01*
G75*
G02*
X138458800Y-122323000I0J226200D01*
G01*
G37*
G36*
G01*
X139458800Y-122323000D02*
X139458800Y-121073000D01*
G75*
G02*
X139685000Y-120846800I226200J0D01*
G01*
X139985000Y-120846800D01*
G75*
G02*
X140211200Y-121073000I0J-226200D01*
G01*
X140211200Y-122323000D01*
G75*
G02*
X139985000Y-122549200I-226200J0D01*
G01*
X139685000Y-122549200D01*
G75*
G02*
X139458800Y-122323000I0J226200D01*
G01*
G37*
G36*
G01*
X140458800Y-122323000D02*
X140458800Y-121073000D01*
G75*
G02*
X140685000Y-120846800I226200J0D01*
G01*
X140985000Y-120846800D01*
G75*
G02*
X141211200Y-121073000I0J-226200D01*
G01*
X141211200Y-122323000D01*
G75*
G02*
X140985000Y-122549200I-226200J0D01*
G01*
X140685000Y-122549200D01*
G75*
G02*
X140458800Y-122323000I0J226200D01*
G01*
G37*
G36*
G01*
X141458800Y-122323000D02*
X141458800Y-121073000D01*
G75*
G02*
X141685000Y-120846800I226200J0D01*
G01*
X141985000Y-120846800D01*
G75*
G02*
X142211200Y-121073000I0J-226200D01*
G01*
X142211200Y-122323000D01*
G75*
G02*
X141985000Y-122549200I-226200J0D01*
G01*
X141685000Y-122549200D01*
G75*
G02*
X141458800Y-122323000I0J226200D01*
G01*
G37*
G36*
G01*
X142458800Y-126223000D02*
X142458800Y-124923000D01*
G75*
G02*
X142785000Y-124596800I326200J0D01*
G01*
X143485000Y-124596800D01*
G75*
G02*
X143811200Y-124923000I0J-326200D01*
G01*
X143811200Y-126223000D01*
G75*
G02*
X143485000Y-126549200I-326200J0D01*
G01*
X142785000Y-126549200D01*
G75*
G02*
X142458800Y-126223000I0J326200D01*
G01*
G37*
G36*
G01*
X136858800Y-126223000D02*
X136858800Y-124923000D01*
G75*
G02*
X137185000Y-124596800I326200J0D01*
G01*
X137885000Y-124596800D01*
G75*
G02*
X138211200Y-124923000I0J-326200D01*
G01*
X138211200Y-126223000D01*
G75*
G02*
X137885000Y-126549200I-326200J0D01*
G01*
X137185000Y-126549200D01*
G75*
G02*
X136858800Y-126223000I0J326200D01*
G01*
G37*
G36*
G01*
X140693200Y-99499000D02*
X140693200Y-100399000D01*
G75*
G02*
X140367000Y-100725200I-326200J0D01*
G01*
X139842000Y-100725200D01*
G75*
G02*
X139515800Y-100399000I0J326200D01*
G01*
X139515800Y-99499000D01*
G75*
G02*
X139842000Y-99172800I326200J0D01*
G01*
X140367000Y-99172800D01*
G75*
G02*
X140693200Y-99499000I0J-326200D01*
G01*
G37*
G36*
G01*
X138868200Y-99499000D02*
X138868200Y-100399000D01*
G75*
G02*
X138542000Y-100725200I-326200J0D01*
G01*
X138017000Y-100725200D01*
G75*
G02*
X137690800Y-100399000I0J326200D01*
G01*
X137690800Y-99499000D01*
G75*
G02*
X138017000Y-99172800I326200J0D01*
G01*
X138542000Y-99172800D01*
G75*
G02*
X138868200Y-99499000I0J-326200D01*
G01*
G37*
G36*
G01*
X98783200Y-84894000D02*
X98783200Y-85794000D01*
G75*
G02*
X98457000Y-86120200I-326200J0D01*
G01*
X97932000Y-86120200D01*
G75*
G02*
X97605800Y-85794000I0J326200D01*
G01*
X97605800Y-84894000D01*
G75*
G02*
X97932000Y-84567800I326200J0D01*
G01*
X98457000Y-84567800D01*
G75*
G02*
X98783200Y-84894000I0J-326200D01*
G01*
G37*
G36*
G01*
X96958200Y-84894000D02*
X96958200Y-85794000D01*
G75*
G02*
X96632000Y-86120200I-326200J0D01*
G01*
X96107000Y-86120200D01*
G75*
G02*
X95780800Y-85794000I0J326200D01*
G01*
X95780800Y-84894000D01*
G75*
G02*
X96107000Y-84567800I326200J0D01*
G01*
X96632000Y-84567800D01*
G75*
G02*
X96958200Y-84894000I0J-326200D01*
G01*
G37*
G36*
G01*
X124487200Y-76574000D02*
X124487200Y-78874000D01*
G75*
G02*
X124411000Y-78950200I-76200J0D01*
G01*
X122111000Y-78950200D01*
G75*
G02*
X122034800Y-78874000I0J76200D01*
G01*
X122034800Y-76574000D01*
G75*
G02*
X122111000Y-76497800I76200J0D01*
G01*
X124411000Y-76497800D01*
G75*
G02*
X124487200Y-76574000I0J-76200D01*
G01*
G37*
D10*
X119761000Y-77724000D03*
X116261000Y-77724000D03*
G36*
G01*
X117091800Y-111219000D02*
X117091800Y-110269000D01*
G75*
G02*
X117418000Y-109942800I326200J0D01*
G01*
X117918000Y-109942800D01*
G75*
G02*
X118244200Y-110269000I0J-326200D01*
G01*
X118244200Y-111219000D01*
G75*
G02*
X117918000Y-111545200I-326200J0D01*
G01*
X117418000Y-111545200D01*
G75*
G02*
X117091800Y-111219000I0J326200D01*
G01*
G37*
G36*
G01*
X118991800Y-111219000D02*
X118991800Y-110269000D01*
G75*
G02*
X119318000Y-109942800I326200J0D01*
G01*
X119818000Y-109942800D01*
G75*
G02*
X120144200Y-110269000I0J-326200D01*
G01*
X120144200Y-111219000D01*
G75*
G02*
X119818000Y-111545200I-326200J0D01*
G01*
X119318000Y-111545200D01*
G75*
G02*
X118991800Y-111219000I0J326200D01*
G01*
G37*
D11*
X167132000Y-122682000D03*
G36*
G01*
X104833000Y-106194800D02*
X105733000Y-106194800D01*
G75*
G02*
X106059200Y-106521000I0J-326200D01*
G01*
X106059200Y-107046000D01*
G75*
G02*
X105733000Y-107372200I-326200J0D01*
G01*
X104833000Y-107372200D01*
G75*
G02*
X104506800Y-107046000I0J326200D01*
G01*
X104506800Y-106521000D01*
G75*
G02*
X104833000Y-106194800I326200J0D01*
G01*
G37*
G36*
G01*
X104833000Y-108019800D02*
X105733000Y-108019800D01*
G75*
G02*
X106059200Y-108346000I0J-326200D01*
G01*
X106059200Y-108871000D01*
G75*
G02*
X105733000Y-109197200I-326200J0D01*
G01*
X104833000Y-109197200D01*
G75*
G02*
X104506800Y-108871000I0J326200D01*
G01*
X104506800Y-108346000D01*
G75*
G02*
X104833000Y-108019800I326200J0D01*
G01*
G37*
G36*
G01*
X115443700Y-107119000D02*
X115443700Y-108019000D01*
G75*
G02*
X115117500Y-108345200I-326200J0D01*
G01*
X114592500Y-108345200D01*
G75*
G02*
X114266300Y-108019000I0J326200D01*
G01*
X114266300Y-107119000D01*
G75*
G02*
X114592500Y-106792800I326200J0D01*
G01*
X115117500Y-106792800D01*
G75*
G02*
X115443700Y-107119000I0J-326200D01*
G01*
G37*
G36*
G01*
X113618700Y-107119000D02*
X113618700Y-108019000D01*
G75*
G02*
X113292500Y-108345200I-326200J0D01*
G01*
X112767500Y-108345200D01*
G75*
G02*
X112441300Y-108019000I0J326200D01*
G01*
X112441300Y-107119000D01*
G75*
G02*
X112767500Y-106792800I326200J0D01*
G01*
X113292500Y-106792800D01*
G75*
G02*
X113618700Y-107119000I0J-326200D01*
G01*
G37*
X167132000Y-74168000D03*
G36*
G01*
X106911200Y-84894000D02*
X106911200Y-85794000D01*
G75*
G02*
X106585000Y-86120200I-326200J0D01*
G01*
X106060000Y-86120200D01*
G75*
G02*
X105733800Y-85794000I0J326200D01*
G01*
X105733800Y-84894000D01*
G75*
G02*
X106060000Y-84567800I326200J0D01*
G01*
X106585000Y-84567800D01*
G75*
G02*
X106911200Y-84894000I0J-326200D01*
G01*
G37*
G36*
G01*
X105086200Y-84894000D02*
X105086200Y-85794000D01*
G75*
G02*
X104760000Y-86120200I-326200J0D01*
G01*
X104235000Y-86120200D01*
G75*
G02*
X103908800Y-85794000I0J326200D01*
G01*
X103908800Y-84894000D01*
G75*
G02*
X104235000Y-84567800I326200J0D01*
G01*
X104760000Y-84567800D01*
G75*
G02*
X105086200Y-84894000I0J-326200D01*
G01*
G37*
G36*
G01*
X88199000Y-94374200D02*
X86299000Y-94374200D01*
G75*
G02*
X86222800Y-94298000I0J76200D01*
G01*
X86222800Y-92898000D01*
G75*
G02*
X86299000Y-92821800I76200J0D01*
G01*
X88199000Y-92821800D01*
G75*
G02*
X88275200Y-92898000I0J-76200D01*
G01*
X88275200Y-94298000D01*
G75*
G02*
X88199000Y-94374200I-76200J0D01*
G01*
G37*
G36*
G01*
X88199000Y-91074200D02*
X86299000Y-91074200D01*
G75*
G02*
X86222800Y-90998000I0J76200D01*
G01*
X86222800Y-89598000D01*
G75*
G02*
X86299000Y-89521800I76200J0D01*
G01*
X88199000Y-89521800D01*
G75*
G02*
X88275200Y-89598000I0J-76200D01*
G01*
X88275200Y-90998000D01*
G75*
G02*
X88199000Y-91074200I-76200J0D01*
G01*
G37*
G36*
G01*
X140693200Y-102039000D02*
X140693200Y-102939000D01*
G75*
G02*
X140367000Y-103265200I-326200J0D01*
G01*
X139842000Y-103265200D01*
G75*
G02*
X139515800Y-102939000I0J326200D01*
G01*
X139515800Y-102039000D01*
G75*
G02*
X139842000Y-101712800I326200J0D01*
G01*
X140367000Y-101712800D01*
G75*
G02*
X140693200Y-102039000I0J-326200D01*
G01*
G37*
G36*
G01*
X138868200Y-102039000D02*
X138868200Y-102939000D01*
G75*
G02*
X138542000Y-103265200I-326200J0D01*
G01*
X138017000Y-103265200D01*
G75*
G02*
X137690800Y-102939000I0J326200D01*
G01*
X137690800Y-102039000D01*
G75*
G02*
X138017000Y-101712800I326200J0D01*
G01*
X138542000Y-101712800D01*
G75*
G02*
X138868200Y-102039000I0J-326200D01*
G01*
G37*
G36*
G01*
X127856000Y-96649200D02*
X126906000Y-96649200D01*
G75*
G02*
X126579800Y-96323000I0J326200D01*
G01*
X126579800Y-95823000D01*
G75*
G02*
X126906000Y-95496800I326200J0D01*
G01*
X127856000Y-95496800D01*
G75*
G02*
X128182200Y-95823000I0J-326200D01*
G01*
X128182200Y-96323000D01*
G75*
G02*
X127856000Y-96649200I-326200J0D01*
G01*
G37*
G36*
G01*
X127856000Y-94749200D02*
X126906000Y-94749200D01*
G75*
G02*
X126579800Y-94423000I0J326200D01*
G01*
X126579800Y-93923000D01*
G75*
G02*
X126906000Y-93596800I326200J0D01*
G01*
X127856000Y-93596800D01*
G75*
G02*
X128182200Y-93923000I0J-326200D01*
G01*
X128182200Y-94423000D01*
G75*
G02*
X127856000Y-94749200I-326200J0D01*
G01*
G37*
G36*
G01*
X93514000Y-106126200D02*
X92414000Y-106126200D01*
G75*
G02*
X92087800Y-105800000I0J326200D01*
G01*
X92087800Y-102800000D01*
G75*
G02*
X92414000Y-102473800I326200J0D01*
G01*
X93514000Y-102473800D01*
G75*
G02*
X93840200Y-102800000I0J-326200D01*
G01*
X93840200Y-105800000D01*
G75*
G02*
X93514000Y-106126200I-326200J0D01*
G01*
G37*
G36*
G01*
X93514000Y-100726200D02*
X92414000Y-100726200D01*
G75*
G02*
X92087800Y-100400000I0J326200D01*
G01*
X92087800Y-97400000D01*
G75*
G02*
X92414000Y-97073800I326200J0D01*
G01*
X93514000Y-97073800D01*
G75*
G02*
X93840200Y-97400000I0J-326200D01*
G01*
X93840200Y-100400000D01*
G75*
G02*
X93514000Y-100726200I-326200J0D01*
G01*
G37*
G36*
G01*
X131422200Y-100769000D02*
X131422200Y-101669000D01*
G75*
G02*
X131096000Y-101995200I-326200J0D01*
G01*
X130571000Y-101995200D01*
G75*
G02*
X130244800Y-101669000I0J326200D01*
G01*
X130244800Y-100769000D01*
G75*
G02*
X130571000Y-100442800I326200J0D01*
G01*
X131096000Y-100442800D01*
G75*
G02*
X131422200Y-100769000I0J-326200D01*
G01*
G37*
G36*
G01*
X129597200Y-100769000D02*
X129597200Y-101669000D01*
G75*
G02*
X129271000Y-101995200I-326200J0D01*
G01*
X128746000Y-101995200D01*
G75*
G02*
X128419800Y-101669000I0J326200D01*
G01*
X128419800Y-100769000D01*
G75*
G02*
X128746000Y-100442800I326200J0D01*
G01*
X129271000Y-100442800D01*
G75*
G02*
X129597200Y-100769000I0J-326200D01*
G01*
G37*
G36*
G01*
X116614800Y-122323000D02*
X116614800Y-121073000D01*
G75*
G02*
X116841000Y-120846800I226200J0D01*
G01*
X117141000Y-120846800D01*
G75*
G02*
X117367200Y-121073000I0J-226200D01*
G01*
X117367200Y-122323000D01*
G75*
G02*
X117141000Y-122549200I-226200J0D01*
G01*
X116841000Y-122549200D01*
G75*
G02*
X116614800Y-122323000I0J226200D01*
G01*
G37*
G36*
G01*
X117614800Y-122323000D02*
X117614800Y-121073000D01*
G75*
G02*
X117841000Y-120846800I226200J0D01*
G01*
X118141000Y-120846800D01*
G75*
G02*
X118367200Y-121073000I0J-226200D01*
G01*
X118367200Y-122323000D01*
G75*
G02*
X118141000Y-122549200I-226200J0D01*
G01*
X117841000Y-122549200D01*
G75*
G02*
X117614800Y-122323000I0J226200D01*
G01*
G37*
G36*
G01*
X118614800Y-122323000D02*
X118614800Y-121073000D01*
G75*
G02*
X118841000Y-120846800I226200J0D01*
G01*
X119141000Y-120846800D01*
G75*
G02*
X119367200Y-121073000I0J-226200D01*
G01*
X119367200Y-122323000D01*
G75*
G02*
X119141000Y-122549200I-226200J0D01*
G01*
X118841000Y-122549200D01*
G75*
G02*
X118614800Y-122323000I0J226200D01*
G01*
G37*
G36*
G01*
X119614800Y-122323000D02*
X119614800Y-121073000D01*
G75*
G02*
X119841000Y-120846800I226200J0D01*
G01*
X120141000Y-120846800D01*
G75*
G02*
X120367200Y-121073000I0J-226200D01*
G01*
X120367200Y-122323000D01*
G75*
G02*
X120141000Y-122549200I-226200J0D01*
G01*
X119841000Y-122549200D01*
G75*
G02*
X119614800Y-122323000I0J226200D01*
G01*
G37*
G36*
G01*
X115014800Y-126223000D02*
X115014800Y-124923000D01*
G75*
G02*
X115341000Y-124596800I326200J0D01*
G01*
X116041000Y-124596800D01*
G75*
G02*
X116367200Y-124923000I0J-326200D01*
G01*
X116367200Y-126223000D01*
G75*
G02*
X116041000Y-126549200I-326200J0D01*
G01*
X115341000Y-126549200D01*
G75*
G02*
X115014800Y-126223000I0J326200D01*
G01*
G37*
G36*
G01*
X120614800Y-126223000D02*
X120614800Y-124923000D01*
G75*
G02*
X120941000Y-124596800I326200J0D01*
G01*
X121641000Y-124596800D01*
G75*
G02*
X121967200Y-124923000I0J-326200D01*
G01*
X121967200Y-126223000D01*
G75*
G02*
X121641000Y-126549200I-326200J0D01*
G01*
X120941000Y-126549200D01*
G75*
G02*
X120614800Y-126223000I0J326200D01*
G01*
G37*
G36*
G01*
X134724200Y-86672000D02*
X134724200Y-87572000D01*
G75*
G02*
X134398000Y-87898200I-326200J0D01*
G01*
X133873000Y-87898200D01*
G75*
G02*
X133546800Y-87572000I0J326200D01*
G01*
X133546800Y-86672000D01*
G75*
G02*
X133873000Y-86345800I326200J0D01*
G01*
X134398000Y-86345800D01*
G75*
G02*
X134724200Y-86672000I0J-326200D01*
G01*
G37*
G36*
G01*
X132899200Y-86672000D02*
X132899200Y-87572000D01*
G75*
G02*
X132573000Y-87898200I-326200J0D01*
G01*
X132048000Y-87898200D01*
G75*
G02*
X131721800Y-87572000I0J326200D01*
G01*
X131721800Y-86672000D01*
G75*
G02*
X132048000Y-86345800I326200J0D01*
G01*
X132573000Y-86345800D01*
G75*
G02*
X132899200Y-86672000I0J-326200D01*
G01*
G37*
G36*
G01*
X115420200Y-103944000D02*
X115420200Y-104844000D01*
G75*
G02*
X115094000Y-105170200I-326200J0D01*
G01*
X114569000Y-105170200D01*
G75*
G02*
X114242800Y-104844000I0J326200D01*
G01*
X114242800Y-103944000D01*
G75*
G02*
X114569000Y-103617800I326200J0D01*
G01*
X115094000Y-103617800D01*
G75*
G02*
X115420200Y-103944000I0J-326200D01*
G01*
G37*
G36*
G01*
X113595200Y-103944000D02*
X113595200Y-104844000D01*
G75*
G02*
X113269000Y-105170200I-326200J0D01*
G01*
X112744000Y-105170200D01*
G75*
G02*
X112417800Y-104844000I0J326200D01*
G01*
X112417800Y-103944000D01*
G75*
G02*
X112744000Y-103617800I326200J0D01*
G01*
X113269000Y-103617800D01*
G75*
G02*
X113595200Y-103944000I0J-326200D01*
G01*
G37*
X80518000Y-122682000D03*
G36*
G01*
X110975200Y-84894000D02*
X110975200Y-85794000D01*
G75*
G02*
X110649000Y-86120200I-326200J0D01*
G01*
X110124000Y-86120200D01*
G75*
G02*
X109797800Y-85794000I0J326200D01*
G01*
X109797800Y-84894000D01*
G75*
G02*
X110124000Y-84567800I326200J0D01*
G01*
X110649000Y-84567800D01*
G75*
G02*
X110975200Y-84894000I0J-326200D01*
G01*
G37*
G36*
G01*
X109150200Y-84894000D02*
X109150200Y-85794000D01*
G75*
G02*
X108824000Y-86120200I-326200J0D01*
G01*
X108299000Y-86120200D01*
G75*
G02*
X107972800Y-85794000I0J326200D01*
G01*
X107972800Y-84894000D01*
G75*
G02*
X108299000Y-84567800I326200J0D01*
G01*
X108824000Y-84567800D01*
G75*
G02*
X109150200Y-84894000I0J-326200D01*
G01*
G37*
X80518000Y-74168000D03*
G36*
G01*
X93411000Y-89521800D02*
X95311000Y-89521800D01*
G75*
G02*
X95387200Y-89598000I0J-76200D01*
G01*
X95387200Y-90998000D01*
G75*
G02*
X95311000Y-91074200I-76200J0D01*
G01*
X93411000Y-91074200D01*
G75*
G02*
X93334800Y-90998000I0J76200D01*
G01*
X93334800Y-89598000D01*
G75*
G02*
X93411000Y-89521800I76200J0D01*
G01*
G37*
G36*
G01*
X93411000Y-92821800D02*
X95311000Y-92821800D01*
G75*
G02*
X95387200Y-92898000I0J-76200D01*
G01*
X95387200Y-94298000D01*
G75*
G02*
X95311000Y-94374200I-76200J0D01*
G01*
X93411000Y-94374200D01*
G75*
G02*
X93334800Y-94298000I0J76200D01*
G01*
X93334800Y-92898000D01*
G75*
G02*
X93411000Y-92821800I76200J0D01*
G01*
G37*
G36*
G01*
X82743000Y-89521800D02*
X84643000Y-89521800D01*
G75*
G02*
X84719200Y-89598000I0J-76200D01*
G01*
X84719200Y-90998000D01*
G75*
G02*
X84643000Y-91074200I-76200J0D01*
G01*
X82743000Y-91074200D01*
G75*
G02*
X82666800Y-90998000I0J76200D01*
G01*
X82666800Y-89598000D01*
G75*
G02*
X82743000Y-89521800I76200J0D01*
G01*
G37*
G36*
G01*
X82743000Y-92821800D02*
X84643000Y-92821800D01*
G75*
G02*
X84719200Y-92898000I0J-76200D01*
G01*
X84719200Y-94298000D01*
G75*
G02*
X84643000Y-94374200I-76200J0D01*
G01*
X82743000Y-94374200D01*
G75*
G02*
X82666800Y-94298000I0J76200D01*
G01*
X82666800Y-92898000D01*
G75*
G02*
X82743000Y-92821800I76200J0D01*
G01*
G37*
G36*
G01*
X157493200Y-106755000D02*
X157493200Y-107875000D01*
G75*
G02*
X157417000Y-107951200I-76200J0D01*
G01*
X154977000Y-107951200D01*
G75*
G02*
X154900800Y-107875000I0J76200D01*
G01*
X154900800Y-106755000D01*
G75*
G02*
X154977000Y-106678800I76200J0D01*
G01*
X157417000Y-106678800D01*
G75*
G02*
X157493200Y-106755000I0J-76200D01*
G01*
G37*
G36*
G01*
X157493200Y-104215000D02*
X157493200Y-105335000D01*
G75*
G02*
X157417000Y-105411200I-76200J0D01*
G01*
X154977000Y-105411200D01*
G75*
G02*
X154900800Y-105335000I0J76200D01*
G01*
X154900800Y-104215000D01*
G75*
G02*
X154977000Y-104138800I76200J0D01*
G01*
X157417000Y-104138800D01*
G75*
G02*
X157493200Y-104215000I0J-76200D01*
G01*
G37*
G36*
G01*
X157493200Y-101675000D02*
X157493200Y-102795000D01*
G75*
G02*
X157417000Y-102871200I-76200J0D01*
G01*
X154977000Y-102871200D01*
G75*
G02*
X154900800Y-102795000I0J76200D01*
G01*
X154900800Y-101675000D01*
G75*
G02*
X154977000Y-101598800I76200J0D01*
G01*
X157417000Y-101598800D01*
G75*
G02*
X157493200Y-101675000I0J-76200D01*
G01*
G37*
G36*
G01*
X157493200Y-99135000D02*
X157493200Y-100255000D01*
G75*
G02*
X157417000Y-100331200I-76200J0D01*
G01*
X154977000Y-100331200D01*
G75*
G02*
X154900800Y-100255000I0J76200D01*
G01*
X154900800Y-99135000D01*
G75*
G02*
X154977000Y-99058800I76200J0D01*
G01*
X157417000Y-99058800D01*
G75*
G02*
X157493200Y-99135000I0J-76200D01*
G01*
G37*
G36*
G01*
X157493200Y-96595000D02*
X157493200Y-97715000D01*
G75*
G02*
X157417000Y-97791200I-76200J0D01*
G01*
X154977000Y-97791200D01*
G75*
G02*
X154900800Y-97715000I0J76200D01*
G01*
X154900800Y-96595000D01*
G75*
G02*
X154977000Y-96518800I76200J0D01*
G01*
X157417000Y-96518800D01*
G75*
G02*
X157493200Y-96595000I0J-76200D01*
G01*
G37*
G36*
G01*
X157493200Y-94055000D02*
X157493200Y-95175000D01*
G75*
G02*
X157417000Y-95251200I-76200J0D01*
G01*
X154977000Y-95251200D01*
G75*
G02*
X154900800Y-95175000I0J76200D01*
G01*
X154900800Y-94055000D01*
G75*
G02*
X154977000Y-93978800I76200J0D01*
G01*
X157417000Y-93978800D01*
G75*
G02*
X157493200Y-94055000I0J-76200D01*
G01*
G37*
G36*
G01*
X157493200Y-91515000D02*
X157493200Y-92635000D01*
G75*
G02*
X157417000Y-92711200I-76200J0D01*
G01*
X154977000Y-92711200D01*
G75*
G02*
X154900800Y-92635000I0J76200D01*
G01*
X154900800Y-91515000D01*
G75*
G02*
X154977000Y-91438800I76200J0D01*
G01*
X157417000Y-91438800D01*
G75*
G02*
X157493200Y-91515000I0J-76200D01*
G01*
G37*
G36*
G01*
X157493200Y-88975000D02*
X157493200Y-90095000D01*
G75*
G02*
X157417000Y-90171200I-76200J0D01*
G01*
X154977000Y-90171200D01*
G75*
G02*
X154900800Y-90095000I0J76200D01*
G01*
X154900800Y-88975000D01*
G75*
G02*
X154977000Y-88898800I76200J0D01*
G01*
X157417000Y-88898800D01*
G75*
G02*
X157493200Y-88975000I0J-76200D01*
G01*
G37*
G36*
G01*
X148883200Y-88975000D02*
X148883200Y-90095000D01*
G75*
G02*
X148807000Y-90171200I-76200J0D01*
G01*
X146367000Y-90171200D01*
G75*
G02*
X146290800Y-90095000I0J76200D01*
G01*
X146290800Y-88975000D01*
G75*
G02*
X146367000Y-88898800I76200J0D01*
G01*
X148807000Y-88898800D01*
G75*
G02*
X148883200Y-88975000I0J-76200D01*
G01*
G37*
G36*
G01*
X148883200Y-91515000D02*
X148883200Y-92635000D01*
G75*
G02*
X148807000Y-92711200I-76200J0D01*
G01*
X146367000Y-92711200D01*
G75*
G02*
X146290800Y-92635000I0J76200D01*
G01*
X146290800Y-91515000D01*
G75*
G02*
X146367000Y-91438800I76200J0D01*
G01*
X148807000Y-91438800D01*
G75*
G02*
X148883200Y-91515000I0J-76200D01*
G01*
G37*
G36*
G01*
X148883200Y-94055000D02*
X148883200Y-95175000D01*
G75*
G02*
X148807000Y-95251200I-76200J0D01*
G01*
X146367000Y-95251200D01*
G75*
G02*
X146290800Y-95175000I0J76200D01*
G01*
X146290800Y-94055000D01*
G75*
G02*
X146367000Y-93978800I76200J0D01*
G01*
X148807000Y-93978800D01*
G75*
G02*
X148883200Y-94055000I0J-76200D01*
G01*
G37*
G36*
G01*
X148883200Y-96595000D02*
X148883200Y-97715000D01*
G75*
G02*
X148807000Y-97791200I-76200J0D01*
G01*
X146367000Y-97791200D01*
G75*
G02*
X146290800Y-97715000I0J76200D01*
G01*
X146290800Y-96595000D01*
G75*
G02*
X146367000Y-96518800I76200J0D01*
G01*
X148807000Y-96518800D01*
G75*
G02*
X148883200Y-96595000I0J-76200D01*
G01*
G37*
G36*
G01*
X148883200Y-99135000D02*
X148883200Y-100255000D01*
G75*
G02*
X148807000Y-100331200I-76200J0D01*
G01*
X146367000Y-100331200D01*
G75*
G02*
X146290800Y-100255000I0J76200D01*
G01*
X146290800Y-99135000D01*
G75*
G02*
X146367000Y-99058800I76200J0D01*
G01*
X148807000Y-99058800D01*
G75*
G02*
X148883200Y-99135000I0J-76200D01*
G01*
G37*
G36*
G01*
X148883200Y-101675000D02*
X148883200Y-102795000D01*
G75*
G02*
X148807000Y-102871200I-76200J0D01*
G01*
X146367000Y-102871200D01*
G75*
G02*
X146290800Y-102795000I0J76200D01*
G01*
X146290800Y-101675000D01*
G75*
G02*
X146367000Y-101598800I76200J0D01*
G01*
X148807000Y-101598800D01*
G75*
G02*
X148883200Y-101675000I0J-76200D01*
G01*
G37*
G36*
G01*
X148883200Y-104215000D02*
X148883200Y-105335000D01*
G75*
G02*
X148807000Y-105411200I-76200J0D01*
G01*
X146367000Y-105411200D01*
G75*
G02*
X146290800Y-105335000I0J76200D01*
G01*
X146290800Y-104215000D01*
G75*
G02*
X146367000Y-104138800I76200J0D01*
G01*
X148807000Y-104138800D01*
G75*
G02*
X148883200Y-104215000I0J-76200D01*
G01*
G37*
G36*
G01*
X148883200Y-106755000D02*
X148883200Y-107875000D01*
G75*
G02*
X148807000Y-107951200I-76200J0D01*
G01*
X146367000Y-107951200D01*
G75*
G02*
X146290800Y-107875000I0J76200D01*
G01*
X146290800Y-106755000D01*
G75*
G02*
X146367000Y-106678800I76200J0D01*
G01*
X148807000Y-106678800D01*
G75*
G02*
X148883200Y-106755000I0J-76200D01*
G01*
G37*
G36*
G01*
X117091800Y-104869000D02*
X117091800Y-103919000D01*
G75*
G02*
X117418000Y-103592800I326200J0D01*
G01*
X117918000Y-103592800D01*
G75*
G02*
X118244200Y-103919000I0J-326200D01*
G01*
X118244200Y-104869000D01*
G75*
G02*
X117918000Y-105195200I-326200J0D01*
G01*
X117418000Y-105195200D01*
G75*
G02*
X117091800Y-104869000I0J326200D01*
G01*
G37*
G36*
G01*
X118991800Y-104869000D02*
X118991800Y-103919000D01*
G75*
G02*
X119318000Y-103592800I326200J0D01*
G01*
X119818000Y-103592800D01*
G75*
G02*
X120144200Y-103919000I0J-326200D01*
G01*
X120144200Y-104869000D01*
G75*
G02*
X119818000Y-105195200I-326200J0D01*
G01*
X119318000Y-105195200D01*
G75*
G02*
X118991800Y-104869000I0J326200D01*
G01*
G37*
G36*
G01*
X84633750Y-110893800D02*
X85546250Y-110893800D01*
G75*
G02*
X85866200Y-111213750I0J-319950D01*
G01*
X85866200Y-111701250D01*
G75*
G02*
X85546250Y-112021200I-319950J0D01*
G01*
X84633750Y-112021200D01*
G75*
G02*
X84313800Y-111701250I0J319950D01*
G01*
X84313800Y-111213750D01*
G75*
G02*
X84633750Y-110893800I319950J0D01*
G01*
G37*
G36*
G01*
X84633750Y-112768800D02*
X85546250Y-112768800D01*
G75*
G02*
X85866200Y-113088750I0J-319950D01*
G01*
X85866200Y-113576250D01*
G75*
G02*
X85546250Y-113896200I-319950J0D01*
G01*
X84633750Y-113896200D01*
G75*
G02*
X84313800Y-113576250I0J319950D01*
G01*
X84313800Y-113088750D01*
G75*
G02*
X84633750Y-112768800I319950J0D01*
G01*
G37*
G36*
G01*
X102847200Y-84894000D02*
X102847200Y-85794000D01*
G75*
G02*
X102521000Y-86120200I-326200J0D01*
G01*
X101996000Y-86120200D01*
G75*
G02*
X101669800Y-85794000I0J326200D01*
G01*
X101669800Y-84894000D01*
G75*
G02*
X101996000Y-84567800I326200J0D01*
G01*
X102521000Y-84567800D01*
G75*
G02*
X102847200Y-84894000I0J-326200D01*
G01*
G37*
G36*
G01*
X101022200Y-84894000D02*
X101022200Y-85794000D01*
G75*
G02*
X100696000Y-86120200I-326200J0D01*
G01*
X100171000Y-86120200D01*
G75*
G02*
X99844800Y-85794000I0J326200D01*
G01*
X99844800Y-84894000D01*
G75*
G02*
X100171000Y-84567800I326200J0D01*
G01*
X100696000Y-84567800D01*
G75*
G02*
X101022200Y-84894000I0J-326200D01*
G01*
G37*
D12*
X101219000Y-95627000D03*
X106299000Y-98802000D03*
X101219000Y-98802000D03*
D13*
X104775000Y-100707000D03*
X103759000Y-95627000D03*
X102743000Y-100707000D03*
D12*
X106299000Y-95627000D03*
D14*
X103124000Y-96897000D03*
X104394000Y-96897000D03*
X103124000Y-98167000D03*
X104394000Y-98167000D03*
X103124000Y-99437000D03*
X104394000Y-99437000D03*
G36*
G01*
X140693200Y-108389000D02*
X140693200Y-109289000D01*
G75*
G02*
X140367000Y-109615200I-326200J0D01*
G01*
X139842000Y-109615200D01*
G75*
G02*
X139515800Y-109289000I0J326200D01*
G01*
X139515800Y-108389000D01*
G75*
G02*
X139842000Y-108062800I326200J0D01*
G01*
X140367000Y-108062800D01*
G75*
G02*
X140693200Y-108389000I0J-326200D01*
G01*
G37*
G36*
G01*
X138868200Y-108389000D02*
X138868200Y-109289000D01*
G75*
G02*
X138542000Y-109615200I-326200J0D01*
G01*
X138017000Y-109615200D01*
G75*
G02*
X137690800Y-109289000I0J326200D01*
G01*
X137690800Y-108389000D01*
G75*
G02*
X138017000Y-108062800I326200J0D01*
G01*
X138542000Y-108062800D01*
G75*
G02*
X138868200Y-108389000I0J-326200D01*
G01*
G37*
G36*
G01*
X79649000Y-98495800D02*
X82149000Y-98495800D01*
G75*
G02*
X82225200Y-98572000I0J-76200D01*
G01*
X82225200Y-101072000D01*
G75*
G02*
X82149000Y-101148200I-76200J0D01*
G01*
X79649000Y-101148200D01*
G75*
G02*
X79572800Y-101072000I0J76200D01*
G01*
X79572800Y-98572000D01*
G75*
G02*
X79649000Y-98495800I76200J0D01*
G01*
G37*
D15*
X80899000Y-104822000D03*
G36*
G01*
X140693200Y-96959000D02*
X140693200Y-97859000D01*
G75*
G02*
X140367000Y-98185200I-326200J0D01*
G01*
X139842000Y-98185200D01*
G75*
G02*
X139515800Y-97859000I0J326200D01*
G01*
X139515800Y-96959000D01*
G75*
G02*
X139842000Y-96632800I326200J0D01*
G01*
X140367000Y-96632800D01*
G75*
G02*
X140693200Y-96959000I0J-326200D01*
G01*
G37*
G36*
G01*
X138868200Y-96959000D02*
X138868200Y-97859000D01*
G75*
G02*
X138542000Y-98185200I-326200J0D01*
G01*
X138017000Y-98185200D01*
G75*
G02*
X137690800Y-97859000I0J326200D01*
G01*
X137690800Y-96959000D01*
G75*
G02*
X138017000Y-96632800I326200J0D01*
G01*
X138542000Y-96632800D01*
G75*
G02*
X138868200Y-96959000I0J-326200D01*
G01*
G37*
G36*
G01*
X131422200Y-104579000D02*
X131422200Y-105479000D01*
G75*
G02*
X131096000Y-105805200I-326200J0D01*
G01*
X130571000Y-105805200D01*
G75*
G02*
X130244800Y-105479000I0J326200D01*
G01*
X130244800Y-104579000D01*
G75*
G02*
X130571000Y-104252800I326200J0D01*
G01*
X131096000Y-104252800D01*
G75*
G02*
X131422200Y-104579000I0J-326200D01*
G01*
G37*
G36*
G01*
X129597200Y-104579000D02*
X129597200Y-105479000D01*
G75*
G02*
X129271000Y-105805200I-326200J0D01*
G01*
X128746000Y-105805200D01*
G75*
G02*
X128419800Y-105479000I0J326200D01*
G01*
X128419800Y-104579000D01*
G75*
G02*
X128746000Y-104252800I326200J0D01*
G01*
X129271000Y-104252800D01*
G75*
G02*
X129597200Y-104579000I0J-326200D01*
G01*
G37*
G36*
G01*
X114009800Y-89558000D02*
X114009800Y-89258000D01*
G75*
G02*
X114236000Y-89031800I226200J0D01*
G01*
X115986000Y-89031800D01*
G75*
G02*
X116212200Y-89258000I0J-226200D01*
G01*
X116212200Y-89558000D01*
G75*
G02*
X115986000Y-89784200I-226200J0D01*
G01*
X114236000Y-89784200D01*
G75*
G02*
X114009800Y-89558000I0J226200D01*
G01*
G37*
G36*
G01*
X114009800Y-90828000D02*
X114009800Y-90528000D01*
G75*
G02*
X114236000Y-90301800I226200J0D01*
G01*
X115986000Y-90301800D01*
G75*
G02*
X116212200Y-90528000I0J-226200D01*
G01*
X116212200Y-90828000D01*
G75*
G02*
X115986000Y-91054200I-226200J0D01*
G01*
X114236000Y-91054200D01*
G75*
G02*
X114009800Y-90828000I0J226200D01*
G01*
G37*
G36*
G01*
X114009800Y-92098000D02*
X114009800Y-91798000D01*
G75*
G02*
X114236000Y-91571800I226200J0D01*
G01*
X115986000Y-91571800D01*
G75*
G02*
X116212200Y-91798000I0J-226200D01*
G01*
X116212200Y-92098000D01*
G75*
G02*
X115986000Y-92324200I-226200J0D01*
G01*
X114236000Y-92324200D01*
G75*
G02*
X114009800Y-92098000I0J226200D01*
G01*
G37*
G36*
G01*
X114009800Y-93368000D02*
X114009800Y-93068000D01*
G75*
G02*
X114236000Y-92841800I226200J0D01*
G01*
X115986000Y-92841800D01*
G75*
G02*
X116212200Y-93068000I0J-226200D01*
G01*
X116212200Y-93368000D01*
G75*
G02*
X115986000Y-93594200I-226200J0D01*
G01*
X114236000Y-93594200D01*
G75*
G02*
X114009800Y-93368000I0J226200D01*
G01*
G37*
G36*
G01*
X114009800Y-94638000D02*
X114009800Y-94338000D01*
G75*
G02*
X114236000Y-94111800I226200J0D01*
G01*
X115986000Y-94111800D01*
G75*
G02*
X116212200Y-94338000I0J-226200D01*
G01*
X116212200Y-94638000D01*
G75*
G02*
X115986000Y-94864200I-226200J0D01*
G01*
X114236000Y-94864200D01*
G75*
G02*
X114009800Y-94638000I0J226200D01*
G01*
G37*
G36*
G01*
X114009800Y-95908000D02*
X114009800Y-95608000D01*
G75*
G02*
X114236000Y-95381800I226200J0D01*
G01*
X115986000Y-95381800D01*
G75*
G02*
X116212200Y-95608000I0J-226200D01*
G01*
X116212200Y-95908000D01*
G75*
G02*
X115986000Y-96134200I-226200J0D01*
G01*
X114236000Y-96134200D01*
G75*
G02*
X114009800Y-95908000I0J226200D01*
G01*
G37*
G36*
G01*
X114009800Y-97178000D02*
X114009800Y-96878000D01*
G75*
G02*
X114236000Y-96651800I226200J0D01*
G01*
X115986000Y-96651800D01*
G75*
G02*
X116212200Y-96878000I0J-226200D01*
G01*
X116212200Y-97178000D01*
G75*
G02*
X115986000Y-97404200I-226200J0D01*
G01*
X114236000Y-97404200D01*
G75*
G02*
X114009800Y-97178000I0J226200D01*
G01*
G37*
G36*
G01*
X114009800Y-98448000D02*
X114009800Y-98148000D01*
G75*
G02*
X114236000Y-97921800I226200J0D01*
G01*
X115986000Y-97921800D01*
G75*
G02*
X116212200Y-98148000I0J-226200D01*
G01*
X116212200Y-98448000D01*
G75*
G02*
X115986000Y-98674200I-226200J0D01*
G01*
X114236000Y-98674200D01*
G75*
G02*
X114009800Y-98448000I0J226200D01*
G01*
G37*
G36*
G01*
X114009800Y-99718000D02*
X114009800Y-99418000D01*
G75*
G02*
X114236000Y-99191800I226200J0D01*
G01*
X115986000Y-99191800D01*
G75*
G02*
X116212200Y-99418000I0J-226200D01*
G01*
X116212200Y-99718000D01*
G75*
G02*
X115986000Y-99944200I-226200J0D01*
G01*
X114236000Y-99944200D01*
G75*
G02*
X114009800Y-99718000I0J226200D01*
G01*
G37*
G36*
G01*
X114009800Y-100988000D02*
X114009800Y-100688000D01*
G75*
G02*
X114236000Y-100461800I226200J0D01*
G01*
X115986000Y-100461800D01*
G75*
G02*
X116212200Y-100688000I0J-226200D01*
G01*
X116212200Y-100988000D01*
G75*
G02*
X115986000Y-101214200I-226200J0D01*
G01*
X114236000Y-101214200D01*
G75*
G02*
X114009800Y-100988000I0J226200D01*
G01*
G37*
G36*
G01*
X123309800Y-100988000D02*
X123309800Y-100688000D01*
G75*
G02*
X123536000Y-100461800I226200J0D01*
G01*
X125286000Y-100461800D01*
G75*
G02*
X125512200Y-100688000I0J-226200D01*
G01*
X125512200Y-100988000D01*
G75*
G02*
X125286000Y-101214200I-226200J0D01*
G01*
X123536000Y-101214200D01*
G75*
G02*
X123309800Y-100988000I0J226200D01*
G01*
G37*
G36*
G01*
X123309800Y-99718000D02*
X123309800Y-99418000D01*
G75*
G02*
X123536000Y-99191800I226200J0D01*
G01*
X125286000Y-99191800D01*
G75*
G02*
X125512200Y-99418000I0J-226200D01*
G01*
X125512200Y-99718000D01*
G75*
G02*
X125286000Y-99944200I-226200J0D01*
G01*
X123536000Y-99944200D01*
G75*
G02*
X123309800Y-99718000I0J226200D01*
G01*
G37*
G36*
G01*
X123309800Y-98448000D02*
X123309800Y-98148000D01*
G75*
G02*
X123536000Y-97921800I226200J0D01*
G01*
X125286000Y-97921800D01*
G75*
G02*
X125512200Y-98148000I0J-226200D01*
G01*
X125512200Y-98448000D01*
G75*
G02*
X125286000Y-98674200I-226200J0D01*
G01*
X123536000Y-98674200D01*
G75*
G02*
X123309800Y-98448000I0J226200D01*
G01*
G37*
G36*
G01*
X123309800Y-97178000D02*
X123309800Y-96878000D01*
G75*
G02*
X123536000Y-96651800I226200J0D01*
G01*
X125286000Y-96651800D01*
G75*
G02*
X125512200Y-96878000I0J-226200D01*
G01*
X125512200Y-97178000D01*
G75*
G02*
X125286000Y-97404200I-226200J0D01*
G01*
X123536000Y-97404200D01*
G75*
G02*
X123309800Y-97178000I0J226200D01*
G01*
G37*
G36*
G01*
X123309800Y-95908000D02*
X123309800Y-95608000D01*
G75*
G02*
X123536000Y-95381800I226200J0D01*
G01*
X125286000Y-95381800D01*
G75*
G02*
X125512200Y-95608000I0J-226200D01*
G01*
X125512200Y-95908000D01*
G75*
G02*
X125286000Y-96134200I-226200J0D01*
G01*
X123536000Y-96134200D01*
G75*
G02*
X123309800Y-95908000I0J226200D01*
G01*
G37*
G36*
G01*
X123309800Y-94638000D02*
X123309800Y-94338000D01*
G75*
G02*
X123536000Y-94111800I226200J0D01*
G01*
X125286000Y-94111800D01*
G75*
G02*
X125512200Y-94338000I0J-226200D01*
G01*
X125512200Y-94638000D01*
G75*
G02*
X125286000Y-94864200I-226200J0D01*
G01*
X123536000Y-94864200D01*
G75*
G02*
X123309800Y-94638000I0J226200D01*
G01*
G37*
G36*
G01*
X123309800Y-93368000D02*
X123309800Y-93068000D01*
G75*
G02*
X123536000Y-92841800I226200J0D01*
G01*
X125286000Y-92841800D01*
G75*
G02*
X125512200Y-93068000I0J-226200D01*
G01*
X125512200Y-93368000D01*
G75*
G02*
X125286000Y-93594200I-226200J0D01*
G01*
X123536000Y-93594200D01*
G75*
G02*
X123309800Y-93368000I0J226200D01*
G01*
G37*
G36*
G01*
X123309800Y-92098000D02*
X123309800Y-91798000D01*
G75*
G02*
X123536000Y-91571800I226200J0D01*
G01*
X125286000Y-91571800D01*
G75*
G02*
X125512200Y-91798000I0J-226200D01*
G01*
X125512200Y-92098000D01*
G75*
G02*
X125286000Y-92324200I-226200J0D01*
G01*
X123536000Y-92324200D01*
G75*
G02*
X123309800Y-92098000I0J226200D01*
G01*
G37*
G36*
G01*
X123309800Y-90828000D02*
X123309800Y-90528000D01*
G75*
G02*
X123536000Y-90301800I226200J0D01*
G01*
X125286000Y-90301800D01*
G75*
G02*
X125512200Y-90528000I0J-226200D01*
G01*
X125512200Y-90828000D01*
G75*
G02*
X125286000Y-91054200I-226200J0D01*
G01*
X123536000Y-91054200D01*
G75*
G02*
X123309800Y-90828000I0J226200D01*
G01*
G37*
G36*
G01*
X123309800Y-89558000D02*
X123309800Y-89258000D01*
G75*
G02*
X123536000Y-89031800I226200J0D01*
G01*
X125286000Y-89031800D01*
G75*
G02*
X125512200Y-89258000I0J-226200D01*
G01*
X125512200Y-89558000D01*
G75*
G02*
X125286000Y-89784200I-226200J0D01*
G01*
X123536000Y-89784200D01*
G75*
G02*
X123309800Y-89558000I0J226200D01*
G01*
G37*
G36*
G01*
X111666000Y-93596800D02*
X112616000Y-93596800D01*
G75*
G02*
X112942200Y-93923000I0J-326200D01*
G01*
X112942200Y-94423000D01*
G75*
G02*
X112616000Y-94749200I-326200J0D01*
G01*
X111666000Y-94749200D01*
G75*
G02*
X111339800Y-94423000I0J326200D01*
G01*
X111339800Y-93923000D01*
G75*
G02*
X111666000Y-93596800I326200J0D01*
G01*
G37*
G36*
G01*
X111666000Y-95496800D02*
X112616000Y-95496800D01*
G75*
G02*
X112942200Y-95823000I0J-326200D01*
G01*
X112942200Y-96323000D01*
G75*
G02*
X112616000Y-96649200I-326200J0D01*
G01*
X111666000Y-96649200D01*
G75*
G02*
X111339800Y-96323000I0J326200D01*
G01*
X111339800Y-95823000D01*
G75*
G02*
X111666000Y-95496800I326200J0D01*
G01*
G37*
G36*
G01*
X91755000Y-94374200D02*
X89855000Y-94374200D01*
G75*
G02*
X89778800Y-94298000I0J76200D01*
G01*
X89778800Y-92898000D01*
G75*
G02*
X89855000Y-92821800I76200J0D01*
G01*
X91755000Y-92821800D01*
G75*
G02*
X91831200Y-92898000I0J-76200D01*
G01*
X91831200Y-94298000D01*
G75*
G02*
X91755000Y-94374200I-76200J0D01*
G01*
G37*
G36*
G01*
X91755000Y-91074200D02*
X89855000Y-91074200D01*
G75*
G02*
X89778800Y-90998000I0J76200D01*
G01*
X89778800Y-89598000D01*
G75*
G02*
X89855000Y-89521800I76200J0D01*
G01*
X91755000Y-89521800D01*
G75*
G02*
X91831200Y-89598000I0J-76200D01*
G01*
X91831200Y-90998000D01*
G75*
G02*
X91755000Y-91074200I-76200J0D01*
G01*
G37*
G36*
G01*
X137949200Y-76574000D02*
X137949200Y-78874000D01*
G75*
G02*
X137873000Y-78950200I-76200J0D01*
G01*
X135573000Y-78950200D01*
G75*
G02*
X135496800Y-78874000I0J76200D01*
G01*
X135496800Y-76574000D01*
G75*
G02*
X135573000Y-76497800I76200J0D01*
G01*
X137873000Y-76497800D01*
G75*
G02*
X137949200Y-76574000I0J-76200D01*
G01*
G37*
D10*
X133223000Y-77724000D03*
X129723000Y-77724000D03*
G36*
G01*
X87561000Y-110893800D02*
X88461000Y-110893800D01*
G75*
G02*
X88787200Y-111220000I0J-326200D01*
G01*
X88787200Y-111745000D01*
G75*
G02*
X88461000Y-112071200I-326200J0D01*
G01*
X87561000Y-112071200D01*
G75*
G02*
X87234800Y-111745000I0J326200D01*
G01*
X87234800Y-111220000D01*
G75*
G02*
X87561000Y-110893800I326200J0D01*
G01*
G37*
G36*
G01*
X87561000Y-112718800D02*
X88461000Y-112718800D01*
G75*
G02*
X88787200Y-113045000I0J-326200D01*
G01*
X88787200Y-113570000D01*
G75*
G02*
X88461000Y-113896200I-326200J0D01*
G01*
X87561000Y-113896200D01*
G75*
G02*
X87234800Y-113570000I0J326200D01*
G01*
X87234800Y-113045000D01*
G75*
G02*
X87561000Y-112718800I326200J0D01*
G01*
G37*
G36*
G01*
X140693200Y-110929000D02*
X140693200Y-111829000D01*
G75*
G02*
X140367000Y-112155200I-326200J0D01*
G01*
X139842000Y-112155200D01*
G75*
G02*
X139515800Y-111829000I0J326200D01*
G01*
X139515800Y-110929000D01*
G75*
G02*
X139842000Y-110602800I326200J0D01*
G01*
X140367000Y-110602800D01*
G75*
G02*
X140693200Y-110929000I0J-326200D01*
G01*
G37*
G36*
G01*
X138868200Y-110929000D02*
X138868200Y-111829000D01*
G75*
G02*
X138542000Y-112155200I-326200J0D01*
G01*
X138017000Y-112155200D01*
G75*
G02*
X137690800Y-111829000I0J326200D01*
G01*
X137690800Y-110929000D01*
G75*
G02*
X138017000Y-110602800I326200J0D01*
G01*
X138542000Y-110602800D01*
G75*
G02*
X138868200Y-110929000I0J-326200D01*
G01*
G37*
G36*
G01*
X101572800Y-120276000D02*
X101572800Y-117976000D01*
G75*
G02*
X101649000Y-117899800I76200J0D01*
G01*
X103949000Y-117899800D01*
G75*
G02*
X104025200Y-117976000I0J-76200D01*
G01*
X104025200Y-120276000D01*
G75*
G02*
X103949000Y-120352200I-76200J0D01*
G01*
X101649000Y-120352200D01*
G75*
G02*
X101572800Y-120276000I0J76200D01*
G01*
G37*
X106299000Y-119126000D03*
X109799000Y-119126000D03*
G36*
G01*
X117091800Y-108044000D02*
X117091800Y-107094000D01*
G75*
G02*
X117418000Y-106767800I326200J0D01*
G01*
X117918000Y-106767800D01*
G75*
G02*
X118244200Y-107094000I0J-326200D01*
G01*
X118244200Y-108044000D01*
G75*
G02*
X117918000Y-108370200I-326200J0D01*
G01*
X117418000Y-108370200D01*
G75*
G02*
X117091800Y-108044000I0J326200D01*
G01*
G37*
G36*
G01*
X118991800Y-108044000D02*
X118991800Y-107094000D01*
G75*
G02*
X119318000Y-106767800I326200J0D01*
G01*
X119818000Y-106767800D01*
G75*
G02*
X120144200Y-107094000I0J-326200D01*
G01*
X120144200Y-108044000D01*
G75*
G02*
X119818000Y-108370200I-326200J0D01*
G01*
X119318000Y-108370200D01*
G75*
G02*
X118991800Y-108044000I0J326200D01*
G01*
G37*
G36*
G01*
X115420200Y-110294000D02*
X115420200Y-111194000D01*
G75*
G02*
X115094000Y-111520200I-326200J0D01*
G01*
X114569000Y-111520200D01*
G75*
G02*
X114242800Y-111194000I0J326200D01*
G01*
X114242800Y-110294000D01*
G75*
G02*
X114569000Y-109967800I326200J0D01*
G01*
X115094000Y-109967800D01*
G75*
G02*
X115420200Y-110294000I0J-326200D01*
G01*
G37*
G36*
G01*
X113595200Y-110294000D02*
X113595200Y-111194000D01*
G75*
G02*
X113269000Y-111520200I-326200J0D01*
G01*
X112744000Y-111520200D01*
G75*
G02*
X112417800Y-111194000I0J326200D01*
G01*
X112417800Y-110294000D01*
G75*
G02*
X112744000Y-109967800I326200J0D01*
G01*
X113269000Y-109967800D01*
G75*
G02*
X113595200Y-110294000I0J-326200D01*
G01*
G37*
G36*
G01*
X127536800Y-122323000D02*
X127536800Y-121073000D01*
G75*
G02*
X127763000Y-120846800I226200J0D01*
G01*
X128063000Y-120846800D01*
G75*
G02*
X128289200Y-121073000I0J-226200D01*
G01*
X128289200Y-122323000D01*
G75*
G02*
X128063000Y-122549200I-226200J0D01*
G01*
X127763000Y-122549200D01*
G75*
G02*
X127536800Y-122323000I0J226200D01*
G01*
G37*
G36*
G01*
X128536800Y-122323000D02*
X128536800Y-121073000D01*
G75*
G02*
X128763000Y-120846800I226200J0D01*
G01*
X129063000Y-120846800D01*
G75*
G02*
X129289200Y-121073000I0J-226200D01*
G01*
X129289200Y-122323000D01*
G75*
G02*
X129063000Y-122549200I-226200J0D01*
G01*
X128763000Y-122549200D01*
G75*
G02*
X128536800Y-122323000I0J226200D01*
G01*
G37*
G36*
G01*
X129536800Y-122323000D02*
X129536800Y-121073000D01*
G75*
G02*
X129763000Y-120846800I226200J0D01*
G01*
X130063000Y-120846800D01*
G75*
G02*
X130289200Y-121073000I0J-226200D01*
G01*
X130289200Y-122323000D01*
G75*
G02*
X130063000Y-122549200I-226200J0D01*
G01*
X129763000Y-122549200D01*
G75*
G02*
X129536800Y-122323000I0J226200D01*
G01*
G37*
G36*
G01*
X130536800Y-122323000D02*
X130536800Y-121073000D01*
G75*
G02*
X130763000Y-120846800I226200J0D01*
G01*
X131063000Y-120846800D01*
G75*
G02*
X131289200Y-121073000I0J-226200D01*
G01*
X131289200Y-122323000D01*
G75*
G02*
X131063000Y-122549200I-226200J0D01*
G01*
X130763000Y-122549200D01*
G75*
G02*
X130536800Y-122323000I0J226200D01*
G01*
G37*
G36*
G01*
X131536800Y-126223000D02*
X131536800Y-124923000D01*
G75*
G02*
X131863000Y-124596800I326200J0D01*
G01*
X132563000Y-124596800D01*
G75*
G02*
X132889200Y-124923000I0J-326200D01*
G01*
X132889200Y-126223000D01*
G75*
G02*
X132563000Y-126549200I-326200J0D01*
G01*
X131863000Y-126549200D01*
G75*
G02*
X131536800Y-126223000I0J326200D01*
G01*
G37*
G36*
G01*
X125936800Y-126223000D02*
X125936800Y-124923000D01*
G75*
G02*
X126263000Y-124596800I326200J0D01*
G01*
X126963000Y-124596800D01*
G75*
G02*
X127289200Y-124923000I0J-326200D01*
G01*
X127289200Y-126223000D01*
G75*
G02*
X126963000Y-126549200I-326200J0D01*
G01*
X126263000Y-126549200D01*
G75*
G02*
X125936800Y-126223000I0J326200D01*
G01*
G37*
G36*
G01*
X150239100Y-71488300D02*
X151432900Y-71488300D01*
G75*
G02*
X151509100Y-71564500I0J-76200D01*
G01*
X151509100Y-74053700D01*
G75*
G02*
X151432900Y-74129900I-76200J0D01*
G01*
X150239100Y-74129900D01*
G75*
G02*
X150162900Y-74053700I0J76200D01*
G01*
X150162900Y-71564500D01*
G75*
G02*
X150239100Y-71488300I76200J0D01*
G01*
G37*
G36*
G01*
X147739100Y-71488300D02*
X148932900Y-71488300D01*
G75*
G02*
X149009100Y-71564500I0J-76200D01*
G01*
X149009100Y-74053700D01*
G75*
G02*
X148932900Y-74129900I-76200J0D01*
G01*
X147739100Y-74129900D01*
G75*
G02*
X147662900Y-74053700I0J76200D01*
G01*
X147662900Y-71564500D01*
G75*
G02*
X147739100Y-71488300I76200J0D01*
G01*
G37*
G36*
G01*
X145239100Y-71488300D02*
X146432900Y-71488300D01*
G75*
G02*
X146509100Y-71564500I0J-76200D01*
G01*
X146509100Y-74053700D01*
G75*
G02*
X146432900Y-74129900I-76200J0D01*
G01*
X145239100Y-74129900D01*
G75*
G02*
X145162900Y-74053700I0J76200D01*
G01*
X145162900Y-71564500D01*
G75*
G02*
X145239100Y-71488300I76200J0D01*
G01*
G37*
G36*
G01*
X150239100Y-77000100D02*
X151432900Y-77000100D01*
G75*
G02*
X151509100Y-77076300I0J-76200D01*
G01*
X151509100Y-79565500D01*
G75*
G02*
X151432900Y-79641700I-76200J0D01*
G01*
X150239100Y-79641700D01*
G75*
G02*
X150162900Y-79565500I0J76200D01*
G01*
X150162900Y-77076300D01*
G75*
G02*
X150239100Y-77000100I76200J0D01*
G01*
G37*
G36*
G01*
X147739100Y-77000100D02*
X148932900Y-77000100D01*
G75*
G02*
X149009100Y-77076300I0J-76200D01*
G01*
X149009100Y-79565500D01*
G75*
G02*
X148932900Y-79641700I-76200J0D01*
G01*
X147739100Y-79641700D01*
G75*
G02*
X147662900Y-79565500I0J76200D01*
G01*
X147662900Y-77076300D01*
G75*
G02*
X147739100Y-77000100I76200J0D01*
G01*
G37*
G36*
G01*
X145239100Y-77000100D02*
X146432900Y-77000100D01*
G75*
G02*
X146509100Y-77076300I0J-76200D01*
G01*
X146509100Y-79565500D01*
G75*
G02*
X146432900Y-79641700I-76200J0D01*
G01*
X145239100Y-79641700D01*
G75*
G02*
X145162900Y-79565500I0J76200D01*
G01*
X145162900Y-77076300D01*
G75*
G02*
X145239100Y-77000100I76200J0D01*
G01*
G37*
G36*
G01*
X94959200Y-112477000D02*
X94959200Y-113027000D01*
G75*
G02*
X94883000Y-113103200I-76200J0D01*
G01*
X93583000Y-113103200D01*
G75*
G02*
X93506800Y-113027000I0J76200D01*
G01*
X93506800Y-112477000D01*
G75*
G02*
X93583000Y-112400800I76200J0D01*
G01*
X94883000Y-112400800D01*
G75*
G02*
X94959200Y-112477000I0J-76200D01*
G01*
G37*
G36*
X90234020Y-112235373D02*
G01*
X90207958Y-112190232D01*
X90206800Y-112177000D01*
X90206800Y-110327000D01*
X90224627Y-110278020D01*
X90269768Y-110251958D01*
X90283000Y-110250800D01*
X92883000Y-110250800D01*
X92931980Y-110268627D01*
X92936882Y-110273118D01*
X93439564Y-110775800D01*
X94883000Y-110775800D01*
X94931980Y-110793627D01*
X94958042Y-110838768D01*
X94959200Y-110852000D01*
X94959200Y-111652000D01*
X94941373Y-111700980D01*
X94896232Y-111727042D01*
X94883000Y-111728200D01*
X93439564Y-111728200D01*
X92936882Y-112230882D01*
X92889641Y-112252910D01*
X92883000Y-112253200D01*
X90283000Y-112253200D01*
X90234020Y-112235373D01*
G37*
G36*
G01*
X94959200Y-109477000D02*
X94959200Y-110027000D01*
G75*
G02*
X94883000Y-110103200I-76200J0D01*
G01*
X93583000Y-110103200D01*
G75*
G02*
X93506800Y-110027000I0J76200D01*
G01*
X93506800Y-109477000D01*
G75*
G02*
X93583000Y-109400800I76200J0D01*
G01*
X94883000Y-109400800D01*
G75*
G02*
X94959200Y-109477000I0J-76200D01*
G01*
G37*
G36*
G01*
X167995200Y-113876000D02*
X167995200Y-114876000D01*
G75*
G02*
X167919000Y-114952200I-76200J0D01*
G01*
X166419000Y-114952200D01*
G75*
G02*
X166342800Y-114876000I0J76200D01*
G01*
X166342800Y-113876000D01*
G75*
G02*
X166419000Y-113799800I76200J0D01*
G01*
X167919000Y-113799800D01*
G75*
G02*
X167995200Y-113876000I0J-76200D01*
G01*
G37*
G36*
G01*
X167995200Y-110676000D02*
X167995200Y-111676000D01*
G75*
G02*
X167919000Y-111752200I-76200J0D01*
G01*
X166419000Y-111752200D01*
G75*
G02*
X166342800Y-111676000I0J76200D01*
G01*
X166342800Y-110676000D01*
G75*
G02*
X166419000Y-110599800I76200J0D01*
G01*
X167919000Y-110599800D01*
G75*
G02*
X167995200Y-110676000I0J-76200D01*
G01*
G37*
G36*
G01*
X163095200Y-110676000D02*
X163095200Y-111676000D01*
G75*
G02*
X163019000Y-111752200I-76200J0D01*
G01*
X161519000Y-111752200D01*
G75*
G02*
X161442800Y-111676000I0J76200D01*
G01*
X161442800Y-110676000D01*
G75*
G02*
X161519000Y-110599800I76200J0D01*
G01*
X163019000Y-110599800D01*
G75*
G02*
X163095200Y-110676000I0J-76200D01*
G01*
G37*
G36*
G01*
X163095200Y-113876000D02*
X163095200Y-114876000D01*
G75*
G02*
X163019000Y-114952200I-76200J0D01*
G01*
X161519000Y-114952200D01*
G75*
G02*
X161442800Y-114876000I0J76200D01*
G01*
X161442800Y-113876000D01*
G75*
G02*
X161519000Y-113799800I76200J0D01*
G01*
X163019000Y-113799800D01*
G75*
G02*
X163095200Y-113876000I0J-76200D01*
G01*
G37*
G36*
G01*
X140693200Y-105849000D02*
X140693200Y-106749000D01*
G75*
G02*
X140367000Y-107075200I-326200J0D01*
G01*
X139842000Y-107075200D01*
G75*
G02*
X139515800Y-106749000I0J326200D01*
G01*
X139515800Y-105849000D01*
G75*
G02*
X139842000Y-105522800I326200J0D01*
G01*
X140367000Y-105522800D01*
G75*
G02*
X140693200Y-105849000I0J-326200D01*
G01*
G37*
G36*
G01*
X138868200Y-105849000D02*
X138868200Y-106749000D01*
G75*
G02*
X138542000Y-107075200I-326200J0D01*
G01*
X138017000Y-107075200D01*
G75*
G02*
X137690800Y-106749000I0J326200D01*
G01*
X137690800Y-105849000D01*
G75*
G02*
X138017000Y-105522800I326200J0D01*
G01*
X138542000Y-105522800D01*
G75*
G02*
X138868200Y-105849000I0J-326200D01*
G01*
G37*
G36*
G01*
X108142200Y-74825000D02*
X108142200Y-76025000D01*
G75*
G02*
X107866000Y-76301200I-276200J0D01*
G01*
X107466000Y-76301200D01*
G75*
G02*
X107189800Y-76025000I0J276200D01*
G01*
X107189800Y-74825000D01*
G75*
G02*
X107466000Y-74548800I276200J0D01*
G01*
X107866000Y-74548800D01*
G75*
G02*
X108142200Y-74825000I0J-276200D01*
G01*
G37*
G36*
G01*
X106892200Y-74825000D02*
X106892200Y-76025000D01*
G75*
G02*
X106616000Y-76301200I-276200J0D01*
G01*
X106216000Y-76301200D01*
G75*
G02*
X105939800Y-76025000I0J276200D01*
G01*
X105939800Y-74825000D01*
G75*
G02*
X106216000Y-74548800I276200J0D01*
G01*
X106616000Y-74548800D01*
G75*
G02*
X106892200Y-74825000I0J-276200D01*
G01*
G37*
G36*
G01*
X105642200Y-74825000D02*
X105642200Y-76025000D01*
G75*
G02*
X105366000Y-76301200I-276200J0D01*
G01*
X104966000Y-76301200D01*
G75*
G02*
X104689800Y-76025000I0J276200D01*
G01*
X104689800Y-74825000D01*
G75*
G02*
X104966000Y-74548800I276200J0D01*
G01*
X105366000Y-74548800D01*
G75*
G02*
X105642200Y-74825000I0J-276200D01*
G01*
G37*
G36*
G01*
X104392200Y-74825000D02*
X104392200Y-76025000D01*
G75*
G02*
X104116000Y-76301200I-276200J0D01*
G01*
X103716000Y-76301200D01*
G75*
G02*
X103439800Y-76025000I0J276200D01*
G01*
X103439800Y-74825000D01*
G75*
G02*
X103716000Y-74548800I276200J0D01*
G01*
X104116000Y-74548800D01*
G75*
G02*
X104392200Y-74825000I0J-276200D01*
G01*
G37*
G36*
G01*
X102492200Y-71275001D02*
X102492200Y-73774999D01*
G75*
G02*
X102165999Y-74101200I-326201J0D01*
G01*
X100566001Y-74101200D01*
G75*
G02*
X100239800Y-73774999I0J326201D01*
G01*
X100239800Y-71275001D01*
G75*
G02*
X100566001Y-70948800I326201J0D01*
G01*
X102165999Y-70948800D01*
G75*
G02*
X102492200Y-71275001I0J-326201D01*
G01*
G37*
G36*
G01*
X111342200Y-71275001D02*
X111342200Y-73774999D01*
G75*
G02*
X111015999Y-74101200I-326201J0D01*
G01*
X109416001Y-74101200D01*
G75*
G02*
X109089800Y-73774999I0J326201D01*
G01*
X109089800Y-71275001D01*
G75*
G02*
X109416001Y-70948800I326201J0D01*
G01*
X111015999Y-70948800D01*
G75*
G02*
X111342200Y-71275001I0J-326201D01*
G01*
G37*
X89337000Y-119126000D03*
X92837000Y-119126000D03*
X96337000Y-119126000D03*
G36*
G01*
X94172200Y-74825000D02*
X94172200Y-76025000D01*
G75*
G02*
X93896000Y-76301200I-276200J0D01*
G01*
X93496000Y-76301200D01*
G75*
G02*
X93219800Y-76025000I0J276200D01*
G01*
X93219800Y-74825000D01*
G75*
G02*
X93496000Y-74548800I276200J0D01*
G01*
X93896000Y-74548800D01*
G75*
G02*
X94172200Y-74825000I0J-276200D01*
G01*
G37*
G36*
G01*
X92922200Y-74825000D02*
X92922200Y-76025000D01*
G75*
G02*
X92646000Y-76301200I-276200J0D01*
G01*
X92246000Y-76301200D01*
G75*
G02*
X91969800Y-76025000I0J276200D01*
G01*
X91969800Y-74825000D01*
G75*
G02*
X92246000Y-74548800I276200J0D01*
G01*
X92646000Y-74548800D01*
G75*
G02*
X92922200Y-74825000I0J-276200D01*
G01*
G37*
G36*
G01*
X91672200Y-74825000D02*
X91672200Y-76025000D01*
G75*
G02*
X91396000Y-76301200I-276200J0D01*
G01*
X90996000Y-76301200D01*
G75*
G02*
X90719800Y-76025000I0J276200D01*
G01*
X90719800Y-74825000D01*
G75*
G02*
X90996000Y-74548800I276200J0D01*
G01*
X91396000Y-74548800D01*
G75*
G02*
X91672200Y-74825000I0J-276200D01*
G01*
G37*
G36*
G01*
X90422200Y-74825000D02*
X90422200Y-76025000D01*
G75*
G02*
X90146000Y-76301200I-276200J0D01*
G01*
X89746000Y-76301200D01*
G75*
G02*
X89469800Y-76025000I0J276200D01*
G01*
X89469800Y-74825000D01*
G75*
G02*
X89746000Y-74548800I276200J0D01*
G01*
X90146000Y-74548800D01*
G75*
G02*
X90422200Y-74825000I0J-276200D01*
G01*
G37*
G36*
G01*
X88522200Y-71275001D02*
X88522200Y-73774999D01*
G75*
G02*
X88195999Y-74101200I-326201J0D01*
G01*
X86596001Y-74101200D01*
G75*
G02*
X86269800Y-73774999I0J326201D01*
G01*
X86269800Y-71275001D01*
G75*
G02*
X86596001Y-70948800I326201J0D01*
G01*
X88195999Y-70948800D01*
G75*
G02*
X88522200Y-71275001I0J-326201D01*
G01*
G37*
G36*
G01*
X97372200Y-71275001D02*
X97372200Y-73774999D01*
G75*
G02*
X97045999Y-74101200I-326201J0D01*
G01*
X95446001Y-74101200D01*
G75*
G02*
X95119800Y-73774999I0J326201D01*
G01*
X95119800Y-71275001D01*
G75*
G02*
X95446001Y-70948800I326201J0D01*
G01*
X97045999Y-70948800D01*
G75*
G02*
X97372200Y-71275001I0J-326201D01*
G01*
G37*
G36*
G01*
X97630000Y-113540200D02*
X96680000Y-113540200D01*
G75*
G02*
X96353800Y-113214000I0J326200D01*
G01*
X96353800Y-112714000D01*
G75*
G02*
X96680000Y-112387800I326200J0D01*
G01*
X97630000Y-112387800D01*
G75*
G02*
X97956200Y-112714000I0J-326200D01*
G01*
X97956200Y-113214000D01*
G75*
G02*
X97630000Y-113540200I-326200J0D01*
G01*
G37*
G36*
G01*
X97630000Y-111640200D02*
X96680000Y-111640200D01*
G75*
G02*
X96353800Y-111314000I0J326200D01*
G01*
X96353800Y-110814000D01*
G75*
G02*
X96680000Y-110487800I326200J0D01*
G01*
X97630000Y-110487800D01*
G75*
G02*
X97956200Y-110814000I0J-326200D01*
G01*
X97956200Y-111314000D01*
G75*
G02*
X97630000Y-111640200I-326200J0D01*
G01*
G37*
M02*
