G04 #@! TF.GenerationSoftware,KiCad,Pcbnew,6.0.10-86aedd382b~118~ubuntu18.04.1*
G04 #@! TF.CreationDate,2024-08-26T14:20:04-06:00*
G04 #@! TF.ProjectId,ckt-iiab,636b742d-6969-4616-922e-6b696361645f,rev?*
G04 #@! TF.SameCoordinates,Original*
G04 #@! TF.FileFunction,Paste,Top*
G04 #@! TF.FilePolarity,Positive*
%FSLAX46Y46*%
G04 Gerber Fmt 4.6, Leading zero omitted, Abs format (unit mm)*
G04 Created by KiCad (PCBNEW 6.0.10-86aedd382b~118~ubuntu18.04.1) date 2024-08-26 14:20:04*
%MOMM*%
%LPD*%
G01*
G04 APERTURE LIST*
%ADD10R,1.900000X1.400000*%
%ADD11R,2.440000X1.120000*%
%ADD12R,1.193800X2.489200*%
%ADD13R,1.300000X0.550000*%
%ADD14R,1.500000X1.000000*%
G04 APERTURE END LIST*
G36*
G01*
X101760000Y-106246000D02*
X102710000Y-106246000D01*
G75*
G02*
X102960000Y-106496000I0J-250000D01*
G01*
X102960000Y-106996000D01*
G75*
G02*
X102710000Y-107246000I-250000J0D01*
G01*
X101760000Y-107246000D01*
G75*
G02*
X101510000Y-106996000I0J250000D01*
G01*
X101510000Y-106496000D01*
G75*
G02*
X101760000Y-106246000I250000J0D01*
G01*
G37*
G36*
G01*
X101760000Y-108146000D02*
X102710000Y-108146000D01*
G75*
G02*
X102960000Y-108396000I0J-250000D01*
G01*
X102960000Y-108896000D01*
G75*
G02*
X102710000Y-109146000I-250000J0D01*
G01*
X101760000Y-109146000D01*
G75*
G02*
X101510000Y-108896000I0J250000D01*
G01*
X101510000Y-108396000D01*
G75*
G02*
X101760000Y-108146000I250000J0D01*
G01*
G37*
G36*
G01*
X138535000Y-122323000D02*
X138535000Y-121073000D01*
G75*
G02*
X138685000Y-120923000I150000J0D01*
G01*
X138985000Y-120923000D01*
G75*
G02*
X139135000Y-121073000I0J-150000D01*
G01*
X139135000Y-122323000D01*
G75*
G02*
X138985000Y-122473000I-150000J0D01*
G01*
X138685000Y-122473000D01*
G75*
G02*
X138535000Y-122323000I0J150000D01*
G01*
G37*
G36*
G01*
X139535000Y-122323000D02*
X139535000Y-121073000D01*
G75*
G02*
X139685000Y-120923000I150000J0D01*
G01*
X139985000Y-120923000D01*
G75*
G02*
X140135000Y-121073000I0J-150000D01*
G01*
X140135000Y-122323000D01*
G75*
G02*
X139985000Y-122473000I-150000J0D01*
G01*
X139685000Y-122473000D01*
G75*
G02*
X139535000Y-122323000I0J150000D01*
G01*
G37*
G36*
G01*
X140535000Y-122323000D02*
X140535000Y-121073000D01*
G75*
G02*
X140685000Y-120923000I150000J0D01*
G01*
X140985000Y-120923000D01*
G75*
G02*
X141135000Y-121073000I0J-150000D01*
G01*
X141135000Y-122323000D01*
G75*
G02*
X140985000Y-122473000I-150000J0D01*
G01*
X140685000Y-122473000D01*
G75*
G02*
X140535000Y-122323000I0J150000D01*
G01*
G37*
G36*
G01*
X141535000Y-122323000D02*
X141535000Y-121073000D01*
G75*
G02*
X141685000Y-120923000I150000J0D01*
G01*
X141985000Y-120923000D01*
G75*
G02*
X142135000Y-121073000I0J-150000D01*
G01*
X142135000Y-122323000D01*
G75*
G02*
X141985000Y-122473000I-150000J0D01*
G01*
X141685000Y-122473000D01*
G75*
G02*
X141535000Y-122323000I0J150000D01*
G01*
G37*
G36*
G01*
X142535000Y-126223000D02*
X142535000Y-124923000D01*
G75*
G02*
X142785000Y-124673000I250000J0D01*
G01*
X143485000Y-124673000D01*
G75*
G02*
X143735000Y-124923000I0J-250000D01*
G01*
X143735000Y-126223000D01*
G75*
G02*
X143485000Y-126473000I-250000J0D01*
G01*
X142785000Y-126473000D01*
G75*
G02*
X142535000Y-126223000I0J250000D01*
G01*
G37*
G36*
G01*
X136935000Y-126223000D02*
X136935000Y-124923000D01*
G75*
G02*
X137185000Y-124673000I250000J0D01*
G01*
X137885000Y-124673000D01*
G75*
G02*
X138135000Y-124923000I0J-250000D01*
G01*
X138135000Y-126223000D01*
G75*
G02*
X137885000Y-126473000I-250000J0D01*
G01*
X137185000Y-126473000D01*
G75*
G02*
X136935000Y-126223000I0J250000D01*
G01*
G37*
G36*
G01*
X140617000Y-99499000D02*
X140617000Y-100399000D01*
G75*
G02*
X140367000Y-100649000I-250000J0D01*
G01*
X139842000Y-100649000D01*
G75*
G02*
X139592000Y-100399000I0J250000D01*
G01*
X139592000Y-99499000D01*
G75*
G02*
X139842000Y-99249000I250000J0D01*
G01*
X140367000Y-99249000D01*
G75*
G02*
X140617000Y-99499000I0J-250000D01*
G01*
G37*
G36*
G01*
X138792000Y-99499000D02*
X138792000Y-100399000D01*
G75*
G02*
X138542000Y-100649000I-250000J0D01*
G01*
X138017000Y-100649000D01*
G75*
G02*
X137767000Y-100399000I0J250000D01*
G01*
X137767000Y-99499000D01*
G75*
G02*
X138017000Y-99249000I250000J0D01*
G01*
X138542000Y-99249000D01*
G75*
G02*
X138792000Y-99499000I0J-250000D01*
G01*
G37*
G36*
G01*
X98707000Y-84894000D02*
X98707000Y-85794000D01*
G75*
G02*
X98457000Y-86044000I-250000J0D01*
G01*
X97932000Y-86044000D01*
G75*
G02*
X97682000Y-85794000I0J250000D01*
G01*
X97682000Y-84894000D01*
G75*
G02*
X97932000Y-84644000I250000J0D01*
G01*
X98457000Y-84644000D01*
G75*
G02*
X98707000Y-84894000I0J-250000D01*
G01*
G37*
G36*
G01*
X96882000Y-84894000D02*
X96882000Y-85794000D01*
G75*
G02*
X96632000Y-86044000I-250000J0D01*
G01*
X96107000Y-86044000D01*
G75*
G02*
X95857000Y-85794000I0J250000D01*
G01*
X95857000Y-84894000D01*
G75*
G02*
X96107000Y-84644000I250000J0D01*
G01*
X96632000Y-84644000D01*
G75*
G02*
X96882000Y-84894000I0J-250000D01*
G01*
G37*
G36*
G01*
X117168000Y-111219000D02*
X117168000Y-110269000D01*
G75*
G02*
X117418000Y-110019000I250000J0D01*
G01*
X117918000Y-110019000D01*
G75*
G02*
X118168000Y-110269000I0J-250000D01*
G01*
X118168000Y-111219000D01*
G75*
G02*
X117918000Y-111469000I-250000J0D01*
G01*
X117418000Y-111469000D01*
G75*
G02*
X117168000Y-111219000I0J250000D01*
G01*
G37*
G36*
G01*
X119068000Y-111219000D02*
X119068000Y-110269000D01*
G75*
G02*
X119318000Y-110019000I250000J0D01*
G01*
X119818000Y-110019000D01*
G75*
G02*
X120068000Y-110269000I0J-250000D01*
G01*
X120068000Y-111219000D01*
G75*
G02*
X119818000Y-111469000I-250000J0D01*
G01*
X119318000Y-111469000D01*
G75*
G02*
X119068000Y-111219000I0J250000D01*
G01*
G37*
G36*
G01*
X104833000Y-106271000D02*
X105733000Y-106271000D01*
G75*
G02*
X105983000Y-106521000I0J-250000D01*
G01*
X105983000Y-107046000D01*
G75*
G02*
X105733000Y-107296000I-250000J0D01*
G01*
X104833000Y-107296000D01*
G75*
G02*
X104583000Y-107046000I0J250000D01*
G01*
X104583000Y-106521000D01*
G75*
G02*
X104833000Y-106271000I250000J0D01*
G01*
G37*
G36*
G01*
X104833000Y-108096000D02*
X105733000Y-108096000D01*
G75*
G02*
X105983000Y-108346000I0J-250000D01*
G01*
X105983000Y-108871000D01*
G75*
G02*
X105733000Y-109121000I-250000J0D01*
G01*
X104833000Y-109121000D01*
G75*
G02*
X104583000Y-108871000I0J250000D01*
G01*
X104583000Y-108346000D01*
G75*
G02*
X104833000Y-108096000I250000J0D01*
G01*
G37*
G36*
G01*
X115367500Y-107119000D02*
X115367500Y-108019000D01*
G75*
G02*
X115117500Y-108269000I-250000J0D01*
G01*
X114592500Y-108269000D01*
G75*
G02*
X114342500Y-108019000I0J250000D01*
G01*
X114342500Y-107119000D01*
G75*
G02*
X114592500Y-106869000I250000J0D01*
G01*
X115117500Y-106869000D01*
G75*
G02*
X115367500Y-107119000I0J-250000D01*
G01*
G37*
G36*
G01*
X113542500Y-107119000D02*
X113542500Y-108019000D01*
G75*
G02*
X113292500Y-108269000I-250000J0D01*
G01*
X112767500Y-108269000D01*
G75*
G02*
X112517500Y-108019000I0J250000D01*
G01*
X112517500Y-107119000D01*
G75*
G02*
X112767500Y-106869000I250000J0D01*
G01*
X113292500Y-106869000D01*
G75*
G02*
X113542500Y-107119000I0J-250000D01*
G01*
G37*
G36*
G01*
X106835000Y-84894000D02*
X106835000Y-85794000D01*
G75*
G02*
X106585000Y-86044000I-250000J0D01*
G01*
X106060000Y-86044000D01*
G75*
G02*
X105810000Y-85794000I0J250000D01*
G01*
X105810000Y-84894000D01*
G75*
G02*
X106060000Y-84644000I250000J0D01*
G01*
X106585000Y-84644000D01*
G75*
G02*
X106835000Y-84894000I0J-250000D01*
G01*
G37*
G36*
G01*
X105010000Y-84894000D02*
X105010000Y-85794000D01*
G75*
G02*
X104760000Y-86044000I-250000J0D01*
G01*
X104235000Y-86044000D01*
G75*
G02*
X103985000Y-85794000I0J250000D01*
G01*
X103985000Y-84894000D01*
G75*
G02*
X104235000Y-84644000I250000J0D01*
G01*
X104760000Y-84644000D01*
G75*
G02*
X105010000Y-84894000I0J-250000D01*
G01*
G37*
D10*
X87249000Y-93598000D03*
X87249000Y-90298000D03*
G36*
G01*
X140617000Y-102039000D02*
X140617000Y-102939000D01*
G75*
G02*
X140367000Y-103189000I-250000J0D01*
G01*
X139842000Y-103189000D01*
G75*
G02*
X139592000Y-102939000I0J250000D01*
G01*
X139592000Y-102039000D01*
G75*
G02*
X139842000Y-101789000I250000J0D01*
G01*
X140367000Y-101789000D01*
G75*
G02*
X140617000Y-102039000I0J-250000D01*
G01*
G37*
G36*
G01*
X138792000Y-102039000D02*
X138792000Y-102939000D01*
G75*
G02*
X138542000Y-103189000I-250000J0D01*
G01*
X138017000Y-103189000D01*
G75*
G02*
X137767000Y-102939000I0J250000D01*
G01*
X137767000Y-102039000D01*
G75*
G02*
X138017000Y-101789000I250000J0D01*
G01*
X138542000Y-101789000D01*
G75*
G02*
X138792000Y-102039000I0J-250000D01*
G01*
G37*
G36*
G01*
X127856000Y-96573000D02*
X126906000Y-96573000D01*
G75*
G02*
X126656000Y-96323000I0J250000D01*
G01*
X126656000Y-95823000D01*
G75*
G02*
X126906000Y-95573000I250000J0D01*
G01*
X127856000Y-95573000D01*
G75*
G02*
X128106000Y-95823000I0J-250000D01*
G01*
X128106000Y-96323000D01*
G75*
G02*
X127856000Y-96573000I-250000J0D01*
G01*
G37*
G36*
G01*
X127856000Y-94673000D02*
X126906000Y-94673000D01*
G75*
G02*
X126656000Y-94423000I0J250000D01*
G01*
X126656000Y-93923000D01*
G75*
G02*
X126906000Y-93673000I250000J0D01*
G01*
X127856000Y-93673000D01*
G75*
G02*
X128106000Y-93923000I0J-250000D01*
G01*
X128106000Y-94423000D01*
G75*
G02*
X127856000Y-94673000I-250000J0D01*
G01*
G37*
G36*
G01*
X93514000Y-106050000D02*
X92414000Y-106050000D01*
G75*
G02*
X92164000Y-105800000I0J250000D01*
G01*
X92164000Y-102800000D01*
G75*
G02*
X92414000Y-102550000I250000J0D01*
G01*
X93514000Y-102550000D01*
G75*
G02*
X93764000Y-102800000I0J-250000D01*
G01*
X93764000Y-105800000D01*
G75*
G02*
X93514000Y-106050000I-250000J0D01*
G01*
G37*
G36*
G01*
X93514000Y-100650000D02*
X92414000Y-100650000D01*
G75*
G02*
X92164000Y-100400000I0J250000D01*
G01*
X92164000Y-97400000D01*
G75*
G02*
X92414000Y-97150000I250000J0D01*
G01*
X93514000Y-97150000D01*
G75*
G02*
X93764000Y-97400000I0J-250000D01*
G01*
X93764000Y-100400000D01*
G75*
G02*
X93514000Y-100650000I-250000J0D01*
G01*
G37*
G36*
G01*
X131346000Y-100769000D02*
X131346000Y-101669000D01*
G75*
G02*
X131096000Y-101919000I-250000J0D01*
G01*
X130571000Y-101919000D01*
G75*
G02*
X130321000Y-101669000I0J250000D01*
G01*
X130321000Y-100769000D01*
G75*
G02*
X130571000Y-100519000I250000J0D01*
G01*
X131096000Y-100519000D01*
G75*
G02*
X131346000Y-100769000I0J-250000D01*
G01*
G37*
G36*
G01*
X129521000Y-100769000D02*
X129521000Y-101669000D01*
G75*
G02*
X129271000Y-101919000I-250000J0D01*
G01*
X128746000Y-101919000D01*
G75*
G02*
X128496000Y-101669000I0J250000D01*
G01*
X128496000Y-100769000D01*
G75*
G02*
X128746000Y-100519000I250000J0D01*
G01*
X129271000Y-100519000D01*
G75*
G02*
X129521000Y-100769000I0J-250000D01*
G01*
G37*
G36*
G01*
X116691000Y-122323000D02*
X116691000Y-121073000D01*
G75*
G02*
X116841000Y-120923000I150000J0D01*
G01*
X117141000Y-120923000D01*
G75*
G02*
X117291000Y-121073000I0J-150000D01*
G01*
X117291000Y-122323000D01*
G75*
G02*
X117141000Y-122473000I-150000J0D01*
G01*
X116841000Y-122473000D01*
G75*
G02*
X116691000Y-122323000I0J150000D01*
G01*
G37*
G36*
G01*
X117691000Y-122323000D02*
X117691000Y-121073000D01*
G75*
G02*
X117841000Y-120923000I150000J0D01*
G01*
X118141000Y-120923000D01*
G75*
G02*
X118291000Y-121073000I0J-150000D01*
G01*
X118291000Y-122323000D01*
G75*
G02*
X118141000Y-122473000I-150000J0D01*
G01*
X117841000Y-122473000D01*
G75*
G02*
X117691000Y-122323000I0J150000D01*
G01*
G37*
G36*
G01*
X118691000Y-122323000D02*
X118691000Y-121073000D01*
G75*
G02*
X118841000Y-120923000I150000J0D01*
G01*
X119141000Y-120923000D01*
G75*
G02*
X119291000Y-121073000I0J-150000D01*
G01*
X119291000Y-122323000D01*
G75*
G02*
X119141000Y-122473000I-150000J0D01*
G01*
X118841000Y-122473000D01*
G75*
G02*
X118691000Y-122323000I0J150000D01*
G01*
G37*
G36*
G01*
X119691000Y-122323000D02*
X119691000Y-121073000D01*
G75*
G02*
X119841000Y-120923000I150000J0D01*
G01*
X120141000Y-120923000D01*
G75*
G02*
X120291000Y-121073000I0J-150000D01*
G01*
X120291000Y-122323000D01*
G75*
G02*
X120141000Y-122473000I-150000J0D01*
G01*
X119841000Y-122473000D01*
G75*
G02*
X119691000Y-122323000I0J150000D01*
G01*
G37*
G36*
G01*
X115091000Y-126223000D02*
X115091000Y-124923000D01*
G75*
G02*
X115341000Y-124673000I250000J0D01*
G01*
X116041000Y-124673000D01*
G75*
G02*
X116291000Y-124923000I0J-250000D01*
G01*
X116291000Y-126223000D01*
G75*
G02*
X116041000Y-126473000I-250000J0D01*
G01*
X115341000Y-126473000D01*
G75*
G02*
X115091000Y-126223000I0J250000D01*
G01*
G37*
G36*
G01*
X120691000Y-126223000D02*
X120691000Y-124923000D01*
G75*
G02*
X120941000Y-124673000I250000J0D01*
G01*
X121641000Y-124673000D01*
G75*
G02*
X121891000Y-124923000I0J-250000D01*
G01*
X121891000Y-126223000D01*
G75*
G02*
X121641000Y-126473000I-250000J0D01*
G01*
X120941000Y-126473000D01*
G75*
G02*
X120691000Y-126223000I0J250000D01*
G01*
G37*
G36*
G01*
X134648000Y-86672000D02*
X134648000Y-87572000D01*
G75*
G02*
X134398000Y-87822000I-250000J0D01*
G01*
X133873000Y-87822000D01*
G75*
G02*
X133623000Y-87572000I0J250000D01*
G01*
X133623000Y-86672000D01*
G75*
G02*
X133873000Y-86422000I250000J0D01*
G01*
X134398000Y-86422000D01*
G75*
G02*
X134648000Y-86672000I0J-250000D01*
G01*
G37*
G36*
G01*
X132823000Y-86672000D02*
X132823000Y-87572000D01*
G75*
G02*
X132573000Y-87822000I-250000J0D01*
G01*
X132048000Y-87822000D01*
G75*
G02*
X131798000Y-87572000I0J250000D01*
G01*
X131798000Y-86672000D01*
G75*
G02*
X132048000Y-86422000I250000J0D01*
G01*
X132573000Y-86422000D01*
G75*
G02*
X132823000Y-86672000I0J-250000D01*
G01*
G37*
G36*
G01*
X115344000Y-103944000D02*
X115344000Y-104844000D01*
G75*
G02*
X115094000Y-105094000I-250000J0D01*
G01*
X114569000Y-105094000D01*
G75*
G02*
X114319000Y-104844000I0J250000D01*
G01*
X114319000Y-103944000D01*
G75*
G02*
X114569000Y-103694000I250000J0D01*
G01*
X115094000Y-103694000D01*
G75*
G02*
X115344000Y-103944000I0J-250000D01*
G01*
G37*
G36*
G01*
X113519000Y-103944000D02*
X113519000Y-104844000D01*
G75*
G02*
X113269000Y-105094000I-250000J0D01*
G01*
X112744000Y-105094000D01*
G75*
G02*
X112494000Y-104844000I0J250000D01*
G01*
X112494000Y-103944000D01*
G75*
G02*
X112744000Y-103694000I250000J0D01*
G01*
X113269000Y-103694000D01*
G75*
G02*
X113519000Y-103944000I0J-250000D01*
G01*
G37*
G36*
G01*
X110899000Y-84894000D02*
X110899000Y-85794000D01*
G75*
G02*
X110649000Y-86044000I-250000J0D01*
G01*
X110124000Y-86044000D01*
G75*
G02*
X109874000Y-85794000I0J250000D01*
G01*
X109874000Y-84894000D01*
G75*
G02*
X110124000Y-84644000I250000J0D01*
G01*
X110649000Y-84644000D01*
G75*
G02*
X110899000Y-84894000I0J-250000D01*
G01*
G37*
G36*
G01*
X109074000Y-84894000D02*
X109074000Y-85794000D01*
G75*
G02*
X108824000Y-86044000I-250000J0D01*
G01*
X108299000Y-86044000D01*
G75*
G02*
X108049000Y-85794000I0J250000D01*
G01*
X108049000Y-84894000D01*
G75*
G02*
X108299000Y-84644000I250000J0D01*
G01*
X108824000Y-84644000D01*
G75*
G02*
X109074000Y-84894000I0J-250000D01*
G01*
G37*
X94361000Y-90298000D03*
X94361000Y-93598000D03*
X83693000Y-90298000D03*
X83693000Y-93598000D03*
D11*
X156197000Y-107315000D03*
X156197000Y-104775000D03*
X156197000Y-102235000D03*
X156197000Y-99695000D03*
X156197000Y-97155000D03*
X156197000Y-94615000D03*
X156197000Y-92075000D03*
X156197000Y-89535000D03*
X147587000Y-89535000D03*
X147587000Y-92075000D03*
X147587000Y-94615000D03*
X147587000Y-97155000D03*
X147587000Y-99695000D03*
X147587000Y-102235000D03*
X147587000Y-104775000D03*
X147587000Y-107315000D03*
G36*
G01*
X117168000Y-104869000D02*
X117168000Y-103919000D01*
G75*
G02*
X117418000Y-103669000I250000J0D01*
G01*
X117918000Y-103669000D01*
G75*
G02*
X118168000Y-103919000I0J-250000D01*
G01*
X118168000Y-104869000D01*
G75*
G02*
X117918000Y-105119000I-250000J0D01*
G01*
X117418000Y-105119000D01*
G75*
G02*
X117168000Y-104869000I0J250000D01*
G01*
G37*
G36*
G01*
X119068000Y-104869000D02*
X119068000Y-103919000D01*
G75*
G02*
X119318000Y-103669000I250000J0D01*
G01*
X119818000Y-103669000D01*
G75*
G02*
X120068000Y-103919000I0J-250000D01*
G01*
X120068000Y-104869000D01*
G75*
G02*
X119818000Y-105119000I-250000J0D01*
G01*
X119318000Y-105119000D01*
G75*
G02*
X119068000Y-104869000I0J250000D01*
G01*
G37*
G36*
G01*
X84633750Y-110970000D02*
X85546250Y-110970000D01*
G75*
G02*
X85790000Y-111213750I0J-243750D01*
G01*
X85790000Y-111701250D01*
G75*
G02*
X85546250Y-111945000I-243750J0D01*
G01*
X84633750Y-111945000D01*
G75*
G02*
X84390000Y-111701250I0J243750D01*
G01*
X84390000Y-111213750D01*
G75*
G02*
X84633750Y-110970000I243750J0D01*
G01*
G37*
G36*
G01*
X84633750Y-112845000D02*
X85546250Y-112845000D01*
G75*
G02*
X85790000Y-113088750I0J-243750D01*
G01*
X85790000Y-113576250D01*
G75*
G02*
X85546250Y-113820000I-243750J0D01*
G01*
X84633750Y-113820000D01*
G75*
G02*
X84390000Y-113576250I0J243750D01*
G01*
X84390000Y-113088750D01*
G75*
G02*
X84633750Y-112845000I243750J0D01*
G01*
G37*
G36*
G01*
X102771000Y-84894000D02*
X102771000Y-85794000D01*
G75*
G02*
X102521000Y-86044000I-250000J0D01*
G01*
X101996000Y-86044000D01*
G75*
G02*
X101746000Y-85794000I0J250000D01*
G01*
X101746000Y-84894000D01*
G75*
G02*
X101996000Y-84644000I250000J0D01*
G01*
X102521000Y-84644000D01*
G75*
G02*
X102771000Y-84894000I0J-250000D01*
G01*
G37*
G36*
G01*
X100946000Y-84894000D02*
X100946000Y-85794000D01*
G75*
G02*
X100696000Y-86044000I-250000J0D01*
G01*
X100171000Y-86044000D01*
G75*
G02*
X99921000Y-85794000I0J250000D01*
G01*
X99921000Y-84894000D01*
G75*
G02*
X100171000Y-84644000I250000J0D01*
G01*
X100696000Y-84644000D01*
G75*
G02*
X100946000Y-84894000I0J-250000D01*
G01*
G37*
G36*
G01*
X140617000Y-108389000D02*
X140617000Y-109289000D01*
G75*
G02*
X140367000Y-109539000I-250000J0D01*
G01*
X139842000Y-109539000D01*
G75*
G02*
X139592000Y-109289000I0J250000D01*
G01*
X139592000Y-108389000D01*
G75*
G02*
X139842000Y-108139000I250000J0D01*
G01*
X140367000Y-108139000D01*
G75*
G02*
X140617000Y-108389000I0J-250000D01*
G01*
G37*
G36*
G01*
X138792000Y-108389000D02*
X138792000Y-109289000D01*
G75*
G02*
X138542000Y-109539000I-250000J0D01*
G01*
X138017000Y-109539000D01*
G75*
G02*
X137767000Y-109289000I0J250000D01*
G01*
X137767000Y-108389000D01*
G75*
G02*
X138017000Y-108139000I250000J0D01*
G01*
X138542000Y-108139000D01*
G75*
G02*
X138792000Y-108389000I0J-250000D01*
G01*
G37*
G36*
G01*
X140617000Y-96959000D02*
X140617000Y-97859000D01*
G75*
G02*
X140367000Y-98109000I-250000J0D01*
G01*
X139842000Y-98109000D01*
G75*
G02*
X139592000Y-97859000I0J250000D01*
G01*
X139592000Y-96959000D01*
G75*
G02*
X139842000Y-96709000I250000J0D01*
G01*
X140367000Y-96709000D01*
G75*
G02*
X140617000Y-96959000I0J-250000D01*
G01*
G37*
G36*
G01*
X138792000Y-96959000D02*
X138792000Y-97859000D01*
G75*
G02*
X138542000Y-98109000I-250000J0D01*
G01*
X138017000Y-98109000D01*
G75*
G02*
X137767000Y-97859000I0J250000D01*
G01*
X137767000Y-96959000D01*
G75*
G02*
X138017000Y-96709000I250000J0D01*
G01*
X138542000Y-96709000D01*
G75*
G02*
X138792000Y-96959000I0J-250000D01*
G01*
G37*
G36*
G01*
X131346000Y-104579000D02*
X131346000Y-105479000D01*
G75*
G02*
X131096000Y-105729000I-250000J0D01*
G01*
X130571000Y-105729000D01*
G75*
G02*
X130321000Y-105479000I0J250000D01*
G01*
X130321000Y-104579000D01*
G75*
G02*
X130571000Y-104329000I250000J0D01*
G01*
X131096000Y-104329000D01*
G75*
G02*
X131346000Y-104579000I0J-250000D01*
G01*
G37*
G36*
G01*
X129521000Y-104579000D02*
X129521000Y-105479000D01*
G75*
G02*
X129271000Y-105729000I-250000J0D01*
G01*
X128746000Y-105729000D01*
G75*
G02*
X128496000Y-105479000I0J250000D01*
G01*
X128496000Y-104579000D01*
G75*
G02*
X128746000Y-104329000I250000J0D01*
G01*
X129271000Y-104329000D01*
G75*
G02*
X129521000Y-104579000I0J-250000D01*
G01*
G37*
G36*
G01*
X114086000Y-89558000D02*
X114086000Y-89258000D01*
G75*
G02*
X114236000Y-89108000I150000J0D01*
G01*
X115986000Y-89108000D01*
G75*
G02*
X116136000Y-89258000I0J-150000D01*
G01*
X116136000Y-89558000D01*
G75*
G02*
X115986000Y-89708000I-150000J0D01*
G01*
X114236000Y-89708000D01*
G75*
G02*
X114086000Y-89558000I0J150000D01*
G01*
G37*
G36*
G01*
X114086000Y-90828000D02*
X114086000Y-90528000D01*
G75*
G02*
X114236000Y-90378000I150000J0D01*
G01*
X115986000Y-90378000D01*
G75*
G02*
X116136000Y-90528000I0J-150000D01*
G01*
X116136000Y-90828000D01*
G75*
G02*
X115986000Y-90978000I-150000J0D01*
G01*
X114236000Y-90978000D01*
G75*
G02*
X114086000Y-90828000I0J150000D01*
G01*
G37*
G36*
G01*
X114086000Y-92098000D02*
X114086000Y-91798000D01*
G75*
G02*
X114236000Y-91648000I150000J0D01*
G01*
X115986000Y-91648000D01*
G75*
G02*
X116136000Y-91798000I0J-150000D01*
G01*
X116136000Y-92098000D01*
G75*
G02*
X115986000Y-92248000I-150000J0D01*
G01*
X114236000Y-92248000D01*
G75*
G02*
X114086000Y-92098000I0J150000D01*
G01*
G37*
G36*
G01*
X114086000Y-93368000D02*
X114086000Y-93068000D01*
G75*
G02*
X114236000Y-92918000I150000J0D01*
G01*
X115986000Y-92918000D01*
G75*
G02*
X116136000Y-93068000I0J-150000D01*
G01*
X116136000Y-93368000D01*
G75*
G02*
X115986000Y-93518000I-150000J0D01*
G01*
X114236000Y-93518000D01*
G75*
G02*
X114086000Y-93368000I0J150000D01*
G01*
G37*
G36*
G01*
X114086000Y-94638000D02*
X114086000Y-94338000D01*
G75*
G02*
X114236000Y-94188000I150000J0D01*
G01*
X115986000Y-94188000D01*
G75*
G02*
X116136000Y-94338000I0J-150000D01*
G01*
X116136000Y-94638000D01*
G75*
G02*
X115986000Y-94788000I-150000J0D01*
G01*
X114236000Y-94788000D01*
G75*
G02*
X114086000Y-94638000I0J150000D01*
G01*
G37*
G36*
G01*
X114086000Y-95908000D02*
X114086000Y-95608000D01*
G75*
G02*
X114236000Y-95458000I150000J0D01*
G01*
X115986000Y-95458000D01*
G75*
G02*
X116136000Y-95608000I0J-150000D01*
G01*
X116136000Y-95908000D01*
G75*
G02*
X115986000Y-96058000I-150000J0D01*
G01*
X114236000Y-96058000D01*
G75*
G02*
X114086000Y-95908000I0J150000D01*
G01*
G37*
G36*
G01*
X114086000Y-97178000D02*
X114086000Y-96878000D01*
G75*
G02*
X114236000Y-96728000I150000J0D01*
G01*
X115986000Y-96728000D01*
G75*
G02*
X116136000Y-96878000I0J-150000D01*
G01*
X116136000Y-97178000D01*
G75*
G02*
X115986000Y-97328000I-150000J0D01*
G01*
X114236000Y-97328000D01*
G75*
G02*
X114086000Y-97178000I0J150000D01*
G01*
G37*
G36*
G01*
X114086000Y-98448000D02*
X114086000Y-98148000D01*
G75*
G02*
X114236000Y-97998000I150000J0D01*
G01*
X115986000Y-97998000D01*
G75*
G02*
X116136000Y-98148000I0J-150000D01*
G01*
X116136000Y-98448000D01*
G75*
G02*
X115986000Y-98598000I-150000J0D01*
G01*
X114236000Y-98598000D01*
G75*
G02*
X114086000Y-98448000I0J150000D01*
G01*
G37*
G36*
G01*
X114086000Y-99718000D02*
X114086000Y-99418000D01*
G75*
G02*
X114236000Y-99268000I150000J0D01*
G01*
X115986000Y-99268000D01*
G75*
G02*
X116136000Y-99418000I0J-150000D01*
G01*
X116136000Y-99718000D01*
G75*
G02*
X115986000Y-99868000I-150000J0D01*
G01*
X114236000Y-99868000D01*
G75*
G02*
X114086000Y-99718000I0J150000D01*
G01*
G37*
G36*
G01*
X114086000Y-100988000D02*
X114086000Y-100688000D01*
G75*
G02*
X114236000Y-100538000I150000J0D01*
G01*
X115986000Y-100538000D01*
G75*
G02*
X116136000Y-100688000I0J-150000D01*
G01*
X116136000Y-100988000D01*
G75*
G02*
X115986000Y-101138000I-150000J0D01*
G01*
X114236000Y-101138000D01*
G75*
G02*
X114086000Y-100988000I0J150000D01*
G01*
G37*
G36*
G01*
X123386000Y-100988000D02*
X123386000Y-100688000D01*
G75*
G02*
X123536000Y-100538000I150000J0D01*
G01*
X125286000Y-100538000D01*
G75*
G02*
X125436000Y-100688000I0J-150000D01*
G01*
X125436000Y-100988000D01*
G75*
G02*
X125286000Y-101138000I-150000J0D01*
G01*
X123536000Y-101138000D01*
G75*
G02*
X123386000Y-100988000I0J150000D01*
G01*
G37*
G36*
G01*
X123386000Y-99718000D02*
X123386000Y-99418000D01*
G75*
G02*
X123536000Y-99268000I150000J0D01*
G01*
X125286000Y-99268000D01*
G75*
G02*
X125436000Y-99418000I0J-150000D01*
G01*
X125436000Y-99718000D01*
G75*
G02*
X125286000Y-99868000I-150000J0D01*
G01*
X123536000Y-99868000D01*
G75*
G02*
X123386000Y-99718000I0J150000D01*
G01*
G37*
G36*
G01*
X123386000Y-98448000D02*
X123386000Y-98148000D01*
G75*
G02*
X123536000Y-97998000I150000J0D01*
G01*
X125286000Y-97998000D01*
G75*
G02*
X125436000Y-98148000I0J-150000D01*
G01*
X125436000Y-98448000D01*
G75*
G02*
X125286000Y-98598000I-150000J0D01*
G01*
X123536000Y-98598000D01*
G75*
G02*
X123386000Y-98448000I0J150000D01*
G01*
G37*
G36*
G01*
X123386000Y-97178000D02*
X123386000Y-96878000D01*
G75*
G02*
X123536000Y-96728000I150000J0D01*
G01*
X125286000Y-96728000D01*
G75*
G02*
X125436000Y-96878000I0J-150000D01*
G01*
X125436000Y-97178000D01*
G75*
G02*
X125286000Y-97328000I-150000J0D01*
G01*
X123536000Y-97328000D01*
G75*
G02*
X123386000Y-97178000I0J150000D01*
G01*
G37*
G36*
G01*
X123386000Y-95908000D02*
X123386000Y-95608000D01*
G75*
G02*
X123536000Y-95458000I150000J0D01*
G01*
X125286000Y-95458000D01*
G75*
G02*
X125436000Y-95608000I0J-150000D01*
G01*
X125436000Y-95908000D01*
G75*
G02*
X125286000Y-96058000I-150000J0D01*
G01*
X123536000Y-96058000D01*
G75*
G02*
X123386000Y-95908000I0J150000D01*
G01*
G37*
G36*
G01*
X123386000Y-94638000D02*
X123386000Y-94338000D01*
G75*
G02*
X123536000Y-94188000I150000J0D01*
G01*
X125286000Y-94188000D01*
G75*
G02*
X125436000Y-94338000I0J-150000D01*
G01*
X125436000Y-94638000D01*
G75*
G02*
X125286000Y-94788000I-150000J0D01*
G01*
X123536000Y-94788000D01*
G75*
G02*
X123386000Y-94638000I0J150000D01*
G01*
G37*
G36*
G01*
X123386000Y-93368000D02*
X123386000Y-93068000D01*
G75*
G02*
X123536000Y-92918000I150000J0D01*
G01*
X125286000Y-92918000D01*
G75*
G02*
X125436000Y-93068000I0J-150000D01*
G01*
X125436000Y-93368000D01*
G75*
G02*
X125286000Y-93518000I-150000J0D01*
G01*
X123536000Y-93518000D01*
G75*
G02*
X123386000Y-93368000I0J150000D01*
G01*
G37*
G36*
G01*
X123386000Y-92098000D02*
X123386000Y-91798000D01*
G75*
G02*
X123536000Y-91648000I150000J0D01*
G01*
X125286000Y-91648000D01*
G75*
G02*
X125436000Y-91798000I0J-150000D01*
G01*
X125436000Y-92098000D01*
G75*
G02*
X125286000Y-92248000I-150000J0D01*
G01*
X123536000Y-92248000D01*
G75*
G02*
X123386000Y-92098000I0J150000D01*
G01*
G37*
G36*
G01*
X123386000Y-90828000D02*
X123386000Y-90528000D01*
G75*
G02*
X123536000Y-90378000I150000J0D01*
G01*
X125286000Y-90378000D01*
G75*
G02*
X125436000Y-90528000I0J-150000D01*
G01*
X125436000Y-90828000D01*
G75*
G02*
X125286000Y-90978000I-150000J0D01*
G01*
X123536000Y-90978000D01*
G75*
G02*
X123386000Y-90828000I0J150000D01*
G01*
G37*
G36*
G01*
X123386000Y-89558000D02*
X123386000Y-89258000D01*
G75*
G02*
X123536000Y-89108000I150000J0D01*
G01*
X125286000Y-89108000D01*
G75*
G02*
X125436000Y-89258000I0J-150000D01*
G01*
X125436000Y-89558000D01*
G75*
G02*
X125286000Y-89708000I-150000J0D01*
G01*
X123536000Y-89708000D01*
G75*
G02*
X123386000Y-89558000I0J150000D01*
G01*
G37*
G36*
G01*
X111666000Y-93673000D02*
X112616000Y-93673000D01*
G75*
G02*
X112866000Y-93923000I0J-250000D01*
G01*
X112866000Y-94423000D01*
G75*
G02*
X112616000Y-94673000I-250000J0D01*
G01*
X111666000Y-94673000D01*
G75*
G02*
X111416000Y-94423000I0J250000D01*
G01*
X111416000Y-93923000D01*
G75*
G02*
X111666000Y-93673000I250000J0D01*
G01*
G37*
G36*
G01*
X111666000Y-95573000D02*
X112616000Y-95573000D01*
G75*
G02*
X112866000Y-95823000I0J-250000D01*
G01*
X112866000Y-96323000D01*
G75*
G02*
X112616000Y-96573000I-250000J0D01*
G01*
X111666000Y-96573000D01*
G75*
G02*
X111416000Y-96323000I0J250000D01*
G01*
X111416000Y-95823000D01*
G75*
G02*
X111666000Y-95573000I250000J0D01*
G01*
G37*
D10*
X90805000Y-93598000D03*
X90805000Y-90298000D03*
G36*
G01*
X87561000Y-110970000D02*
X88461000Y-110970000D01*
G75*
G02*
X88711000Y-111220000I0J-250000D01*
G01*
X88711000Y-111745000D01*
G75*
G02*
X88461000Y-111995000I-250000J0D01*
G01*
X87561000Y-111995000D01*
G75*
G02*
X87311000Y-111745000I0J250000D01*
G01*
X87311000Y-111220000D01*
G75*
G02*
X87561000Y-110970000I250000J0D01*
G01*
G37*
G36*
G01*
X87561000Y-112795000D02*
X88461000Y-112795000D01*
G75*
G02*
X88711000Y-113045000I0J-250000D01*
G01*
X88711000Y-113570000D01*
G75*
G02*
X88461000Y-113820000I-250000J0D01*
G01*
X87561000Y-113820000D01*
G75*
G02*
X87311000Y-113570000I0J250000D01*
G01*
X87311000Y-113045000D01*
G75*
G02*
X87561000Y-112795000I250000J0D01*
G01*
G37*
G36*
G01*
X140617000Y-110929000D02*
X140617000Y-111829000D01*
G75*
G02*
X140367000Y-112079000I-250000J0D01*
G01*
X139842000Y-112079000D01*
G75*
G02*
X139592000Y-111829000I0J250000D01*
G01*
X139592000Y-110929000D01*
G75*
G02*
X139842000Y-110679000I250000J0D01*
G01*
X140367000Y-110679000D01*
G75*
G02*
X140617000Y-110929000I0J-250000D01*
G01*
G37*
G36*
G01*
X138792000Y-110929000D02*
X138792000Y-111829000D01*
G75*
G02*
X138542000Y-112079000I-250000J0D01*
G01*
X138017000Y-112079000D01*
G75*
G02*
X137767000Y-111829000I0J250000D01*
G01*
X137767000Y-110929000D01*
G75*
G02*
X138017000Y-110679000I250000J0D01*
G01*
X138542000Y-110679000D01*
G75*
G02*
X138792000Y-110929000I0J-250000D01*
G01*
G37*
G36*
G01*
X117168000Y-108044000D02*
X117168000Y-107094000D01*
G75*
G02*
X117418000Y-106844000I250000J0D01*
G01*
X117918000Y-106844000D01*
G75*
G02*
X118168000Y-107094000I0J-250000D01*
G01*
X118168000Y-108044000D01*
G75*
G02*
X117918000Y-108294000I-250000J0D01*
G01*
X117418000Y-108294000D01*
G75*
G02*
X117168000Y-108044000I0J250000D01*
G01*
G37*
G36*
G01*
X119068000Y-108044000D02*
X119068000Y-107094000D01*
G75*
G02*
X119318000Y-106844000I250000J0D01*
G01*
X119818000Y-106844000D01*
G75*
G02*
X120068000Y-107094000I0J-250000D01*
G01*
X120068000Y-108044000D01*
G75*
G02*
X119818000Y-108294000I-250000J0D01*
G01*
X119318000Y-108294000D01*
G75*
G02*
X119068000Y-108044000I0J250000D01*
G01*
G37*
G36*
G01*
X115344000Y-110294000D02*
X115344000Y-111194000D01*
G75*
G02*
X115094000Y-111444000I-250000J0D01*
G01*
X114569000Y-111444000D01*
G75*
G02*
X114319000Y-111194000I0J250000D01*
G01*
X114319000Y-110294000D01*
G75*
G02*
X114569000Y-110044000I250000J0D01*
G01*
X115094000Y-110044000D01*
G75*
G02*
X115344000Y-110294000I0J-250000D01*
G01*
G37*
G36*
G01*
X113519000Y-110294000D02*
X113519000Y-111194000D01*
G75*
G02*
X113269000Y-111444000I-250000J0D01*
G01*
X112744000Y-111444000D01*
G75*
G02*
X112494000Y-111194000I0J250000D01*
G01*
X112494000Y-110294000D01*
G75*
G02*
X112744000Y-110044000I250000J0D01*
G01*
X113269000Y-110044000D01*
G75*
G02*
X113519000Y-110294000I0J-250000D01*
G01*
G37*
G36*
G01*
X127613000Y-122323000D02*
X127613000Y-121073000D01*
G75*
G02*
X127763000Y-120923000I150000J0D01*
G01*
X128063000Y-120923000D01*
G75*
G02*
X128213000Y-121073000I0J-150000D01*
G01*
X128213000Y-122323000D01*
G75*
G02*
X128063000Y-122473000I-150000J0D01*
G01*
X127763000Y-122473000D01*
G75*
G02*
X127613000Y-122323000I0J150000D01*
G01*
G37*
G36*
G01*
X128613000Y-122323000D02*
X128613000Y-121073000D01*
G75*
G02*
X128763000Y-120923000I150000J0D01*
G01*
X129063000Y-120923000D01*
G75*
G02*
X129213000Y-121073000I0J-150000D01*
G01*
X129213000Y-122323000D01*
G75*
G02*
X129063000Y-122473000I-150000J0D01*
G01*
X128763000Y-122473000D01*
G75*
G02*
X128613000Y-122323000I0J150000D01*
G01*
G37*
G36*
G01*
X129613000Y-122323000D02*
X129613000Y-121073000D01*
G75*
G02*
X129763000Y-120923000I150000J0D01*
G01*
X130063000Y-120923000D01*
G75*
G02*
X130213000Y-121073000I0J-150000D01*
G01*
X130213000Y-122323000D01*
G75*
G02*
X130063000Y-122473000I-150000J0D01*
G01*
X129763000Y-122473000D01*
G75*
G02*
X129613000Y-122323000I0J150000D01*
G01*
G37*
G36*
G01*
X130613000Y-122323000D02*
X130613000Y-121073000D01*
G75*
G02*
X130763000Y-120923000I150000J0D01*
G01*
X131063000Y-120923000D01*
G75*
G02*
X131213000Y-121073000I0J-150000D01*
G01*
X131213000Y-122323000D01*
G75*
G02*
X131063000Y-122473000I-150000J0D01*
G01*
X130763000Y-122473000D01*
G75*
G02*
X130613000Y-122323000I0J150000D01*
G01*
G37*
G36*
G01*
X131613000Y-126223000D02*
X131613000Y-124923000D01*
G75*
G02*
X131863000Y-124673000I250000J0D01*
G01*
X132563000Y-124673000D01*
G75*
G02*
X132813000Y-124923000I0J-250000D01*
G01*
X132813000Y-126223000D01*
G75*
G02*
X132563000Y-126473000I-250000J0D01*
G01*
X131863000Y-126473000D01*
G75*
G02*
X131613000Y-126223000I0J250000D01*
G01*
G37*
G36*
G01*
X126013000Y-126223000D02*
X126013000Y-124923000D01*
G75*
G02*
X126263000Y-124673000I250000J0D01*
G01*
X126963000Y-124673000D01*
G75*
G02*
X127213000Y-124923000I0J-250000D01*
G01*
X127213000Y-126223000D01*
G75*
G02*
X126963000Y-126473000I-250000J0D01*
G01*
X126263000Y-126473000D01*
G75*
G02*
X126013000Y-126223000I0J250000D01*
G01*
G37*
D12*
X150836000Y-72809100D03*
X148336000Y-72809100D03*
X145836000Y-72809100D03*
X150836000Y-78320900D03*
X148336000Y-78320900D03*
X145836000Y-78320900D03*
D13*
X94233000Y-112752000D03*
G36*
X90283000Y-110327000D02*
G01*
X92883000Y-110327000D01*
X93408000Y-110852000D01*
X94883000Y-110852000D01*
X94883000Y-111652000D01*
X93408000Y-111652000D01*
X92883000Y-112177000D01*
X90283000Y-112177000D01*
X90283000Y-110327000D01*
G37*
X94233000Y-109752000D03*
D14*
X167169000Y-114376000D03*
X167169000Y-111176000D03*
X162269000Y-111176000D03*
X162269000Y-114376000D03*
G36*
G01*
X140617000Y-105849000D02*
X140617000Y-106749000D01*
G75*
G02*
X140367000Y-106999000I-250000J0D01*
G01*
X139842000Y-106999000D01*
G75*
G02*
X139592000Y-106749000I0J250000D01*
G01*
X139592000Y-105849000D01*
G75*
G02*
X139842000Y-105599000I250000J0D01*
G01*
X140367000Y-105599000D01*
G75*
G02*
X140617000Y-105849000I0J-250000D01*
G01*
G37*
G36*
G01*
X138792000Y-105849000D02*
X138792000Y-106749000D01*
G75*
G02*
X138542000Y-106999000I-250000J0D01*
G01*
X138017000Y-106999000D01*
G75*
G02*
X137767000Y-106749000I0J250000D01*
G01*
X137767000Y-105849000D01*
G75*
G02*
X138017000Y-105599000I250000J0D01*
G01*
X138542000Y-105599000D01*
G75*
G02*
X138792000Y-105849000I0J-250000D01*
G01*
G37*
G36*
G01*
X108066000Y-74825000D02*
X108066000Y-76025000D01*
G75*
G02*
X107866000Y-76225000I-200000J0D01*
G01*
X107466000Y-76225000D01*
G75*
G02*
X107266000Y-76025000I0J200000D01*
G01*
X107266000Y-74825000D01*
G75*
G02*
X107466000Y-74625000I200000J0D01*
G01*
X107866000Y-74625000D01*
G75*
G02*
X108066000Y-74825000I0J-200000D01*
G01*
G37*
G36*
G01*
X106816000Y-74825000D02*
X106816000Y-76025000D01*
G75*
G02*
X106616000Y-76225000I-200000J0D01*
G01*
X106216000Y-76225000D01*
G75*
G02*
X106016000Y-76025000I0J200000D01*
G01*
X106016000Y-74825000D01*
G75*
G02*
X106216000Y-74625000I200000J0D01*
G01*
X106616000Y-74625000D01*
G75*
G02*
X106816000Y-74825000I0J-200000D01*
G01*
G37*
G36*
G01*
X105566000Y-74825000D02*
X105566000Y-76025000D01*
G75*
G02*
X105366000Y-76225000I-200000J0D01*
G01*
X104966000Y-76225000D01*
G75*
G02*
X104766000Y-76025000I0J200000D01*
G01*
X104766000Y-74825000D01*
G75*
G02*
X104966000Y-74625000I200000J0D01*
G01*
X105366000Y-74625000D01*
G75*
G02*
X105566000Y-74825000I0J-200000D01*
G01*
G37*
G36*
G01*
X104316000Y-74825000D02*
X104316000Y-76025000D01*
G75*
G02*
X104116000Y-76225000I-200000J0D01*
G01*
X103716000Y-76225000D01*
G75*
G02*
X103516000Y-76025000I0J200000D01*
G01*
X103516000Y-74825000D01*
G75*
G02*
X103716000Y-74625000I200000J0D01*
G01*
X104116000Y-74625000D01*
G75*
G02*
X104316000Y-74825000I0J-200000D01*
G01*
G37*
G36*
G01*
X102416000Y-71275001D02*
X102416000Y-73774999D01*
G75*
G02*
X102165999Y-74025000I-250001J0D01*
G01*
X100566001Y-74025000D01*
G75*
G02*
X100316000Y-73774999I0J250001D01*
G01*
X100316000Y-71275001D01*
G75*
G02*
X100566001Y-71025000I250001J0D01*
G01*
X102165999Y-71025000D01*
G75*
G02*
X102416000Y-71275001I0J-250001D01*
G01*
G37*
G36*
G01*
X111266000Y-71275001D02*
X111266000Y-73774999D01*
G75*
G02*
X111015999Y-74025000I-250001J0D01*
G01*
X109416001Y-74025000D01*
G75*
G02*
X109166000Y-73774999I0J250001D01*
G01*
X109166000Y-71275001D01*
G75*
G02*
X109416001Y-71025000I250001J0D01*
G01*
X111015999Y-71025000D01*
G75*
G02*
X111266000Y-71275001I0J-250001D01*
G01*
G37*
G36*
G01*
X94096000Y-74825000D02*
X94096000Y-76025000D01*
G75*
G02*
X93896000Y-76225000I-200000J0D01*
G01*
X93496000Y-76225000D01*
G75*
G02*
X93296000Y-76025000I0J200000D01*
G01*
X93296000Y-74825000D01*
G75*
G02*
X93496000Y-74625000I200000J0D01*
G01*
X93896000Y-74625000D01*
G75*
G02*
X94096000Y-74825000I0J-200000D01*
G01*
G37*
G36*
G01*
X92846000Y-74825000D02*
X92846000Y-76025000D01*
G75*
G02*
X92646000Y-76225000I-200000J0D01*
G01*
X92246000Y-76225000D01*
G75*
G02*
X92046000Y-76025000I0J200000D01*
G01*
X92046000Y-74825000D01*
G75*
G02*
X92246000Y-74625000I200000J0D01*
G01*
X92646000Y-74625000D01*
G75*
G02*
X92846000Y-74825000I0J-200000D01*
G01*
G37*
G36*
G01*
X91596000Y-74825000D02*
X91596000Y-76025000D01*
G75*
G02*
X91396000Y-76225000I-200000J0D01*
G01*
X90996000Y-76225000D01*
G75*
G02*
X90796000Y-76025000I0J200000D01*
G01*
X90796000Y-74825000D01*
G75*
G02*
X90996000Y-74625000I200000J0D01*
G01*
X91396000Y-74625000D01*
G75*
G02*
X91596000Y-74825000I0J-200000D01*
G01*
G37*
G36*
G01*
X90346000Y-74825000D02*
X90346000Y-76025000D01*
G75*
G02*
X90146000Y-76225000I-200000J0D01*
G01*
X89746000Y-76225000D01*
G75*
G02*
X89546000Y-76025000I0J200000D01*
G01*
X89546000Y-74825000D01*
G75*
G02*
X89746000Y-74625000I200000J0D01*
G01*
X90146000Y-74625000D01*
G75*
G02*
X90346000Y-74825000I0J-200000D01*
G01*
G37*
G36*
G01*
X88446000Y-71275001D02*
X88446000Y-73774999D01*
G75*
G02*
X88195999Y-74025000I-250001J0D01*
G01*
X86596001Y-74025000D01*
G75*
G02*
X86346000Y-73774999I0J250001D01*
G01*
X86346000Y-71275001D01*
G75*
G02*
X86596001Y-71025000I250001J0D01*
G01*
X88195999Y-71025000D01*
G75*
G02*
X88446000Y-71275001I0J-250001D01*
G01*
G37*
G36*
G01*
X97296000Y-71275001D02*
X97296000Y-73774999D01*
G75*
G02*
X97045999Y-74025000I-250001J0D01*
G01*
X95446001Y-74025000D01*
G75*
G02*
X95196000Y-73774999I0J250001D01*
G01*
X95196000Y-71275001D01*
G75*
G02*
X95446001Y-71025000I250001J0D01*
G01*
X97045999Y-71025000D01*
G75*
G02*
X97296000Y-71275001I0J-250001D01*
G01*
G37*
G36*
G01*
X97630000Y-113464000D02*
X96680000Y-113464000D01*
G75*
G02*
X96430000Y-113214000I0J250000D01*
G01*
X96430000Y-112714000D01*
G75*
G02*
X96680000Y-112464000I250000J0D01*
G01*
X97630000Y-112464000D01*
G75*
G02*
X97880000Y-112714000I0J-250000D01*
G01*
X97880000Y-113214000D01*
G75*
G02*
X97630000Y-113464000I-250000J0D01*
G01*
G37*
G36*
G01*
X97630000Y-111564000D02*
X96680000Y-111564000D01*
G75*
G02*
X96430000Y-111314000I0J250000D01*
G01*
X96430000Y-110814000D01*
G75*
G02*
X96680000Y-110564000I250000J0D01*
G01*
X97630000Y-110564000D01*
G75*
G02*
X97880000Y-110814000I0J-250000D01*
G01*
X97880000Y-111314000D01*
G75*
G02*
X97630000Y-111564000I-250000J0D01*
G01*
G37*
M02*
