M48
INCH,TZ
T1C0.0120
T2C0.0472
T3C0.0512
T4C0.1260
T5C0.1260
%
G90
G05
T1
X33450Y-45150
X33450Y-45500
X33900Y-45150
X33900Y-45500
X34050Y-43400
X34350Y-45150
X34350Y-45500
X34800Y-45150
X34800Y-45500
X35250Y-45150
X35250Y-45500
X35300Y-42800
X35300Y-43150
X35300Y-43550
X35300Y-43950
X35650Y-38950
X35650Y-39300
X35650Y-39650
X35650Y-40000
X35650Y-42800
X35650Y-43150
X35700Y-45150
X35700Y-45500
X36000Y-38950
X36000Y-39300
X36000Y-39650
X36000Y-40000
X36000Y-42800
X36000Y-43150
X36150Y-45150
X36150Y-45500
X36350Y-42800
X36350Y-43150
X36600Y-45150
X36600Y-45500
X37000Y-45150
X37000Y-45500
X37200Y-32450
X37200Y-38950
X37200Y-39300
X37200Y-39650
X37200Y-40000
X37450Y-45150
X37450Y-45500
X37550Y-32200
X37550Y-38950
X37550Y-39300
X37550Y-39650
X37550Y-40000
X37900Y-45150
X37900Y-45500
X37950Y-31950
X37950Y-34250
X38350Y-45150
X38350Y-45500
X38650Y-34250
X39550Y-31950
X39550Y-34250
X40250Y-34250
X40250Y-36300
X40500Y-36550
X40700Y-35850
X40850Y-39950
X40850Y-42050
X41150Y-32200
X41150Y-34250
X41150Y-35900
X41400Y-31950
X41850Y-34250
X41900Y-31700
X42400Y-31700
X42550Y-36450
X42550Y-37200
X42550Y-40500
X42750Y-32450
X42750Y-34250
X43450Y-34250
X43450Y-40500
X45350Y-47850
X45650Y-47400
X45650Y-47850
X46000Y-37700
X46300Y-37700
X47600Y-41500
X47600Y-42750
X47600Y-44000
X48000Y-37200
X48150Y-29050
X48300Y-37200
X48528Y-29050
X48900Y-29050
X49100Y-40300
X49100Y-40900
X49650Y-47850
X49950Y-47400
X49950Y-47850
X52050Y-34900
X52050Y-36100
X53450Y-29050
X53828Y-29050
X53950Y-47850
X54150Y-38850
X54150Y-42350
X54200Y-29050
X54250Y-47400
X54250Y-47850
X54450Y-38850
X54450Y-42350
X56950Y-28350
X56950Y-28650
X56950Y-28950
X56950Y-30550
X56950Y-30850
X56950Y-31150
X58050Y-49250
X58050Y-49600
X58450Y-49250
X58450Y-49600
X58850Y-49250
X58850Y-49600
X59250Y-49250
X59250Y-49600
X59650Y-49250
X59650Y-49600
X60050Y-49250
X60050Y-49600
X60450Y-49250
X60450Y-49600
X60850Y-49250
X60850Y-49600
X61250Y-49250
X61250Y-49600
X61495Y-35755
X61495Y-36755
X61495Y-37755
X61650Y-49250
X61650Y-49600
X63250Y-44100
X63250Y-44400
X63885Y-44400
T2
X35172Y-46900
X36550Y-46900
X37928Y-46900
X40472Y-46900
X41850Y-46900
X43228Y-46900
X45772Y-30600
X47150Y-30600
X48528Y-30600
X51072Y-30600
X52450Y-30600
X53828Y-30600
T3
X31850Y-39300
X31850Y-41269
T4
X65800Y-48300
T5
X31700Y-29200
X31700Y-48300
X65800Y-29200
T0
M30
