G04 #@! TF.GenerationSoftware,KiCad,Pcbnew,6.0.10-86aedd382b~118~ubuntu18.04.1*
G04 #@! TF.CreationDate,2024-08-26T14:20:04-06:00*
G04 #@! TF.ProjectId,ckt-iiab,636b742d-6969-4616-922e-6b696361645f,rev?*
G04 #@! TF.SameCoordinates,Original*
G04 #@! TF.FileFunction,Copper,L1,Top*
G04 #@! TF.FilePolarity,Positive*
%FSLAX46Y46*%
G04 Gerber Fmt 4.6, Leading zero omitted, Abs format (unit mm)*
G04 Created by KiCad (PCBNEW 6.0.10-86aedd382b~118~ubuntu18.04.1) date 2024-08-26 14:20:04*
%MOMM*%
%LPD*%
G01*
G04 APERTURE LIST*
G04 #@! TA.AperFunction,ComponentPad*
%ADD10R,2.300000X2.300000*%
G04 #@! TD*
G04 #@! TA.AperFunction,ComponentPad*
%ADD11C,2.300000*%
G04 #@! TD*
G04 #@! TA.AperFunction,ComponentPad*
%ADD12C,6.400000*%
G04 #@! TD*
G04 #@! TA.AperFunction,SMDPad,CuDef*
%ADD13R,1.900000X1.400000*%
G04 #@! TD*
G04 #@! TA.AperFunction,SMDPad,CuDef*
%ADD14R,2.440000X1.120000*%
G04 #@! TD*
G04 #@! TA.AperFunction,ConnectorPad*
%ADD15C,0.787400*%
G04 #@! TD*
G04 #@! TA.AperFunction,ComponentPad*
%ADD16R,2.500000X2.500000*%
G04 #@! TD*
G04 #@! TA.AperFunction,ComponentPad*
%ADD17C,2.500000*%
G04 #@! TD*
G04 #@! TA.AperFunction,SMDPad,CuDef*
%ADD18R,1.193800X2.489200*%
G04 #@! TD*
G04 #@! TA.AperFunction,SMDPad,CuDef*
%ADD19R,1.300000X0.550000*%
G04 #@! TD*
G04 #@! TA.AperFunction,SMDPad,CuDef*
%ADD20R,1.500000X1.000000*%
G04 #@! TD*
G04 #@! TA.AperFunction,ViaPad*
%ADD21C,0.609600*%
G04 #@! TD*
G04 #@! TA.AperFunction,Conductor*
%ADD22C,0.635000*%
G04 #@! TD*
G04 #@! TA.AperFunction,Conductor*
%ADD23C,0.254000*%
G04 #@! TD*
G04 #@! TA.AperFunction,Conductor*
%ADD24C,1.016000*%
G04 #@! TD*
G04 #@! TA.AperFunction,Conductor*
%ADD25C,0.457200*%
G04 #@! TD*
G04 #@! TA.AperFunction,Conductor*
%ADD26C,0.203200*%
G04 #@! TD*
G04 #@! TA.AperFunction,Conductor*
%ADD27C,0.508000*%
G04 #@! TD*
G04 APERTURE END LIST*
G04 #@! TA.AperFunction,SMDPad,CuDef*
G36*
G01*
X101760000Y-106246000D02*
X102710000Y-106246000D01*
G75*
G02*
X102960000Y-106496000I0J-250000D01*
G01*
X102960000Y-106996000D01*
G75*
G02*
X102710000Y-107246000I-250000J0D01*
G01*
X101760000Y-107246000D01*
G75*
G02*
X101510000Y-106996000I0J250000D01*
G01*
X101510000Y-106496000D01*
G75*
G02*
X101760000Y-106246000I250000J0D01*
G01*
G37*
G04 #@! TD.AperFunction*
G04 #@! TA.AperFunction,SMDPad,CuDef*
G36*
G01*
X101760000Y-108146000D02*
X102710000Y-108146000D01*
G75*
G02*
X102960000Y-108396000I0J-250000D01*
G01*
X102960000Y-108896000D01*
G75*
G02*
X102710000Y-109146000I-250000J0D01*
G01*
X101760000Y-109146000D01*
G75*
G02*
X101510000Y-108896000I0J250000D01*
G01*
X101510000Y-108396000D01*
G75*
G02*
X101760000Y-108146000I250000J0D01*
G01*
G37*
G04 #@! TD.AperFunction*
G04 #@! TA.AperFunction,SMDPad,CuDef*
G36*
G01*
X138535000Y-122323000D02*
X138535000Y-121073000D01*
G75*
G02*
X138685000Y-120923000I150000J0D01*
G01*
X138985000Y-120923000D01*
G75*
G02*
X139135000Y-121073000I0J-150000D01*
G01*
X139135000Y-122323000D01*
G75*
G02*
X138985000Y-122473000I-150000J0D01*
G01*
X138685000Y-122473000D01*
G75*
G02*
X138535000Y-122323000I0J150000D01*
G01*
G37*
G04 #@! TD.AperFunction*
G04 #@! TA.AperFunction,SMDPad,CuDef*
G36*
G01*
X139535000Y-122323000D02*
X139535000Y-121073000D01*
G75*
G02*
X139685000Y-120923000I150000J0D01*
G01*
X139985000Y-120923000D01*
G75*
G02*
X140135000Y-121073000I0J-150000D01*
G01*
X140135000Y-122323000D01*
G75*
G02*
X139985000Y-122473000I-150000J0D01*
G01*
X139685000Y-122473000D01*
G75*
G02*
X139535000Y-122323000I0J150000D01*
G01*
G37*
G04 #@! TD.AperFunction*
G04 #@! TA.AperFunction,SMDPad,CuDef*
G36*
G01*
X140535000Y-122323000D02*
X140535000Y-121073000D01*
G75*
G02*
X140685000Y-120923000I150000J0D01*
G01*
X140985000Y-120923000D01*
G75*
G02*
X141135000Y-121073000I0J-150000D01*
G01*
X141135000Y-122323000D01*
G75*
G02*
X140985000Y-122473000I-150000J0D01*
G01*
X140685000Y-122473000D01*
G75*
G02*
X140535000Y-122323000I0J150000D01*
G01*
G37*
G04 #@! TD.AperFunction*
G04 #@! TA.AperFunction,SMDPad,CuDef*
G36*
G01*
X141535000Y-122323000D02*
X141535000Y-121073000D01*
G75*
G02*
X141685000Y-120923000I150000J0D01*
G01*
X141985000Y-120923000D01*
G75*
G02*
X142135000Y-121073000I0J-150000D01*
G01*
X142135000Y-122323000D01*
G75*
G02*
X141985000Y-122473000I-150000J0D01*
G01*
X141685000Y-122473000D01*
G75*
G02*
X141535000Y-122323000I0J150000D01*
G01*
G37*
G04 #@! TD.AperFunction*
G04 #@! TA.AperFunction,SMDPad,CuDef*
G36*
G01*
X142535000Y-126223000D02*
X142535000Y-124923000D01*
G75*
G02*
X142785000Y-124673000I250000J0D01*
G01*
X143485000Y-124673000D01*
G75*
G02*
X143735000Y-124923000I0J-250000D01*
G01*
X143735000Y-126223000D01*
G75*
G02*
X143485000Y-126473000I-250000J0D01*
G01*
X142785000Y-126473000D01*
G75*
G02*
X142535000Y-126223000I0J250000D01*
G01*
G37*
G04 #@! TD.AperFunction*
G04 #@! TA.AperFunction,SMDPad,CuDef*
G36*
G01*
X136935000Y-126223000D02*
X136935000Y-124923000D01*
G75*
G02*
X137185000Y-124673000I250000J0D01*
G01*
X137885000Y-124673000D01*
G75*
G02*
X138135000Y-124923000I0J-250000D01*
G01*
X138135000Y-126223000D01*
G75*
G02*
X137885000Y-126473000I-250000J0D01*
G01*
X137185000Y-126473000D01*
G75*
G02*
X136935000Y-126223000I0J250000D01*
G01*
G37*
G04 #@! TD.AperFunction*
G04 #@! TA.AperFunction,SMDPad,CuDef*
G36*
G01*
X140617000Y-99499000D02*
X140617000Y-100399000D01*
G75*
G02*
X140367000Y-100649000I-250000J0D01*
G01*
X139842000Y-100649000D01*
G75*
G02*
X139592000Y-100399000I0J250000D01*
G01*
X139592000Y-99499000D01*
G75*
G02*
X139842000Y-99249000I250000J0D01*
G01*
X140367000Y-99249000D01*
G75*
G02*
X140617000Y-99499000I0J-250000D01*
G01*
G37*
G04 #@! TD.AperFunction*
G04 #@! TA.AperFunction,SMDPad,CuDef*
G36*
G01*
X138792000Y-99499000D02*
X138792000Y-100399000D01*
G75*
G02*
X138542000Y-100649000I-250000J0D01*
G01*
X138017000Y-100649000D01*
G75*
G02*
X137767000Y-100399000I0J250000D01*
G01*
X137767000Y-99499000D01*
G75*
G02*
X138017000Y-99249000I250000J0D01*
G01*
X138542000Y-99249000D01*
G75*
G02*
X138792000Y-99499000I0J-250000D01*
G01*
G37*
G04 #@! TD.AperFunction*
G04 #@! TA.AperFunction,SMDPad,CuDef*
G36*
G01*
X98707000Y-84894000D02*
X98707000Y-85794000D01*
G75*
G02*
X98457000Y-86044000I-250000J0D01*
G01*
X97932000Y-86044000D01*
G75*
G02*
X97682000Y-85794000I0J250000D01*
G01*
X97682000Y-84894000D01*
G75*
G02*
X97932000Y-84644000I250000J0D01*
G01*
X98457000Y-84644000D01*
G75*
G02*
X98707000Y-84894000I0J-250000D01*
G01*
G37*
G04 #@! TD.AperFunction*
G04 #@! TA.AperFunction,SMDPad,CuDef*
G36*
G01*
X96882000Y-84894000D02*
X96882000Y-85794000D01*
G75*
G02*
X96632000Y-86044000I-250000J0D01*
G01*
X96107000Y-86044000D01*
G75*
G02*
X95857000Y-85794000I0J250000D01*
G01*
X95857000Y-84894000D01*
G75*
G02*
X96107000Y-84644000I250000J0D01*
G01*
X96632000Y-84644000D01*
G75*
G02*
X96882000Y-84894000I0J-250000D01*
G01*
G37*
G04 #@! TD.AperFunction*
D10*
X123261000Y-77724000D03*
D11*
X119761000Y-77724000D03*
X116261000Y-77724000D03*
G04 #@! TA.AperFunction,SMDPad,CuDef*
G36*
G01*
X117168000Y-111219000D02*
X117168000Y-110269000D01*
G75*
G02*
X117418000Y-110019000I250000J0D01*
G01*
X117918000Y-110019000D01*
G75*
G02*
X118168000Y-110269000I0J-250000D01*
G01*
X118168000Y-111219000D01*
G75*
G02*
X117918000Y-111469000I-250000J0D01*
G01*
X117418000Y-111469000D01*
G75*
G02*
X117168000Y-111219000I0J250000D01*
G01*
G37*
G04 #@! TD.AperFunction*
G04 #@! TA.AperFunction,SMDPad,CuDef*
G36*
G01*
X119068000Y-111219000D02*
X119068000Y-110269000D01*
G75*
G02*
X119318000Y-110019000I250000J0D01*
G01*
X119818000Y-110019000D01*
G75*
G02*
X120068000Y-110269000I0J-250000D01*
G01*
X120068000Y-111219000D01*
G75*
G02*
X119818000Y-111469000I-250000J0D01*
G01*
X119318000Y-111469000D01*
G75*
G02*
X119068000Y-111219000I0J250000D01*
G01*
G37*
G04 #@! TD.AperFunction*
D12*
X167132000Y-122682000D03*
G04 #@! TA.AperFunction,SMDPad,CuDef*
G36*
G01*
X104833000Y-106271000D02*
X105733000Y-106271000D01*
G75*
G02*
X105983000Y-106521000I0J-250000D01*
G01*
X105983000Y-107046000D01*
G75*
G02*
X105733000Y-107296000I-250000J0D01*
G01*
X104833000Y-107296000D01*
G75*
G02*
X104583000Y-107046000I0J250000D01*
G01*
X104583000Y-106521000D01*
G75*
G02*
X104833000Y-106271000I250000J0D01*
G01*
G37*
G04 #@! TD.AperFunction*
G04 #@! TA.AperFunction,SMDPad,CuDef*
G36*
G01*
X104833000Y-108096000D02*
X105733000Y-108096000D01*
G75*
G02*
X105983000Y-108346000I0J-250000D01*
G01*
X105983000Y-108871000D01*
G75*
G02*
X105733000Y-109121000I-250000J0D01*
G01*
X104833000Y-109121000D01*
G75*
G02*
X104583000Y-108871000I0J250000D01*
G01*
X104583000Y-108346000D01*
G75*
G02*
X104833000Y-108096000I250000J0D01*
G01*
G37*
G04 #@! TD.AperFunction*
G04 #@! TA.AperFunction,SMDPad,CuDef*
G36*
G01*
X115367500Y-107119000D02*
X115367500Y-108019000D01*
G75*
G02*
X115117500Y-108269000I-250000J0D01*
G01*
X114592500Y-108269000D01*
G75*
G02*
X114342500Y-108019000I0J250000D01*
G01*
X114342500Y-107119000D01*
G75*
G02*
X114592500Y-106869000I250000J0D01*
G01*
X115117500Y-106869000D01*
G75*
G02*
X115367500Y-107119000I0J-250000D01*
G01*
G37*
G04 #@! TD.AperFunction*
G04 #@! TA.AperFunction,SMDPad,CuDef*
G36*
G01*
X113542500Y-107119000D02*
X113542500Y-108019000D01*
G75*
G02*
X113292500Y-108269000I-250000J0D01*
G01*
X112767500Y-108269000D01*
G75*
G02*
X112517500Y-108019000I0J250000D01*
G01*
X112517500Y-107119000D01*
G75*
G02*
X112767500Y-106869000I250000J0D01*
G01*
X113292500Y-106869000D01*
G75*
G02*
X113542500Y-107119000I0J-250000D01*
G01*
G37*
G04 #@! TD.AperFunction*
X167132000Y-74168000D03*
G04 #@! TA.AperFunction,SMDPad,CuDef*
G36*
G01*
X106835000Y-84894000D02*
X106835000Y-85794000D01*
G75*
G02*
X106585000Y-86044000I-250000J0D01*
G01*
X106060000Y-86044000D01*
G75*
G02*
X105810000Y-85794000I0J250000D01*
G01*
X105810000Y-84894000D01*
G75*
G02*
X106060000Y-84644000I250000J0D01*
G01*
X106585000Y-84644000D01*
G75*
G02*
X106835000Y-84894000I0J-250000D01*
G01*
G37*
G04 #@! TD.AperFunction*
G04 #@! TA.AperFunction,SMDPad,CuDef*
G36*
G01*
X105010000Y-84894000D02*
X105010000Y-85794000D01*
G75*
G02*
X104760000Y-86044000I-250000J0D01*
G01*
X104235000Y-86044000D01*
G75*
G02*
X103985000Y-85794000I0J250000D01*
G01*
X103985000Y-84894000D01*
G75*
G02*
X104235000Y-84644000I250000J0D01*
G01*
X104760000Y-84644000D01*
G75*
G02*
X105010000Y-84894000I0J-250000D01*
G01*
G37*
G04 #@! TD.AperFunction*
D13*
X87249000Y-93598000D03*
X87249000Y-90298000D03*
G04 #@! TA.AperFunction,SMDPad,CuDef*
G36*
G01*
X140617000Y-102039000D02*
X140617000Y-102939000D01*
G75*
G02*
X140367000Y-103189000I-250000J0D01*
G01*
X139842000Y-103189000D01*
G75*
G02*
X139592000Y-102939000I0J250000D01*
G01*
X139592000Y-102039000D01*
G75*
G02*
X139842000Y-101789000I250000J0D01*
G01*
X140367000Y-101789000D01*
G75*
G02*
X140617000Y-102039000I0J-250000D01*
G01*
G37*
G04 #@! TD.AperFunction*
G04 #@! TA.AperFunction,SMDPad,CuDef*
G36*
G01*
X138792000Y-102039000D02*
X138792000Y-102939000D01*
G75*
G02*
X138542000Y-103189000I-250000J0D01*
G01*
X138017000Y-103189000D01*
G75*
G02*
X137767000Y-102939000I0J250000D01*
G01*
X137767000Y-102039000D01*
G75*
G02*
X138017000Y-101789000I250000J0D01*
G01*
X138542000Y-101789000D01*
G75*
G02*
X138792000Y-102039000I0J-250000D01*
G01*
G37*
G04 #@! TD.AperFunction*
G04 #@! TA.AperFunction,SMDPad,CuDef*
G36*
G01*
X127856000Y-96573000D02*
X126906000Y-96573000D01*
G75*
G02*
X126656000Y-96323000I0J250000D01*
G01*
X126656000Y-95823000D01*
G75*
G02*
X126906000Y-95573000I250000J0D01*
G01*
X127856000Y-95573000D01*
G75*
G02*
X128106000Y-95823000I0J-250000D01*
G01*
X128106000Y-96323000D01*
G75*
G02*
X127856000Y-96573000I-250000J0D01*
G01*
G37*
G04 #@! TD.AperFunction*
G04 #@! TA.AperFunction,SMDPad,CuDef*
G36*
G01*
X127856000Y-94673000D02*
X126906000Y-94673000D01*
G75*
G02*
X126656000Y-94423000I0J250000D01*
G01*
X126656000Y-93923000D01*
G75*
G02*
X126906000Y-93673000I250000J0D01*
G01*
X127856000Y-93673000D01*
G75*
G02*
X128106000Y-93923000I0J-250000D01*
G01*
X128106000Y-94423000D01*
G75*
G02*
X127856000Y-94673000I-250000J0D01*
G01*
G37*
G04 #@! TD.AperFunction*
G04 #@! TA.AperFunction,SMDPad,CuDef*
G36*
G01*
X93514000Y-106050000D02*
X92414000Y-106050000D01*
G75*
G02*
X92164000Y-105800000I0J250000D01*
G01*
X92164000Y-102800000D01*
G75*
G02*
X92414000Y-102550000I250000J0D01*
G01*
X93514000Y-102550000D01*
G75*
G02*
X93764000Y-102800000I0J-250000D01*
G01*
X93764000Y-105800000D01*
G75*
G02*
X93514000Y-106050000I-250000J0D01*
G01*
G37*
G04 #@! TD.AperFunction*
G04 #@! TA.AperFunction,SMDPad,CuDef*
G36*
G01*
X93514000Y-100650000D02*
X92414000Y-100650000D01*
G75*
G02*
X92164000Y-100400000I0J250000D01*
G01*
X92164000Y-97400000D01*
G75*
G02*
X92414000Y-97150000I250000J0D01*
G01*
X93514000Y-97150000D01*
G75*
G02*
X93764000Y-97400000I0J-250000D01*
G01*
X93764000Y-100400000D01*
G75*
G02*
X93514000Y-100650000I-250000J0D01*
G01*
G37*
G04 #@! TD.AperFunction*
G04 #@! TA.AperFunction,SMDPad,CuDef*
G36*
G01*
X131346000Y-100769000D02*
X131346000Y-101669000D01*
G75*
G02*
X131096000Y-101919000I-250000J0D01*
G01*
X130571000Y-101919000D01*
G75*
G02*
X130321000Y-101669000I0J250000D01*
G01*
X130321000Y-100769000D01*
G75*
G02*
X130571000Y-100519000I250000J0D01*
G01*
X131096000Y-100519000D01*
G75*
G02*
X131346000Y-100769000I0J-250000D01*
G01*
G37*
G04 #@! TD.AperFunction*
G04 #@! TA.AperFunction,SMDPad,CuDef*
G36*
G01*
X129521000Y-100769000D02*
X129521000Y-101669000D01*
G75*
G02*
X129271000Y-101919000I-250000J0D01*
G01*
X128746000Y-101919000D01*
G75*
G02*
X128496000Y-101669000I0J250000D01*
G01*
X128496000Y-100769000D01*
G75*
G02*
X128746000Y-100519000I250000J0D01*
G01*
X129271000Y-100519000D01*
G75*
G02*
X129521000Y-100769000I0J-250000D01*
G01*
G37*
G04 #@! TD.AperFunction*
G04 #@! TA.AperFunction,SMDPad,CuDef*
G36*
G01*
X116691000Y-122323000D02*
X116691000Y-121073000D01*
G75*
G02*
X116841000Y-120923000I150000J0D01*
G01*
X117141000Y-120923000D01*
G75*
G02*
X117291000Y-121073000I0J-150000D01*
G01*
X117291000Y-122323000D01*
G75*
G02*
X117141000Y-122473000I-150000J0D01*
G01*
X116841000Y-122473000D01*
G75*
G02*
X116691000Y-122323000I0J150000D01*
G01*
G37*
G04 #@! TD.AperFunction*
G04 #@! TA.AperFunction,SMDPad,CuDef*
G36*
G01*
X117691000Y-122323000D02*
X117691000Y-121073000D01*
G75*
G02*
X117841000Y-120923000I150000J0D01*
G01*
X118141000Y-120923000D01*
G75*
G02*
X118291000Y-121073000I0J-150000D01*
G01*
X118291000Y-122323000D01*
G75*
G02*
X118141000Y-122473000I-150000J0D01*
G01*
X117841000Y-122473000D01*
G75*
G02*
X117691000Y-122323000I0J150000D01*
G01*
G37*
G04 #@! TD.AperFunction*
G04 #@! TA.AperFunction,SMDPad,CuDef*
G36*
G01*
X118691000Y-122323000D02*
X118691000Y-121073000D01*
G75*
G02*
X118841000Y-120923000I150000J0D01*
G01*
X119141000Y-120923000D01*
G75*
G02*
X119291000Y-121073000I0J-150000D01*
G01*
X119291000Y-122323000D01*
G75*
G02*
X119141000Y-122473000I-150000J0D01*
G01*
X118841000Y-122473000D01*
G75*
G02*
X118691000Y-122323000I0J150000D01*
G01*
G37*
G04 #@! TD.AperFunction*
G04 #@! TA.AperFunction,SMDPad,CuDef*
G36*
G01*
X119691000Y-122323000D02*
X119691000Y-121073000D01*
G75*
G02*
X119841000Y-120923000I150000J0D01*
G01*
X120141000Y-120923000D01*
G75*
G02*
X120291000Y-121073000I0J-150000D01*
G01*
X120291000Y-122323000D01*
G75*
G02*
X120141000Y-122473000I-150000J0D01*
G01*
X119841000Y-122473000D01*
G75*
G02*
X119691000Y-122323000I0J150000D01*
G01*
G37*
G04 #@! TD.AperFunction*
G04 #@! TA.AperFunction,SMDPad,CuDef*
G36*
G01*
X115091000Y-126223000D02*
X115091000Y-124923000D01*
G75*
G02*
X115341000Y-124673000I250000J0D01*
G01*
X116041000Y-124673000D01*
G75*
G02*
X116291000Y-124923000I0J-250000D01*
G01*
X116291000Y-126223000D01*
G75*
G02*
X116041000Y-126473000I-250000J0D01*
G01*
X115341000Y-126473000D01*
G75*
G02*
X115091000Y-126223000I0J250000D01*
G01*
G37*
G04 #@! TD.AperFunction*
G04 #@! TA.AperFunction,SMDPad,CuDef*
G36*
G01*
X120691000Y-126223000D02*
X120691000Y-124923000D01*
G75*
G02*
X120941000Y-124673000I250000J0D01*
G01*
X121641000Y-124673000D01*
G75*
G02*
X121891000Y-124923000I0J-250000D01*
G01*
X121891000Y-126223000D01*
G75*
G02*
X121641000Y-126473000I-250000J0D01*
G01*
X120941000Y-126473000D01*
G75*
G02*
X120691000Y-126223000I0J250000D01*
G01*
G37*
G04 #@! TD.AperFunction*
G04 #@! TA.AperFunction,SMDPad,CuDef*
G36*
G01*
X134648000Y-86672000D02*
X134648000Y-87572000D01*
G75*
G02*
X134398000Y-87822000I-250000J0D01*
G01*
X133873000Y-87822000D01*
G75*
G02*
X133623000Y-87572000I0J250000D01*
G01*
X133623000Y-86672000D01*
G75*
G02*
X133873000Y-86422000I250000J0D01*
G01*
X134398000Y-86422000D01*
G75*
G02*
X134648000Y-86672000I0J-250000D01*
G01*
G37*
G04 #@! TD.AperFunction*
G04 #@! TA.AperFunction,SMDPad,CuDef*
G36*
G01*
X132823000Y-86672000D02*
X132823000Y-87572000D01*
G75*
G02*
X132573000Y-87822000I-250000J0D01*
G01*
X132048000Y-87822000D01*
G75*
G02*
X131798000Y-87572000I0J250000D01*
G01*
X131798000Y-86672000D01*
G75*
G02*
X132048000Y-86422000I250000J0D01*
G01*
X132573000Y-86422000D01*
G75*
G02*
X132823000Y-86672000I0J-250000D01*
G01*
G37*
G04 #@! TD.AperFunction*
G04 #@! TA.AperFunction,SMDPad,CuDef*
G36*
G01*
X115344000Y-103944000D02*
X115344000Y-104844000D01*
G75*
G02*
X115094000Y-105094000I-250000J0D01*
G01*
X114569000Y-105094000D01*
G75*
G02*
X114319000Y-104844000I0J250000D01*
G01*
X114319000Y-103944000D01*
G75*
G02*
X114569000Y-103694000I250000J0D01*
G01*
X115094000Y-103694000D01*
G75*
G02*
X115344000Y-103944000I0J-250000D01*
G01*
G37*
G04 #@! TD.AperFunction*
G04 #@! TA.AperFunction,SMDPad,CuDef*
G36*
G01*
X113519000Y-103944000D02*
X113519000Y-104844000D01*
G75*
G02*
X113269000Y-105094000I-250000J0D01*
G01*
X112744000Y-105094000D01*
G75*
G02*
X112494000Y-104844000I0J250000D01*
G01*
X112494000Y-103944000D01*
G75*
G02*
X112744000Y-103694000I250000J0D01*
G01*
X113269000Y-103694000D01*
G75*
G02*
X113519000Y-103944000I0J-250000D01*
G01*
G37*
G04 #@! TD.AperFunction*
D12*
X80518000Y-122682000D03*
G04 #@! TA.AperFunction,SMDPad,CuDef*
G36*
G01*
X110899000Y-84894000D02*
X110899000Y-85794000D01*
G75*
G02*
X110649000Y-86044000I-250000J0D01*
G01*
X110124000Y-86044000D01*
G75*
G02*
X109874000Y-85794000I0J250000D01*
G01*
X109874000Y-84894000D01*
G75*
G02*
X110124000Y-84644000I250000J0D01*
G01*
X110649000Y-84644000D01*
G75*
G02*
X110899000Y-84894000I0J-250000D01*
G01*
G37*
G04 #@! TD.AperFunction*
G04 #@! TA.AperFunction,SMDPad,CuDef*
G36*
G01*
X109074000Y-84894000D02*
X109074000Y-85794000D01*
G75*
G02*
X108824000Y-86044000I-250000J0D01*
G01*
X108299000Y-86044000D01*
G75*
G02*
X108049000Y-85794000I0J250000D01*
G01*
X108049000Y-84894000D01*
G75*
G02*
X108299000Y-84644000I250000J0D01*
G01*
X108824000Y-84644000D01*
G75*
G02*
X109074000Y-84894000I0J-250000D01*
G01*
G37*
G04 #@! TD.AperFunction*
X80518000Y-74168000D03*
D13*
X94361000Y-90298000D03*
X94361000Y-93598000D03*
X83693000Y-90298000D03*
X83693000Y-93598000D03*
D14*
X156197000Y-107315000D03*
X156197000Y-104775000D03*
X156197000Y-102235000D03*
X156197000Y-99695000D03*
X156197000Y-97155000D03*
X156197000Y-94615000D03*
X156197000Y-92075000D03*
X156197000Y-89535000D03*
X147587000Y-89535000D03*
X147587000Y-92075000D03*
X147587000Y-94615000D03*
X147587000Y-97155000D03*
X147587000Y-99695000D03*
X147587000Y-102235000D03*
X147587000Y-104775000D03*
X147587000Y-107315000D03*
G04 #@! TA.AperFunction,SMDPad,CuDef*
G36*
G01*
X117168000Y-104869000D02*
X117168000Y-103919000D01*
G75*
G02*
X117418000Y-103669000I250000J0D01*
G01*
X117918000Y-103669000D01*
G75*
G02*
X118168000Y-103919000I0J-250000D01*
G01*
X118168000Y-104869000D01*
G75*
G02*
X117918000Y-105119000I-250000J0D01*
G01*
X117418000Y-105119000D01*
G75*
G02*
X117168000Y-104869000I0J250000D01*
G01*
G37*
G04 #@! TD.AperFunction*
G04 #@! TA.AperFunction,SMDPad,CuDef*
G36*
G01*
X119068000Y-104869000D02*
X119068000Y-103919000D01*
G75*
G02*
X119318000Y-103669000I250000J0D01*
G01*
X119818000Y-103669000D01*
G75*
G02*
X120068000Y-103919000I0J-250000D01*
G01*
X120068000Y-104869000D01*
G75*
G02*
X119818000Y-105119000I-250000J0D01*
G01*
X119318000Y-105119000D01*
G75*
G02*
X119068000Y-104869000I0J250000D01*
G01*
G37*
G04 #@! TD.AperFunction*
G04 #@! TA.AperFunction,SMDPad,CuDef*
G36*
G01*
X84633750Y-110970000D02*
X85546250Y-110970000D01*
G75*
G02*
X85790000Y-111213750I0J-243750D01*
G01*
X85790000Y-111701250D01*
G75*
G02*
X85546250Y-111945000I-243750J0D01*
G01*
X84633750Y-111945000D01*
G75*
G02*
X84390000Y-111701250I0J243750D01*
G01*
X84390000Y-111213750D01*
G75*
G02*
X84633750Y-110970000I243750J0D01*
G01*
G37*
G04 #@! TD.AperFunction*
G04 #@! TA.AperFunction,SMDPad,CuDef*
G36*
G01*
X84633750Y-112845000D02*
X85546250Y-112845000D01*
G75*
G02*
X85790000Y-113088750I0J-243750D01*
G01*
X85790000Y-113576250D01*
G75*
G02*
X85546250Y-113820000I-243750J0D01*
G01*
X84633750Y-113820000D01*
G75*
G02*
X84390000Y-113576250I0J243750D01*
G01*
X84390000Y-113088750D01*
G75*
G02*
X84633750Y-112845000I243750J0D01*
G01*
G37*
G04 #@! TD.AperFunction*
G04 #@! TA.AperFunction,SMDPad,CuDef*
G36*
G01*
X102771000Y-84894000D02*
X102771000Y-85794000D01*
G75*
G02*
X102521000Y-86044000I-250000J0D01*
G01*
X101996000Y-86044000D01*
G75*
G02*
X101746000Y-85794000I0J250000D01*
G01*
X101746000Y-84894000D01*
G75*
G02*
X101996000Y-84644000I250000J0D01*
G01*
X102521000Y-84644000D01*
G75*
G02*
X102771000Y-84894000I0J-250000D01*
G01*
G37*
G04 #@! TD.AperFunction*
G04 #@! TA.AperFunction,SMDPad,CuDef*
G36*
G01*
X100946000Y-84894000D02*
X100946000Y-85794000D01*
G75*
G02*
X100696000Y-86044000I-250000J0D01*
G01*
X100171000Y-86044000D01*
G75*
G02*
X99921000Y-85794000I0J250000D01*
G01*
X99921000Y-84894000D01*
G75*
G02*
X100171000Y-84644000I250000J0D01*
G01*
X100696000Y-84644000D01*
G75*
G02*
X100946000Y-84894000I0J-250000D01*
G01*
G37*
G04 #@! TD.AperFunction*
D15*
X103124000Y-96897000D03*
X104394000Y-96897000D03*
X103124000Y-98167000D03*
X104394000Y-98167000D03*
X103124000Y-99437000D03*
X104394000Y-99437000D03*
G04 #@! TA.AperFunction,SMDPad,CuDef*
G36*
G01*
X140617000Y-108389000D02*
X140617000Y-109289000D01*
G75*
G02*
X140367000Y-109539000I-250000J0D01*
G01*
X139842000Y-109539000D01*
G75*
G02*
X139592000Y-109289000I0J250000D01*
G01*
X139592000Y-108389000D01*
G75*
G02*
X139842000Y-108139000I250000J0D01*
G01*
X140367000Y-108139000D01*
G75*
G02*
X140617000Y-108389000I0J-250000D01*
G01*
G37*
G04 #@! TD.AperFunction*
G04 #@! TA.AperFunction,SMDPad,CuDef*
G36*
G01*
X138792000Y-108389000D02*
X138792000Y-109289000D01*
G75*
G02*
X138542000Y-109539000I-250000J0D01*
G01*
X138017000Y-109539000D01*
G75*
G02*
X137767000Y-109289000I0J250000D01*
G01*
X137767000Y-108389000D01*
G75*
G02*
X138017000Y-108139000I250000J0D01*
G01*
X138542000Y-108139000D01*
G75*
G02*
X138792000Y-108389000I0J-250000D01*
G01*
G37*
G04 #@! TD.AperFunction*
D16*
X80899000Y-99822000D03*
D17*
X80899000Y-104822000D03*
G04 #@! TA.AperFunction,SMDPad,CuDef*
G36*
G01*
X140617000Y-96959000D02*
X140617000Y-97859000D01*
G75*
G02*
X140367000Y-98109000I-250000J0D01*
G01*
X139842000Y-98109000D01*
G75*
G02*
X139592000Y-97859000I0J250000D01*
G01*
X139592000Y-96959000D01*
G75*
G02*
X139842000Y-96709000I250000J0D01*
G01*
X140367000Y-96709000D01*
G75*
G02*
X140617000Y-96959000I0J-250000D01*
G01*
G37*
G04 #@! TD.AperFunction*
G04 #@! TA.AperFunction,SMDPad,CuDef*
G36*
G01*
X138792000Y-96959000D02*
X138792000Y-97859000D01*
G75*
G02*
X138542000Y-98109000I-250000J0D01*
G01*
X138017000Y-98109000D01*
G75*
G02*
X137767000Y-97859000I0J250000D01*
G01*
X137767000Y-96959000D01*
G75*
G02*
X138017000Y-96709000I250000J0D01*
G01*
X138542000Y-96709000D01*
G75*
G02*
X138792000Y-96959000I0J-250000D01*
G01*
G37*
G04 #@! TD.AperFunction*
G04 #@! TA.AperFunction,SMDPad,CuDef*
G36*
G01*
X131346000Y-104579000D02*
X131346000Y-105479000D01*
G75*
G02*
X131096000Y-105729000I-250000J0D01*
G01*
X130571000Y-105729000D01*
G75*
G02*
X130321000Y-105479000I0J250000D01*
G01*
X130321000Y-104579000D01*
G75*
G02*
X130571000Y-104329000I250000J0D01*
G01*
X131096000Y-104329000D01*
G75*
G02*
X131346000Y-104579000I0J-250000D01*
G01*
G37*
G04 #@! TD.AperFunction*
G04 #@! TA.AperFunction,SMDPad,CuDef*
G36*
G01*
X129521000Y-104579000D02*
X129521000Y-105479000D01*
G75*
G02*
X129271000Y-105729000I-250000J0D01*
G01*
X128746000Y-105729000D01*
G75*
G02*
X128496000Y-105479000I0J250000D01*
G01*
X128496000Y-104579000D01*
G75*
G02*
X128746000Y-104329000I250000J0D01*
G01*
X129271000Y-104329000D01*
G75*
G02*
X129521000Y-104579000I0J-250000D01*
G01*
G37*
G04 #@! TD.AperFunction*
G04 #@! TA.AperFunction,SMDPad,CuDef*
G36*
G01*
X114086000Y-89558000D02*
X114086000Y-89258000D01*
G75*
G02*
X114236000Y-89108000I150000J0D01*
G01*
X115986000Y-89108000D01*
G75*
G02*
X116136000Y-89258000I0J-150000D01*
G01*
X116136000Y-89558000D01*
G75*
G02*
X115986000Y-89708000I-150000J0D01*
G01*
X114236000Y-89708000D01*
G75*
G02*
X114086000Y-89558000I0J150000D01*
G01*
G37*
G04 #@! TD.AperFunction*
G04 #@! TA.AperFunction,SMDPad,CuDef*
G36*
G01*
X114086000Y-90828000D02*
X114086000Y-90528000D01*
G75*
G02*
X114236000Y-90378000I150000J0D01*
G01*
X115986000Y-90378000D01*
G75*
G02*
X116136000Y-90528000I0J-150000D01*
G01*
X116136000Y-90828000D01*
G75*
G02*
X115986000Y-90978000I-150000J0D01*
G01*
X114236000Y-90978000D01*
G75*
G02*
X114086000Y-90828000I0J150000D01*
G01*
G37*
G04 #@! TD.AperFunction*
G04 #@! TA.AperFunction,SMDPad,CuDef*
G36*
G01*
X114086000Y-92098000D02*
X114086000Y-91798000D01*
G75*
G02*
X114236000Y-91648000I150000J0D01*
G01*
X115986000Y-91648000D01*
G75*
G02*
X116136000Y-91798000I0J-150000D01*
G01*
X116136000Y-92098000D01*
G75*
G02*
X115986000Y-92248000I-150000J0D01*
G01*
X114236000Y-92248000D01*
G75*
G02*
X114086000Y-92098000I0J150000D01*
G01*
G37*
G04 #@! TD.AperFunction*
G04 #@! TA.AperFunction,SMDPad,CuDef*
G36*
G01*
X114086000Y-93368000D02*
X114086000Y-93068000D01*
G75*
G02*
X114236000Y-92918000I150000J0D01*
G01*
X115986000Y-92918000D01*
G75*
G02*
X116136000Y-93068000I0J-150000D01*
G01*
X116136000Y-93368000D01*
G75*
G02*
X115986000Y-93518000I-150000J0D01*
G01*
X114236000Y-93518000D01*
G75*
G02*
X114086000Y-93368000I0J150000D01*
G01*
G37*
G04 #@! TD.AperFunction*
G04 #@! TA.AperFunction,SMDPad,CuDef*
G36*
G01*
X114086000Y-94638000D02*
X114086000Y-94338000D01*
G75*
G02*
X114236000Y-94188000I150000J0D01*
G01*
X115986000Y-94188000D01*
G75*
G02*
X116136000Y-94338000I0J-150000D01*
G01*
X116136000Y-94638000D01*
G75*
G02*
X115986000Y-94788000I-150000J0D01*
G01*
X114236000Y-94788000D01*
G75*
G02*
X114086000Y-94638000I0J150000D01*
G01*
G37*
G04 #@! TD.AperFunction*
G04 #@! TA.AperFunction,SMDPad,CuDef*
G36*
G01*
X114086000Y-95908000D02*
X114086000Y-95608000D01*
G75*
G02*
X114236000Y-95458000I150000J0D01*
G01*
X115986000Y-95458000D01*
G75*
G02*
X116136000Y-95608000I0J-150000D01*
G01*
X116136000Y-95908000D01*
G75*
G02*
X115986000Y-96058000I-150000J0D01*
G01*
X114236000Y-96058000D01*
G75*
G02*
X114086000Y-95908000I0J150000D01*
G01*
G37*
G04 #@! TD.AperFunction*
G04 #@! TA.AperFunction,SMDPad,CuDef*
G36*
G01*
X114086000Y-97178000D02*
X114086000Y-96878000D01*
G75*
G02*
X114236000Y-96728000I150000J0D01*
G01*
X115986000Y-96728000D01*
G75*
G02*
X116136000Y-96878000I0J-150000D01*
G01*
X116136000Y-97178000D01*
G75*
G02*
X115986000Y-97328000I-150000J0D01*
G01*
X114236000Y-97328000D01*
G75*
G02*
X114086000Y-97178000I0J150000D01*
G01*
G37*
G04 #@! TD.AperFunction*
G04 #@! TA.AperFunction,SMDPad,CuDef*
G36*
G01*
X114086000Y-98448000D02*
X114086000Y-98148000D01*
G75*
G02*
X114236000Y-97998000I150000J0D01*
G01*
X115986000Y-97998000D01*
G75*
G02*
X116136000Y-98148000I0J-150000D01*
G01*
X116136000Y-98448000D01*
G75*
G02*
X115986000Y-98598000I-150000J0D01*
G01*
X114236000Y-98598000D01*
G75*
G02*
X114086000Y-98448000I0J150000D01*
G01*
G37*
G04 #@! TD.AperFunction*
G04 #@! TA.AperFunction,SMDPad,CuDef*
G36*
G01*
X114086000Y-99718000D02*
X114086000Y-99418000D01*
G75*
G02*
X114236000Y-99268000I150000J0D01*
G01*
X115986000Y-99268000D01*
G75*
G02*
X116136000Y-99418000I0J-150000D01*
G01*
X116136000Y-99718000D01*
G75*
G02*
X115986000Y-99868000I-150000J0D01*
G01*
X114236000Y-99868000D01*
G75*
G02*
X114086000Y-99718000I0J150000D01*
G01*
G37*
G04 #@! TD.AperFunction*
G04 #@! TA.AperFunction,SMDPad,CuDef*
G36*
G01*
X114086000Y-100988000D02*
X114086000Y-100688000D01*
G75*
G02*
X114236000Y-100538000I150000J0D01*
G01*
X115986000Y-100538000D01*
G75*
G02*
X116136000Y-100688000I0J-150000D01*
G01*
X116136000Y-100988000D01*
G75*
G02*
X115986000Y-101138000I-150000J0D01*
G01*
X114236000Y-101138000D01*
G75*
G02*
X114086000Y-100988000I0J150000D01*
G01*
G37*
G04 #@! TD.AperFunction*
G04 #@! TA.AperFunction,SMDPad,CuDef*
G36*
G01*
X123386000Y-100988000D02*
X123386000Y-100688000D01*
G75*
G02*
X123536000Y-100538000I150000J0D01*
G01*
X125286000Y-100538000D01*
G75*
G02*
X125436000Y-100688000I0J-150000D01*
G01*
X125436000Y-100988000D01*
G75*
G02*
X125286000Y-101138000I-150000J0D01*
G01*
X123536000Y-101138000D01*
G75*
G02*
X123386000Y-100988000I0J150000D01*
G01*
G37*
G04 #@! TD.AperFunction*
G04 #@! TA.AperFunction,SMDPad,CuDef*
G36*
G01*
X123386000Y-99718000D02*
X123386000Y-99418000D01*
G75*
G02*
X123536000Y-99268000I150000J0D01*
G01*
X125286000Y-99268000D01*
G75*
G02*
X125436000Y-99418000I0J-150000D01*
G01*
X125436000Y-99718000D01*
G75*
G02*
X125286000Y-99868000I-150000J0D01*
G01*
X123536000Y-99868000D01*
G75*
G02*
X123386000Y-99718000I0J150000D01*
G01*
G37*
G04 #@! TD.AperFunction*
G04 #@! TA.AperFunction,SMDPad,CuDef*
G36*
G01*
X123386000Y-98448000D02*
X123386000Y-98148000D01*
G75*
G02*
X123536000Y-97998000I150000J0D01*
G01*
X125286000Y-97998000D01*
G75*
G02*
X125436000Y-98148000I0J-150000D01*
G01*
X125436000Y-98448000D01*
G75*
G02*
X125286000Y-98598000I-150000J0D01*
G01*
X123536000Y-98598000D01*
G75*
G02*
X123386000Y-98448000I0J150000D01*
G01*
G37*
G04 #@! TD.AperFunction*
G04 #@! TA.AperFunction,SMDPad,CuDef*
G36*
G01*
X123386000Y-97178000D02*
X123386000Y-96878000D01*
G75*
G02*
X123536000Y-96728000I150000J0D01*
G01*
X125286000Y-96728000D01*
G75*
G02*
X125436000Y-96878000I0J-150000D01*
G01*
X125436000Y-97178000D01*
G75*
G02*
X125286000Y-97328000I-150000J0D01*
G01*
X123536000Y-97328000D01*
G75*
G02*
X123386000Y-97178000I0J150000D01*
G01*
G37*
G04 #@! TD.AperFunction*
G04 #@! TA.AperFunction,SMDPad,CuDef*
G36*
G01*
X123386000Y-95908000D02*
X123386000Y-95608000D01*
G75*
G02*
X123536000Y-95458000I150000J0D01*
G01*
X125286000Y-95458000D01*
G75*
G02*
X125436000Y-95608000I0J-150000D01*
G01*
X125436000Y-95908000D01*
G75*
G02*
X125286000Y-96058000I-150000J0D01*
G01*
X123536000Y-96058000D01*
G75*
G02*
X123386000Y-95908000I0J150000D01*
G01*
G37*
G04 #@! TD.AperFunction*
G04 #@! TA.AperFunction,SMDPad,CuDef*
G36*
G01*
X123386000Y-94638000D02*
X123386000Y-94338000D01*
G75*
G02*
X123536000Y-94188000I150000J0D01*
G01*
X125286000Y-94188000D01*
G75*
G02*
X125436000Y-94338000I0J-150000D01*
G01*
X125436000Y-94638000D01*
G75*
G02*
X125286000Y-94788000I-150000J0D01*
G01*
X123536000Y-94788000D01*
G75*
G02*
X123386000Y-94638000I0J150000D01*
G01*
G37*
G04 #@! TD.AperFunction*
G04 #@! TA.AperFunction,SMDPad,CuDef*
G36*
G01*
X123386000Y-93368000D02*
X123386000Y-93068000D01*
G75*
G02*
X123536000Y-92918000I150000J0D01*
G01*
X125286000Y-92918000D01*
G75*
G02*
X125436000Y-93068000I0J-150000D01*
G01*
X125436000Y-93368000D01*
G75*
G02*
X125286000Y-93518000I-150000J0D01*
G01*
X123536000Y-93518000D01*
G75*
G02*
X123386000Y-93368000I0J150000D01*
G01*
G37*
G04 #@! TD.AperFunction*
G04 #@! TA.AperFunction,SMDPad,CuDef*
G36*
G01*
X123386000Y-92098000D02*
X123386000Y-91798000D01*
G75*
G02*
X123536000Y-91648000I150000J0D01*
G01*
X125286000Y-91648000D01*
G75*
G02*
X125436000Y-91798000I0J-150000D01*
G01*
X125436000Y-92098000D01*
G75*
G02*
X125286000Y-92248000I-150000J0D01*
G01*
X123536000Y-92248000D01*
G75*
G02*
X123386000Y-92098000I0J150000D01*
G01*
G37*
G04 #@! TD.AperFunction*
G04 #@! TA.AperFunction,SMDPad,CuDef*
G36*
G01*
X123386000Y-90828000D02*
X123386000Y-90528000D01*
G75*
G02*
X123536000Y-90378000I150000J0D01*
G01*
X125286000Y-90378000D01*
G75*
G02*
X125436000Y-90528000I0J-150000D01*
G01*
X125436000Y-90828000D01*
G75*
G02*
X125286000Y-90978000I-150000J0D01*
G01*
X123536000Y-90978000D01*
G75*
G02*
X123386000Y-90828000I0J150000D01*
G01*
G37*
G04 #@! TD.AperFunction*
G04 #@! TA.AperFunction,SMDPad,CuDef*
G36*
G01*
X123386000Y-89558000D02*
X123386000Y-89258000D01*
G75*
G02*
X123536000Y-89108000I150000J0D01*
G01*
X125286000Y-89108000D01*
G75*
G02*
X125436000Y-89258000I0J-150000D01*
G01*
X125436000Y-89558000D01*
G75*
G02*
X125286000Y-89708000I-150000J0D01*
G01*
X123536000Y-89708000D01*
G75*
G02*
X123386000Y-89558000I0J150000D01*
G01*
G37*
G04 #@! TD.AperFunction*
G04 #@! TA.AperFunction,SMDPad,CuDef*
G36*
G01*
X111666000Y-93673000D02*
X112616000Y-93673000D01*
G75*
G02*
X112866000Y-93923000I0J-250000D01*
G01*
X112866000Y-94423000D01*
G75*
G02*
X112616000Y-94673000I-250000J0D01*
G01*
X111666000Y-94673000D01*
G75*
G02*
X111416000Y-94423000I0J250000D01*
G01*
X111416000Y-93923000D01*
G75*
G02*
X111666000Y-93673000I250000J0D01*
G01*
G37*
G04 #@! TD.AperFunction*
G04 #@! TA.AperFunction,SMDPad,CuDef*
G36*
G01*
X111666000Y-95573000D02*
X112616000Y-95573000D01*
G75*
G02*
X112866000Y-95823000I0J-250000D01*
G01*
X112866000Y-96323000D01*
G75*
G02*
X112616000Y-96573000I-250000J0D01*
G01*
X111666000Y-96573000D01*
G75*
G02*
X111416000Y-96323000I0J250000D01*
G01*
X111416000Y-95823000D01*
G75*
G02*
X111666000Y-95573000I250000J0D01*
G01*
G37*
G04 #@! TD.AperFunction*
D13*
X90805000Y-93598000D03*
X90805000Y-90298000D03*
D10*
X136723000Y-77724000D03*
D11*
X133223000Y-77724000D03*
X129723000Y-77724000D03*
G04 #@! TA.AperFunction,SMDPad,CuDef*
G36*
G01*
X87561000Y-110970000D02*
X88461000Y-110970000D01*
G75*
G02*
X88711000Y-111220000I0J-250000D01*
G01*
X88711000Y-111745000D01*
G75*
G02*
X88461000Y-111995000I-250000J0D01*
G01*
X87561000Y-111995000D01*
G75*
G02*
X87311000Y-111745000I0J250000D01*
G01*
X87311000Y-111220000D01*
G75*
G02*
X87561000Y-110970000I250000J0D01*
G01*
G37*
G04 #@! TD.AperFunction*
G04 #@! TA.AperFunction,SMDPad,CuDef*
G36*
G01*
X87561000Y-112795000D02*
X88461000Y-112795000D01*
G75*
G02*
X88711000Y-113045000I0J-250000D01*
G01*
X88711000Y-113570000D01*
G75*
G02*
X88461000Y-113820000I-250000J0D01*
G01*
X87561000Y-113820000D01*
G75*
G02*
X87311000Y-113570000I0J250000D01*
G01*
X87311000Y-113045000D01*
G75*
G02*
X87561000Y-112795000I250000J0D01*
G01*
G37*
G04 #@! TD.AperFunction*
G04 #@! TA.AperFunction,SMDPad,CuDef*
G36*
G01*
X140617000Y-110929000D02*
X140617000Y-111829000D01*
G75*
G02*
X140367000Y-112079000I-250000J0D01*
G01*
X139842000Y-112079000D01*
G75*
G02*
X139592000Y-111829000I0J250000D01*
G01*
X139592000Y-110929000D01*
G75*
G02*
X139842000Y-110679000I250000J0D01*
G01*
X140367000Y-110679000D01*
G75*
G02*
X140617000Y-110929000I0J-250000D01*
G01*
G37*
G04 #@! TD.AperFunction*
G04 #@! TA.AperFunction,SMDPad,CuDef*
G36*
G01*
X138792000Y-110929000D02*
X138792000Y-111829000D01*
G75*
G02*
X138542000Y-112079000I-250000J0D01*
G01*
X138017000Y-112079000D01*
G75*
G02*
X137767000Y-111829000I0J250000D01*
G01*
X137767000Y-110929000D01*
G75*
G02*
X138017000Y-110679000I250000J0D01*
G01*
X138542000Y-110679000D01*
G75*
G02*
X138792000Y-110929000I0J-250000D01*
G01*
G37*
G04 #@! TD.AperFunction*
D10*
X102799000Y-119126000D03*
D11*
X106299000Y-119126000D03*
X109799000Y-119126000D03*
G04 #@! TA.AperFunction,SMDPad,CuDef*
G36*
G01*
X117168000Y-108044000D02*
X117168000Y-107094000D01*
G75*
G02*
X117418000Y-106844000I250000J0D01*
G01*
X117918000Y-106844000D01*
G75*
G02*
X118168000Y-107094000I0J-250000D01*
G01*
X118168000Y-108044000D01*
G75*
G02*
X117918000Y-108294000I-250000J0D01*
G01*
X117418000Y-108294000D01*
G75*
G02*
X117168000Y-108044000I0J250000D01*
G01*
G37*
G04 #@! TD.AperFunction*
G04 #@! TA.AperFunction,SMDPad,CuDef*
G36*
G01*
X119068000Y-108044000D02*
X119068000Y-107094000D01*
G75*
G02*
X119318000Y-106844000I250000J0D01*
G01*
X119818000Y-106844000D01*
G75*
G02*
X120068000Y-107094000I0J-250000D01*
G01*
X120068000Y-108044000D01*
G75*
G02*
X119818000Y-108294000I-250000J0D01*
G01*
X119318000Y-108294000D01*
G75*
G02*
X119068000Y-108044000I0J250000D01*
G01*
G37*
G04 #@! TD.AperFunction*
G04 #@! TA.AperFunction,SMDPad,CuDef*
G36*
G01*
X115344000Y-110294000D02*
X115344000Y-111194000D01*
G75*
G02*
X115094000Y-111444000I-250000J0D01*
G01*
X114569000Y-111444000D01*
G75*
G02*
X114319000Y-111194000I0J250000D01*
G01*
X114319000Y-110294000D01*
G75*
G02*
X114569000Y-110044000I250000J0D01*
G01*
X115094000Y-110044000D01*
G75*
G02*
X115344000Y-110294000I0J-250000D01*
G01*
G37*
G04 #@! TD.AperFunction*
G04 #@! TA.AperFunction,SMDPad,CuDef*
G36*
G01*
X113519000Y-110294000D02*
X113519000Y-111194000D01*
G75*
G02*
X113269000Y-111444000I-250000J0D01*
G01*
X112744000Y-111444000D01*
G75*
G02*
X112494000Y-111194000I0J250000D01*
G01*
X112494000Y-110294000D01*
G75*
G02*
X112744000Y-110044000I250000J0D01*
G01*
X113269000Y-110044000D01*
G75*
G02*
X113519000Y-110294000I0J-250000D01*
G01*
G37*
G04 #@! TD.AperFunction*
G04 #@! TA.AperFunction,SMDPad,CuDef*
G36*
G01*
X127613000Y-122323000D02*
X127613000Y-121073000D01*
G75*
G02*
X127763000Y-120923000I150000J0D01*
G01*
X128063000Y-120923000D01*
G75*
G02*
X128213000Y-121073000I0J-150000D01*
G01*
X128213000Y-122323000D01*
G75*
G02*
X128063000Y-122473000I-150000J0D01*
G01*
X127763000Y-122473000D01*
G75*
G02*
X127613000Y-122323000I0J150000D01*
G01*
G37*
G04 #@! TD.AperFunction*
G04 #@! TA.AperFunction,SMDPad,CuDef*
G36*
G01*
X128613000Y-122323000D02*
X128613000Y-121073000D01*
G75*
G02*
X128763000Y-120923000I150000J0D01*
G01*
X129063000Y-120923000D01*
G75*
G02*
X129213000Y-121073000I0J-150000D01*
G01*
X129213000Y-122323000D01*
G75*
G02*
X129063000Y-122473000I-150000J0D01*
G01*
X128763000Y-122473000D01*
G75*
G02*
X128613000Y-122323000I0J150000D01*
G01*
G37*
G04 #@! TD.AperFunction*
G04 #@! TA.AperFunction,SMDPad,CuDef*
G36*
G01*
X129613000Y-122323000D02*
X129613000Y-121073000D01*
G75*
G02*
X129763000Y-120923000I150000J0D01*
G01*
X130063000Y-120923000D01*
G75*
G02*
X130213000Y-121073000I0J-150000D01*
G01*
X130213000Y-122323000D01*
G75*
G02*
X130063000Y-122473000I-150000J0D01*
G01*
X129763000Y-122473000D01*
G75*
G02*
X129613000Y-122323000I0J150000D01*
G01*
G37*
G04 #@! TD.AperFunction*
G04 #@! TA.AperFunction,SMDPad,CuDef*
G36*
G01*
X130613000Y-122323000D02*
X130613000Y-121073000D01*
G75*
G02*
X130763000Y-120923000I150000J0D01*
G01*
X131063000Y-120923000D01*
G75*
G02*
X131213000Y-121073000I0J-150000D01*
G01*
X131213000Y-122323000D01*
G75*
G02*
X131063000Y-122473000I-150000J0D01*
G01*
X130763000Y-122473000D01*
G75*
G02*
X130613000Y-122323000I0J150000D01*
G01*
G37*
G04 #@! TD.AperFunction*
G04 #@! TA.AperFunction,SMDPad,CuDef*
G36*
G01*
X131613000Y-126223000D02*
X131613000Y-124923000D01*
G75*
G02*
X131863000Y-124673000I250000J0D01*
G01*
X132563000Y-124673000D01*
G75*
G02*
X132813000Y-124923000I0J-250000D01*
G01*
X132813000Y-126223000D01*
G75*
G02*
X132563000Y-126473000I-250000J0D01*
G01*
X131863000Y-126473000D01*
G75*
G02*
X131613000Y-126223000I0J250000D01*
G01*
G37*
G04 #@! TD.AperFunction*
G04 #@! TA.AperFunction,SMDPad,CuDef*
G36*
G01*
X126013000Y-126223000D02*
X126013000Y-124923000D01*
G75*
G02*
X126263000Y-124673000I250000J0D01*
G01*
X126963000Y-124673000D01*
G75*
G02*
X127213000Y-124923000I0J-250000D01*
G01*
X127213000Y-126223000D01*
G75*
G02*
X126963000Y-126473000I-250000J0D01*
G01*
X126263000Y-126473000D01*
G75*
G02*
X126013000Y-126223000I0J250000D01*
G01*
G37*
G04 #@! TD.AperFunction*
D18*
X150836000Y-72809100D03*
X148336000Y-72809100D03*
X145836000Y-72809100D03*
X150836000Y-78320900D03*
X148336000Y-78320900D03*
X145836000Y-78320900D03*
D19*
X94233000Y-112752000D03*
G04 #@! TA.AperFunction,SMDPad,CuDef*
G36*
X90283000Y-110327000D02*
G01*
X92883000Y-110327000D01*
X93408000Y-110852000D01*
X94883000Y-110852000D01*
X94883000Y-111652000D01*
X93408000Y-111652000D01*
X92883000Y-112177000D01*
X90283000Y-112177000D01*
X90283000Y-110327000D01*
G37*
G04 #@! TD.AperFunction*
X94233000Y-109752000D03*
D20*
X167169000Y-114376000D03*
X167169000Y-111176000D03*
X162269000Y-111176000D03*
X162269000Y-114376000D03*
G04 #@! TA.AperFunction,SMDPad,CuDef*
G36*
G01*
X140617000Y-105849000D02*
X140617000Y-106749000D01*
G75*
G02*
X140367000Y-106999000I-250000J0D01*
G01*
X139842000Y-106999000D01*
G75*
G02*
X139592000Y-106749000I0J250000D01*
G01*
X139592000Y-105849000D01*
G75*
G02*
X139842000Y-105599000I250000J0D01*
G01*
X140367000Y-105599000D01*
G75*
G02*
X140617000Y-105849000I0J-250000D01*
G01*
G37*
G04 #@! TD.AperFunction*
G04 #@! TA.AperFunction,SMDPad,CuDef*
G36*
G01*
X138792000Y-105849000D02*
X138792000Y-106749000D01*
G75*
G02*
X138542000Y-106999000I-250000J0D01*
G01*
X138017000Y-106999000D01*
G75*
G02*
X137767000Y-106749000I0J250000D01*
G01*
X137767000Y-105849000D01*
G75*
G02*
X138017000Y-105599000I250000J0D01*
G01*
X138542000Y-105599000D01*
G75*
G02*
X138792000Y-105849000I0J-250000D01*
G01*
G37*
G04 #@! TD.AperFunction*
G04 #@! TA.AperFunction,SMDPad,CuDef*
G36*
G01*
X108066000Y-74825000D02*
X108066000Y-76025000D01*
G75*
G02*
X107866000Y-76225000I-200000J0D01*
G01*
X107466000Y-76225000D01*
G75*
G02*
X107266000Y-76025000I0J200000D01*
G01*
X107266000Y-74825000D01*
G75*
G02*
X107466000Y-74625000I200000J0D01*
G01*
X107866000Y-74625000D01*
G75*
G02*
X108066000Y-74825000I0J-200000D01*
G01*
G37*
G04 #@! TD.AperFunction*
G04 #@! TA.AperFunction,SMDPad,CuDef*
G36*
G01*
X106816000Y-74825000D02*
X106816000Y-76025000D01*
G75*
G02*
X106616000Y-76225000I-200000J0D01*
G01*
X106216000Y-76225000D01*
G75*
G02*
X106016000Y-76025000I0J200000D01*
G01*
X106016000Y-74825000D01*
G75*
G02*
X106216000Y-74625000I200000J0D01*
G01*
X106616000Y-74625000D01*
G75*
G02*
X106816000Y-74825000I0J-200000D01*
G01*
G37*
G04 #@! TD.AperFunction*
G04 #@! TA.AperFunction,SMDPad,CuDef*
G36*
G01*
X105566000Y-74825000D02*
X105566000Y-76025000D01*
G75*
G02*
X105366000Y-76225000I-200000J0D01*
G01*
X104966000Y-76225000D01*
G75*
G02*
X104766000Y-76025000I0J200000D01*
G01*
X104766000Y-74825000D01*
G75*
G02*
X104966000Y-74625000I200000J0D01*
G01*
X105366000Y-74625000D01*
G75*
G02*
X105566000Y-74825000I0J-200000D01*
G01*
G37*
G04 #@! TD.AperFunction*
G04 #@! TA.AperFunction,SMDPad,CuDef*
G36*
G01*
X104316000Y-74825000D02*
X104316000Y-76025000D01*
G75*
G02*
X104116000Y-76225000I-200000J0D01*
G01*
X103716000Y-76225000D01*
G75*
G02*
X103516000Y-76025000I0J200000D01*
G01*
X103516000Y-74825000D01*
G75*
G02*
X103716000Y-74625000I200000J0D01*
G01*
X104116000Y-74625000D01*
G75*
G02*
X104316000Y-74825000I0J-200000D01*
G01*
G37*
G04 #@! TD.AperFunction*
G04 #@! TA.AperFunction,SMDPad,CuDef*
G36*
G01*
X102416000Y-71275001D02*
X102416000Y-73774999D01*
G75*
G02*
X102165999Y-74025000I-250001J0D01*
G01*
X100566001Y-74025000D01*
G75*
G02*
X100316000Y-73774999I0J250001D01*
G01*
X100316000Y-71275001D01*
G75*
G02*
X100566001Y-71025000I250001J0D01*
G01*
X102165999Y-71025000D01*
G75*
G02*
X102416000Y-71275001I0J-250001D01*
G01*
G37*
G04 #@! TD.AperFunction*
G04 #@! TA.AperFunction,SMDPad,CuDef*
G36*
G01*
X111266000Y-71275001D02*
X111266000Y-73774999D01*
G75*
G02*
X111015999Y-74025000I-250001J0D01*
G01*
X109416001Y-74025000D01*
G75*
G02*
X109166000Y-73774999I0J250001D01*
G01*
X109166000Y-71275001D01*
G75*
G02*
X109416001Y-71025000I250001J0D01*
G01*
X111015999Y-71025000D01*
G75*
G02*
X111266000Y-71275001I0J-250001D01*
G01*
G37*
G04 #@! TD.AperFunction*
D11*
X89337000Y-119126000D03*
X92837000Y-119126000D03*
X96337000Y-119126000D03*
G04 #@! TA.AperFunction,SMDPad,CuDef*
G36*
G01*
X94096000Y-74825000D02*
X94096000Y-76025000D01*
G75*
G02*
X93896000Y-76225000I-200000J0D01*
G01*
X93496000Y-76225000D01*
G75*
G02*
X93296000Y-76025000I0J200000D01*
G01*
X93296000Y-74825000D01*
G75*
G02*
X93496000Y-74625000I200000J0D01*
G01*
X93896000Y-74625000D01*
G75*
G02*
X94096000Y-74825000I0J-200000D01*
G01*
G37*
G04 #@! TD.AperFunction*
G04 #@! TA.AperFunction,SMDPad,CuDef*
G36*
G01*
X92846000Y-74825000D02*
X92846000Y-76025000D01*
G75*
G02*
X92646000Y-76225000I-200000J0D01*
G01*
X92246000Y-76225000D01*
G75*
G02*
X92046000Y-76025000I0J200000D01*
G01*
X92046000Y-74825000D01*
G75*
G02*
X92246000Y-74625000I200000J0D01*
G01*
X92646000Y-74625000D01*
G75*
G02*
X92846000Y-74825000I0J-200000D01*
G01*
G37*
G04 #@! TD.AperFunction*
G04 #@! TA.AperFunction,SMDPad,CuDef*
G36*
G01*
X91596000Y-74825000D02*
X91596000Y-76025000D01*
G75*
G02*
X91396000Y-76225000I-200000J0D01*
G01*
X90996000Y-76225000D01*
G75*
G02*
X90796000Y-76025000I0J200000D01*
G01*
X90796000Y-74825000D01*
G75*
G02*
X90996000Y-74625000I200000J0D01*
G01*
X91396000Y-74625000D01*
G75*
G02*
X91596000Y-74825000I0J-200000D01*
G01*
G37*
G04 #@! TD.AperFunction*
G04 #@! TA.AperFunction,SMDPad,CuDef*
G36*
G01*
X90346000Y-74825000D02*
X90346000Y-76025000D01*
G75*
G02*
X90146000Y-76225000I-200000J0D01*
G01*
X89746000Y-76225000D01*
G75*
G02*
X89546000Y-76025000I0J200000D01*
G01*
X89546000Y-74825000D01*
G75*
G02*
X89746000Y-74625000I200000J0D01*
G01*
X90146000Y-74625000D01*
G75*
G02*
X90346000Y-74825000I0J-200000D01*
G01*
G37*
G04 #@! TD.AperFunction*
G04 #@! TA.AperFunction,SMDPad,CuDef*
G36*
G01*
X88446000Y-71275001D02*
X88446000Y-73774999D01*
G75*
G02*
X88195999Y-74025000I-250001J0D01*
G01*
X86596001Y-74025000D01*
G75*
G02*
X86346000Y-73774999I0J250001D01*
G01*
X86346000Y-71275001D01*
G75*
G02*
X86596001Y-71025000I250001J0D01*
G01*
X88195999Y-71025000D01*
G75*
G02*
X88446000Y-71275001I0J-250001D01*
G01*
G37*
G04 #@! TD.AperFunction*
G04 #@! TA.AperFunction,SMDPad,CuDef*
G36*
G01*
X97296000Y-71275001D02*
X97296000Y-73774999D01*
G75*
G02*
X97045999Y-74025000I-250001J0D01*
G01*
X95446001Y-74025000D01*
G75*
G02*
X95196000Y-73774999I0J250001D01*
G01*
X95196000Y-71275001D01*
G75*
G02*
X95446001Y-71025000I250001J0D01*
G01*
X97045999Y-71025000D01*
G75*
G02*
X97296000Y-71275001I0J-250001D01*
G01*
G37*
G04 #@! TD.AperFunction*
G04 #@! TA.AperFunction,SMDPad,CuDef*
G36*
G01*
X97630000Y-113464000D02*
X96680000Y-113464000D01*
G75*
G02*
X96430000Y-113214000I0J250000D01*
G01*
X96430000Y-112714000D01*
G75*
G02*
X96680000Y-112464000I250000J0D01*
G01*
X97630000Y-112464000D01*
G75*
G02*
X97880000Y-112714000I0J-250000D01*
G01*
X97880000Y-113214000D01*
G75*
G02*
X97630000Y-113464000I-250000J0D01*
G01*
G37*
G04 #@! TD.AperFunction*
G04 #@! TA.AperFunction,SMDPad,CuDef*
G36*
G01*
X97630000Y-111564000D02*
X96680000Y-111564000D01*
G75*
G02*
X96430000Y-111314000I0J250000D01*
G01*
X96430000Y-110814000D01*
G75*
G02*
X96680000Y-110564000I250000J0D01*
G01*
X97630000Y-110564000D01*
G75*
G02*
X97880000Y-110814000I0J-250000D01*
G01*
X97880000Y-111314000D01*
G75*
G02*
X97630000Y-111564000I-250000J0D01*
G01*
G37*
G04 #@! TD.AperFunction*
D21*
X95377000Y-100711000D03*
X156197000Y-93358000D03*
X103759000Y-101473000D03*
X156197000Y-95898000D03*
X91440000Y-99822000D03*
X144653000Y-72771000D03*
X86487000Y-110236000D03*
X126111000Y-121539000D03*
X89662000Y-108712000D03*
X137033000Y-121539000D03*
X90551000Y-100711000D03*
X94488000Y-100711000D03*
X89662000Y-109601000D03*
X94488000Y-101600000D03*
X156197000Y-90818000D03*
X137795000Y-121539000D03*
X95377000Y-101600000D03*
X115951000Y-121539000D03*
X90551000Y-98933000D03*
X91440000Y-98933000D03*
X160655000Y-112776000D03*
X137541000Y-107569000D03*
X116840000Y-95758000D03*
X138303000Y-98679000D03*
X144653000Y-72009000D03*
X89662000Y-110617000D03*
X91440000Y-100711000D03*
X144653000Y-79121000D03*
X95377000Y-98933000D03*
X92329000Y-109601000D03*
X144653000Y-77597000D03*
X90551000Y-109601000D03*
X90551000Y-108712000D03*
X90551000Y-99822000D03*
X137541000Y-98679000D03*
X95377000Y-99822000D03*
X138303000Y-107569000D03*
X90551000Y-101600000D03*
X94488000Y-99822000D03*
X160655000Y-112014000D03*
X92329000Y-108712000D03*
X126873000Y-121539000D03*
X144653000Y-78359000D03*
X120904000Y-105410000D03*
X117602000Y-95758000D03*
X94488000Y-98933000D03*
X122682000Y-94488000D03*
X91440000Y-109601000D03*
X121920000Y-94488000D03*
X120904000Y-108585000D03*
X115189000Y-121539000D03*
X120904000Y-111760000D03*
X91440000Y-108712000D03*
X144653000Y-73533000D03*
X89662000Y-111633000D03*
X91440000Y-101600000D03*
X150495000Y-125095000D03*
X153543000Y-125984000D03*
X155575000Y-125095000D03*
X152527000Y-125095000D03*
X90678000Y-114681000D03*
X149479000Y-125984000D03*
X86106000Y-115570000D03*
X151511000Y-125984000D03*
X90678000Y-115570000D03*
X155575000Y-125984000D03*
X96266000Y-115570000D03*
X152527000Y-125984000D03*
X148463000Y-125984000D03*
X154559000Y-125984000D03*
X151511000Y-125095000D03*
X147447000Y-125095000D03*
X89535000Y-115570000D03*
X86106000Y-114681000D03*
X154559000Y-125095000D03*
X87249000Y-114681000D03*
X93980000Y-115570000D03*
X156591000Y-125095000D03*
X148463000Y-125095000D03*
X84963000Y-114681000D03*
X95123000Y-115570000D03*
X93980000Y-114681000D03*
X92964000Y-114681000D03*
X97409000Y-115570000D03*
X96266000Y-114681000D03*
X91821000Y-114681000D03*
X87249000Y-115570000D03*
X92964000Y-115570000D03*
X156591000Y-125984000D03*
X147447000Y-125984000D03*
X95123000Y-114681000D03*
X149479000Y-125095000D03*
X89535000Y-114681000D03*
X91821000Y-115570000D03*
X97409000Y-114681000D03*
X153543000Y-125095000D03*
X88392000Y-114681000D03*
X84963000Y-115570000D03*
X150495000Y-125984000D03*
X88392000Y-115570000D03*
X110363000Y-102870000D03*
X108077000Y-102870000D03*
X103759000Y-106807000D03*
X124714000Y-102362000D03*
X124714000Y-103886000D03*
X162269000Y-112776000D03*
X115951000Y-120396000D03*
X126873000Y-120396000D03*
X137795000Y-120396000D03*
X102870000Y-92837000D03*
X106299000Y-86995000D03*
X104521000Y-91186000D03*
X102235000Y-92202000D03*
X102235000Y-86995000D03*
X103378000Y-91059000D03*
X124206000Y-73787000D03*
X135763000Y-73787000D03*
X137668000Y-73787000D03*
X122301000Y-73787000D03*
X136723000Y-73787000D03*
X123261000Y-73787000D03*
X108077000Y-92583000D03*
X108077000Y-94488000D03*
X110363000Y-86995000D03*
X94488000Y-82423000D03*
X108585000Y-86995000D03*
X108585000Y-82423000D03*
X95377000Y-81788000D03*
X104521000Y-86995000D03*
X104521000Y-81788000D03*
X107696000Y-80518000D03*
X100457000Y-81153000D03*
X105156000Y-81153000D03*
X100457000Y-86995000D03*
X96393000Y-86995000D03*
X106426000Y-80518000D03*
X96393000Y-81153000D03*
X98171000Y-86995000D03*
X132207000Y-88646000D03*
X132207000Y-91694000D03*
D22*
X94233000Y-108203000D02*
X92964000Y-106934000D01*
D23*
X117991000Y-121698000D02*
X117991000Y-123563000D01*
D24*
X87249000Y-93598000D02*
X89790000Y-93598000D01*
X92964000Y-104300000D02*
X88011000Y-104300000D01*
D22*
X94233000Y-109752000D02*
X94233000Y-108203000D01*
D24*
X89790000Y-93598000D02*
X90805000Y-93598000D01*
D23*
X128913000Y-121698000D02*
X128913000Y-123563000D01*
X139835000Y-121698000D02*
X139835000Y-123563000D01*
D22*
X92964000Y-106934000D02*
X92964000Y-104300000D01*
D23*
X120904000Y-108585000D02*
X120396000Y-108585000D01*
D25*
X115111000Y-95758000D02*
X113665000Y-95758000D01*
D23*
X156197000Y-97155000D02*
X156197000Y-95898000D01*
X126111000Y-121539000D02*
X127889000Y-121539000D01*
D25*
X125857000Y-94488000D02*
X126172000Y-94173000D01*
D23*
X120396000Y-105410000D02*
X119634000Y-104648000D01*
D25*
X122682000Y-94488000D02*
X121920000Y-94488000D01*
X113350000Y-96073000D02*
X112141000Y-96073000D01*
X113665000Y-95758000D02*
X113350000Y-96073000D01*
D23*
X160655000Y-111506000D02*
X160985000Y-111176000D01*
X137541000Y-98679000D02*
X138303000Y-98679000D01*
X120904000Y-111760000D02*
X120396000Y-111760000D01*
X156197000Y-95898000D02*
X156197000Y-93358000D01*
X115189000Y-121539000D02*
X116967000Y-121539000D01*
D25*
X124411000Y-94488000D02*
X122682000Y-94488000D01*
D23*
X137033000Y-121539000D02*
X138811000Y-121539000D01*
X156197000Y-90818000D02*
X156197000Y-89535000D01*
D25*
X124411000Y-94488000D02*
X125857000Y-94488000D01*
D23*
X120396000Y-108585000D02*
X119634000Y-107823000D01*
D24*
X83693000Y-93598000D02*
X85343000Y-91948000D01*
D23*
X120396000Y-111760000D02*
X119634000Y-110998000D01*
X120904000Y-105410000D02*
X120396000Y-105410000D01*
X86487000Y-110236000D02*
X85471000Y-111252000D01*
D24*
X94361000Y-96393000D02*
X94361000Y-93598000D01*
D23*
X138279500Y-97409000D02*
X138279500Y-99949000D01*
D24*
X92711000Y-91948000D02*
X94361000Y-93598000D01*
D25*
X116840000Y-95758000D02*
X117602000Y-95758000D01*
X126172000Y-94173000D02*
X127381000Y-94173000D01*
D26*
X103759000Y-101473000D02*
X103759000Y-100072000D01*
D23*
X137541000Y-107569000D02*
X138303000Y-107569000D01*
D26*
X103759000Y-100072000D02*
X104394000Y-99437000D01*
D23*
X156197000Y-93358000D02*
X156197000Y-90818000D01*
X160655000Y-112776000D02*
X160655000Y-111506000D01*
D24*
X85343000Y-91948000D02*
X92711000Y-91948000D01*
D25*
X115111000Y-95758000D02*
X116840000Y-95758000D01*
D23*
X160985000Y-111176000D02*
X162269000Y-111176000D01*
X138279500Y-106299000D02*
X138279500Y-108839000D01*
X102235000Y-108646000D02*
X97089000Y-108646000D01*
D26*
X104394000Y-96897000D02*
X104394000Y-96266000D01*
X109093000Y-93726000D02*
X110045500Y-94678500D01*
D25*
X124411000Y-95758000D02*
X125857000Y-95758000D01*
D23*
X121666000Y-100584000D02*
X121666000Y-95758000D01*
D24*
X107188000Y-110363000D02*
X102616000Y-114935000D01*
X110551000Y-94173000D02*
X112141000Y-94173000D01*
D26*
X104394000Y-96266000D02*
X104648000Y-96012000D01*
D24*
X102616000Y-114935000D02*
X96774000Y-114935000D01*
X110045500Y-94678500D02*
X109220000Y-95504000D01*
D25*
X124411000Y-95758000D02*
X122301000Y-95758000D01*
D23*
X105433500Y-108608500D02*
X107188000Y-110363000D01*
D25*
X126172000Y-96073000D02*
X127381000Y-96073000D01*
D24*
X109220000Y-108331000D02*
X107188000Y-110363000D01*
D23*
X124206000Y-103124000D02*
X121666000Y-100584000D01*
D24*
X109220000Y-95504000D02*
X109220000Y-108331000D01*
D25*
X113350000Y-94173000D02*
X112141000Y-94173000D01*
X115111000Y-94488000D02*
X113665000Y-94488000D01*
D27*
X150836000Y-72809100D02*
X150836000Y-78320900D01*
D26*
X104648000Y-94869000D02*
X105791000Y-93726000D01*
D24*
X117221000Y-94488000D02*
X119126000Y-94488000D01*
D23*
X128985000Y-103124000D02*
X124206000Y-103124000D01*
D25*
X125857000Y-95758000D02*
X126172000Y-96073000D01*
D23*
X129008500Y-101346000D02*
X129008500Y-103100500D01*
X129008500Y-103100500D02*
X129008500Y-105029000D01*
D25*
X115111000Y-94488000D02*
X117221000Y-94488000D01*
X113665000Y-94488000D02*
X113350000Y-94173000D01*
D24*
X120396000Y-95758000D02*
X122301000Y-95758000D01*
D26*
X104648000Y-96012000D02*
X104648000Y-94869000D01*
X105791000Y-93726000D02*
X109093000Y-93726000D01*
D24*
X119126000Y-94488000D02*
X120396000Y-95758000D01*
X110045500Y-94678500D02*
X110551000Y-94173000D01*
D26*
X102704421Y-99856579D02*
X102345947Y-99856579D01*
X102235000Y-101854000D02*
X102235000Y-106746000D01*
D23*
X105283000Y-103632000D02*
X105283000Y-106783500D01*
X108077000Y-102870000D02*
X106045000Y-102870000D01*
X110363000Y-102870000D02*
X112395000Y-100838000D01*
D26*
X101618526Y-100584000D02*
X101600000Y-100584000D01*
D23*
X106045000Y-102870000D02*
X105283000Y-103632000D01*
D26*
X101600000Y-101219000D02*
X102235000Y-101854000D01*
D23*
X105245500Y-106783500D02*
X105283000Y-106746000D01*
D26*
X102345947Y-99856579D02*
X101618526Y-100584000D01*
X101600000Y-100584000D02*
X101600000Y-101219000D01*
D23*
X112395000Y-100838000D02*
X115111000Y-100838000D01*
D26*
X103124000Y-99437000D02*
X102704421Y-99856579D01*
D23*
X102235000Y-106783500D02*
X105245500Y-106783500D01*
X116205000Y-102108000D02*
X116840000Y-101473000D01*
X116205000Y-104394000D02*
X116205000Y-102108000D01*
X116205000Y-104394000D02*
X114831500Y-104394000D01*
X117668000Y-104394000D02*
X116205000Y-104394000D01*
X116586000Y-99568000D02*
X115111000Y-99568000D01*
X116840000Y-99822000D02*
X116586000Y-99568000D01*
X116840000Y-101473000D02*
X116840000Y-99822000D01*
X116205000Y-107569000D02*
X116205000Y-106553000D01*
X116586000Y-106172000D02*
X121285000Y-106172000D01*
X121666000Y-105791000D02*
X121666000Y-102870000D01*
X117668000Y-107569000D02*
X116205000Y-107569000D01*
X116205000Y-106553000D02*
X116586000Y-106172000D01*
X116205000Y-107569000D02*
X114855000Y-107569000D01*
X117094000Y-98298000D02*
X115111000Y-98298000D01*
X121285000Y-106172000D02*
X121666000Y-105791000D01*
X121666000Y-102870000D02*
X117094000Y-98298000D01*
X116205000Y-109728000D02*
X116586000Y-109347000D01*
X116205000Y-110744000D02*
X116205000Y-109728000D01*
X116967000Y-97028000D02*
X115111000Y-97028000D01*
X122301000Y-108331000D02*
X122301000Y-102362000D01*
X121285000Y-109347000D02*
X122301000Y-108331000D01*
X116586000Y-109347000D02*
X121285000Y-109347000D01*
X117668000Y-110744000D02*
X114831500Y-110744000D01*
X122301000Y-102362000D02*
X116967000Y-97028000D01*
D24*
X81914000Y-90298000D02*
X80899000Y-91313000D01*
X87249000Y-90298000D02*
X81914000Y-90298000D01*
X80899000Y-91313000D02*
X80899000Y-99822000D01*
X80899000Y-104822000D02*
X78486000Y-102409000D01*
X81026000Y-88392000D02*
X88899000Y-88392000D01*
X78486000Y-102409000D02*
X78486000Y-90932000D01*
X94361000Y-90298000D02*
X90805000Y-90298000D01*
X78486000Y-90932000D02*
X81026000Y-88392000D01*
X88899000Y-88392000D02*
X90805000Y-90298000D01*
D23*
X86614000Y-111760000D02*
X86614000Y-113030000D01*
X86891500Y-111482500D02*
X86614000Y-111760000D01*
X86311500Y-113332500D02*
X85090000Y-113332500D01*
X86614000Y-113030000D02*
X86311500Y-113332500D01*
X88011000Y-111482500D02*
X86891500Y-111482500D01*
X124714000Y-102362000D02*
X124714000Y-100838000D01*
X124714000Y-103886000D02*
X135204000Y-114376000D01*
X162269000Y-112776000D02*
X162269000Y-114376000D01*
X135204000Y-114376000D02*
X162269000Y-114376000D01*
X118991000Y-120642000D02*
X118745000Y-120396000D01*
X115062000Y-120396000D02*
X113411000Y-122047000D01*
X113411000Y-122047000D02*
X105720000Y-122047000D01*
X110998000Y-105283000D02*
X111887000Y-104394000D01*
X102799000Y-119126000D02*
X102799000Y-117800000D01*
X118745000Y-120396000D02*
X115951000Y-120396000D01*
X115951000Y-120396000D02*
X115062000Y-120396000D01*
X118991000Y-121698000D02*
X118991000Y-120642000D01*
X110998000Y-109601000D02*
X110998000Y-105283000D01*
X105720000Y-122047000D02*
X102799000Y-119126000D01*
X102799000Y-117800000D02*
X110998000Y-109601000D01*
X111887000Y-104394000D02*
X113006500Y-104394000D01*
X108585000Y-121412000D02*
X106299000Y-119126000D01*
X126873000Y-120396000D02*
X129667000Y-120396000D01*
X126873000Y-120396000D02*
X126238000Y-119761000D01*
X113030000Y-121412000D02*
X108585000Y-121412000D01*
X126238000Y-119761000D02*
X114681000Y-119761000D01*
X129913000Y-120642000D02*
X129913000Y-121698000D01*
X129667000Y-120396000D02*
X129913000Y-120642000D01*
X106299000Y-119126000D02*
X106299000Y-115062000D01*
X111506000Y-108077000D02*
X112014000Y-107569000D01*
X106299000Y-115062000D02*
X111506000Y-109855000D01*
X111506000Y-109855000D02*
X111506000Y-108077000D01*
X112014000Y-107569000D02*
X113030000Y-107569000D01*
X114681000Y-119761000D02*
X113030000Y-121412000D01*
X140589000Y-120396000D02*
X140835000Y-120642000D01*
X109799000Y-112324000D02*
X111379000Y-110744000D01*
X137795000Y-120396000D02*
X140589000Y-120396000D01*
X136525000Y-119126000D02*
X137795000Y-120396000D01*
X111379000Y-110744000D02*
X113006500Y-110744000D01*
X109799000Y-119126000D02*
X136525000Y-119126000D01*
X109799000Y-119126000D02*
X109799000Y-112324000D01*
X140835000Y-120642000D02*
X140835000Y-121698000D01*
D26*
X103124000Y-96266000D02*
X102870000Y-96012000D01*
D23*
X105029000Y-90678000D02*
X106299000Y-90678000D01*
D26*
X103124000Y-96897000D02*
X103124000Y-96266000D01*
X102870000Y-96012000D02*
X102870000Y-92799858D01*
D23*
X104521000Y-91186000D02*
X105029000Y-90678000D01*
X115111000Y-90678000D02*
X106299000Y-90678000D01*
X106299000Y-86995000D02*
X106299000Y-90678000D01*
X106299000Y-86995000D02*
X106299000Y-85344000D01*
D26*
X100307429Y-97259429D02*
X102216429Y-97259429D01*
D23*
X104267000Y-91948000D02*
X115111000Y-91948000D01*
X102235000Y-89916000D02*
X102235000Y-86995000D01*
X102235000Y-86995000D02*
X102235000Y-85344000D01*
D26*
X99441000Y-96393000D02*
X100307429Y-97259429D01*
D23*
X103378000Y-91059000D02*
X104267000Y-91948000D01*
D26*
X99441000Y-94996000D02*
X99441000Y-96393000D01*
X102216429Y-97259429D02*
X103124000Y-98167000D01*
D23*
X103378000Y-91059000D02*
X102235000Y-89916000D01*
D26*
X102235000Y-92202000D02*
X99441000Y-94996000D01*
D23*
X134135500Y-87122000D02*
X146431000Y-87122000D01*
X148336000Y-85217000D02*
X148336000Y-78320900D01*
X146431000Y-87122000D02*
X148336000Y-85217000D01*
D25*
X89946000Y-75425000D02*
X89946000Y-73630000D01*
X103916000Y-75425000D02*
X103916000Y-73660000D01*
D27*
X148336000Y-72809100D02*
X148336000Y-78320900D01*
D26*
X107210571Y-97259429D02*
X108077000Y-96393000D01*
D23*
X116713000Y-92583000D02*
X108077000Y-92583000D01*
X115111000Y-89408000D02*
X112776000Y-89408000D01*
X116713000Y-89408000D02*
X117094000Y-89789000D01*
X117094000Y-92202000D02*
X116713000Y-92583000D01*
X117094000Y-89789000D02*
X117094000Y-92202000D01*
D26*
X105301571Y-97259429D02*
X107210571Y-97259429D01*
D23*
X115111000Y-89408000D02*
X116713000Y-89408000D01*
X110363000Y-85367500D02*
X110386500Y-85344000D01*
D26*
X104394000Y-98167000D02*
X105301571Y-97259429D01*
X108077000Y-96393000D02*
X108077000Y-94488000D01*
D23*
X112776000Y-89408000D02*
X110363000Y-86995000D01*
X110363000Y-86995000D02*
X110363000Y-85367500D01*
X118237000Y-82423000D02*
X119761000Y-80899000D01*
X108585000Y-85367500D02*
X108561500Y-85344000D01*
X108585000Y-85320500D02*
X108585000Y-82423000D01*
X108561500Y-85344000D02*
X108585000Y-85320500D01*
X119761000Y-80899000D02*
X119761000Y-77724000D01*
X108585000Y-82423000D02*
X118237000Y-82423000D01*
X108585000Y-86995000D02*
X108585000Y-85367500D01*
X94488000Y-82423000D02*
X91196000Y-79131000D01*
X91196000Y-79131000D02*
X91196000Y-75425000D01*
X104521000Y-86995000D02*
X104521000Y-85367500D01*
X104521000Y-81788000D02*
X115316000Y-81788000D01*
X116261000Y-80843000D02*
X116261000Y-77724000D01*
X115316000Y-81788000D02*
X116261000Y-80843000D01*
X104497500Y-81811500D02*
X104521000Y-81788000D01*
X104497500Y-85344000D02*
X104497500Y-81811500D01*
X95377000Y-81788000D02*
X92446000Y-78857000D01*
X92446000Y-78857000D02*
X92446000Y-75425000D01*
X104521000Y-85367500D02*
X104497500Y-85344000D01*
X105166000Y-75425000D02*
X105166000Y-81143000D01*
X107696000Y-80518000D02*
X109474000Y-80518000D01*
X115062000Y-74930000D02*
X130429000Y-74930000D01*
X109474000Y-80518000D02*
X115062000Y-74930000D01*
X100433500Y-85344000D02*
X100433500Y-81176500D01*
X100457000Y-86995000D02*
X100457000Y-85367500D01*
X130429000Y-74930000D02*
X133223000Y-77724000D01*
X105166000Y-81143000D02*
X105156000Y-81153000D01*
X100457000Y-85367500D02*
X100433500Y-85344000D01*
X100433500Y-81176500D02*
X100457000Y-81153000D01*
X106416000Y-75425000D02*
X106416000Y-80508000D01*
X107061000Y-81153000D02*
X109728000Y-81153000D01*
X115316000Y-75565000D02*
X127564000Y-75565000D01*
X96393000Y-81153000D02*
X96369500Y-81176500D01*
X96369500Y-81176500D02*
X96369500Y-85344000D01*
X109728000Y-81153000D02*
X115316000Y-75565000D01*
X106426000Y-80518000D02*
X107061000Y-81153000D01*
X96393000Y-85367500D02*
X96369500Y-85344000D01*
X96393000Y-86995000D02*
X96393000Y-85367500D01*
X127564000Y-75565000D02*
X129723000Y-77724000D01*
X104394000Y-93218000D02*
X98171000Y-86995000D01*
X98171000Y-86995000D02*
X98171000Y-85344000D01*
X115111000Y-93218000D02*
X104394000Y-93218000D01*
X147587000Y-102235000D02*
X143637000Y-102235000D01*
X141859000Y-104013000D02*
X135636000Y-104013000D01*
X125857000Y-97790000D02*
X129159000Y-97790000D01*
X143637000Y-102235000D02*
X141859000Y-104013000D01*
X132842000Y-101219000D02*
X130833500Y-101219000D01*
X125095000Y-97028000D02*
X125857000Y-97790000D01*
X130833500Y-99464500D02*
X130833500Y-101219000D01*
X135636000Y-104013000D02*
X132842000Y-101219000D01*
X147587000Y-102235000D02*
X147587000Y-99695000D01*
X124411000Y-97028000D02*
X125095000Y-97028000D01*
X129159000Y-97790000D02*
X130833500Y-99464500D01*
X154432000Y-104775000D02*
X150241000Y-108966000D01*
X145542000Y-108966000D02*
X142875000Y-106299000D01*
X156197000Y-104775000D02*
X154432000Y-104775000D01*
X150241000Y-108966000D02*
X145542000Y-108966000D01*
X142875000Y-106299000D02*
X140104500Y-106299000D01*
X124411000Y-89408000D02*
X147447000Y-89408000D01*
X124411000Y-90678000D02*
X126111000Y-90678000D01*
X126873000Y-89916000D02*
X143764000Y-89916000D01*
X143764000Y-89916000D02*
X145923000Y-92075000D01*
X126111000Y-90678000D02*
X126873000Y-89916000D01*
X145923000Y-92075000D02*
X147587000Y-92075000D01*
X141668500Y-90424000D02*
X145859500Y-94615000D01*
X127622489Y-90424000D02*
X141668500Y-90424000D01*
X124411000Y-91948000D02*
X126098489Y-91948000D01*
X126098489Y-91948000D02*
X127622489Y-90424000D01*
X145859500Y-94615000D02*
X147587000Y-94615000D01*
X145796000Y-97155000D02*
X147587000Y-97155000D01*
X126111000Y-93218000D02*
X128397000Y-90932000D01*
X139573000Y-90932000D02*
X145796000Y-97155000D01*
X128397000Y-90932000D02*
X139573000Y-90932000D01*
X124411000Y-93218000D02*
X126111000Y-93218000D01*
X128778000Y-98298000D02*
X124411000Y-98298000D01*
X147587000Y-104775000D02*
X135636000Y-104775000D01*
X130833500Y-103655500D02*
X129921000Y-102743000D01*
X129921000Y-99441000D02*
X128778000Y-98298000D01*
X147587000Y-107315000D02*
X147587000Y-104775000D01*
X129921000Y-102743000D02*
X129921000Y-99441000D01*
X135382000Y-105029000D02*
X130833500Y-105029000D01*
X130833500Y-105029000D02*
X130833500Y-103655500D01*
X135636000Y-104775000D02*
X135382000Y-105029000D01*
X156197000Y-99695000D02*
X154336750Y-99695000D01*
X142113000Y-97409000D02*
X140104500Y-97409000D01*
X152812750Y-98171000D02*
X142875000Y-98171000D01*
X154336750Y-99695000D02*
X152812750Y-98171000D01*
X142875000Y-98171000D02*
X142113000Y-97409000D01*
X141478000Y-102489000D02*
X140104500Y-102489000D01*
X145288000Y-98679000D02*
X141478000Y-102489000D01*
X156197000Y-102235000D02*
X154432000Y-102235000D01*
X150876000Y-98679000D02*
X145288000Y-98679000D01*
X154432000Y-102235000D02*
X150876000Y-98679000D01*
X138557000Y-101219000D02*
X138279500Y-101496500D01*
X140104500Y-99949000D02*
X140104500Y-100941500D01*
X139827000Y-101219000D02*
X138557000Y-101219000D01*
X138279500Y-101496500D02*
X138279500Y-102489000D01*
X140104500Y-100941500D02*
X139827000Y-101219000D01*
X156197000Y-107315000D02*
X154432000Y-107315000D01*
X150368000Y-111379000D02*
X140104500Y-111379000D01*
X154432000Y-107315000D02*
X150368000Y-111379000D01*
X140104500Y-108839000D02*
X140104500Y-109831500D01*
X138279500Y-110386500D02*
X138279500Y-111379000D01*
X138557000Y-110109000D02*
X138279500Y-110386500D01*
X139827000Y-110109000D02*
X138557000Y-110109000D01*
X140104500Y-109831500D02*
X139827000Y-110109000D01*
X130175000Y-97155000D02*
X126365000Y-97155000D01*
X122555000Y-99187000D02*
X122936000Y-99568000D01*
X122936000Y-96393000D02*
X122555000Y-96774000D01*
X132207000Y-88646000D02*
X132207000Y-87122000D01*
X125603000Y-96393000D02*
X122936000Y-96393000D01*
X126365000Y-97155000D02*
X125603000Y-96393000D01*
X122555000Y-96774000D02*
X122555000Y-99187000D01*
X132207000Y-91694000D02*
X132207000Y-95123000D01*
X122936000Y-99568000D02*
X124411000Y-99568000D01*
X132207000Y-95123000D02*
X130175000Y-97155000D01*
G04 #@! TA.AperFunction,Conductor*
G36*
X149294121Y-70124002D02*
G01*
X149340614Y-70177658D01*
X149352000Y-70230000D01*
X149352000Y-80265000D01*
X149331998Y-80333121D01*
X149278342Y-80379614D01*
X149226000Y-80391000D01*
X139318000Y-80391000D01*
X139249879Y-80370998D01*
X139203386Y-80317342D01*
X139192000Y-80265000D01*
X139192000Y-79883000D01*
X143891000Y-79883000D01*
X146812000Y-79883000D01*
X146812000Y-76708000D01*
X143891000Y-76708000D01*
X143891000Y-79883000D01*
X139192000Y-79883000D01*
X139192000Y-74422000D01*
X143891000Y-74422000D01*
X146812000Y-74422000D01*
X146812000Y-71247000D01*
X143891000Y-71247000D01*
X143891000Y-74422000D01*
X139192000Y-74422000D01*
X139192000Y-74295000D01*
X84708000Y-74295000D01*
X84639879Y-74274998D01*
X84593386Y-74221342D01*
X84582000Y-74169000D01*
X84582000Y-70230000D01*
X84602002Y-70161879D01*
X84655658Y-70115386D01*
X84708000Y-70104000D01*
X149226000Y-70104000D01*
X149294121Y-70124002D01*
G37*
G04 #@! TD.AperFunction*
G04 #@! TA.AperFunction,Conductor*
G36*
X146500121Y-76982002D02*
G01*
X146546614Y-77035658D01*
X146558000Y-77088000D01*
X146558000Y-79503000D01*
X146537998Y-79571121D01*
X146484342Y-79617614D01*
X146432000Y-79629000D01*
X144271000Y-79629000D01*
X144202879Y-79608998D01*
X144156386Y-79555342D01*
X144145000Y-79503000D01*
X144145000Y-77088000D01*
X144165002Y-77019879D01*
X144218658Y-76973386D01*
X144271000Y-76962000D01*
X146432000Y-76962000D01*
X146500121Y-76982002D01*
G37*
G04 #@! TD.AperFunction*
G04 #@! TA.AperFunction,Conductor*
G36*
X92144121Y-92857002D02*
G01*
X92190614Y-92910658D01*
X92202000Y-92963000D01*
X92202000Y-94616000D01*
X92181998Y-94684121D01*
X92128342Y-94730614D01*
X92076000Y-94742000D01*
X88900000Y-94742000D01*
X88900000Y-110364000D01*
X88879998Y-110432121D01*
X88826342Y-110478614D01*
X88774000Y-110490000D01*
X87161362Y-110490000D01*
X87093241Y-110469998D01*
X87046748Y-110416342D01*
X87036440Y-110347554D01*
X87050048Y-110244188D01*
X87051126Y-110236000D01*
X87040773Y-110157361D01*
X87032982Y-110098179D01*
X87032981Y-110098177D01*
X87031904Y-110089993D01*
X86975547Y-109953937D01*
X86885897Y-109837103D01*
X86769063Y-109747453D01*
X86633007Y-109691096D01*
X86624823Y-109690019D01*
X86624821Y-109690018D01*
X86495188Y-109672952D01*
X86487000Y-109671874D01*
X86478812Y-109672952D01*
X86349179Y-109690018D01*
X86349177Y-109690019D01*
X86340993Y-109691096D01*
X86204937Y-109747453D01*
X86088103Y-109837103D01*
X85998453Y-109953937D01*
X85942096Y-110089993D01*
X85941019Y-110098177D01*
X85941018Y-110098179D01*
X85935050Y-110143516D01*
X85925231Y-110218103D01*
X85924727Y-110221928D01*
X85896005Y-110286855D01*
X85888900Y-110294577D01*
X85730382Y-110453095D01*
X85668070Y-110487121D01*
X85641287Y-110490000D01*
X83947000Y-110490000D01*
X83947000Y-116459000D01*
X86996000Y-116459000D01*
X87064121Y-116479002D01*
X87110614Y-116532658D01*
X87122000Y-116585000D01*
X87122000Y-122936000D01*
X145670000Y-122936000D01*
X145738121Y-122956002D01*
X145784614Y-123009658D01*
X145796000Y-123062000D01*
X145796000Y-126620000D01*
X145775998Y-126688121D01*
X145722342Y-126734614D01*
X145670000Y-126746000D01*
X81632747Y-126746000D01*
X81564626Y-126725998D01*
X81518133Y-126672342D01*
X81508029Y-126602068D01*
X81537523Y-126537488D01*
X81592975Y-126500442D01*
X81599090Y-126498408D01*
X81732552Y-126454011D01*
X81949742Y-126381762D01*
X81949748Y-126381760D01*
X81952666Y-126380789D01*
X82092439Y-126318558D01*
X82303957Y-126224384D01*
X82303963Y-126224381D01*
X82306757Y-126223137D01*
X82444083Y-126145125D01*
X82641100Y-126033203D01*
X82641099Y-126033203D01*
X82643774Y-126031684D01*
X82774131Y-125939728D01*
X82957970Y-125810045D01*
X82957978Y-125810039D01*
X82960501Y-125808259D01*
X83079982Y-125705126D01*
X83251575Y-125557010D01*
X83253913Y-125554992D01*
X83521211Y-125274302D01*
X83759842Y-124968868D01*
X83761498Y-124966258D01*
X83761504Y-124966250D01*
X83965875Y-124644212D01*
X83965879Y-124644205D01*
X83967529Y-124641605D01*
X84142290Y-124295638D01*
X84143397Y-124292784D01*
X84143401Y-124292775D01*
X84281341Y-123937144D01*
X84281344Y-123937135D01*
X84282456Y-123934268D01*
X84386690Y-123560945D01*
X84453996Y-123179232D01*
X84471172Y-122956002D01*
X84483582Y-122794726D01*
X84483582Y-122794717D01*
X84483732Y-122792773D01*
X84485279Y-122682000D01*
X84479495Y-122563723D01*
X84467134Y-122310992D01*
X84466345Y-122294861D01*
X84409723Y-121911418D01*
X84315954Y-121535330D01*
X84297112Y-121482414D01*
X84186964Y-121173086D01*
X84185932Y-121170187D01*
X84020899Y-120819475D01*
X83974521Y-120741674D01*
X83855495Y-120542007D01*
X83822431Y-120486541D01*
X83592421Y-120174563D01*
X83590365Y-120172280D01*
X83590358Y-120172271D01*
X83335134Y-119888816D01*
X83335126Y-119888808D01*
X83333065Y-119886519D01*
X83046839Y-119625159D01*
X82736474Y-119392977D01*
X82619507Y-119322139D01*
X82407562Y-119193780D01*
X82407553Y-119193775D01*
X82404934Y-119192189D01*
X82055382Y-119024712D01*
X82052481Y-119023656D01*
X81694044Y-118893195D01*
X81694041Y-118893194D01*
X81691156Y-118892144D01*
X81688194Y-118891384D01*
X81688186Y-118891381D01*
X81318701Y-118796514D01*
X81318695Y-118796513D01*
X81315732Y-118795752D01*
X80932694Y-118736454D01*
X80545697Y-118714818D01*
X80542619Y-118714947D01*
X80542615Y-118714947D01*
X80291318Y-118725480D01*
X80158435Y-118731049D01*
X80155391Y-118731477D01*
X80155389Y-118731477D01*
X80116617Y-118736926D01*
X79774606Y-118784992D01*
X79397873Y-118876134D01*
X79031831Y-119003603D01*
X78679975Y-119166183D01*
X78345664Y-119362323D01*
X78187505Y-119477232D01*
X78034569Y-119588346D01*
X78034563Y-119588351D01*
X78032088Y-119590149D01*
X77742240Y-119847488D01*
X77740161Y-119849733D01*
X77740154Y-119849740D01*
X77548168Y-120057066D01*
X77478888Y-120131882D01*
X77477030Y-120134330D01*
X77477029Y-120134331D01*
X77461314Y-120155035D01*
X77244545Y-120440618D01*
X77242934Y-120443236D01*
X77242931Y-120443241D01*
X77192387Y-120525400D01*
X77041447Y-120770749D01*
X76871534Y-121119123D01*
X76870463Y-121122004D01*
X76870460Y-121122010D01*
X76853579Y-121167402D01*
X76736427Y-121482414D01*
X76735641Y-121485389D01*
X76701820Y-121613396D01*
X76665080Y-121674147D01*
X76601328Y-121705392D01*
X76530805Y-121697209D01*
X76475900Y-121652198D01*
X76454000Y-121581210D01*
X76454000Y-107568000D01*
X76474002Y-107499879D01*
X76527658Y-107453386D01*
X76580000Y-107442000D01*
X85090000Y-107442000D01*
X85090000Y-93331528D01*
X85110002Y-93263407D01*
X85126905Y-93242433D01*
X85495433Y-92873905D01*
X85557745Y-92839879D01*
X85584528Y-92837000D01*
X92076000Y-92837000D01*
X92144121Y-92857002D01*
G37*
G04 #@! TD.AperFunction*
G04 #@! TA.AperFunction,Conductor*
G36*
X146500121Y-71521002D02*
G01*
X146546614Y-71574658D01*
X146558000Y-71627000D01*
X146558000Y-74042000D01*
X146537998Y-74110121D01*
X146484342Y-74156614D01*
X146432000Y-74168000D01*
X144271000Y-74168000D01*
X144202879Y-74147998D01*
X144156386Y-74094342D01*
X144145000Y-74042000D01*
X144145000Y-71627000D01*
X144165002Y-71558879D01*
X144218658Y-71512386D01*
X144271000Y-71501000D01*
X146432000Y-71501000D01*
X146500121Y-71521002D01*
G37*
G04 #@! TD.AperFunction*
G04 #@! TA.AperFunction,Conductor*
G36*
X98113121Y-95016002D02*
G01*
X98159614Y-95069658D01*
X98171000Y-95122000D01*
X98171000Y-112142000D01*
X98150998Y-112210121D01*
X98097342Y-112256614D01*
X98045000Y-112268000D01*
X97900462Y-112268000D01*
X97856233Y-112259982D01*
X97746843Y-112218974D01*
X97746841Y-112218974D01*
X97739448Y-112216202D01*
X97731598Y-112215349D01*
X97731597Y-112215349D01*
X97681153Y-112209869D01*
X97681152Y-112209869D01*
X97677756Y-112209500D01*
X96632244Y-112209500D01*
X96628848Y-112209869D01*
X96628847Y-112209869D01*
X96578403Y-112215349D01*
X96578402Y-112215349D01*
X96570552Y-112216202D01*
X96563159Y-112218974D01*
X96563157Y-112218974D01*
X96453767Y-112259982D01*
X96409538Y-112268000D01*
X95066520Y-112268000D01*
X94996517Y-112246765D01*
X94992617Y-112244159D01*
X94982301Y-112237266D01*
X94970132Y-112234845D01*
X94970131Y-112234845D01*
X94914135Y-112223707D01*
X94908067Y-112222500D01*
X94233110Y-112222500D01*
X93557934Y-112222501D01*
X93483699Y-112237266D01*
X93473382Y-112244159D01*
X93473381Y-112244160D01*
X93469483Y-112246765D01*
X93399480Y-112268000D01*
X89280000Y-112268000D01*
X89211879Y-112247998D01*
X89165386Y-112194342D01*
X89154000Y-112142000D01*
X89154000Y-105188500D01*
X89174002Y-105120379D01*
X89227658Y-105073886D01*
X89280000Y-105062500D01*
X91783500Y-105062500D01*
X91851621Y-105082502D01*
X91898114Y-105136158D01*
X91909500Y-105188500D01*
X91909500Y-105847756D01*
X91916202Y-105909448D01*
X91966929Y-106044764D01*
X91972309Y-106051943D01*
X91972311Y-106051946D01*
X92038287Y-106139977D01*
X92053596Y-106160404D01*
X92060776Y-106165785D01*
X92162054Y-106241689D01*
X92162057Y-106241691D01*
X92169236Y-106247071D01*
X92303920Y-106297561D01*
X92304552Y-106297798D01*
X92303897Y-106299545D01*
X92356795Y-106329767D01*
X92389614Y-106392724D01*
X92392000Y-106417130D01*
X92392000Y-106888256D01*
X92390922Y-106904702D01*
X92387065Y-106934000D01*
X92392000Y-106971486D01*
X92392000Y-106971492D01*
X92406723Y-107083322D01*
X92464359Y-107222468D01*
X92556045Y-107341955D01*
X92562595Y-107346981D01*
X92579495Y-107359949D01*
X92591886Y-107370816D01*
X93624095Y-108403025D01*
X93658121Y-108465337D01*
X93661000Y-108492120D01*
X93661000Y-109098760D01*
X93640998Y-109166881D01*
X93587342Y-109213374D01*
X93557707Y-109221361D01*
X93557934Y-109222501D01*
X93495874Y-109234844D01*
X93495872Y-109234845D01*
X93483699Y-109237266D01*
X93473379Y-109244161D01*
X93473378Y-109244162D01*
X93412985Y-109284516D01*
X93399516Y-109293516D01*
X93343266Y-109377699D01*
X93328500Y-109451933D01*
X93328501Y-110052066D01*
X93343266Y-110126301D01*
X93399516Y-110210484D01*
X93483699Y-110266734D01*
X93557933Y-110281500D01*
X93991555Y-110281500D01*
X94039772Y-110291091D01*
X94076050Y-110306118D01*
X94076054Y-110306119D01*
X94083678Y-110309277D01*
X94233000Y-110328936D01*
X94241188Y-110327858D01*
X94374135Y-110310355D01*
X94374136Y-110310355D01*
X94382322Y-110309277D01*
X94389949Y-110306118D01*
X94389952Y-110306117D01*
X94426230Y-110291090D01*
X94474448Y-110281499D01*
X94908066Y-110281499D01*
X94943818Y-110274388D01*
X94970126Y-110269156D01*
X94970128Y-110269155D01*
X94982301Y-110266734D01*
X94992621Y-110259839D01*
X94992622Y-110259838D01*
X95056168Y-110217377D01*
X95066484Y-110210484D01*
X95122734Y-110126301D01*
X95137500Y-110052067D01*
X95137499Y-109451934D01*
X95122734Y-109377699D01*
X95066484Y-109293516D01*
X94982301Y-109237266D01*
X94908067Y-109222500D01*
X94908550Y-109220070D01*
X94852836Y-109197584D01*
X94811816Y-109139638D01*
X94805000Y-109098759D01*
X94805000Y-108248744D01*
X94806078Y-108232298D01*
X94808857Y-108211189D01*
X94808857Y-108211188D01*
X94809935Y-108203000D01*
X94805000Y-108165514D01*
X94805000Y-108165508D01*
X94790277Y-108053678D01*
X94732641Y-107914532D01*
X94640955Y-107795045D01*
X94617505Y-107777051D01*
X94605114Y-107766184D01*
X93572905Y-106733975D01*
X93538879Y-106671663D01*
X93536000Y-106644880D01*
X93536000Y-106417130D01*
X93556002Y-106349009D01*
X93609658Y-106302516D01*
X93623363Y-106297807D01*
X93623448Y-106297798D01*
X93758764Y-106247071D01*
X93765943Y-106241691D01*
X93765946Y-106241689D01*
X93867224Y-106165785D01*
X93874404Y-106160404D01*
X93889713Y-106139977D01*
X93955689Y-106051946D01*
X93955691Y-106051943D01*
X93961071Y-106044764D01*
X94011798Y-105909448D01*
X94018500Y-105847756D01*
X94018500Y-102752244D01*
X94011798Y-102690552D01*
X93961071Y-102555236D01*
X93955691Y-102548057D01*
X93955689Y-102548054D01*
X93879785Y-102446776D01*
X93874404Y-102439596D01*
X93853977Y-102424287D01*
X93765946Y-102358311D01*
X93765943Y-102358309D01*
X93758764Y-102352929D01*
X93669046Y-102319296D01*
X93630843Y-102304974D01*
X93630841Y-102304974D01*
X93623448Y-102302202D01*
X93615598Y-102301349D01*
X93615597Y-102301349D01*
X93565153Y-102295869D01*
X93565152Y-102295869D01*
X93561756Y-102295500D01*
X92366244Y-102295500D01*
X92362848Y-102295869D01*
X92362847Y-102295869D01*
X92312403Y-102301349D01*
X92312402Y-102301349D01*
X92304552Y-102302202D01*
X92297159Y-102304974D01*
X92297157Y-102304974D01*
X92258954Y-102319296D01*
X92169236Y-102352929D01*
X92162057Y-102358309D01*
X92162054Y-102358311D01*
X92074023Y-102424287D01*
X92053596Y-102439596D01*
X92048215Y-102446776D01*
X91972311Y-102548054D01*
X91972309Y-102548057D01*
X91966929Y-102555236D01*
X91916202Y-102690552D01*
X91909500Y-102752244D01*
X91909500Y-103411500D01*
X91889498Y-103479621D01*
X91835842Y-103526114D01*
X91783500Y-103537500D01*
X89280000Y-103537500D01*
X89211879Y-103517498D01*
X89165386Y-103463842D01*
X89154000Y-103411500D01*
X89154000Y-95122000D01*
X89174002Y-95053879D01*
X89227658Y-95007386D01*
X89280000Y-94996000D01*
X98045000Y-94996000D01*
X98113121Y-95016002D01*
G37*
G04 #@! TD.AperFunction*
G04 #@! TA.AperFunction,Conductor*
G36*
X98113121Y-112542002D02*
G01*
X98159614Y-112595658D01*
X98171000Y-112648000D01*
X98171000Y-116079000D01*
X98150998Y-116147121D01*
X98097342Y-116193614D01*
X98045000Y-116205000D01*
X84327000Y-116205000D01*
X84258879Y-116184998D01*
X84212386Y-116131342D01*
X84201000Y-116079000D01*
X84201000Y-114124383D01*
X84221002Y-114056262D01*
X84274658Y-114009769D01*
X84344932Y-113999665D01*
X84386209Y-114013429D01*
X84392018Y-114017783D01*
X84458998Y-114042892D01*
X84518260Y-114065108D01*
X84518262Y-114065109D01*
X84525658Y-114067881D01*
X84586585Y-114074500D01*
X85089926Y-114074500D01*
X85593414Y-114074499D01*
X85596808Y-114074130D01*
X85596814Y-114074130D01*
X85646483Y-114068735D01*
X85646486Y-114068734D01*
X85654342Y-114067881D01*
X85787982Y-114017783D01*
X85902189Y-113932189D01*
X85987783Y-113817982D01*
X85996110Y-113795770D01*
X86038750Y-113739006D01*
X86105311Y-113714306D01*
X86114091Y-113714000D01*
X86257365Y-113714000D01*
X86281664Y-113716586D01*
X86283102Y-113716654D01*
X86293280Y-113718845D01*
X86326841Y-113714873D01*
X86332820Y-113714521D01*
X86332812Y-113714428D01*
X86337990Y-113714000D01*
X86343192Y-113714000D01*
X86362346Y-113710812D01*
X86368204Y-113709978D01*
X86384818Y-113708012D01*
X86409067Y-113705142D01*
X86409068Y-113705142D01*
X86419407Y-113703918D01*
X86427706Y-113699933D01*
X86436783Y-113698422D01*
X86482151Y-113673942D01*
X86487414Y-113671261D01*
X86526750Y-113652373D01*
X86526754Y-113652370D01*
X86533898Y-113648940D01*
X86538192Y-113645330D01*
X86540124Y-113643398D01*
X86542073Y-113641611D01*
X86542126Y-113641582D01*
X86542245Y-113641712D01*
X86542813Y-113641211D01*
X86548557Y-113638112D01*
X86585368Y-113598290D01*
X86588797Y-113594725D01*
X86845476Y-113338046D01*
X86864499Y-113322682D01*
X86865558Y-113321718D01*
X86874304Y-113316071D01*
X86880752Y-113307892D01*
X86880754Y-113307890D01*
X86895234Y-113289523D01*
X86899209Y-113285050D01*
X86899137Y-113284989D01*
X86902490Y-113281032D01*
X86906171Y-113277351D01*
X86917455Y-113261560D01*
X86921019Y-113256814D01*
X86946487Y-113224508D01*
X86952934Y-113216330D01*
X86955984Y-113207645D01*
X86961335Y-113200157D01*
X86976110Y-113150750D01*
X86977926Y-113145163D01*
X86995016Y-113096498D01*
X86995500Y-113090909D01*
X86995500Y-113088198D01*
X86995615Y-113085529D01*
X86995634Y-113085468D01*
X86995808Y-113085475D01*
X86995855Y-113084728D01*
X86997725Y-113078475D01*
X86995597Y-113024311D01*
X86995500Y-113019365D01*
X86995500Y-112648000D01*
X87015502Y-112579879D01*
X87069158Y-112533386D01*
X87121500Y-112522000D01*
X98045000Y-112522000D01*
X98113121Y-112542002D01*
G37*
G04 #@! TD.AperFunction*
G04 #@! TA.AperFunction,Conductor*
G36*
X166090324Y-70124002D02*
G01*
X166136817Y-70177658D01*
X166146921Y-70247932D01*
X166117427Y-70312512D01*
X166051831Y-70352467D01*
X166011873Y-70362134D01*
X165645831Y-70489603D01*
X165293975Y-70652183D01*
X164959664Y-70848323D01*
X164801505Y-70963232D01*
X164648569Y-71074346D01*
X164648563Y-71074351D01*
X164646088Y-71076149D01*
X164356240Y-71333488D01*
X164354161Y-71335733D01*
X164354154Y-71335740D01*
X164094974Y-71615629D01*
X164092888Y-71617882D01*
X163858545Y-71926618D01*
X163655447Y-72256749D01*
X163485534Y-72605123D01*
X163350427Y-72968414D01*
X163251416Y-73343156D01*
X163189445Y-73725772D01*
X163165108Y-74112608D01*
X163165216Y-74115697D01*
X163171423Y-74293434D01*
X163178635Y-74499973D01*
X163229898Y-74884170D01*
X163230598Y-74887154D01*
X163230599Y-74887160D01*
X163317704Y-75258533D01*
X163318407Y-75261530D01*
X163443317Y-75628453D01*
X163603437Y-75981435D01*
X163797238Y-76317108D01*
X163799027Y-76319606D01*
X163799029Y-76319610D01*
X163897615Y-76457313D01*
X164022869Y-76632267D01*
X164024896Y-76634582D01*
X164024898Y-76634585D01*
X164276146Y-76921583D01*
X164278178Y-76923904D01*
X164280426Y-76926015D01*
X164558473Y-77187118D01*
X164558480Y-77187124D01*
X164560728Y-77189235D01*
X164563178Y-77191122D01*
X164563183Y-77191126D01*
X164694477Y-77292236D01*
X164867820Y-77425728D01*
X164870419Y-77427352D01*
X164870429Y-77427359D01*
X165012142Y-77515910D01*
X165196525Y-77631125D01*
X165543704Y-77803467D01*
X165741961Y-77878778D01*
X165903157Y-77940011D01*
X165903162Y-77940013D01*
X165906043Y-77941107D01*
X166280085Y-78042731D01*
X166283128Y-78043246D01*
X166283134Y-78043247D01*
X166659217Y-78106857D01*
X166659224Y-78106858D01*
X166662258Y-78107371D01*
X166665329Y-78107586D01*
X166665331Y-78107586D01*
X167045850Y-78134195D01*
X167045858Y-78134195D01*
X167048916Y-78134409D01*
X167299605Y-78127406D01*
X167433292Y-78123672D01*
X167433295Y-78123672D01*
X167436366Y-78123586D01*
X167439419Y-78123200D01*
X167439423Y-78123200D01*
X167623387Y-78099960D01*
X167820911Y-78075007D01*
X167823915Y-78074325D01*
X167823918Y-78074324D01*
X168195884Y-77989816D01*
X168195890Y-77989814D01*
X168198880Y-77989135D01*
X168343258Y-77941107D01*
X168563742Y-77867762D01*
X168563748Y-77867760D01*
X168566666Y-77866789D01*
X168706439Y-77804558D01*
X168917957Y-77710384D01*
X168917963Y-77710381D01*
X168920757Y-77709137D01*
X169058083Y-77631125D01*
X169255100Y-77519203D01*
X169255099Y-77519203D01*
X169257774Y-77517684D01*
X169388131Y-77425728D01*
X169571970Y-77296045D01*
X169571978Y-77296039D01*
X169574501Y-77294259D01*
X169693982Y-77191126D01*
X169785382Y-77112231D01*
X169867913Y-77040992D01*
X170135211Y-76760302D01*
X170373842Y-76454868D01*
X170375498Y-76452258D01*
X170375504Y-76452250D01*
X170579875Y-76130212D01*
X170579879Y-76130205D01*
X170581529Y-76127605D01*
X170756290Y-75781638D01*
X170757397Y-75778784D01*
X170757401Y-75778775D01*
X170895341Y-75423144D01*
X170895344Y-75423135D01*
X170896456Y-75420268D01*
X170948642Y-75233359D01*
X170986226Y-75173127D01*
X171050408Y-75142776D01*
X171120810Y-75151942D01*
X171175081Y-75197716D01*
X171196000Y-75267243D01*
X171196000Y-121576196D01*
X171175998Y-121644317D01*
X171122342Y-121690810D01*
X171052068Y-121700914D01*
X170987488Y-121671420D01*
X170947743Y-121606678D01*
X170930702Y-121538332D01*
X170929954Y-121535330D01*
X170911112Y-121482414D01*
X170800964Y-121173086D01*
X170799932Y-121170187D01*
X170634899Y-120819475D01*
X170436431Y-120486541D01*
X170206421Y-120174563D01*
X170204365Y-120172280D01*
X170204358Y-120172271D01*
X169949134Y-119888816D01*
X169949126Y-119888808D01*
X169947065Y-119886519D01*
X169660839Y-119625159D01*
X169350474Y-119392977D01*
X169297286Y-119360765D01*
X169021562Y-119193780D01*
X169021553Y-119193775D01*
X169018934Y-119192189D01*
X168669382Y-119024712D01*
X168666481Y-119023656D01*
X168308044Y-118893195D01*
X168308041Y-118893194D01*
X168305156Y-118892144D01*
X168302194Y-118891384D01*
X168302186Y-118891381D01*
X167932701Y-118796514D01*
X167932695Y-118796513D01*
X167929732Y-118795752D01*
X167546694Y-118736454D01*
X167159697Y-118714818D01*
X167156619Y-118714947D01*
X167156615Y-118714947D01*
X166905318Y-118725480D01*
X166772435Y-118731049D01*
X166769391Y-118731477D01*
X166769389Y-118731477D01*
X166730617Y-118736926D01*
X166388606Y-118784992D01*
X166011873Y-118876134D01*
X165645831Y-119003603D01*
X165293975Y-119166183D01*
X164959664Y-119362323D01*
X164801505Y-119477232D01*
X164648569Y-119588346D01*
X164648563Y-119588351D01*
X164646088Y-119590149D01*
X164356240Y-119847488D01*
X164354161Y-119849733D01*
X164354154Y-119849740D01*
X164094974Y-120129629D01*
X164092888Y-120131882D01*
X163858545Y-120440618D01*
X163655447Y-120770749D01*
X163485534Y-121119123D01*
X163350427Y-121482414D01*
X163251416Y-121857156D01*
X163189445Y-122239772D01*
X163165108Y-122626608D01*
X163165216Y-122629697D01*
X163176310Y-122947386D01*
X163178635Y-123013973D01*
X163229898Y-123398170D01*
X163230598Y-123401154D01*
X163230599Y-123401160D01*
X163317704Y-123772533D01*
X163318407Y-123775530D01*
X163443317Y-124142453D01*
X163603437Y-124495435D01*
X163797238Y-124831108D01*
X163799027Y-124833606D01*
X163799029Y-124833610D01*
X163897615Y-124971313D01*
X164022869Y-125146267D01*
X164278178Y-125437904D01*
X164280426Y-125440015D01*
X164558473Y-125701118D01*
X164558480Y-125701124D01*
X164560728Y-125703235D01*
X164563178Y-125705122D01*
X164563183Y-125705126D01*
X164694477Y-125806236D01*
X164867820Y-125939728D01*
X164870419Y-125941352D01*
X164870429Y-125941359D01*
X165012142Y-126029910D01*
X165196525Y-126145125D01*
X165543704Y-126317467D01*
X165741961Y-126392778D01*
X165903157Y-126454011D01*
X165903162Y-126454013D01*
X165906043Y-126455107D01*
X166002766Y-126481386D01*
X166065418Y-126498408D01*
X166125912Y-126535570D01*
X166156711Y-126599539D01*
X166148036Y-126670004D01*
X166102643Y-126724592D01*
X166032383Y-126746000D01*
X146430000Y-126746000D01*
X146361879Y-126725998D01*
X146315386Y-126672342D01*
X146304000Y-126620000D01*
X146304000Y-123062000D01*
X146324002Y-122993879D01*
X146377658Y-122947386D01*
X146430000Y-122936000D01*
X157861000Y-122936000D01*
X157861000Y-114883500D01*
X157881002Y-114815379D01*
X157934658Y-114768886D01*
X157987000Y-114757500D01*
X161138501Y-114757500D01*
X161206622Y-114777502D01*
X161253115Y-114831158D01*
X161264501Y-114883500D01*
X161264501Y-114901066D01*
X161279266Y-114975301D01*
X161335516Y-115059484D01*
X161419699Y-115115734D01*
X161493933Y-115130500D01*
X162268874Y-115130500D01*
X163044066Y-115130499D01*
X163079818Y-115123388D01*
X163106126Y-115118156D01*
X163106128Y-115118155D01*
X163118301Y-115115734D01*
X163128621Y-115108839D01*
X163128622Y-115108838D01*
X163192168Y-115066377D01*
X163202484Y-115059484D01*
X163258734Y-114975301D01*
X163273500Y-114901067D01*
X163273499Y-113850934D01*
X163258734Y-113776699D01*
X163202484Y-113692516D01*
X163118301Y-113636266D01*
X163044067Y-113621500D01*
X162776500Y-113621500D01*
X162708379Y-113601498D01*
X162661886Y-113547842D01*
X162650500Y-113495500D01*
X162650500Y-113240340D01*
X162670502Y-113172219D01*
X162676527Y-113163650D01*
X162757547Y-113058063D01*
X162813904Y-112922007D01*
X162833126Y-112776000D01*
X162813904Y-112629993D01*
X162757547Y-112493937D01*
X162667897Y-112377103D01*
X162551063Y-112287453D01*
X162415007Y-112231096D01*
X162406823Y-112230019D01*
X162406821Y-112230018D01*
X162277188Y-112212952D01*
X162269000Y-112211874D01*
X162260812Y-112212952D01*
X162131179Y-112230018D01*
X162131177Y-112230019D01*
X162122993Y-112231096D01*
X161986937Y-112287453D01*
X161870103Y-112377103D01*
X161780453Y-112493937D01*
X161724096Y-112629993D01*
X161704874Y-112776000D01*
X161724096Y-112922007D01*
X161780453Y-113058063D01*
X161861464Y-113163638D01*
X161887063Y-113229856D01*
X161887500Y-113240340D01*
X161887500Y-113495501D01*
X161867498Y-113563622D01*
X161813842Y-113610115D01*
X161761500Y-113621501D01*
X161493934Y-113621501D01*
X161458182Y-113628612D01*
X161431874Y-113633844D01*
X161431872Y-113633845D01*
X161419699Y-113636266D01*
X161409379Y-113643161D01*
X161409378Y-113643162D01*
X161348985Y-113683516D01*
X161335516Y-113692516D01*
X161279266Y-113776699D01*
X161264500Y-113850933D01*
X161264500Y-113868500D01*
X161244498Y-113936621D01*
X161190842Y-113983114D01*
X161138500Y-113994500D01*
X157987000Y-113994500D01*
X157918879Y-113974498D01*
X157872386Y-113920842D01*
X157861000Y-113868500D01*
X157861000Y-112776000D01*
X160090874Y-112776000D01*
X160110096Y-112922007D01*
X160166453Y-113058063D01*
X160256103Y-113174897D01*
X160372937Y-113264547D01*
X160508993Y-113320904D01*
X160517177Y-113321981D01*
X160517179Y-113321982D01*
X160646812Y-113339048D01*
X160655000Y-113340126D01*
X160663188Y-113339048D01*
X160792821Y-113321982D01*
X160792823Y-113321981D01*
X160801007Y-113320904D01*
X160937063Y-113264547D01*
X161053897Y-113174897D01*
X161143547Y-113058063D01*
X161199904Y-112922007D01*
X161219126Y-112776000D01*
X161199904Y-112629993D01*
X161143547Y-112493937D01*
X161138519Y-112487384D01*
X161138517Y-112487381D01*
X161126488Y-112471704D01*
X161100887Y-112405484D01*
X161115152Y-112335935D01*
X161126488Y-112318296D01*
X161138517Y-112302619D01*
X161138519Y-112302616D01*
X161143547Y-112296063D01*
X161147114Y-112287453D01*
X161196745Y-112167633D01*
X161199904Y-112160007D01*
X161219126Y-112014000D01*
X161219040Y-112013346D01*
X161238050Y-111948603D01*
X161291706Y-111902110D01*
X161361980Y-111892006D01*
X161397312Y-111905546D01*
X161397915Y-111904090D01*
X161409379Y-111908839D01*
X161419699Y-111915734D01*
X161493933Y-111930500D01*
X162268874Y-111930500D01*
X163044066Y-111930499D01*
X163079818Y-111923388D01*
X163106126Y-111918156D01*
X163106128Y-111918155D01*
X163118301Y-111915734D01*
X163128621Y-111908839D01*
X163128622Y-111908838D01*
X163192168Y-111866377D01*
X163202484Y-111859484D01*
X163258734Y-111775301D01*
X163273500Y-111701067D01*
X163273499Y-110650934D01*
X163273499Y-110650933D01*
X166164500Y-110650933D01*
X166164501Y-111701066D01*
X166170641Y-111731937D01*
X166176226Y-111760016D01*
X166179266Y-111775301D01*
X166235516Y-111859484D01*
X166245832Y-111866377D01*
X166299310Y-111902110D01*
X166319699Y-111915734D01*
X166393933Y-111930500D01*
X167168874Y-111930500D01*
X167944066Y-111930499D01*
X167979818Y-111923388D01*
X168006126Y-111918156D01*
X168006128Y-111918155D01*
X168018301Y-111915734D01*
X168028621Y-111908839D01*
X168028622Y-111908838D01*
X168092168Y-111866377D01*
X168102484Y-111859484D01*
X168158734Y-111775301D01*
X168173500Y-111701067D01*
X168173499Y-110650934D01*
X168158734Y-110576699D01*
X168102484Y-110492516D01*
X168018301Y-110436266D01*
X167944067Y-110421500D01*
X167169126Y-110421500D01*
X166393934Y-110421501D01*
X166358182Y-110428612D01*
X166331874Y-110433844D01*
X166331872Y-110433845D01*
X166319699Y-110436266D01*
X166309379Y-110443161D01*
X166309378Y-110443162D01*
X166248985Y-110483516D01*
X166235516Y-110492516D01*
X166179266Y-110576699D01*
X166164500Y-110650933D01*
X163273499Y-110650933D01*
X163258734Y-110576699D01*
X163202484Y-110492516D01*
X163118301Y-110436266D01*
X163044067Y-110421500D01*
X162269126Y-110421500D01*
X161493934Y-110421501D01*
X161458182Y-110428612D01*
X161431874Y-110433844D01*
X161431872Y-110433845D01*
X161419699Y-110436266D01*
X161409379Y-110443161D01*
X161409378Y-110443162D01*
X161348985Y-110483516D01*
X161335516Y-110492516D01*
X161279266Y-110576699D01*
X161264500Y-110650933D01*
X161264500Y-110668500D01*
X161244498Y-110736621D01*
X161190842Y-110783114D01*
X161138500Y-110794500D01*
X161039136Y-110794500D01*
X161014847Y-110791915D01*
X161013400Y-110791847D01*
X161003220Y-110789655D01*
X160970356Y-110793545D01*
X160969660Y-110793627D01*
X160963679Y-110793980D01*
X160963687Y-110794072D01*
X160958508Y-110794500D01*
X160953308Y-110794500D01*
X160948181Y-110795353D01*
X160948173Y-110795354D01*
X160934151Y-110797688D01*
X160928275Y-110798525D01*
X160887431Y-110803359D01*
X160887429Y-110803360D01*
X160877092Y-110804583D01*
X160868795Y-110808567D01*
X160859717Y-110810078D01*
X160850555Y-110815022D01*
X160850551Y-110815023D01*
X160814356Y-110834553D01*
X160809072Y-110837246D01*
X160762602Y-110859560D01*
X160758308Y-110863170D01*
X160756376Y-110865102D01*
X160754427Y-110866889D01*
X160754374Y-110866918D01*
X160754255Y-110866788D01*
X160753687Y-110867289D01*
X160747943Y-110870388D01*
X160711147Y-110910194D01*
X160707717Y-110913761D01*
X160423517Y-111197960D01*
X160404506Y-111213314D01*
X160403444Y-111214280D01*
X160394696Y-111219929D01*
X160388252Y-111228104D01*
X160388249Y-111228106D01*
X160373771Y-111246472D01*
X160369794Y-111250947D01*
X160369865Y-111251008D01*
X160366512Y-111254965D01*
X160362829Y-111258648D01*
X160359803Y-111262883D01*
X160359801Y-111262885D01*
X160351547Y-111274436D01*
X160347984Y-111279182D01*
X160316066Y-111319670D01*
X160313015Y-111328357D01*
X160307666Y-111335843D01*
X160304683Y-111345819D01*
X160304682Y-111345820D01*
X160292902Y-111385211D01*
X160291072Y-111390843D01*
X160273984Y-111439502D01*
X160273500Y-111445091D01*
X160273500Y-111447802D01*
X160273385Y-111450469D01*
X160273366Y-111450532D01*
X160273192Y-111450525D01*
X160273145Y-111451271D01*
X160271275Y-111457524D01*
X160271684Y-111467928D01*
X160273403Y-111511678D01*
X160273500Y-111516625D01*
X160273500Y-111549660D01*
X160253498Y-111617781D01*
X160247473Y-111626350D01*
X160166453Y-111731937D01*
X160110096Y-111867993D01*
X160109019Y-111876177D01*
X160109018Y-111876179D01*
X160093933Y-111990768D01*
X160090874Y-112014000D01*
X160110096Y-112160007D01*
X160113255Y-112167633D01*
X160162887Y-112287453D01*
X160166453Y-112296063D01*
X160171481Y-112302616D01*
X160171483Y-112302619D01*
X160183512Y-112318296D01*
X160209113Y-112384516D01*
X160194848Y-112454065D01*
X160183512Y-112471704D01*
X160171483Y-112487381D01*
X160171481Y-112487384D01*
X160166453Y-112493937D01*
X160110096Y-112629993D01*
X160090874Y-112776000D01*
X157861000Y-112776000D01*
X157861000Y-80391000D01*
X149986000Y-80391000D01*
X149917879Y-80370998D01*
X149871386Y-80317342D01*
X149860000Y-80265000D01*
X149860000Y-70230000D01*
X149880002Y-70161879D01*
X149933658Y-70115386D01*
X149986000Y-70104000D01*
X166022203Y-70104000D01*
X166090324Y-70124002D01*
G37*
G04 #@! TD.AperFunction*
M02*
