G04 #@! TF.GenerationSoftware,KiCad,Pcbnew,6.0.10-86aedd382b~118~ubuntu18.04.1*
G04 #@! TF.CreationDate,2024-12-06T10:51:47-07:00*
G04 #@! TF.ProjectId,ckt-iiab,636b742d-6969-4616-922e-6b696361645f,rev?*
G04 #@! TF.SameCoordinates,Original*
G04 #@! TF.FileFunction,Legend,Top*
G04 #@! TF.FilePolarity,Positive*
%FSLAX46Y46*%
G04 Gerber Fmt 4.6, Leading zero omitted, Abs format (unit mm)*
G04 Created by KiCad (PCBNEW 6.0.10-86aedd382b~118~ubuntu18.04.1) date 2024-12-06 10:51:47*
%MOMM*%
%LPD*%
G01*
G04 APERTURE LIST*
%ADD10C,0.203200*%
%ADD11C,0.000000*%
%ADD12C,0.152400*%
%ADD13C,0.304800*%
%ADD14C,0.254000*%
%ADD15C,0.300000*%
%ADD16C,0.150000*%
%ADD17C,0.120000*%
G04 APERTURE END LIST*
D10*
X161290000Y-98425000D02*
X161290000Y-88138000D01*
X87503000Y-123444000D02*
X87503004Y-126619000D01*
X157988000Y-88138000D02*
X161290000Y-88138000D01*
X113030000Y-126619000D02*
X113054003Y-116840000D01*
X157988000Y-108585000D02*
X161290000Y-108585000D01*
X157988000Y-100965000D02*
X170180000Y-100965000D01*
X113054003Y-116840000D02*
X145796000Y-116840000D01*
X126492007Y-73463988D02*
X126492007Y-70161988D01*
X145796000Y-126619000D02*
X145796000Y-116840000D01*
D11*
G36*
X158522349Y-82616825D02*
G01*
X158522349Y-82391047D01*
X158776349Y-82391047D01*
X158973905Y-82391047D01*
X159742960Y-82391047D01*
X159742960Y-82017103D01*
X158973905Y-82017103D01*
X158973905Y-82391047D01*
X158776349Y-82391047D01*
X158776349Y-82017103D01*
X158522349Y-82017103D01*
X158522349Y-81791325D01*
X158776349Y-81791325D01*
X158973905Y-81791325D01*
X159742960Y-81791325D01*
X159742960Y-81417381D01*
X158973905Y-81417381D01*
X158973905Y-81791325D01*
X158776349Y-81791325D01*
X158776349Y-81417381D01*
X158522349Y-81417381D01*
X158522349Y-81198658D01*
X158776349Y-81198658D01*
X158973905Y-81198658D01*
X159742960Y-81198658D01*
X159742960Y-80824714D01*
X158973905Y-80824714D01*
X158973905Y-81198658D01*
X158776349Y-81198658D01*
X158776349Y-80824714D01*
X158522349Y-80824714D01*
X158522349Y-80598936D01*
X158776349Y-80598936D01*
X158973905Y-80598936D01*
X159742960Y-80598936D01*
X159742960Y-80224992D01*
X158973905Y-80224992D01*
X158973905Y-80598936D01*
X158776349Y-80598936D01*
X158776349Y-80224992D01*
X158522349Y-80224992D01*
X158522349Y-80006270D01*
X158776349Y-80006270D01*
X158776349Y-79653492D01*
X158973905Y-79653492D01*
X158973905Y-80006270D01*
X159742960Y-80006270D01*
X159742960Y-79653492D01*
X159940516Y-79653492D01*
X159940516Y-80006270D01*
X160194516Y-80006270D01*
X160194516Y-80224992D01*
X159940516Y-80224992D01*
X159940516Y-80598936D01*
X160194516Y-80598936D01*
X160194516Y-80824714D01*
X159940516Y-80824714D01*
X159940516Y-81198658D01*
X160194516Y-81198658D01*
X160194516Y-81417381D01*
X159940516Y-81417381D01*
X159940516Y-81791325D01*
X160194516Y-81791325D01*
X160194516Y-82017103D01*
X159940516Y-82017103D01*
X159940516Y-82391047D01*
X160194516Y-82391047D01*
X160194516Y-82616825D01*
X159940516Y-82616825D01*
X159940516Y-82983714D01*
X160194516Y-82983714D01*
X160194516Y-83216548D01*
X159940516Y-83216548D01*
X159940516Y-83545336D01*
X159548932Y-84039930D01*
X159157349Y-84535230D01*
X159157349Y-85647186D01*
X159428988Y-85918825D01*
X160095738Y-85918825D01*
X160095738Y-85333919D01*
X160095710Y-85143652D01*
X160095645Y-85066319D01*
X160095517Y-84999762D01*
X160095424Y-84970269D01*
X160095307Y-84943164D01*
X160095165Y-84918344D01*
X160094994Y-84895707D01*
X160094792Y-84875152D01*
X160094556Y-84856575D01*
X160094285Y-84839875D01*
X160093974Y-84824949D01*
X160093622Y-84811696D01*
X160093226Y-84800012D01*
X160092784Y-84789797D01*
X160092545Y-84785207D01*
X160092293Y-84780947D01*
X160092028Y-84777002D01*
X160091750Y-84773361D01*
X160091458Y-84770009D01*
X160091152Y-84766936D01*
X160090833Y-84764127D01*
X160090498Y-84761570D01*
X160090149Y-84759252D01*
X160089785Y-84757161D01*
X160089405Y-84755283D01*
X160089009Y-84753606D01*
X160088597Y-84752118D01*
X160088169Y-84750805D01*
X160087724Y-84749654D01*
X160087262Y-84748653D01*
X160086782Y-84747790D01*
X160086285Y-84747050D01*
X160085769Y-84746422D01*
X160085235Y-84745893D01*
X160084682Y-84745450D01*
X160084111Y-84745079D01*
X160083520Y-84744770D01*
X160082909Y-84744508D01*
X160081627Y-84744075D01*
X160079297Y-84743183D01*
X160076815Y-84741971D01*
X160071440Y-84738650D01*
X160065603Y-84734235D01*
X160059402Y-84728850D01*
X160052936Y-84722618D01*
X160046305Y-84715661D01*
X160039608Y-84708103D01*
X160032944Y-84700066D01*
X160026412Y-84691673D01*
X160020111Y-84683048D01*
X160014142Y-84674314D01*
X160008602Y-84665593D01*
X160003591Y-84657008D01*
X159999209Y-84648683D01*
X159995555Y-84640740D01*
X159992727Y-84633303D01*
X159989700Y-84623153D01*
X159987228Y-84612590D01*
X159985307Y-84601682D01*
X159983929Y-84590496D01*
X159983089Y-84579099D01*
X159982780Y-84567558D01*
X159982996Y-84555941D01*
X159983731Y-84544315D01*
X159984978Y-84532746D01*
X159986732Y-84521303D01*
X159988986Y-84510052D01*
X159991735Y-84499060D01*
X159994971Y-84488395D01*
X159998688Y-84478123D01*
X160002881Y-84468313D01*
X160007543Y-84459031D01*
X160012072Y-84450947D01*
X160016684Y-84443341D01*
X160021414Y-84436181D01*
X160026296Y-84429430D01*
X160031364Y-84423056D01*
X160036652Y-84417024D01*
X160042194Y-84411299D01*
X160048025Y-84405849D01*
X160054178Y-84400638D01*
X160060687Y-84395634D01*
X160067588Y-84390800D01*
X160074913Y-84386104D01*
X160082697Y-84381512D01*
X160090974Y-84376989D01*
X160099778Y-84372501D01*
X160109143Y-84368014D01*
X160120471Y-84363038D01*
X160125632Y-84360968D01*
X160130575Y-84359161D01*
X160135385Y-84357607D01*
X160140149Y-84356293D01*
X160144955Y-84355209D01*
X160149889Y-84354344D01*
X160155038Y-84353684D01*
X160160489Y-84353220D01*
X160166329Y-84352941D01*
X160172644Y-84352833D01*
X160179521Y-84352887D01*
X160187047Y-84353091D01*
X160204393Y-84353902D01*
X160216450Y-84354700D01*
X160227787Y-84355785D01*
X160238463Y-84357180D01*
X160248535Y-84358907D01*
X160258061Y-84360991D01*
X160267100Y-84363452D01*
X160275708Y-84366315D01*
X160283945Y-84369601D01*
X160291867Y-84373334D01*
X160299533Y-84377536D01*
X160307001Y-84382230D01*
X160314328Y-84387439D01*
X160321572Y-84393185D01*
X160328792Y-84399491D01*
X160336044Y-84406380D01*
X160343388Y-84413875D01*
X160351254Y-84422367D01*
X160358464Y-84430685D01*
X160365036Y-84438886D01*
X160370993Y-84447025D01*
X160376354Y-84455160D01*
X160381141Y-84463348D01*
X160385373Y-84471645D01*
X160389073Y-84480109D01*
X160392259Y-84488796D01*
X160394954Y-84497763D01*
X160397178Y-84507067D01*
X160398950Y-84516765D01*
X160400293Y-84526913D01*
X160401227Y-84537569D01*
X160401772Y-84548789D01*
X160401949Y-84560630D01*
X160401799Y-84574143D01*
X160401081Y-84587170D01*
X160399788Y-84599724D01*
X160397914Y-84611816D01*
X160395453Y-84623458D01*
X160392399Y-84634660D01*
X160388746Y-84645435D01*
X160384486Y-84655793D01*
X160379615Y-84665745D01*
X160376949Y-84670573D01*
X160374126Y-84675304D01*
X160371148Y-84679940D01*
X160368013Y-84684481D01*
X160361269Y-84693286D01*
X160353889Y-84701732D01*
X160345866Y-84709830D01*
X160337193Y-84717590D01*
X160327866Y-84725025D01*
X160293999Y-84751131D01*
X160293999Y-85433402D01*
X160293293Y-86116380D01*
X159344321Y-86116380D01*
X159152410Y-85924470D01*
X158959794Y-85731853D01*
X158959794Y-84459031D01*
X159351377Y-83963731D01*
X159742960Y-83469136D01*
X159742960Y-83216548D01*
X158973905Y-83216548D01*
X158973905Y-83538986D01*
X158973199Y-83862130D01*
X158846905Y-84020880D01*
X158720610Y-84179630D01*
X158719905Y-85125075D01*
X158719905Y-86070519D01*
X158755182Y-86100859D01*
X158764727Y-86109331D01*
X158773528Y-86117840D01*
X158781604Y-86126421D01*
X158788972Y-86135111D01*
X158795649Y-86143945D01*
X158801654Y-86152960D01*
X158807003Y-86162193D01*
X158811715Y-86171678D01*
X158815807Y-86181453D01*
X158819296Y-86191554D01*
X158822200Y-86202016D01*
X158824536Y-86212876D01*
X158826323Y-86224170D01*
X158827578Y-86235935D01*
X158828318Y-86248206D01*
X158828560Y-86261019D01*
X158828639Y-86277558D01*
X158828515Y-86284854D01*
X158828263Y-86291601D01*
X158827865Y-86297877D01*
X158827308Y-86303758D01*
X158826574Y-86309321D01*
X158825650Y-86314642D01*
X158824519Y-86319797D01*
X158823165Y-86324864D01*
X158821574Y-86329918D01*
X158819730Y-86335036D01*
X158817617Y-86340295D01*
X158815219Y-86345771D01*
X158812522Y-86351540D01*
X158809510Y-86357680D01*
X158802186Y-86371412D01*
X158794239Y-86384295D01*
X158785676Y-86396323D01*
X158776503Y-86407488D01*
X158766727Y-86417785D01*
X158756354Y-86427208D01*
X158745389Y-86435750D01*
X158733839Y-86443405D01*
X158721711Y-86450168D01*
X158709010Y-86456031D01*
X158695743Y-86460989D01*
X158681915Y-86465035D01*
X158667533Y-86468164D01*
X158652604Y-86470368D01*
X158637133Y-86471642D01*
X158621127Y-86471980D01*
X158608539Y-86471747D01*
X158596421Y-86471038D01*
X158584751Y-86469841D01*
X158573502Y-86468144D01*
X158562650Y-86465934D01*
X158552170Y-86463199D01*
X158542037Y-86459927D01*
X158532227Y-86456105D01*
X158522714Y-86451721D01*
X158513475Y-86446762D01*
X158504483Y-86441216D01*
X158495714Y-86435071D01*
X158487144Y-86428314D01*
X158478748Y-86420932D01*
X158470500Y-86412914D01*
X158462377Y-86404247D01*
X158455008Y-86395659D01*
X158448241Y-86387069D01*
X158442065Y-86378441D01*
X158436470Y-86369741D01*
X158431445Y-86360934D01*
X158426981Y-86351984D01*
X158423066Y-86342856D01*
X158419691Y-86333515D01*
X158416845Y-86323927D01*
X158414518Y-86314055D01*
X158412699Y-86303864D01*
X158411379Y-86293321D01*
X158410546Y-86282388D01*
X158410191Y-86271032D01*
X158410303Y-86259217D01*
X158410871Y-86246908D01*
X158411929Y-86235019D01*
X158413513Y-86223432D01*
X158415620Y-86212151D01*
X158418247Y-86201180D01*
X158421390Y-86190522D01*
X158425047Y-86180184D01*
X158429215Y-86170167D01*
X158433890Y-86160478D01*
X158439070Y-86151119D01*
X158444750Y-86142095D01*
X158450929Y-86133409D01*
X158457603Y-86125068D01*
X158464769Y-86117073D01*
X158472424Y-86109430D01*
X158480565Y-86102142D01*
X158489188Y-86095214D01*
X158522349Y-86070519D01*
X158522349Y-85558991D01*
X158158988Y-85558991D01*
X158127944Y-85594975D01*
X158118239Y-85605598D01*
X158108068Y-85615380D01*
X158097469Y-85624325D01*
X158086480Y-85632440D01*
X158075139Y-85639729D01*
X158063484Y-85646198D01*
X158051553Y-85651853D01*
X158039385Y-85656700D01*
X158027018Y-85660744D01*
X158014489Y-85663990D01*
X158001837Y-85666444D01*
X157989099Y-85668112D01*
X157976315Y-85668999D01*
X157963522Y-85669110D01*
X157950758Y-85668452D01*
X157938061Y-85667030D01*
X157925470Y-85664849D01*
X157913022Y-85661915D01*
X157900756Y-85658234D01*
X157888709Y-85653810D01*
X157876921Y-85648651D01*
X157865428Y-85642760D01*
X157854270Y-85636144D01*
X157843483Y-85628809D01*
X157833108Y-85620759D01*
X157823180Y-85612001D01*
X157813739Y-85602539D01*
X157804823Y-85592380D01*
X157796469Y-85581529D01*
X157788716Y-85569992D01*
X157781603Y-85557774D01*
X157775166Y-85544881D01*
X157771827Y-85537282D01*
X157768821Y-85529575D01*
X157766145Y-85521770D01*
X157763797Y-85513880D01*
X157761775Y-85505916D01*
X157760075Y-85497888D01*
X157758697Y-85489809D01*
X157757637Y-85481689D01*
X157756464Y-85465375D01*
X157756538Y-85449035D01*
X157757839Y-85432762D01*
X157760349Y-85416646D01*
X157764050Y-85400778D01*
X157768923Y-85385249D01*
X157774950Y-85370150D01*
X157782111Y-85355571D01*
X157786112Y-85348506D01*
X157790389Y-85341605D01*
X157794940Y-85334880D01*
X157799764Y-85328341D01*
X157804857Y-85322001D01*
X157810218Y-85315871D01*
X157815844Y-85309963D01*
X157821733Y-85304286D01*
X157830092Y-85296916D01*
X157838270Y-85290142D01*
X157846319Y-85283946D01*
X157854287Y-85278313D01*
X157862227Y-85273225D01*
X157870188Y-85268666D01*
X157878222Y-85264620D01*
X157886379Y-85261071D01*
X157894709Y-85258000D01*
X157903264Y-85255393D01*
X157912094Y-85253232D01*
X157921249Y-85251502D01*
X157930780Y-85250184D01*
X157940739Y-85249264D01*
X157951174Y-85248723D01*
X157962138Y-85248547D01*
X157975378Y-85248733D01*
X157987887Y-85249311D01*
X157999728Y-85250305D01*
X158010965Y-85251744D01*
X158021660Y-85253654D01*
X158031876Y-85256063D01*
X158041678Y-85258996D01*
X158051126Y-85262482D01*
X158060286Y-85266546D01*
X158069219Y-85271216D01*
X158077988Y-85276518D01*
X158086658Y-85282480D01*
X158095290Y-85289128D01*
X158103948Y-85296489D01*
X158112695Y-85304590D01*
X158121594Y-85313458D01*
X158162516Y-85354380D01*
X158522349Y-85354380D01*
X158522349Y-84952214D01*
X157866183Y-84952214D01*
X157866183Y-84546520D01*
X157830199Y-84515475D01*
X157818873Y-84505137D01*
X157808451Y-84494253D01*
X157798942Y-84482857D01*
X157790357Y-84470981D01*
X157782707Y-84458658D01*
X157776001Y-84445923D01*
X157770250Y-84432806D01*
X157765464Y-84419343D01*
X157761655Y-84405565D01*
X157758831Y-84391507D01*
X157757003Y-84377200D01*
X157756182Y-84362678D01*
X157756378Y-84347974D01*
X157757601Y-84333122D01*
X157759862Y-84318154D01*
X157763171Y-84303103D01*
X157768531Y-84284926D01*
X157775061Y-84267719D01*
X157778753Y-84259488D01*
X157782724Y-84251511D01*
X157786968Y-84243790D01*
X157791482Y-84236329D01*
X157796260Y-84229131D01*
X157801298Y-84222201D01*
X157806592Y-84215541D01*
X157812136Y-84209155D01*
X157817926Y-84203047D01*
X157823957Y-84197219D01*
X157830225Y-84191677D01*
X157836726Y-84186422D01*
X157843453Y-84181458D01*
X157850403Y-84176790D01*
X157857572Y-84172420D01*
X157864953Y-84168351D01*
X157872544Y-84164589D01*
X157880338Y-84161135D01*
X157888333Y-84157993D01*
X157896521Y-84155168D01*
X157904900Y-84152661D01*
X157913465Y-84150478D01*
X157931132Y-84147094D01*
X157949486Y-84145043D01*
X157968488Y-84144353D01*
X157976386Y-84144547D01*
X157984200Y-84144994D01*
X157991928Y-84145694D01*
X157999566Y-84146642D01*
X158007108Y-84147836D01*
X158014550Y-84149275D01*
X158021890Y-84150955D01*
X158029122Y-84152875D01*
X158036242Y-84155031D01*
X158043247Y-84157421D01*
X158050131Y-84160043D01*
X158056892Y-84162894D01*
X158063524Y-84165973D01*
X158070025Y-84169275D01*
X158076388Y-84172800D01*
X158082612Y-84176544D01*
X158088690Y-84180505D01*
X158094620Y-84184681D01*
X158100397Y-84189068D01*
X158106016Y-84193666D01*
X158111475Y-84198471D01*
X158116768Y-84203480D01*
X158121891Y-84208692D01*
X158126841Y-84214104D01*
X158131613Y-84219713D01*
X158136204Y-84225517D01*
X158140608Y-84231513D01*
X158144822Y-84237700D01*
X158148842Y-84244074D01*
X158152663Y-84250633D01*
X158156282Y-84257375D01*
X158159694Y-84264297D01*
X158163315Y-84272725D01*
X158166505Y-84281815D01*
X158169264Y-84291483D01*
X158171589Y-84301648D01*
X158173480Y-84312225D01*
X158174936Y-84323134D01*
X158175956Y-84334290D01*
X158176539Y-84345612D01*
X158176683Y-84357017D01*
X158176389Y-84368422D01*
X158175654Y-84379744D01*
X158174477Y-84390900D01*
X158172859Y-84401809D01*
X158170796Y-84412387D01*
X158168290Y-84422551D01*
X158165338Y-84432220D01*
X158162698Y-84439081D01*
X158159335Y-84446364D01*
X158155336Y-84453961D01*
X158150786Y-84461765D01*
X158145773Y-84469668D01*
X158140385Y-84477562D01*
X158134706Y-84485341D01*
X158128826Y-84492897D01*
X158122829Y-84500122D01*
X158116804Y-84506909D01*
X158110836Y-84513150D01*
X158105013Y-84518738D01*
X158099422Y-84523565D01*
X158094149Y-84527524D01*
X158091659Y-84529145D01*
X158089281Y-84530508D01*
X158087026Y-84531600D01*
X158084905Y-84532408D01*
X158082537Y-84533258D01*
X158080450Y-84534309D01*
X158078625Y-84535696D01*
X158077044Y-84537557D01*
X158075692Y-84540024D01*
X158074549Y-84543235D01*
X158073598Y-84547325D01*
X158072822Y-84552428D01*
X158072203Y-84558681D01*
X158071724Y-84566218D01*
X158071113Y-84585689D01*
X158070850Y-84611922D01*
X158070794Y-84646003D01*
X158070794Y-84754659D01*
X158522349Y-84754659D01*
X158522349Y-84104136D01*
X158649349Y-83944681D01*
X158776349Y-83784519D01*
X158776349Y-83216548D01*
X158522349Y-83216548D01*
X158522349Y-82983714D01*
X158776349Y-82983714D01*
X158973905Y-82983714D01*
X159742960Y-82983714D01*
X159742960Y-82616825D01*
X158973905Y-82616825D01*
X158973905Y-82983714D01*
X158776349Y-82983714D01*
X158776349Y-82616825D01*
X158522349Y-82616825D01*
G37*
D10*
X123952000Y-126619000D02*
X123952000Y-116840000D01*
X113030000Y-73406000D02*
X113030000Y-70104000D01*
X157988000Y-98425000D02*
X170180000Y-98425000D01*
D11*
G36*
X169366738Y-79681714D02*
G01*
X169366738Y-80923492D01*
X167292404Y-80923492D01*
X167292404Y-82172325D01*
X168872849Y-82172325D01*
X168872849Y-83407047D01*
X167292404Y-83407047D01*
X167292404Y-84867547D01*
X169451405Y-84867547D01*
X169451405Y-86102269D01*
X165916571Y-86102269D01*
X165916571Y-85918825D01*
X166100015Y-85918825D01*
X169267960Y-85918825D01*
X169267960Y-85050992D01*
X167108959Y-85050992D01*
X167108959Y-83223603D01*
X168689404Y-83223603D01*
X168689404Y-82355770D01*
X167108959Y-82355770D01*
X167108959Y-80732992D01*
X169183293Y-80732992D01*
X169183293Y-79865159D01*
X166100015Y-79865159D01*
X166100015Y-85918825D01*
X165916571Y-85918825D01*
X165916571Y-79681714D01*
X169366738Y-79681714D01*
G37*
G36*
X159375366Y-77277005D02*
G01*
X159417964Y-77278352D01*
X159457651Y-77280510D01*
X159491650Y-77283429D01*
X159505648Y-77285158D01*
X159517182Y-77287059D01*
X159547930Y-77293440D01*
X159578252Y-77300938D01*
X159608135Y-77309544D01*
X159637568Y-77319250D01*
X159666538Y-77330047D01*
X159695032Y-77341927D01*
X159723039Y-77354882D01*
X159750545Y-77368903D01*
X159777539Y-77383983D01*
X159804007Y-77400113D01*
X159829939Y-77417285D01*
X159855320Y-77435490D01*
X159880139Y-77454721D01*
X159904384Y-77474968D01*
X159928041Y-77496224D01*
X159951099Y-77518481D01*
X159970934Y-77538961D01*
X159989958Y-77559917D01*
X160008170Y-77581347D01*
X160025568Y-77603247D01*
X160042152Y-77625614D01*
X160057920Y-77648445D01*
X160072872Y-77671737D01*
X160087007Y-77695487D01*
X160100323Y-77719692D01*
X160112819Y-77744348D01*
X160124494Y-77769453D01*
X160135348Y-77795004D01*
X160145380Y-77820996D01*
X160154587Y-77847428D01*
X160162970Y-77874296D01*
X160170527Y-77901597D01*
X160177018Y-77928999D01*
X160182472Y-77957400D01*
X160186892Y-77986656D01*
X160190282Y-78016625D01*
X160192648Y-78047165D01*
X160193992Y-78078132D01*
X160194319Y-78109385D01*
X160193634Y-78140781D01*
X160191939Y-78172176D01*
X160189241Y-78203429D01*
X160185541Y-78234397D01*
X160180845Y-78264937D01*
X160175158Y-78294906D01*
X160168482Y-78324162D01*
X160160822Y-78352562D01*
X160152182Y-78379964D01*
X160143688Y-78403905D01*
X160134599Y-78427326D01*
X160124897Y-78450253D01*
X160114567Y-78472712D01*
X160103593Y-78494728D01*
X160091957Y-78516328D01*
X160079642Y-78537537D01*
X160066634Y-78558381D01*
X160052914Y-78578887D01*
X160038467Y-78599079D01*
X160023275Y-78618984D01*
X160007323Y-78638627D01*
X159990594Y-78658035D01*
X159973071Y-78677233D01*
X159954737Y-78696247D01*
X159935577Y-78715103D01*
X159907580Y-78741049D01*
X159878882Y-78765444D01*
X159849477Y-78788291D01*
X159819359Y-78809592D01*
X159788521Y-78829352D01*
X159756958Y-78847572D01*
X159724664Y-78864257D01*
X159691631Y-78879409D01*
X159657854Y-78893032D01*
X159623327Y-78905128D01*
X159588044Y-78915700D01*
X159551997Y-78924752D01*
X159515182Y-78932287D01*
X159477591Y-78938308D01*
X159439220Y-78942818D01*
X159400060Y-78945820D01*
X159356335Y-78947148D01*
X159312792Y-78946124D01*
X159269513Y-78942779D01*
X159226582Y-78937143D01*
X159184080Y-78929246D01*
X159142091Y-78919117D01*
X159100698Y-78906787D01*
X159059982Y-78892286D01*
X159020028Y-78875643D01*
X158980916Y-78856888D01*
X158942731Y-78836052D01*
X158905554Y-78813164D01*
X158869469Y-78788255D01*
X158834558Y-78761354D01*
X158800903Y-78732492D01*
X158768588Y-78701697D01*
X158739196Y-78671052D01*
X158711619Y-78639460D01*
X158685866Y-78606950D01*
X158661950Y-78573551D01*
X158639882Y-78539292D01*
X158619673Y-78504202D01*
X158601335Y-78468311D01*
X158584879Y-78431646D01*
X158570316Y-78394237D01*
X158557659Y-78356113D01*
X158546917Y-78317303D01*
X158538103Y-78277835D01*
X158531228Y-78237739D01*
X158526303Y-78197043D01*
X158523339Y-78155777D01*
X158522349Y-78113969D01*
X158523105Y-78077496D01*
X158525357Y-78041387D01*
X158529076Y-78005677D01*
X158534237Y-77970400D01*
X158540814Y-77935590D01*
X158548780Y-77901282D01*
X158558108Y-77867509D01*
X158568773Y-77834305D01*
X158580746Y-77801705D01*
X158594003Y-77769743D01*
X158608516Y-77738452D01*
X158624259Y-77707868D01*
X158641206Y-77678023D01*
X158659330Y-77648952D01*
X158678604Y-77620690D01*
X158699003Y-77593270D01*
X158720499Y-77566726D01*
X158743066Y-77541093D01*
X158766678Y-77516405D01*
X158791308Y-77492695D01*
X158816929Y-77469998D01*
X158843516Y-77448349D01*
X158871042Y-77427780D01*
X158899480Y-77408326D01*
X158928803Y-77390022D01*
X158958986Y-77372901D01*
X158990001Y-77356998D01*
X159021823Y-77342346D01*
X159054425Y-77328980D01*
X159087780Y-77316933D01*
X159121861Y-77306241D01*
X159156644Y-77296937D01*
X159179243Y-77291623D01*
X159200917Y-77286706D01*
X159210621Y-77284603D01*
X159219151Y-77282848D01*
X159226193Y-77281522D01*
X159231432Y-77280709D01*
X159243463Y-77279385D01*
X159257891Y-77278319D01*
X159292551Y-77276938D01*
X159332636Y-77276517D01*
X159375366Y-77277005D01*
G37*
D10*
X98170997Y-123444000D02*
X98171004Y-126619000D01*
D11*
G36*
X160709343Y-83516365D02*
G01*
X160724210Y-83518134D01*
X160738993Y-83520803D01*
X160753580Y-83524346D01*
X160767862Y-83528731D01*
X160781727Y-83533931D01*
X160795065Y-83539917D01*
X160807765Y-83546659D01*
X160819717Y-83554128D01*
X160830810Y-83562297D01*
X160835999Y-83566634D01*
X160840933Y-83571135D01*
X160845597Y-83575796D01*
X160849977Y-83580614D01*
X160858727Y-83591159D01*
X160866727Y-83602005D01*
X160873982Y-83613122D01*
X160880496Y-83624481D01*
X160886276Y-83636051D01*
X160891328Y-83647802D01*
X160895656Y-83659705D01*
X160899266Y-83671730D01*
X160902165Y-83683846D01*
X160904357Y-83696025D01*
X160905848Y-83708236D01*
X160906643Y-83720450D01*
X160906749Y-83732636D01*
X160906170Y-83744765D01*
X160904912Y-83756807D01*
X160902982Y-83768732D01*
X160900383Y-83780511D01*
X160897123Y-83792112D01*
X160893206Y-83803508D01*
X160888638Y-83814667D01*
X160883424Y-83825559D01*
X160877571Y-83836156D01*
X160871083Y-83846427D01*
X160863967Y-83856343D01*
X160856227Y-83865872D01*
X160847870Y-83874987D01*
X160838900Y-83883656D01*
X160829324Y-83891850D01*
X160819147Y-83899540D01*
X160808375Y-83906694D01*
X160797012Y-83913284D01*
X160785066Y-83919280D01*
X160775131Y-83923497D01*
X160764690Y-83927152D01*
X160753815Y-83930244D01*
X160742578Y-83932774D01*
X160731052Y-83934742D01*
X160719308Y-83936148D01*
X160707420Y-83936991D01*
X160695460Y-83937272D01*
X160683500Y-83936991D01*
X160671612Y-83936148D01*
X160659868Y-83934742D01*
X160648342Y-83932774D01*
X160637105Y-83930244D01*
X160626230Y-83927152D01*
X160615789Y-83923497D01*
X160605855Y-83919280D01*
X160599220Y-83915834D01*
X160592099Y-83911653D01*
X160584619Y-83906845D01*
X160576905Y-83901520D01*
X160569083Y-83895786D01*
X160561280Y-83889751D01*
X160553622Y-83883523D01*
X160546235Y-83877212D01*
X160539245Y-83870925D01*
X160532777Y-83864772D01*
X160526959Y-83858861D01*
X160521915Y-83853300D01*
X160517773Y-83848198D01*
X160516080Y-83845853D01*
X160514659Y-83843664D01*
X160513526Y-83841643D01*
X160512697Y-83839805D01*
X160512189Y-83838163D01*
X160512016Y-83836731D01*
X160511292Y-83836078D01*
X160509167Y-83835445D01*
X160501002Y-83834250D01*
X160488091Y-83833171D01*
X160471005Y-83832233D01*
X160450314Y-83831460D01*
X160426588Y-83830877D01*
X160372316Y-83830381D01*
X160232616Y-83830381D01*
X159977205Y-84152819D01*
X159721794Y-84475964D01*
X159721794Y-85267597D01*
X159740138Y-85277475D01*
X159745949Y-85280927D01*
X159751966Y-85285149D01*
X159758129Y-85290068D01*
X159764380Y-85295610D01*
X159770661Y-85301702D01*
X159776911Y-85308270D01*
X159783072Y-85315241D01*
X159789086Y-85322542D01*
X159794893Y-85330100D01*
X159800434Y-85337840D01*
X159805651Y-85345690D01*
X159810484Y-85353576D01*
X159814875Y-85361424D01*
X159818765Y-85369162D01*
X159822094Y-85376717D01*
X159824805Y-85384013D01*
X159827716Y-85394141D01*
X159830105Y-85404874D01*
X159831976Y-85416108D01*
X159833337Y-85427736D01*
X159834194Y-85439654D01*
X159834553Y-85451755D01*
X159834420Y-85463936D01*
X159833801Y-85476089D01*
X159832702Y-85488110D01*
X159831130Y-85499893D01*
X159829091Y-85511333D01*
X159826591Y-85522325D01*
X159823636Y-85532762D01*
X159820232Y-85542541D01*
X159816387Y-85551554D01*
X159812105Y-85559697D01*
X159803936Y-85572653D01*
X159795305Y-85584795D01*
X159786213Y-85596121D01*
X159776662Y-85606627D01*
X159766651Y-85616311D01*
X159756183Y-85625169D01*
X159745257Y-85633198D01*
X159733876Y-85640395D01*
X159722040Y-85646757D01*
X159709751Y-85652281D01*
X159697009Y-85656963D01*
X159683815Y-85660801D01*
X159670170Y-85663792D01*
X159656076Y-85665932D01*
X159641534Y-85667218D01*
X159626543Y-85667647D01*
X159615259Y-85667385D01*
X159604168Y-85666604D01*
X159593280Y-85665316D01*
X159582607Y-85663531D01*
X159572161Y-85661262D01*
X159561951Y-85658518D01*
X159551988Y-85655311D01*
X159542285Y-85651651D01*
X159532851Y-85647550D01*
X159523698Y-85643019D01*
X159514837Y-85638069D01*
X159506278Y-85632710D01*
X159498033Y-85626954D01*
X159490113Y-85620811D01*
X159482528Y-85614293D01*
X159475290Y-85607410D01*
X159468410Y-85600174D01*
X159461898Y-85592596D01*
X159455765Y-85584686D01*
X159450024Y-85576455D01*
X159444684Y-85567915D01*
X159439756Y-85559077D01*
X159435252Y-85549951D01*
X159431182Y-85540548D01*
X159427558Y-85530879D01*
X159424390Y-85520956D01*
X159421689Y-85510790D01*
X159419467Y-85500390D01*
X159417734Y-85489769D01*
X159416502Y-85478938D01*
X159415781Y-85467906D01*
X159415582Y-85456686D01*
X159415856Y-85444431D01*
X159416679Y-85432529D01*
X159418057Y-85420970D01*
X159419992Y-85409744D01*
X159422490Y-85398841D01*
X159425554Y-85388250D01*
X159429189Y-85377960D01*
X159433398Y-85367962D01*
X159438186Y-85358246D01*
X159443557Y-85348799D01*
X159449515Y-85339614D01*
X159456064Y-85330678D01*
X159463208Y-85321983D01*
X159470952Y-85313516D01*
X159479300Y-85305269D01*
X159488255Y-85297231D01*
X159524238Y-85266186D01*
X159524238Y-84400469D01*
X159829744Y-84013825D01*
X160134543Y-83626475D01*
X160321516Y-83625769D01*
X160508488Y-83625064D01*
X160527538Y-83597547D01*
X160532123Y-83591258D01*
X160537129Y-83585101D01*
X160542532Y-83579092D01*
X160548308Y-83573250D01*
X160554430Y-83567588D01*
X160560875Y-83562126D01*
X160567618Y-83556878D01*
X160574634Y-83551862D01*
X160581897Y-83547094D01*
X160589384Y-83542591D01*
X160597069Y-83538369D01*
X160604928Y-83534444D01*
X160612936Y-83530834D01*
X160621068Y-83527554D01*
X160629299Y-83524622D01*
X160637605Y-83522053D01*
X160644355Y-83520335D01*
X160651237Y-83518881D01*
X160665338Y-83516756D01*
X160679796Y-83515647D01*
X160694501Y-83515526D01*
X160709343Y-83516365D01*
G37*
D10*
X161290000Y-103505000D02*
X161290000Y-108585000D01*
X134874000Y-126619000D02*
X134874000Y-116840000D01*
X139954007Y-73463988D02*
X139954007Y-70161988D01*
X157988000Y-103505000D02*
X170180000Y-103505000D01*
D11*
G36*
X161018902Y-84337057D02*
G01*
X161013494Y-84312898D01*
X161010092Y-84294134D01*
X161008904Y-84281464D01*
X161009205Y-84277632D01*
X161010138Y-84275586D01*
X161224373Y-84226825D01*
X161688441Y-84126802D01*
X162151848Y-84029027D01*
X162364099Y-83987013D01*
X162365009Y-83989426D01*
X162366613Y-83995337D01*
X162371507Y-84016030D01*
X162377990Y-84045850D01*
X162385266Y-84081558D01*
X162401896Y-84159809D01*
X162420812Y-84234989D01*
X162441983Y-84307051D01*
X162465379Y-84375951D01*
X162490971Y-84441643D01*
X162518727Y-84504081D01*
X162548619Y-84563221D01*
X162580616Y-84619015D01*
X162597395Y-84645644D01*
X162614689Y-84671420D01*
X162632494Y-84696337D01*
X162650807Y-84720389D01*
X162669623Y-84743571D01*
X162688940Y-84765878D01*
X162708753Y-84787302D01*
X162729059Y-84807839D01*
X162749853Y-84827484D01*
X162771133Y-84846229D01*
X162792894Y-84864071D01*
X162815132Y-84881002D01*
X162837845Y-84897018D01*
X162861027Y-84912112D01*
X162884676Y-84926279D01*
X162908788Y-84939513D01*
X162939579Y-84954843D01*
X162970565Y-84968552D01*
X163001747Y-84980640D01*
X163033120Y-84991107D01*
X163064684Y-84999955D01*
X163096435Y-85007181D01*
X163128373Y-85012787D01*
X163160495Y-85016772D01*
X163192798Y-85019137D01*
X163225282Y-85019881D01*
X163257943Y-85019005D01*
X163290780Y-85016508D01*
X163323791Y-85012390D01*
X163356973Y-85006652D01*
X163390324Y-84999293D01*
X163423844Y-84990314D01*
X163473233Y-84973871D01*
X163520013Y-84953985D01*
X163564103Y-84930769D01*
X163605425Y-84904335D01*
X163643898Y-84874797D01*
X163679443Y-84842267D01*
X163711981Y-84806858D01*
X163741432Y-84768681D01*
X163767715Y-84727851D01*
X163790753Y-84684479D01*
X163810465Y-84638678D01*
X163826771Y-84590561D01*
X163839592Y-84540241D01*
X163848848Y-84487830D01*
X163854461Y-84433441D01*
X163856349Y-84377186D01*
X163855749Y-84346111D01*
X163853933Y-84315808D01*
X163850875Y-84286209D01*
X163846548Y-84257242D01*
X163840928Y-84228837D01*
X163833988Y-84200924D01*
X163825702Y-84173433D01*
X163816044Y-84146293D01*
X163804989Y-84119434D01*
X163792511Y-84092787D01*
X163778584Y-84066279D01*
X163763182Y-84039842D01*
X163746280Y-84013405D01*
X163727851Y-83986898D01*
X163707870Y-83960250D01*
X163686310Y-83933391D01*
X163657246Y-83899501D01*
X163626608Y-83866394D01*
X163593894Y-83833729D01*
X163558604Y-83801166D01*
X163520239Y-83768363D01*
X163478298Y-83734979D01*
X163432280Y-83700673D01*
X163381686Y-83665104D01*
X163264768Y-83588813D01*
X163123541Y-83503378D01*
X162954004Y-83406069D01*
X162752155Y-83294159D01*
X162588985Y-83204002D01*
X162448512Y-83124693D01*
X162327238Y-83054049D01*
X162221665Y-82989888D01*
X162128296Y-82930026D01*
X162043634Y-82872280D01*
X161964180Y-82814469D01*
X161886438Y-82754408D01*
X161845261Y-82720336D01*
X161800173Y-82680667D01*
X161752952Y-82637144D01*
X161705375Y-82591513D01*
X161659220Y-82545519D01*
X161616265Y-82500905D01*
X161578288Y-82459416D01*
X161561721Y-82440389D01*
X161547066Y-82422798D01*
X161501836Y-82364292D01*
X161459800Y-82304894D01*
X161420943Y-82244556D01*
X161385251Y-82183228D01*
X161352709Y-82120863D01*
X161323303Y-82057412D01*
X161297018Y-81992826D01*
X161273839Y-81927056D01*
X161253753Y-81860055D01*
X161236745Y-81791773D01*
X161222801Y-81722162D01*
X161211905Y-81651173D01*
X161204043Y-81578758D01*
X161199202Y-81504868D01*
X161197366Y-81429455D01*
X161198521Y-81352470D01*
X161202838Y-81266975D01*
X161209704Y-81183522D01*
X161219123Y-81102103D01*
X161231098Y-81022710D01*
X161245632Y-80945335D01*
X161262728Y-80869969D01*
X161282390Y-80796603D01*
X161304619Y-80725231D01*
X161329420Y-80655842D01*
X161356796Y-80588430D01*
X161386749Y-80522986D01*
X161419283Y-80459501D01*
X161454401Y-80397967D01*
X161492105Y-80338377D01*
X161532400Y-80280721D01*
X161575288Y-80224992D01*
X161586855Y-80211125D01*
X161599989Y-80196111D01*
X161630156Y-80163410D01*
X161664176Y-80128427D01*
X161700436Y-80092700D01*
X161737325Y-80057767D01*
X161773230Y-80025165D01*
X161806538Y-79996433D01*
X161821715Y-79983999D01*
X161835638Y-79973109D01*
X161888482Y-79935300D01*
X161943273Y-79899406D01*
X161999971Y-79865438D01*
X162058539Y-79833409D01*
X162118938Y-79803331D01*
X162181130Y-79775217D01*
X162245077Y-79749079D01*
X162310741Y-79724930D01*
X162378084Y-79702781D01*
X162447067Y-79682646D01*
X162517651Y-79664536D01*
X162589800Y-79648465D01*
X162663473Y-79634444D01*
X162738635Y-79622486D01*
X162815245Y-79612603D01*
X162893266Y-79604809D01*
X162940640Y-79602000D01*
X163002252Y-79599936D01*
X163073224Y-79598632D01*
X163148677Y-79598106D01*
X163223733Y-79598373D01*
X163293514Y-79599451D01*
X163353142Y-79601355D01*
X163397738Y-79604103D01*
X163553373Y-79623361D01*
X163703451Y-79652199D01*
X163776349Y-79670167D01*
X163847789Y-79690476D01*
X163917749Y-79713109D01*
X163986204Y-79738048D01*
X164053133Y-79765276D01*
X164118513Y-79794774D01*
X164182320Y-79826524D01*
X164244533Y-79860509D01*
X164305127Y-79896711D01*
X164364080Y-79935112D01*
X164421370Y-79975695D01*
X164476973Y-80018441D01*
X164530867Y-80063332D01*
X164583028Y-80110351D01*
X164633434Y-80159480D01*
X164682063Y-80210702D01*
X164728890Y-80263997D01*
X164773893Y-80319349D01*
X164817050Y-80376740D01*
X164858337Y-80436151D01*
X164897732Y-80497566D01*
X164935211Y-80560966D01*
X164970753Y-80626332D01*
X165004333Y-80693649D01*
X165035930Y-80762897D01*
X165065520Y-80834059D01*
X165118588Y-80982053D01*
X165129955Y-81018239D01*
X165141926Y-81058947D01*
X165153848Y-81101624D01*
X165165066Y-81143713D01*
X165174929Y-81182661D01*
X165182782Y-81215911D01*
X165187973Y-81240910D01*
X165189366Y-81249517D01*
X165189849Y-81255103D01*
X165188078Y-81257017D01*
X165182595Y-81259901D01*
X165159466Y-81268883D01*
X165057381Y-81301846D01*
X164867190Y-81358886D01*
X164572488Y-81444897D01*
X164332312Y-81514328D01*
X164135396Y-81570662D01*
X164001980Y-81608211D01*
X163965410Y-81618163D01*
X163952305Y-81621286D01*
X163951106Y-81618808D01*
X163948667Y-81612709D01*
X163940663Y-81591300D01*
X163929484Y-81560366D01*
X163916321Y-81523214D01*
X163885707Y-81439697D01*
X163854402Y-81361591D01*
X163822325Y-81288799D01*
X163789398Y-81221225D01*
X163755541Y-81158774D01*
X163720674Y-81101348D01*
X163702837Y-81074490D01*
X163684718Y-81048853D01*
X163666306Y-81024424D01*
X163647593Y-81001191D01*
X163628567Y-80979143D01*
X163609219Y-80958267D01*
X163589539Y-80938552D01*
X163569517Y-80919985D01*
X163549143Y-80902554D01*
X163528408Y-80886248D01*
X163507300Y-80871054D01*
X163485811Y-80856960D01*
X163463930Y-80843955D01*
X163441647Y-80832026D01*
X163418953Y-80821161D01*
X163395838Y-80811348D01*
X163372290Y-80802576D01*
X163348302Y-80794832D01*
X163323862Y-80788104D01*
X163298960Y-80782381D01*
X163282305Y-80779140D01*
X163264472Y-80776297D01*
X163245641Y-80773852D01*
X163225990Y-80771808D01*
X163184945Y-80768924D01*
X163142768Y-80767652D01*
X163100888Y-80768001D01*
X163060736Y-80769979D01*
X163041755Y-80771581D01*
X163023743Y-80773593D01*
X163006877Y-80776017D01*
X162991338Y-80778853D01*
X162945845Y-80789951D01*
X162903022Y-80803670D01*
X162862862Y-80820021D01*
X162825356Y-80839013D01*
X162807596Y-80849502D01*
X162790496Y-80860654D01*
X162774055Y-80872472D01*
X162758273Y-80884955D01*
X162743148Y-80898105D01*
X162728680Y-80911924D01*
X162714866Y-80926413D01*
X162701707Y-80941572D01*
X162689201Y-80957402D01*
X162677348Y-80973906D01*
X162666145Y-80991084D01*
X162655593Y-81008937D01*
X162636434Y-81046674D01*
X162619863Y-81087126D01*
X162605872Y-81130302D01*
X162594452Y-81176212D01*
X162585595Y-81224864D01*
X162579293Y-81276270D01*
X162577477Y-81297724D01*
X162576271Y-81318225D01*
X162575692Y-81337863D01*
X162575755Y-81356725D01*
X162576475Y-81374901D01*
X162577867Y-81392479D01*
X162579948Y-81409550D01*
X162582733Y-81426200D01*
X162586237Y-81442520D01*
X162590476Y-81458598D01*
X162595466Y-81474523D01*
X162601221Y-81490384D01*
X162607758Y-81506269D01*
X162615091Y-81522269D01*
X162623237Y-81538471D01*
X162632210Y-81554964D01*
X162643581Y-81574189D01*
X162656268Y-81593508D01*
X162670282Y-81612930D01*
X162685634Y-81632465D01*
X162702334Y-81652124D01*
X162720391Y-81671918D01*
X162739817Y-81691857D01*
X162760621Y-81711950D01*
X162782815Y-81732209D01*
X162806408Y-81752644D01*
X162831411Y-81773264D01*
X162857834Y-81794081D01*
X162885687Y-81815105D01*
X162914981Y-81836346D01*
X162945726Y-81857814D01*
X162977932Y-81879520D01*
X163023431Y-81909218D01*
X163069136Y-81937981D01*
X163117769Y-81967390D01*
X163172048Y-81999023D01*
X163308430Y-82075278D01*
X163500043Y-82179381D01*
X163631112Y-82250144D01*
X163743725Y-82311706D01*
X163840860Y-82365776D01*
X163925494Y-82414066D01*
X164000602Y-82458289D01*
X164069162Y-82500155D01*
X164134150Y-82541376D01*
X164198543Y-82583664D01*
X164320633Y-82668689D01*
X164434561Y-82755072D01*
X164540434Y-82842981D01*
X164638358Y-82932583D01*
X164728440Y-83024045D01*
X164810785Y-83117535D01*
X164885501Y-83213220D01*
X164952694Y-83311268D01*
X165012471Y-83411846D01*
X165064937Y-83515121D01*
X165110199Y-83621262D01*
X165148365Y-83730434D01*
X165179539Y-83842807D01*
X165203829Y-83958546D01*
X165221341Y-84077821D01*
X165232182Y-84200797D01*
X165235206Y-84276377D01*
X165235335Y-84354322D01*
X165232654Y-84433689D01*
X165227243Y-84513535D01*
X165219187Y-84592918D01*
X165208568Y-84670896D01*
X165195468Y-84746525D01*
X165179971Y-84818864D01*
X165143872Y-84950142D01*
X165098945Y-85075838D01*
X165045390Y-85195774D01*
X164983408Y-85309776D01*
X164913198Y-85417668D01*
X164834963Y-85519274D01*
X164748901Y-85614418D01*
X164655214Y-85702925D01*
X164554102Y-85784619D01*
X164445766Y-85859324D01*
X164330406Y-85926865D01*
X164208223Y-85987065D01*
X164079417Y-86039750D01*
X163944188Y-86084743D01*
X163802737Y-86121869D01*
X163655266Y-86150952D01*
X163549012Y-86166291D01*
X163439707Y-86177885D01*
X163328799Y-86185692D01*
X163217733Y-86189670D01*
X163107957Y-86189779D01*
X163000918Y-86185977D01*
X162898063Y-86178223D01*
X162848656Y-86172851D01*
X162800838Y-86166475D01*
X162686069Y-86146591D01*
X162574606Y-86121343D01*
X162466462Y-86090738D01*
X162361652Y-86054788D01*
X162260191Y-86013500D01*
X162162093Y-85966884D01*
X162067372Y-85914950D01*
X161976044Y-85857706D01*
X161888122Y-85795163D01*
X161803621Y-85727328D01*
X161722555Y-85654213D01*
X161644940Y-85575826D01*
X161570788Y-85492175D01*
X161500116Y-85403272D01*
X161432937Y-85309124D01*
X161369266Y-85209742D01*
X161345686Y-85169167D01*
X161319138Y-85120489D01*
X161290821Y-85066122D01*
X161261933Y-85008482D01*
X161233674Y-84949981D01*
X161207241Y-84893035D01*
X161183835Y-84840058D01*
X161164654Y-84793464D01*
X161137613Y-84721668D01*
X161109456Y-84640711D01*
X161081844Y-84556182D01*
X161056440Y-84473671D01*
X161041579Y-84421981D01*
X161237798Y-84421981D01*
X161238032Y-84425428D01*
X161238729Y-84429760D01*
X161239904Y-84435098D01*
X161241570Y-84441562D01*
X161243743Y-84449274D01*
X161249666Y-84468923D01*
X161257788Y-84495014D01*
X161276130Y-84551599D01*
X161295417Y-84607540D01*
X161315617Y-84662772D01*
X161336700Y-84717231D01*
X161358635Y-84770850D01*
X161381390Y-84823564D01*
X161404935Y-84875309D01*
X161429238Y-84926020D01*
X161454269Y-84975631D01*
X161479997Y-85024077D01*
X161506390Y-85071293D01*
X161533418Y-85117214D01*
X161561049Y-85161776D01*
X161589253Y-85204911D01*
X161617999Y-85246557D01*
X161647255Y-85286647D01*
X161708493Y-85364172D01*
X161772367Y-85437214D01*
X161838899Y-85505787D01*
X161908112Y-85569906D01*
X161980029Y-85629584D01*
X162054672Y-85684837D01*
X162132064Y-85735678D01*
X162212228Y-85782124D01*
X162295187Y-85824186D01*
X162380964Y-85861882D01*
X162469580Y-85895224D01*
X162561059Y-85924227D01*
X162655424Y-85948906D01*
X162752698Y-85969275D01*
X162852902Y-85985349D01*
X162956060Y-85997141D01*
X163011802Y-86000731D01*
X163079599Y-86002576D01*
X163155564Y-86002784D01*
X163235813Y-86001463D01*
X163316459Y-85998719D01*
X163393615Y-85994661D01*
X163463396Y-85989395D01*
X163521916Y-85983030D01*
X163604550Y-85970661D01*
X163684974Y-85956040D01*
X163763194Y-85939166D01*
X163839217Y-85920037D01*
X163913049Y-85898651D01*
X163984697Y-85875006D01*
X164054165Y-85849099D01*
X164121461Y-85820929D01*
X164186591Y-85790493D01*
X164249561Y-85757790D01*
X164310377Y-85722817D01*
X164369045Y-85685573D01*
X164425572Y-85646054D01*
X164479964Y-85604260D01*
X164532226Y-85560188D01*
X164582366Y-85513836D01*
X164628342Y-85467400D01*
X164671833Y-85419600D01*
X164712869Y-85370378D01*
X164751478Y-85319676D01*
X164787690Y-85267436D01*
X164821532Y-85213600D01*
X164853035Y-85158111D01*
X164882227Y-85100910D01*
X164909136Y-85041939D01*
X164933793Y-84981142D01*
X164956225Y-84918459D01*
X164976463Y-84853833D01*
X164994534Y-84787206D01*
X165010467Y-84718521D01*
X165024292Y-84647718D01*
X165036038Y-84574742D01*
X165038611Y-84553444D01*
X165040776Y-84527558D01*
X165043909Y-84464631D01*
X165045489Y-84391187D01*
X165045563Y-84312451D01*
X165044182Y-84233650D01*
X165041396Y-84160007D01*
X165037253Y-84096750D01*
X165031804Y-84049103D01*
X165025077Y-84010356D01*
X165016745Y-83968526D01*
X165007124Y-83924893D01*
X164996527Y-83880739D01*
X164985268Y-83837346D01*
X164973663Y-83795996D01*
X164962024Y-83757969D01*
X164950666Y-83724547D01*
X164939811Y-83696187D01*
X164927921Y-83667265D01*
X164915054Y-83637880D01*
X164901266Y-83608131D01*
X164886613Y-83578117D01*
X164871154Y-83547938D01*
X164838041Y-83487481D01*
X164802382Y-83427552D01*
X164764630Y-83368947D01*
X164745112Y-83340389D01*
X164725242Y-83312459D01*
X164705076Y-83285256D01*
X164684671Y-83258880D01*
X164670883Y-83242148D01*
X164654598Y-83223377D01*
X164615802Y-83180961D01*
X164570805Y-83134113D01*
X164522129Y-83085314D01*
X164472295Y-83037044D01*
X164423825Y-82991784D01*
X164379242Y-82952014D01*
X164341066Y-82920214D01*
X164253606Y-82853002D01*
X164166716Y-82789841D01*
X164076139Y-82728102D01*
X163977617Y-82665156D01*
X163866890Y-82598373D01*
X163739701Y-82525125D01*
X163591792Y-82442782D01*
X163418905Y-82348714D01*
X163244964Y-82253988D01*
X163099872Y-82172854D01*
X163036886Y-82136568D01*
X162979601Y-82102701D01*
X162927515Y-82070926D01*
X162880125Y-82040915D01*
X162836926Y-82012344D01*
X162797416Y-81984884D01*
X162761092Y-81958210D01*
X162727449Y-81931995D01*
X162695985Y-81905912D01*
X162666197Y-81879635D01*
X162637580Y-81852837D01*
X162609632Y-81825192D01*
X162582875Y-81797458D01*
X162558130Y-81770276D01*
X162535339Y-81743533D01*
X162514448Y-81717120D01*
X162495402Y-81690927D01*
X162478143Y-81664842D01*
X162462616Y-81638755D01*
X162448766Y-81612555D01*
X162436536Y-81586132D01*
X162425871Y-81559375D01*
X162416715Y-81532174D01*
X162409012Y-81504418D01*
X162402706Y-81475996D01*
X162397742Y-81446798D01*
X162394064Y-81416713D01*
X162391616Y-81385631D01*
X162389926Y-81336777D01*
X162390899Y-81288221D01*
X162394468Y-81240131D01*
X162400568Y-81192672D01*
X162409131Y-81146012D01*
X162420092Y-81100315D01*
X162433384Y-81055749D01*
X162448942Y-81012480D01*
X162466700Y-80970675D01*
X162486590Y-80930499D01*
X162508548Y-80892120D01*
X162532506Y-80855703D01*
X162558400Y-80821416D01*
X162586162Y-80789424D01*
X162615726Y-80759894D01*
X162631164Y-80746104D01*
X162647027Y-80732992D01*
X162693609Y-80699558D01*
X162743889Y-80670178D01*
X162797415Y-80644870D01*
X162853733Y-80623653D01*
X162912390Y-80606545D01*
X162972936Y-80593565D01*
X163034915Y-80584731D01*
X163097877Y-80580063D01*
X163161367Y-80579578D01*
X163224935Y-80583296D01*
X163288126Y-80591234D01*
X163350488Y-80603412D01*
X163411568Y-80619848D01*
X163470915Y-80640561D01*
X163528074Y-80665569D01*
X163582594Y-80694892D01*
X163598437Y-80704906D01*
X163615416Y-80716831D01*
X163633341Y-80730479D01*
X163652025Y-80745659D01*
X163671279Y-80762182D01*
X163690916Y-80779860D01*
X163710747Y-80798504D01*
X163730584Y-80817923D01*
X163750239Y-80837930D01*
X163769524Y-80858334D01*
X163788252Y-80878947D01*
X163806233Y-80899580D01*
X163823279Y-80920043D01*
X163839204Y-80940148D01*
X163853817Y-80959705D01*
X163866933Y-80978525D01*
X163889003Y-81013478D01*
X163912000Y-81052564D01*
X163935394Y-81094760D01*
X163958655Y-81139039D01*
X163981255Y-81184377D01*
X164002664Y-81229747D01*
X164022353Y-81274126D01*
X164039793Y-81316487D01*
X164044129Y-81327373D01*
X164048153Y-81337298D01*
X164051883Y-81346292D01*
X164055338Y-81354388D01*
X164058536Y-81361615D01*
X164061497Y-81368006D01*
X164062895Y-81370896D01*
X164064239Y-81373590D01*
X164065534Y-81376089D01*
X164066781Y-81378399D01*
X164067982Y-81380522D01*
X164069140Y-81382464D01*
X164070258Y-81384227D01*
X164071337Y-81385815D01*
X164072379Y-81387233D01*
X164073388Y-81388485D01*
X164074365Y-81389574D01*
X164075314Y-81390503D01*
X164076235Y-81391278D01*
X164077132Y-81391902D01*
X164078006Y-81392378D01*
X164078861Y-81392711D01*
X164079698Y-81392904D01*
X164080519Y-81392962D01*
X164081328Y-81392888D01*
X164082127Y-81392686D01*
X164519571Y-81265686D01*
X164824459Y-81177051D01*
X164919919Y-81148708D01*
X164947180Y-81140353D01*
X164958427Y-81136570D01*
X164960153Y-81135721D01*
X164961617Y-81134708D01*
X164962806Y-81133449D01*
X164963707Y-81131862D01*
X164964307Y-81129866D01*
X164964591Y-81127380D01*
X164964546Y-81124320D01*
X164964159Y-81120606D01*
X164963417Y-81116157D01*
X164962306Y-81110890D01*
X164958923Y-81097577D01*
X164953903Y-81080014D01*
X164947138Y-81057547D01*
X164932526Y-81012132D01*
X164916756Y-80966947D01*
X164899865Y-80922055D01*
X164881885Y-80877520D01*
X164862851Y-80833408D01*
X164842797Y-80789781D01*
X164821757Y-80746704D01*
X164799765Y-80704240D01*
X164776855Y-80662455D01*
X164753062Y-80621412D01*
X164728419Y-80581175D01*
X164702960Y-80541808D01*
X164676721Y-80503376D01*
X164649734Y-80465942D01*
X164622033Y-80429570D01*
X164593654Y-80394325D01*
X164581116Y-80379627D01*
X164567166Y-80363956D01*
X164535733Y-80330362D01*
X164500761Y-80294883D01*
X164463656Y-80258859D01*
X164425823Y-80223628D01*
X164388668Y-80190530D01*
X164353597Y-80160905D01*
X164337282Y-80147813D01*
X164322016Y-80136092D01*
X164276529Y-80103158D01*
X164230016Y-80071824D01*
X164182460Y-80042083D01*
X164133842Y-80013931D01*
X164084145Y-79987363D01*
X164033351Y-79962372D01*
X163981443Y-79938955D01*
X163928404Y-79917105D01*
X163874215Y-79896818D01*
X163818860Y-79878089D01*
X163762320Y-79860912D01*
X163704578Y-79845282D01*
X163645616Y-79831194D01*
X163585417Y-79818643D01*
X163523964Y-79807624D01*
X163461238Y-79798131D01*
X163415031Y-79793452D01*
X163352858Y-79789543D01*
X163279853Y-79786510D01*
X163201152Y-79784461D01*
X163121889Y-79783503D01*
X163047198Y-79783744D01*
X162982214Y-79785292D01*
X162932071Y-79788253D01*
X162771034Y-79807011D01*
X162693676Y-79819633D01*
X162618437Y-79834406D01*
X162545324Y-79851323D01*
X162474349Y-79870375D01*
X162405518Y-79891556D01*
X162338842Y-79914856D01*
X162274329Y-79940269D01*
X162211989Y-79967787D01*
X162151829Y-79997402D01*
X162093859Y-80029107D01*
X162038088Y-80062892D01*
X161984525Y-80098752D01*
X161933178Y-80136678D01*
X161884057Y-80176661D01*
X161837170Y-80218696D01*
X161792527Y-80262773D01*
X161750136Y-80308885D01*
X161710006Y-80357024D01*
X161672147Y-80407183D01*
X161636566Y-80459354D01*
X161603274Y-80513529D01*
X161572278Y-80569700D01*
X161543589Y-80627859D01*
X161517214Y-80688000D01*
X161493162Y-80750113D01*
X161471443Y-80814191D01*
X161452066Y-80880227D01*
X161435039Y-80948213D01*
X161420371Y-81018141D01*
X161408071Y-81090003D01*
X161400555Y-81143942D01*
X161394410Y-81197499D01*
X161389632Y-81250609D01*
X161386221Y-81303202D01*
X161384175Y-81355212D01*
X161383490Y-81406573D01*
X161384166Y-81457216D01*
X161386199Y-81507074D01*
X161389589Y-81556081D01*
X161394332Y-81604170D01*
X161400428Y-81651272D01*
X161407873Y-81697321D01*
X161416666Y-81742250D01*
X161426805Y-81785991D01*
X161438287Y-81828477D01*
X161451110Y-81869642D01*
X161465428Y-81910504D01*
X161481616Y-81951537D01*
X161499608Y-81992647D01*
X161519340Y-82033738D01*
X161540746Y-82074719D01*
X161563761Y-82115493D01*
X161588320Y-82155968D01*
X161614358Y-82196049D01*
X161641810Y-82235643D01*
X161670611Y-82274654D01*
X161700696Y-82312989D01*
X161731999Y-82350555D01*
X161764455Y-82387256D01*
X161798000Y-82423000D01*
X161832568Y-82457691D01*
X161868094Y-82491236D01*
X161952165Y-82565168D01*
X162039147Y-82635677D01*
X162132809Y-82705226D01*
X162236923Y-82776280D01*
X162355258Y-82851304D01*
X162491584Y-82932760D01*
X162649673Y-83023112D01*
X162833293Y-83124825D01*
X163039051Y-83238408D01*
X163121077Y-83284480D01*
X163191892Y-83324938D01*
X163253512Y-83360931D01*
X163307956Y-83393609D01*
X163357240Y-83424120D01*
X163403382Y-83453614D01*
X163463593Y-83493891D01*
X163520207Y-83533572D01*
X163573332Y-83572771D01*
X163623075Y-83611603D01*
X163669543Y-83650183D01*
X163712846Y-83688626D01*
X163753088Y-83727046D01*
X163790380Y-83765558D01*
X163824826Y-83804276D01*
X163856536Y-83843316D01*
X163885617Y-83882792D01*
X163912176Y-83922819D01*
X163936321Y-83963512D01*
X163958158Y-84004985D01*
X163977797Y-84047353D01*
X163995343Y-84090731D01*
X164005107Y-84118879D01*
X164013759Y-84148203D01*
X164021295Y-84178573D01*
X164027711Y-84209859D01*
X164033002Y-84241931D01*
X164037164Y-84274657D01*
X164040194Y-84307909D01*
X164042086Y-84341556D01*
X164042838Y-84375467D01*
X164042445Y-84409512D01*
X164040902Y-84443562D01*
X164038206Y-84477485D01*
X164034352Y-84511153D01*
X164029337Y-84544433D01*
X164023156Y-84577197D01*
X164015805Y-84609314D01*
X163996512Y-84674533D01*
X163972852Y-84736504D01*
X163944958Y-84795123D01*
X163912959Y-84850284D01*
X163876987Y-84901880D01*
X163837174Y-84949808D01*
X163793650Y-84993961D01*
X163746547Y-85034235D01*
X163695996Y-85070523D01*
X163642129Y-85102721D01*
X163585076Y-85130722D01*
X163524970Y-85154422D01*
X163461940Y-85173715D01*
X163396119Y-85188495D01*
X163327637Y-85198658D01*
X163256627Y-85204097D01*
X163212954Y-85204886D01*
X163169796Y-85203566D01*
X163127177Y-85200158D01*
X163085124Y-85194686D01*
X163043664Y-85187174D01*
X163002822Y-85177644D01*
X162962625Y-85166120D01*
X162923098Y-85152625D01*
X162884267Y-85137181D01*
X162846159Y-85119812D01*
X162808800Y-85100541D01*
X162772216Y-85079392D01*
X162736433Y-85056386D01*
X162701477Y-85031548D01*
X162667374Y-85004901D01*
X162634151Y-84976467D01*
X162601832Y-84946270D01*
X162570446Y-84914333D01*
X162540016Y-84880679D01*
X162510571Y-84845332D01*
X162454735Y-84769647D01*
X162403147Y-84687465D01*
X162356016Y-84598970D01*
X162313550Y-84504347D01*
X162275958Y-84403782D01*
X162243449Y-84297458D01*
X162238739Y-84279629D01*
X162234211Y-84262908D01*
X162229980Y-84247675D01*
X162226163Y-84234311D01*
X162222875Y-84223196D01*
X162220232Y-84214710D01*
X162218350Y-84209234D01*
X162217730Y-84207743D01*
X162217344Y-84207148D01*
X161752471Y-84304249D01*
X161247910Y-84412464D01*
X161243068Y-84413783D01*
X161241204Y-84414620D01*
X161239730Y-84415738D01*
X161238662Y-84417257D01*
X161238013Y-84419297D01*
X161237798Y-84421981D01*
X161041579Y-84421981D01*
X161034905Y-84398766D01*
X161018902Y-84337057D01*
G37*
D10*
X91058997Y-123444000D02*
X91059000Y-126619000D01*
D12*
X115938904Y-72644000D02*
X116035666Y-72716571D01*
X116180809Y-72716571D01*
X116325952Y-72644000D01*
X116422714Y-72498857D01*
X116471095Y-72353714D01*
X116519476Y-72063428D01*
X116519476Y-71845714D01*
X116471095Y-71555428D01*
X116422714Y-71410285D01*
X116325952Y-71265142D01*
X116180809Y-71192571D01*
X116084047Y-71192571D01*
X115938904Y-71265142D01*
X115890523Y-71337714D01*
X115890523Y-71845714D01*
X116084047Y-71845714D01*
X106032904Y-125657428D02*
X106032904Y-124133428D01*
X106274809Y-124133428D01*
X106419952Y-124206000D01*
X106516714Y-124351142D01*
X106565095Y-124496285D01*
X106613476Y-124786571D01*
X106613476Y-125004285D01*
X106565095Y-125294571D01*
X106516714Y-125439714D01*
X106419952Y-125584857D01*
X106274809Y-125657428D01*
X106032904Y-125657428D01*
D13*
X96320428Y-78250142D02*
X96102714Y-78177571D01*
X95739857Y-78177571D01*
X95594714Y-78250142D01*
X95522142Y-78322714D01*
X95449571Y-78467857D01*
X95449571Y-78613000D01*
X95522142Y-78758142D01*
X95594714Y-78830714D01*
X95739857Y-78903285D01*
X96030142Y-78975857D01*
X96175285Y-79048428D01*
X96247857Y-79121000D01*
X96320428Y-79266142D01*
X96320428Y-79411285D01*
X96247857Y-79556428D01*
X96175285Y-79629000D01*
X96030142Y-79701571D01*
X95667285Y-79701571D01*
X95449571Y-79629000D01*
X94796428Y-78177571D02*
X94796428Y-79193571D01*
X94796428Y-79701571D02*
X94869000Y-79629000D01*
X94796428Y-79556428D01*
X94723857Y-79629000D01*
X94796428Y-79701571D01*
X94796428Y-79556428D01*
X93417571Y-79193571D02*
X93417571Y-77959857D01*
X93490142Y-77814714D01*
X93562714Y-77742142D01*
X93707857Y-77669571D01*
X93925571Y-77669571D01*
X94070714Y-77742142D01*
X93417571Y-78250142D02*
X93562714Y-78177571D01*
X93853000Y-78177571D01*
X93998142Y-78250142D01*
X94070714Y-78322714D01*
X94143285Y-78467857D01*
X94143285Y-78903285D01*
X94070714Y-79048428D01*
X93998142Y-79121000D01*
X93853000Y-79193571D01*
X93562714Y-79193571D01*
X93417571Y-79121000D01*
X92691857Y-79193571D02*
X92691857Y-78177571D01*
X92691857Y-79048428D02*
X92619285Y-79121000D01*
X92474142Y-79193571D01*
X92256428Y-79193571D01*
X92111285Y-79121000D01*
X92038714Y-78975857D01*
X92038714Y-78177571D01*
X90659857Y-78177571D02*
X90659857Y-78975857D01*
X90732428Y-79121000D01*
X90877571Y-79193571D01*
X91167857Y-79193571D01*
X91313000Y-79121000D01*
X90659857Y-78250142D02*
X90805000Y-78177571D01*
X91167857Y-78177571D01*
X91313000Y-78250142D01*
X91385571Y-78395285D01*
X91385571Y-78540428D01*
X91313000Y-78685571D01*
X91167857Y-78758142D01*
X90805000Y-78758142D01*
X90659857Y-78830714D01*
X89716428Y-78177571D02*
X89861571Y-78250142D01*
X89934142Y-78395285D01*
X89934142Y-79701571D01*
X88047285Y-78613000D02*
X87321571Y-78613000D01*
X88192428Y-78177571D02*
X87684428Y-79701571D01*
X87176428Y-78177571D01*
D12*
X162392964Y-93804619D02*
X162392964Y-92788619D01*
X162634869Y-92788619D01*
X162780012Y-92837000D01*
X162876774Y-92933761D01*
X162925155Y-93030523D01*
X162973536Y-93224047D01*
X162973536Y-93369190D01*
X162925155Y-93562714D01*
X162876774Y-93659476D01*
X162780012Y-93756238D01*
X162634869Y-93804619D01*
X162392964Y-93804619D01*
X163408964Y-93272428D02*
X163747631Y-93272428D01*
X163892774Y-93804619D02*
X163408964Y-93804619D01*
X163408964Y-92788619D01*
X163892774Y-92788619D01*
X164812012Y-93804619D02*
X164328202Y-93804619D01*
X164328202Y-92788619D01*
X165102298Y-93514333D02*
X165586107Y-93514333D01*
X165005536Y-93804619D02*
X165344202Y-92788619D01*
X165682869Y-93804619D01*
X166215060Y-93320809D02*
X166215060Y-93804619D01*
X165876393Y-92788619D02*
X166215060Y-93320809D01*
X166553726Y-92788619D01*
X167811631Y-92788619D02*
X167811631Y-93030523D01*
X167569726Y-92933761D02*
X167811631Y-93030523D01*
X168053536Y-92933761D01*
X167666488Y-93224047D02*
X167811631Y-93030523D01*
X167956774Y-93224047D01*
X159217964Y-104702428D02*
X159556631Y-104702428D01*
X159701774Y-105234619D02*
X159217964Y-105234619D01*
X159217964Y-104218619D01*
X159701774Y-104218619D01*
X159798536Y-94977857D02*
X159750155Y-95026238D01*
X159605012Y-95074619D01*
X159508250Y-95074619D01*
X159363107Y-95026238D01*
X159266345Y-94929476D01*
X159217964Y-94832714D01*
X159169583Y-94639190D01*
X159169583Y-94494047D01*
X159217964Y-94300523D01*
X159266345Y-94203761D01*
X159363107Y-94107000D01*
X159508250Y-94058619D01*
X159605012Y-94058619D01*
X159750155Y-94107000D01*
X159798536Y-94155380D01*
X79322022Y-81479571D02*
X79273641Y-81431190D01*
X79225260Y-81286047D01*
X79225260Y-81189285D01*
X79273641Y-81044142D01*
X79370403Y-80947380D01*
X79467165Y-80899000D01*
X79660689Y-80850619D01*
X79805832Y-80850619D01*
X79999356Y-80899000D01*
X80096118Y-80947380D01*
X80192880Y-81044142D01*
X80241260Y-81189285D01*
X80241260Y-81286047D01*
X80192880Y-81431190D01*
X80144499Y-81479571D01*
X79225260Y-81915000D02*
X80241260Y-81915000D01*
X79225260Y-82495571D02*
X79805832Y-82060142D01*
X80241260Y-82495571D02*
X79660689Y-81915000D01*
X80241260Y-82785857D02*
X80241260Y-83366428D01*
X79225260Y-83076142D02*
X80241260Y-83076142D01*
X79612308Y-83705095D02*
X79612308Y-84479190D01*
X79225260Y-84963000D02*
X80241260Y-84963000D01*
X79225260Y-85446809D02*
X80241260Y-85446809D01*
X79515546Y-85882238D02*
X79515546Y-86366047D01*
X79225260Y-85785476D02*
X80241260Y-86124142D01*
X79225260Y-86462809D01*
X79757451Y-87140142D02*
X79709070Y-87285285D01*
X79660689Y-87333666D01*
X79563927Y-87382047D01*
X79418784Y-87382047D01*
X79322022Y-87333666D01*
X79273641Y-87285285D01*
X79225260Y-87188523D01*
X79225260Y-86801476D01*
X80241260Y-86801476D01*
X80241260Y-87140142D01*
X80192880Y-87236904D01*
X80144499Y-87285285D01*
X80047737Y-87333666D01*
X79950975Y-87333666D01*
X79854213Y-87285285D01*
X79805832Y-87236904D01*
X79757451Y-87140142D01*
X79757451Y-86801476D01*
X79902594Y-89268904D02*
X79225260Y-89510809D01*
X79902594Y-89752714D01*
X79225260Y-90671952D02*
X79225260Y-90091380D01*
X79225260Y-90381666D02*
X80241260Y-90381666D01*
X80096118Y-90284904D01*
X79999356Y-90188142D01*
X79950975Y-90091380D01*
X79322022Y-91107380D02*
X79273641Y-91155761D01*
X79225260Y-91107380D01*
X79273641Y-91059000D01*
X79322022Y-91107380D01*
X79225260Y-91107380D01*
X80241260Y-91494428D02*
X80241260Y-92123380D01*
X79854213Y-91784714D01*
X79854213Y-91929857D01*
X79805832Y-92026619D01*
X79757451Y-92075000D01*
X79660689Y-92123380D01*
X79418784Y-92123380D01*
X79322022Y-92075000D01*
X79273641Y-92026619D01*
X79225260Y-91929857D01*
X79225260Y-91639571D01*
X79273641Y-91542809D01*
X79322022Y-91494428D01*
X78363596Y-80463571D02*
X78411977Y-80366809D01*
X78411977Y-80173285D01*
X78363596Y-80076523D01*
X78266834Y-79979761D01*
X78170072Y-79931380D01*
X77976548Y-79931380D01*
X77879786Y-79979761D01*
X77783024Y-80076523D01*
X77734643Y-80173285D01*
X77734643Y-80366809D01*
X77783024Y-80463571D01*
X78750643Y-80270047D02*
X78702262Y-80028142D01*
X78557120Y-79786238D01*
X78315215Y-79641095D01*
X78073310Y-79592714D01*
X77831405Y-79641095D01*
X77589500Y-79786238D01*
X77444358Y-80028142D01*
X77395977Y-80270047D01*
X77444358Y-80511952D01*
X77589500Y-80753857D01*
X77831405Y-80899000D01*
X78073310Y-80947380D01*
X78315215Y-80899000D01*
X78557120Y-80753857D01*
X78702262Y-80511952D01*
X78750643Y-80270047D01*
X78508739Y-81334428D02*
X78557120Y-81382809D01*
X78605500Y-81479571D01*
X78605500Y-81721476D01*
X78557120Y-81818238D01*
X78508739Y-81866619D01*
X78411977Y-81915000D01*
X78315215Y-81915000D01*
X78170072Y-81866619D01*
X77589500Y-81286047D01*
X77589500Y-81915000D01*
X78605500Y-82543952D02*
X78605500Y-82640714D01*
X78557120Y-82737476D01*
X78508739Y-82785857D01*
X78411977Y-82834238D01*
X78218453Y-82882619D01*
X77976548Y-82882619D01*
X77783024Y-82834238D01*
X77686262Y-82785857D01*
X77637881Y-82737476D01*
X77589500Y-82640714D01*
X77589500Y-82543952D01*
X77637881Y-82447190D01*
X77686262Y-82398809D01*
X77783024Y-82350428D01*
X77976548Y-82302047D01*
X78218453Y-82302047D01*
X78411977Y-82350428D01*
X78508739Y-82398809D01*
X78557120Y-82447190D01*
X78605500Y-82543952D01*
X78508739Y-83269666D02*
X78557120Y-83318047D01*
X78605500Y-83414809D01*
X78605500Y-83656714D01*
X78557120Y-83753476D01*
X78508739Y-83801857D01*
X78411977Y-83850238D01*
X78315215Y-83850238D01*
X78170072Y-83801857D01*
X77589500Y-83221285D01*
X77589500Y-83850238D01*
X78266834Y-84721095D02*
X77589500Y-84721095D01*
X78653881Y-84479190D02*
X77928167Y-84237285D01*
X77928167Y-84866238D01*
X77686262Y-86607952D02*
X77637881Y-86559571D01*
X77589500Y-86414428D01*
X77589500Y-86317666D01*
X77637881Y-86172523D01*
X77734643Y-86075761D01*
X77831405Y-86027380D01*
X78024929Y-85979000D01*
X78170072Y-85979000D01*
X78363596Y-86027380D01*
X78460358Y-86075761D01*
X78557120Y-86172523D01*
X78605500Y-86317666D01*
X78605500Y-86414428D01*
X78557120Y-86559571D01*
X78508739Y-86607952D01*
X77686262Y-87623952D02*
X77637881Y-87575571D01*
X77589500Y-87430428D01*
X77589500Y-87333666D01*
X77637881Y-87188523D01*
X77734643Y-87091761D01*
X77831405Y-87043380D01*
X78024929Y-86995000D01*
X78170072Y-86995000D01*
X78363596Y-87043380D01*
X78460358Y-87091761D01*
X78557120Y-87188523D01*
X78605500Y-87333666D01*
X78605500Y-87430428D01*
X78557120Y-87575571D01*
X78508739Y-87623952D01*
X78121691Y-89172142D02*
X78073310Y-89317285D01*
X78024929Y-89365666D01*
X77928167Y-89414047D01*
X77783024Y-89414047D01*
X77686262Y-89365666D01*
X77637881Y-89317285D01*
X77589500Y-89220523D01*
X77589500Y-88833476D01*
X78605500Y-88833476D01*
X78605500Y-89172142D01*
X78557120Y-89268904D01*
X78508739Y-89317285D01*
X78411977Y-89365666D01*
X78315215Y-89365666D01*
X78218453Y-89317285D01*
X78170072Y-89268904D01*
X78121691Y-89172142D01*
X78121691Y-88833476D01*
X78073310Y-90043000D02*
X77589500Y-90043000D01*
X78605500Y-89704333D02*
X78073310Y-90043000D01*
X78605500Y-90381666D01*
X77976548Y-90720333D02*
X77976548Y-91494428D01*
X77637881Y-91929857D02*
X77589500Y-92075000D01*
X77589500Y-92316904D01*
X77637881Y-92413666D01*
X77686262Y-92462047D01*
X77783024Y-92510428D01*
X77879786Y-92510428D01*
X77976548Y-92462047D01*
X78024929Y-92413666D01*
X78073310Y-92316904D01*
X78121691Y-92123380D01*
X78170072Y-92026619D01*
X78218453Y-91978238D01*
X78315215Y-91929857D01*
X78411977Y-91929857D01*
X78508739Y-91978238D01*
X78557120Y-92026619D01*
X78605500Y-92123380D01*
X78605500Y-92365285D01*
X78557120Y-92510428D01*
X77879786Y-92897476D02*
X77879786Y-93381285D01*
X77589500Y-92800714D02*
X78605500Y-93139380D01*
X77589500Y-93478047D01*
D13*
X123607285Y-115497428D02*
X123607285Y-113973428D01*
X125203857Y-115497428D02*
X124695857Y-114771714D01*
X124333000Y-115497428D02*
X124333000Y-113973428D01*
X124913571Y-113973428D01*
X125058714Y-114046000D01*
X125131285Y-114118571D01*
X125203857Y-114263714D01*
X125203857Y-114481428D01*
X125131285Y-114626571D01*
X125058714Y-114699142D01*
X124913571Y-114771714D01*
X124333000Y-114771714D01*
X126945571Y-115424857D02*
X127163285Y-115497428D01*
X127526142Y-115497428D01*
X127671285Y-115424857D01*
X127743857Y-115352285D01*
X127816428Y-115207142D01*
X127816428Y-115062000D01*
X127743857Y-114916857D01*
X127671285Y-114844285D01*
X127526142Y-114771714D01*
X127235857Y-114699142D01*
X127090714Y-114626571D01*
X127018142Y-114554000D01*
X126945571Y-114408857D01*
X126945571Y-114263714D01*
X127018142Y-114118571D01*
X127090714Y-114046000D01*
X127235857Y-113973428D01*
X127598714Y-113973428D01*
X127816428Y-114046000D01*
X129050142Y-115424857D02*
X128905000Y-115497428D01*
X128614714Y-115497428D01*
X128469571Y-115424857D01*
X128397000Y-115279714D01*
X128397000Y-114699142D01*
X128469571Y-114554000D01*
X128614714Y-114481428D01*
X128905000Y-114481428D01*
X129050142Y-114554000D01*
X129122714Y-114699142D01*
X129122714Y-114844285D01*
X128397000Y-114989428D01*
X129775857Y-114481428D02*
X129775857Y-115497428D01*
X129775857Y-114626571D02*
X129848428Y-114554000D01*
X129993571Y-114481428D01*
X130211285Y-114481428D01*
X130356428Y-114554000D01*
X130429000Y-114699142D01*
X130429000Y-115497428D01*
X131082142Y-115424857D02*
X131227285Y-115497428D01*
X131517571Y-115497428D01*
X131662714Y-115424857D01*
X131735285Y-115279714D01*
X131735285Y-115207142D01*
X131662714Y-115062000D01*
X131517571Y-114989428D01*
X131299857Y-114989428D01*
X131154714Y-114916857D01*
X131082142Y-114771714D01*
X131082142Y-114699142D01*
X131154714Y-114554000D01*
X131299857Y-114481428D01*
X131517571Y-114481428D01*
X131662714Y-114554000D01*
X132606142Y-115497428D02*
X132461000Y-115424857D01*
X132388428Y-115352285D01*
X132315857Y-115207142D01*
X132315857Y-114771714D01*
X132388428Y-114626571D01*
X132461000Y-114554000D01*
X132606142Y-114481428D01*
X132823857Y-114481428D01*
X132969000Y-114554000D01*
X133041571Y-114626571D01*
X133114142Y-114771714D01*
X133114142Y-115207142D01*
X133041571Y-115352285D01*
X132969000Y-115424857D01*
X132823857Y-115497428D01*
X132606142Y-115497428D01*
X133767285Y-115497428D02*
X133767285Y-114481428D01*
X133767285Y-114771714D02*
X133839857Y-114626571D01*
X133912428Y-114554000D01*
X134057571Y-114481428D01*
X134202714Y-114481428D01*
X134638142Y-115424857D02*
X134783285Y-115497428D01*
X135073571Y-115497428D01*
X135218714Y-115424857D01*
X135291285Y-115279714D01*
X135291285Y-115207142D01*
X135218714Y-115062000D01*
X135073571Y-114989428D01*
X134855857Y-114989428D01*
X134710714Y-114916857D01*
X134638142Y-114771714D01*
X134638142Y-114699142D01*
X134710714Y-114554000D01*
X134855857Y-114481428D01*
X135073571Y-114481428D01*
X135218714Y-114554000D01*
D12*
X159544536Y-100154619D02*
X159205869Y-99670809D01*
X158963964Y-100154619D02*
X158963964Y-99138619D01*
X159351012Y-99138619D01*
X159447774Y-99187000D01*
X159496155Y-99235380D01*
X159544536Y-99332142D01*
X159544536Y-99477285D01*
X159496155Y-99574047D01*
X159447774Y-99622428D01*
X159351012Y-99670809D01*
X158963964Y-99670809D01*
X159931583Y-99864333D02*
X160415393Y-99864333D01*
X159834821Y-100154619D02*
X160173488Y-99138619D01*
X160512155Y-100154619D01*
X160850821Y-100154619D02*
X160850821Y-99138619D01*
X161431393Y-100154619D01*
X161431393Y-99138619D01*
X161915202Y-100154619D02*
X161915202Y-99138619D01*
X162157107Y-99138619D01*
X162302250Y-99187000D01*
X162399012Y-99283761D01*
X162447393Y-99380523D01*
X162495774Y-99574047D01*
X162495774Y-99719190D01*
X162447393Y-99912714D01*
X162399012Y-100009476D01*
X162302250Y-100106238D01*
X162157107Y-100154619D01*
X161915202Y-100154619D01*
X163124726Y-99138619D02*
X163318250Y-99138619D01*
X163415012Y-99187000D01*
X163511774Y-99283761D01*
X163560155Y-99477285D01*
X163560155Y-99815952D01*
X163511774Y-100009476D01*
X163415012Y-100106238D01*
X163318250Y-100154619D01*
X163124726Y-100154619D01*
X163027964Y-100106238D01*
X162931202Y-100009476D01*
X162882821Y-99815952D01*
X162882821Y-99477285D01*
X162931202Y-99283761D01*
X163027964Y-99187000D01*
X163124726Y-99138619D01*
X163995583Y-100154619D02*
X163995583Y-99138619D01*
X164334250Y-99864333D01*
X164672917Y-99138619D01*
X164672917Y-100154619D01*
X165156726Y-100154619D02*
X165156726Y-99138619D01*
X165543774Y-99138619D02*
X166221107Y-99138619D01*
X165543774Y-100154619D01*
X166221107Y-100154619D01*
X166608155Y-99622428D02*
X166946821Y-99622428D01*
X167091964Y-100154619D02*
X166608155Y-100154619D01*
X166608155Y-99138619D01*
X167091964Y-99138619D01*
X167527393Y-100154619D02*
X167527393Y-99138619D01*
X167769298Y-99138619D01*
X167914440Y-99187000D01*
X168011202Y-99283761D01*
X168059583Y-99380523D01*
X168107964Y-99574047D01*
X168107964Y-99719190D01*
X168059583Y-99912714D01*
X168011202Y-100009476D01*
X167914440Y-100106238D01*
X167769298Y-100154619D01*
X167527393Y-100154619D01*
X109927571Y-124801154D02*
X110072714Y-124873726D01*
X110121095Y-124946297D01*
X110169476Y-125091440D01*
X110169476Y-125309154D01*
X110121095Y-125454297D01*
X110072714Y-125526869D01*
X109975952Y-125599440D01*
X109588904Y-125599440D01*
X109588904Y-124075440D01*
X109927571Y-124075440D01*
X110024333Y-124148012D01*
X110072714Y-124220583D01*
X110121095Y-124365726D01*
X110121095Y-124510869D01*
X110072714Y-124656012D01*
X110024333Y-124728583D01*
X109927571Y-124801154D01*
X109588904Y-124801154D01*
D13*
X131064000Y-91664608D02*
X131064000Y-90140608D01*
X131789714Y-90648608D02*
X131789714Y-91664608D01*
X131789714Y-90793751D02*
X131862285Y-90721180D01*
X132007428Y-90648608D01*
X132225142Y-90648608D01*
X132370285Y-90721180D01*
X132442857Y-90866322D01*
X132442857Y-91664608D01*
X132950857Y-90648608D02*
X133531428Y-90648608D01*
X133168571Y-90140608D02*
X133168571Y-91446894D01*
X133241142Y-91592037D01*
X133386285Y-91664608D01*
X133531428Y-91664608D01*
X134620000Y-91592037D02*
X134474857Y-91664608D01*
X134184571Y-91664608D01*
X134039428Y-91592037D01*
X133966857Y-91446894D01*
X133966857Y-90866322D01*
X134039428Y-90721180D01*
X134184571Y-90648608D01*
X134474857Y-90648608D01*
X134620000Y-90721180D01*
X134692571Y-90866322D01*
X134692571Y-91011465D01*
X133966857Y-91156608D01*
X135345714Y-91664608D02*
X135345714Y-90648608D01*
X135345714Y-90938894D02*
X135418285Y-90793751D01*
X135490857Y-90721180D01*
X135636000Y-90648608D01*
X135781142Y-90648608D01*
X136506857Y-91664608D02*
X136361714Y-91592037D01*
X136289142Y-91446894D01*
X136289142Y-90140608D01*
X137305142Y-91664608D02*
X137160000Y-91592037D01*
X137087428Y-91519465D01*
X137014857Y-91374322D01*
X137014857Y-90938894D01*
X137087428Y-90793751D01*
X137160000Y-90721180D01*
X137305142Y-90648608D01*
X137522857Y-90648608D01*
X137668000Y-90721180D01*
X137740571Y-90793751D01*
X137813142Y-90938894D01*
X137813142Y-91374322D01*
X137740571Y-91519465D01*
X137668000Y-91592037D01*
X137522857Y-91664608D01*
X137305142Y-91664608D01*
X139119428Y-91592037D02*
X138974285Y-91664608D01*
X138684000Y-91664608D01*
X138538857Y-91592037D01*
X138466285Y-91519465D01*
X138393714Y-91374322D01*
X138393714Y-90938894D01*
X138466285Y-90793751D01*
X138538857Y-90721180D01*
X138684000Y-90648608D01*
X138974285Y-90648608D01*
X139119428Y-90721180D01*
X139772571Y-91664608D02*
X139772571Y-90140608D01*
X139917714Y-91084037D02*
X140353142Y-91664608D01*
X140353142Y-90648608D02*
X139772571Y-91229180D01*
X141006285Y-91664608D02*
X141006285Y-90648608D01*
X141006285Y-90140608D02*
X140933714Y-90213180D01*
X141006285Y-90285751D01*
X141078857Y-90213180D01*
X141006285Y-90140608D01*
X141006285Y-90285751D01*
X141732000Y-90648608D02*
X141732000Y-91664608D01*
X141732000Y-90793751D02*
X141804571Y-90721180D01*
X141949714Y-90648608D01*
X142167428Y-90648608D01*
X142312571Y-90721180D01*
X142385142Y-90866322D01*
X142385142Y-91664608D01*
X143764000Y-90648608D02*
X143764000Y-91882322D01*
X143691428Y-92027465D01*
X143618857Y-92100037D01*
X143473714Y-92172608D01*
X143256000Y-92172608D01*
X143110857Y-92100037D01*
X143764000Y-91592037D02*
X143618857Y-91664608D01*
X143328571Y-91664608D01*
X143183428Y-91592037D01*
X143110857Y-91519465D01*
X143038285Y-91374322D01*
X143038285Y-90938894D01*
X143110857Y-90793751D01*
X143183428Y-90721180D01*
X143328571Y-90648608D01*
X143618857Y-90648608D01*
X143764000Y-90721180D01*
X132842000Y-94118248D02*
X132842000Y-92594248D01*
X133567714Y-93102248D02*
X133567714Y-94118248D01*
X133567714Y-93247391D02*
X133640285Y-93174820D01*
X133785428Y-93102248D01*
X134003142Y-93102248D01*
X134148285Y-93174820D01*
X134220857Y-93319962D01*
X134220857Y-94118248D01*
X136035142Y-93682820D02*
X136760857Y-93682820D01*
X135890000Y-94118248D02*
X136398000Y-92594248D01*
X136906000Y-94118248D01*
X139083142Y-93319962D02*
X139300857Y-93392534D01*
X139373428Y-93465105D01*
X139446000Y-93610248D01*
X139446000Y-93827962D01*
X139373428Y-93973105D01*
X139300857Y-94045677D01*
X139155714Y-94118248D01*
X138575142Y-94118248D01*
X138575142Y-92594248D01*
X139083142Y-92594248D01*
X139228285Y-92666820D01*
X139300857Y-92739391D01*
X139373428Y-92884534D01*
X139373428Y-93029677D01*
X139300857Y-93174820D01*
X139228285Y-93247391D01*
X139083142Y-93319962D01*
X138575142Y-93319962D01*
X140316857Y-94118248D02*
X140171714Y-94045677D01*
X140099142Y-93973105D01*
X140026571Y-93827962D01*
X140026571Y-93392534D01*
X140099142Y-93247391D01*
X140171714Y-93174820D01*
X140316857Y-93102248D01*
X140534571Y-93102248D01*
X140679714Y-93174820D01*
X140752285Y-93247391D01*
X140824857Y-93392534D01*
X140824857Y-93827962D01*
X140752285Y-93973105D01*
X140679714Y-94045677D01*
X140534571Y-94118248D01*
X140316857Y-94118248D01*
X141332857Y-94118248D02*
X142131142Y-93102248D01*
X141332857Y-93102248D02*
X142131142Y-94118248D01*
D12*
X80114260Y-109107393D02*
X80114260Y-108913869D01*
X80065880Y-108817107D01*
X80017499Y-108768726D01*
X79872356Y-108671964D01*
X79678832Y-108623583D01*
X79291784Y-108623583D01*
X79195022Y-108671964D01*
X79146641Y-108720345D01*
X79098260Y-108817107D01*
X79098260Y-109010631D01*
X79146641Y-109107393D01*
X79195022Y-109155774D01*
X79291784Y-109204155D01*
X79533689Y-109204155D01*
X79630451Y-109155774D01*
X79678832Y-109107393D01*
X79727213Y-109010631D01*
X79727213Y-108817107D01*
X79678832Y-108720345D01*
X79630451Y-108671964D01*
X79533689Y-108623583D01*
X79485308Y-109639583D02*
X79485308Y-110413679D01*
X80017499Y-110849107D02*
X80065880Y-110897488D01*
X80114260Y-110994250D01*
X80114260Y-111236155D01*
X80065880Y-111332917D01*
X80017499Y-111381298D01*
X79920737Y-111429679D01*
X79823975Y-111429679D01*
X79678832Y-111381298D01*
X79098260Y-110800726D01*
X79098260Y-111429679D01*
X79775594Y-112300536D02*
X79098260Y-112300536D01*
X80162641Y-112058631D02*
X79436927Y-111816726D01*
X79436927Y-112445679D01*
X80114260Y-113461679D02*
X79098260Y-113800345D01*
X80114260Y-114139012D01*
X79098260Y-114622821D02*
X79146641Y-114526060D01*
X79195022Y-114477679D01*
X79291784Y-114429298D01*
X79582070Y-114429298D01*
X79678832Y-114477679D01*
X79727213Y-114526060D01*
X79775594Y-114622821D01*
X79775594Y-114767964D01*
X79727213Y-114864726D01*
X79678832Y-114913107D01*
X79582070Y-114961488D01*
X79291784Y-114961488D01*
X79195022Y-114913107D01*
X79146641Y-114864726D01*
X79098260Y-114767964D01*
X79098260Y-114622821D01*
X79098260Y-115542060D02*
X79146641Y-115445298D01*
X79243403Y-115396917D01*
X80114260Y-115396917D01*
X79775594Y-115783964D02*
X79775594Y-116171012D01*
X80114260Y-115929107D02*
X79243403Y-115929107D01*
X79146641Y-115977488D01*
X79098260Y-116074250D01*
X79098260Y-116171012D01*
X79146641Y-116461298D02*
X79098260Y-116558060D01*
X79098260Y-116751583D01*
X79146641Y-116848345D01*
X79243403Y-116896726D01*
X79291784Y-116896726D01*
X79388546Y-116848345D01*
X79436927Y-116751583D01*
X79436927Y-116606440D01*
X79485308Y-116509679D01*
X79582070Y-116461298D01*
X79630451Y-116461298D01*
X79727213Y-116509679D01*
X79775594Y-116606440D01*
X79775594Y-116751583D01*
X79727213Y-116848345D01*
X77462500Y-108671964D02*
X78478500Y-108671964D01*
X78478500Y-108913869D01*
X78430120Y-109059012D01*
X78333358Y-109155774D01*
X78236596Y-109204155D01*
X78043072Y-109252536D01*
X77897929Y-109252536D01*
X77704405Y-109204155D01*
X77607643Y-109155774D01*
X77510881Y-109059012D01*
X77462500Y-108913869D01*
X77462500Y-108671964D01*
X77559262Y-110268536D02*
X77510881Y-110220155D01*
X77462500Y-110075012D01*
X77462500Y-109978250D01*
X77510881Y-109833107D01*
X77607643Y-109736345D01*
X77704405Y-109687964D01*
X77897929Y-109639583D01*
X78043072Y-109639583D01*
X78236596Y-109687964D01*
X78333358Y-109736345D01*
X78430120Y-109833107D01*
X78478500Y-109978250D01*
X78478500Y-110075012D01*
X78430120Y-110220155D01*
X78381739Y-110268536D01*
X78526881Y-111429679D02*
X77220596Y-110558821D01*
X77752786Y-111719964D02*
X77752786Y-112203774D01*
X77462500Y-111623202D02*
X78478500Y-111961869D01*
X77462500Y-112300536D01*
X77559262Y-113219774D02*
X77510881Y-113171393D01*
X77462500Y-113026250D01*
X77462500Y-112929488D01*
X77510881Y-112784345D01*
X77607643Y-112687583D01*
X77704405Y-112639202D01*
X77897929Y-112590821D01*
X78043072Y-112590821D01*
X78236596Y-112639202D01*
X78333358Y-112687583D01*
X78430120Y-112784345D01*
X78478500Y-112929488D01*
X78478500Y-113026250D01*
X78430120Y-113171393D01*
X78381739Y-113219774D01*
X78526881Y-114380917D02*
X77220596Y-113510060D01*
X77462500Y-114719583D02*
X78478500Y-114719583D01*
X78478500Y-114961488D01*
X78430120Y-115106631D01*
X78333358Y-115203393D01*
X78236596Y-115251774D01*
X78043072Y-115300155D01*
X77897929Y-115300155D01*
X77704405Y-115251774D01*
X77607643Y-115203393D01*
X77510881Y-115106631D01*
X77462500Y-114961488D01*
X77462500Y-114719583D01*
X77559262Y-116316155D02*
X77510881Y-116267774D01*
X77462500Y-116122631D01*
X77462500Y-116025869D01*
X77510881Y-115880726D01*
X77607643Y-115783964D01*
X77704405Y-115735583D01*
X77897929Y-115687202D01*
X78043072Y-115687202D01*
X78236596Y-115735583D01*
X78333358Y-115783964D01*
X78430120Y-115880726D01*
X78478500Y-116025869D01*
X78478500Y-116122631D01*
X78430120Y-116267774D01*
X78381739Y-116316155D01*
X77559262Y-117332155D02*
X77510881Y-117283774D01*
X77462500Y-117138631D01*
X77462500Y-117041869D01*
X77510881Y-116896726D01*
X77607643Y-116799964D01*
X77704405Y-116751583D01*
X77897929Y-116703202D01*
X78043072Y-116703202D01*
X78236596Y-116751583D01*
X78333358Y-116799964D01*
X78430120Y-116896726D01*
X78478500Y-117041869D01*
X78478500Y-117138631D01*
X78430120Y-117283774D01*
X78381739Y-117332155D01*
X147806107Y-119473859D02*
X147806107Y-119715763D01*
X147564202Y-119619001D02*
X147806107Y-119715763D01*
X148048012Y-119619001D01*
X147660964Y-119909287D02*
X147806107Y-119715763D01*
X147951250Y-119909287D01*
X149160774Y-120441478D02*
X149305917Y-120489859D01*
X149547821Y-120489859D01*
X149644583Y-120441478D01*
X149692964Y-120393097D01*
X149741345Y-120296335D01*
X149741345Y-120199573D01*
X149692964Y-120102811D01*
X149644583Y-120054430D01*
X149547821Y-120006049D01*
X149354298Y-119957668D01*
X149257536Y-119909287D01*
X149209155Y-119860906D01*
X149160774Y-119764144D01*
X149160774Y-119667382D01*
X149209155Y-119570620D01*
X149257536Y-119522240D01*
X149354298Y-119473859D01*
X149596202Y-119473859D01*
X149741345Y-119522240D01*
X150563821Y-120441478D02*
X150467060Y-120489859D01*
X150273536Y-120489859D01*
X150176774Y-120441478D01*
X150128393Y-120344716D01*
X150128393Y-119957668D01*
X150176774Y-119860906D01*
X150273536Y-119812525D01*
X150467060Y-119812525D01*
X150563821Y-119860906D01*
X150612202Y-119957668D01*
X150612202Y-120054430D01*
X150128393Y-120151192D01*
X151434679Y-120441478D02*
X151337917Y-120489859D01*
X151144393Y-120489859D01*
X151047631Y-120441478D01*
X150999250Y-120344716D01*
X150999250Y-119957668D01*
X151047631Y-119860906D01*
X151144393Y-119812525D01*
X151337917Y-119812525D01*
X151434679Y-119860906D01*
X151483060Y-119957668D01*
X151483060Y-120054430D01*
X150999250Y-120151192D01*
X152692583Y-119473859D02*
X152692583Y-120296335D01*
X152740964Y-120393097D01*
X152789345Y-120441478D01*
X152886107Y-120489859D01*
X153079631Y-120489859D01*
X153176393Y-120441478D01*
X153224774Y-120393097D01*
X153273155Y-120296335D01*
X153273155Y-119473859D01*
X153708583Y-120441478D02*
X153805345Y-120489859D01*
X153998869Y-120489859D01*
X154095631Y-120441478D01*
X154144012Y-120344716D01*
X154144012Y-120296335D01*
X154095631Y-120199573D01*
X153998869Y-120151192D01*
X153853726Y-120151192D01*
X153756964Y-120102811D01*
X153708583Y-120006049D01*
X153708583Y-119957668D01*
X153756964Y-119860906D01*
X153853726Y-119812525D01*
X153998869Y-119812525D01*
X154095631Y-119860906D01*
X154966488Y-120441478D02*
X154869726Y-120489859D01*
X154676202Y-120489859D01*
X154579440Y-120441478D01*
X154531060Y-120344716D01*
X154531060Y-119957668D01*
X154579440Y-119860906D01*
X154676202Y-119812525D01*
X154869726Y-119812525D01*
X154966488Y-119860906D01*
X155014869Y-119957668D01*
X155014869Y-120054430D01*
X154531060Y-120151192D01*
X155450298Y-120489859D02*
X155450298Y-119812525D01*
X155450298Y-120006049D02*
X155498679Y-119909287D01*
X155547060Y-119860906D01*
X155643821Y-119812525D01*
X155740583Y-119812525D01*
X156853345Y-120489859D02*
X156853345Y-119473859D01*
X157192012Y-120199573D01*
X157530679Y-119473859D01*
X157530679Y-120489859D01*
X158449917Y-120489859D02*
X158449917Y-119957668D01*
X158401536Y-119860906D01*
X158304774Y-119812525D01*
X158111250Y-119812525D01*
X158014488Y-119860906D01*
X158449917Y-120441478D02*
X158353155Y-120489859D01*
X158111250Y-120489859D01*
X158014488Y-120441478D01*
X157966107Y-120344716D01*
X157966107Y-120247954D01*
X158014488Y-120151192D01*
X158111250Y-120102811D01*
X158353155Y-120102811D01*
X158449917Y-120054430D01*
X158933726Y-119812525D02*
X158933726Y-120489859D01*
X158933726Y-119909287D02*
X158982107Y-119860906D01*
X159078869Y-119812525D01*
X159224012Y-119812525D01*
X159320774Y-119860906D01*
X159369155Y-119957668D01*
X159369155Y-120489859D01*
X160288393Y-119812525D02*
X160288393Y-120489859D01*
X159852964Y-119812525D02*
X159852964Y-120344716D01*
X159901345Y-120441478D01*
X159998107Y-120489859D01*
X160143250Y-120489859D01*
X160240012Y-120441478D01*
X160288393Y-120393097D01*
X161207631Y-120489859D02*
X161207631Y-119957668D01*
X161159250Y-119860906D01*
X161062488Y-119812525D01*
X160868964Y-119812525D01*
X160772202Y-119860906D01*
X161207631Y-120441478D02*
X161110869Y-120489859D01*
X160868964Y-120489859D01*
X160772202Y-120441478D01*
X160723821Y-120344716D01*
X160723821Y-120247954D01*
X160772202Y-120151192D01*
X160868964Y-120102811D01*
X161110869Y-120102811D01*
X161207631Y-120054430D01*
X161836583Y-120489859D02*
X161739821Y-120441478D01*
X161691440Y-120344716D01*
X161691440Y-119473859D01*
X149064012Y-121448285D02*
X149451060Y-121448285D01*
X149209155Y-122125619D02*
X149209155Y-121254761D01*
X149257536Y-121158000D01*
X149354298Y-121109619D01*
X149451060Y-121109619D01*
X149934869Y-122125619D02*
X149838107Y-122077238D01*
X149789726Y-122028857D01*
X149741345Y-121932095D01*
X149741345Y-121641809D01*
X149789726Y-121545047D01*
X149838107Y-121496666D01*
X149934869Y-121448285D01*
X150080012Y-121448285D01*
X150176774Y-121496666D01*
X150225155Y-121545047D01*
X150273536Y-121641809D01*
X150273536Y-121932095D01*
X150225155Y-122028857D01*
X150176774Y-122077238D01*
X150080012Y-122125619D01*
X149934869Y-122125619D01*
X150708964Y-122125619D02*
X150708964Y-121448285D01*
X150708964Y-121641809D02*
X150757345Y-121545047D01*
X150805726Y-121496666D01*
X150902488Y-121448285D01*
X150999250Y-121448285D01*
X152112012Y-122125619D02*
X152112012Y-121109619D01*
X152353917Y-121109619D01*
X152499060Y-121158000D01*
X152595821Y-121254761D01*
X152644202Y-121351523D01*
X152692583Y-121545047D01*
X152692583Y-121690190D01*
X152644202Y-121883714D01*
X152595821Y-121980476D01*
X152499060Y-122077238D01*
X152353917Y-122125619D01*
X152112012Y-122125619D01*
X153515060Y-122077238D02*
X153418298Y-122125619D01*
X153224774Y-122125619D01*
X153128012Y-122077238D01*
X153079631Y-121980476D01*
X153079631Y-121593428D01*
X153128012Y-121496666D01*
X153224774Y-121448285D01*
X153418298Y-121448285D01*
X153515060Y-121496666D01*
X153563440Y-121593428D01*
X153563440Y-121690190D01*
X153079631Y-121786952D01*
X154144012Y-122125619D02*
X154047250Y-122077238D01*
X153998869Y-121980476D01*
X153998869Y-121109619D01*
X154966488Y-122125619D02*
X154966488Y-121593428D01*
X154918107Y-121496666D01*
X154821345Y-121448285D01*
X154627821Y-121448285D01*
X154531060Y-121496666D01*
X154966488Y-122077238D02*
X154869726Y-122125619D01*
X154627821Y-122125619D01*
X154531060Y-122077238D01*
X154482679Y-121980476D01*
X154482679Y-121883714D01*
X154531060Y-121786952D01*
X154627821Y-121738571D01*
X154869726Y-121738571D01*
X154966488Y-121690190D01*
X155353536Y-121448285D02*
X155595440Y-122125619D01*
X155837345Y-121448285D02*
X155595440Y-122125619D01*
X155498679Y-122367523D01*
X155450298Y-122415904D01*
X155353536Y-122464285D01*
X157433917Y-122125619D02*
X157433917Y-121593428D01*
X157385536Y-121496666D01*
X157288774Y-121448285D01*
X157095250Y-121448285D01*
X156998488Y-121496666D01*
X157433917Y-122077238D02*
X157337155Y-122125619D01*
X157095250Y-122125619D01*
X156998488Y-122077238D01*
X156950107Y-121980476D01*
X156950107Y-121883714D01*
X156998488Y-121786952D01*
X157095250Y-121738571D01*
X157337155Y-121738571D01*
X157433917Y-121690190D01*
X157917726Y-121448285D02*
X157917726Y-122125619D01*
X157917726Y-121545047D02*
X157966107Y-121496666D01*
X158062869Y-121448285D01*
X158208012Y-121448285D01*
X158304774Y-121496666D01*
X158353155Y-121593428D01*
X158353155Y-122125619D01*
X159272393Y-122125619D02*
X159272393Y-121109619D01*
X159272393Y-122077238D02*
X159175631Y-122125619D01*
X158982107Y-122125619D01*
X158885345Y-122077238D01*
X158836964Y-122028857D01*
X158788583Y-121932095D01*
X158788583Y-121641809D01*
X158836964Y-121545047D01*
X158885345Y-121496666D01*
X158982107Y-121448285D01*
X159175631Y-121448285D01*
X159272393Y-121496666D01*
X149064012Y-122745379D02*
X149644583Y-122745379D01*
X149354298Y-123761379D02*
X149354298Y-122745379D01*
X149983250Y-123761379D02*
X149983250Y-123084045D01*
X149983250Y-122745379D02*
X149934869Y-122793760D01*
X149983250Y-122842140D01*
X150031631Y-122793760D01*
X149983250Y-122745379D01*
X149983250Y-122842140D01*
X150467060Y-123761379D02*
X150467060Y-123084045D01*
X150467060Y-123180807D02*
X150515440Y-123132426D01*
X150612202Y-123084045D01*
X150757345Y-123084045D01*
X150854107Y-123132426D01*
X150902488Y-123229188D01*
X150902488Y-123761379D01*
X150902488Y-123229188D02*
X150950869Y-123132426D01*
X151047631Y-123084045D01*
X151192774Y-123084045D01*
X151289536Y-123132426D01*
X151337917Y-123229188D01*
X151337917Y-123761379D01*
X152208774Y-123712998D02*
X152112012Y-123761379D01*
X151918488Y-123761379D01*
X151821726Y-123712998D01*
X151773345Y-123616236D01*
X151773345Y-123229188D01*
X151821726Y-123132426D01*
X151918488Y-123084045D01*
X152112012Y-123084045D01*
X152208774Y-123132426D01*
X152257155Y-123229188D01*
X152257155Y-123325950D01*
X151773345Y-123422712D01*
X152837726Y-123761379D02*
X152740964Y-123712998D01*
X152692583Y-123664617D01*
X152644202Y-123567855D01*
X152644202Y-123277569D01*
X152692583Y-123180807D01*
X152740964Y-123132426D01*
X152837726Y-123084045D01*
X152982869Y-123084045D01*
X153079631Y-123132426D01*
X153128012Y-123180807D01*
X153176393Y-123277569D01*
X153176393Y-123567855D01*
X153128012Y-123664617D01*
X153079631Y-123712998D01*
X152982869Y-123761379D01*
X152837726Y-123761379D01*
X154047250Y-123084045D02*
X154047250Y-123761379D01*
X153611821Y-123084045D02*
X153611821Y-123616236D01*
X153660202Y-123712998D01*
X153756964Y-123761379D01*
X153902107Y-123761379D01*
X153998869Y-123712998D01*
X154047250Y-123664617D01*
X154385917Y-123084045D02*
X154772964Y-123084045D01*
X154531060Y-122745379D02*
X154531060Y-123616236D01*
X154579440Y-123712998D01*
X154676202Y-123761379D01*
X154772964Y-123761379D01*
X155837345Y-123712998D02*
X155982488Y-123761379D01*
X156224393Y-123761379D01*
X156321155Y-123712998D01*
X156369536Y-123664617D01*
X156417917Y-123567855D01*
X156417917Y-123471093D01*
X156369536Y-123374331D01*
X156321155Y-123325950D01*
X156224393Y-123277569D01*
X156030869Y-123229188D01*
X155934107Y-123180807D01*
X155885726Y-123132426D01*
X155837345Y-123035664D01*
X155837345Y-122938902D01*
X155885726Y-122842140D01*
X155934107Y-122793760D01*
X156030869Y-122745379D01*
X156272774Y-122745379D01*
X156417917Y-122793760D01*
X157240393Y-123712998D02*
X157143631Y-123761379D01*
X156950107Y-123761379D01*
X156853345Y-123712998D01*
X156804964Y-123616236D01*
X156804964Y-123229188D01*
X156853345Y-123132426D01*
X156950107Y-123084045D01*
X157143631Y-123084045D01*
X157240393Y-123132426D01*
X157288774Y-123229188D01*
X157288774Y-123325950D01*
X156804964Y-123422712D01*
X157579060Y-123084045D02*
X157966107Y-123084045D01*
X157724202Y-122745379D02*
X157724202Y-123616236D01*
X157772583Y-123712998D01*
X157869345Y-123761379D01*
X157966107Y-123761379D01*
X158159631Y-123084045D02*
X158546679Y-123084045D01*
X158304774Y-122745379D02*
X158304774Y-123616236D01*
X158353155Y-123712998D01*
X158449917Y-123761379D01*
X158546679Y-123761379D01*
X158885345Y-123761379D02*
X158885345Y-123084045D01*
X158885345Y-122745379D02*
X158836964Y-122793760D01*
X158885345Y-122842140D01*
X158933726Y-122793760D01*
X158885345Y-122745379D01*
X158885345Y-122842140D01*
X159369155Y-123084045D02*
X159369155Y-123761379D01*
X159369155Y-123180807D02*
X159417536Y-123132426D01*
X159514298Y-123084045D01*
X159659440Y-123084045D01*
X159756202Y-123132426D01*
X159804583Y-123229188D01*
X159804583Y-123761379D01*
X160723821Y-123084045D02*
X160723821Y-123906521D01*
X160675440Y-124003283D01*
X160627060Y-124051664D01*
X160530298Y-124100045D01*
X160385155Y-124100045D01*
X160288393Y-124051664D01*
X160723821Y-123712998D02*
X160627060Y-123761379D01*
X160433536Y-123761379D01*
X160336774Y-123712998D01*
X160288393Y-123664617D01*
X160240012Y-123567855D01*
X160240012Y-123277569D01*
X160288393Y-123180807D01*
X160336774Y-123132426D01*
X160433536Y-123084045D01*
X160627060Y-123084045D01*
X160723821Y-123132426D01*
X161159250Y-123712998D02*
X161256012Y-123761379D01*
X161449536Y-123761379D01*
X161546298Y-123712998D01*
X161594679Y-123616236D01*
X161594679Y-123567855D01*
X161546298Y-123471093D01*
X161449536Y-123422712D01*
X161304393Y-123422712D01*
X161207631Y-123374331D01*
X161159250Y-123277569D01*
X161159250Y-123229188D01*
X161207631Y-123132426D01*
X161304393Y-123084045D01*
X161449536Y-123084045D01*
X161546298Y-123132426D01*
X158915583Y-102646238D02*
X159060726Y-102694619D01*
X159302631Y-102694619D01*
X159399393Y-102646238D01*
X159447774Y-102597857D01*
X159496155Y-102501095D01*
X159496155Y-102404333D01*
X159447774Y-102307571D01*
X159399393Y-102259190D01*
X159302631Y-102210809D01*
X159109107Y-102162428D01*
X159012345Y-102114047D01*
X158963964Y-102065666D01*
X158915583Y-101968904D01*
X158915583Y-101872142D01*
X158963964Y-101775380D01*
X159012345Y-101727000D01*
X159109107Y-101678619D01*
X159351012Y-101678619D01*
X159496155Y-101727000D01*
X159931583Y-102162428D02*
X160270250Y-102162428D01*
X160415393Y-102694619D02*
X159931583Y-102694619D01*
X159931583Y-101678619D01*
X160415393Y-101678619D01*
X160802440Y-102404333D02*
X161286250Y-102404333D01*
X160705679Y-102694619D02*
X161044345Y-101678619D01*
X161383012Y-102694619D01*
X162302250Y-102694619D02*
X161963583Y-102210809D01*
X161721679Y-102694619D02*
X161721679Y-101678619D01*
X162108726Y-101678619D01*
X162205488Y-101727000D01*
X162253869Y-101775380D01*
X162302250Y-101872142D01*
X162302250Y-102017285D01*
X162253869Y-102114047D01*
X162205488Y-102162428D01*
X162108726Y-102210809D01*
X161721679Y-102210809D01*
X163318250Y-102597857D02*
X163269869Y-102646238D01*
X163124726Y-102694619D01*
X163027964Y-102694619D01*
X162882821Y-102646238D01*
X162786060Y-102549476D01*
X162737679Y-102452714D01*
X162689298Y-102259190D01*
X162689298Y-102114047D01*
X162737679Y-101920523D01*
X162786060Y-101823761D01*
X162882821Y-101727000D01*
X163027964Y-101678619D01*
X163124726Y-101678619D01*
X163269869Y-101727000D01*
X163318250Y-101775380D01*
X163753679Y-102694619D02*
X163753679Y-101678619D01*
X163753679Y-102162428D02*
X164334250Y-102162428D01*
X164334250Y-102694619D02*
X164334250Y-101678619D01*
X165301869Y-102694619D02*
X164818060Y-102694619D01*
X164818060Y-101678619D01*
X165640536Y-102694619D02*
X165640536Y-101678619D01*
X166656536Y-101727000D02*
X166559774Y-101678619D01*
X166414631Y-101678619D01*
X166269488Y-101727000D01*
X166172726Y-101823761D01*
X166124345Y-101920523D01*
X166075964Y-102114047D01*
X166075964Y-102259190D01*
X166124345Y-102452714D01*
X166172726Y-102549476D01*
X166269488Y-102646238D01*
X166414631Y-102694619D01*
X166511393Y-102694619D01*
X166656536Y-102646238D01*
X166704917Y-102597857D01*
X166704917Y-102259190D01*
X166511393Y-102259190D01*
X167140345Y-102694619D02*
X167140345Y-101678619D01*
X167140345Y-102162428D02*
X167720917Y-102162428D01*
X167720917Y-102694619D02*
X167720917Y-101678619D01*
X168059583Y-101678619D02*
X168640155Y-101678619D01*
X168349869Y-102694619D02*
X168349869Y-101678619D01*
D13*
X160945285Y-117964857D02*
X161163000Y-118037428D01*
X161525857Y-118037428D01*
X161671000Y-117964857D01*
X161743571Y-117892285D01*
X161816142Y-117747142D01*
X161816142Y-117602000D01*
X161743571Y-117456857D01*
X161671000Y-117384285D01*
X161525857Y-117311714D01*
X161235571Y-117239142D01*
X161090428Y-117166571D01*
X161017857Y-117094000D01*
X160945285Y-116948857D01*
X160945285Y-116803714D01*
X161017857Y-116658571D01*
X161090428Y-116586000D01*
X161235571Y-116513428D01*
X161598428Y-116513428D01*
X161816142Y-116586000D01*
X162251571Y-116513428D02*
X163122428Y-116513428D01*
X162687000Y-118037428D02*
X162687000Y-116513428D01*
X163557857Y-117602000D02*
X164283571Y-117602000D01*
X163412714Y-118037428D02*
X163920714Y-116513428D01*
X164428714Y-118037428D01*
X164719000Y-116513428D02*
X165589857Y-116513428D01*
X165154428Y-118037428D02*
X165154428Y-116513428D01*
X166097857Y-116513428D02*
X166097857Y-117747142D01*
X166170428Y-117892285D01*
X166243000Y-117964857D01*
X166388142Y-118037428D01*
X166678428Y-118037428D01*
X166823571Y-117964857D01*
X166896142Y-117892285D01*
X166968714Y-117747142D01*
X166968714Y-116513428D01*
X167621857Y-117964857D02*
X167839571Y-118037428D01*
X168202428Y-118037428D01*
X168347571Y-117964857D01*
X168420142Y-117892285D01*
X168492714Y-117747142D01*
X168492714Y-117602000D01*
X168420142Y-117456857D01*
X168347571Y-117384285D01*
X168202428Y-117311714D01*
X167912142Y-117239142D01*
X167767000Y-117166571D01*
X167694428Y-117094000D01*
X167621857Y-116948857D01*
X167621857Y-116803714D01*
X167694428Y-116658571D01*
X167767000Y-116586000D01*
X167912142Y-116513428D01*
X168275000Y-116513428D01*
X168492714Y-116586000D01*
D12*
X162247821Y-105488619D02*
X162828393Y-105488619D01*
X162538107Y-106504619D02*
X162538107Y-105488619D01*
X163167060Y-106504619D02*
X163167060Y-105488619D01*
X163650869Y-106504619D02*
X163650869Y-105488619D01*
X163989536Y-106214333D01*
X164328202Y-105488619D01*
X164328202Y-106504619D01*
X164812012Y-105972428D02*
X165150679Y-105972428D01*
X165295821Y-106504619D02*
X164812012Y-106504619D01*
X164812012Y-105488619D01*
X165295821Y-105488619D01*
X165924774Y-105488619D02*
X166118298Y-105488619D01*
X166215060Y-105537000D01*
X166311821Y-105633761D01*
X166360202Y-105827285D01*
X166360202Y-106165952D01*
X166311821Y-106359476D01*
X166215060Y-106456238D01*
X166118298Y-106504619D01*
X165924774Y-106504619D01*
X165828012Y-106456238D01*
X165731250Y-106359476D01*
X165682869Y-106165952D01*
X165682869Y-105827285D01*
X165731250Y-105633761D01*
X165828012Y-105537000D01*
X165924774Y-105488619D01*
X166795631Y-105488619D02*
X166795631Y-106311095D01*
X166844012Y-106407857D01*
X166892393Y-106456238D01*
X166989155Y-106504619D01*
X167182679Y-106504619D01*
X167279440Y-106456238D01*
X167327821Y-106407857D01*
X167376202Y-106311095D01*
X167376202Y-105488619D01*
X167714869Y-105488619D02*
X168295440Y-105488619D01*
X168005155Y-106504619D02*
X168005155Y-105488619D01*
X169553345Y-105488619D02*
X169553345Y-105730523D01*
X169311440Y-105633761D02*
X169553345Y-105730523D01*
X169795250Y-105633761D01*
X169408202Y-105924047D02*
X169553345Y-105730523D01*
X169698488Y-105924047D01*
X159169583Y-89704333D02*
X159653393Y-89704333D01*
X159072821Y-89994619D02*
X159411488Y-88978619D01*
X159750155Y-89994619D01*
X159217964Y-97614619D02*
X159217964Y-96598619D01*
X159459869Y-96598619D01*
X159605012Y-96647000D01*
X159701774Y-96743761D01*
X159750155Y-96840523D01*
X159798536Y-97034047D01*
X159798536Y-97179190D01*
X159750155Y-97372714D01*
X159701774Y-97469476D01*
X159605012Y-97566238D01*
X159459869Y-97614619D01*
X159217964Y-97614619D01*
D13*
X137831285Y-82441142D02*
X137613571Y-82368571D01*
X137250714Y-82368571D01*
X137105571Y-82441142D01*
X137033000Y-82513714D01*
X136960428Y-82658857D01*
X136960428Y-82804000D01*
X137033000Y-82949142D01*
X137105571Y-83021714D01*
X137250714Y-83094285D01*
X137541000Y-83166857D01*
X137686142Y-83239428D01*
X137758714Y-83312000D01*
X137831285Y-83457142D01*
X137831285Y-83602285D01*
X137758714Y-83747428D01*
X137686142Y-83820000D01*
X137541000Y-83892571D01*
X137178142Y-83892571D01*
X136960428Y-83820000D01*
X136307285Y-82368571D02*
X136307285Y-83384571D01*
X136307285Y-83892571D02*
X136379857Y-83820000D01*
X136307285Y-83747428D01*
X136234714Y-83820000D01*
X136307285Y-83892571D01*
X136307285Y-83747428D01*
X134928428Y-83384571D02*
X134928428Y-82150857D01*
X135001000Y-82005714D01*
X135073571Y-81933142D01*
X135218714Y-81860571D01*
X135436428Y-81860571D01*
X135581571Y-81933142D01*
X134928428Y-82441142D02*
X135073571Y-82368571D01*
X135363857Y-82368571D01*
X135509000Y-82441142D01*
X135581571Y-82513714D01*
X135654142Y-82658857D01*
X135654142Y-83094285D01*
X135581571Y-83239428D01*
X135509000Y-83312000D01*
X135363857Y-83384571D01*
X135073571Y-83384571D01*
X134928428Y-83312000D01*
X134202714Y-83384571D02*
X134202714Y-82368571D01*
X134202714Y-83239428D02*
X134130142Y-83312000D01*
X133985000Y-83384571D01*
X133767285Y-83384571D01*
X133622142Y-83312000D01*
X133549571Y-83166857D01*
X133549571Y-82368571D01*
X132170714Y-82368571D02*
X132170714Y-83166857D01*
X132243285Y-83312000D01*
X132388428Y-83384571D01*
X132678714Y-83384571D01*
X132823857Y-83312000D01*
X132170714Y-82441142D02*
X132315857Y-82368571D01*
X132678714Y-82368571D01*
X132823857Y-82441142D01*
X132896428Y-82586285D01*
X132896428Y-82731428D01*
X132823857Y-82876571D01*
X132678714Y-82949142D01*
X132315857Y-82949142D01*
X132170714Y-83021714D01*
X131227285Y-82368571D02*
X131372428Y-82441142D01*
X131445000Y-82586285D01*
X131445000Y-83892571D01*
X128977571Y-83166857D02*
X128759857Y-83094285D01*
X128687285Y-83021714D01*
X128614714Y-82876571D01*
X128614714Y-82658857D01*
X128687285Y-82513714D01*
X128759857Y-82441142D01*
X128905000Y-82368571D01*
X129485571Y-82368571D01*
X129485571Y-83892571D01*
X128977571Y-83892571D01*
X128832428Y-83820000D01*
X128759857Y-83747428D01*
X128687285Y-83602285D01*
X128687285Y-83457142D01*
X128759857Y-83312000D01*
X128832428Y-83239428D01*
X128977571Y-83166857D01*
X129485571Y-83166857D01*
D12*
X159556631Y-92002428D02*
X159701774Y-92050809D01*
X159750155Y-92099190D01*
X159798536Y-92195952D01*
X159798536Y-92341095D01*
X159750155Y-92437857D01*
X159701774Y-92486238D01*
X159605012Y-92534619D01*
X159217964Y-92534619D01*
X159217964Y-91518619D01*
X159556631Y-91518619D01*
X159653393Y-91567000D01*
X159701774Y-91615380D01*
X159750155Y-91712142D01*
X159750155Y-91808904D01*
X159701774Y-91905666D01*
X159653393Y-91954047D01*
X159556631Y-92002428D01*
X159217964Y-92002428D01*
X129400904Y-72644000D02*
X129497666Y-72716571D01*
X129642809Y-72716571D01*
X129787952Y-72644000D01*
X129884714Y-72498857D01*
X129933095Y-72353714D01*
X129981476Y-72063428D01*
X129981476Y-71845714D01*
X129933095Y-71555428D01*
X129884714Y-71410285D01*
X129787952Y-71265142D01*
X129642809Y-71192571D01*
X129546047Y-71192571D01*
X129400904Y-71265142D01*
X129352523Y-71337714D01*
X129352523Y-71845714D01*
X129546047Y-71845714D01*
D14*
X154341285Y-81030000D02*
X153857476Y-81030000D01*
X154438047Y-80601428D02*
X154099380Y-82101428D01*
X153760714Y-80601428D01*
X153422047Y-80601428D02*
X153422047Y-82101428D01*
X152841476Y-80601428D01*
X152841476Y-82101428D01*
X152164142Y-82101428D02*
X151970619Y-82101428D01*
X151873857Y-82030000D01*
X151777095Y-81887142D01*
X151728714Y-81601428D01*
X151728714Y-81101428D01*
X151777095Y-80815714D01*
X151873857Y-80672857D01*
X151970619Y-80601428D01*
X152164142Y-80601428D01*
X152260904Y-80672857D01*
X152357666Y-80815714D01*
X152406047Y-81101428D01*
X152406047Y-81601428D01*
X152357666Y-81887142D01*
X152260904Y-82030000D01*
X152164142Y-82101428D01*
X151293285Y-80601428D02*
X151293285Y-82101428D01*
X151051380Y-82101428D01*
X150906238Y-82030000D01*
X150809476Y-81887142D01*
X150761095Y-81744285D01*
X150712714Y-81458571D01*
X150712714Y-81244285D01*
X150761095Y-80958571D01*
X150809476Y-80815714D01*
X150906238Y-80672857D01*
X151051380Y-80601428D01*
X151293285Y-80601428D01*
X150277285Y-81387142D02*
X149938619Y-81387142D01*
X149793476Y-80601428D02*
X150277285Y-80601428D01*
X150277285Y-82101428D01*
X149793476Y-82101428D01*
X148342047Y-80101428D02*
X148342047Y-82244285D01*
X146261666Y-80744285D02*
X146310047Y-80672857D01*
X146455190Y-80601428D01*
X146551952Y-80601428D01*
X146697095Y-80672857D01*
X146793857Y-80815714D01*
X146842238Y-80958571D01*
X146890619Y-81244285D01*
X146890619Y-81458571D01*
X146842238Y-81744285D01*
X146793857Y-81887142D01*
X146697095Y-82030000D01*
X146551952Y-82101428D01*
X146455190Y-82101428D01*
X146310047Y-82030000D01*
X146261666Y-81958571D01*
X145874619Y-81030000D02*
X145390809Y-81030000D01*
X145971380Y-80601428D02*
X145632714Y-82101428D01*
X145294047Y-80601428D01*
X145100523Y-82101428D02*
X144519952Y-82101428D01*
X144810238Y-80601428D02*
X144810238Y-82101428D01*
X144181285Y-80601428D02*
X144181285Y-82101428D01*
X144181285Y-81387142D02*
X143600714Y-81387142D01*
X143600714Y-80601428D02*
X143600714Y-82101428D01*
X142923380Y-82101428D02*
X142729857Y-82101428D01*
X142633095Y-82030000D01*
X142536333Y-81887142D01*
X142487952Y-81601428D01*
X142487952Y-81101428D01*
X142536333Y-80815714D01*
X142633095Y-80672857D01*
X142729857Y-80601428D01*
X142923380Y-80601428D01*
X143020142Y-80672857D01*
X143116904Y-80815714D01*
X143165285Y-81101428D01*
X143165285Y-81601428D01*
X143116904Y-81887142D01*
X143020142Y-82030000D01*
X142923380Y-82101428D01*
X142052523Y-80601428D02*
X142052523Y-82101428D01*
X141810619Y-82101428D01*
X141665476Y-82030000D01*
X141568714Y-81887142D01*
X141520333Y-81744285D01*
X141471952Y-81458571D01*
X141471952Y-81244285D01*
X141520333Y-80958571D01*
X141568714Y-80815714D01*
X141665476Y-80672857D01*
X141810619Y-80601428D01*
X142052523Y-80601428D01*
X141036523Y-81387142D02*
X140697857Y-81387142D01*
X140552714Y-80601428D02*
X141036523Y-80601428D01*
X141036523Y-82101428D01*
X140552714Y-82101428D01*
D13*
X136742714Y-118255142D02*
X136960428Y-118327714D01*
X137033000Y-118400285D01*
X137105571Y-118545428D01*
X137105571Y-118763142D01*
X137033000Y-118908285D01*
X136960428Y-118980857D01*
X136815285Y-119053428D01*
X136234714Y-119053428D01*
X136234714Y-117529428D01*
X136742714Y-117529428D01*
X136887857Y-117602000D01*
X136960428Y-117674571D01*
X137033000Y-117819714D01*
X137033000Y-117964857D01*
X136960428Y-118110000D01*
X136887857Y-118182571D01*
X136742714Y-118255142D01*
X136234714Y-118255142D01*
X137976428Y-119053428D02*
X137831285Y-118980857D01*
X137758714Y-118835714D01*
X137758714Y-117529428D01*
X138774714Y-119053428D02*
X138629571Y-118980857D01*
X138557000Y-118908285D01*
X138484428Y-118763142D01*
X138484428Y-118327714D01*
X138557000Y-118182571D01*
X138629571Y-118110000D01*
X138774714Y-118037428D01*
X138992428Y-118037428D01*
X139137571Y-118110000D01*
X139210142Y-118182571D01*
X139282714Y-118327714D01*
X139282714Y-118763142D01*
X139210142Y-118908285D01*
X139137571Y-118980857D01*
X138992428Y-119053428D01*
X138774714Y-119053428D01*
X140589000Y-118980857D02*
X140443857Y-119053428D01*
X140153571Y-119053428D01*
X140008428Y-118980857D01*
X139935857Y-118908285D01*
X139863285Y-118763142D01*
X139863285Y-118327714D01*
X139935857Y-118182571D01*
X140008428Y-118110000D01*
X140153571Y-118037428D01*
X140443857Y-118037428D01*
X140589000Y-118110000D01*
X141242142Y-119053428D02*
X141242142Y-117529428D01*
X141387285Y-118472857D02*
X141822714Y-119053428D01*
X141822714Y-118037428D02*
X141242142Y-118618000D01*
X144145000Y-118255142D02*
X144362714Y-118327714D01*
X144435285Y-118400285D01*
X144507857Y-118545428D01*
X144507857Y-118763142D01*
X144435285Y-118908285D01*
X144362714Y-118980857D01*
X144217571Y-119053428D01*
X143637000Y-119053428D01*
X143637000Y-117529428D01*
X144145000Y-117529428D01*
X144290142Y-117602000D01*
X144362714Y-117674571D01*
X144435285Y-117819714D01*
X144435285Y-117964857D01*
X144362714Y-118110000D01*
X144290142Y-118182571D01*
X144145000Y-118255142D01*
X143637000Y-118255142D01*
X148898428Y-111984608D02*
X148027571Y-111984608D01*
X148463000Y-111984608D02*
X148463000Y-110460608D01*
X148317857Y-110678322D01*
X148172714Y-110823465D01*
X148027571Y-110896037D01*
X147519571Y-112914248D02*
X147809857Y-112914248D01*
X147955000Y-112986820D01*
X148100142Y-113131962D01*
X148172714Y-113422248D01*
X148172714Y-113930248D01*
X148100142Y-114220534D01*
X147955000Y-114365677D01*
X147809857Y-114438248D01*
X147519571Y-114438248D01*
X147374428Y-114365677D01*
X147229285Y-114220534D01*
X147156714Y-113930248D01*
X147156714Y-113422248D01*
X147229285Y-113131962D01*
X147374428Y-112986820D01*
X147519571Y-112914248D01*
X148825857Y-114438248D02*
X148825857Y-112914248D01*
X149696714Y-114438248D01*
X149696714Y-112914248D01*
D12*
X159556631Y-107242428D02*
X159217964Y-107242428D01*
X159217964Y-107774619D02*
X159217964Y-106758619D01*
X159701774Y-106758619D01*
D13*
X124260428Y-82441142D02*
X124042714Y-82368571D01*
X123679857Y-82368571D01*
X123534714Y-82441142D01*
X123462142Y-82513714D01*
X123389571Y-82658857D01*
X123389571Y-82804000D01*
X123462142Y-82949142D01*
X123534714Y-83021714D01*
X123679857Y-83094285D01*
X123970142Y-83166857D01*
X124115285Y-83239428D01*
X124187857Y-83312000D01*
X124260428Y-83457142D01*
X124260428Y-83602285D01*
X124187857Y-83747428D01*
X124115285Y-83820000D01*
X123970142Y-83892571D01*
X123607285Y-83892571D01*
X123389571Y-83820000D01*
X122736428Y-82368571D02*
X122736428Y-83384571D01*
X122736428Y-83892571D02*
X122809000Y-83820000D01*
X122736428Y-83747428D01*
X122663857Y-83820000D01*
X122736428Y-83892571D01*
X122736428Y-83747428D01*
X121357571Y-83384571D02*
X121357571Y-82150857D01*
X121430142Y-82005714D01*
X121502714Y-81933142D01*
X121647857Y-81860571D01*
X121865571Y-81860571D01*
X122010714Y-81933142D01*
X121357571Y-82441142D02*
X121502714Y-82368571D01*
X121793000Y-82368571D01*
X121938142Y-82441142D01*
X122010714Y-82513714D01*
X122083285Y-82658857D01*
X122083285Y-83094285D01*
X122010714Y-83239428D01*
X121938142Y-83312000D01*
X121793000Y-83384571D01*
X121502714Y-83384571D01*
X121357571Y-83312000D01*
X120631857Y-83384571D02*
X120631857Y-82368571D01*
X120631857Y-83239428D02*
X120559285Y-83312000D01*
X120414142Y-83384571D01*
X120196428Y-83384571D01*
X120051285Y-83312000D01*
X119978714Y-83166857D01*
X119978714Y-82368571D01*
X118599857Y-82368571D02*
X118599857Y-83166857D01*
X118672428Y-83312000D01*
X118817571Y-83384571D01*
X119107857Y-83384571D01*
X119253000Y-83312000D01*
X118599857Y-82441142D02*
X118745000Y-82368571D01*
X119107857Y-82368571D01*
X119253000Y-82441142D01*
X119325571Y-82586285D01*
X119325571Y-82731428D01*
X119253000Y-82876571D01*
X119107857Y-82949142D01*
X118745000Y-82949142D01*
X118599857Y-83021714D01*
X117656428Y-82368571D02*
X117801571Y-82441142D01*
X117874142Y-82586285D01*
X117874142Y-83892571D01*
X115987285Y-82804000D02*
X115261571Y-82804000D01*
X116132428Y-82368571D02*
X115624428Y-83892571D01*
X115116428Y-82368571D01*
D15*
X80855428Y-108803714D02*
X82355428Y-108803714D01*
X82355428Y-109375142D01*
X82284000Y-109518000D01*
X82212571Y-109589428D01*
X82069714Y-109660857D01*
X81855428Y-109660857D01*
X81712571Y-109589428D01*
X81641142Y-109518000D01*
X81569714Y-109375142D01*
X81569714Y-108803714D01*
X82355428Y-110589428D02*
X82355428Y-110875142D01*
X82284000Y-111018000D01*
X82141142Y-111160857D01*
X81855428Y-111232285D01*
X81355428Y-111232285D01*
X81069714Y-111160857D01*
X80926857Y-111018000D01*
X80855428Y-110875142D01*
X80855428Y-110589428D01*
X80926857Y-110446571D01*
X81069714Y-110303714D01*
X81355428Y-110232285D01*
X81855428Y-110232285D01*
X82141142Y-110303714D01*
X82284000Y-110446571D01*
X82355428Y-110589428D01*
X82355428Y-111732285D02*
X80855428Y-112089428D01*
X81926857Y-112375142D01*
X80855428Y-112660857D01*
X82355428Y-113018000D01*
X81641142Y-113589428D02*
X81641142Y-114089428D01*
X80855428Y-114303714D02*
X80855428Y-113589428D01*
X82355428Y-113589428D01*
X82355428Y-114303714D01*
X80855428Y-115803714D02*
X81569714Y-115303714D01*
X80855428Y-114946571D02*
X82355428Y-114946571D01*
X82355428Y-115518000D01*
X82284000Y-115660857D01*
X82212571Y-115732285D01*
X82069714Y-115803714D01*
X81855428Y-115803714D01*
X81712571Y-115732285D01*
X81641142Y-115660857D01*
X81569714Y-115518000D01*
X81569714Y-114946571D01*
D12*
X137577285Y-71337714D02*
X137625666Y-71265142D01*
X137770809Y-71192571D01*
X137867571Y-71192571D01*
X138012714Y-71265142D01*
X138109476Y-71410285D01*
X138157857Y-71555428D01*
X138206238Y-71845714D01*
X138206238Y-72063428D01*
X138157857Y-72353714D01*
X138109476Y-72498857D01*
X138012714Y-72644000D01*
X137867571Y-72716571D01*
X137770809Y-72716571D01*
X137625666Y-72644000D01*
X137577285Y-72571428D01*
X136948333Y-72716571D02*
X136754809Y-72716571D01*
X136658047Y-72644000D01*
X136561285Y-72498857D01*
X136512904Y-72208571D01*
X136512904Y-71700571D01*
X136561285Y-71410285D01*
X136658047Y-71265142D01*
X136754809Y-71192571D01*
X136948333Y-71192571D01*
X137045095Y-71265142D01*
X137141857Y-71410285D01*
X137190238Y-71700571D01*
X137190238Y-72208571D01*
X137141857Y-72498857D01*
X137045095Y-72644000D01*
X136948333Y-72716571D01*
X136077476Y-71192571D02*
X136077476Y-72716571D01*
X135738809Y-71628000D01*
X135400142Y-72716571D01*
X135400142Y-71192571D01*
X89087476Y-124133428D02*
X88603666Y-124133428D01*
X88555285Y-124859142D01*
X88603666Y-124786571D01*
X88700428Y-124714000D01*
X88942333Y-124714000D01*
X89039095Y-124786571D01*
X89087476Y-124859142D01*
X89135857Y-125004285D01*
X89135857Y-125367142D01*
X89087476Y-125512285D01*
X89039095Y-125584857D01*
X88942333Y-125657428D01*
X88700428Y-125657428D01*
X88603666Y-125584857D01*
X88555285Y-125512285D01*
X89426142Y-124133428D02*
X89764809Y-125657428D01*
X90103476Y-124133428D01*
X112564333Y-88682285D02*
X112564333Y-89843428D01*
X112612714Y-89843428D02*
X112612714Y-88682285D01*
X112661095Y-88682285D02*
X112661095Y-89843428D01*
X112709476Y-89843428D02*
X112709476Y-88682285D01*
X112757857Y-88682285D02*
X112757857Y-89843428D01*
X112806238Y-89843428D02*
X112806238Y-88682285D01*
X112854619Y-88682285D02*
X112854619Y-89843428D01*
X112903000Y-89843428D02*
X112903000Y-88682285D01*
X112951380Y-88682285D02*
X112951380Y-89843428D01*
X112999761Y-89843428D02*
X112999761Y-88682285D01*
X113048142Y-88682285D02*
X113048142Y-89843428D01*
X113096523Y-89843428D02*
X113096523Y-88682285D01*
X113144904Y-88682285D02*
X113144904Y-89843428D01*
X113193285Y-89843428D02*
X113193285Y-88682285D01*
X113241666Y-88682285D02*
X113241666Y-89843428D01*
X112515952Y-88682285D02*
X113290047Y-88682285D01*
X113290047Y-89843428D01*
X112515952Y-89843428D01*
X112515952Y-88682285D01*
D14*
X153567190Y-82824000D02*
X153615571Y-82895428D01*
X153712333Y-83109714D01*
X153760714Y-83252571D01*
X153809095Y-83466857D01*
X153857476Y-83824000D01*
X153857476Y-84109714D01*
X153809095Y-84466857D01*
X153760714Y-84681142D01*
X153712333Y-84824000D01*
X153615571Y-85038285D01*
X153567190Y-85109714D01*
X153180142Y-83966857D02*
X152406047Y-83966857D01*
X152793095Y-83395428D02*
X152793095Y-84538285D01*
X152019000Y-82824000D02*
X151970619Y-82895428D01*
X151873857Y-83109714D01*
X151825476Y-83252571D01*
X151777095Y-83466857D01*
X151728714Y-83824000D01*
X151728714Y-84109714D01*
X151777095Y-84466857D01*
X151825476Y-84681142D01*
X151873857Y-84824000D01*
X151970619Y-85038285D01*
X152019000Y-85109714D01*
X149890238Y-83538285D02*
X149938619Y-83466857D01*
X150083761Y-83395428D01*
X150180523Y-83395428D01*
X150325666Y-83466857D01*
X150422428Y-83609714D01*
X150470809Y-83752571D01*
X150519190Y-84038285D01*
X150519190Y-84252571D01*
X150470809Y-84538285D01*
X150422428Y-84681142D01*
X150325666Y-84824000D01*
X150180523Y-84895428D01*
X150083761Y-84895428D01*
X149938619Y-84824000D01*
X149890238Y-84752571D01*
X149261285Y-84895428D02*
X149067761Y-84895428D01*
X148971000Y-84824000D01*
X148874238Y-84681142D01*
X148825857Y-84395428D01*
X148825857Y-83895428D01*
X148874238Y-83609714D01*
X148971000Y-83466857D01*
X149067761Y-83395428D01*
X149261285Y-83395428D01*
X149358047Y-83466857D01*
X149454809Y-83609714D01*
X149503190Y-83895428D01*
X149503190Y-84395428D01*
X149454809Y-84681142D01*
X149358047Y-84824000D01*
X149261285Y-84895428D01*
X148390428Y-83395428D02*
X148390428Y-84895428D01*
X148051761Y-83824000D01*
X147713095Y-84895428D01*
X147713095Y-83395428D01*
X147229285Y-83395428D02*
X147229285Y-84895428D01*
X146890619Y-83824000D01*
X146551952Y-84895428D01*
X146551952Y-83395428D01*
X145874619Y-84895428D02*
X145681095Y-84895428D01*
X145584333Y-84824000D01*
X145487571Y-84681142D01*
X145439190Y-84395428D01*
X145439190Y-83895428D01*
X145487571Y-83609714D01*
X145584333Y-83466857D01*
X145681095Y-83395428D01*
X145874619Y-83395428D01*
X145971380Y-83466857D01*
X146068142Y-83609714D01*
X146116523Y-83895428D01*
X146116523Y-84395428D01*
X146068142Y-84681142D01*
X145971380Y-84824000D01*
X145874619Y-84895428D01*
X145003761Y-83395428D02*
X145003761Y-84895428D01*
X144423190Y-83395428D01*
X144423190Y-84895428D01*
X142875000Y-82824000D02*
X142923380Y-82895428D01*
X143020142Y-83109714D01*
X143068523Y-83252571D01*
X143116904Y-83466857D01*
X143165285Y-83824000D01*
X143165285Y-84109714D01*
X143116904Y-84466857D01*
X143068523Y-84681142D01*
X143020142Y-84824000D01*
X142923380Y-85038285D01*
X142875000Y-85109714D01*
X142487952Y-83966857D02*
X141713857Y-83966857D01*
X141326809Y-82824000D02*
X141278428Y-82895428D01*
X141181666Y-83109714D01*
X141133285Y-83252571D01*
X141084904Y-83466857D01*
X141036523Y-83824000D01*
X141036523Y-84109714D01*
X141084904Y-84466857D01*
X141133285Y-84681142D01*
X141181666Y-84824000D01*
X141278428Y-85038285D01*
X141326809Y-85109714D01*
D12*
X132908523Y-71192571D02*
X133247190Y-71918285D01*
X133489095Y-71192571D02*
X133489095Y-72716571D01*
X133102047Y-72716571D01*
X133005285Y-72644000D01*
X132956904Y-72571428D01*
X132908523Y-72426285D01*
X132908523Y-72208571D01*
X132956904Y-72063428D01*
X133005285Y-71990857D01*
X133102047Y-71918285D01*
X133489095Y-71918285D01*
D13*
X110399285Y-78250142D02*
X110181571Y-78177571D01*
X109818714Y-78177571D01*
X109673571Y-78250142D01*
X109601000Y-78322714D01*
X109528428Y-78467857D01*
X109528428Y-78613000D01*
X109601000Y-78758142D01*
X109673571Y-78830714D01*
X109818714Y-78903285D01*
X110109000Y-78975857D01*
X110254142Y-79048428D01*
X110326714Y-79121000D01*
X110399285Y-79266142D01*
X110399285Y-79411285D01*
X110326714Y-79556428D01*
X110254142Y-79629000D01*
X110109000Y-79701571D01*
X109746142Y-79701571D01*
X109528428Y-79629000D01*
X108875285Y-78177571D02*
X108875285Y-79193571D01*
X108875285Y-79701571D02*
X108947857Y-79629000D01*
X108875285Y-79556428D01*
X108802714Y-79629000D01*
X108875285Y-79701571D01*
X108875285Y-79556428D01*
X107496428Y-79193571D02*
X107496428Y-77959857D01*
X107569000Y-77814714D01*
X107641571Y-77742142D01*
X107786714Y-77669571D01*
X108004428Y-77669571D01*
X108149571Y-77742142D01*
X107496428Y-78250142D02*
X107641571Y-78177571D01*
X107931857Y-78177571D01*
X108077000Y-78250142D01*
X108149571Y-78322714D01*
X108222142Y-78467857D01*
X108222142Y-78903285D01*
X108149571Y-79048428D01*
X108077000Y-79121000D01*
X107931857Y-79193571D01*
X107641571Y-79193571D01*
X107496428Y-79121000D01*
X106770714Y-79193571D02*
X106770714Y-78177571D01*
X106770714Y-79048428D02*
X106698142Y-79121000D01*
X106553000Y-79193571D01*
X106335285Y-79193571D01*
X106190142Y-79121000D01*
X106117571Y-78975857D01*
X106117571Y-78177571D01*
X104738714Y-78177571D02*
X104738714Y-78975857D01*
X104811285Y-79121000D01*
X104956428Y-79193571D01*
X105246714Y-79193571D01*
X105391857Y-79121000D01*
X104738714Y-78250142D02*
X104883857Y-78177571D01*
X105246714Y-78177571D01*
X105391857Y-78250142D01*
X105464428Y-78395285D01*
X105464428Y-78540428D01*
X105391857Y-78685571D01*
X105246714Y-78758142D01*
X104883857Y-78758142D01*
X104738714Y-78830714D01*
X103795285Y-78177571D02*
X103940428Y-78250142D01*
X104013000Y-78395285D01*
X104013000Y-79701571D01*
X101545571Y-78975857D02*
X101327857Y-78903285D01*
X101255285Y-78830714D01*
X101182714Y-78685571D01*
X101182714Y-78467857D01*
X101255285Y-78322714D01*
X101327857Y-78250142D01*
X101473000Y-78177571D01*
X102053571Y-78177571D01*
X102053571Y-79701571D01*
X101545571Y-79701571D01*
X101400428Y-79629000D01*
X101327857Y-79556428D01*
X101255285Y-79411285D01*
X101255285Y-79266142D01*
X101327857Y-79121000D01*
X101400428Y-79048428D01*
X101545571Y-78975857D01*
X102053571Y-78975857D01*
D12*
X92824904Y-125018869D02*
X92050809Y-125018869D01*
X92244333Y-125309154D02*
X92050809Y-125018869D01*
X92244333Y-124728583D01*
X93840904Y-124148012D02*
X93744142Y-124075440D01*
X93599000Y-124075440D01*
X93453857Y-124148012D01*
X93357095Y-124293154D01*
X93308714Y-124438297D01*
X93260333Y-124728583D01*
X93260333Y-124946297D01*
X93308714Y-125236583D01*
X93357095Y-125381726D01*
X93453857Y-125526869D01*
X93599000Y-125599440D01*
X93695761Y-125599440D01*
X93840904Y-125526869D01*
X93889285Y-125454297D01*
X93889285Y-124946297D01*
X93695761Y-124946297D01*
X94324714Y-125599440D02*
X94324714Y-124075440D01*
X94905285Y-125599440D01*
X94905285Y-124075440D01*
X95389095Y-125599440D02*
X95389095Y-124075440D01*
X95631000Y-124075440D01*
X95776142Y-124148012D01*
X95872904Y-124293154D01*
X95921285Y-124438297D01*
X95969666Y-124728583D01*
X95969666Y-124946297D01*
X95921285Y-125236583D01*
X95872904Y-125381726D01*
X95776142Y-125526869D01*
X95631000Y-125599440D01*
X95389095Y-125599440D01*
X96405095Y-125018869D02*
X97179190Y-125018869D01*
X96985666Y-125309154D02*
X97179190Y-125018869D01*
X96985666Y-124728583D01*
X119446523Y-71192571D02*
X119785190Y-71918285D01*
X120027095Y-71192571D02*
X120027095Y-72716571D01*
X119640047Y-72716571D01*
X119543285Y-72644000D01*
X119494904Y-72571428D01*
X119446523Y-72426285D01*
X119446523Y-72208571D01*
X119494904Y-72063428D01*
X119543285Y-71990857D01*
X119640047Y-71918285D01*
X120027095Y-71918285D01*
D13*
X124877285Y-119053428D02*
X124877285Y-117529428D01*
X125240142Y-117529428D01*
X125457857Y-117602000D01*
X125603000Y-117747142D01*
X125675571Y-117892285D01*
X125748142Y-118182571D01*
X125748142Y-118400285D01*
X125675571Y-118690571D01*
X125603000Y-118835714D01*
X125457857Y-118980857D01*
X125240142Y-119053428D01*
X124877285Y-119053428D01*
X126401285Y-119053428D02*
X126401285Y-118037428D01*
X126401285Y-117529428D02*
X126328714Y-117602000D01*
X126401285Y-117674571D01*
X126473857Y-117602000D01*
X126401285Y-117529428D01*
X126401285Y-117674571D01*
X127780142Y-119053428D02*
X127780142Y-118255142D01*
X127707571Y-118110000D01*
X127562428Y-118037428D01*
X127272142Y-118037428D01*
X127127000Y-118110000D01*
X127780142Y-118980857D02*
X127635000Y-119053428D01*
X127272142Y-119053428D01*
X127127000Y-118980857D01*
X127054428Y-118835714D01*
X127054428Y-118690571D01*
X127127000Y-118545428D01*
X127272142Y-118472857D01*
X127635000Y-118472857D01*
X127780142Y-118400285D01*
X128505857Y-119053428D02*
X128505857Y-118037428D01*
X128505857Y-118182571D02*
X128578428Y-118110000D01*
X128723571Y-118037428D01*
X128941285Y-118037428D01*
X129086428Y-118110000D01*
X129159000Y-118255142D01*
X129159000Y-119053428D01*
X129159000Y-118255142D02*
X129231571Y-118110000D01*
X129376714Y-118037428D01*
X129594428Y-118037428D01*
X129739571Y-118110000D01*
X129812142Y-118255142D01*
X129812142Y-119053428D01*
X130755571Y-119053428D02*
X130610428Y-118980857D01*
X130537857Y-118908285D01*
X130465285Y-118763142D01*
X130465285Y-118327714D01*
X130537857Y-118182571D01*
X130610428Y-118110000D01*
X130755571Y-118037428D01*
X130973285Y-118037428D01*
X131118428Y-118110000D01*
X131191000Y-118182571D01*
X131263571Y-118327714D01*
X131263571Y-118763142D01*
X131191000Y-118908285D01*
X131118428Y-118980857D01*
X130973285Y-119053428D01*
X130755571Y-119053428D01*
X131916714Y-118037428D02*
X131916714Y-119053428D01*
X131916714Y-118182571D02*
X131989285Y-118110000D01*
X132134428Y-118037428D01*
X132352142Y-118037428D01*
X132497285Y-118110000D01*
X132569857Y-118255142D01*
X132569857Y-119053428D01*
X133948714Y-119053428D02*
X133948714Y-117529428D01*
X133948714Y-118980857D02*
X133803571Y-119053428D01*
X133513285Y-119053428D01*
X133368142Y-118980857D01*
X133295571Y-118908285D01*
X133223000Y-118763142D01*
X133223000Y-118327714D01*
X133295571Y-118182571D01*
X133368142Y-118110000D01*
X133513285Y-118037428D01*
X133803571Y-118037428D01*
X133948714Y-118110000D01*
D12*
X102501095Y-125222000D02*
X102984904Y-125222000D01*
X102404333Y-125657428D02*
X102743000Y-124133428D01*
X103081666Y-125657428D01*
D13*
X103178428Y-114481428D02*
X103178428Y-112957428D01*
X103904142Y-113465428D02*
X103904142Y-114481428D01*
X103904142Y-113610571D02*
X103976714Y-113538000D01*
X104121857Y-113465428D01*
X104339571Y-113465428D01*
X104484714Y-113538000D01*
X104557285Y-113683142D01*
X104557285Y-114481428D01*
X105283000Y-113465428D02*
X105283000Y-114989428D01*
X105283000Y-113538000D02*
X105428142Y-113465428D01*
X105718428Y-113465428D01*
X105863571Y-113538000D01*
X105936142Y-113610571D01*
X106008714Y-113755714D01*
X106008714Y-114191142D01*
X105936142Y-114336285D01*
X105863571Y-114408857D01*
X105718428Y-114481428D01*
X105428142Y-114481428D01*
X105283000Y-114408857D01*
X107315000Y-113465428D02*
X107315000Y-114481428D01*
X106661857Y-113465428D02*
X106661857Y-114263714D01*
X106734428Y-114408857D01*
X106879571Y-114481428D01*
X107097285Y-114481428D01*
X107242428Y-114408857D01*
X107315000Y-114336285D01*
X107823000Y-113465428D02*
X108403571Y-113465428D01*
X108040714Y-112957428D02*
X108040714Y-114263714D01*
X108113285Y-114408857D01*
X108258428Y-114481428D01*
X108403571Y-114481428D01*
X108839000Y-114408857D02*
X108984142Y-114481428D01*
X109274428Y-114481428D01*
X109419571Y-114408857D01*
X109492142Y-114263714D01*
X109492142Y-114191142D01*
X109419571Y-114046000D01*
X109274428Y-113973428D01*
X109056714Y-113973428D01*
X108911571Y-113900857D01*
X108839000Y-113755714D01*
X108839000Y-113683142D01*
X108911571Y-113538000D01*
X109056714Y-113465428D01*
X109274428Y-113465428D01*
X109419571Y-113538000D01*
X155248428Y-110460608D02*
X155393571Y-110460608D01*
X155538714Y-110533180D01*
X155611285Y-110605751D01*
X155683857Y-110750894D01*
X155756428Y-111041180D01*
X155756428Y-111404037D01*
X155683857Y-111694322D01*
X155611285Y-111839465D01*
X155538714Y-111912037D01*
X155393571Y-111984608D01*
X155248428Y-111984608D01*
X155103285Y-111912037D01*
X155030714Y-111839465D01*
X154958142Y-111694322D01*
X154885571Y-111404037D01*
X154885571Y-111041180D01*
X154958142Y-110750894D01*
X155030714Y-110605751D01*
X155103285Y-110533180D01*
X155248428Y-110460608D01*
X153869571Y-112914248D02*
X154159857Y-112914248D01*
X154305000Y-112986820D01*
X154450142Y-113131962D01*
X154522714Y-113422248D01*
X154522714Y-113930248D01*
X154450142Y-114220534D01*
X154305000Y-114365677D01*
X154159857Y-114438248D01*
X153869571Y-114438248D01*
X153724428Y-114365677D01*
X153579285Y-114220534D01*
X153506714Y-113930248D01*
X153506714Y-113422248D01*
X153579285Y-113131962D01*
X153724428Y-112986820D01*
X153869571Y-112914248D01*
X155683857Y-113639962D02*
X155175857Y-113639962D01*
X155175857Y-114438248D02*
X155175857Y-112914248D01*
X155901571Y-112914248D01*
X156990142Y-113639962D02*
X156482142Y-113639962D01*
X156482142Y-114438248D02*
X156482142Y-112914248D01*
X157207857Y-112914248D01*
D12*
X124115285Y-71337714D02*
X124163666Y-71265142D01*
X124308809Y-71192571D01*
X124405571Y-71192571D01*
X124550714Y-71265142D01*
X124647476Y-71410285D01*
X124695857Y-71555428D01*
X124744238Y-71845714D01*
X124744238Y-72063428D01*
X124695857Y-72353714D01*
X124647476Y-72498857D01*
X124550714Y-72644000D01*
X124405571Y-72716571D01*
X124308809Y-72716571D01*
X124163666Y-72644000D01*
X124115285Y-72571428D01*
X123486333Y-72716571D02*
X123292809Y-72716571D01*
X123196047Y-72644000D01*
X123099285Y-72498857D01*
X123050904Y-72208571D01*
X123050904Y-71700571D01*
X123099285Y-71410285D01*
X123196047Y-71265142D01*
X123292809Y-71192571D01*
X123486333Y-71192571D01*
X123583095Y-71265142D01*
X123679857Y-71410285D01*
X123728238Y-71700571D01*
X123728238Y-72208571D01*
X123679857Y-72498857D01*
X123583095Y-72644000D01*
X123486333Y-72716571D01*
X122615476Y-71192571D02*
X122615476Y-72716571D01*
X122276809Y-71628000D01*
X121938142Y-72716571D01*
X121938142Y-71192571D01*
D13*
X115007571Y-118255142D02*
X115225285Y-118327714D01*
X115297857Y-118400285D01*
X115370428Y-118545428D01*
X115370428Y-118763142D01*
X115297857Y-118908285D01*
X115225285Y-118980857D01*
X115080142Y-119053428D01*
X114499571Y-119053428D01*
X114499571Y-117529428D01*
X115007571Y-117529428D01*
X115152714Y-117602000D01*
X115225285Y-117674571D01*
X115297857Y-117819714D01*
X115297857Y-117964857D01*
X115225285Y-118110000D01*
X115152714Y-118182571D01*
X115007571Y-118255142D01*
X114499571Y-118255142D01*
X116241285Y-119053428D02*
X116096142Y-118980857D01*
X116023571Y-118835714D01*
X116023571Y-117529428D01*
X117039571Y-119053428D02*
X116894428Y-118980857D01*
X116821857Y-118908285D01*
X116749285Y-118763142D01*
X116749285Y-118327714D01*
X116821857Y-118182571D01*
X116894428Y-118110000D01*
X117039571Y-118037428D01*
X117257285Y-118037428D01*
X117402428Y-118110000D01*
X117475000Y-118182571D01*
X117547571Y-118327714D01*
X117547571Y-118763142D01*
X117475000Y-118908285D01*
X117402428Y-118980857D01*
X117257285Y-119053428D01*
X117039571Y-119053428D01*
X118853857Y-118980857D02*
X118708714Y-119053428D01*
X118418428Y-119053428D01*
X118273285Y-118980857D01*
X118200714Y-118908285D01*
X118128142Y-118763142D01*
X118128142Y-118327714D01*
X118200714Y-118182571D01*
X118273285Y-118110000D01*
X118418428Y-118037428D01*
X118708714Y-118037428D01*
X118853857Y-118110000D01*
X119507000Y-119053428D02*
X119507000Y-117529428D01*
X119652142Y-118472857D02*
X120087571Y-119053428D01*
X120087571Y-118037428D02*
X119507000Y-118618000D01*
X121829285Y-118618000D02*
X122555000Y-118618000D01*
X121684142Y-119053428D02*
X122192142Y-117529428D01*
X122700142Y-119053428D01*
D16*
X101941333Y-105493142D02*
X101893714Y-105540761D01*
X101750857Y-105588380D01*
X101655619Y-105588380D01*
X101512761Y-105540761D01*
X101417523Y-105445523D01*
X101369904Y-105350285D01*
X101322285Y-105159809D01*
X101322285Y-105016952D01*
X101369904Y-104826476D01*
X101417523Y-104731238D01*
X101512761Y-104636000D01*
X101655619Y-104588380D01*
X101750857Y-104588380D01*
X101893714Y-104636000D01*
X101941333Y-104683619D01*
X102512761Y-105016952D02*
X102417523Y-104969333D01*
X102369904Y-104921714D01*
X102322285Y-104826476D01*
X102322285Y-104778857D01*
X102369904Y-104683619D01*
X102417523Y-104636000D01*
X102512761Y-104588380D01*
X102703238Y-104588380D01*
X102798476Y-104636000D01*
X102846095Y-104683619D01*
X102893714Y-104778857D01*
X102893714Y-104826476D01*
X102846095Y-104921714D01*
X102798476Y-104969333D01*
X102703238Y-105016952D01*
X102512761Y-105016952D01*
X102417523Y-105064571D01*
X102369904Y-105112190D01*
X102322285Y-105207428D01*
X102322285Y-105397904D01*
X102369904Y-105493142D01*
X102417523Y-105540761D01*
X102512761Y-105588380D01*
X102703238Y-105588380D01*
X102798476Y-105540761D01*
X102846095Y-105493142D01*
X102893714Y-105397904D01*
X102893714Y-105207428D01*
X102846095Y-105112190D01*
X102798476Y-105064571D01*
X102703238Y-105016952D01*
X140001666Y-123912380D02*
X140001666Y-124626666D01*
X139954047Y-124769523D01*
X139858809Y-124864761D01*
X139715952Y-124912380D01*
X139620714Y-124912380D01*
X140906428Y-124245714D02*
X140906428Y-124912380D01*
X140668333Y-123864761D02*
X140430238Y-124579047D01*
X141049285Y-124579047D01*
X136231333Y-100401380D02*
X135898000Y-99925190D01*
X135659904Y-100401380D02*
X135659904Y-99401380D01*
X136040857Y-99401380D01*
X136136095Y-99449000D01*
X136183714Y-99496619D01*
X136231333Y-99591857D01*
X136231333Y-99734714D01*
X136183714Y-99829952D01*
X136136095Y-99877571D01*
X136040857Y-99925190D01*
X135659904Y-99925190D01*
X137088476Y-99401380D02*
X136898000Y-99401380D01*
X136802761Y-99449000D01*
X136755142Y-99496619D01*
X136659904Y-99639476D01*
X136612285Y-99829952D01*
X136612285Y-100210904D01*
X136659904Y-100306142D01*
X136707523Y-100353761D01*
X136802761Y-100401380D01*
X136993238Y-100401380D01*
X137088476Y-100353761D01*
X137136095Y-100306142D01*
X137183714Y-100210904D01*
X137183714Y-99972809D01*
X137136095Y-99877571D01*
X137088476Y-99829952D01*
X136993238Y-99782333D01*
X136802761Y-99782333D01*
X136707523Y-99829952D01*
X136659904Y-99877571D01*
X136612285Y-99972809D01*
X96639142Y-84018380D02*
X96305809Y-83542190D01*
X96067714Y-84018380D02*
X96067714Y-83018380D01*
X96448666Y-83018380D01*
X96543904Y-83066000D01*
X96591523Y-83113619D01*
X96639142Y-83208857D01*
X96639142Y-83351714D01*
X96591523Y-83446952D01*
X96543904Y-83494571D01*
X96448666Y-83542190D01*
X96067714Y-83542190D01*
X97020095Y-83113619D02*
X97067714Y-83066000D01*
X97162952Y-83018380D01*
X97401047Y-83018380D01*
X97496285Y-83066000D01*
X97543904Y-83113619D01*
X97591523Y-83208857D01*
X97591523Y-83304095D01*
X97543904Y-83446952D01*
X96972476Y-84018380D01*
X97591523Y-84018380D01*
X98210571Y-83018380D02*
X98305809Y-83018380D01*
X98401047Y-83066000D01*
X98448666Y-83113619D01*
X98496285Y-83208857D01*
X98543904Y-83399333D01*
X98543904Y-83637428D01*
X98496285Y-83827904D01*
X98448666Y-83923142D01*
X98401047Y-83970761D01*
X98305809Y-84018380D01*
X98210571Y-84018380D01*
X98115333Y-83970761D01*
X98067714Y-83923142D01*
X98020095Y-83827904D01*
X97972476Y-83637428D01*
X97972476Y-83399333D01*
X98020095Y-83208857D01*
X98067714Y-83113619D01*
X98115333Y-83066000D01*
X98210571Y-83018380D01*
X112736380Y-78057333D02*
X113450666Y-78057333D01*
X113593523Y-78104952D01*
X113688761Y-78200190D01*
X113736380Y-78343047D01*
X113736380Y-78438285D01*
X113164952Y-77438285D02*
X113117333Y-77533523D01*
X113069714Y-77581142D01*
X112974476Y-77628761D01*
X112926857Y-77628761D01*
X112831619Y-77581142D01*
X112784000Y-77533523D01*
X112736380Y-77438285D01*
X112736380Y-77247809D01*
X112784000Y-77152571D01*
X112831619Y-77104952D01*
X112926857Y-77057333D01*
X112974476Y-77057333D01*
X113069714Y-77104952D01*
X113117333Y-77152571D01*
X113164952Y-77247809D01*
X113164952Y-77438285D01*
X113212571Y-77533523D01*
X113260190Y-77581142D01*
X113355428Y-77628761D01*
X113545904Y-77628761D01*
X113641142Y-77581142D01*
X113688761Y-77533523D01*
X113736380Y-77438285D01*
X113736380Y-77247809D01*
X113688761Y-77152571D01*
X113641142Y-77104952D01*
X113545904Y-77057333D01*
X113355428Y-77057333D01*
X113260190Y-77104952D01*
X113212571Y-77152571D01*
X113164952Y-77247809D01*
X121268833Y-111101142D02*
X121221214Y-111148761D01*
X121078357Y-111196380D01*
X120983119Y-111196380D01*
X120840261Y-111148761D01*
X120745023Y-111053523D01*
X120697404Y-110958285D01*
X120649785Y-110767809D01*
X120649785Y-110624952D01*
X120697404Y-110434476D01*
X120745023Y-110339238D01*
X120840261Y-110244000D01*
X120983119Y-110196380D01*
X121078357Y-110196380D01*
X121221214Y-110244000D01*
X121268833Y-110291619D01*
X121602166Y-110196380D02*
X122268833Y-110196380D01*
X121840261Y-111196380D01*
X104767142Y-105588380D02*
X104433809Y-105112190D01*
X104195714Y-105588380D02*
X104195714Y-104588380D01*
X104576666Y-104588380D01*
X104671904Y-104636000D01*
X104719523Y-104683619D01*
X104767142Y-104778857D01*
X104767142Y-104921714D01*
X104719523Y-105016952D01*
X104671904Y-105064571D01*
X104576666Y-105112190D01*
X104195714Y-105112190D01*
X105719523Y-105588380D02*
X105148095Y-105588380D01*
X105433809Y-105588380D02*
X105433809Y-104588380D01*
X105338571Y-104731238D01*
X105243333Y-104826476D01*
X105148095Y-104874095D01*
X106624285Y-104588380D02*
X106148095Y-104588380D01*
X106100476Y-105064571D01*
X106148095Y-105016952D01*
X106243333Y-104969333D01*
X106481428Y-104969333D01*
X106576666Y-105016952D01*
X106624285Y-105064571D01*
X106671904Y-105159809D01*
X106671904Y-105397904D01*
X106624285Y-105493142D01*
X106576666Y-105540761D01*
X106481428Y-105588380D01*
X106243333Y-105588380D01*
X106148095Y-105540761D01*
X106100476Y-105493142D01*
X110878333Y-108148380D02*
X110545000Y-107672190D01*
X110306904Y-108148380D02*
X110306904Y-107148380D01*
X110687857Y-107148380D01*
X110783095Y-107196000D01*
X110830714Y-107243619D01*
X110878333Y-107338857D01*
X110878333Y-107481714D01*
X110830714Y-107576952D01*
X110783095Y-107624571D01*
X110687857Y-107672190D01*
X110306904Y-107672190D01*
X111449761Y-107576952D02*
X111354523Y-107529333D01*
X111306904Y-107481714D01*
X111259285Y-107386476D01*
X111259285Y-107338857D01*
X111306904Y-107243619D01*
X111354523Y-107196000D01*
X111449761Y-107148380D01*
X111640238Y-107148380D01*
X111735476Y-107196000D01*
X111783095Y-107243619D01*
X111830714Y-107338857D01*
X111830714Y-107386476D01*
X111783095Y-107481714D01*
X111735476Y-107529333D01*
X111640238Y-107576952D01*
X111449761Y-107576952D01*
X111354523Y-107624571D01*
X111306904Y-107672190D01*
X111259285Y-107767428D01*
X111259285Y-107957904D01*
X111306904Y-108053142D01*
X111354523Y-108100761D01*
X111449761Y-108148380D01*
X111640238Y-108148380D01*
X111735476Y-108100761D01*
X111783095Y-108053142D01*
X111830714Y-107957904D01*
X111830714Y-107767428D01*
X111783095Y-107672190D01*
X111735476Y-107624571D01*
X111640238Y-107576952D01*
X104767142Y-84018380D02*
X104433809Y-83542190D01*
X104195714Y-84018380D02*
X104195714Y-83018380D01*
X104576666Y-83018380D01*
X104671904Y-83066000D01*
X104719523Y-83113619D01*
X104767142Y-83208857D01*
X104767142Y-83351714D01*
X104719523Y-83446952D01*
X104671904Y-83494571D01*
X104576666Y-83542190D01*
X104195714Y-83542190D01*
X105719523Y-84018380D02*
X105148095Y-84018380D01*
X105433809Y-84018380D02*
X105433809Y-83018380D01*
X105338571Y-83161238D01*
X105243333Y-83256476D01*
X105148095Y-83304095D01*
X106052857Y-83018380D02*
X106719523Y-83018380D01*
X106290952Y-84018380D01*
X86510904Y-88844380D02*
X86510904Y-87844380D01*
X86749000Y-87844380D01*
X86891857Y-87892000D01*
X86987095Y-87987238D01*
X87034714Y-88082476D01*
X87082333Y-88272952D01*
X87082333Y-88415809D01*
X87034714Y-88606285D01*
X86987095Y-88701523D01*
X86891857Y-88796761D01*
X86749000Y-88844380D01*
X86510904Y-88844380D01*
X88034714Y-88844380D02*
X87463285Y-88844380D01*
X87749000Y-88844380D02*
X87749000Y-87844380D01*
X87653761Y-87987238D01*
X87558523Y-88082476D01*
X87463285Y-88130095D01*
X136231333Y-102941380D02*
X135898000Y-102465190D01*
X135659904Y-102941380D02*
X135659904Y-101941380D01*
X136040857Y-101941380D01*
X136136095Y-101989000D01*
X136183714Y-102036619D01*
X136231333Y-102131857D01*
X136231333Y-102274714D01*
X136183714Y-102369952D01*
X136136095Y-102417571D01*
X136040857Y-102465190D01*
X135659904Y-102465190D01*
X137136095Y-101941380D02*
X136659904Y-101941380D01*
X136612285Y-102417571D01*
X136659904Y-102369952D01*
X136755142Y-102322333D01*
X136993238Y-102322333D01*
X137088476Y-102369952D01*
X137136095Y-102417571D01*
X137183714Y-102512809D01*
X137183714Y-102750904D01*
X137136095Y-102846142D01*
X137088476Y-102893761D01*
X136993238Y-102941380D01*
X136755142Y-102941380D01*
X136659904Y-102893761D01*
X136612285Y-102846142D01*
X127214333Y-93067142D02*
X127166714Y-93114761D01*
X127023857Y-93162380D01*
X126928619Y-93162380D01*
X126785761Y-93114761D01*
X126690523Y-93019523D01*
X126642904Y-92924285D01*
X126595285Y-92733809D01*
X126595285Y-92590952D01*
X126642904Y-92400476D01*
X126690523Y-92305238D01*
X126785761Y-92210000D01*
X126928619Y-92162380D01*
X127023857Y-92162380D01*
X127166714Y-92210000D01*
X127214333Y-92257619D01*
X127547666Y-92162380D02*
X128166714Y-92162380D01*
X127833380Y-92543333D01*
X127976238Y-92543333D01*
X128071476Y-92590952D01*
X128119095Y-92638571D01*
X128166714Y-92733809D01*
X128166714Y-92971904D01*
X128119095Y-93067142D01*
X128071476Y-93114761D01*
X127976238Y-93162380D01*
X127690523Y-93162380D01*
X127595285Y-93114761D01*
X127547666Y-93067142D01*
X90257333Y-97512142D02*
X90209714Y-97559761D01*
X90066857Y-97607380D01*
X89971619Y-97607380D01*
X89828761Y-97559761D01*
X89733523Y-97464523D01*
X89685904Y-97369285D01*
X89638285Y-97178809D01*
X89638285Y-97035952D01*
X89685904Y-96845476D01*
X89733523Y-96750238D01*
X89828761Y-96655000D01*
X89971619Y-96607380D01*
X90066857Y-96607380D01*
X90209714Y-96655000D01*
X90257333Y-96702619D01*
X91209714Y-97607380D02*
X90638285Y-97607380D01*
X90924000Y-97607380D02*
X90924000Y-96607380D01*
X90828761Y-96750238D01*
X90733523Y-96845476D01*
X90638285Y-96893095D01*
X129754333Y-100020380D02*
X129421000Y-99544190D01*
X129182904Y-100020380D02*
X129182904Y-99020380D01*
X129563857Y-99020380D01*
X129659095Y-99068000D01*
X129706714Y-99115619D01*
X129754333Y-99210857D01*
X129754333Y-99353714D01*
X129706714Y-99448952D01*
X129659095Y-99496571D01*
X129563857Y-99544190D01*
X129182904Y-99544190D01*
X130135285Y-99115619D02*
X130182904Y-99068000D01*
X130278142Y-99020380D01*
X130516238Y-99020380D01*
X130611476Y-99068000D01*
X130659095Y-99115619D01*
X130706714Y-99210857D01*
X130706714Y-99306095D01*
X130659095Y-99448952D01*
X130087666Y-100020380D01*
X130706714Y-100020380D01*
X118157666Y-123912380D02*
X118157666Y-124626666D01*
X118110047Y-124769523D01*
X118014809Y-124864761D01*
X117871952Y-124912380D01*
X117776714Y-124912380D01*
X118586238Y-124007619D02*
X118633857Y-123960000D01*
X118729095Y-123912380D01*
X118967190Y-123912380D01*
X119062428Y-123960000D01*
X119110047Y-124007619D01*
X119157666Y-124102857D01*
X119157666Y-124198095D01*
X119110047Y-124340952D01*
X118538619Y-124912380D01*
X119157666Y-124912380D01*
X135882142Y-87574380D02*
X135548809Y-87098190D01*
X135310714Y-87574380D02*
X135310714Y-86574380D01*
X135691666Y-86574380D01*
X135786904Y-86622000D01*
X135834523Y-86669619D01*
X135882142Y-86764857D01*
X135882142Y-86907714D01*
X135834523Y-87002952D01*
X135786904Y-87050571D01*
X135691666Y-87098190D01*
X135310714Y-87098190D01*
X136834523Y-87574380D02*
X136263095Y-87574380D01*
X136548809Y-87574380D02*
X136548809Y-86574380D01*
X136453571Y-86717238D01*
X136358333Y-86812476D01*
X136263095Y-86860095D01*
X137405952Y-87002952D02*
X137310714Y-86955333D01*
X137263095Y-86907714D01*
X137215476Y-86812476D01*
X137215476Y-86764857D01*
X137263095Y-86669619D01*
X137310714Y-86622000D01*
X137405952Y-86574380D01*
X137596428Y-86574380D01*
X137691666Y-86622000D01*
X137739285Y-86669619D01*
X137786904Y-86764857D01*
X137786904Y-86812476D01*
X137739285Y-86907714D01*
X137691666Y-86955333D01*
X137596428Y-87002952D01*
X137405952Y-87002952D01*
X137310714Y-87050571D01*
X137263095Y-87098190D01*
X137215476Y-87193428D01*
X137215476Y-87383904D01*
X137263095Y-87479142D01*
X137310714Y-87526761D01*
X137405952Y-87574380D01*
X137596428Y-87574380D01*
X137691666Y-87526761D01*
X137739285Y-87479142D01*
X137786904Y-87383904D01*
X137786904Y-87193428D01*
X137739285Y-87098190D01*
X137691666Y-87050571D01*
X137596428Y-87002952D01*
X110854833Y-104973380D02*
X110521500Y-104497190D01*
X110283404Y-104973380D02*
X110283404Y-103973380D01*
X110664357Y-103973380D01*
X110759595Y-104021000D01*
X110807214Y-104068619D01*
X110854833Y-104163857D01*
X110854833Y-104306714D01*
X110807214Y-104401952D01*
X110759595Y-104449571D01*
X110664357Y-104497190D01*
X110283404Y-104497190D01*
X111188166Y-103973380D02*
X111854833Y-103973380D01*
X111426261Y-104973380D01*
X108831142Y-84018380D02*
X108497809Y-83542190D01*
X108259714Y-84018380D02*
X108259714Y-83018380D01*
X108640666Y-83018380D01*
X108735904Y-83066000D01*
X108783523Y-83113619D01*
X108831142Y-83208857D01*
X108831142Y-83351714D01*
X108783523Y-83446952D01*
X108735904Y-83494571D01*
X108640666Y-83542190D01*
X108259714Y-83542190D01*
X109783523Y-84018380D02*
X109212095Y-84018380D01*
X109497809Y-84018380D02*
X109497809Y-83018380D01*
X109402571Y-83161238D01*
X109307333Y-83256476D01*
X109212095Y-83304095D01*
X110640666Y-83018380D02*
X110450190Y-83018380D01*
X110354952Y-83066000D01*
X110307333Y-83113619D01*
X110212095Y-83256476D01*
X110164476Y-83446952D01*
X110164476Y-83827904D01*
X110212095Y-83923142D01*
X110259714Y-83970761D01*
X110354952Y-84018380D01*
X110545428Y-84018380D01*
X110640666Y-83970761D01*
X110688285Y-83923142D01*
X110735904Y-83827904D01*
X110735904Y-83589809D01*
X110688285Y-83494571D01*
X110640666Y-83446952D01*
X110545428Y-83399333D01*
X110354952Y-83399333D01*
X110259714Y-83446952D01*
X110212095Y-83494571D01*
X110164476Y-83589809D01*
X93622904Y-88844380D02*
X93622904Y-87844380D01*
X93861000Y-87844380D01*
X94003857Y-87892000D01*
X94099095Y-87987238D01*
X94146714Y-88082476D01*
X94194333Y-88272952D01*
X94194333Y-88415809D01*
X94146714Y-88606285D01*
X94099095Y-88701523D01*
X94003857Y-88796761D01*
X93861000Y-88844380D01*
X93622904Y-88844380D01*
X94527666Y-87844380D02*
X95146714Y-87844380D01*
X94813380Y-88225333D01*
X94956238Y-88225333D01*
X95051476Y-88272952D01*
X95099095Y-88320571D01*
X95146714Y-88415809D01*
X95146714Y-88653904D01*
X95099095Y-88749142D01*
X95051476Y-88796761D01*
X94956238Y-88844380D01*
X94670523Y-88844380D01*
X94575285Y-88796761D01*
X94527666Y-88749142D01*
X82954904Y-88844380D02*
X82954904Y-87844380D01*
X83193000Y-87844380D01*
X83335857Y-87892000D01*
X83431095Y-87987238D01*
X83478714Y-88082476D01*
X83526333Y-88272952D01*
X83526333Y-88415809D01*
X83478714Y-88606285D01*
X83431095Y-88701523D01*
X83335857Y-88796761D01*
X83193000Y-88844380D01*
X82954904Y-88844380D01*
X84431095Y-87844380D02*
X83954904Y-87844380D01*
X83907285Y-88320571D01*
X83954904Y-88272952D01*
X84050142Y-88225333D01*
X84288238Y-88225333D01*
X84383476Y-88272952D01*
X84431095Y-88320571D01*
X84478714Y-88415809D01*
X84478714Y-88653904D01*
X84431095Y-88749142D01*
X84383476Y-88796761D01*
X84288238Y-88844380D01*
X84050142Y-88844380D01*
X83954904Y-88796761D01*
X83907285Y-88749142D01*
X145438761Y-99758333D02*
X145486380Y-99615476D01*
X145486380Y-99377380D01*
X145438761Y-99282142D01*
X145391142Y-99234523D01*
X145295904Y-99186904D01*
X145200666Y-99186904D01*
X145105428Y-99234523D01*
X145057809Y-99282142D01*
X145010190Y-99377380D01*
X144962571Y-99567857D01*
X144914952Y-99663095D01*
X144867333Y-99710714D01*
X144772095Y-99758333D01*
X144676857Y-99758333D01*
X144581619Y-99710714D01*
X144534000Y-99663095D01*
X144486380Y-99567857D01*
X144486380Y-99329761D01*
X144534000Y-99186904D01*
X144486380Y-98853571D02*
X145486380Y-98615476D01*
X144772095Y-98425000D01*
X145486380Y-98234523D01*
X144486380Y-97996428D01*
X145486380Y-97091666D02*
X145486380Y-97663095D01*
X145486380Y-97377380D02*
X144486380Y-97377380D01*
X144629238Y-97472619D01*
X144724476Y-97567857D01*
X144772095Y-97663095D01*
X121268833Y-104751142D02*
X121221214Y-104798761D01*
X121078357Y-104846380D01*
X120983119Y-104846380D01*
X120840261Y-104798761D01*
X120745023Y-104703523D01*
X120697404Y-104608285D01*
X120649785Y-104417809D01*
X120649785Y-104274952D01*
X120697404Y-104084476D01*
X120745023Y-103989238D01*
X120840261Y-103894000D01*
X120983119Y-103846380D01*
X121078357Y-103846380D01*
X121221214Y-103894000D01*
X121268833Y-103941619D01*
X122173595Y-103846380D02*
X121697404Y-103846380D01*
X121649785Y-104322571D01*
X121697404Y-104274952D01*
X121792642Y-104227333D01*
X122030738Y-104227333D01*
X122125976Y-104274952D01*
X122173595Y-104322571D01*
X122221214Y-104417809D01*
X122221214Y-104655904D01*
X122173595Y-104751142D01*
X122125976Y-104798761D01*
X122030738Y-104846380D01*
X121792642Y-104846380D01*
X121697404Y-104798761D01*
X121649785Y-104751142D01*
X84351904Y-110307380D02*
X84351904Y-109307380D01*
X84590000Y-109307380D01*
X84732857Y-109355000D01*
X84828095Y-109450238D01*
X84875714Y-109545476D01*
X84923333Y-109735952D01*
X84923333Y-109878809D01*
X84875714Y-110069285D01*
X84828095Y-110164523D01*
X84732857Y-110259761D01*
X84590000Y-110307380D01*
X84351904Y-110307380D01*
X85780476Y-109640714D02*
X85780476Y-110307380D01*
X85542380Y-109259761D02*
X85304285Y-109974047D01*
X85923333Y-109974047D01*
X100703142Y-84018380D02*
X100369809Y-83542190D01*
X100131714Y-84018380D02*
X100131714Y-83018380D01*
X100512666Y-83018380D01*
X100607904Y-83066000D01*
X100655523Y-83113619D01*
X100703142Y-83208857D01*
X100703142Y-83351714D01*
X100655523Y-83446952D01*
X100607904Y-83494571D01*
X100512666Y-83542190D01*
X100131714Y-83542190D01*
X101655523Y-84018380D02*
X101084095Y-84018380D01*
X101369809Y-84018380D02*
X101369809Y-83018380D01*
X101274571Y-83161238D01*
X101179333Y-83256476D01*
X101084095Y-83304095D01*
X102131714Y-84018380D02*
X102322190Y-84018380D01*
X102417428Y-83970761D01*
X102465047Y-83923142D01*
X102560285Y-83780285D01*
X102607904Y-83589809D01*
X102607904Y-83208857D01*
X102560285Y-83113619D01*
X102512666Y-83066000D01*
X102417428Y-83018380D01*
X102226952Y-83018380D01*
X102131714Y-83066000D01*
X102084095Y-83113619D01*
X102036476Y-83208857D01*
X102036476Y-83446952D01*
X102084095Y-83542190D01*
X102131714Y-83589809D01*
X102226952Y-83637428D01*
X102417428Y-83637428D01*
X102512666Y-83589809D01*
X102560285Y-83542190D01*
X102607904Y-83446952D01*
X103425666Y-92539380D02*
X103425666Y-93253666D01*
X103378047Y-93396523D01*
X103282809Y-93491761D01*
X103139952Y-93539380D01*
X103044714Y-93539380D01*
X103806619Y-92539380D02*
X104473285Y-92539380D01*
X104044714Y-93539380D01*
X135247142Y-109291380D02*
X134913809Y-108815190D01*
X134675714Y-109291380D02*
X134675714Y-108291380D01*
X135056666Y-108291380D01*
X135151904Y-108339000D01*
X135199523Y-108386619D01*
X135247142Y-108481857D01*
X135247142Y-108624714D01*
X135199523Y-108719952D01*
X135151904Y-108767571D01*
X135056666Y-108815190D01*
X134675714Y-108815190D01*
X136199523Y-109291380D02*
X135628095Y-109291380D01*
X135913809Y-109291380D02*
X135913809Y-108291380D01*
X135818571Y-108434238D01*
X135723333Y-108529476D01*
X135628095Y-108577095D01*
X136580476Y-108386619D02*
X136628095Y-108339000D01*
X136723333Y-108291380D01*
X136961428Y-108291380D01*
X137056666Y-108339000D01*
X137104285Y-108386619D01*
X137151904Y-108481857D01*
X137151904Y-108577095D01*
X137104285Y-108719952D01*
X136532857Y-109291380D01*
X137151904Y-109291380D01*
X80692666Y-95464380D02*
X80692666Y-96178666D01*
X80645047Y-96321523D01*
X80549809Y-96416761D01*
X80406952Y-96464380D01*
X80311714Y-96464380D01*
X81692666Y-96464380D02*
X81121238Y-96464380D01*
X81406952Y-96464380D02*
X81406952Y-95464380D01*
X81311714Y-95607238D01*
X81216476Y-95702476D01*
X81121238Y-95750095D01*
X136231333Y-97861380D02*
X135898000Y-97385190D01*
X135659904Y-97861380D02*
X135659904Y-96861380D01*
X136040857Y-96861380D01*
X136136095Y-96909000D01*
X136183714Y-96956619D01*
X136231333Y-97051857D01*
X136231333Y-97194714D01*
X136183714Y-97289952D01*
X136136095Y-97337571D01*
X136040857Y-97385190D01*
X135659904Y-97385190D01*
X137088476Y-97194714D02*
X137088476Y-97861380D01*
X136850380Y-96813761D02*
X136612285Y-97528047D01*
X137231333Y-97528047D01*
X129754333Y-103830380D02*
X129421000Y-103354190D01*
X129182904Y-103830380D02*
X129182904Y-102830380D01*
X129563857Y-102830380D01*
X129659095Y-102878000D01*
X129706714Y-102925619D01*
X129754333Y-103020857D01*
X129754333Y-103163714D01*
X129706714Y-103258952D01*
X129659095Y-103306571D01*
X129563857Y-103354190D01*
X129182904Y-103354190D01*
X130087666Y-102830380D02*
X130706714Y-102830380D01*
X130373380Y-103211333D01*
X130516238Y-103211333D01*
X130611476Y-103258952D01*
X130659095Y-103306571D01*
X130706714Y-103401809D01*
X130706714Y-103639904D01*
X130659095Y-103735142D01*
X130611476Y-103782761D01*
X130516238Y-103830380D01*
X130230523Y-103830380D01*
X130135285Y-103782761D01*
X130087666Y-103735142D01*
X118999095Y-87209380D02*
X118999095Y-88018904D01*
X119046714Y-88114142D01*
X119094333Y-88161761D01*
X119189571Y-88209380D01*
X119380047Y-88209380D01*
X119475285Y-88161761D01*
X119522904Y-88114142D01*
X119570523Y-88018904D01*
X119570523Y-87209380D01*
X119999095Y-87304619D02*
X120046714Y-87257000D01*
X120141952Y-87209380D01*
X120380047Y-87209380D01*
X120475285Y-87257000D01*
X120522904Y-87304619D01*
X120570523Y-87399857D01*
X120570523Y-87495095D01*
X120522904Y-87637952D01*
X119951476Y-88209380D01*
X120570523Y-88209380D01*
X111847333Y-93067142D02*
X111799714Y-93114761D01*
X111656857Y-93162380D01*
X111561619Y-93162380D01*
X111418761Y-93114761D01*
X111323523Y-93019523D01*
X111275904Y-92924285D01*
X111228285Y-92733809D01*
X111228285Y-92590952D01*
X111275904Y-92400476D01*
X111323523Y-92305238D01*
X111418761Y-92210000D01*
X111561619Y-92162380D01*
X111656857Y-92162380D01*
X111799714Y-92210000D01*
X111847333Y-92257619D01*
X112704476Y-92495714D02*
X112704476Y-93162380D01*
X112466380Y-92114761D02*
X112228285Y-92829047D01*
X112847333Y-92829047D01*
X90066904Y-88844380D02*
X90066904Y-87844380D01*
X90305000Y-87844380D01*
X90447857Y-87892000D01*
X90543095Y-87987238D01*
X90590714Y-88082476D01*
X90638333Y-88272952D01*
X90638333Y-88415809D01*
X90590714Y-88606285D01*
X90543095Y-88701523D01*
X90447857Y-88796761D01*
X90305000Y-88844380D01*
X90066904Y-88844380D01*
X91019285Y-87939619D02*
X91066904Y-87892000D01*
X91162142Y-87844380D01*
X91400238Y-87844380D01*
X91495476Y-87892000D01*
X91543095Y-87939619D01*
X91590714Y-88034857D01*
X91590714Y-88130095D01*
X91543095Y-88272952D01*
X90971666Y-88844380D01*
X91590714Y-88844380D01*
X126198380Y-78533523D02*
X126912666Y-78533523D01*
X127055523Y-78581142D01*
X127150761Y-78676380D01*
X127198380Y-78819238D01*
X127198380Y-78914476D01*
X127198380Y-77533523D02*
X127198380Y-78104952D01*
X127198380Y-77819238D02*
X126198380Y-77819238D01*
X126341238Y-77914476D01*
X126436476Y-78009714D01*
X126484095Y-78104952D01*
X126198380Y-76914476D02*
X126198380Y-76819238D01*
X126246000Y-76724000D01*
X126293619Y-76676380D01*
X126388857Y-76628761D01*
X126579333Y-76581142D01*
X126817428Y-76581142D01*
X127007904Y-76628761D01*
X127103142Y-76676380D01*
X127150761Y-76724000D01*
X127198380Y-76819238D01*
X127198380Y-76914476D01*
X127150761Y-77009714D01*
X127103142Y-77057333D01*
X127007904Y-77104952D01*
X126817428Y-77152571D01*
X126579333Y-77152571D01*
X126388857Y-77104952D01*
X126293619Y-77057333D01*
X126246000Y-77009714D01*
X126198380Y-76914476D01*
X87844333Y-110307380D02*
X87511000Y-109831190D01*
X87272904Y-110307380D02*
X87272904Y-109307380D01*
X87653857Y-109307380D01*
X87749095Y-109355000D01*
X87796714Y-109402619D01*
X87844333Y-109497857D01*
X87844333Y-109640714D01*
X87796714Y-109735952D01*
X87749095Y-109783571D01*
X87653857Y-109831190D01*
X87272904Y-109831190D01*
X88796714Y-110307380D02*
X88225285Y-110307380D01*
X88511000Y-110307380D02*
X88511000Y-109307380D01*
X88415761Y-109450238D01*
X88320523Y-109545476D01*
X88225285Y-109593095D01*
X135247142Y-111831380D02*
X134913809Y-111355190D01*
X134675714Y-111831380D02*
X134675714Y-110831380D01*
X135056666Y-110831380D01*
X135151904Y-110879000D01*
X135199523Y-110926619D01*
X135247142Y-111021857D01*
X135247142Y-111164714D01*
X135199523Y-111259952D01*
X135151904Y-111307571D01*
X135056666Y-111355190D01*
X134675714Y-111355190D01*
X136199523Y-111831380D02*
X135628095Y-111831380D01*
X135913809Y-111831380D02*
X135913809Y-110831380D01*
X135818571Y-110974238D01*
X135723333Y-111069476D01*
X135628095Y-111117095D01*
X137151904Y-111831380D02*
X136580476Y-111831380D01*
X136866190Y-111831380D02*
X136866190Y-110831380D01*
X136770952Y-110974238D01*
X136675714Y-111069476D01*
X136580476Y-111117095D01*
X99274380Y-119459333D02*
X99988666Y-119459333D01*
X100131523Y-119506952D01*
X100226761Y-119602190D01*
X100274380Y-119745047D01*
X100274380Y-119840285D01*
X99274380Y-118506952D02*
X99274380Y-118983142D01*
X99750571Y-119030761D01*
X99702952Y-118983142D01*
X99655333Y-118887904D01*
X99655333Y-118649809D01*
X99702952Y-118554571D01*
X99750571Y-118506952D01*
X99845809Y-118459333D01*
X100083904Y-118459333D01*
X100179142Y-118506952D01*
X100226761Y-118554571D01*
X100274380Y-118649809D01*
X100274380Y-118887904D01*
X100226761Y-118983142D01*
X100179142Y-119030761D01*
X121268833Y-107926142D02*
X121221214Y-107973761D01*
X121078357Y-108021380D01*
X120983119Y-108021380D01*
X120840261Y-107973761D01*
X120745023Y-107878523D01*
X120697404Y-107783285D01*
X120649785Y-107592809D01*
X120649785Y-107449952D01*
X120697404Y-107259476D01*
X120745023Y-107164238D01*
X120840261Y-107069000D01*
X120983119Y-107021380D01*
X121078357Y-107021380D01*
X121221214Y-107069000D01*
X121268833Y-107116619D01*
X122125976Y-107021380D02*
X121935500Y-107021380D01*
X121840261Y-107069000D01*
X121792642Y-107116619D01*
X121697404Y-107259476D01*
X121649785Y-107449952D01*
X121649785Y-107830904D01*
X121697404Y-107926142D01*
X121745023Y-107973761D01*
X121840261Y-108021380D01*
X122030738Y-108021380D01*
X122125976Y-107973761D01*
X122173595Y-107926142D01*
X122221214Y-107830904D01*
X122221214Y-107592809D01*
X122173595Y-107497571D01*
X122125976Y-107449952D01*
X122030738Y-107402333D01*
X121840261Y-107402333D01*
X121745023Y-107449952D01*
X121697404Y-107497571D01*
X121649785Y-107592809D01*
X109997642Y-111323380D02*
X109664309Y-110847190D01*
X109426214Y-111323380D02*
X109426214Y-110323380D01*
X109807166Y-110323380D01*
X109902404Y-110371000D01*
X109950023Y-110418619D01*
X109997642Y-110513857D01*
X109997642Y-110656714D01*
X109950023Y-110751952D01*
X109902404Y-110799571D01*
X109807166Y-110847190D01*
X109426214Y-110847190D01*
X110950023Y-111323380D02*
X110378595Y-111323380D01*
X110664309Y-111323380D02*
X110664309Y-110323380D01*
X110569071Y-110466238D01*
X110473833Y-110561476D01*
X110378595Y-110609095D01*
X111569071Y-110323380D02*
X111664309Y-110323380D01*
X111759547Y-110371000D01*
X111807166Y-110418619D01*
X111854785Y-110513857D01*
X111902404Y-110704333D01*
X111902404Y-110942428D01*
X111854785Y-111132904D01*
X111807166Y-111228142D01*
X111759547Y-111275761D01*
X111664309Y-111323380D01*
X111569071Y-111323380D01*
X111473833Y-111275761D01*
X111426214Y-111228142D01*
X111378595Y-111132904D01*
X111330976Y-110942428D01*
X111330976Y-110704333D01*
X111378595Y-110513857D01*
X111426214Y-110418619D01*
X111473833Y-110371000D01*
X111569071Y-110323380D01*
X129079666Y-123912380D02*
X129079666Y-124626666D01*
X129032047Y-124769523D01*
X128936809Y-124864761D01*
X128793952Y-124912380D01*
X128698714Y-124912380D01*
X129460619Y-123912380D02*
X130079666Y-123912380D01*
X129746333Y-124293333D01*
X129889190Y-124293333D01*
X129984428Y-124340952D01*
X130032047Y-124388571D01*
X130079666Y-124483809D01*
X130079666Y-124721904D01*
X130032047Y-124817142D01*
X129984428Y-124864761D01*
X129889190Y-124912380D01*
X129603476Y-124912380D01*
X129508238Y-124864761D01*
X129460619Y-124817142D01*
X147002666Y-75969761D02*
X147145523Y-76017380D01*
X147383619Y-76017380D01*
X147478857Y-75969761D01*
X147526476Y-75922142D01*
X147574095Y-75826904D01*
X147574095Y-75731666D01*
X147526476Y-75636428D01*
X147478857Y-75588809D01*
X147383619Y-75541190D01*
X147193142Y-75493571D01*
X147097904Y-75445952D01*
X147050285Y-75398333D01*
X147002666Y-75303095D01*
X147002666Y-75207857D01*
X147050285Y-75112619D01*
X147097904Y-75065000D01*
X147193142Y-75017380D01*
X147431238Y-75017380D01*
X147574095Y-75065000D01*
X147907428Y-75017380D02*
X148145523Y-76017380D01*
X148336000Y-75303095D01*
X148526476Y-76017380D01*
X148764571Y-75017380D01*
X149097904Y-75112619D02*
X149145523Y-75065000D01*
X149240761Y-75017380D01*
X149478857Y-75017380D01*
X149574095Y-75065000D01*
X149621714Y-75112619D01*
X149669333Y-75207857D01*
X149669333Y-75303095D01*
X149621714Y-75445952D01*
X149050285Y-76017380D01*
X149669333Y-76017380D01*
X91821095Y-107275380D02*
X91821095Y-108084904D01*
X91868714Y-108180142D01*
X91916333Y-108227761D01*
X92011571Y-108275380D01*
X92202047Y-108275380D01*
X92297285Y-108227761D01*
X92344904Y-108180142D01*
X92392523Y-108084904D01*
X92392523Y-107275380D01*
X93392523Y-108275380D02*
X92821095Y-108275380D01*
X93106809Y-108275380D02*
X93106809Y-107275380D01*
X93011571Y-107418238D01*
X92916333Y-107513476D01*
X92821095Y-107561095D01*
X163980904Y-113228380D02*
X163980904Y-112228380D01*
X164219000Y-112228380D01*
X164361857Y-112276000D01*
X164457095Y-112371238D01*
X164504714Y-112466476D01*
X164552333Y-112656952D01*
X164552333Y-112799809D01*
X164504714Y-112990285D01*
X164457095Y-113085523D01*
X164361857Y-113180761D01*
X164219000Y-113228380D01*
X163980904Y-113228380D01*
X165409476Y-112228380D02*
X165219000Y-112228380D01*
X165123761Y-112276000D01*
X165076142Y-112323619D01*
X164980904Y-112466476D01*
X164933285Y-112656952D01*
X164933285Y-113037904D01*
X164980904Y-113133142D01*
X165028523Y-113180761D01*
X165123761Y-113228380D01*
X165314238Y-113228380D01*
X165409476Y-113180761D01*
X165457095Y-113133142D01*
X165504714Y-113037904D01*
X165504714Y-112799809D01*
X165457095Y-112704571D01*
X165409476Y-112656952D01*
X165314238Y-112609333D01*
X165123761Y-112609333D01*
X165028523Y-112656952D01*
X164980904Y-112704571D01*
X164933285Y-112799809D01*
X160829571Y-110021761D02*
X159972428Y-111307476D01*
X136231333Y-106751380D02*
X135898000Y-106275190D01*
X135659904Y-106751380D02*
X135659904Y-105751380D01*
X136040857Y-105751380D01*
X136136095Y-105799000D01*
X136183714Y-105846619D01*
X136231333Y-105941857D01*
X136231333Y-106084714D01*
X136183714Y-106179952D01*
X136136095Y-106227571D01*
X136040857Y-106275190D01*
X135659904Y-106275190D01*
X136707523Y-106751380D02*
X136898000Y-106751380D01*
X136993238Y-106703761D01*
X137040857Y-106656142D01*
X137136095Y-106513285D01*
X137183714Y-106322809D01*
X137183714Y-105941857D01*
X137136095Y-105846619D01*
X137088476Y-105799000D01*
X136993238Y-105751380D01*
X136802761Y-105751380D01*
X136707523Y-105799000D01*
X136659904Y-105846619D01*
X136612285Y-105941857D01*
X136612285Y-106179952D01*
X136659904Y-106275190D01*
X136707523Y-106322809D01*
X136802761Y-106370428D01*
X136993238Y-106370428D01*
X137088476Y-106322809D01*
X137136095Y-106275190D01*
X137183714Y-106179952D01*
X100663476Y-75271380D02*
X100663476Y-75985666D01*
X100615857Y-76128523D01*
X100520619Y-76223761D01*
X100377761Y-76271380D01*
X100282523Y-76271380D01*
X101663476Y-76271380D02*
X101092047Y-76271380D01*
X101377761Y-76271380D02*
X101377761Y-75271380D01*
X101282523Y-75414238D01*
X101187285Y-75509476D01*
X101092047Y-75557095D01*
X102615857Y-76271380D02*
X102044428Y-76271380D01*
X102330142Y-76271380D02*
X102330142Y-75271380D01*
X102234904Y-75414238D01*
X102139666Y-75509476D01*
X102044428Y-75557095D01*
X85812380Y-119459333D02*
X86526666Y-119459333D01*
X86669523Y-119506952D01*
X86764761Y-119602190D01*
X86812380Y-119745047D01*
X86812380Y-119840285D01*
X85812380Y-118554571D02*
X85812380Y-118745047D01*
X85860000Y-118840285D01*
X85907619Y-118887904D01*
X86050476Y-118983142D01*
X86240952Y-119030761D01*
X86621904Y-119030761D01*
X86717142Y-118983142D01*
X86764761Y-118935523D01*
X86812380Y-118840285D01*
X86812380Y-118649809D01*
X86764761Y-118554571D01*
X86717142Y-118506952D01*
X86621904Y-118459333D01*
X86383809Y-118459333D01*
X86288571Y-118506952D01*
X86240952Y-118554571D01*
X86193333Y-118649809D01*
X86193333Y-118840285D01*
X86240952Y-118935523D01*
X86288571Y-118983142D01*
X86383809Y-119030761D01*
X86788666Y-75271380D02*
X86788666Y-75985666D01*
X86741047Y-76128523D01*
X86645809Y-76223761D01*
X86502952Y-76271380D01*
X86407714Y-76271380D01*
X87312476Y-76271380D02*
X87502952Y-76271380D01*
X87598190Y-76223761D01*
X87645809Y-76176142D01*
X87741047Y-76033285D01*
X87788666Y-75842809D01*
X87788666Y-75461857D01*
X87741047Y-75366619D01*
X87693428Y-75319000D01*
X87598190Y-75271380D01*
X87407714Y-75271380D01*
X87312476Y-75319000D01*
X87264857Y-75366619D01*
X87217238Y-75461857D01*
X87217238Y-75699952D01*
X87264857Y-75795190D01*
X87312476Y-75842809D01*
X87407714Y-75890428D01*
X87598190Y-75890428D01*
X87693428Y-75842809D01*
X87741047Y-75795190D01*
X87788666Y-75699952D01*
X96988333Y-109831142D02*
X96940714Y-109878761D01*
X96797857Y-109926380D01*
X96702619Y-109926380D01*
X96559761Y-109878761D01*
X96464523Y-109783523D01*
X96416904Y-109688285D01*
X96369285Y-109497809D01*
X96369285Y-109354952D01*
X96416904Y-109164476D01*
X96464523Y-109069238D01*
X96559761Y-108974000D01*
X96702619Y-108926380D01*
X96797857Y-108926380D01*
X96940714Y-108974000D01*
X96988333Y-109021619D01*
X97369285Y-109021619D02*
X97416904Y-108974000D01*
X97512142Y-108926380D01*
X97750238Y-108926380D01*
X97845476Y-108974000D01*
X97893095Y-109021619D01*
X97940714Y-109116857D01*
X97940714Y-109212095D01*
X97893095Y-109354952D01*
X97321666Y-109926380D01*
X97940714Y-109926380D01*
D17*
X101500000Y-107434748D02*
X101500000Y-107957252D01*
X102970000Y-107434748D02*
X102970000Y-107957252D01*
X137225000Y-121913000D02*
X138275000Y-121913000D01*
X138275000Y-121913000D02*
X138275000Y-120923000D01*
X137225000Y-124413000D02*
X137225000Y-121913000D01*
X143445000Y-124413000D02*
X143445000Y-121913000D01*
X138395000Y-126383000D02*
X142275000Y-126383000D01*
X143445000Y-121913000D02*
X142395000Y-121913000D01*
X139419064Y-99214000D02*
X138964936Y-99214000D01*
X139419064Y-100684000D02*
X138964936Y-100684000D01*
X97509064Y-86079000D02*
X97054936Y-86079000D01*
X97509064Y-84609000D02*
X97054936Y-84609000D01*
X125071000Y-80584000D02*
X114451000Y-80584000D01*
X117364000Y-76810000D02*
X117440000Y-76734000D01*
X118581000Y-78714000D02*
X118657000Y-78638000D01*
X117196000Y-76599000D02*
X117250000Y-76544000D01*
X118771000Y-78904000D02*
X118825000Y-78850000D01*
X115081000Y-78714000D02*
X115157000Y-78638000D01*
X125071000Y-73964000D02*
X114451000Y-73964000D01*
X125071000Y-75524000D02*
X114451000Y-75524000D01*
X115271000Y-78904000D02*
X115325000Y-78850000D01*
X120864000Y-76810000D02*
X120940000Y-76734000D01*
X125311000Y-75464000D02*
X125311000Y-73724000D01*
X120696000Y-76599000D02*
X120750000Y-76544000D01*
X114451000Y-80584000D02*
X114451000Y-73964000D01*
X125071000Y-80584000D02*
X125071000Y-73964000D01*
X125311000Y-73724000D02*
X123811000Y-73724000D01*
X122554000Y-79110000D02*
G75*
G03*
X123966733Y-79110645I707000J1386000D01*
G01*
X124647000Y-78431000D02*
G75*
G03*
X124647645Y-77018267I-1386000J707000D01*
G01*
X123968000Y-76338000D02*
G75*
G03*
X123234556Y-76168318I-706999J-1385995D01*
G01*
X123261000Y-76169000D02*
G75*
G03*
X122555045Y-76338485I2J-1555008D01*
G01*
X121875000Y-77017000D02*
G75*
G03*
X121874355Y-78429733I1386001J-706999D01*
G01*
X117816000Y-77724000D02*
G75*
G03*
X117816000Y-77724000I-1555000J0D01*
G01*
X121316000Y-77724000D02*
G75*
G03*
X121316000Y-77724000I-1555000J0D01*
G01*
X118356748Y-110009000D02*
X118879252Y-110009000D01*
X118356748Y-111479000D02*
X118879252Y-111479000D01*
X104548000Y-107468936D02*
X104548000Y-107923064D01*
X106018000Y-107468936D02*
X106018000Y-107923064D01*
X114169564Y-108304000D02*
X113715436Y-108304000D01*
X114169564Y-106834000D02*
X113715436Y-106834000D01*
X105637064Y-86079000D02*
X105182936Y-86079000D01*
X105637064Y-84609000D02*
X105182936Y-84609000D01*
X85852000Y-94053300D02*
X85852000Y-94719500D01*
X88595200Y-94202800D02*
X88595200Y-90302800D01*
X85852000Y-94202800D02*
X85852000Y-90302800D01*
X85852000Y-94716600D02*
X88595200Y-94716600D01*
X88595200Y-94716600D02*
X88595200Y-94005400D01*
X139419064Y-101754000D02*
X138964936Y-101754000D01*
X139419064Y-103224000D02*
X138964936Y-103224000D01*
X126646000Y-95384252D02*
X126646000Y-94861748D01*
X128116000Y-95384252D02*
X128116000Y-94861748D01*
X89554000Y-103945563D02*
X89554000Y-98190000D01*
X90618437Y-105010000D02*
X91904000Y-105010000D01*
X91116500Y-106037500D02*
X91116500Y-105250000D01*
X95309563Y-105010000D02*
X94024000Y-105010000D01*
X90618437Y-105010000D02*
X89554000Y-103945563D01*
X95309563Y-105010000D02*
X96374000Y-103945563D01*
X89554000Y-98190000D02*
X91904000Y-98190000D01*
X96374000Y-103945563D02*
X96374000Y-98190000D01*
X96374000Y-98190000D02*
X94024000Y-98190000D01*
X90722750Y-105643750D02*
X91510250Y-105643750D01*
X130148064Y-101954000D02*
X129693936Y-101954000D01*
X130148064Y-100484000D02*
X129693936Y-100484000D01*
X116431000Y-121913000D02*
X116431000Y-120923000D01*
X121601000Y-124413000D02*
X121601000Y-121913000D01*
X116551000Y-126383000D02*
X120431000Y-126383000D01*
X115381000Y-121913000D02*
X116431000Y-121913000D01*
X115381000Y-124413000D02*
X115381000Y-121913000D01*
X121601000Y-121913000D02*
X120551000Y-121913000D01*
X133450064Y-86387000D02*
X132995936Y-86387000D01*
X133450064Y-87857000D02*
X132995936Y-87857000D01*
X114146064Y-105129000D02*
X113691936Y-105129000D01*
X114146064Y-103659000D02*
X113691936Y-103659000D01*
X109701064Y-84609000D02*
X109246936Y-84609000D01*
X109701064Y-86079000D02*
X109246936Y-86079000D01*
X95758000Y-89179400D02*
X93014800Y-89179400D01*
X95758000Y-89693200D02*
X95758000Y-93593200D01*
X93014800Y-89693200D02*
X93014800Y-93593200D01*
X95758000Y-89842700D02*
X95758000Y-89176500D01*
X93014800Y-89179400D02*
X93014800Y-89890600D01*
X85090000Y-89179400D02*
X82346800Y-89179400D01*
X85090000Y-89693200D02*
X85090000Y-93593200D01*
X82346800Y-89693200D02*
X82346800Y-93593200D01*
X85090000Y-89842700D02*
X85090000Y-89176500D01*
X82346800Y-89179400D02*
X82346800Y-89890600D01*
X150082000Y-95250000D02*
X153702000Y-95250000D01*
X153702000Y-107710000D02*
X152495333Y-107710000D01*
X153702000Y-96950000D02*
X152495333Y-96950000D01*
X155302000Y-98895000D02*
X155302000Y-97955000D01*
X148482000Y-101434000D02*
X148482000Y-100494000D01*
X153702000Y-101670000D02*
X152495333Y-101670000D01*
X153702000Y-100330000D02*
X153702000Y-99060000D01*
X153702000Y-95010000D02*
X152495333Y-95010000D01*
X150082000Y-104140000D02*
X150082000Y-105410000D01*
X153702000Y-99490000D02*
X152495333Y-99490000D01*
X153702000Y-94530000D02*
X152495333Y-94530000D01*
X153702000Y-102270000D02*
X152495333Y-102270000D01*
X153702000Y-101910000D02*
X152495333Y-101910000D01*
X153702000Y-91440000D02*
X150082000Y-91440000D01*
X153702000Y-107830000D02*
X152495333Y-107830000D01*
X153702000Y-92590000D02*
X152495333Y-92590000D01*
X150082000Y-105410000D02*
X153702000Y-105410000D01*
X153702000Y-90050000D02*
X152495333Y-90050000D01*
X153702000Y-101790000D02*
X152495333Y-101790000D01*
X152495333Y-107950000D02*
X152495333Y-106680000D01*
X155302000Y-106515000D02*
X155302000Y-105575000D01*
X150082000Y-90170000D02*
X153702000Y-90170000D01*
X155302000Y-109425000D02*
X155302000Y-108115000D01*
X153702000Y-91630000D02*
X152495333Y-91630000D01*
X153702000Y-107350000D02*
X152495333Y-107350000D01*
X153702000Y-94170000D02*
X152495333Y-94170000D01*
X153702000Y-96710000D02*
X152495333Y-96710000D01*
X153702000Y-92230000D02*
X152495333Y-92230000D01*
X153702000Y-106990000D02*
X152495333Y-106990000D01*
X153702000Y-95130000D02*
X152495333Y-95130000D01*
X153702000Y-104450000D02*
X152495333Y-104450000D01*
X153702000Y-107110000D02*
X152495333Y-107110000D01*
X153702000Y-93980000D02*
X150082000Y-93980000D01*
X155542000Y-109665000D02*
X155542000Y-108282000D01*
X153702000Y-107470000D02*
X152495333Y-107470000D01*
X153702000Y-99850000D02*
X152495333Y-99850000D01*
X150082000Y-92710000D02*
X153702000Y-92710000D01*
X153702000Y-89690000D02*
X152495333Y-89690000D01*
X155302000Y-91275000D02*
X155302000Y-90335000D01*
X153702000Y-102870000D02*
X153702000Y-101600000D01*
X152495333Y-105410000D02*
X152495333Y-104140000D01*
X153702000Y-105050000D02*
X152495333Y-105050000D01*
X155302000Y-87424000D02*
X148482000Y-87424000D01*
X153702000Y-101600000D02*
X150082000Y-101600000D01*
X150082000Y-102870000D02*
X153702000Y-102870000D01*
X153702000Y-104690000D02*
X152495333Y-104690000D01*
X155302000Y-96355000D02*
X155302000Y-95415000D01*
X153702000Y-94410000D02*
X152495333Y-94410000D01*
X153702000Y-94890000D02*
X152495333Y-94890000D01*
X153702000Y-96520000D02*
X150082000Y-96520000D01*
X153702000Y-96590000D02*
X152495333Y-96590000D01*
X152495333Y-90170000D02*
X152495333Y-88900000D01*
X153702000Y-107950000D02*
X153702000Y-106680000D01*
X153702000Y-102030000D02*
X152495333Y-102030000D01*
X155302000Y-88735000D02*
X155302000Y-87424000D01*
X153702000Y-99370000D02*
X152495333Y-99370000D01*
X153702000Y-97430000D02*
X152495333Y-97430000D01*
X153702000Y-97190000D02*
X152495333Y-97190000D01*
X153702000Y-91990000D02*
X152495333Y-91990000D01*
X153702000Y-99730000D02*
X152495333Y-99730000D01*
X148482000Y-109425000D02*
X148482000Y-108115000D01*
X153702000Y-99970000D02*
X152495333Y-99970000D01*
X153702000Y-97670000D02*
X152495333Y-97670000D01*
X150082000Y-107950000D02*
X153702000Y-107950000D01*
X148482000Y-103974000D02*
X148482000Y-103034000D01*
X153702000Y-90170000D02*
X153702000Y-88900000D01*
X153702000Y-104210000D02*
X152495333Y-104210000D01*
X153702000Y-105410000D02*
X153702000Y-104140000D01*
X153702000Y-102150000D02*
X152495333Y-102150000D01*
X153702000Y-100210000D02*
X152495333Y-100210000D01*
X153702000Y-102630000D02*
X152495333Y-102630000D01*
X153702000Y-94650000D02*
X152495333Y-94650000D01*
X153702000Y-99060000D02*
X150082000Y-99060000D01*
X148482000Y-96354000D02*
X148482000Y-95414000D01*
X153702000Y-106870000D02*
X152495333Y-106870000D01*
X153702000Y-97310000D02*
X152495333Y-97310000D01*
X152495333Y-102870000D02*
X152495333Y-101600000D01*
X153702000Y-104140000D02*
X150082000Y-104140000D01*
X153702000Y-88970000D02*
X152495333Y-88970000D01*
X150082000Y-93980000D02*
X150082000Y-95250000D01*
X155302000Y-101435000D02*
X155302000Y-100495000D01*
X150082000Y-91440000D02*
X150082000Y-92710000D01*
X153702000Y-102390000D02*
X152495333Y-102390000D01*
X153702000Y-99250000D02*
X152495333Y-99250000D01*
X153702000Y-92350000D02*
X152495333Y-92350000D01*
X153702000Y-89210000D02*
X152495333Y-89210000D01*
X152495333Y-95250000D02*
X152495333Y-93980000D01*
X153702000Y-89450000D02*
X152495333Y-89450000D01*
X153702000Y-89570000D02*
X152495333Y-89570000D01*
X153702000Y-92110000D02*
X152495333Y-92110000D01*
X153702000Y-102510000D02*
X152495333Y-102510000D01*
X148482000Y-88735000D02*
X148482000Y-87424000D01*
X150082000Y-101600000D02*
X150082000Y-102870000D01*
X153702000Y-91510000D02*
X152495333Y-91510000D01*
X153702000Y-88900000D02*
X150082000Y-88900000D01*
X148482000Y-93814000D02*
X148482000Y-92874000D01*
X148482000Y-98894000D02*
X148482000Y-97954000D01*
X153702000Y-104330000D02*
X152495333Y-104330000D01*
X153702000Y-106750000D02*
X152495333Y-106750000D01*
X150082000Y-100330000D02*
X153702000Y-100330000D01*
X148482000Y-91274000D02*
X148482000Y-90335000D01*
X153702000Y-91870000D02*
X152495333Y-91870000D01*
X155542000Y-109665000D02*
X154159000Y-109665000D01*
X153702000Y-89930000D02*
X152495333Y-89930000D01*
X153702000Y-104930000D02*
X152495333Y-104930000D01*
X152495333Y-97790000D02*
X152495333Y-96520000D01*
X153702000Y-107230000D02*
X152495333Y-107230000D01*
X153702000Y-102750000D02*
X152495333Y-102750000D01*
X153702000Y-99610000D02*
X152495333Y-99610000D01*
X153702000Y-89810000D02*
X152495333Y-89810000D01*
X153702000Y-89090000D02*
X152495333Y-89090000D01*
X153702000Y-92710000D02*
X153702000Y-91440000D01*
X153702000Y-95250000D02*
X153702000Y-93980000D01*
X148482000Y-106514000D02*
X148482000Y-105574000D01*
X153702000Y-106680000D02*
X150082000Y-106680000D01*
X153702000Y-92470000D02*
X152495333Y-92470000D01*
X153702000Y-100090000D02*
X152495333Y-100090000D01*
X150082000Y-96520000D02*
X150082000Y-97790000D01*
X150082000Y-106680000D02*
X150082000Y-107950000D01*
X153702000Y-96830000D02*
X152495333Y-96830000D01*
X155302000Y-109425000D02*
X148482000Y-109425000D01*
X152495333Y-92710000D02*
X152495333Y-91440000D01*
X153702000Y-94770000D02*
X152495333Y-94770000D01*
X155302000Y-103975000D02*
X155302000Y-103035000D01*
X153702000Y-97790000D02*
X153702000Y-96520000D01*
X153702000Y-97550000D02*
X152495333Y-97550000D01*
X150082000Y-97790000D02*
X153702000Y-97790000D01*
X153702000Y-104810000D02*
X152495333Y-104810000D01*
X155302000Y-93815000D02*
X155302000Y-92875000D01*
X153702000Y-94290000D02*
X152495333Y-94290000D01*
X150082000Y-88900000D02*
X150082000Y-90170000D01*
X152495333Y-100330000D02*
X152495333Y-99060000D01*
X153702000Y-94050000D02*
X152495333Y-94050000D01*
X153702000Y-105290000D02*
X152495333Y-105290000D01*
X153702000Y-105170000D02*
X152495333Y-105170000D01*
X153702000Y-104570000D02*
X152495333Y-104570000D01*
X150082000Y-99060000D02*
X150082000Y-100330000D01*
X153702000Y-99130000D02*
X152495333Y-99130000D01*
X153702000Y-89330000D02*
X152495333Y-89330000D01*
X153702000Y-107590000D02*
X152495333Y-107590000D01*
X153702000Y-97070000D02*
X152495333Y-97070000D01*
X153702000Y-91750000D02*
X152495333Y-91750000D01*
X118356748Y-105129000D02*
X118879252Y-105129000D01*
X118356748Y-103659000D02*
X118879252Y-103659000D01*
X84130000Y-110710000D02*
X84130000Y-113395000D01*
X86050000Y-113395000D02*
X86050000Y-110710000D01*
X86050000Y-110710000D02*
X84130000Y-110710000D01*
X101573064Y-84609000D02*
X101118936Y-84609000D01*
X101573064Y-86079000D02*
X101118936Y-86079000D01*
X102489000Y-96897000D02*
X102489000Y-96262000D01*
X102489000Y-96262000D02*
X103124000Y-96262000D01*
X139419064Y-109574000D02*
X138964936Y-109574000D01*
X139419064Y-108104000D02*
X138964936Y-108104000D01*
X78599000Y-97262000D02*
X78599000Y-107382000D01*
X81968000Y-106097000D02*
X81875000Y-106003000D01*
X79683000Y-103812000D02*
X79625000Y-103753000D01*
X85059000Y-97262000D02*
X77338000Y-97262000D01*
X77338000Y-97262000D02*
X77338000Y-107382000D01*
X85059000Y-107382000D02*
X77338000Y-107382000D01*
X77099000Y-97022000D02*
X77099000Y-97622000D01*
X77939000Y-97022000D02*
X77099000Y-97022000D01*
X83299000Y-97262000D02*
X83299000Y-107382000D01*
X79923000Y-103642000D02*
X79830000Y-103548000D01*
X77999000Y-97262000D02*
X77999000Y-107382000D01*
X82174000Y-105892000D02*
X82115000Y-105833000D01*
X85059000Y-97262000D02*
X85059000Y-107382000D01*
X82383000Y-100611000D02*
G75*
G03*
X82382953Y-99032911I-1483995J789000D01*
G01*
X79415000Y-99033000D02*
G75*
G03*
X79218550Y-99851383I1483995J-788998D01*
G01*
X79219000Y-99822000D02*
G75*
G03*
X79415648Y-100610712I1680000J0D01*
G01*
X81688000Y-98338000D02*
G75*
G03*
X80109911Y-98338047I-789000J-1483995D01*
G01*
X80110000Y-101306001D02*
G75*
G03*
X81688089Y-101305953I789000J1484001D01*
G01*
X84449000Y-99822000D02*
G75*
G03*
X84449000Y-99822000I-550000J0D01*
G01*
X84449000Y-104822000D02*
G75*
G03*
X84449000Y-104822000I-550000J0D01*
G01*
X82579000Y-104822000D02*
G75*
G03*
X82579000Y-104822000I-1680000J0D01*
G01*
X139419064Y-98144000D02*
X138964936Y-98144000D01*
X139419064Y-96674000D02*
X138964936Y-96674000D01*
X130148064Y-105764000D02*
X129693936Y-105764000D01*
X130148064Y-104294000D02*
X129693936Y-104294000D01*
X123621000Y-101633000D02*
X123621000Y-101398000D01*
X115901000Y-88848000D02*
X114086000Y-88848000D01*
X115901000Y-101633000D02*
X115901000Y-101398000D01*
X119761000Y-101633000D02*
X115901000Y-101633000D01*
X123621000Y-88613000D02*
X123621000Y-88848000D01*
X119761000Y-88613000D02*
X115901000Y-88613000D01*
X115901000Y-88613000D02*
X115901000Y-88848000D01*
X119761000Y-88613000D02*
X123621000Y-88613000D01*
X119761000Y-101633000D02*
X123621000Y-101633000D01*
X111406000Y-94861748D02*
X111406000Y-95384252D01*
X112876000Y-94861748D02*
X112876000Y-95384252D01*
X89408000Y-94202800D02*
X89408000Y-90302800D01*
X92151200Y-94202800D02*
X92151200Y-90302800D01*
X92151200Y-94716600D02*
X92151200Y-94005400D01*
X89408000Y-94053300D02*
X89408000Y-94719500D01*
X89408000Y-94716600D02*
X92151200Y-94716600D01*
X127913000Y-80584000D02*
X127913000Y-73964000D01*
X138533000Y-73964000D02*
X127913000Y-73964000D01*
X130658000Y-76599000D02*
X130712000Y-76544000D01*
X138533000Y-75524000D02*
X127913000Y-75524000D01*
X134326000Y-76810000D02*
X134402000Y-76734000D01*
X138533000Y-80584000D02*
X127913000Y-80584000D01*
X132043000Y-78714000D02*
X132119000Y-78638000D01*
X138773000Y-75464000D02*
X138773000Y-73724000D01*
X138533000Y-80584000D02*
X138533000Y-73964000D01*
X128543000Y-78714000D02*
X128619000Y-78638000D01*
X138773000Y-73724000D02*
X137273000Y-73724000D01*
X130826000Y-76810000D02*
X130902000Y-76734000D01*
X132233000Y-78904000D02*
X132287000Y-78850000D01*
X134158000Y-76599000D02*
X134212000Y-76544000D01*
X128733000Y-78904000D02*
X128787000Y-78850000D01*
X135337000Y-77017000D02*
G75*
G03*
X135336355Y-78429733I1386001J-706999D01*
G01*
X138109000Y-78431000D02*
G75*
G03*
X138109645Y-77018267I-1386000J707000D01*
G01*
X137430000Y-76338000D02*
G75*
G03*
X136696556Y-76168318I-706999J-1385995D01*
G01*
X136016000Y-79110000D02*
G75*
G03*
X137428733Y-79110645I707000J1386000D01*
G01*
X136723000Y-76169000D02*
G75*
G03*
X136017045Y-76338485I2J-1555008D01*
G01*
X134778000Y-77724000D02*
G75*
G03*
X134778000Y-77724000I-1555000J0D01*
G01*
X131278000Y-77724000D02*
G75*
G03*
X131278000Y-77724000I-1555000J0D01*
G01*
X87276000Y-112167936D02*
X87276000Y-112622064D01*
X88746000Y-112167936D02*
X88746000Y-112622064D01*
X139419064Y-110644000D02*
X138964936Y-110644000D01*
X139419064Y-112114000D02*
X138964936Y-112114000D01*
X105196000Y-120040000D02*
X105120000Y-120116000D01*
X108864000Y-120251000D02*
X108810000Y-120306000D01*
X100749000Y-123126000D02*
X102249000Y-123126000D01*
X111609000Y-116266000D02*
X111609000Y-122886000D01*
X100989000Y-116266000D02*
X100989000Y-122886000D01*
X107479000Y-118136000D02*
X107403000Y-118212000D01*
X110789000Y-117946000D02*
X110735000Y-118000000D01*
X108696000Y-120040000D02*
X108620000Y-120116000D01*
X100989000Y-122886000D02*
X111609000Y-122886000D01*
X110979000Y-118136000D02*
X110903000Y-118212000D01*
X100989000Y-116266000D02*
X111609000Y-116266000D01*
X105364000Y-120251000D02*
X105310000Y-120306000D01*
X100989000Y-121326000D02*
X111609000Y-121326000D01*
X100749000Y-121386000D02*
X100749000Y-123126000D01*
X107289000Y-117946000D02*
X107235000Y-118000000D01*
X104185000Y-119833000D02*
G75*
G03*
X104185645Y-118420267I-1386001J706999D01*
G01*
X102799000Y-120681000D02*
G75*
G03*
X103504955Y-120511515I-2J1555008D01*
G01*
X103506000Y-117740000D02*
G75*
G03*
X102093267Y-117739355I-707000J-1386000D01*
G01*
X101413000Y-118419000D02*
G75*
G03*
X101412355Y-119831733I1386000J-707000D01*
G01*
X102092000Y-120512000D02*
G75*
G03*
X102825444Y-120681682I706999J1385995D01*
G01*
X111354000Y-119126000D02*
G75*
G03*
X111354000Y-119126000I-1555000J0D01*
G01*
X107854000Y-119126000D02*
G75*
G03*
X107854000Y-119126000I-1555000J0D01*
G01*
X118356748Y-108304000D02*
X118879252Y-108304000D01*
X118356748Y-106834000D02*
X118879252Y-106834000D01*
X114146064Y-111479000D02*
X113691936Y-111479000D01*
X114146064Y-110009000D02*
X113691936Y-110009000D01*
X132523000Y-121913000D02*
X131473000Y-121913000D01*
X126303000Y-121913000D02*
X127353000Y-121913000D01*
X127473000Y-126383000D02*
X131353000Y-126383000D01*
X127353000Y-121913000D02*
X127353000Y-120923000D01*
X126303000Y-124413000D02*
X126303000Y-121913000D01*
X132523000Y-124413000D02*
X132523000Y-121913000D01*
D12*
X152958800Y-73939400D02*
X151765640Y-73939400D01*
X144906360Y-73939400D02*
X143713200Y-73939400D01*
X152958800Y-77190600D02*
X152958800Y-73939400D01*
X149265640Y-77190600D02*
X149906360Y-77190600D01*
X147406360Y-73939400D02*
X146765640Y-73939400D01*
X146765640Y-77190600D02*
X147406360Y-77190600D01*
X151765640Y-77190600D02*
X152958800Y-77190600D01*
X143713200Y-73939400D02*
X143713200Y-77190600D01*
X149906360Y-73939400D02*
X149265640Y-73939400D01*
X143713200Y-77190600D02*
X144906360Y-77190600D01*
D17*
X93643000Y-113612000D02*
X90923000Y-113612000D01*
X90923000Y-113612000D02*
X90923000Y-112302000D01*
X90923000Y-110202000D02*
X90923000Y-108892000D01*
X90923000Y-108892000D02*
X93643000Y-108892000D01*
X93643000Y-113612000D02*
X93643000Y-113382000D01*
X94783000Y-113382000D02*
X93643000Y-113382000D01*
X93643000Y-108892000D02*
X93643000Y-109122000D01*
X168369000Y-115526000D02*
X161069000Y-115526000D01*
X161069000Y-110026000D02*
X161069000Y-111176000D01*
X168369000Y-110026000D02*
X161069000Y-110026000D01*
X139419064Y-105564000D02*
X138964936Y-105564000D01*
X139419064Y-107034000D02*
X138964936Y-107034000D01*
X108326000Y-74735000D02*
X108326000Y-76225000D01*
X102306000Y-74735000D02*
X103256000Y-74735000D01*
X109276000Y-74735000D02*
X108326000Y-74735000D01*
X109276000Y-74285000D02*
X109276000Y-74735000D01*
X109276000Y-70315000D02*
X102306000Y-70315000D01*
X102306000Y-70315000D02*
X102306000Y-70765000D01*
X109276000Y-70765000D02*
X109276000Y-70315000D01*
X102306000Y-74285000D02*
X102306000Y-74735000D01*
X87287000Y-121386000D02*
X87287000Y-123126000D01*
X97327000Y-117946000D02*
X97273000Y-118000000D01*
X87527000Y-116266000D02*
X98147000Y-116266000D01*
X87527000Y-122886000D02*
X98147000Y-122886000D01*
X95234000Y-120040000D02*
X95158000Y-120116000D01*
X87527000Y-116266000D02*
X87527000Y-122886000D01*
X91734000Y-120040000D02*
X91658000Y-120116000D01*
X97517000Y-118136000D02*
X97441000Y-118212000D01*
X94017000Y-118136000D02*
X93941000Y-118212000D01*
X87287000Y-123126000D02*
X88787000Y-123126000D01*
X95402000Y-120251000D02*
X95348000Y-120306000D01*
X93827000Y-117946000D02*
X93773000Y-118000000D01*
X91902000Y-120251000D02*
X91848000Y-120306000D01*
X87527000Y-121326000D02*
X98147000Y-121326000D01*
X98147000Y-116266000D02*
X98147000Y-122886000D01*
X88630000Y-120512000D02*
G75*
G03*
X89363444Y-120681682I706999J1385995D01*
G01*
X90723000Y-119833000D02*
G75*
G03*
X90723645Y-118420267I-1386001J706999D01*
G01*
X89337000Y-120681000D02*
G75*
G03*
X90042955Y-120511515I-2J1555008D01*
G01*
X87951000Y-118419000D02*
G75*
G03*
X87950355Y-119831733I1386000J-707000D01*
G01*
X90044000Y-117740000D02*
G75*
G03*
X88631267Y-117739355I-707000J-1386000D01*
G01*
X97892000Y-119126000D02*
G75*
G03*
X97892000Y-119126000I-1555000J0D01*
G01*
X94392000Y-119126000D02*
G75*
G03*
X94392000Y-119126000I-1555000J0D01*
G01*
X88336000Y-74735000D02*
X89286000Y-74735000D01*
X94356000Y-74735000D02*
X94356000Y-76225000D01*
X95306000Y-70765000D02*
X95306000Y-70315000D01*
X95306000Y-74735000D02*
X94356000Y-74735000D01*
X88336000Y-70315000D02*
X88336000Y-70765000D01*
X95306000Y-74285000D02*
X95306000Y-74735000D01*
X88336000Y-74285000D02*
X88336000Y-74735000D01*
X95306000Y-70315000D02*
X88336000Y-70315000D01*
X97890000Y-112275252D02*
X97890000Y-111752748D01*
X96420000Y-112275252D02*
X96420000Y-111752748D01*
M02*
