G04 #@! TF.GenerationSoftware,KiCad,Pcbnew,6.0.2+dfsg-1*
G04 #@! TF.CreationDate,2024-04-05T20:37:34-06:00*
G04 #@! TF.ProjectId,ckt-iiab,636b742d-6969-4616-922e-6b696361645f,rev?*
G04 #@! TF.SameCoordinates,Original*
G04 #@! TF.FileFunction,Soldermask,Top*
G04 #@! TF.FilePolarity,Negative*
%FSLAX46Y46*%
G04 Gerber Fmt 4.6, Leading zero omitted, Abs format (unit mm)*
G04 Created by KiCad (PCBNEW 6.0.2+dfsg-1) date 2024-04-05 20:37:34*
%MOMM*%
%LPD*%
G01*
G04 APERTURE LIST*
%ADD10C,2.452400*%
%ADD11C,6.552400*%
%ADD12O,1.852400X1.852400*%
%ADD13C,1.143000*%
%ADD14C,0.939800*%
%ADD15C,2.652400*%
G04 APERTURE END LIST*
G36*
G01*
X64229000Y-142476200D02*
X63279000Y-142476200D01*
G75*
G02*
X62952800Y-142150000I0J326200D01*
G01*
X62952800Y-141650000D01*
G75*
G02*
X63279000Y-141323800I326200J0D01*
G01*
X64229000Y-141323800D01*
G75*
G02*
X64555200Y-141650000I0J-326200D01*
G01*
X64555200Y-142150000D01*
G75*
G02*
X64229000Y-142476200I-326200J0D01*
G01*
G37*
G36*
G01*
X64229000Y-140576200D02*
X63279000Y-140576200D01*
G75*
G02*
X62952800Y-140250000I0J326200D01*
G01*
X62952800Y-139750000D01*
G75*
G02*
X63279000Y-139423800I326200J0D01*
G01*
X64229000Y-139423800D01*
G75*
G02*
X64555200Y-139750000I0J-326200D01*
G01*
X64555200Y-140250000D01*
G75*
G02*
X64229000Y-140576200I-326200J0D01*
G01*
G37*
G36*
G01*
X86636800Y-145484000D02*
X86636800Y-144584000D01*
G75*
G02*
X86963000Y-144257800I326200J0D01*
G01*
X87488000Y-144257800D01*
G75*
G02*
X87814200Y-144584000I0J-326200D01*
G01*
X87814200Y-145484000D01*
G75*
G02*
X87488000Y-145810200I-326200J0D01*
G01*
X86963000Y-145810200D01*
G75*
G02*
X86636800Y-145484000I0J326200D01*
G01*
G37*
G36*
G01*
X88461800Y-145484000D02*
X88461800Y-144584000D01*
G75*
G02*
X88788000Y-144257800I326200J0D01*
G01*
X89313000Y-144257800D01*
G75*
G02*
X89639200Y-144584000I0J-326200D01*
G01*
X89639200Y-145484000D01*
G75*
G02*
X89313000Y-145810200I-326200J0D01*
G01*
X88788000Y-145810200D01*
G75*
G02*
X88461800Y-145484000I0J326200D01*
G01*
G37*
G36*
G01*
X109623000Y-146656200D02*
X108373000Y-146656200D01*
G75*
G02*
X108146800Y-146430000I0J226200D01*
G01*
X108146800Y-146130000D01*
G75*
G02*
X108373000Y-145903800I226200J0D01*
G01*
X109623000Y-145903800D01*
G75*
G02*
X109849200Y-146130000I0J-226200D01*
G01*
X109849200Y-146430000D01*
G75*
G02*
X109623000Y-146656200I-226200J0D01*
G01*
G37*
G36*
G01*
X109623000Y-145656200D02*
X108373000Y-145656200D01*
G75*
G02*
X108146800Y-145430000I0J226200D01*
G01*
X108146800Y-145130000D01*
G75*
G02*
X108373000Y-144903800I226200J0D01*
G01*
X109623000Y-144903800D01*
G75*
G02*
X109849200Y-145130000I0J-226200D01*
G01*
X109849200Y-145430000D01*
G75*
G02*
X109623000Y-145656200I-226200J0D01*
G01*
G37*
G36*
G01*
X109623000Y-144656200D02*
X108373000Y-144656200D01*
G75*
G02*
X108146800Y-144430000I0J226200D01*
G01*
X108146800Y-144130000D01*
G75*
G02*
X108373000Y-143903800I226200J0D01*
G01*
X109623000Y-143903800D01*
G75*
G02*
X109849200Y-144130000I0J-226200D01*
G01*
X109849200Y-144430000D01*
G75*
G02*
X109623000Y-144656200I-226200J0D01*
G01*
G37*
G36*
G01*
X109623000Y-143656200D02*
X108373000Y-143656200D01*
G75*
G02*
X108146800Y-143430000I0J226200D01*
G01*
X108146800Y-143130000D01*
G75*
G02*
X108373000Y-142903800I226200J0D01*
G01*
X109623000Y-142903800D01*
G75*
G02*
X109849200Y-143130000I0J-226200D01*
G01*
X109849200Y-143430000D01*
G75*
G02*
X109623000Y-143656200I-226200J0D01*
G01*
G37*
G36*
G01*
X113523000Y-142656200D02*
X112223000Y-142656200D01*
G75*
G02*
X111896800Y-142330000I0J326200D01*
G01*
X111896800Y-141630000D01*
G75*
G02*
X112223000Y-141303800I326200J0D01*
G01*
X113523000Y-141303800D01*
G75*
G02*
X113849200Y-141630000I0J-326200D01*
G01*
X113849200Y-142330000D01*
G75*
G02*
X113523000Y-142656200I-326200J0D01*
G01*
G37*
G36*
G01*
X113523000Y-148256200D02*
X112223000Y-148256200D01*
G75*
G02*
X111896800Y-147930000I0J326200D01*
G01*
X111896800Y-147230000D01*
G75*
G02*
X112223000Y-146903800I326200J0D01*
G01*
X113523000Y-146903800D01*
G75*
G02*
X113849200Y-147230000I0J-326200D01*
G01*
X113849200Y-147930000D01*
G75*
G02*
X113523000Y-148256200I-326200J0D01*
G01*
G37*
G36*
G01*
X66443800Y-163137000D02*
X66443800Y-162237000D01*
G75*
G02*
X66770000Y-161910800I326200J0D01*
G01*
X67295000Y-161910800D01*
G75*
G02*
X67621200Y-162237000I0J-326200D01*
G01*
X67621200Y-163137000D01*
G75*
G02*
X67295000Y-163463200I-326200J0D01*
G01*
X66770000Y-163463200D01*
G75*
G02*
X66443800Y-163137000I0J326200D01*
G01*
G37*
G36*
G01*
X68268800Y-163137000D02*
X68268800Y-162237000D01*
G75*
G02*
X68595000Y-161910800I326200J0D01*
G01*
X69120000Y-161910800D01*
G75*
G02*
X69446200Y-162237000I0J-326200D01*
G01*
X69446200Y-163137000D01*
G75*
G02*
X69120000Y-163463200I-326200J0D01*
G01*
X68595000Y-163463200D01*
G75*
G02*
X68268800Y-163137000I0J326200D01*
G01*
G37*
G36*
G01*
X50899800Y-174181988D02*
X50899800Y-171881988D01*
G75*
G02*
X50976000Y-171805788I76200J0D01*
G01*
X53276000Y-171805788D01*
G75*
G02*
X53352200Y-171881988I0J-76200D01*
G01*
X53352200Y-174181988D01*
G75*
G02*
X53276000Y-174258188I-76200J0D01*
G01*
X50976000Y-174258188D01*
G75*
G02*
X50899800Y-174181988I0J76200D01*
G01*
G37*
D10*
X55626000Y-173031988D03*
X59126000Y-173031988D03*
G36*
G01*
X98427200Y-154719000D02*
X98427200Y-155669000D01*
G75*
G02*
X98101000Y-155995200I-326200J0D01*
G01*
X97601000Y-155995200D01*
G75*
G02*
X97274800Y-155669000I0J326200D01*
G01*
X97274800Y-154719000D01*
G75*
G02*
X97601000Y-154392800I326200J0D01*
G01*
X98101000Y-154392800D01*
G75*
G02*
X98427200Y-154719000I0J-326200D01*
G01*
G37*
G36*
G01*
X96527200Y-154719000D02*
X96527200Y-155669000D01*
G75*
G02*
X96201000Y-155995200I-326200J0D01*
G01*
X95701000Y-155995200D01*
G75*
G02*
X95374800Y-155669000I0J326200D01*
G01*
X95374800Y-154719000D01*
G75*
G02*
X95701000Y-154392800I326200J0D01*
G01*
X96201000Y-154392800D01*
G75*
G02*
X96527200Y-154719000I0J-326200D01*
G01*
G37*
G36*
X59715980Y-158449627D02*
G01*
X59742042Y-158494768D01*
X59743200Y-158508000D01*
X59743200Y-160008000D01*
X59725373Y-160056980D01*
X59680232Y-160083042D01*
X59667000Y-160084200D01*
X59167000Y-160084200D01*
X59152666Y-160078983D01*
X59085663Y-160077755D01*
X59064336Y-160074301D01*
X58929021Y-160032026D01*
X58909520Y-160022725D01*
X58791510Y-159944170D01*
X58775404Y-159929769D01*
X58684184Y-159821250D01*
X58672767Y-159802908D01*
X58615672Y-159673149D01*
X58609862Y-159652340D01*
X58592940Y-159522932D01*
X58591958Y-159521232D01*
X58590800Y-159508000D01*
X58590800Y-159008000D01*
X58591552Y-159005934D01*
X58591744Y-158990167D01*
X58613555Y-158850090D01*
X58619872Y-158829430D01*
X58680120Y-158701105D01*
X58691982Y-158683047D01*
X58785826Y-158576789D01*
X58802279Y-158562787D01*
X58922174Y-158487139D01*
X58941895Y-158478317D01*
X59078202Y-158439360D01*
X59099608Y-158436427D01*
X59147255Y-158436718D01*
X59153768Y-158432958D01*
X59167000Y-158431800D01*
X59667000Y-158431800D01*
X59715980Y-158449627D01*
G37*
G36*
X60481081Y-158436925D02*
G01*
X60541370Y-158437293D01*
X60562738Y-158440487D01*
X60698559Y-158481106D01*
X60718172Y-158490168D01*
X60837134Y-158567275D01*
X60853415Y-158581478D01*
X60945953Y-158688875D01*
X60957592Y-158707076D01*
X61016269Y-158836128D01*
X61022333Y-158856865D01*
X61042430Y-158997198D01*
X61043200Y-159008000D01*
X61043200Y-159508000D01*
X61043194Y-159508929D01*
X61043045Y-159521145D01*
X61041995Y-159532858D01*
X61018475Y-159672659D01*
X61011906Y-159693242D01*
X60950094Y-159820821D01*
X60938013Y-159838732D01*
X60842878Y-159943836D01*
X60826255Y-159957637D01*
X60705445Y-160031814D01*
X60685617Y-160040394D01*
X60548844Y-160077683D01*
X60527404Y-160080353D01*
X60486198Y-160079598D01*
X60480232Y-160083042D01*
X60467000Y-160084200D01*
X59967000Y-160084200D01*
X59918020Y-160066373D01*
X59891958Y-160021232D01*
X59890800Y-160008000D01*
X59890800Y-158508000D01*
X59908627Y-158459020D01*
X59953768Y-158432958D01*
X59967000Y-158431800D01*
X60467000Y-158431800D01*
X60481081Y-158436925D01*
G37*
D11*
X109982000Y-176657000D03*
G36*
G01*
X112813200Y-135807004D02*
X112813200Y-137507004D01*
G75*
G02*
X112737000Y-137583204I-76200J0D01*
G01*
X111037000Y-137583204D01*
G75*
G02*
X110960800Y-137507004I0J76200D01*
G01*
X110960800Y-135807004D01*
G75*
G02*
X111037000Y-135730804I76200J0D01*
G01*
X112737000Y-135730804D01*
G75*
G02*
X112813200Y-135807004I0J-76200D01*
G01*
G37*
D12*
X111887000Y-134117004D03*
G36*
G01*
X67252000Y-142471200D02*
X66352000Y-142471200D01*
G75*
G02*
X66025800Y-142145000I0J326200D01*
G01*
X66025800Y-141620000D01*
G75*
G02*
X66352000Y-141293800I326200J0D01*
G01*
X67252000Y-141293800D01*
G75*
G02*
X67578200Y-141620000I0J-326200D01*
G01*
X67578200Y-142145000D01*
G75*
G02*
X67252000Y-142471200I-326200J0D01*
G01*
G37*
G36*
G01*
X67252000Y-140646200D02*
X66352000Y-140646200D01*
G75*
G02*
X66025800Y-140320000I0J326200D01*
G01*
X66025800Y-139795000D01*
G75*
G02*
X66352000Y-139468800I326200J0D01*
G01*
X67252000Y-139468800D01*
G75*
G02*
X67578200Y-139795000I0J-326200D01*
G01*
X67578200Y-140320000D01*
G75*
G02*
X67252000Y-140646200I-326200J0D01*
G01*
G37*
G36*
G01*
X100075300Y-159454000D02*
X100075300Y-158554000D01*
G75*
G02*
X100401500Y-158227800I326200J0D01*
G01*
X100926500Y-158227800D01*
G75*
G02*
X101252700Y-158554000I0J-326200D01*
G01*
X101252700Y-159454000D01*
G75*
G02*
X100926500Y-159780200I-326200J0D01*
G01*
X100401500Y-159780200D01*
G75*
G02*
X100075300Y-159454000I0J326200D01*
G01*
G37*
G36*
G01*
X101900300Y-159454000D02*
X101900300Y-158554000D01*
G75*
G02*
X102226500Y-158227800I326200J0D01*
G01*
X102751500Y-158227800D01*
G75*
G02*
X103077700Y-158554000I0J-326200D01*
G01*
X103077700Y-159454000D01*
G75*
G02*
X102751500Y-159780200I-326200J0D01*
G01*
X102226500Y-159780200D01*
G75*
G02*
X101900300Y-159454000I0J326200D01*
G01*
G37*
D11*
X109982000Y-128143000D03*
G36*
G01*
X58315800Y-163137000D02*
X58315800Y-162237000D01*
G75*
G02*
X58642000Y-161910800I326200J0D01*
G01*
X59167000Y-161910800D01*
G75*
G02*
X59493200Y-162237000I0J-326200D01*
G01*
X59493200Y-163137000D01*
G75*
G02*
X59167000Y-163463200I-326200J0D01*
G01*
X58642000Y-163463200D01*
G75*
G02*
X58315800Y-163137000I0J326200D01*
G01*
G37*
G36*
G01*
X60140800Y-163137000D02*
X60140800Y-162237000D01*
G75*
G02*
X60467000Y-161910800I326200J0D01*
G01*
X60992000Y-161910800D01*
G75*
G02*
X61318200Y-162237000I0J-326200D01*
G01*
X61318200Y-163137000D01*
G75*
G02*
X60992000Y-163463200I-326200J0D01*
G01*
X60467000Y-163463200D01*
G75*
G02*
X60140800Y-163137000I0J326200D01*
G01*
G37*
G36*
G01*
X48041000Y-146032800D02*
X49241000Y-146032800D01*
G75*
G02*
X49317200Y-146109000I0J-76200D01*
G01*
X49317200Y-147009000D01*
G75*
G02*
X49241000Y-147085200I-76200J0D01*
G01*
X48041000Y-147085200D01*
G75*
G02*
X47964800Y-147009000I0J76200D01*
G01*
X47964800Y-146109000D01*
G75*
G02*
X48041000Y-146032800I76200J0D01*
G01*
G37*
G36*
G01*
X48041000Y-149332800D02*
X49241000Y-149332800D01*
G75*
G02*
X49317200Y-149409000I0J-76200D01*
G01*
X49317200Y-150309000D01*
G75*
G02*
X49241000Y-150385200I-76200J0D01*
G01*
X48041000Y-150385200D01*
G75*
G02*
X47964800Y-150309000I0J76200D01*
G01*
X47964800Y-149409000D01*
G75*
G02*
X48041000Y-149332800I76200J0D01*
G01*
G37*
G36*
G01*
X79123200Y-141638000D02*
X79123200Y-142588000D01*
G75*
G02*
X78797000Y-142914200I-326200J0D01*
G01*
X78297000Y-142914200D01*
G75*
G02*
X77970800Y-142588000I0J326200D01*
G01*
X77970800Y-141638000D01*
G75*
G02*
X78297000Y-141311800I326200J0D01*
G01*
X78797000Y-141311800D01*
G75*
G02*
X79123200Y-141638000I0J-326200D01*
G01*
G37*
G36*
G01*
X77223200Y-141638000D02*
X77223200Y-142588000D01*
G75*
G02*
X76897000Y-142914200I-326200J0D01*
G01*
X76397000Y-142914200D01*
G75*
G02*
X76070800Y-142588000I0J326200D01*
G01*
X76070800Y-141638000D01*
G75*
G02*
X76397000Y-141311800I326200J0D01*
G01*
X76897000Y-141311800D01*
G75*
G02*
X77223200Y-141638000I0J-326200D01*
G01*
G37*
G36*
G01*
X55838000Y-137459800D02*
X56938000Y-137459800D01*
G75*
G02*
X57264200Y-137786000I0J-326200D01*
G01*
X57264200Y-140786000D01*
G75*
G02*
X56938000Y-141112200I-326200J0D01*
G01*
X55838000Y-141112200D01*
G75*
G02*
X55511800Y-140786000I0J326200D01*
G01*
X55511800Y-137786000D01*
G75*
G02*
X55838000Y-137459800I326200J0D01*
G01*
G37*
G36*
G01*
X55838000Y-142859800D02*
X56938000Y-142859800D01*
G75*
G02*
X57264200Y-143186000I0J-326200D01*
G01*
X57264200Y-146186000D01*
G75*
G02*
X56938000Y-146512200I-326200J0D01*
G01*
X55838000Y-146512200D01*
G75*
G02*
X55511800Y-146186000I0J326200D01*
G01*
X55511800Y-143186000D01*
G75*
G02*
X55838000Y-142859800I326200J0D01*
G01*
G37*
G36*
G01*
X109590996Y-168524203D02*
X108340996Y-168524203D01*
G75*
G02*
X108114796Y-168298003I0J226200D01*
G01*
X108114796Y-167998003D01*
G75*
G02*
X108340996Y-167771803I226200J0D01*
G01*
X109590996Y-167771803D01*
G75*
G02*
X109817196Y-167998003I0J-226200D01*
G01*
X109817196Y-168298003D01*
G75*
G02*
X109590996Y-168524203I-226200J0D01*
G01*
G37*
G36*
G01*
X109590996Y-167524203D02*
X108340996Y-167524203D01*
G75*
G02*
X108114796Y-167298003I0J226200D01*
G01*
X108114796Y-166998003D01*
G75*
G02*
X108340996Y-166771803I226200J0D01*
G01*
X109590996Y-166771803D01*
G75*
G02*
X109817196Y-166998003I0J-226200D01*
G01*
X109817196Y-167298003D01*
G75*
G02*
X109590996Y-167524203I-226200J0D01*
G01*
G37*
G36*
G01*
X109590996Y-166524203D02*
X108340996Y-166524203D01*
G75*
G02*
X108114796Y-166298003I0J226200D01*
G01*
X108114796Y-165998003D01*
G75*
G02*
X108340996Y-165771803I226200J0D01*
G01*
X109590996Y-165771803D01*
G75*
G02*
X109817196Y-165998003I0J-226200D01*
G01*
X109817196Y-166298003D01*
G75*
G02*
X109590996Y-166524203I-226200J0D01*
G01*
G37*
G36*
G01*
X109590996Y-165524203D02*
X108340996Y-165524203D01*
G75*
G02*
X108114796Y-165298003I0J226200D01*
G01*
X108114796Y-164998003D01*
G75*
G02*
X108340996Y-164771803I226200J0D01*
G01*
X109590996Y-164771803D01*
G75*
G02*
X109817196Y-164998003I0J-226200D01*
G01*
X109817196Y-165298003D01*
G75*
G02*
X109590996Y-165524203I-226200J0D01*
G01*
G37*
G36*
G01*
X113490996Y-170124203D02*
X112190996Y-170124203D01*
G75*
G02*
X111864796Y-169798003I0J326200D01*
G01*
X111864796Y-169098003D01*
G75*
G02*
X112190996Y-168771803I326200J0D01*
G01*
X113490996Y-168771803D01*
G75*
G02*
X113817196Y-169098003I0J-326200D01*
G01*
X113817196Y-169798003D01*
G75*
G02*
X113490996Y-170124203I-326200J0D01*
G01*
G37*
G36*
G01*
X113490996Y-164524203D02*
X112190996Y-164524203D01*
G75*
G02*
X111864796Y-164198003I0J326200D01*
G01*
X111864796Y-163498003D01*
G75*
G02*
X112190996Y-163171803I326200J0D01*
G01*
X113490996Y-163171803D01*
G75*
G02*
X113817196Y-163498003I0J-326200D01*
G01*
X113817196Y-164198003D01*
G75*
G02*
X113490996Y-164524203I-326200J0D01*
G01*
G37*
G36*
G01*
X100098800Y-163264000D02*
X100098800Y-162364000D01*
G75*
G02*
X100425000Y-162037800I326200J0D01*
G01*
X100950000Y-162037800D01*
G75*
G02*
X101276200Y-162364000I0J-326200D01*
G01*
X101276200Y-163264000D01*
G75*
G02*
X100950000Y-163590200I-326200J0D01*
G01*
X100425000Y-163590200D01*
G75*
G02*
X100098800Y-163264000I0J326200D01*
G01*
G37*
G36*
G01*
X101923800Y-163264000D02*
X101923800Y-162364000D01*
G75*
G02*
X102250000Y-162037800I326200J0D01*
G01*
X102775000Y-162037800D01*
G75*
G02*
X103101200Y-162364000I0J-326200D01*
G01*
X103101200Y-163264000D01*
G75*
G02*
X102775000Y-163590200I-326200J0D01*
G01*
X102250000Y-163590200D01*
G75*
G02*
X101923800Y-163264000I0J326200D01*
G01*
G37*
X42418000Y-176657000D03*
G36*
G01*
X54251800Y-163137000D02*
X54251800Y-162237000D01*
G75*
G02*
X54578000Y-161910800I326200J0D01*
G01*
X55103000Y-161910800D01*
G75*
G02*
X55429200Y-162237000I0J-326200D01*
G01*
X55429200Y-163137000D01*
G75*
G02*
X55103000Y-163463200I-326200J0D01*
G01*
X54578000Y-163463200D01*
G75*
G02*
X54251800Y-163137000I0J326200D01*
G01*
G37*
G36*
G01*
X56076800Y-163137000D02*
X56076800Y-162237000D01*
G75*
G02*
X56403000Y-161910800I326200J0D01*
G01*
X56928000Y-161910800D01*
G75*
G02*
X57254200Y-162237000I0J-326200D01*
G01*
X57254200Y-163137000D01*
G75*
G02*
X56928000Y-163463200I-326200J0D01*
G01*
X56403000Y-163463200D01*
G75*
G02*
X56076800Y-163137000I0J326200D01*
G01*
G37*
X42418000Y-128143000D03*
G36*
X55651980Y-158449627D02*
G01*
X55678042Y-158494768D01*
X55679200Y-158508000D01*
X55679200Y-160008000D01*
X55661373Y-160056980D01*
X55616232Y-160083042D01*
X55603000Y-160084200D01*
X55103000Y-160084200D01*
X55088666Y-160078983D01*
X55021663Y-160077755D01*
X55000336Y-160074301D01*
X54865021Y-160032026D01*
X54845520Y-160022725D01*
X54727510Y-159944170D01*
X54711404Y-159929769D01*
X54620184Y-159821250D01*
X54608767Y-159802908D01*
X54551672Y-159673149D01*
X54545862Y-159652340D01*
X54528940Y-159522932D01*
X54527958Y-159521232D01*
X54526800Y-159508000D01*
X54526800Y-159008000D01*
X54527552Y-159005934D01*
X54527744Y-158990167D01*
X54549555Y-158850090D01*
X54555872Y-158829430D01*
X54616120Y-158701105D01*
X54627982Y-158683047D01*
X54721826Y-158576789D01*
X54738279Y-158562787D01*
X54858174Y-158487139D01*
X54877895Y-158478317D01*
X55014202Y-158439360D01*
X55035608Y-158436427D01*
X55083255Y-158436718D01*
X55089768Y-158432958D01*
X55103000Y-158431800D01*
X55603000Y-158431800D01*
X55651980Y-158449627D01*
G37*
G36*
X56417081Y-158436925D02*
G01*
X56477370Y-158437293D01*
X56498738Y-158440487D01*
X56634559Y-158481106D01*
X56654172Y-158490168D01*
X56773134Y-158567275D01*
X56789415Y-158581478D01*
X56881953Y-158688875D01*
X56893592Y-158707076D01*
X56952269Y-158836128D01*
X56958333Y-158856865D01*
X56978430Y-158997198D01*
X56979200Y-159008000D01*
X56979200Y-159508000D01*
X56979194Y-159508929D01*
X56979045Y-159521145D01*
X56977995Y-159532858D01*
X56954475Y-159672659D01*
X56947906Y-159693242D01*
X56886094Y-159820821D01*
X56874013Y-159838732D01*
X56778878Y-159943836D01*
X56762255Y-159957637D01*
X56641445Y-160031814D01*
X56621617Y-160040394D01*
X56484844Y-160077683D01*
X56463404Y-160080353D01*
X56422198Y-160079598D01*
X56416232Y-160083042D01*
X56403000Y-160084200D01*
X55903000Y-160084200D01*
X55854020Y-160066373D01*
X55827958Y-160021232D01*
X55826800Y-160008000D01*
X55826800Y-158508000D01*
X55844627Y-158459020D01*
X55889768Y-158432958D01*
X55903000Y-158431800D01*
X56403000Y-158431800D01*
X56417081Y-158436925D01*
G37*
G36*
G01*
X52560800Y-154905000D02*
X52560800Y-153705000D01*
G75*
G02*
X52637000Y-153628800I76200J0D01*
G01*
X53537000Y-153628800D01*
G75*
G02*
X53613200Y-153705000I0J-76200D01*
G01*
X53613200Y-154905000D01*
G75*
G02*
X53537000Y-154981200I-76200J0D01*
G01*
X52637000Y-154981200D01*
G75*
G02*
X52560800Y-154905000I0J76200D01*
G01*
G37*
G36*
G01*
X55860800Y-154905000D02*
X55860800Y-153705000D01*
G75*
G02*
X55937000Y-153628800I76200J0D01*
G01*
X56837000Y-153628800D01*
G75*
G02*
X56913200Y-153705000I0J-76200D01*
G01*
X56913200Y-154905000D01*
G75*
G02*
X56837000Y-154981200I-76200J0D01*
G01*
X55937000Y-154981200D01*
G75*
G02*
X55860800Y-154905000I0J76200D01*
G01*
G37*
G36*
G01*
X52560800Y-151730000D02*
X52560800Y-150530000D01*
G75*
G02*
X52637000Y-150453800I76200J0D01*
G01*
X53537000Y-150453800D01*
G75*
G02*
X53613200Y-150530000I0J-76200D01*
G01*
X53613200Y-151730000D01*
G75*
G02*
X53537000Y-151806200I-76200J0D01*
G01*
X52637000Y-151806200D01*
G75*
G02*
X52560800Y-151730000I0J76200D01*
G01*
G37*
G36*
G01*
X55860800Y-151730000D02*
X55860800Y-150530000D01*
G75*
G02*
X55937000Y-150453800I76200J0D01*
G01*
X56837000Y-150453800D01*
G75*
G02*
X56913200Y-150530000I0J-76200D01*
G01*
X56913200Y-151730000D01*
G75*
G02*
X56837000Y-151806200I-76200J0D01*
G01*
X55937000Y-151806200D01*
G75*
G02*
X55860800Y-151730000I0J76200D01*
G01*
G37*
G36*
G01*
X99643000Y-129463800D02*
X100763000Y-129463800D01*
G75*
G02*
X100839200Y-129540000I0J-76200D01*
G01*
X100839200Y-131700000D01*
G75*
G02*
X100763000Y-131776200I-76200J0D01*
G01*
X99643000Y-131776200D01*
G75*
G02*
X99566800Y-131700000I0J76200D01*
G01*
X99566800Y-129540000D01*
G75*
G02*
X99643000Y-129463800I76200J0D01*
G01*
G37*
G36*
G01*
X97103000Y-129463800D02*
X98223000Y-129463800D01*
G75*
G02*
X98299200Y-129540000I0J-76200D01*
G01*
X98299200Y-131700000D01*
G75*
G02*
X98223000Y-131776200I-76200J0D01*
G01*
X97103000Y-131776200D01*
G75*
G02*
X97026800Y-131700000I0J76200D01*
G01*
X97026800Y-129540000D01*
G75*
G02*
X97103000Y-129463800I76200J0D01*
G01*
G37*
G36*
G01*
X94563000Y-129463800D02*
X95683000Y-129463800D01*
G75*
G02*
X95759200Y-129540000I0J-76200D01*
G01*
X95759200Y-131700000D01*
G75*
G02*
X95683000Y-131776200I-76200J0D01*
G01*
X94563000Y-131776200D01*
G75*
G02*
X94486800Y-131700000I0J76200D01*
G01*
X94486800Y-129540000D01*
G75*
G02*
X94563000Y-129463800I76200J0D01*
G01*
G37*
G36*
G01*
X92023000Y-129463800D02*
X93143000Y-129463800D01*
G75*
G02*
X93219200Y-129540000I0J-76200D01*
G01*
X93219200Y-131700000D01*
G75*
G02*
X93143000Y-131776200I-76200J0D01*
G01*
X92023000Y-131776200D01*
G75*
G02*
X91946800Y-131700000I0J76200D01*
G01*
X91946800Y-129540000D01*
G75*
G02*
X92023000Y-129463800I76200J0D01*
G01*
G37*
G36*
G01*
X89483000Y-129463800D02*
X90603000Y-129463800D01*
G75*
G02*
X90679200Y-129540000I0J-76200D01*
G01*
X90679200Y-131700000D01*
G75*
G02*
X90603000Y-131776200I-76200J0D01*
G01*
X89483000Y-131776200D01*
G75*
G02*
X89406800Y-131700000I0J76200D01*
G01*
X89406800Y-129540000D01*
G75*
G02*
X89483000Y-129463800I76200J0D01*
G01*
G37*
G36*
G01*
X86943000Y-129463800D02*
X88063000Y-129463800D01*
G75*
G02*
X88139200Y-129540000I0J-76200D01*
G01*
X88139200Y-131700000D01*
G75*
G02*
X88063000Y-131776200I-76200J0D01*
G01*
X86943000Y-131776200D01*
G75*
G02*
X86866800Y-131700000I0J76200D01*
G01*
X86866800Y-129540000D01*
G75*
G02*
X86943000Y-129463800I76200J0D01*
G01*
G37*
G36*
G01*
X84403000Y-129463800D02*
X85523000Y-129463800D01*
G75*
G02*
X85599200Y-129540000I0J-76200D01*
G01*
X85599200Y-131700000D01*
G75*
G02*
X85523000Y-131776200I-76200J0D01*
G01*
X84403000Y-131776200D01*
G75*
G02*
X84326800Y-131700000I0J76200D01*
G01*
X84326800Y-129540000D01*
G75*
G02*
X84403000Y-129463800I76200J0D01*
G01*
G37*
G36*
G01*
X81863000Y-129463800D02*
X82983000Y-129463800D01*
G75*
G02*
X83059200Y-129540000I0J-76200D01*
G01*
X83059200Y-131700000D01*
G75*
G02*
X82983000Y-131776200I-76200J0D01*
G01*
X81863000Y-131776200D01*
G75*
G02*
X81786800Y-131700000I0J76200D01*
G01*
X81786800Y-129540000D01*
G75*
G02*
X81863000Y-129463800I76200J0D01*
G01*
G37*
G36*
G01*
X81863000Y-136193800D02*
X82983000Y-136193800D01*
G75*
G02*
X83059200Y-136270000I0J-76200D01*
G01*
X83059200Y-138430000D01*
G75*
G02*
X82983000Y-138506200I-76200J0D01*
G01*
X81863000Y-138506200D01*
G75*
G02*
X81786800Y-138430000I0J76200D01*
G01*
X81786800Y-136270000D01*
G75*
G02*
X81863000Y-136193800I76200J0D01*
G01*
G37*
G36*
G01*
X84403000Y-136193800D02*
X85523000Y-136193800D01*
G75*
G02*
X85599200Y-136270000I0J-76200D01*
G01*
X85599200Y-138430000D01*
G75*
G02*
X85523000Y-138506200I-76200J0D01*
G01*
X84403000Y-138506200D01*
G75*
G02*
X84326800Y-138430000I0J76200D01*
G01*
X84326800Y-136270000D01*
G75*
G02*
X84403000Y-136193800I76200J0D01*
G01*
G37*
G36*
G01*
X86943000Y-136193800D02*
X88063000Y-136193800D01*
G75*
G02*
X88139200Y-136270000I0J-76200D01*
G01*
X88139200Y-138430000D01*
G75*
G02*
X88063000Y-138506200I-76200J0D01*
G01*
X86943000Y-138506200D01*
G75*
G02*
X86866800Y-138430000I0J76200D01*
G01*
X86866800Y-136270000D01*
G75*
G02*
X86943000Y-136193800I76200J0D01*
G01*
G37*
G36*
G01*
X89483000Y-136193800D02*
X90603000Y-136193800D01*
G75*
G02*
X90679200Y-136270000I0J-76200D01*
G01*
X90679200Y-138430000D01*
G75*
G02*
X90603000Y-138506200I-76200J0D01*
G01*
X89483000Y-138506200D01*
G75*
G02*
X89406800Y-138430000I0J76200D01*
G01*
X89406800Y-136270000D01*
G75*
G02*
X89483000Y-136193800I76200J0D01*
G01*
G37*
G36*
G01*
X92023000Y-136193800D02*
X93143000Y-136193800D01*
G75*
G02*
X93219200Y-136270000I0J-76200D01*
G01*
X93219200Y-138430000D01*
G75*
G02*
X93143000Y-138506200I-76200J0D01*
G01*
X92023000Y-138506200D01*
G75*
G02*
X91946800Y-138430000I0J76200D01*
G01*
X91946800Y-136270000D01*
G75*
G02*
X92023000Y-136193800I76200J0D01*
G01*
G37*
G36*
G01*
X94563000Y-136193800D02*
X95683000Y-136193800D01*
G75*
G02*
X95759200Y-136270000I0J-76200D01*
G01*
X95759200Y-138430000D01*
G75*
G02*
X95683000Y-138506200I-76200J0D01*
G01*
X94563000Y-138506200D01*
G75*
G02*
X94486800Y-138430000I0J76200D01*
G01*
X94486800Y-136270000D01*
G75*
G02*
X94563000Y-136193800I76200J0D01*
G01*
G37*
G36*
G01*
X97103000Y-136193800D02*
X98223000Y-136193800D01*
G75*
G02*
X98299200Y-136270000I0J-76200D01*
G01*
X98299200Y-138430000D01*
G75*
G02*
X98223000Y-138506200I-76200J0D01*
G01*
X97103000Y-138506200D01*
G75*
G02*
X97026800Y-138430000I0J76200D01*
G01*
X97026800Y-136270000D01*
G75*
G02*
X97103000Y-136193800I76200J0D01*
G01*
G37*
G36*
G01*
X99643000Y-136193800D02*
X100763000Y-136193800D01*
G75*
G02*
X100839200Y-136270000I0J-76200D01*
G01*
X100839200Y-138430000D01*
G75*
G02*
X100763000Y-138506200I-76200J0D01*
G01*
X99643000Y-138506200D01*
G75*
G02*
X99566800Y-138430000I0J76200D01*
G01*
X99566800Y-136270000D01*
G75*
G02*
X99643000Y-136193800I76200J0D01*
G01*
G37*
G36*
G01*
X98427200Y-162339000D02*
X98427200Y-163289000D01*
G75*
G02*
X98101000Y-163615200I-326200J0D01*
G01*
X97601000Y-163615200D01*
G75*
G02*
X97274800Y-163289000I0J326200D01*
G01*
X97274800Y-162339000D01*
G75*
G02*
X97601000Y-162012800I326200J0D01*
G01*
X98101000Y-162012800D01*
G75*
G02*
X98427200Y-162339000I0J-326200D01*
G01*
G37*
G36*
G01*
X96527200Y-162339000D02*
X96527200Y-163289000D01*
G75*
G02*
X96201000Y-163615200I-326200J0D01*
G01*
X95701000Y-163615200D01*
G75*
G02*
X95374800Y-163289000I0J326200D01*
G01*
X95374800Y-162339000D01*
G75*
G02*
X95701000Y-162012800I326200J0D01*
G01*
X96201000Y-162012800D01*
G75*
G02*
X96527200Y-162339000I0J-326200D01*
G01*
G37*
G36*
G01*
X41477250Y-144170700D02*
X40564750Y-144170700D01*
G75*
G02*
X40244800Y-143850750I0J319950D01*
G01*
X40244800Y-143363250D01*
G75*
G02*
X40564750Y-143043300I319950J0D01*
G01*
X41477250Y-143043300D01*
G75*
G02*
X41797200Y-143363250I0J-319950D01*
G01*
X41797200Y-143850750D01*
G75*
G02*
X41477250Y-144170700I-319950J0D01*
G01*
G37*
G36*
G01*
X41477250Y-142295700D02*
X40564750Y-142295700D01*
G75*
G02*
X40244800Y-141975750I0J319950D01*
G01*
X40244800Y-141488250D01*
G75*
G02*
X40564750Y-141168300I319950J0D01*
G01*
X41477250Y-141168300D01*
G75*
G02*
X41797200Y-141488250I0J-319950D01*
G01*
X41797200Y-141975750D01*
G75*
G02*
X41477250Y-142295700I-319950J0D01*
G01*
G37*
G36*
G01*
X62379800Y-163137000D02*
X62379800Y-162237000D01*
G75*
G02*
X62706000Y-161910800I326200J0D01*
G01*
X63231000Y-161910800D01*
G75*
G02*
X63557200Y-162237000I0J-326200D01*
G01*
X63557200Y-163137000D01*
G75*
G02*
X63231000Y-163463200I-326200J0D01*
G01*
X62706000Y-163463200D01*
G75*
G02*
X62379800Y-163137000I0J326200D01*
G01*
G37*
G36*
G01*
X64204800Y-163137000D02*
X64204800Y-162237000D01*
G75*
G02*
X64531000Y-161910800I326200J0D01*
G01*
X65056000Y-161910800D01*
G75*
G02*
X65382200Y-162237000I0J-326200D01*
G01*
X65382200Y-163137000D01*
G75*
G02*
X65056000Y-163463200I-326200J0D01*
G01*
X64531000Y-163463200D01*
G75*
G02*
X64204800Y-163137000I0J326200D01*
G01*
G37*
D13*
X66294000Y-147320000D03*
X64262000Y-147320000D03*
X65278000Y-152400000D03*
D14*
X65913000Y-151130000D03*
X64643000Y-151130000D03*
X65913000Y-149860000D03*
X64643000Y-149860000D03*
X65913000Y-148590000D03*
X64643000Y-148590000D03*
G36*
G01*
X101323200Y-147378000D02*
X101323200Y-148278000D01*
G75*
G02*
X100997000Y-148604200I-326200J0D01*
G01*
X100472000Y-148604200D01*
G75*
G02*
X100145800Y-148278000I0J326200D01*
G01*
X100145800Y-147378000D01*
G75*
G02*
X100472000Y-147051800I326200J0D01*
G01*
X100997000Y-147051800D01*
G75*
G02*
X101323200Y-147378000I0J-326200D01*
G01*
G37*
G36*
G01*
X99498200Y-147378000D02*
X99498200Y-148278000D01*
G75*
G02*
X99172000Y-148604200I-326200J0D01*
G01*
X98647000Y-148604200D01*
G75*
G02*
X98320800Y-148278000I0J326200D01*
G01*
X98320800Y-147378000D01*
G75*
G02*
X98647000Y-147051800I326200J0D01*
G01*
X99172000Y-147051800D01*
G75*
G02*
X99498200Y-147378000I0J-326200D01*
G01*
G37*
G36*
G01*
X41549000Y-154375800D02*
X44049000Y-154375800D01*
G75*
G02*
X44125200Y-154452000I0J-76200D01*
G01*
X44125200Y-156952000D01*
G75*
G02*
X44049000Y-157028200I-76200J0D01*
G01*
X41549000Y-157028200D01*
G75*
G02*
X41472800Y-156952000I0J76200D01*
G01*
X41472800Y-154452000D01*
G75*
G02*
X41549000Y-154375800I76200J0D01*
G01*
G37*
D15*
X42799000Y-160702000D03*
G36*
G01*
X89639200Y-152204000D02*
X89639200Y-153104000D01*
G75*
G02*
X89313000Y-153430200I-326200J0D01*
G01*
X88788000Y-153430200D01*
G75*
G02*
X88461800Y-153104000I0J326200D01*
G01*
X88461800Y-152204000D01*
G75*
G02*
X88788000Y-151877800I326200J0D01*
G01*
X89313000Y-151877800D01*
G75*
G02*
X89639200Y-152204000I0J-326200D01*
G01*
G37*
G36*
G01*
X87814200Y-152204000D02*
X87814200Y-153104000D01*
G75*
G02*
X87488000Y-153430200I-326200J0D01*
G01*
X86963000Y-153430200D01*
G75*
G02*
X86636800Y-153104000I0J326200D01*
G01*
X86636800Y-152204000D01*
G75*
G02*
X86963000Y-151877800I326200J0D01*
G01*
X87488000Y-151877800D01*
G75*
G02*
X87814200Y-152204000I0J-326200D01*
G01*
G37*
G36*
X63779980Y-158449627D02*
G01*
X63806042Y-158494768D01*
X63807200Y-158508000D01*
X63807200Y-160008000D01*
X63789373Y-160056980D01*
X63744232Y-160083042D01*
X63731000Y-160084200D01*
X63231000Y-160084200D01*
X63216666Y-160078983D01*
X63149663Y-160077755D01*
X63128336Y-160074301D01*
X62993021Y-160032026D01*
X62973520Y-160022725D01*
X62855510Y-159944170D01*
X62839404Y-159929769D01*
X62748184Y-159821250D01*
X62736767Y-159802908D01*
X62679672Y-159673149D01*
X62673862Y-159652340D01*
X62656940Y-159522932D01*
X62655958Y-159521232D01*
X62654800Y-159508000D01*
X62654800Y-159008000D01*
X62655552Y-159005934D01*
X62655744Y-158990167D01*
X62677555Y-158850090D01*
X62683872Y-158829430D01*
X62744120Y-158701105D01*
X62755982Y-158683047D01*
X62849826Y-158576789D01*
X62866279Y-158562787D01*
X62986174Y-158487139D01*
X63005895Y-158478317D01*
X63142202Y-158439360D01*
X63163608Y-158436427D01*
X63211255Y-158436718D01*
X63217768Y-158432958D01*
X63231000Y-158431800D01*
X63731000Y-158431800D01*
X63779980Y-158449627D01*
G37*
G36*
X64545081Y-158436925D02*
G01*
X64605370Y-158437293D01*
X64626738Y-158440487D01*
X64762559Y-158481106D01*
X64782172Y-158490168D01*
X64901134Y-158567275D01*
X64917415Y-158581478D01*
X65009953Y-158688875D01*
X65021592Y-158707076D01*
X65080269Y-158836128D01*
X65086333Y-158856865D01*
X65106430Y-158997198D01*
X65107200Y-159008000D01*
X65107200Y-159508000D01*
X65107194Y-159508929D01*
X65107045Y-159521145D01*
X65105995Y-159532858D01*
X65082475Y-159672659D01*
X65075906Y-159693242D01*
X65014094Y-159820821D01*
X65002013Y-159838732D01*
X64906878Y-159943836D01*
X64890255Y-159957637D01*
X64769445Y-160031814D01*
X64749617Y-160040394D01*
X64612844Y-160077683D01*
X64591404Y-160080353D01*
X64550198Y-160079598D01*
X64544232Y-160083042D01*
X64531000Y-160084200D01*
X64031000Y-160084200D01*
X63982020Y-160066373D01*
X63955958Y-160021232D01*
X63954800Y-160008000D01*
X63954800Y-158508000D01*
X63972627Y-158459020D01*
X64017768Y-158432958D01*
X64031000Y-158431800D01*
X64531000Y-158431800D01*
X64545081Y-158436925D01*
G37*
G36*
G01*
X86636800Y-149294000D02*
X86636800Y-148394000D01*
G75*
G02*
X86963000Y-148067800I326200J0D01*
G01*
X87488000Y-148067800D01*
G75*
G02*
X87814200Y-148394000I0J-326200D01*
G01*
X87814200Y-149294000D01*
G75*
G02*
X87488000Y-149620200I-326200J0D01*
G01*
X86963000Y-149620200D01*
G75*
G02*
X86636800Y-149294000I0J326200D01*
G01*
G37*
G36*
G01*
X88461800Y-149294000D02*
X88461800Y-148394000D01*
G75*
G02*
X88788000Y-148067800I326200J0D01*
G01*
X89313000Y-148067800D01*
G75*
G02*
X89639200Y-148394000I0J-326200D01*
G01*
X89639200Y-149294000D01*
G75*
G02*
X89313000Y-149620200I-326200J0D01*
G01*
X88788000Y-149620200D01*
G75*
G02*
X88461800Y-149294000I0J326200D01*
G01*
G37*
G36*
G01*
X72032000Y-155611200D02*
X71732000Y-155611200D01*
G75*
G02*
X71505800Y-155385000I0J226200D01*
G01*
X71505800Y-153635000D01*
G75*
G02*
X71732000Y-153408800I226200J0D01*
G01*
X72032000Y-153408800D01*
G75*
G02*
X72258200Y-153635000I0J-226200D01*
G01*
X72258200Y-155385000D01*
G75*
G02*
X72032000Y-155611200I-226200J0D01*
G01*
G37*
G36*
G01*
X73302000Y-155611200D02*
X73002000Y-155611200D01*
G75*
G02*
X72775800Y-155385000I0J226200D01*
G01*
X72775800Y-153635000D01*
G75*
G02*
X73002000Y-153408800I226200J0D01*
G01*
X73302000Y-153408800D01*
G75*
G02*
X73528200Y-153635000I0J-226200D01*
G01*
X73528200Y-155385000D01*
G75*
G02*
X73302000Y-155611200I-226200J0D01*
G01*
G37*
G36*
G01*
X74572000Y-155611200D02*
X74272000Y-155611200D01*
G75*
G02*
X74045800Y-155385000I0J226200D01*
G01*
X74045800Y-153635000D01*
G75*
G02*
X74272000Y-153408800I226200J0D01*
G01*
X74572000Y-153408800D01*
G75*
G02*
X74798200Y-153635000I0J-226200D01*
G01*
X74798200Y-155385000D01*
G75*
G02*
X74572000Y-155611200I-226200J0D01*
G01*
G37*
G36*
G01*
X75842000Y-155611200D02*
X75542000Y-155611200D01*
G75*
G02*
X75315800Y-155385000I0J226200D01*
G01*
X75315800Y-153635000D01*
G75*
G02*
X75542000Y-153408800I226200J0D01*
G01*
X75842000Y-153408800D01*
G75*
G02*
X76068200Y-153635000I0J-226200D01*
G01*
X76068200Y-155385000D01*
G75*
G02*
X75842000Y-155611200I-226200J0D01*
G01*
G37*
G36*
G01*
X77112000Y-155611200D02*
X76812000Y-155611200D01*
G75*
G02*
X76585800Y-155385000I0J226200D01*
G01*
X76585800Y-153635000D01*
G75*
G02*
X76812000Y-153408800I226200J0D01*
G01*
X77112000Y-153408800D01*
G75*
G02*
X77338200Y-153635000I0J-226200D01*
G01*
X77338200Y-155385000D01*
G75*
G02*
X77112000Y-155611200I-226200J0D01*
G01*
G37*
G36*
G01*
X78382000Y-155611200D02*
X78082000Y-155611200D01*
G75*
G02*
X77855800Y-155385000I0J226200D01*
G01*
X77855800Y-153635000D01*
G75*
G02*
X78082000Y-153408800I226200J0D01*
G01*
X78382000Y-153408800D01*
G75*
G02*
X78608200Y-153635000I0J-226200D01*
G01*
X78608200Y-155385000D01*
G75*
G02*
X78382000Y-155611200I-226200J0D01*
G01*
G37*
G36*
G01*
X79652000Y-155611200D02*
X79352000Y-155611200D01*
G75*
G02*
X79125800Y-155385000I0J226200D01*
G01*
X79125800Y-153635000D01*
G75*
G02*
X79352000Y-153408800I226200J0D01*
G01*
X79652000Y-153408800D01*
G75*
G02*
X79878200Y-153635000I0J-226200D01*
G01*
X79878200Y-155385000D01*
G75*
G02*
X79652000Y-155611200I-226200J0D01*
G01*
G37*
G36*
G01*
X80922000Y-155611200D02*
X80622000Y-155611200D01*
G75*
G02*
X80395800Y-155385000I0J226200D01*
G01*
X80395800Y-153635000D01*
G75*
G02*
X80622000Y-153408800I226200J0D01*
G01*
X80922000Y-153408800D01*
G75*
G02*
X81148200Y-153635000I0J-226200D01*
G01*
X81148200Y-155385000D01*
G75*
G02*
X80922000Y-155611200I-226200J0D01*
G01*
G37*
G36*
G01*
X82192000Y-155611200D02*
X81892000Y-155611200D01*
G75*
G02*
X81665800Y-155385000I0J226200D01*
G01*
X81665800Y-153635000D01*
G75*
G02*
X81892000Y-153408800I226200J0D01*
G01*
X82192000Y-153408800D01*
G75*
G02*
X82418200Y-153635000I0J-226200D01*
G01*
X82418200Y-155385000D01*
G75*
G02*
X82192000Y-155611200I-226200J0D01*
G01*
G37*
G36*
G01*
X83462000Y-155611200D02*
X83162000Y-155611200D01*
G75*
G02*
X82935800Y-155385000I0J226200D01*
G01*
X82935800Y-153635000D01*
G75*
G02*
X83162000Y-153408800I226200J0D01*
G01*
X83462000Y-153408800D01*
G75*
G02*
X83688200Y-153635000I0J-226200D01*
G01*
X83688200Y-155385000D01*
G75*
G02*
X83462000Y-155611200I-226200J0D01*
G01*
G37*
G36*
G01*
X83462000Y-146311200D02*
X83162000Y-146311200D01*
G75*
G02*
X82935800Y-146085000I0J226200D01*
G01*
X82935800Y-144335000D01*
G75*
G02*
X83162000Y-144108800I226200J0D01*
G01*
X83462000Y-144108800D01*
G75*
G02*
X83688200Y-144335000I0J-226200D01*
G01*
X83688200Y-146085000D01*
G75*
G02*
X83462000Y-146311200I-226200J0D01*
G01*
G37*
G36*
G01*
X82192000Y-146311200D02*
X81892000Y-146311200D01*
G75*
G02*
X81665800Y-146085000I0J226200D01*
G01*
X81665800Y-144335000D01*
G75*
G02*
X81892000Y-144108800I226200J0D01*
G01*
X82192000Y-144108800D01*
G75*
G02*
X82418200Y-144335000I0J-226200D01*
G01*
X82418200Y-146085000D01*
G75*
G02*
X82192000Y-146311200I-226200J0D01*
G01*
G37*
G36*
G01*
X80922000Y-146311200D02*
X80622000Y-146311200D01*
G75*
G02*
X80395800Y-146085000I0J226200D01*
G01*
X80395800Y-144335000D01*
G75*
G02*
X80622000Y-144108800I226200J0D01*
G01*
X80922000Y-144108800D01*
G75*
G02*
X81148200Y-144335000I0J-226200D01*
G01*
X81148200Y-146085000D01*
G75*
G02*
X80922000Y-146311200I-226200J0D01*
G01*
G37*
G36*
G01*
X79652000Y-146311200D02*
X79352000Y-146311200D01*
G75*
G02*
X79125800Y-146085000I0J226200D01*
G01*
X79125800Y-144335000D01*
G75*
G02*
X79352000Y-144108800I226200J0D01*
G01*
X79652000Y-144108800D01*
G75*
G02*
X79878200Y-144335000I0J-226200D01*
G01*
X79878200Y-146085000D01*
G75*
G02*
X79652000Y-146311200I-226200J0D01*
G01*
G37*
G36*
G01*
X78382000Y-146311200D02*
X78082000Y-146311200D01*
G75*
G02*
X77855800Y-146085000I0J226200D01*
G01*
X77855800Y-144335000D01*
G75*
G02*
X78082000Y-144108800I226200J0D01*
G01*
X78382000Y-144108800D01*
G75*
G02*
X78608200Y-144335000I0J-226200D01*
G01*
X78608200Y-146085000D01*
G75*
G02*
X78382000Y-146311200I-226200J0D01*
G01*
G37*
G36*
G01*
X77112000Y-146311200D02*
X76812000Y-146311200D01*
G75*
G02*
X76585800Y-146085000I0J226200D01*
G01*
X76585800Y-144335000D01*
G75*
G02*
X76812000Y-144108800I226200J0D01*
G01*
X77112000Y-144108800D01*
G75*
G02*
X77338200Y-144335000I0J-226200D01*
G01*
X77338200Y-146085000D01*
G75*
G02*
X77112000Y-146311200I-226200J0D01*
G01*
G37*
G36*
G01*
X75842000Y-146311200D02*
X75542000Y-146311200D01*
G75*
G02*
X75315800Y-146085000I0J226200D01*
G01*
X75315800Y-144335000D01*
G75*
G02*
X75542000Y-144108800I226200J0D01*
G01*
X75842000Y-144108800D01*
G75*
G02*
X76068200Y-144335000I0J-226200D01*
G01*
X76068200Y-146085000D01*
G75*
G02*
X75842000Y-146311200I-226200J0D01*
G01*
G37*
G36*
G01*
X74572000Y-146311200D02*
X74272000Y-146311200D01*
G75*
G02*
X74045800Y-146085000I0J226200D01*
G01*
X74045800Y-144335000D01*
G75*
G02*
X74272000Y-144108800I226200J0D01*
G01*
X74572000Y-144108800D01*
G75*
G02*
X74798200Y-144335000I0J-226200D01*
G01*
X74798200Y-146085000D01*
G75*
G02*
X74572000Y-146311200I-226200J0D01*
G01*
G37*
G36*
G01*
X73302000Y-146311200D02*
X73002000Y-146311200D01*
G75*
G02*
X72775800Y-146085000I0J226200D01*
G01*
X72775800Y-144335000D01*
G75*
G02*
X73002000Y-144108800I226200J0D01*
G01*
X73302000Y-144108800D01*
G75*
G02*
X73528200Y-144335000I0J-226200D01*
G01*
X73528200Y-146085000D01*
G75*
G02*
X73302000Y-146311200I-226200J0D01*
G01*
G37*
G36*
G01*
X72032000Y-146311200D02*
X71732000Y-146311200D01*
G75*
G02*
X71505800Y-146085000I0J226200D01*
G01*
X71505800Y-144335000D01*
G75*
G02*
X71732000Y-144108800I226200J0D01*
G01*
X72032000Y-144108800D01*
G75*
G02*
X72258200Y-144335000I0J-226200D01*
G01*
X72258200Y-146085000D01*
G75*
G02*
X72032000Y-146311200I-226200J0D01*
G01*
G37*
G36*
G01*
X76070800Y-157828000D02*
X76070800Y-156878000D01*
G75*
G02*
X76397000Y-156551800I326200J0D01*
G01*
X76897000Y-156551800D01*
G75*
G02*
X77223200Y-156878000I0J-326200D01*
G01*
X77223200Y-157828000D01*
G75*
G02*
X76897000Y-158154200I-326200J0D01*
G01*
X76397000Y-158154200D01*
G75*
G02*
X76070800Y-157828000I0J326200D01*
G01*
G37*
G36*
G01*
X77970800Y-157828000D02*
X77970800Y-156878000D01*
G75*
G02*
X78297000Y-156551800I326200J0D01*
G01*
X78797000Y-156551800D01*
G75*
G02*
X79123200Y-156878000I0J-326200D01*
G01*
X79123200Y-157828000D01*
G75*
G02*
X78797000Y-158154200I-326200J0D01*
G01*
X78297000Y-158154200D01*
G75*
G02*
X77970800Y-157828000I0J326200D01*
G01*
G37*
G36*
G01*
X44993000Y-146032800D02*
X46193000Y-146032800D01*
G75*
G02*
X46269200Y-146109000I0J-76200D01*
G01*
X46269200Y-147009000D01*
G75*
G02*
X46193000Y-147085200I-76200J0D01*
G01*
X44993000Y-147085200D01*
G75*
G02*
X44916800Y-147009000I0J76200D01*
G01*
X44916800Y-146109000D01*
G75*
G02*
X44993000Y-146032800I76200J0D01*
G01*
G37*
G36*
G01*
X44993000Y-149332800D02*
X46193000Y-149332800D01*
G75*
G02*
X46269200Y-149409000I0J-76200D01*
G01*
X46269200Y-150309000D01*
G75*
G02*
X46193000Y-150385200I-76200J0D01*
G01*
X44993000Y-150385200D01*
G75*
G02*
X44916800Y-150309000I0J76200D01*
G01*
X44916800Y-149409000D01*
G75*
G02*
X44993000Y-149332800I76200J0D01*
G01*
G37*
G36*
G01*
X64361800Y-174181988D02*
X64361800Y-171881988D01*
G75*
G02*
X64438000Y-171805788I76200J0D01*
G01*
X66738000Y-171805788D01*
G75*
G02*
X66814200Y-171881988I0J-76200D01*
G01*
X66814200Y-174181988D01*
G75*
G02*
X66738000Y-174258188I-76200J0D01*
G01*
X64438000Y-174258188D01*
G75*
G02*
X64361800Y-174181988I0J76200D01*
G01*
G37*
D10*
X69088000Y-173031988D03*
X72588000Y-173031988D03*
G36*
G01*
X41471000Y-139931200D02*
X40571000Y-139931200D01*
G75*
G02*
X40244800Y-139605000I0J326200D01*
G01*
X40244800Y-139080000D01*
G75*
G02*
X40571000Y-138753800I326200J0D01*
G01*
X41471000Y-138753800D01*
G75*
G02*
X41797200Y-139080000I0J-326200D01*
G01*
X41797200Y-139605000D01*
G75*
G02*
X41471000Y-139931200I-326200J0D01*
G01*
G37*
G36*
G01*
X41471000Y-138106200D02*
X40571000Y-138106200D01*
G75*
G02*
X40244800Y-137780000I0J326200D01*
G01*
X40244800Y-137255000D01*
G75*
G02*
X40571000Y-136928800I326200J0D01*
G01*
X41471000Y-136928800D01*
G75*
G02*
X41797200Y-137255000I0J-326200D01*
G01*
X41797200Y-137780000D01*
G75*
G02*
X41471000Y-138106200I-326200J0D01*
G01*
G37*
G36*
G01*
X101323200Y-150426000D02*
X101323200Y-151326000D01*
G75*
G02*
X100997000Y-151652200I-326200J0D01*
G01*
X100472000Y-151652200D01*
G75*
G02*
X100145800Y-151326000I0J326200D01*
G01*
X100145800Y-150426000D01*
G75*
G02*
X100472000Y-150099800I326200J0D01*
G01*
X100997000Y-150099800D01*
G75*
G02*
X101323200Y-150426000I0J-326200D01*
G01*
G37*
G36*
G01*
X99498200Y-150426000D02*
X99498200Y-151326000D01*
G75*
G02*
X99172000Y-151652200I-326200J0D01*
G01*
X98647000Y-151652200D01*
G75*
G02*
X98320800Y-151326000I0J326200D01*
G01*
X98320800Y-150426000D01*
G75*
G02*
X98647000Y-150099800I326200J0D01*
G01*
X99172000Y-150099800D01*
G75*
G02*
X99498200Y-150426000I0J-326200D01*
G01*
G37*
G36*
G01*
X91285807Y-174181988D02*
X91285807Y-171881988D01*
G75*
G02*
X91362007Y-171805788I76200J0D01*
G01*
X93662007Y-171805788D01*
G75*
G02*
X93738207Y-171881988I0J-76200D01*
G01*
X93738207Y-174181988D01*
G75*
G02*
X93662007Y-174258188I-76200J0D01*
G01*
X91362007Y-174258188D01*
G75*
G02*
X91285807Y-174181988I0J76200D01*
G01*
G37*
X96012007Y-173031988D03*
X99512007Y-173031988D03*
G36*
G01*
X98427200Y-158529000D02*
X98427200Y-159479000D01*
G75*
G02*
X98101000Y-159805200I-326200J0D01*
G01*
X97601000Y-159805200D01*
G75*
G02*
X97274800Y-159479000I0J326200D01*
G01*
X97274800Y-158529000D01*
G75*
G02*
X97601000Y-158202800I326200J0D01*
G01*
X98101000Y-158202800D01*
G75*
G02*
X98427200Y-158529000I0J-326200D01*
G01*
G37*
G36*
G01*
X96527200Y-158529000D02*
X96527200Y-159479000D01*
G75*
G02*
X96201000Y-159805200I-326200J0D01*
G01*
X95701000Y-159805200D01*
G75*
G02*
X95374800Y-159479000I0J326200D01*
G01*
X95374800Y-158529000D01*
G75*
G02*
X95701000Y-158202800I326200J0D01*
G01*
X96201000Y-158202800D01*
G75*
G02*
X96527200Y-158529000I0J-326200D01*
G01*
G37*
G36*
G01*
X100098800Y-155644000D02*
X100098800Y-154744000D01*
G75*
G02*
X100425000Y-154417800I326200J0D01*
G01*
X100950000Y-154417800D01*
G75*
G02*
X101276200Y-154744000I0J-326200D01*
G01*
X101276200Y-155644000D01*
G75*
G02*
X100950000Y-155970200I-326200J0D01*
G01*
X100425000Y-155970200D01*
G75*
G02*
X100098800Y-155644000I0J326200D01*
G01*
G37*
G36*
G01*
X101923800Y-155644000D02*
X101923800Y-154744000D01*
G75*
G02*
X102250000Y-154417800I326200J0D01*
G01*
X102775000Y-154417800D01*
G75*
G02*
X103101200Y-154744000I0J-326200D01*
G01*
X103101200Y-155644000D01*
G75*
G02*
X102775000Y-155970200I-326200J0D01*
G01*
X102250000Y-155970200D01*
G75*
G02*
X101923800Y-155644000I0J326200D01*
G01*
G37*
G36*
G01*
X109623000Y-157578200D02*
X108373000Y-157578200D01*
G75*
G02*
X108146800Y-157352000I0J226200D01*
G01*
X108146800Y-157052000D01*
G75*
G02*
X108373000Y-156825800I226200J0D01*
G01*
X109623000Y-156825800D01*
G75*
G02*
X109849200Y-157052000I0J-226200D01*
G01*
X109849200Y-157352000D01*
G75*
G02*
X109623000Y-157578200I-226200J0D01*
G01*
G37*
G36*
G01*
X109623000Y-156578200D02*
X108373000Y-156578200D01*
G75*
G02*
X108146800Y-156352000I0J226200D01*
G01*
X108146800Y-156052000D01*
G75*
G02*
X108373000Y-155825800I226200J0D01*
G01*
X109623000Y-155825800D01*
G75*
G02*
X109849200Y-156052000I0J-226200D01*
G01*
X109849200Y-156352000D01*
G75*
G02*
X109623000Y-156578200I-226200J0D01*
G01*
G37*
G36*
G01*
X109623000Y-155578200D02*
X108373000Y-155578200D01*
G75*
G02*
X108146800Y-155352000I0J226200D01*
G01*
X108146800Y-155052000D01*
G75*
G02*
X108373000Y-154825800I226200J0D01*
G01*
X109623000Y-154825800D01*
G75*
G02*
X109849200Y-155052000I0J-226200D01*
G01*
X109849200Y-155352000D01*
G75*
G02*
X109623000Y-155578200I-226200J0D01*
G01*
G37*
G36*
G01*
X109623000Y-154578200D02*
X108373000Y-154578200D01*
G75*
G02*
X108146800Y-154352000I0J226200D01*
G01*
X108146800Y-154052000D01*
G75*
G02*
X108373000Y-153825800I226200J0D01*
G01*
X109623000Y-153825800D01*
G75*
G02*
X109849200Y-154052000I0J-226200D01*
G01*
X109849200Y-154352000D01*
G75*
G02*
X109623000Y-154578200I-226200J0D01*
G01*
G37*
G36*
G01*
X113523000Y-153578200D02*
X112223000Y-153578200D01*
G75*
G02*
X111896800Y-153252000I0J326200D01*
G01*
X111896800Y-152552000D01*
G75*
G02*
X112223000Y-152225800I326200J0D01*
G01*
X113523000Y-152225800D01*
G75*
G02*
X113849200Y-152552000I0J-326200D01*
G01*
X113849200Y-153252000D01*
G75*
G02*
X113523000Y-153578200I-326200J0D01*
G01*
G37*
G36*
G01*
X113523000Y-159178200D02*
X112223000Y-159178200D01*
G75*
G02*
X111896800Y-158852000I0J326200D01*
G01*
X111896800Y-158152000D01*
G75*
G02*
X112223000Y-157825800I326200J0D01*
G01*
X113523000Y-157825800D01*
G75*
G02*
X113849200Y-158152000I0J-326200D01*
G01*
X113849200Y-158852000D01*
G75*
G02*
X113523000Y-159178200I-326200J0D01*
G01*
G37*
G36*
G01*
X46908000Y-142838200D02*
X46358000Y-142838200D01*
G75*
G02*
X46281800Y-142762000I0J76200D01*
G01*
X46281800Y-141462000D01*
G75*
G02*
X46358000Y-141385800I76200J0D01*
G01*
X46908000Y-141385800D01*
G75*
G02*
X46984200Y-141462000I0J-76200D01*
G01*
X46984200Y-142762000D01*
G75*
G02*
X46908000Y-142838200I-76200J0D01*
G01*
G37*
G36*
X47149627Y-138113020D02*
G01*
X47194768Y-138086958D01*
X47208000Y-138085800D01*
X49058000Y-138085800D01*
X49106980Y-138103627D01*
X49133042Y-138148768D01*
X49134200Y-138162000D01*
X49134200Y-140762000D01*
X49116373Y-140810980D01*
X49111882Y-140815882D01*
X48609200Y-141318564D01*
X48609200Y-142762000D01*
X48591373Y-142810980D01*
X48546232Y-142837042D01*
X48533000Y-142838200D01*
X47733000Y-142838200D01*
X47684020Y-142820373D01*
X47657958Y-142775232D01*
X47656800Y-142762000D01*
X47656800Y-141318564D01*
X47154118Y-140815882D01*
X47132090Y-140768641D01*
X47131800Y-140762000D01*
X47131800Y-138162000D01*
X47149627Y-138113020D01*
G37*
G36*
G01*
X49908000Y-142838200D02*
X49358000Y-142838200D01*
G75*
G02*
X49281800Y-142762000I0J76200D01*
G01*
X49281800Y-141462000D01*
G75*
G02*
X49358000Y-141385800I76200J0D01*
G01*
X49908000Y-141385800D01*
G75*
G02*
X49984200Y-141462000I0J-76200D01*
G01*
X49984200Y-142762000D01*
G75*
G02*
X49908000Y-142838200I-76200J0D01*
G01*
G37*
G36*
G01*
X101323200Y-144330000D02*
X101323200Y-145230000D01*
G75*
G02*
X100997000Y-145556200I-326200J0D01*
G01*
X100472000Y-145556200D01*
G75*
G02*
X100145800Y-145230000I0J326200D01*
G01*
X100145800Y-144330000D01*
G75*
G02*
X100472000Y-144003800I326200J0D01*
G01*
X100997000Y-144003800D01*
G75*
G02*
X101323200Y-144330000I0J-326200D01*
G01*
G37*
G36*
G01*
X99498200Y-144330000D02*
X99498200Y-145230000D01*
G75*
G02*
X99172000Y-145556200I-326200J0D01*
G01*
X98647000Y-145556200D01*
G75*
G02*
X98320800Y-145230000I0J326200D01*
G01*
X98320800Y-144330000D01*
G75*
G02*
X98647000Y-144003800I326200J0D01*
G01*
X99172000Y-144003800D01*
G75*
G02*
X99498200Y-144330000I0J-326200D01*
G01*
G37*
G36*
G01*
X93166250Y-149202200D02*
X92253750Y-149202200D01*
G75*
G02*
X91933800Y-148882250I0J319950D01*
G01*
X91933800Y-148394750D01*
G75*
G02*
X92253750Y-148074800I319950J0D01*
G01*
X93166250Y-148074800D01*
G75*
G02*
X93486200Y-148394750I0J-319950D01*
G01*
X93486200Y-148882250D01*
G75*
G02*
X93166250Y-149202200I-319950J0D01*
G01*
G37*
G36*
G01*
X93166250Y-147327200D02*
X92253750Y-147327200D01*
G75*
G02*
X91933800Y-147007250I0J319950D01*
G01*
X91933800Y-146519750D01*
G75*
G02*
X92253750Y-146199800I319950J0D01*
G01*
X93166250Y-146199800D01*
G75*
G02*
X93486200Y-146519750I0J-319950D01*
G01*
X93486200Y-147007250D01*
G75*
G02*
X93166250Y-147327200I-319950J0D01*
G01*
G37*
G36*
X67843980Y-158449627D02*
G01*
X67870042Y-158494768D01*
X67871200Y-158508000D01*
X67871200Y-160008000D01*
X67853373Y-160056980D01*
X67808232Y-160083042D01*
X67795000Y-160084200D01*
X67295000Y-160084200D01*
X67280666Y-160078983D01*
X67213663Y-160077755D01*
X67192336Y-160074301D01*
X67057021Y-160032026D01*
X67037520Y-160022725D01*
X66919510Y-159944170D01*
X66903404Y-159929769D01*
X66812184Y-159821250D01*
X66800767Y-159802908D01*
X66743672Y-159673149D01*
X66737862Y-159652340D01*
X66720940Y-159522932D01*
X66719958Y-159521232D01*
X66718800Y-159508000D01*
X66718800Y-159008000D01*
X66719552Y-159005934D01*
X66719744Y-158990167D01*
X66741555Y-158850090D01*
X66747872Y-158829430D01*
X66808120Y-158701105D01*
X66819982Y-158683047D01*
X66913826Y-158576789D01*
X66930279Y-158562787D01*
X67050174Y-158487139D01*
X67069895Y-158478317D01*
X67206202Y-158439360D01*
X67227608Y-158436427D01*
X67275255Y-158436718D01*
X67281768Y-158432958D01*
X67295000Y-158431800D01*
X67795000Y-158431800D01*
X67843980Y-158449627D01*
G37*
G36*
X68609081Y-158436925D02*
G01*
X68669370Y-158437293D01*
X68690738Y-158440487D01*
X68826559Y-158481106D01*
X68846172Y-158490168D01*
X68965134Y-158567275D01*
X68981415Y-158581478D01*
X69073953Y-158688875D01*
X69085592Y-158707076D01*
X69144269Y-158836128D01*
X69150333Y-158856865D01*
X69170430Y-158997198D01*
X69171200Y-159008000D01*
X69171200Y-159508000D01*
X69171194Y-159508929D01*
X69171045Y-159521145D01*
X69169995Y-159532858D01*
X69146475Y-159672659D01*
X69139906Y-159693242D01*
X69078094Y-159820821D01*
X69066013Y-159838732D01*
X68970878Y-159943836D01*
X68954255Y-159957637D01*
X68833445Y-160031814D01*
X68813617Y-160040394D01*
X68676844Y-160077683D01*
X68655404Y-160080353D01*
X68614198Y-160079598D01*
X68608232Y-160083042D01*
X68595000Y-160084200D01*
X68095000Y-160084200D01*
X68046020Y-160066373D01*
X68019958Y-160021232D01*
X68018800Y-160008000D01*
X68018800Y-158508000D01*
X68036627Y-158459020D01*
X68081768Y-158432958D01*
X68095000Y-158431800D01*
X68595000Y-158431800D01*
X68609081Y-158436925D01*
G37*
X79050007Y-173031988D03*
X82550007Y-173031988D03*
X86050007Y-173031988D03*
G36*
G01*
X45971800Y-136238000D02*
X45971800Y-135288000D01*
G75*
G02*
X46298000Y-134961800I326200J0D01*
G01*
X46798000Y-134961800D01*
G75*
G02*
X47124200Y-135288000I0J-326200D01*
G01*
X47124200Y-136238000D01*
G75*
G02*
X46798000Y-136564200I-326200J0D01*
G01*
X46298000Y-136564200D01*
G75*
G02*
X45971800Y-136238000I0J326200D01*
G01*
G37*
G36*
G01*
X47871800Y-136238000D02*
X47871800Y-135288000D01*
G75*
G02*
X48198000Y-134961800I326200J0D01*
G01*
X48698000Y-134961800D01*
G75*
G02*
X49024200Y-135288000I0J-326200D01*
G01*
X49024200Y-136238000D01*
G75*
G02*
X48698000Y-136564200I-326200J0D01*
G01*
X48198000Y-136564200D01*
G75*
G02*
X47871800Y-136238000I0J326200D01*
G01*
G37*
M02*
