G04 #@! TF.GenerationSoftware,KiCad,Pcbnew,6.0.2+dfsg-1*
G04 #@! TF.CreationDate,2024-04-05T20:37:34-06:00*
G04 #@! TF.ProjectId,ckt-iiab,636b742d-6969-4616-922e-6b696361645f,rev?*
G04 #@! TF.SameCoordinates,Original*
G04 #@! TF.FileFunction,Paste,Top*
G04 #@! TF.FilePolarity,Positive*
%FSLAX46Y46*%
G04 Gerber Fmt 4.6, Leading zero omitted, Abs format (unit mm)*
G04 Created by KiCad (PCBNEW 6.0.2+dfsg-1) date 2024-04-05 20:37:34*
%MOMM*%
%LPD*%
G01*
G04 APERTURE LIST*
%ADD10R,1.200000X0.900000*%
%ADD11R,0.900000X1.200000*%
%ADD12R,1.120000X2.160000*%
%ADD13R,0.550000X1.300000*%
G04 APERTURE END LIST*
G36*
G01*
X64229000Y-142400000D02*
X63279000Y-142400000D01*
G75*
G02*
X63029000Y-142150000I0J250000D01*
G01*
X63029000Y-141650000D01*
G75*
G02*
X63279000Y-141400000I250000J0D01*
G01*
X64229000Y-141400000D01*
G75*
G02*
X64479000Y-141650000I0J-250000D01*
G01*
X64479000Y-142150000D01*
G75*
G02*
X64229000Y-142400000I-250000J0D01*
G01*
G37*
G36*
G01*
X64229000Y-140500000D02*
X63279000Y-140500000D01*
G75*
G02*
X63029000Y-140250000I0J250000D01*
G01*
X63029000Y-139750000D01*
G75*
G02*
X63279000Y-139500000I250000J0D01*
G01*
X64229000Y-139500000D01*
G75*
G02*
X64479000Y-139750000I0J-250000D01*
G01*
X64479000Y-140250000D01*
G75*
G02*
X64229000Y-140500000I-250000J0D01*
G01*
G37*
G36*
G01*
X86713000Y-145484000D02*
X86713000Y-144584000D01*
G75*
G02*
X86963000Y-144334000I250000J0D01*
G01*
X87488000Y-144334000D01*
G75*
G02*
X87738000Y-144584000I0J-250000D01*
G01*
X87738000Y-145484000D01*
G75*
G02*
X87488000Y-145734000I-250000J0D01*
G01*
X86963000Y-145734000D01*
G75*
G02*
X86713000Y-145484000I0J250000D01*
G01*
G37*
G36*
G01*
X88538000Y-145484000D02*
X88538000Y-144584000D01*
G75*
G02*
X88788000Y-144334000I250000J0D01*
G01*
X89313000Y-144334000D01*
G75*
G02*
X89563000Y-144584000I0J-250000D01*
G01*
X89563000Y-145484000D01*
G75*
G02*
X89313000Y-145734000I-250000J0D01*
G01*
X88788000Y-145734000D01*
G75*
G02*
X88538000Y-145484000I0J250000D01*
G01*
G37*
G36*
G01*
X109623000Y-146580000D02*
X108373000Y-146580000D01*
G75*
G02*
X108223000Y-146430000I0J150000D01*
G01*
X108223000Y-146130000D01*
G75*
G02*
X108373000Y-145980000I150000J0D01*
G01*
X109623000Y-145980000D01*
G75*
G02*
X109773000Y-146130000I0J-150000D01*
G01*
X109773000Y-146430000D01*
G75*
G02*
X109623000Y-146580000I-150000J0D01*
G01*
G37*
G36*
G01*
X109623000Y-145580000D02*
X108373000Y-145580000D01*
G75*
G02*
X108223000Y-145430000I0J150000D01*
G01*
X108223000Y-145130000D01*
G75*
G02*
X108373000Y-144980000I150000J0D01*
G01*
X109623000Y-144980000D01*
G75*
G02*
X109773000Y-145130000I0J-150000D01*
G01*
X109773000Y-145430000D01*
G75*
G02*
X109623000Y-145580000I-150000J0D01*
G01*
G37*
G36*
G01*
X109623000Y-144580000D02*
X108373000Y-144580000D01*
G75*
G02*
X108223000Y-144430000I0J150000D01*
G01*
X108223000Y-144130000D01*
G75*
G02*
X108373000Y-143980000I150000J0D01*
G01*
X109623000Y-143980000D01*
G75*
G02*
X109773000Y-144130000I0J-150000D01*
G01*
X109773000Y-144430000D01*
G75*
G02*
X109623000Y-144580000I-150000J0D01*
G01*
G37*
G36*
G01*
X109623000Y-143580000D02*
X108373000Y-143580000D01*
G75*
G02*
X108223000Y-143430000I0J150000D01*
G01*
X108223000Y-143130000D01*
G75*
G02*
X108373000Y-142980000I150000J0D01*
G01*
X109623000Y-142980000D01*
G75*
G02*
X109773000Y-143130000I0J-150000D01*
G01*
X109773000Y-143430000D01*
G75*
G02*
X109623000Y-143580000I-150000J0D01*
G01*
G37*
G36*
G01*
X113523000Y-142580000D02*
X112223000Y-142580000D01*
G75*
G02*
X111973000Y-142330000I0J250000D01*
G01*
X111973000Y-141630000D01*
G75*
G02*
X112223000Y-141380000I250000J0D01*
G01*
X113523000Y-141380000D01*
G75*
G02*
X113773000Y-141630000I0J-250000D01*
G01*
X113773000Y-142330000D01*
G75*
G02*
X113523000Y-142580000I-250000J0D01*
G01*
G37*
G36*
G01*
X113523000Y-148180000D02*
X112223000Y-148180000D01*
G75*
G02*
X111973000Y-147930000I0J250000D01*
G01*
X111973000Y-147230000D01*
G75*
G02*
X112223000Y-146980000I250000J0D01*
G01*
X113523000Y-146980000D01*
G75*
G02*
X113773000Y-147230000I0J-250000D01*
G01*
X113773000Y-147930000D01*
G75*
G02*
X113523000Y-148180000I-250000J0D01*
G01*
G37*
G36*
G01*
X66520000Y-163137000D02*
X66520000Y-162237000D01*
G75*
G02*
X66770000Y-161987000I250000J0D01*
G01*
X67295000Y-161987000D01*
G75*
G02*
X67545000Y-162237000I0J-250000D01*
G01*
X67545000Y-163137000D01*
G75*
G02*
X67295000Y-163387000I-250000J0D01*
G01*
X66770000Y-163387000D01*
G75*
G02*
X66520000Y-163137000I0J250000D01*
G01*
G37*
G36*
G01*
X68345000Y-163137000D02*
X68345000Y-162237000D01*
G75*
G02*
X68595000Y-161987000I250000J0D01*
G01*
X69120000Y-161987000D01*
G75*
G02*
X69370000Y-162237000I0J-250000D01*
G01*
X69370000Y-163137000D01*
G75*
G02*
X69120000Y-163387000I-250000J0D01*
G01*
X68595000Y-163387000D01*
G75*
G02*
X68345000Y-163137000I0J250000D01*
G01*
G37*
G36*
G01*
X98351000Y-154719000D02*
X98351000Y-155669000D01*
G75*
G02*
X98101000Y-155919000I-250000J0D01*
G01*
X97601000Y-155919000D01*
G75*
G02*
X97351000Y-155669000I0J250000D01*
G01*
X97351000Y-154719000D01*
G75*
G02*
X97601000Y-154469000I250000J0D01*
G01*
X98101000Y-154469000D01*
G75*
G02*
X98351000Y-154719000I0J-250000D01*
G01*
G37*
G36*
G01*
X96451000Y-154719000D02*
X96451000Y-155669000D01*
G75*
G02*
X96201000Y-155919000I-250000J0D01*
G01*
X95701000Y-155919000D01*
G75*
G02*
X95451000Y-155669000I0J250000D01*
G01*
X95451000Y-154719000D01*
G75*
G02*
X95701000Y-154469000I250000J0D01*
G01*
X96201000Y-154469000D01*
G75*
G02*
X96451000Y-154719000I0J-250000D01*
G01*
G37*
G36*
G01*
X67252000Y-142395000D02*
X66352000Y-142395000D01*
G75*
G02*
X66102000Y-142145000I0J250000D01*
G01*
X66102000Y-141620000D01*
G75*
G02*
X66352000Y-141370000I250000J0D01*
G01*
X67252000Y-141370000D01*
G75*
G02*
X67502000Y-141620000I0J-250000D01*
G01*
X67502000Y-142145000D01*
G75*
G02*
X67252000Y-142395000I-250000J0D01*
G01*
G37*
G36*
G01*
X67252000Y-140570000D02*
X66352000Y-140570000D01*
G75*
G02*
X66102000Y-140320000I0J250000D01*
G01*
X66102000Y-139795000D01*
G75*
G02*
X66352000Y-139545000I250000J0D01*
G01*
X67252000Y-139545000D01*
G75*
G02*
X67502000Y-139795000I0J-250000D01*
G01*
X67502000Y-140320000D01*
G75*
G02*
X67252000Y-140570000I-250000J0D01*
G01*
G37*
G36*
G01*
X100151500Y-159454000D02*
X100151500Y-158554000D01*
G75*
G02*
X100401500Y-158304000I250000J0D01*
G01*
X100926500Y-158304000D01*
G75*
G02*
X101176500Y-158554000I0J-250000D01*
G01*
X101176500Y-159454000D01*
G75*
G02*
X100926500Y-159704000I-250000J0D01*
G01*
X100401500Y-159704000D01*
G75*
G02*
X100151500Y-159454000I0J250000D01*
G01*
G37*
G36*
G01*
X101976500Y-159454000D02*
X101976500Y-158554000D01*
G75*
G02*
X102226500Y-158304000I250000J0D01*
G01*
X102751500Y-158304000D01*
G75*
G02*
X103001500Y-158554000I0J-250000D01*
G01*
X103001500Y-159454000D01*
G75*
G02*
X102751500Y-159704000I-250000J0D01*
G01*
X102226500Y-159704000D01*
G75*
G02*
X101976500Y-159454000I0J250000D01*
G01*
G37*
G36*
G01*
X58392000Y-163137000D02*
X58392000Y-162237000D01*
G75*
G02*
X58642000Y-161987000I250000J0D01*
G01*
X59167000Y-161987000D01*
G75*
G02*
X59417000Y-162237000I0J-250000D01*
G01*
X59417000Y-163137000D01*
G75*
G02*
X59167000Y-163387000I-250000J0D01*
G01*
X58642000Y-163387000D01*
G75*
G02*
X58392000Y-163137000I0J250000D01*
G01*
G37*
G36*
G01*
X60217000Y-163137000D02*
X60217000Y-162237000D01*
G75*
G02*
X60467000Y-161987000I250000J0D01*
G01*
X60992000Y-161987000D01*
G75*
G02*
X61242000Y-162237000I0J-250000D01*
G01*
X61242000Y-163137000D01*
G75*
G02*
X60992000Y-163387000I-250000J0D01*
G01*
X60467000Y-163387000D01*
G75*
G02*
X60217000Y-163137000I0J250000D01*
G01*
G37*
D10*
X48641000Y-146559000D03*
X48641000Y-149859000D03*
G36*
G01*
X79047000Y-141638000D02*
X79047000Y-142588000D01*
G75*
G02*
X78797000Y-142838000I-250000J0D01*
G01*
X78297000Y-142838000D01*
G75*
G02*
X78047000Y-142588000I0J250000D01*
G01*
X78047000Y-141638000D01*
G75*
G02*
X78297000Y-141388000I250000J0D01*
G01*
X78797000Y-141388000D01*
G75*
G02*
X79047000Y-141638000I0J-250000D01*
G01*
G37*
G36*
G01*
X77147000Y-141638000D02*
X77147000Y-142588000D01*
G75*
G02*
X76897000Y-142838000I-250000J0D01*
G01*
X76397000Y-142838000D01*
G75*
G02*
X76147000Y-142588000I0J250000D01*
G01*
X76147000Y-141638000D01*
G75*
G02*
X76397000Y-141388000I250000J0D01*
G01*
X76897000Y-141388000D01*
G75*
G02*
X77147000Y-141638000I0J-250000D01*
G01*
G37*
G36*
G01*
X55838000Y-137536000D02*
X56938000Y-137536000D01*
G75*
G02*
X57188000Y-137786000I0J-250000D01*
G01*
X57188000Y-140786000D01*
G75*
G02*
X56938000Y-141036000I-250000J0D01*
G01*
X55838000Y-141036000D01*
G75*
G02*
X55588000Y-140786000I0J250000D01*
G01*
X55588000Y-137786000D01*
G75*
G02*
X55838000Y-137536000I250000J0D01*
G01*
G37*
G36*
G01*
X55838000Y-142936000D02*
X56938000Y-142936000D01*
G75*
G02*
X57188000Y-143186000I0J-250000D01*
G01*
X57188000Y-146186000D01*
G75*
G02*
X56938000Y-146436000I-250000J0D01*
G01*
X55838000Y-146436000D01*
G75*
G02*
X55588000Y-146186000I0J250000D01*
G01*
X55588000Y-143186000D01*
G75*
G02*
X55838000Y-142936000I250000J0D01*
G01*
G37*
G36*
G01*
X109590996Y-168448003D02*
X108340996Y-168448003D01*
G75*
G02*
X108190996Y-168298003I0J150000D01*
G01*
X108190996Y-167998003D01*
G75*
G02*
X108340996Y-167848003I150000J0D01*
G01*
X109590996Y-167848003D01*
G75*
G02*
X109740996Y-167998003I0J-150000D01*
G01*
X109740996Y-168298003D01*
G75*
G02*
X109590996Y-168448003I-150000J0D01*
G01*
G37*
G36*
G01*
X109590996Y-167448003D02*
X108340996Y-167448003D01*
G75*
G02*
X108190996Y-167298003I0J150000D01*
G01*
X108190996Y-166998003D01*
G75*
G02*
X108340996Y-166848003I150000J0D01*
G01*
X109590996Y-166848003D01*
G75*
G02*
X109740996Y-166998003I0J-150000D01*
G01*
X109740996Y-167298003D01*
G75*
G02*
X109590996Y-167448003I-150000J0D01*
G01*
G37*
G36*
G01*
X109590996Y-166448003D02*
X108340996Y-166448003D01*
G75*
G02*
X108190996Y-166298003I0J150000D01*
G01*
X108190996Y-165998003D01*
G75*
G02*
X108340996Y-165848003I150000J0D01*
G01*
X109590996Y-165848003D01*
G75*
G02*
X109740996Y-165998003I0J-150000D01*
G01*
X109740996Y-166298003D01*
G75*
G02*
X109590996Y-166448003I-150000J0D01*
G01*
G37*
G36*
G01*
X109590996Y-165448003D02*
X108340996Y-165448003D01*
G75*
G02*
X108190996Y-165298003I0J150000D01*
G01*
X108190996Y-164998003D01*
G75*
G02*
X108340996Y-164848003I150000J0D01*
G01*
X109590996Y-164848003D01*
G75*
G02*
X109740996Y-164998003I0J-150000D01*
G01*
X109740996Y-165298003D01*
G75*
G02*
X109590996Y-165448003I-150000J0D01*
G01*
G37*
G36*
G01*
X113490996Y-170048003D02*
X112190996Y-170048003D01*
G75*
G02*
X111940996Y-169798003I0J250000D01*
G01*
X111940996Y-169098003D01*
G75*
G02*
X112190996Y-168848003I250000J0D01*
G01*
X113490996Y-168848003D01*
G75*
G02*
X113740996Y-169098003I0J-250000D01*
G01*
X113740996Y-169798003D01*
G75*
G02*
X113490996Y-170048003I-250000J0D01*
G01*
G37*
G36*
G01*
X113490996Y-164448003D02*
X112190996Y-164448003D01*
G75*
G02*
X111940996Y-164198003I0J250000D01*
G01*
X111940996Y-163498003D01*
G75*
G02*
X112190996Y-163248003I250000J0D01*
G01*
X113490996Y-163248003D01*
G75*
G02*
X113740996Y-163498003I0J-250000D01*
G01*
X113740996Y-164198003D01*
G75*
G02*
X113490996Y-164448003I-250000J0D01*
G01*
G37*
G36*
G01*
X100175000Y-163264000D02*
X100175000Y-162364000D01*
G75*
G02*
X100425000Y-162114000I250000J0D01*
G01*
X100950000Y-162114000D01*
G75*
G02*
X101200000Y-162364000I0J-250000D01*
G01*
X101200000Y-163264000D01*
G75*
G02*
X100950000Y-163514000I-250000J0D01*
G01*
X100425000Y-163514000D01*
G75*
G02*
X100175000Y-163264000I0J250000D01*
G01*
G37*
G36*
G01*
X102000000Y-163264000D02*
X102000000Y-162364000D01*
G75*
G02*
X102250000Y-162114000I250000J0D01*
G01*
X102775000Y-162114000D01*
G75*
G02*
X103025000Y-162364000I0J-250000D01*
G01*
X103025000Y-163264000D01*
G75*
G02*
X102775000Y-163514000I-250000J0D01*
G01*
X102250000Y-163514000D01*
G75*
G02*
X102000000Y-163264000I0J250000D01*
G01*
G37*
G36*
G01*
X54328000Y-163137000D02*
X54328000Y-162237000D01*
G75*
G02*
X54578000Y-161987000I250000J0D01*
G01*
X55103000Y-161987000D01*
G75*
G02*
X55353000Y-162237000I0J-250000D01*
G01*
X55353000Y-163137000D01*
G75*
G02*
X55103000Y-163387000I-250000J0D01*
G01*
X54578000Y-163387000D01*
G75*
G02*
X54328000Y-163137000I0J250000D01*
G01*
G37*
G36*
G01*
X56153000Y-163137000D02*
X56153000Y-162237000D01*
G75*
G02*
X56403000Y-161987000I250000J0D01*
G01*
X56928000Y-161987000D01*
G75*
G02*
X57178000Y-162237000I0J-250000D01*
G01*
X57178000Y-163137000D01*
G75*
G02*
X56928000Y-163387000I-250000J0D01*
G01*
X56403000Y-163387000D01*
G75*
G02*
X56153000Y-163137000I0J250000D01*
G01*
G37*
D11*
X53087000Y-154305000D03*
X56387000Y-154305000D03*
X53087000Y-151130000D03*
X56387000Y-151130000D03*
D12*
X100203000Y-130620000D03*
X97663000Y-130620000D03*
X95123000Y-130620000D03*
X92583000Y-130620000D03*
X90043000Y-130620000D03*
X87503000Y-130620000D03*
X84963000Y-130620000D03*
X82423000Y-130620000D03*
X82423000Y-137350000D03*
X84963000Y-137350000D03*
X87503000Y-137350000D03*
X90043000Y-137350000D03*
X92583000Y-137350000D03*
X95123000Y-137350000D03*
X97663000Y-137350000D03*
X100203000Y-137350000D03*
G36*
G01*
X98351000Y-162339000D02*
X98351000Y-163289000D01*
G75*
G02*
X98101000Y-163539000I-250000J0D01*
G01*
X97601000Y-163539000D01*
G75*
G02*
X97351000Y-163289000I0J250000D01*
G01*
X97351000Y-162339000D01*
G75*
G02*
X97601000Y-162089000I250000J0D01*
G01*
X98101000Y-162089000D01*
G75*
G02*
X98351000Y-162339000I0J-250000D01*
G01*
G37*
G36*
G01*
X96451000Y-162339000D02*
X96451000Y-163289000D01*
G75*
G02*
X96201000Y-163539000I-250000J0D01*
G01*
X95701000Y-163539000D01*
G75*
G02*
X95451000Y-163289000I0J250000D01*
G01*
X95451000Y-162339000D01*
G75*
G02*
X95701000Y-162089000I250000J0D01*
G01*
X96201000Y-162089000D01*
G75*
G02*
X96451000Y-162339000I0J-250000D01*
G01*
G37*
G36*
G01*
X41477250Y-144094500D02*
X40564750Y-144094500D01*
G75*
G02*
X40321000Y-143850750I0J243750D01*
G01*
X40321000Y-143363250D01*
G75*
G02*
X40564750Y-143119500I243750J0D01*
G01*
X41477250Y-143119500D01*
G75*
G02*
X41721000Y-143363250I0J-243750D01*
G01*
X41721000Y-143850750D01*
G75*
G02*
X41477250Y-144094500I-243750J0D01*
G01*
G37*
G36*
G01*
X41477250Y-142219500D02*
X40564750Y-142219500D01*
G75*
G02*
X40321000Y-141975750I0J243750D01*
G01*
X40321000Y-141488250D01*
G75*
G02*
X40564750Y-141244500I243750J0D01*
G01*
X41477250Y-141244500D01*
G75*
G02*
X41721000Y-141488250I0J-243750D01*
G01*
X41721000Y-141975750D01*
G75*
G02*
X41477250Y-142219500I-243750J0D01*
G01*
G37*
G36*
G01*
X62456000Y-163137000D02*
X62456000Y-162237000D01*
G75*
G02*
X62706000Y-161987000I250000J0D01*
G01*
X63231000Y-161987000D01*
G75*
G02*
X63481000Y-162237000I0J-250000D01*
G01*
X63481000Y-163137000D01*
G75*
G02*
X63231000Y-163387000I-250000J0D01*
G01*
X62706000Y-163387000D01*
G75*
G02*
X62456000Y-163137000I0J250000D01*
G01*
G37*
G36*
G01*
X64281000Y-163137000D02*
X64281000Y-162237000D01*
G75*
G02*
X64531000Y-161987000I250000J0D01*
G01*
X65056000Y-161987000D01*
G75*
G02*
X65306000Y-162237000I0J-250000D01*
G01*
X65306000Y-163137000D01*
G75*
G02*
X65056000Y-163387000I-250000J0D01*
G01*
X64531000Y-163387000D01*
G75*
G02*
X64281000Y-163137000I0J250000D01*
G01*
G37*
G36*
G01*
X101247000Y-147378000D02*
X101247000Y-148278000D01*
G75*
G02*
X100997000Y-148528000I-250000J0D01*
G01*
X100472000Y-148528000D01*
G75*
G02*
X100222000Y-148278000I0J250000D01*
G01*
X100222000Y-147378000D01*
G75*
G02*
X100472000Y-147128000I250000J0D01*
G01*
X100997000Y-147128000D01*
G75*
G02*
X101247000Y-147378000I0J-250000D01*
G01*
G37*
G36*
G01*
X99422000Y-147378000D02*
X99422000Y-148278000D01*
G75*
G02*
X99172000Y-148528000I-250000J0D01*
G01*
X98647000Y-148528000D01*
G75*
G02*
X98397000Y-148278000I0J250000D01*
G01*
X98397000Y-147378000D01*
G75*
G02*
X98647000Y-147128000I250000J0D01*
G01*
X99172000Y-147128000D01*
G75*
G02*
X99422000Y-147378000I0J-250000D01*
G01*
G37*
G36*
G01*
X89563000Y-152204000D02*
X89563000Y-153104000D01*
G75*
G02*
X89313000Y-153354000I-250000J0D01*
G01*
X88788000Y-153354000D01*
G75*
G02*
X88538000Y-153104000I0J250000D01*
G01*
X88538000Y-152204000D01*
G75*
G02*
X88788000Y-151954000I250000J0D01*
G01*
X89313000Y-151954000D01*
G75*
G02*
X89563000Y-152204000I0J-250000D01*
G01*
G37*
G36*
G01*
X87738000Y-152204000D02*
X87738000Y-153104000D01*
G75*
G02*
X87488000Y-153354000I-250000J0D01*
G01*
X86963000Y-153354000D01*
G75*
G02*
X86713000Y-153104000I0J250000D01*
G01*
X86713000Y-152204000D01*
G75*
G02*
X86963000Y-151954000I250000J0D01*
G01*
X87488000Y-151954000D01*
G75*
G02*
X87738000Y-152204000I0J-250000D01*
G01*
G37*
G36*
G01*
X86713000Y-149294000D02*
X86713000Y-148394000D01*
G75*
G02*
X86963000Y-148144000I250000J0D01*
G01*
X87488000Y-148144000D01*
G75*
G02*
X87738000Y-148394000I0J-250000D01*
G01*
X87738000Y-149294000D01*
G75*
G02*
X87488000Y-149544000I-250000J0D01*
G01*
X86963000Y-149544000D01*
G75*
G02*
X86713000Y-149294000I0J250000D01*
G01*
G37*
G36*
G01*
X88538000Y-149294000D02*
X88538000Y-148394000D01*
G75*
G02*
X88788000Y-148144000I250000J0D01*
G01*
X89313000Y-148144000D01*
G75*
G02*
X89563000Y-148394000I0J-250000D01*
G01*
X89563000Y-149294000D01*
G75*
G02*
X89313000Y-149544000I-250000J0D01*
G01*
X88788000Y-149544000D01*
G75*
G02*
X88538000Y-149294000I0J250000D01*
G01*
G37*
G36*
G01*
X72032000Y-155535000D02*
X71732000Y-155535000D01*
G75*
G02*
X71582000Y-155385000I0J150000D01*
G01*
X71582000Y-153635000D01*
G75*
G02*
X71732000Y-153485000I150000J0D01*
G01*
X72032000Y-153485000D01*
G75*
G02*
X72182000Y-153635000I0J-150000D01*
G01*
X72182000Y-155385000D01*
G75*
G02*
X72032000Y-155535000I-150000J0D01*
G01*
G37*
G36*
G01*
X73302000Y-155535000D02*
X73002000Y-155535000D01*
G75*
G02*
X72852000Y-155385000I0J150000D01*
G01*
X72852000Y-153635000D01*
G75*
G02*
X73002000Y-153485000I150000J0D01*
G01*
X73302000Y-153485000D01*
G75*
G02*
X73452000Y-153635000I0J-150000D01*
G01*
X73452000Y-155385000D01*
G75*
G02*
X73302000Y-155535000I-150000J0D01*
G01*
G37*
G36*
G01*
X74572000Y-155535000D02*
X74272000Y-155535000D01*
G75*
G02*
X74122000Y-155385000I0J150000D01*
G01*
X74122000Y-153635000D01*
G75*
G02*
X74272000Y-153485000I150000J0D01*
G01*
X74572000Y-153485000D01*
G75*
G02*
X74722000Y-153635000I0J-150000D01*
G01*
X74722000Y-155385000D01*
G75*
G02*
X74572000Y-155535000I-150000J0D01*
G01*
G37*
G36*
G01*
X75842000Y-155535000D02*
X75542000Y-155535000D01*
G75*
G02*
X75392000Y-155385000I0J150000D01*
G01*
X75392000Y-153635000D01*
G75*
G02*
X75542000Y-153485000I150000J0D01*
G01*
X75842000Y-153485000D01*
G75*
G02*
X75992000Y-153635000I0J-150000D01*
G01*
X75992000Y-155385000D01*
G75*
G02*
X75842000Y-155535000I-150000J0D01*
G01*
G37*
G36*
G01*
X77112000Y-155535000D02*
X76812000Y-155535000D01*
G75*
G02*
X76662000Y-155385000I0J150000D01*
G01*
X76662000Y-153635000D01*
G75*
G02*
X76812000Y-153485000I150000J0D01*
G01*
X77112000Y-153485000D01*
G75*
G02*
X77262000Y-153635000I0J-150000D01*
G01*
X77262000Y-155385000D01*
G75*
G02*
X77112000Y-155535000I-150000J0D01*
G01*
G37*
G36*
G01*
X78382000Y-155535000D02*
X78082000Y-155535000D01*
G75*
G02*
X77932000Y-155385000I0J150000D01*
G01*
X77932000Y-153635000D01*
G75*
G02*
X78082000Y-153485000I150000J0D01*
G01*
X78382000Y-153485000D01*
G75*
G02*
X78532000Y-153635000I0J-150000D01*
G01*
X78532000Y-155385000D01*
G75*
G02*
X78382000Y-155535000I-150000J0D01*
G01*
G37*
G36*
G01*
X79652000Y-155535000D02*
X79352000Y-155535000D01*
G75*
G02*
X79202000Y-155385000I0J150000D01*
G01*
X79202000Y-153635000D01*
G75*
G02*
X79352000Y-153485000I150000J0D01*
G01*
X79652000Y-153485000D01*
G75*
G02*
X79802000Y-153635000I0J-150000D01*
G01*
X79802000Y-155385000D01*
G75*
G02*
X79652000Y-155535000I-150000J0D01*
G01*
G37*
G36*
G01*
X80922000Y-155535000D02*
X80622000Y-155535000D01*
G75*
G02*
X80472000Y-155385000I0J150000D01*
G01*
X80472000Y-153635000D01*
G75*
G02*
X80622000Y-153485000I150000J0D01*
G01*
X80922000Y-153485000D01*
G75*
G02*
X81072000Y-153635000I0J-150000D01*
G01*
X81072000Y-155385000D01*
G75*
G02*
X80922000Y-155535000I-150000J0D01*
G01*
G37*
G36*
G01*
X82192000Y-155535000D02*
X81892000Y-155535000D01*
G75*
G02*
X81742000Y-155385000I0J150000D01*
G01*
X81742000Y-153635000D01*
G75*
G02*
X81892000Y-153485000I150000J0D01*
G01*
X82192000Y-153485000D01*
G75*
G02*
X82342000Y-153635000I0J-150000D01*
G01*
X82342000Y-155385000D01*
G75*
G02*
X82192000Y-155535000I-150000J0D01*
G01*
G37*
G36*
G01*
X83462000Y-155535000D02*
X83162000Y-155535000D01*
G75*
G02*
X83012000Y-155385000I0J150000D01*
G01*
X83012000Y-153635000D01*
G75*
G02*
X83162000Y-153485000I150000J0D01*
G01*
X83462000Y-153485000D01*
G75*
G02*
X83612000Y-153635000I0J-150000D01*
G01*
X83612000Y-155385000D01*
G75*
G02*
X83462000Y-155535000I-150000J0D01*
G01*
G37*
G36*
G01*
X83462000Y-146235000D02*
X83162000Y-146235000D01*
G75*
G02*
X83012000Y-146085000I0J150000D01*
G01*
X83012000Y-144335000D01*
G75*
G02*
X83162000Y-144185000I150000J0D01*
G01*
X83462000Y-144185000D01*
G75*
G02*
X83612000Y-144335000I0J-150000D01*
G01*
X83612000Y-146085000D01*
G75*
G02*
X83462000Y-146235000I-150000J0D01*
G01*
G37*
G36*
G01*
X82192000Y-146235000D02*
X81892000Y-146235000D01*
G75*
G02*
X81742000Y-146085000I0J150000D01*
G01*
X81742000Y-144335000D01*
G75*
G02*
X81892000Y-144185000I150000J0D01*
G01*
X82192000Y-144185000D01*
G75*
G02*
X82342000Y-144335000I0J-150000D01*
G01*
X82342000Y-146085000D01*
G75*
G02*
X82192000Y-146235000I-150000J0D01*
G01*
G37*
G36*
G01*
X80922000Y-146235000D02*
X80622000Y-146235000D01*
G75*
G02*
X80472000Y-146085000I0J150000D01*
G01*
X80472000Y-144335000D01*
G75*
G02*
X80622000Y-144185000I150000J0D01*
G01*
X80922000Y-144185000D01*
G75*
G02*
X81072000Y-144335000I0J-150000D01*
G01*
X81072000Y-146085000D01*
G75*
G02*
X80922000Y-146235000I-150000J0D01*
G01*
G37*
G36*
G01*
X79652000Y-146235000D02*
X79352000Y-146235000D01*
G75*
G02*
X79202000Y-146085000I0J150000D01*
G01*
X79202000Y-144335000D01*
G75*
G02*
X79352000Y-144185000I150000J0D01*
G01*
X79652000Y-144185000D01*
G75*
G02*
X79802000Y-144335000I0J-150000D01*
G01*
X79802000Y-146085000D01*
G75*
G02*
X79652000Y-146235000I-150000J0D01*
G01*
G37*
G36*
G01*
X78382000Y-146235000D02*
X78082000Y-146235000D01*
G75*
G02*
X77932000Y-146085000I0J150000D01*
G01*
X77932000Y-144335000D01*
G75*
G02*
X78082000Y-144185000I150000J0D01*
G01*
X78382000Y-144185000D01*
G75*
G02*
X78532000Y-144335000I0J-150000D01*
G01*
X78532000Y-146085000D01*
G75*
G02*
X78382000Y-146235000I-150000J0D01*
G01*
G37*
G36*
G01*
X77112000Y-146235000D02*
X76812000Y-146235000D01*
G75*
G02*
X76662000Y-146085000I0J150000D01*
G01*
X76662000Y-144335000D01*
G75*
G02*
X76812000Y-144185000I150000J0D01*
G01*
X77112000Y-144185000D01*
G75*
G02*
X77262000Y-144335000I0J-150000D01*
G01*
X77262000Y-146085000D01*
G75*
G02*
X77112000Y-146235000I-150000J0D01*
G01*
G37*
G36*
G01*
X75842000Y-146235000D02*
X75542000Y-146235000D01*
G75*
G02*
X75392000Y-146085000I0J150000D01*
G01*
X75392000Y-144335000D01*
G75*
G02*
X75542000Y-144185000I150000J0D01*
G01*
X75842000Y-144185000D01*
G75*
G02*
X75992000Y-144335000I0J-150000D01*
G01*
X75992000Y-146085000D01*
G75*
G02*
X75842000Y-146235000I-150000J0D01*
G01*
G37*
G36*
G01*
X74572000Y-146235000D02*
X74272000Y-146235000D01*
G75*
G02*
X74122000Y-146085000I0J150000D01*
G01*
X74122000Y-144335000D01*
G75*
G02*
X74272000Y-144185000I150000J0D01*
G01*
X74572000Y-144185000D01*
G75*
G02*
X74722000Y-144335000I0J-150000D01*
G01*
X74722000Y-146085000D01*
G75*
G02*
X74572000Y-146235000I-150000J0D01*
G01*
G37*
G36*
G01*
X73302000Y-146235000D02*
X73002000Y-146235000D01*
G75*
G02*
X72852000Y-146085000I0J150000D01*
G01*
X72852000Y-144335000D01*
G75*
G02*
X73002000Y-144185000I150000J0D01*
G01*
X73302000Y-144185000D01*
G75*
G02*
X73452000Y-144335000I0J-150000D01*
G01*
X73452000Y-146085000D01*
G75*
G02*
X73302000Y-146235000I-150000J0D01*
G01*
G37*
G36*
G01*
X72032000Y-146235000D02*
X71732000Y-146235000D01*
G75*
G02*
X71582000Y-146085000I0J150000D01*
G01*
X71582000Y-144335000D01*
G75*
G02*
X71732000Y-144185000I150000J0D01*
G01*
X72032000Y-144185000D01*
G75*
G02*
X72182000Y-144335000I0J-150000D01*
G01*
X72182000Y-146085000D01*
G75*
G02*
X72032000Y-146235000I-150000J0D01*
G01*
G37*
G36*
G01*
X76147000Y-157828000D02*
X76147000Y-156878000D01*
G75*
G02*
X76397000Y-156628000I250000J0D01*
G01*
X76897000Y-156628000D01*
G75*
G02*
X77147000Y-156878000I0J-250000D01*
G01*
X77147000Y-157828000D01*
G75*
G02*
X76897000Y-158078000I-250000J0D01*
G01*
X76397000Y-158078000D01*
G75*
G02*
X76147000Y-157828000I0J250000D01*
G01*
G37*
G36*
G01*
X78047000Y-157828000D02*
X78047000Y-156878000D01*
G75*
G02*
X78297000Y-156628000I250000J0D01*
G01*
X78797000Y-156628000D01*
G75*
G02*
X79047000Y-156878000I0J-250000D01*
G01*
X79047000Y-157828000D01*
G75*
G02*
X78797000Y-158078000I-250000J0D01*
G01*
X78297000Y-158078000D01*
G75*
G02*
X78047000Y-157828000I0J250000D01*
G01*
G37*
D10*
X45593000Y-146559000D03*
X45593000Y-149859000D03*
G36*
G01*
X41471000Y-139855000D02*
X40571000Y-139855000D01*
G75*
G02*
X40321000Y-139605000I0J250000D01*
G01*
X40321000Y-139080000D01*
G75*
G02*
X40571000Y-138830000I250000J0D01*
G01*
X41471000Y-138830000D01*
G75*
G02*
X41721000Y-139080000I0J-250000D01*
G01*
X41721000Y-139605000D01*
G75*
G02*
X41471000Y-139855000I-250000J0D01*
G01*
G37*
G36*
G01*
X41471000Y-138030000D02*
X40571000Y-138030000D01*
G75*
G02*
X40321000Y-137780000I0J250000D01*
G01*
X40321000Y-137255000D01*
G75*
G02*
X40571000Y-137005000I250000J0D01*
G01*
X41471000Y-137005000D01*
G75*
G02*
X41721000Y-137255000I0J-250000D01*
G01*
X41721000Y-137780000D01*
G75*
G02*
X41471000Y-138030000I-250000J0D01*
G01*
G37*
G36*
G01*
X101247000Y-150426000D02*
X101247000Y-151326000D01*
G75*
G02*
X100997000Y-151576000I-250000J0D01*
G01*
X100472000Y-151576000D01*
G75*
G02*
X100222000Y-151326000I0J250000D01*
G01*
X100222000Y-150426000D01*
G75*
G02*
X100472000Y-150176000I250000J0D01*
G01*
X100997000Y-150176000D01*
G75*
G02*
X101247000Y-150426000I0J-250000D01*
G01*
G37*
G36*
G01*
X99422000Y-150426000D02*
X99422000Y-151326000D01*
G75*
G02*
X99172000Y-151576000I-250000J0D01*
G01*
X98647000Y-151576000D01*
G75*
G02*
X98397000Y-151326000I0J250000D01*
G01*
X98397000Y-150426000D01*
G75*
G02*
X98647000Y-150176000I250000J0D01*
G01*
X99172000Y-150176000D01*
G75*
G02*
X99422000Y-150426000I0J-250000D01*
G01*
G37*
G36*
G01*
X98351000Y-158529000D02*
X98351000Y-159479000D01*
G75*
G02*
X98101000Y-159729000I-250000J0D01*
G01*
X97601000Y-159729000D01*
G75*
G02*
X97351000Y-159479000I0J250000D01*
G01*
X97351000Y-158529000D01*
G75*
G02*
X97601000Y-158279000I250000J0D01*
G01*
X98101000Y-158279000D01*
G75*
G02*
X98351000Y-158529000I0J-250000D01*
G01*
G37*
G36*
G01*
X96451000Y-158529000D02*
X96451000Y-159479000D01*
G75*
G02*
X96201000Y-159729000I-250000J0D01*
G01*
X95701000Y-159729000D01*
G75*
G02*
X95451000Y-159479000I0J250000D01*
G01*
X95451000Y-158529000D01*
G75*
G02*
X95701000Y-158279000I250000J0D01*
G01*
X96201000Y-158279000D01*
G75*
G02*
X96451000Y-158529000I0J-250000D01*
G01*
G37*
G36*
G01*
X100175000Y-155644000D02*
X100175000Y-154744000D01*
G75*
G02*
X100425000Y-154494000I250000J0D01*
G01*
X100950000Y-154494000D01*
G75*
G02*
X101200000Y-154744000I0J-250000D01*
G01*
X101200000Y-155644000D01*
G75*
G02*
X100950000Y-155894000I-250000J0D01*
G01*
X100425000Y-155894000D01*
G75*
G02*
X100175000Y-155644000I0J250000D01*
G01*
G37*
G36*
G01*
X102000000Y-155644000D02*
X102000000Y-154744000D01*
G75*
G02*
X102250000Y-154494000I250000J0D01*
G01*
X102775000Y-154494000D01*
G75*
G02*
X103025000Y-154744000I0J-250000D01*
G01*
X103025000Y-155644000D01*
G75*
G02*
X102775000Y-155894000I-250000J0D01*
G01*
X102250000Y-155894000D01*
G75*
G02*
X102000000Y-155644000I0J250000D01*
G01*
G37*
G36*
G01*
X109623000Y-157502000D02*
X108373000Y-157502000D01*
G75*
G02*
X108223000Y-157352000I0J150000D01*
G01*
X108223000Y-157052000D01*
G75*
G02*
X108373000Y-156902000I150000J0D01*
G01*
X109623000Y-156902000D01*
G75*
G02*
X109773000Y-157052000I0J-150000D01*
G01*
X109773000Y-157352000D01*
G75*
G02*
X109623000Y-157502000I-150000J0D01*
G01*
G37*
G36*
G01*
X109623000Y-156502000D02*
X108373000Y-156502000D01*
G75*
G02*
X108223000Y-156352000I0J150000D01*
G01*
X108223000Y-156052000D01*
G75*
G02*
X108373000Y-155902000I150000J0D01*
G01*
X109623000Y-155902000D01*
G75*
G02*
X109773000Y-156052000I0J-150000D01*
G01*
X109773000Y-156352000D01*
G75*
G02*
X109623000Y-156502000I-150000J0D01*
G01*
G37*
G36*
G01*
X109623000Y-155502000D02*
X108373000Y-155502000D01*
G75*
G02*
X108223000Y-155352000I0J150000D01*
G01*
X108223000Y-155052000D01*
G75*
G02*
X108373000Y-154902000I150000J0D01*
G01*
X109623000Y-154902000D01*
G75*
G02*
X109773000Y-155052000I0J-150000D01*
G01*
X109773000Y-155352000D01*
G75*
G02*
X109623000Y-155502000I-150000J0D01*
G01*
G37*
G36*
G01*
X109623000Y-154502000D02*
X108373000Y-154502000D01*
G75*
G02*
X108223000Y-154352000I0J150000D01*
G01*
X108223000Y-154052000D01*
G75*
G02*
X108373000Y-153902000I150000J0D01*
G01*
X109623000Y-153902000D01*
G75*
G02*
X109773000Y-154052000I0J-150000D01*
G01*
X109773000Y-154352000D01*
G75*
G02*
X109623000Y-154502000I-150000J0D01*
G01*
G37*
G36*
G01*
X113523000Y-153502000D02*
X112223000Y-153502000D01*
G75*
G02*
X111973000Y-153252000I0J250000D01*
G01*
X111973000Y-152552000D01*
G75*
G02*
X112223000Y-152302000I250000J0D01*
G01*
X113523000Y-152302000D01*
G75*
G02*
X113773000Y-152552000I0J-250000D01*
G01*
X113773000Y-153252000D01*
G75*
G02*
X113523000Y-153502000I-250000J0D01*
G01*
G37*
G36*
G01*
X113523000Y-159102000D02*
X112223000Y-159102000D01*
G75*
G02*
X111973000Y-158852000I0J250000D01*
G01*
X111973000Y-158152000D01*
G75*
G02*
X112223000Y-157902000I250000J0D01*
G01*
X113523000Y-157902000D01*
G75*
G02*
X113773000Y-158152000I0J-250000D01*
G01*
X113773000Y-158852000D01*
G75*
G02*
X113523000Y-159102000I-250000J0D01*
G01*
G37*
D13*
X46633000Y-142112000D03*
G36*
X49058000Y-138162000D02*
G01*
X49058000Y-140762000D01*
X48533000Y-141287000D01*
X48533000Y-142762000D01*
X47733000Y-142762000D01*
X47733000Y-141287000D01*
X47208000Y-140762000D01*
X47208000Y-138162000D01*
X49058000Y-138162000D01*
G37*
X49633000Y-142112000D03*
G36*
G01*
X101247000Y-144330000D02*
X101247000Y-145230000D01*
G75*
G02*
X100997000Y-145480000I-250000J0D01*
G01*
X100472000Y-145480000D01*
G75*
G02*
X100222000Y-145230000I0J250000D01*
G01*
X100222000Y-144330000D01*
G75*
G02*
X100472000Y-144080000I250000J0D01*
G01*
X100997000Y-144080000D01*
G75*
G02*
X101247000Y-144330000I0J-250000D01*
G01*
G37*
G36*
G01*
X99422000Y-144330000D02*
X99422000Y-145230000D01*
G75*
G02*
X99172000Y-145480000I-250000J0D01*
G01*
X98647000Y-145480000D01*
G75*
G02*
X98397000Y-145230000I0J250000D01*
G01*
X98397000Y-144330000D01*
G75*
G02*
X98647000Y-144080000I250000J0D01*
G01*
X99172000Y-144080000D01*
G75*
G02*
X99422000Y-144330000I0J-250000D01*
G01*
G37*
G36*
G01*
X93166250Y-149126000D02*
X92253750Y-149126000D01*
G75*
G02*
X92010000Y-148882250I0J243750D01*
G01*
X92010000Y-148394750D01*
G75*
G02*
X92253750Y-148151000I243750J0D01*
G01*
X93166250Y-148151000D01*
G75*
G02*
X93410000Y-148394750I0J-243750D01*
G01*
X93410000Y-148882250D01*
G75*
G02*
X93166250Y-149126000I-243750J0D01*
G01*
G37*
G36*
G01*
X93166250Y-147251000D02*
X92253750Y-147251000D01*
G75*
G02*
X92010000Y-147007250I0J243750D01*
G01*
X92010000Y-146519750D01*
G75*
G02*
X92253750Y-146276000I243750J0D01*
G01*
X93166250Y-146276000D01*
G75*
G02*
X93410000Y-146519750I0J-243750D01*
G01*
X93410000Y-147007250D01*
G75*
G02*
X93166250Y-147251000I-243750J0D01*
G01*
G37*
G36*
G01*
X46048000Y-136238000D02*
X46048000Y-135288000D01*
G75*
G02*
X46298000Y-135038000I250000J0D01*
G01*
X46798000Y-135038000D01*
G75*
G02*
X47048000Y-135288000I0J-250000D01*
G01*
X47048000Y-136238000D01*
G75*
G02*
X46798000Y-136488000I-250000J0D01*
G01*
X46298000Y-136488000D01*
G75*
G02*
X46048000Y-136238000I0J250000D01*
G01*
G37*
G36*
G01*
X47948000Y-136238000D02*
X47948000Y-135288000D01*
G75*
G02*
X48198000Y-135038000I250000J0D01*
G01*
X48698000Y-135038000D01*
G75*
G02*
X48948000Y-135288000I0J-250000D01*
G01*
X48948000Y-136238000D01*
G75*
G02*
X48698000Y-136488000I-250000J0D01*
G01*
X48198000Y-136488000D01*
G75*
G02*
X47948000Y-136238000I0J250000D01*
G01*
G37*
M02*
