M48
INCH,TZ
T1C0.0120
T2C0.0394
T3C0.0472
T4C0.0512
T5C0.1260
%
G90
G05
T1
X18300Y-49350
X18300Y-49700
X18300Y-50050
X18300Y-50400
X18300Y-50750
X18300Y-51100
X18300Y-51450
X18300Y-51800
X18300Y-52150
X18300Y-52500
X18650Y-49350
X18650Y-49700
X18650Y-50050
X18650Y-50400
X18650Y-50750
X18650Y-51100
X18650Y-51450
X18650Y-51800
X18650Y-52150
X18650Y-52500
X19300Y-54100
X19650Y-53250
X19650Y-53600
X19650Y-53950
X19650Y-54300
X19650Y-54650
X19650Y-55000
X20000Y-53250
X20000Y-53600
X20000Y-53950
X20000Y-54300
X20000Y-54650
X20000Y-55000
X21850Y-58050
X21850Y-58400
X21850Y-58750
X22200Y-58050
X22200Y-58400
X22200Y-58750
X22550Y-58050
X22550Y-58400
X22550Y-58750
X22900Y-58050
X22900Y-58400
X22900Y-58750
X23250Y-58050
X23250Y-58400
X23250Y-58750
X24950Y-59000
X25700Y-55866
X26550Y-59800
X28300Y-56450
X28600Y-62100
X28600Y-63200
X28800Y-56450
X28950Y-62100
X28950Y-63200
X29300Y-56450
X29300Y-62100
X29300Y-63200
X29800Y-56450
X30300Y-58000
X30300Y-58800
X30750Y-59250
X30800Y-60000
X31625Y-51150
X32450Y-55638
X33450Y-55638
X33800Y-57100
X34450Y-55638
X35450Y-55638
X36500Y-59050
X37250Y-61100
X37250Y-62600
X37250Y-64100
X38941Y-57609
X41100Y-57600
X41100Y-61900
X41100Y-65300
X42187Y-65809
X42200Y-57200
X42200Y-61500
T2
X44050Y-52802
X44050Y-53802
T3
X20522Y-68123
X21900Y-68123
X23278Y-68123
X25822Y-68123
X27200Y-68123
X28578Y-68123
X31122Y-68123
X32500Y-68123
X33878Y-68123
X36422Y-68123
X37800Y-68123
X39178Y-68123
T4
X16850Y-61300
X16850Y-63269
T5
X16700Y-50450
X16700Y-69550
X43300Y-50450
X43300Y-69550
T0
M30
