G04 #@! TF.GenerationSoftware,KiCad,Pcbnew,6.0.2+dfsg-1*
G04 #@! TF.CreationDate,2024-04-05T20:37:34-06:00*
G04 #@! TF.ProjectId,ckt-iiab,636b742d-6969-4616-922e-6b696361645f,rev?*
G04 #@! TF.SameCoordinates,Original*
G04 #@! TF.FileFunction,Legend,Bot*
G04 #@! TF.FilePolarity,Positive*
%FSLAX46Y46*%
G04 Gerber Fmt 4.6, Leading zero omitted, Abs format (unit mm)*
G04 Created by KiCad (PCBNEW 6.0.2+dfsg-1) date 2024-04-05 20:37:34*
%MOMM*%
%LPD*%
G01*
G04 APERTURE LIST*
%ADD10C,0.150000*%
%ADD11C,0.120000*%
G04 APERTURE END LIST*
D10*
X70349904Y-166618380D02*
X69778476Y-166618380D01*
X70064190Y-167618380D02*
X70064190Y-166618380D01*
X69445142Y-167618380D02*
X69445142Y-166618380D01*
X69064190Y-166618380D01*
X68968952Y-166666000D01*
X68921333Y-166713619D01*
X68873714Y-166808857D01*
X68873714Y-166951714D01*
X68921333Y-167046952D01*
X68968952Y-167094571D01*
X69064190Y-167142190D01*
X69445142Y-167142190D01*
X68016571Y-166618380D02*
X68207047Y-166618380D01*
X68302285Y-166666000D01*
X68349904Y-166713619D01*
X68445142Y-166856476D01*
X68492761Y-167046952D01*
X68492761Y-167427904D01*
X68445142Y-167523142D01*
X68397523Y-167570761D01*
X68302285Y-167618380D01*
X68111809Y-167618380D01*
X68016571Y-167570761D01*
X67968952Y-167523142D01*
X67921333Y-167427904D01*
X67921333Y-167189809D01*
X67968952Y-167094571D01*
X68016571Y-167046952D01*
X68111809Y-166999333D01*
X68302285Y-166999333D01*
X68397523Y-167046952D01*
X68445142Y-167094571D01*
X68492761Y-167189809D01*
X89399904Y-142488380D02*
X88828476Y-142488380D01*
X89114190Y-143488380D02*
X89114190Y-142488380D01*
X88495142Y-143488380D02*
X88495142Y-142488380D01*
X88114190Y-142488380D01*
X88018952Y-142536000D01*
X87971333Y-142583619D01*
X87923714Y-142678857D01*
X87923714Y-142821714D01*
X87971333Y-142916952D01*
X88018952Y-142964571D01*
X88114190Y-143012190D01*
X88495142Y-143012190D01*
X87590380Y-142488380D02*
X86971333Y-142488380D01*
X87304666Y-142869333D01*
X87161809Y-142869333D01*
X87066571Y-142916952D01*
X87018952Y-142964571D01*
X86971333Y-143059809D01*
X86971333Y-143297904D01*
X87018952Y-143393142D01*
X87066571Y-143440761D01*
X87161809Y-143488380D01*
X87447523Y-143488380D01*
X87542761Y-143440761D01*
X87590380Y-143393142D01*
X62732380Y-138692095D02*
X62732380Y-139263523D01*
X63732380Y-138977809D02*
X62732380Y-138977809D01*
X63732380Y-139596857D02*
X62732380Y-139596857D01*
X62732380Y-139977809D01*
X62780000Y-140073047D01*
X62827619Y-140120666D01*
X62922857Y-140168285D01*
X63065714Y-140168285D01*
X63160952Y-140120666D01*
X63208571Y-140073047D01*
X63256190Y-139977809D01*
X63256190Y-139596857D01*
X63160952Y-140739714D02*
X63113333Y-140644476D01*
X63065714Y-140596857D01*
X62970476Y-140549238D01*
X62922857Y-140549238D01*
X62827619Y-140596857D01*
X62780000Y-140644476D01*
X62732380Y-140739714D01*
X62732380Y-140930190D01*
X62780000Y-141025428D01*
X62827619Y-141073047D01*
X62922857Y-141120666D01*
X62970476Y-141120666D01*
X63065714Y-141073047D01*
X63113333Y-141025428D01*
X63160952Y-140930190D01*
X63160952Y-140739714D01*
X63208571Y-140644476D01*
X63256190Y-140596857D01*
X63351428Y-140549238D01*
X63541904Y-140549238D01*
X63637142Y-140596857D01*
X63684761Y-140644476D01*
X63732380Y-140739714D01*
X63732380Y-140930190D01*
X63684761Y-141025428D01*
X63637142Y-141073047D01*
X63541904Y-141120666D01*
X63351428Y-141120666D01*
X63256190Y-141073047D01*
X63208571Y-141025428D01*
X63160952Y-140930190D01*
X73905904Y-166618380D02*
X73334476Y-166618380D01*
X73620190Y-167618380D02*
X73620190Y-166618380D01*
X73001142Y-167618380D02*
X73001142Y-166618380D01*
X72620190Y-166618380D01*
X72524952Y-166666000D01*
X72477333Y-166713619D01*
X72429714Y-166808857D01*
X72429714Y-166951714D01*
X72477333Y-167046952D01*
X72524952Y-167094571D01*
X72620190Y-167142190D01*
X73001142Y-167142190D01*
X72096380Y-166618380D02*
X71429714Y-166618380D01*
X71858285Y-167618380D01*
X56887904Y-166618380D02*
X56316476Y-166618380D01*
X56602190Y-167618380D02*
X56602190Y-166618380D01*
X55983142Y-167618380D02*
X55983142Y-166618380D01*
X55602190Y-166618380D01*
X55506952Y-166666000D01*
X55459333Y-166713619D01*
X55411714Y-166808857D01*
X55411714Y-166951714D01*
X55459333Y-167046952D01*
X55506952Y-167094571D01*
X55602190Y-167142190D01*
X55983142Y-167142190D01*
X54554571Y-166951714D02*
X54554571Y-167618380D01*
X54792666Y-166570761D02*
X55030761Y-167285047D01*
X54411714Y-167285047D01*
X49521904Y-153156380D02*
X48950476Y-153156380D01*
X49236190Y-154156380D02*
X49236190Y-153156380D01*
X48617142Y-154156380D02*
X48617142Y-153156380D01*
X48236190Y-153156380D01*
X48140952Y-153204000D01*
X48093333Y-153251619D01*
X48045714Y-153346857D01*
X48045714Y-153489714D01*
X48093333Y-153584952D01*
X48140952Y-153632571D01*
X48236190Y-153680190D01*
X48617142Y-153680190D01*
X47093333Y-154156380D02*
X47664761Y-154156380D01*
X47379047Y-154156380D02*
X47379047Y-153156380D01*
X47474285Y-153299238D01*
X47569523Y-153394476D01*
X47664761Y-153442095D01*
X49521904Y-158236380D02*
X48950476Y-158236380D01*
X49236190Y-159236380D02*
X49236190Y-158236380D01*
X48617142Y-159236380D02*
X48617142Y-158236380D01*
X48236190Y-158236380D01*
X48140952Y-158284000D01*
X48093333Y-158331619D01*
X48045714Y-158426857D01*
X48045714Y-158569714D01*
X48093333Y-158664952D01*
X48140952Y-158712571D01*
X48236190Y-158760190D01*
X48617142Y-158760190D01*
X47664761Y-158331619D02*
X47617142Y-158284000D01*
X47521904Y-158236380D01*
X47283809Y-158236380D01*
X47188571Y-158284000D01*
X47140952Y-158331619D01*
X47093333Y-158426857D01*
X47093333Y-158522095D01*
X47140952Y-158664952D01*
X47712380Y-159236380D01*
X47093333Y-159236380D01*
X60443904Y-166618380D02*
X59872476Y-166618380D01*
X60158190Y-167618380D02*
X60158190Y-166618380D01*
X59539142Y-167618380D02*
X59539142Y-166618380D01*
X59158190Y-166618380D01*
X59062952Y-166666000D01*
X59015333Y-166713619D01*
X58967714Y-166808857D01*
X58967714Y-166951714D01*
X59015333Y-167046952D01*
X59062952Y-167094571D01*
X59158190Y-167142190D01*
X59539142Y-167142190D01*
X58062952Y-166618380D02*
X58539142Y-166618380D01*
X58586761Y-167094571D01*
X58539142Y-167046952D01*
X58443904Y-166999333D01*
X58205809Y-166999333D01*
X58110571Y-167046952D01*
X58062952Y-167094571D01*
X58015333Y-167189809D01*
X58015333Y-167427904D01*
X58062952Y-167523142D01*
X58110571Y-167570761D01*
X58205809Y-167618380D01*
X58443904Y-167618380D01*
X58539142Y-167570761D01*
X58586761Y-167523142D01*
D11*
X70288000Y-169164000D02*
G75*
G03*
X70288000Y-169164000I-1200000J0D01*
G01*
X89338000Y-145034000D02*
G75*
G03*
X89338000Y-145034000I-1200000J0D01*
G01*
X66478000Y-139954000D02*
G75*
G03*
X66478000Y-139954000I-1200000J0D01*
G01*
X73844000Y-169164000D02*
G75*
G03*
X73844000Y-169164000I-1200000J0D01*
G01*
X56826000Y-169164000D02*
G75*
G03*
X56826000Y-169164000I-1200000J0D01*
G01*
X49460000Y-155702000D02*
G75*
G03*
X49460000Y-155702000I-1200000J0D01*
G01*
X49460000Y-160782000D02*
G75*
G03*
X49460000Y-160782000I-1200000J0D01*
G01*
X60382000Y-169164000D02*
G75*
G03*
X60382000Y-169164000I-1200000J0D01*
G01*
M02*
