G04 #@! TF.GenerationSoftware,KiCad,Pcbnew,6.0.10-86aedd382b~118~ubuntu18.04.1*
G04 #@! TF.CreationDate,2024-12-31T19:53:44-07:00*
G04 #@! TF.ProjectId,ckt-iiab-test,636b742d-6969-4616-922d-746573742e6b,rev?*
G04 #@! TF.SameCoordinates,Original*
G04 #@! TF.FileFunction,Copper,L1,Top*
G04 #@! TF.FilePolarity,Positive*
%FSLAX46Y46*%
G04 Gerber Fmt 4.6, Leading zero omitted, Abs format (unit mm)*
G04 Created by KiCad (PCBNEW 6.0.10-86aedd382b~118~ubuntu18.04.1) date 2024-12-31 19:53:44*
%MOMM*%
%LPD*%
G01*
G04 APERTURE LIST*
G04 #@! TA.AperFunction,ComponentPad*
%ADD10C,6.400000*%
G04 #@! TD*
G04 #@! TA.AperFunction,SMDPad,CuDef*
%ADD11R,2.489200X1.193800*%
G04 #@! TD*
G04 #@! TA.AperFunction,ComponentPad*
%ADD12O,5.000000X2.500000*%
G04 #@! TD*
G04 #@! TA.AperFunction,ComponentPad*
%ADD13O,4.500000X2.250000*%
G04 #@! TD*
G04 #@! TA.AperFunction,ComponentPad*
%ADD14O,2.250000X4.500000*%
G04 #@! TD*
G04 #@! TA.AperFunction,ComponentPad*
%ADD15R,1.700000X1.700000*%
G04 #@! TD*
G04 #@! TA.AperFunction,ViaPad*
%ADD16C,0.609600*%
G04 #@! TD*
G04 #@! TA.AperFunction,Conductor*
%ADD17C,0.635000*%
G04 #@! TD*
G04 #@! TA.AperFunction,Conductor*
%ADD18C,0.254000*%
G04 #@! TD*
G04 APERTURE END LIST*
G04 #@! TA.AperFunction,SMDPad,CuDef*
G36*
G01*
X95366000Y-71142000D02*
X95366000Y-72342000D01*
G75*
G02*
X95166000Y-72542000I-200000J0D01*
G01*
X94766000Y-72542000D01*
G75*
G02*
X94566000Y-72342000I0J200000D01*
G01*
X94566000Y-71142000D01*
G75*
G02*
X94766000Y-70942000I200000J0D01*
G01*
X95166000Y-70942000D01*
G75*
G02*
X95366000Y-71142000I0J-200000D01*
G01*
G37*
G04 #@! TD.AperFunction*
G04 #@! TA.AperFunction,SMDPad,CuDef*
G36*
G01*
X94116000Y-71142000D02*
X94116000Y-72342000D01*
G75*
G02*
X93916000Y-72542000I-200000J0D01*
G01*
X93516000Y-72542000D01*
G75*
G02*
X93316000Y-72342000I0J200000D01*
G01*
X93316000Y-71142000D01*
G75*
G02*
X93516000Y-70942000I200000J0D01*
G01*
X93916000Y-70942000D01*
G75*
G02*
X94116000Y-71142000I0J-200000D01*
G01*
G37*
G04 #@! TD.AperFunction*
G04 #@! TA.AperFunction,SMDPad,CuDef*
G36*
G01*
X92866000Y-71142000D02*
X92866000Y-72342000D01*
G75*
G02*
X92666000Y-72542000I-200000J0D01*
G01*
X92266000Y-72542000D01*
G75*
G02*
X92066000Y-72342000I0J200000D01*
G01*
X92066000Y-71142000D01*
G75*
G02*
X92266000Y-70942000I200000J0D01*
G01*
X92666000Y-70942000D01*
G75*
G02*
X92866000Y-71142000I0J-200000D01*
G01*
G37*
G04 #@! TD.AperFunction*
G04 #@! TA.AperFunction,SMDPad,CuDef*
G36*
G01*
X91616000Y-71142000D02*
X91616000Y-72342000D01*
G75*
G02*
X91416000Y-72542000I-200000J0D01*
G01*
X91016000Y-72542000D01*
G75*
G02*
X90816000Y-72342000I0J200000D01*
G01*
X90816000Y-71142000D01*
G75*
G02*
X91016000Y-70942000I200000J0D01*
G01*
X91416000Y-70942000D01*
G75*
G02*
X91616000Y-71142000I0J-200000D01*
G01*
G37*
G04 #@! TD.AperFunction*
G04 #@! TA.AperFunction,SMDPad,CuDef*
G36*
G01*
X89716000Y-67592001D02*
X89716000Y-70091999D01*
G75*
G02*
X89465999Y-70342000I-250001J0D01*
G01*
X87866001Y-70342000D01*
G75*
G02*
X87616000Y-70091999I0J250001D01*
G01*
X87616000Y-67592001D01*
G75*
G02*
X87866001Y-67342000I250001J0D01*
G01*
X89465999Y-67342000D01*
G75*
G02*
X89716000Y-67592001I0J-250001D01*
G01*
G37*
G04 #@! TD.AperFunction*
G04 #@! TA.AperFunction,SMDPad,CuDef*
G36*
G01*
X98566000Y-67592001D02*
X98566000Y-70091999D01*
G75*
G02*
X98315999Y-70342000I-250001J0D01*
G01*
X96716001Y-70342000D01*
G75*
G02*
X96466000Y-70091999I0J250001D01*
G01*
X96466000Y-67592001D01*
G75*
G02*
X96716001Y-67342000I250001J0D01*
G01*
X98315999Y-67342000D01*
G75*
G02*
X98566000Y-67592001I0J-250001D01*
G01*
G37*
G04 #@! TD.AperFunction*
D10*
X168402000Y-118872000D03*
G04 #@! TA.AperFunction,SMDPad,CuDef*
G36*
G01*
X128883000Y-118386000D02*
X128883000Y-117136000D01*
G75*
G02*
X129033000Y-116986000I150000J0D01*
G01*
X129333000Y-116986000D01*
G75*
G02*
X129483000Y-117136000I0J-150000D01*
G01*
X129483000Y-118386000D01*
G75*
G02*
X129333000Y-118536000I-150000J0D01*
G01*
X129033000Y-118536000D01*
G75*
G02*
X128883000Y-118386000I0J150000D01*
G01*
G37*
G04 #@! TD.AperFunction*
G04 #@! TA.AperFunction,SMDPad,CuDef*
G36*
G01*
X129883000Y-118386000D02*
X129883000Y-117136000D01*
G75*
G02*
X130033000Y-116986000I150000J0D01*
G01*
X130333000Y-116986000D01*
G75*
G02*
X130483000Y-117136000I0J-150000D01*
G01*
X130483000Y-118386000D01*
G75*
G02*
X130333000Y-118536000I-150000J0D01*
G01*
X130033000Y-118536000D01*
G75*
G02*
X129883000Y-118386000I0J150000D01*
G01*
G37*
G04 #@! TD.AperFunction*
G04 #@! TA.AperFunction,SMDPad,CuDef*
G36*
G01*
X130883000Y-118386000D02*
X130883000Y-117136000D01*
G75*
G02*
X131033000Y-116986000I150000J0D01*
G01*
X131333000Y-116986000D01*
G75*
G02*
X131483000Y-117136000I0J-150000D01*
G01*
X131483000Y-118386000D01*
G75*
G02*
X131333000Y-118536000I-150000J0D01*
G01*
X131033000Y-118536000D01*
G75*
G02*
X130883000Y-118386000I0J150000D01*
G01*
G37*
G04 #@! TD.AperFunction*
G04 #@! TA.AperFunction,SMDPad,CuDef*
G36*
G01*
X131883000Y-118386000D02*
X131883000Y-117136000D01*
G75*
G02*
X132033000Y-116986000I150000J0D01*
G01*
X132333000Y-116986000D01*
G75*
G02*
X132483000Y-117136000I0J-150000D01*
G01*
X132483000Y-118386000D01*
G75*
G02*
X132333000Y-118536000I-150000J0D01*
G01*
X132033000Y-118536000D01*
G75*
G02*
X131883000Y-118386000I0J150000D01*
G01*
G37*
G04 #@! TD.AperFunction*
G04 #@! TA.AperFunction,SMDPad,CuDef*
G36*
G01*
X127283000Y-122286000D02*
X127283000Y-120986000D01*
G75*
G02*
X127533000Y-120736000I250000J0D01*
G01*
X128233000Y-120736000D01*
G75*
G02*
X128483000Y-120986000I0J-250000D01*
G01*
X128483000Y-122286000D01*
G75*
G02*
X128233000Y-122536000I-250000J0D01*
G01*
X127533000Y-122536000D01*
G75*
G02*
X127283000Y-122286000I0J250000D01*
G01*
G37*
G04 #@! TD.AperFunction*
G04 #@! TA.AperFunction,SMDPad,CuDef*
G36*
G01*
X132883000Y-122286000D02*
X132883000Y-120986000D01*
G75*
G02*
X133133000Y-120736000I250000J0D01*
G01*
X133833000Y-120736000D01*
G75*
G02*
X134083000Y-120986000I0J-250000D01*
G01*
X134083000Y-122286000D01*
G75*
G02*
X133833000Y-122536000I-250000J0D01*
G01*
X133133000Y-122536000D01*
G75*
G02*
X132883000Y-122286000I0J250000D01*
G01*
G37*
G04 #@! TD.AperFunction*
X168402000Y-70358000D03*
G04 #@! TA.AperFunction,SMDPad,CuDef*
G36*
G01*
X180749000Y-128201000D02*
X180749000Y-129101000D01*
G75*
G02*
X180499000Y-129351000I-250000J0D01*
G01*
X179974000Y-129351000D01*
G75*
G02*
X179724000Y-129101000I0J250000D01*
G01*
X179724000Y-128201000D01*
G75*
G02*
X179974000Y-127951000I250000J0D01*
G01*
X180499000Y-127951000D01*
G75*
G02*
X180749000Y-128201000I0J-250000D01*
G01*
G37*
G04 #@! TD.AperFunction*
G04 #@! TA.AperFunction,SMDPad,CuDef*
G36*
G01*
X178924000Y-128201000D02*
X178924000Y-129101000D01*
G75*
G02*
X178674000Y-129351000I-250000J0D01*
G01*
X178149000Y-129351000D01*
G75*
G02*
X177899000Y-129101000I0J250000D01*
G01*
X177899000Y-128201000D01*
G75*
G02*
X178149000Y-127951000I250000J0D01*
G01*
X178674000Y-127951000D01*
G75*
G02*
X178924000Y-128201000I0J-250000D01*
G01*
G37*
G04 #@! TD.AperFunction*
G04 #@! TA.AperFunction,SMDPad,CuDef*
G36*
G01*
X152809000Y-128201000D02*
X152809000Y-129101000D01*
G75*
G02*
X152559000Y-129351000I-250000J0D01*
G01*
X152034000Y-129351000D01*
G75*
G02*
X151784000Y-129101000I0J250000D01*
G01*
X151784000Y-128201000D01*
G75*
G02*
X152034000Y-127951000I250000J0D01*
G01*
X152559000Y-127951000D01*
G75*
G02*
X152809000Y-128201000I0J-250000D01*
G01*
G37*
G04 #@! TD.AperFunction*
G04 #@! TA.AperFunction,SMDPad,CuDef*
G36*
G01*
X150984000Y-128201000D02*
X150984000Y-129101000D01*
G75*
G02*
X150734000Y-129351000I-250000J0D01*
G01*
X150209000Y-129351000D01*
G75*
G02*
X149959000Y-129101000I0J250000D01*
G01*
X149959000Y-128201000D01*
G75*
G02*
X150209000Y-127951000I250000J0D01*
G01*
X150734000Y-127951000D01*
G75*
G02*
X150984000Y-128201000I0J-250000D01*
G01*
G37*
G04 #@! TD.AperFunction*
G04 #@! TA.AperFunction,SMDPad,CuDef*
G36*
G01*
X86586000Y-135076250D02*
X86586000Y-134163750D01*
G75*
G02*
X86829750Y-133920000I243750J0D01*
G01*
X87317250Y-133920000D01*
G75*
G02*
X87561000Y-134163750I0J-243750D01*
G01*
X87561000Y-135076250D01*
G75*
G02*
X87317250Y-135320000I-243750J0D01*
G01*
X86829750Y-135320000D01*
G75*
G02*
X86586000Y-135076250I0J243750D01*
G01*
G37*
G04 #@! TD.AperFunction*
G04 #@! TA.AperFunction,SMDPad,CuDef*
G36*
G01*
X88461000Y-135076250D02*
X88461000Y-134163750D01*
G75*
G02*
X88704750Y-133920000I243750J0D01*
G01*
X89192250Y-133920000D01*
G75*
G02*
X89436000Y-134163750I0J-243750D01*
G01*
X89436000Y-135076250D01*
G75*
G02*
X89192250Y-135320000I-243750J0D01*
G01*
X88704750Y-135320000D01*
G75*
G02*
X88461000Y-135076250I0J243750D01*
G01*
G37*
G04 #@! TD.AperFunction*
X81788000Y-118872000D03*
X81788000Y-70358000D03*
D11*
X170395900Y-140930000D03*
X170395900Y-138430000D03*
X170395900Y-135930000D03*
X164884100Y-140930000D03*
X164884100Y-138430000D03*
X164884100Y-135930000D03*
G04 #@! TA.AperFunction,SMDPad,CuDef*
G36*
G01*
X94135000Y-137592750D02*
X94135000Y-138505250D01*
G75*
G02*
X93891250Y-138749000I-243750J0D01*
G01*
X93403750Y-138749000D01*
G75*
G02*
X93160000Y-138505250I0J243750D01*
G01*
X93160000Y-137592750D01*
G75*
G02*
X93403750Y-137349000I243750J0D01*
G01*
X93891250Y-137349000D01*
G75*
G02*
X94135000Y-137592750I0J-243750D01*
G01*
G37*
G04 #@! TD.AperFunction*
G04 #@! TA.AperFunction,SMDPad,CuDef*
G36*
G01*
X92260000Y-137592750D02*
X92260000Y-138505250D01*
G75*
G02*
X92016250Y-138749000I-243750J0D01*
G01*
X91528750Y-138749000D01*
G75*
G02*
X91285000Y-138505250I0J243750D01*
G01*
X91285000Y-137592750D01*
G75*
G02*
X91528750Y-137349000I243750J0D01*
G01*
X92016250Y-137349000D01*
G75*
G02*
X92260000Y-137592750I0J-243750D01*
G01*
G37*
G04 #@! TD.AperFunction*
G04 #@! TA.AperFunction,SMDPad,CuDef*
G36*
G01*
X185321000Y-128194750D02*
X185321000Y-129107250D01*
G75*
G02*
X185077250Y-129351000I-243750J0D01*
G01*
X184589750Y-129351000D01*
G75*
G02*
X184346000Y-129107250I0J243750D01*
G01*
X184346000Y-128194750D01*
G75*
G02*
X184589750Y-127951000I243750J0D01*
G01*
X185077250Y-127951000D01*
G75*
G02*
X185321000Y-128194750I0J-243750D01*
G01*
G37*
G04 #@! TD.AperFunction*
G04 #@! TA.AperFunction,SMDPad,CuDef*
G36*
G01*
X183446000Y-128194750D02*
X183446000Y-129107250D01*
G75*
G02*
X183202250Y-129351000I-243750J0D01*
G01*
X182714750Y-129351000D01*
G75*
G02*
X182471000Y-129107250I0J243750D01*
G01*
X182471000Y-128194750D01*
G75*
G02*
X182714750Y-127951000I243750J0D01*
G01*
X183202250Y-127951000D01*
G75*
G02*
X183446000Y-128194750I0J-243750D01*
G01*
G37*
G04 #@! TD.AperFunction*
G04 #@! TA.AperFunction,SMDPad,CuDef*
G36*
G01*
X110264000Y-137592750D02*
X110264000Y-138505250D01*
G75*
G02*
X110020250Y-138749000I-243750J0D01*
G01*
X109532750Y-138749000D01*
G75*
G02*
X109289000Y-138505250I0J243750D01*
G01*
X109289000Y-137592750D01*
G75*
G02*
X109532750Y-137349000I243750J0D01*
G01*
X110020250Y-137349000D01*
G75*
G02*
X110264000Y-137592750I0J-243750D01*
G01*
G37*
G04 #@! TD.AperFunction*
G04 #@! TA.AperFunction,SMDPad,CuDef*
G36*
G01*
X108389000Y-137592750D02*
X108389000Y-138505250D01*
G75*
G02*
X108145250Y-138749000I-243750J0D01*
G01*
X107657750Y-138749000D01*
G75*
G02*
X107414000Y-138505250I0J243750D01*
G01*
X107414000Y-137592750D01*
G75*
G02*
X107657750Y-137349000I243750J0D01*
G01*
X108145250Y-137349000D01*
G75*
G02*
X108389000Y-137592750I0J-243750D01*
G01*
G37*
G04 #@! TD.AperFunction*
G04 #@! TA.AperFunction,SMDPad,CuDef*
G36*
G01*
X171351000Y-128194750D02*
X171351000Y-129107250D01*
G75*
G02*
X171107250Y-129351000I-243750J0D01*
G01*
X170619750Y-129351000D01*
G75*
G02*
X170376000Y-129107250I0J243750D01*
G01*
X170376000Y-128194750D01*
G75*
G02*
X170619750Y-127951000I243750J0D01*
G01*
X171107250Y-127951000D01*
G75*
G02*
X171351000Y-128194750I0J-243750D01*
G01*
G37*
G04 #@! TD.AperFunction*
G04 #@! TA.AperFunction,SMDPad,CuDef*
G36*
G01*
X169476000Y-128194750D02*
X169476000Y-129107250D01*
G75*
G02*
X169232250Y-129351000I-243750J0D01*
G01*
X168744750Y-129351000D01*
G75*
G02*
X168501000Y-129107250I0J243750D01*
G01*
X168501000Y-128194750D01*
G75*
G02*
X168744750Y-127951000I243750J0D01*
G01*
X169232250Y-127951000D01*
G75*
G02*
X169476000Y-128194750I0J-243750D01*
G01*
G37*
G04 #@! TD.AperFunction*
G04 #@! TA.AperFunction,SMDPad,CuDef*
G36*
G01*
X117961000Y-118386000D02*
X117961000Y-117136000D01*
G75*
G02*
X118111000Y-116986000I150000J0D01*
G01*
X118411000Y-116986000D01*
G75*
G02*
X118561000Y-117136000I0J-150000D01*
G01*
X118561000Y-118386000D01*
G75*
G02*
X118411000Y-118536000I-150000J0D01*
G01*
X118111000Y-118536000D01*
G75*
G02*
X117961000Y-118386000I0J150000D01*
G01*
G37*
G04 #@! TD.AperFunction*
G04 #@! TA.AperFunction,SMDPad,CuDef*
G36*
G01*
X118961000Y-118386000D02*
X118961000Y-117136000D01*
G75*
G02*
X119111000Y-116986000I150000J0D01*
G01*
X119411000Y-116986000D01*
G75*
G02*
X119561000Y-117136000I0J-150000D01*
G01*
X119561000Y-118386000D01*
G75*
G02*
X119411000Y-118536000I-150000J0D01*
G01*
X119111000Y-118536000D01*
G75*
G02*
X118961000Y-118386000I0J150000D01*
G01*
G37*
G04 #@! TD.AperFunction*
G04 #@! TA.AperFunction,SMDPad,CuDef*
G36*
G01*
X119961000Y-118386000D02*
X119961000Y-117136000D01*
G75*
G02*
X120111000Y-116986000I150000J0D01*
G01*
X120411000Y-116986000D01*
G75*
G02*
X120561000Y-117136000I0J-150000D01*
G01*
X120561000Y-118386000D01*
G75*
G02*
X120411000Y-118536000I-150000J0D01*
G01*
X120111000Y-118536000D01*
G75*
G02*
X119961000Y-118386000I0J150000D01*
G01*
G37*
G04 #@! TD.AperFunction*
G04 #@! TA.AperFunction,SMDPad,CuDef*
G36*
G01*
X120961000Y-118386000D02*
X120961000Y-117136000D01*
G75*
G02*
X121111000Y-116986000I150000J0D01*
G01*
X121411000Y-116986000D01*
G75*
G02*
X121561000Y-117136000I0J-150000D01*
G01*
X121561000Y-118386000D01*
G75*
G02*
X121411000Y-118536000I-150000J0D01*
G01*
X121111000Y-118536000D01*
G75*
G02*
X120961000Y-118386000I0J150000D01*
G01*
G37*
G04 #@! TD.AperFunction*
G04 #@! TA.AperFunction,SMDPad,CuDef*
G36*
G01*
X116361000Y-122286000D02*
X116361000Y-120986000D01*
G75*
G02*
X116611000Y-120736000I250000J0D01*
G01*
X117311000Y-120736000D01*
G75*
G02*
X117561000Y-120986000I0J-250000D01*
G01*
X117561000Y-122286000D01*
G75*
G02*
X117311000Y-122536000I-250000J0D01*
G01*
X116611000Y-122536000D01*
G75*
G02*
X116361000Y-122286000I0J250000D01*
G01*
G37*
G04 #@! TD.AperFunction*
G04 #@! TA.AperFunction,SMDPad,CuDef*
G36*
G01*
X121961000Y-122286000D02*
X121961000Y-120986000D01*
G75*
G02*
X122211000Y-120736000I250000J0D01*
G01*
X122911000Y-120736000D01*
G75*
G02*
X123161000Y-120986000I0J-250000D01*
G01*
X123161000Y-122286000D01*
G75*
G02*
X122911000Y-122536000I-250000J0D01*
G01*
X122211000Y-122536000D01*
G75*
G02*
X121961000Y-122286000I0J250000D01*
G01*
G37*
G04 #@! TD.AperFunction*
G04 #@! TA.AperFunction,SMDPad,CuDef*
G36*
G01*
X107419000Y-135068250D02*
X107419000Y-134155750D01*
G75*
G02*
X107662750Y-133912000I243750J0D01*
G01*
X108150250Y-133912000D01*
G75*
G02*
X108394000Y-134155750I0J-243750D01*
G01*
X108394000Y-135068250D01*
G75*
G02*
X108150250Y-135312000I-243750J0D01*
G01*
X107662750Y-135312000D01*
G75*
G02*
X107419000Y-135068250I0J243750D01*
G01*
G37*
G04 #@! TD.AperFunction*
G04 #@! TA.AperFunction,SMDPad,CuDef*
G36*
G01*
X109294000Y-135068250D02*
X109294000Y-134155750D01*
G75*
G02*
X109537750Y-133912000I243750J0D01*
G01*
X110025250Y-133912000D01*
G75*
G02*
X110269000Y-134155750I0J-243750D01*
G01*
X110269000Y-135068250D01*
G75*
G02*
X110025250Y-135312000I-243750J0D01*
G01*
X109537750Y-135312000D01*
G75*
G02*
X109294000Y-135068250I0J243750D01*
G01*
G37*
G04 #@! TD.AperFunction*
G04 #@! TA.AperFunction,SMDPad,CuDef*
G36*
G01*
X109336000Y-71142000D02*
X109336000Y-72342000D01*
G75*
G02*
X109136000Y-72542000I-200000J0D01*
G01*
X108736000Y-72542000D01*
G75*
G02*
X108536000Y-72342000I0J200000D01*
G01*
X108536000Y-71142000D01*
G75*
G02*
X108736000Y-70942000I200000J0D01*
G01*
X109136000Y-70942000D01*
G75*
G02*
X109336000Y-71142000I0J-200000D01*
G01*
G37*
G04 #@! TD.AperFunction*
G04 #@! TA.AperFunction,SMDPad,CuDef*
G36*
G01*
X108086000Y-71142000D02*
X108086000Y-72342000D01*
G75*
G02*
X107886000Y-72542000I-200000J0D01*
G01*
X107486000Y-72542000D01*
G75*
G02*
X107286000Y-72342000I0J200000D01*
G01*
X107286000Y-71142000D01*
G75*
G02*
X107486000Y-70942000I200000J0D01*
G01*
X107886000Y-70942000D01*
G75*
G02*
X108086000Y-71142000I0J-200000D01*
G01*
G37*
G04 #@! TD.AperFunction*
G04 #@! TA.AperFunction,SMDPad,CuDef*
G36*
G01*
X106836000Y-71142000D02*
X106836000Y-72342000D01*
G75*
G02*
X106636000Y-72542000I-200000J0D01*
G01*
X106236000Y-72542000D01*
G75*
G02*
X106036000Y-72342000I0J200000D01*
G01*
X106036000Y-71142000D01*
G75*
G02*
X106236000Y-70942000I200000J0D01*
G01*
X106636000Y-70942000D01*
G75*
G02*
X106836000Y-71142000I0J-200000D01*
G01*
G37*
G04 #@! TD.AperFunction*
G04 #@! TA.AperFunction,SMDPad,CuDef*
G36*
G01*
X105586000Y-71142000D02*
X105586000Y-72342000D01*
G75*
G02*
X105386000Y-72542000I-200000J0D01*
G01*
X104986000Y-72542000D01*
G75*
G02*
X104786000Y-72342000I0J200000D01*
G01*
X104786000Y-71142000D01*
G75*
G02*
X104986000Y-70942000I200000J0D01*
G01*
X105386000Y-70942000D01*
G75*
G02*
X105586000Y-71142000I0J-200000D01*
G01*
G37*
G04 #@! TD.AperFunction*
G04 #@! TA.AperFunction,SMDPad,CuDef*
G36*
G01*
X103686000Y-67592001D02*
X103686000Y-70091999D01*
G75*
G02*
X103435999Y-70342000I-250001J0D01*
G01*
X101836001Y-70342000D01*
G75*
G02*
X101586000Y-70091999I0J250001D01*
G01*
X101586000Y-67592001D01*
G75*
G02*
X101836001Y-67342000I250001J0D01*
G01*
X103435999Y-67342000D01*
G75*
G02*
X103686000Y-67592001I0J-250001D01*
G01*
G37*
G04 #@! TD.AperFunction*
G04 #@! TA.AperFunction,SMDPad,CuDef*
G36*
G01*
X112536000Y-67592001D02*
X112536000Y-70091999D01*
G75*
G02*
X112285999Y-70342000I-250001J0D01*
G01*
X110686001Y-70342000D01*
G75*
G02*
X110436000Y-70091999I0J250001D01*
G01*
X110436000Y-67592001D01*
G75*
G02*
X110686001Y-67342000I250001J0D01*
G01*
X112285999Y-67342000D01*
G75*
G02*
X112536000Y-67592001I0J-250001D01*
G01*
G37*
G04 #@! TD.AperFunction*
X180124100Y-94528000D03*
X180124100Y-97028000D03*
X180124100Y-99528000D03*
X185635900Y-94528000D03*
X185635900Y-97028000D03*
X185635900Y-99528000D03*
G04 #@! TA.AperFunction,SMDPad,CuDef*
G36*
G01*
X89436000Y-137592750D02*
X89436000Y-138505250D01*
G75*
G02*
X89192250Y-138749000I-243750J0D01*
G01*
X88704750Y-138749000D01*
G75*
G02*
X88461000Y-138505250I0J243750D01*
G01*
X88461000Y-137592750D01*
G75*
G02*
X88704750Y-137349000I243750J0D01*
G01*
X89192250Y-137349000D01*
G75*
G02*
X89436000Y-137592750I0J-243750D01*
G01*
G37*
G04 #@! TD.AperFunction*
G04 #@! TA.AperFunction,SMDPad,CuDef*
G36*
G01*
X87561000Y-137592750D02*
X87561000Y-138505250D01*
G75*
G02*
X87317250Y-138749000I-243750J0D01*
G01*
X86829750Y-138749000D01*
G75*
G02*
X86586000Y-138505250I0J243750D01*
G01*
X86586000Y-137592750D01*
G75*
G02*
X86829750Y-137349000I243750J0D01*
G01*
X87317250Y-137349000D01*
G75*
G02*
X87561000Y-137592750I0J-243750D01*
G01*
G37*
G04 #@! TD.AperFunction*
G04 #@! TA.AperFunction,SMDPad,CuDef*
G36*
G01*
X157429500Y-128194750D02*
X157429500Y-129107250D01*
G75*
G02*
X157185750Y-129351000I-243750J0D01*
G01*
X156698250Y-129351000D01*
G75*
G02*
X156454500Y-129107250I0J243750D01*
G01*
X156454500Y-128194750D01*
G75*
G02*
X156698250Y-127951000I243750J0D01*
G01*
X157185750Y-127951000D01*
G75*
G02*
X157429500Y-128194750I0J-243750D01*
G01*
G37*
G04 #@! TD.AperFunction*
G04 #@! TA.AperFunction,SMDPad,CuDef*
G36*
G01*
X155554500Y-128194750D02*
X155554500Y-129107250D01*
G75*
G02*
X155310750Y-129351000I-243750J0D01*
G01*
X154823250Y-129351000D01*
G75*
G02*
X154579500Y-129107250I0J243750D01*
G01*
X154579500Y-128194750D01*
G75*
G02*
X154823250Y-127951000I243750J0D01*
G01*
X155310750Y-127951000D01*
G75*
G02*
X155554500Y-128194750I0J-243750D01*
G01*
G37*
G04 #@! TD.AperFunction*
G04 #@! TA.AperFunction,SMDPad,CuDef*
G36*
G01*
X166779000Y-128201000D02*
X166779000Y-129101000D01*
G75*
G02*
X166529000Y-129351000I-250000J0D01*
G01*
X166004000Y-129351000D01*
G75*
G02*
X165754000Y-129101000I0J250000D01*
G01*
X165754000Y-128201000D01*
G75*
G02*
X166004000Y-127951000I250000J0D01*
G01*
X166529000Y-127951000D01*
G75*
G02*
X166779000Y-128201000I0J-250000D01*
G01*
G37*
G04 #@! TD.AperFunction*
G04 #@! TA.AperFunction,SMDPad,CuDef*
G36*
G01*
X164954000Y-128201000D02*
X164954000Y-129101000D01*
G75*
G02*
X164704000Y-129351000I-250000J0D01*
G01*
X164179000Y-129351000D01*
G75*
G02*
X163929000Y-129101000I0J250000D01*
G01*
X163929000Y-128201000D01*
G75*
G02*
X164179000Y-127951000I250000J0D01*
G01*
X164704000Y-127951000D01*
G75*
G02*
X164954000Y-128201000I0J-250000D01*
G01*
G37*
G04 #@! TD.AperFunction*
G04 #@! TA.AperFunction,SMDPad,CuDef*
G36*
G01*
X91285000Y-135076250D02*
X91285000Y-134163750D01*
G75*
G02*
X91528750Y-133920000I243750J0D01*
G01*
X92016250Y-133920000D01*
G75*
G02*
X92260000Y-134163750I0J-243750D01*
G01*
X92260000Y-135076250D01*
G75*
G02*
X92016250Y-135320000I-243750J0D01*
G01*
X91528750Y-135320000D01*
G75*
G02*
X91285000Y-135076250I0J243750D01*
G01*
G37*
G04 #@! TD.AperFunction*
G04 #@! TA.AperFunction,SMDPad,CuDef*
G36*
G01*
X93160000Y-135076250D02*
X93160000Y-134163750D01*
G75*
G02*
X93403750Y-133920000I243750J0D01*
G01*
X93891250Y-133920000D01*
G75*
G02*
X94135000Y-134163750I0J-243750D01*
G01*
X94135000Y-135076250D01*
G75*
G02*
X93891250Y-135320000I-243750J0D01*
G01*
X93403750Y-135320000D01*
G75*
G02*
X93160000Y-135076250I0J243750D01*
G01*
G37*
G04 #@! TD.AperFunction*
D12*
X182753000Y-79906000D03*
D13*
X182753000Y-73906000D03*
D14*
X178053000Y-76906000D03*
D11*
X180124100Y-113070000D03*
X180124100Y-115570000D03*
X180124100Y-118070000D03*
X185635900Y-113070000D03*
X185635900Y-115570000D03*
X185635900Y-118070000D03*
G04 #@! TA.AperFunction,SMDPad,CuDef*
G36*
G01*
X102715000Y-135076250D02*
X102715000Y-134163750D01*
G75*
G02*
X102958750Y-133920000I243750J0D01*
G01*
X103446250Y-133920000D01*
G75*
G02*
X103690000Y-134163750I0J-243750D01*
G01*
X103690000Y-135076250D01*
G75*
G02*
X103446250Y-135320000I-243750J0D01*
G01*
X102958750Y-135320000D01*
G75*
G02*
X102715000Y-135076250I0J243750D01*
G01*
G37*
G04 #@! TD.AperFunction*
G04 #@! TA.AperFunction,SMDPad,CuDef*
G36*
G01*
X104590000Y-135076250D02*
X104590000Y-134163750D01*
G75*
G02*
X104833750Y-133920000I243750J0D01*
G01*
X105321250Y-133920000D01*
G75*
G02*
X105565000Y-134163750I0J-243750D01*
G01*
X105565000Y-135076250D01*
G75*
G02*
X105321250Y-135320000I-243750J0D01*
G01*
X104833750Y-135320000D01*
G75*
G02*
X104590000Y-135076250I0J243750D01*
G01*
G37*
G04 #@! TD.AperFunction*
X184365900Y-140930000D03*
X184365900Y-138430000D03*
X184365900Y-135930000D03*
X178854100Y-140930000D03*
X178854100Y-138430000D03*
X178854100Y-135930000D03*
X156425900Y-140930000D03*
X156425900Y-138430000D03*
X156425900Y-135930000D03*
X150914100Y-140930000D03*
X150914100Y-138430000D03*
X150914100Y-135930000D03*
G04 #@! TA.AperFunction,SMDPad,CuDef*
G36*
G01*
X105565000Y-137592750D02*
X105565000Y-138505250D01*
G75*
G02*
X105321250Y-138749000I-243750J0D01*
G01*
X104833750Y-138749000D01*
G75*
G02*
X104590000Y-138505250I0J243750D01*
G01*
X104590000Y-137592750D01*
G75*
G02*
X104833750Y-137349000I243750J0D01*
G01*
X105321250Y-137349000D01*
G75*
G02*
X105565000Y-137592750I0J-243750D01*
G01*
G37*
G04 #@! TD.AperFunction*
G04 #@! TA.AperFunction,SMDPad,CuDef*
G36*
G01*
X103690000Y-137592750D02*
X103690000Y-138505250D01*
G75*
G02*
X103446250Y-138749000I-243750J0D01*
G01*
X102958750Y-138749000D01*
G75*
G02*
X102715000Y-138505250I0J243750D01*
G01*
X102715000Y-137592750D01*
G75*
G02*
X102958750Y-137349000I243750J0D01*
G01*
X103446250Y-137349000D01*
G75*
G02*
X103690000Y-137592750I0J-243750D01*
G01*
G37*
G04 #@! TD.AperFunction*
G04 #@! TA.AperFunction,SMDPad,CuDef*
G36*
G01*
X139805000Y-118386000D02*
X139805000Y-117136000D01*
G75*
G02*
X139955000Y-116986000I150000J0D01*
G01*
X140255000Y-116986000D01*
G75*
G02*
X140405000Y-117136000I0J-150000D01*
G01*
X140405000Y-118386000D01*
G75*
G02*
X140255000Y-118536000I-150000J0D01*
G01*
X139955000Y-118536000D01*
G75*
G02*
X139805000Y-118386000I0J150000D01*
G01*
G37*
G04 #@! TD.AperFunction*
G04 #@! TA.AperFunction,SMDPad,CuDef*
G36*
G01*
X140805000Y-118386000D02*
X140805000Y-117136000D01*
G75*
G02*
X140955000Y-116986000I150000J0D01*
G01*
X141255000Y-116986000D01*
G75*
G02*
X141405000Y-117136000I0J-150000D01*
G01*
X141405000Y-118386000D01*
G75*
G02*
X141255000Y-118536000I-150000J0D01*
G01*
X140955000Y-118536000D01*
G75*
G02*
X140805000Y-118386000I0J150000D01*
G01*
G37*
G04 #@! TD.AperFunction*
G04 #@! TA.AperFunction,SMDPad,CuDef*
G36*
G01*
X141805000Y-118386000D02*
X141805000Y-117136000D01*
G75*
G02*
X141955000Y-116986000I150000J0D01*
G01*
X142255000Y-116986000D01*
G75*
G02*
X142405000Y-117136000I0J-150000D01*
G01*
X142405000Y-118386000D01*
G75*
G02*
X142255000Y-118536000I-150000J0D01*
G01*
X141955000Y-118536000D01*
G75*
G02*
X141805000Y-118386000I0J150000D01*
G01*
G37*
G04 #@! TD.AperFunction*
G04 #@! TA.AperFunction,SMDPad,CuDef*
G36*
G01*
X142805000Y-118386000D02*
X142805000Y-117136000D01*
G75*
G02*
X142955000Y-116986000I150000J0D01*
G01*
X143255000Y-116986000D01*
G75*
G02*
X143405000Y-117136000I0J-150000D01*
G01*
X143405000Y-118386000D01*
G75*
G02*
X143255000Y-118536000I-150000J0D01*
G01*
X142955000Y-118536000D01*
G75*
G02*
X142805000Y-118386000I0J150000D01*
G01*
G37*
G04 #@! TD.AperFunction*
G04 #@! TA.AperFunction,SMDPad,CuDef*
G36*
G01*
X138205000Y-122286000D02*
X138205000Y-120986000D01*
G75*
G02*
X138455000Y-120736000I250000J0D01*
G01*
X139155000Y-120736000D01*
G75*
G02*
X139405000Y-120986000I0J-250000D01*
G01*
X139405000Y-122286000D01*
G75*
G02*
X139155000Y-122536000I-250000J0D01*
G01*
X138455000Y-122536000D01*
G75*
G02*
X138205000Y-122286000I0J250000D01*
G01*
G37*
G04 #@! TD.AperFunction*
G04 #@! TA.AperFunction,SMDPad,CuDef*
G36*
G01*
X143805000Y-122286000D02*
X143805000Y-120986000D01*
G75*
G02*
X144055000Y-120736000I250000J0D01*
G01*
X144755000Y-120736000D01*
G75*
G02*
X145005000Y-120986000I0J-250000D01*
G01*
X145005000Y-122286000D01*
G75*
G02*
X144755000Y-122536000I-250000J0D01*
G01*
X144055000Y-122536000D01*
G75*
G02*
X143805000Y-122286000I0J250000D01*
G01*
G37*
G04 #@! TD.AperFunction*
D15*
X87549990Y-101092000D03*
X87630000Y-96012000D03*
D16*
X182880000Y-99568000D03*
X181610000Y-135890000D03*
X100076000Y-69088000D03*
X136144000Y-121666000D03*
X100076000Y-67437000D03*
X182880000Y-94488000D03*
X167640000Y-135890000D03*
X153670000Y-135890000D03*
X125095000Y-121666000D03*
X142113000Y-135890000D03*
X142113000Y-119380000D03*
X151130000Y-113919000D03*
X118237000Y-113919000D03*
X129159000Y-112395000D03*
X152654000Y-112395000D03*
X154178000Y-110871000D03*
X140081000Y-110871000D03*
X141097000Y-111633000D03*
X153416000Y-111633000D03*
X150368000Y-114681000D03*
X119253000Y-114681000D03*
X120269000Y-124333000D03*
X120269000Y-119380000D03*
X130175000Y-113157000D03*
X151892000Y-113157000D03*
X131191000Y-119380000D03*
X131191000Y-125476000D03*
D17*
X182920000Y-99528000D02*
X182880000Y-99568000D01*
X185635900Y-99528000D02*
X182920000Y-99528000D01*
X182840000Y-94528000D02*
X182880000Y-94488000D01*
X180124100Y-94528000D02*
X182840000Y-94528000D01*
D18*
X93647500Y-138049000D02*
X93647500Y-139778500D01*
X81153000Y-91186000D02*
X85217000Y-87122000D01*
X81153000Y-104267000D02*
X81153000Y-91186000D01*
X93091000Y-132969000D02*
X89535000Y-132969000D01*
X87884000Y-126746000D02*
X87884000Y-110998000D01*
X87884000Y-110998000D02*
X81153000Y-104267000D01*
X93647500Y-139778500D02*
X92837000Y-140589000D01*
X88948500Y-134620000D02*
X88948500Y-138049000D01*
X91216000Y-85949000D02*
X91216000Y-71742000D01*
X93647500Y-134620000D02*
X93647500Y-138049000D01*
X93647500Y-134620000D02*
X93647500Y-133525500D01*
X85217000Y-87122000D02*
X90043000Y-87122000D01*
X92837000Y-140589000D02*
X85852000Y-140589000D01*
X90043000Y-87122000D02*
X91216000Y-85949000D01*
X85852000Y-140589000D02*
X84963000Y-139700000D01*
X88948500Y-133555500D02*
X88948500Y-134620000D01*
X89535000Y-132969000D02*
X88948500Y-133555500D01*
X84963000Y-139700000D02*
X84963000Y-129667000D01*
X93647500Y-133525500D02*
X93091000Y-132969000D01*
X84963000Y-129667000D02*
X87884000Y-126746000D01*
X100965000Y-139700000D02*
X100965000Y-133858000D01*
X109776500Y-139651500D02*
X108839000Y-140589000D01*
X108839000Y-140589000D02*
X101854000Y-140589000D01*
X105077500Y-133555500D02*
X105077500Y-134620000D01*
X109781500Y-134612000D02*
X109781500Y-133530500D01*
X104013000Y-88773000D02*
X105186000Y-87600000D01*
X109781500Y-134612000D02*
X109781500Y-138044000D01*
X109781500Y-133530500D02*
X109220000Y-132969000D01*
X105664000Y-132969000D02*
X105077500Y-133555500D01*
X98425000Y-131318000D02*
X98425000Y-114935000D01*
X100965000Y-133858000D02*
X98425000Y-131318000D01*
X105186000Y-87600000D02*
X105186000Y-71742000D01*
X85979000Y-88773000D02*
X104013000Y-88773000D01*
X109781500Y-138044000D02*
X109776500Y-138049000D01*
X82677000Y-103505000D02*
X82677000Y-92075000D01*
X89789000Y-106299000D02*
X85471000Y-106299000D01*
X98425000Y-114935000D02*
X89789000Y-106299000D01*
X109776500Y-138049000D02*
X109776500Y-139651500D01*
X101854000Y-140589000D02*
X100965000Y-139700000D01*
X85471000Y-106299000D02*
X82677000Y-103505000D01*
X109220000Y-132969000D02*
X105664000Y-132969000D01*
X105077500Y-138049000D02*
X105077500Y-134620000D01*
X82677000Y-92075000D02*
X85979000Y-88773000D01*
X87073500Y-134620000D02*
X87073500Y-129080500D01*
X92456000Y-88138000D02*
X93726000Y-86868000D01*
X93726000Y-71752000D02*
X93716000Y-71742000D01*
X88900000Y-110490000D02*
X82169000Y-103759000D01*
X85725000Y-88138000D02*
X92456000Y-88138000D01*
X93726000Y-86868000D02*
X93726000Y-71752000D01*
X87073500Y-129080500D02*
X88900000Y-127254000D01*
X82169000Y-103759000D02*
X82169000Y-91694000D01*
X82169000Y-91694000D02*
X85725000Y-88138000D01*
X87073500Y-134620000D02*
X87073500Y-138049000D01*
X88900000Y-127254000D02*
X88900000Y-110490000D01*
X176022000Y-138430000D02*
X174625000Y-139827000D01*
X142113000Y-117769000D02*
X142105000Y-117761000D01*
X142113000Y-119380000D02*
X142113000Y-117769000D01*
X143129000Y-139827000D02*
X143129000Y-136906000D01*
X172720000Y-144526000D02*
X147828000Y-144526000D01*
X147828000Y-144526000D02*
X143129000Y-139827000D01*
X178854100Y-138430000D02*
X184365900Y-138430000D01*
X174498000Y-142748000D02*
X172720000Y-144526000D01*
X143129000Y-136906000D02*
X142113000Y-135890000D01*
X174625000Y-139827000D02*
X174498000Y-139954000D01*
X174498000Y-139954000D02*
X174498000Y-142494000D01*
X178854100Y-138430000D02*
X176022000Y-138430000D01*
X174498000Y-142494000D02*
X174498000Y-142748000D01*
X90297000Y-105283000D02*
X85979000Y-105283000D01*
X85979000Y-105283000D02*
X83693000Y-102997000D01*
X107686000Y-88148000D02*
X107686000Y-71742000D01*
X106045000Y-89789000D02*
X107686000Y-88148000D01*
X99441000Y-130858500D02*
X99441000Y-114427000D01*
X86487000Y-89789000D02*
X106045000Y-89789000D01*
X103202500Y-134620000D02*
X103202500Y-138049000D01*
X83693000Y-92583000D02*
X86487000Y-89789000D01*
X83693000Y-102997000D02*
X83693000Y-92583000D01*
X103202500Y-134620000D02*
X99441000Y-130858500D01*
X99441000Y-114427000D02*
X90297000Y-105283000D01*
X81661000Y-104013000D02*
X81661000Y-91440000D01*
X85471000Y-139446000D02*
X85471000Y-129921000D01*
X91772500Y-138049000D02*
X91772500Y-139494500D01*
X85471000Y-129921000D02*
X88392000Y-127000000D01*
X91772500Y-134620000D02*
X91772500Y-138049000D01*
X88392000Y-110744000D02*
X81661000Y-104013000D01*
X91772500Y-139494500D02*
X91186000Y-140081000D01*
X91313000Y-87630000D02*
X92466000Y-86477000D01*
X86106000Y-140081000D02*
X85471000Y-139446000D01*
X92466000Y-86477000D02*
X92466000Y-71742000D01*
X88392000Y-127000000D02*
X88392000Y-110744000D01*
X85471000Y-87630000D02*
X91313000Y-87630000D01*
X81661000Y-91440000D02*
X85471000Y-87630000D01*
X91186000Y-140081000D02*
X86106000Y-140081000D01*
X83185000Y-103251000D02*
X83185000Y-92329000D01*
X107901500Y-138049000D02*
X107901500Y-139494500D01*
X102108000Y-140081000D02*
X101473000Y-139446000D01*
X98933000Y-114681000D02*
X90043000Y-105791000D01*
X98933000Y-131064000D02*
X98933000Y-114681000D01*
X107906500Y-134612000D02*
X107901500Y-134617000D01*
X83185000Y-92329000D02*
X86233000Y-89281000D01*
X106436000Y-87874000D02*
X106436000Y-71742000D01*
X101473000Y-133604000D02*
X98933000Y-131064000D01*
X107901500Y-134617000D02*
X107901500Y-138049000D01*
X105029000Y-89281000D02*
X106436000Y-87874000D01*
X101473000Y-139446000D02*
X101473000Y-133604000D01*
X107901500Y-139494500D02*
X107315000Y-140081000D01*
X85725000Y-105791000D02*
X83185000Y-103251000D01*
X86233000Y-89281000D02*
X105029000Y-89281000D01*
X107315000Y-140081000D02*
X102108000Y-140081000D01*
X90043000Y-105791000D02*
X85725000Y-105791000D01*
X151130000Y-122301000D02*
X153543000Y-124714000D01*
X151130000Y-113919000D02*
X151130000Y-122301000D01*
X154940000Y-124714000D02*
X156942000Y-126716000D01*
X156942000Y-126716000D02*
X156942000Y-128651000D01*
X118237000Y-117737000D02*
X118261000Y-117761000D01*
X153543000Y-124714000D02*
X154940000Y-124714000D01*
X118237000Y-113919000D02*
X118237000Y-117737000D01*
X152296500Y-128651000D02*
X155067000Y-128651000D01*
X170180000Y-126619000D02*
X170863500Y-127302500D01*
X152654000Y-120015000D02*
X155067000Y-122428000D01*
X129159000Y-117737000D02*
X129183000Y-117761000D01*
X152654000Y-112395000D02*
X152654000Y-120015000D01*
X165862000Y-126619000D02*
X170180000Y-126619000D01*
X155067000Y-122428000D02*
X161671000Y-122428000D01*
X129159000Y-112395000D02*
X129159000Y-117737000D01*
X170863500Y-127302500D02*
X170863500Y-128651000D01*
X161671000Y-122428000D02*
X165862000Y-126619000D01*
X166266500Y-128651000D02*
X168988500Y-128651000D01*
X167005000Y-124714000D02*
X182880000Y-124714000D01*
X156591000Y-120523000D02*
X162814000Y-120523000D01*
X182880000Y-124714000D02*
X184833500Y-126667500D01*
X184833500Y-126667500D02*
X184833500Y-128651000D01*
X140105000Y-110895000D02*
X140105000Y-117761000D01*
X154178000Y-118110000D02*
X156591000Y-120523000D01*
X162814000Y-120523000D02*
X167005000Y-124714000D01*
X140081000Y-110871000D02*
X140105000Y-110895000D01*
X154178000Y-110871000D02*
X154178000Y-118110000D01*
X180236500Y-128651000D02*
X182958500Y-128651000D01*
X166370000Y-125730000D02*
X162052000Y-121412000D01*
X141097000Y-111633000D02*
X141097000Y-117753000D01*
X178411500Y-128651000D02*
X178411500Y-127230500D01*
X178411500Y-127230500D02*
X176911000Y-125730000D01*
X162052000Y-121412000D02*
X155829000Y-121412000D01*
X155829000Y-121412000D02*
X153416000Y-118999000D01*
X153416000Y-118999000D02*
X153416000Y-111633000D01*
X141097000Y-117753000D02*
X141105000Y-117761000D01*
X176911000Y-125730000D02*
X166370000Y-125730000D01*
D17*
X180124100Y-110528100D02*
X180124100Y-113070000D01*
X178054000Y-108458000D02*
X180124100Y-110528100D01*
X178562000Y-97028000D02*
X178054000Y-97536000D01*
X180124100Y-97028000D02*
X178562000Y-97028000D01*
X178054000Y-97536000D02*
X178054000Y-108458000D01*
X187706000Y-97663000D02*
X187706000Y-108458000D01*
X185635900Y-110528100D02*
X185635900Y-113070000D01*
X187071000Y-97028000D02*
X187706000Y-97663000D01*
X187706000Y-108458000D02*
X185635900Y-110528100D01*
X185635900Y-97028000D02*
X187071000Y-97028000D01*
X157099000Y-96012000D02*
X87630000Y-96012000D01*
X176657000Y-115570000D02*
X157099000Y-96012000D01*
X180124100Y-115570000D02*
X176657000Y-115570000D01*
X178308000Y-121285000D02*
X158115000Y-101092000D01*
X185635900Y-115570000D02*
X184912000Y-115570000D01*
X181927500Y-121285000D02*
X178308000Y-121285000D01*
X184912000Y-115570000D02*
X183007000Y-117475000D01*
X158115000Y-101092000D02*
X87549990Y-101092000D01*
X183007000Y-117475000D02*
X183007000Y-120205500D01*
X183007000Y-120205500D02*
X181927500Y-121285000D01*
X182880000Y-96393000D02*
X182880000Y-97663000D01*
X182753000Y-79906000D02*
X182753000Y-89154000D01*
X182753000Y-89154000D02*
X185635900Y-92036900D01*
X181015000Y-99528000D02*
X180124100Y-99528000D01*
X185635900Y-94528000D02*
X184745000Y-94528000D01*
X185635900Y-92036900D02*
X185635900Y-94528000D01*
X184745000Y-94528000D02*
X182880000Y-96393000D01*
X182880000Y-97663000D02*
X181015000Y-99528000D01*
D18*
X119253000Y-114681000D02*
X119253000Y-117753000D01*
X150368000Y-114681000D02*
X150368000Y-128547500D01*
X119253000Y-117753000D02*
X119261000Y-117761000D01*
X150368000Y-128547500D02*
X150471500Y-128651000D01*
X120269000Y-124333000D02*
X133921500Y-124333000D01*
X120269000Y-119380000D02*
X120269000Y-117769000D01*
X120269000Y-117769000D02*
X120261000Y-117761000D01*
X133921500Y-124333000D02*
X148018500Y-138430000D01*
X156425900Y-138430000D02*
X150914100Y-138430000D01*
X148018500Y-138430000D02*
X150914100Y-138430000D01*
X164441500Y-126722500D02*
X161163000Y-123444000D01*
X130175000Y-117753000D02*
X130183000Y-117761000D01*
X130175000Y-113157000D02*
X130175000Y-117753000D01*
X154559000Y-123444000D02*
X151892000Y-120777000D01*
X164441500Y-128651000D02*
X164441500Y-126722500D01*
X161163000Y-123444000D02*
X154559000Y-123444000D01*
X151892000Y-120777000D02*
X151892000Y-113157000D01*
X131191000Y-117769000D02*
X131183000Y-117761000D01*
X170395900Y-138430000D02*
X164884100Y-138430000D01*
X164884100Y-138430000D02*
X161671000Y-138430000D01*
X144272000Y-139192000D02*
X144272000Y-136525000D01*
X144272000Y-136525000D02*
X133223000Y-125476000D01*
X160147000Y-139954000D02*
X160147000Y-142621000D01*
X133223000Y-125476000D02*
X131191000Y-125476000D01*
X131191000Y-119380000D02*
X131191000Y-117769000D01*
X161671000Y-138430000D02*
X160655000Y-139446000D01*
X159004000Y-143764000D02*
X156718000Y-143764000D01*
X148844000Y-143764000D02*
X145288000Y-140208000D01*
X145288000Y-140208000D02*
X144272000Y-139192000D01*
X160147000Y-142621000D02*
X159004000Y-143764000D01*
X156718000Y-143764000D02*
X148844000Y-143764000D01*
X160655000Y-139446000D02*
X160147000Y-139954000D01*
G04 #@! TA.AperFunction,Conductor*
G36*
X187013121Y-92222002D02*
G01*
X187059614Y-92275658D01*
X187071000Y-92328000D01*
X187071000Y-95251000D01*
X187050998Y-95319121D01*
X186997342Y-95365614D01*
X186945000Y-95377000D01*
X184276000Y-95377000D01*
X184207879Y-95356998D01*
X184161386Y-95303342D01*
X184150000Y-95251000D01*
X184150000Y-92328000D01*
X184170002Y-92259879D01*
X184223658Y-92213386D01*
X184276000Y-92202000D01*
X186945000Y-92202000D01*
X187013121Y-92222002D01*
G37*
G04 #@! TD.AperFunction*
G04 #@! TA.AperFunction,Conductor*
G36*
X187013121Y-110764002D02*
G01*
X187059614Y-110817658D01*
X187071000Y-110870000D01*
X187071000Y-113793000D01*
X187050998Y-113861121D01*
X186997342Y-113907614D01*
X186945000Y-113919000D01*
X184276000Y-113919000D01*
X184207879Y-113898998D01*
X184161386Y-113845342D01*
X184150000Y-113793000D01*
X184150000Y-110870000D01*
X184170002Y-110801879D01*
X184223658Y-110755386D01*
X184276000Y-110744000D01*
X186945000Y-110744000D01*
X187013121Y-110764002D01*
G37*
G04 #@! TD.AperFunction*
G04 #@! TA.AperFunction,Conductor*
G36*
X158184121Y-139720002D02*
G01*
X158230614Y-139773658D01*
X158242000Y-139826000D01*
X158242000Y-143130000D01*
X158221998Y-143198121D01*
X158168342Y-143244614D01*
X158116000Y-143256000D01*
X149224000Y-143256000D01*
X149155879Y-143235998D01*
X149109386Y-143182342D01*
X149098000Y-143130000D01*
X149098000Y-139826000D01*
X149118002Y-139757879D01*
X149171658Y-139711386D01*
X149224000Y-139700000D01*
X158116000Y-139700000D01*
X158184121Y-139720002D01*
G37*
G04 #@! TD.AperFunction*
G04 #@! TA.AperFunction,Conductor*
G36*
X145484121Y-120543002D02*
G01*
X145530614Y-120596658D01*
X145542000Y-120649000D01*
X145542000Y-122937000D01*
X145521998Y-123005121D01*
X145468342Y-123051614D01*
X145416000Y-123063000D01*
X115950000Y-123063000D01*
X115881879Y-123042998D01*
X115835386Y-122989342D01*
X115824000Y-122937000D01*
X115824000Y-120649000D01*
X115844002Y-120580879D01*
X115897658Y-120534386D01*
X115950000Y-120523000D01*
X145416000Y-120523000D01*
X145484121Y-120543002D01*
G37*
G04 #@! TD.AperFunction*
G04 #@! TA.AperFunction,Conductor*
G36*
X187013121Y-98699002D02*
G01*
X187059614Y-98752658D01*
X187071000Y-98805000D01*
X187071000Y-101728000D01*
X187050998Y-101796121D01*
X186997342Y-101842614D01*
X186945000Y-101854000D01*
X184276000Y-101854000D01*
X184207879Y-101833998D01*
X184161386Y-101780342D01*
X184150000Y-101728000D01*
X184150000Y-98805000D01*
X184170002Y-98736879D01*
X184223658Y-98690386D01*
X184276000Y-98679000D01*
X186945000Y-98679000D01*
X187013121Y-98699002D01*
G37*
G04 #@! TD.AperFunction*
G04 #@! TA.AperFunction,Conductor*
G36*
X181552121Y-98699002D02*
G01*
X181598614Y-98752658D01*
X181610000Y-98805000D01*
X181610000Y-101728000D01*
X181589998Y-101796121D01*
X181536342Y-101842614D01*
X181484000Y-101854000D01*
X178815000Y-101854000D01*
X178746879Y-101833998D01*
X178700386Y-101780342D01*
X178689000Y-101728000D01*
X178689000Y-98805000D01*
X178709002Y-98736879D01*
X178762658Y-98690386D01*
X178815000Y-98679000D01*
X181484000Y-98679000D01*
X181552121Y-98699002D01*
G37*
G04 #@! TD.AperFunction*
G04 #@! TA.AperFunction,Conductor*
G36*
X181552121Y-117241002D02*
G01*
X181598614Y-117294658D01*
X181610000Y-117347000D01*
X181610000Y-120270000D01*
X181589998Y-120338121D01*
X181536342Y-120384614D01*
X181484000Y-120396000D01*
X178815000Y-120396000D01*
X178746879Y-120375998D01*
X178700386Y-120322342D01*
X178689000Y-120270000D01*
X178689000Y-117347000D01*
X178709002Y-117278879D01*
X178762658Y-117232386D01*
X178815000Y-117221000D01*
X181484000Y-117221000D01*
X181552121Y-117241002D01*
G37*
G04 #@! TD.AperFunction*
G04 #@! TA.AperFunction,Conductor*
G36*
X186124121Y-139720002D02*
G01*
X186170614Y-139773658D01*
X186182000Y-139826000D01*
X186182000Y-143130000D01*
X186161998Y-143198121D01*
X186108342Y-143244614D01*
X186056000Y-143256000D01*
X177164000Y-143256000D01*
X177095879Y-143235998D01*
X177049386Y-143182342D01*
X177038000Y-143130000D01*
X177038000Y-139826000D01*
X177058002Y-139757879D01*
X177111658Y-139711386D01*
X177164000Y-139700000D01*
X186056000Y-139700000D01*
X186124121Y-139720002D01*
G37*
G04 #@! TD.AperFunction*
G04 #@! TA.AperFunction,Conductor*
G36*
X186124121Y-133624002D02*
G01*
X186170614Y-133677658D01*
X186182000Y-133730000D01*
X186182000Y-137034000D01*
X186161998Y-137102121D01*
X186108342Y-137148614D01*
X186056000Y-137160000D01*
X149224000Y-137160000D01*
X149155879Y-137139998D01*
X149109386Y-137086342D01*
X149098000Y-137034000D01*
X149098000Y-133730000D01*
X149118002Y-133661879D01*
X149171658Y-133615386D01*
X149224000Y-133604000D01*
X186056000Y-133604000D01*
X186124121Y-133624002D01*
G37*
G04 #@! TD.AperFunction*
G04 #@! TA.AperFunction,Conductor*
G36*
X181552121Y-92222002D02*
G01*
X181598614Y-92275658D01*
X181610000Y-92328000D01*
X181610000Y-95251000D01*
X181589998Y-95319121D01*
X181536342Y-95365614D01*
X181484000Y-95377000D01*
X178815000Y-95377000D01*
X178746879Y-95356998D01*
X178700386Y-95303342D01*
X178689000Y-95251000D01*
X178689000Y-92328000D01*
X178709002Y-92259879D01*
X178762658Y-92213386D01*
X178815000Y-92202000D01*
X181484000Y-92202000D01*
X181552121Y-92222002D01*
G37*
G04 #@! TD.AperFunction*
G04 #@! TA.AperFunction,Conductor*
G36*
X113099121Y-66187002D02*
G01*
X113145614Y-66240658D01*
X113157000Y-66293000D01*
X113157000Y-70359000D01*
X113136998Y-70427121D01*
X113083342Y-70473614D01*
X113031000Y-70485000D01*
X87121000Y-70485000D01*
X87052879Y-70464998D01*
X87006386Y-70411342D01*
X86995000Y-70359000D01*
X86995000Y-66293000D01*
X87015002Y-66224879D01*
X87068658Y-66178386D01*
X87121000Y-66167000D01*
X113031000Y-66167000D01*
X113099121Y-66187002D01*
G37*
G04 #@! TD.AperFunction*
G04 #@! TA.AperFunction,Conductor*
G36*
X172154121Y-139720002D02*
G01*
X172200614Y-139773658D01*
X172212000Y-139826000D01*
X172212000Y-143130000D01*
X172191998Y-143198121D01*
X172138342Y-143244614D01*
X172086000Y-143256000D01*
X163194000Y-143256000D01*
X163125879Y-143235998D01*
X163079386Y-143182342D01*
X163068000Y-143130000D01*
X163068000Y-139826000D01*
X163088002Y-139757879D01*
X163141658Y-139711386D01*
X163194000Y-139700000D01*
X172086000Y-139700000D01*
X172154121Y-139720002D01*
G37*
G04 #@! TD.AperFunction*
G04 #@! TA.AperFunction,Conductor*
G36*
X181552121Y-110764002D02*
G01*
X181598614Y-110817658D01*
X181610000Y-110870000D01*
X181610000Y-113793000D01*
X181589998Y-113861121D01*
X181536342Y-113907614D01*
X181484000Y-113919000D01*
X178815000Y-113919000D01*
X178746879Y-113898998D01*
X178700386Y-113845342D01*
X178689000Y-113793000D01*
X178689000Y-110870000D01*
X178709002Y-110801879D01*
X178762658Y-110755386D01*
X178815000Y-110744000D01*
X181484000Y-110744000D01*
X181552121Y-110764002D01*
G37*
G04 #@! TD.AperFunction*
G04 #@! TA.AperFunction,Conductor*
G36*
X187013121Y-117241002D02*
G01*
X187059614Y-117294658D01*
X187071000Y-117347000D01*
X187071000Y-120270000D01*
X187050998Y-120338121D01*
X186997342Y-120384614D01*
X186945000Y-120396000D01*
X184276000Y-120396000D01*
X184207879Y-120375998D01*
X184161386Y-120322342D01*
X184150000Y-120270000D01*
X184150000Y-117347000D01*
X184170002Y-117278879D01*
X184223658Y-117232386D01*
X184276000Y-117221000D01*
X186945000Y-117221000D01*
X187013121Y-117241002D01*
G37*
G04 #@! TD.AperFunction*
M02*
