M48
INCH,TZ
T1C0.0120
T2C0.0394
T3C0.1260
T4C0.1260
%
G90
G05
T1
X39400Y-26550
X39400Y-27200
X46550Y-44850
X46950Y-45150
X47350Y-47000
X47350Y-48950
X49250Y-47900
X50850Y-44250
X51250Y-44550
X51650Y-47000
X51650Y-49400
X53600Y-47900
X55150Y-43650
X55550Y-43950
X55950Y-47000
X55950Y-53500
X59200Y-45150
X59500Y-44850
X59800Y-44550
X60100Y-44250
X60400Y-43950
X60500Y-53500
X60700Y-43650
X66000Y-53500
X71500Y-53500
X72000Y-37200
X72000Y-39200
T2
X34469Y-39800
X34500Y-37800
T3
X66300Y-46800
T4
X32200Y-27700
X32200Y-46800
X66300Y-27700
T2
G00X70100Y-30672
M15
G01X70100Y-29884
M16
G05
G00X71556Y-29097
M15
G01X72344Y-29097
M16
G05
G00X71458Y-31459
M15
G01X72442Y-31459
M16
G05
T0
M30
