G04 #@! TF.GenerationSoftware,KiCad,Pcbnew,6.0.10-86aedd382b~118~ubuntu18.04.1*
G04 #@! TF.CreationDate,2024-12-31T19:53:44-07:00*
G04 #@! TF.ProjectId,ckt-iiab-test,636b742d-6969-4616-922d-746573742e6b,rev?*
G04 #@! TF.SameCoordinates,Original*
G04 #@! TF.FileFunction,Copper,L2,Bot*
G04 #@! TF.FilePolarity,Positive*
%FSLAX46Y46*%
G04 Gerber Fmt 4.6, Leading zero omitted, Abs format (unit mm)*
G04 Created by KiCad (PCBNEW 6.0.10-86aedd382b~118~ubuntu18.04.1) date 2024-12-31 19:53:44*
%MOMM*%
%LPD*%
G01*
G04 APERTURE LIST*
G04 #@! TA.AperFunction,ComponentPad*
%ADD10C,6.400000*%
G04 #@! TD*
G04 #@! TA.AperFunction,ComponentPad*
%ADD11O,5.000000X2.500000*%
G04 #@! TD*
G04 #@! TA.AperFunction,ComponentPad*
%ADD12O,4.500000X2.250000*%
G04 #@! TD*
G04 #@! TA.AperFunction,ComponentPad*
%ADD13O,2.250000X4.500000*%
G04 #@! TD*
G04 #@! TA.AperFunction,ComponentPad*
%ADD14R,1.700000X1.700000*%
G04 #@! TD*
G04 #@! TA.AperFunction,ViaPad*
%ADD15C,0.609600*%
G04 #@! TD*
G04 #@! TA.AperFunction,Conductor*
%ADD16C,0.254000*%
G04 #@! TD*
G04 APERTURE END LIST*
D10*
X168402000Y-118872000D03*
X168402000Y-70358000D03*
X81788000Y-118872000D03*
X81788000Y-70358000D03*
D11*
X182753000Y-79906000D03*
D12*
X182753000Y-73906000D03*
D13*
X178053000Y-76906000D03*
D14*
X87549990Y-101092000D03*
X87630000Y-96012000D03*
D15*
X182880000Y-99568000D03*
X181610000Y-135890000D03*
X100076000Y-69088000D03*
X136144000Y-121666000D03*
X100076000Y-67437000D03*
X182880000Y-94488000D03*
X167640000Y-135890000D03*
X153670000Y-135890000D03*
X125095000Y-121666000D03*
X142113000Y-135890000D03*
X142113000Y-119380000D03*
X151130000Y-113919000D03*
X118237000Y-113919000D03*
X129159000Y-112395000D03*
X152654000Y-112395000D03*
X154178000Y-110871000D03*
X140081000Y-110871000D03*
X141097000Y-111633000D03*
X153416000Y-111633000D03*
X150368000Y-114681000D03*
X119253000Y-114681000D03*
X120269000Y-124333000D03*
X120269000Y-119380000D03*
X130175000Y-113157000D03*
X151892000Y-113157000D03*
X131191000Y-119380000D03*
X131191000Y-125476000D03*
D16*
X142113000Y-135890000D02*
X142113000Y-119380000D01*
X151130000Y-113919000D02*
X118237000Y-113919000D01*
X152654000Y-112395000D02*
X129159000Y-112395000D01*
X154178000Y-110871000D02*
X140081000Y-110871000D01*
X153416000Y-111633000D02*
X141097000Y-111633000D01*
X150368000Y-114681000D02*
X119253000Y-114681000D01*
X120269000Y-124333000D02*
X120269000Y-119380000D01*
X151892000Y-113157000D02*
X130175000Y-113157000D01*
X131191000Y-125476000D02*
X131191000Y-119380000D01*
G04 #@! TA.AperFunction,Conductor*
G36*
X188917621Y-63774502D02*
G01*
X188964114Y-63828158D01*
X188975500Y-63880500D01*
X188975500Y-145669500D01*
X188955498Y-145737621D01*
X188901842Y-145784114D01*
X188849500Y-145795500D01*
X75310500Y-145795500D01*
X75242379Y-145775498D01*
X75195886Y-145721842D01*
X75184500Y-145669500D01*
X75184500Y-135890000D01*
X141548874Y-135890000D01*
X141568096Y-136036007D01*
X141624453Y-136172063D01*
X141714103Y-136288897D01*
X141830937Y-136378547D01*
X141966993Y-136434904D01*
X141975177Y-136435981D01*
X141975179Y-136435982D01*
X142104812Y-136453048D01*
X142113000Y-136454126D01*
X142121188Y-136453048D01*
X142250821Y-136435982D01*
X142250823Y-136435981D01*
X142259007Y-136434904D01*
X142395063Y-136378547D01*
X142511897Y-136288897D01*
X142601547Y-136172063D01*
X142657904Y-136036007D01*
X142677126Y-135890000D01*
X142657904Y-135743993D01*
X142601547Y-135607937D01*
X142520536Y-135502362D01*
X142494937Y-135436144D01*
X142494500Y-135425660D01*
X142494500Y-119844340D01*
X142514502Y-119776219D01*
X142520527Y-119767650D01*
X142601547Y-119662063D01*
X142657904Y-119526007D01*
X142677126Y-119380000D01*
X142657904Y-119233993D01*
X142601547Y-119097937D01*
X142511897Y-118981103D01*
X142395063Y-118891453D01*
X142259007Y-118835096D01*
X142250823Y-118834019D01*
X142250821Y-118834018D01*
X142121188Y-118816952D01*
X142118575Y-118816608D01*
X164435108Y-118816608D01*
X164435216Y-118819697D01*
X164440911Y-118982773D01*
X164448635Y-119203973D01*
X164449041Y-119207017D01*
X164449042Y-119207027D01*
X164470278Y-119366176D01*
X164499898Y-119588170D01*
X164500598Y-119591154D01*
X164500599Y-119591160D01*
X164557523Y-119833856D01*
X164588407Y-119965530D01*
X164713317Y-120332453D01*
X164873437Y-120685435D01*
X165067238Y-121021108D01*
X165069027Y-121023606D01*
X165069029Y-121023610D01*
X165167615Y-121161313D01*
X165292869Y-121336267D01*
X165548178Y-121627904D01*
X165550426Y-121630015D01*
X165828473Y-121891118D01*
X165828480Y-121891124D01*
X165830728Y-121893235D01*
X165833178Y-121895122D01*
X165833183Y-121895126D01*
X165964477Y-121996236D01*
X166137820Y-122129728D01*
X166140419Y-122131352D01*
X166140429Y-122131359D01*
X166282142Y-122219910D01*
X166466525Y-122335125D01*
X166813704Y-122507467D01*
X167011961Y-122582778D01*
X167173157Y-122644011D01*
X167173162Y-122644013D01*
X167176043Y-122645107D01*
X167550085Y-122746731D01*
X167553128Y-122747246D01*
X167553134Y-122747247D01*
X167929217Y-122810857D01*
X167929224Y-122810858D01*
X167932258Y-122811371D01*
X167935329Y-122811586D01*
X167935331Y-122811586D01*
X168315850Y-122838195D01*
X168315858Y-122838195D01*
X168318916Y-122838409D01*
X168569605Y-122831406D01*
X168703292Y-122827672D01*
X168703295Y-122827672D01*
X168706366Y-122827586D01*
X168709419Y-122827200D01*
X168709423Y-122827200D01*
X168893386Y-122803960D01*
X169090911Y-122779007D01*
X169093915Y-122778325D01*
X169093918Y-122778324D01*
X169465884Y-122693816D01*
X169465890Y-122693814D01*
X169468880Y-122693135D01*
X169613258Y-122645107D01*
X169833742Y-122571762D01*
X169833748Y-122571760D01*
X169836666Y-122570789D01*
X169976439Y-122508558D01*
X170187957Y-122414384D01*
X170187963Y-122414381D01*
X170190757Y-122413137D01*
X170328083Y-122335125D01*
X170525100Y-122223203D01*
X170525099Y-122223203D01*
X170527774Y-122221684D01*
X170658131Y-122129728D01*
X170841970Y-122000045D01*
X170841978Y-122000039D01*
X170844501Y-121998259D01*
X170963982Y-121895126D01*
X171135575Y-121747010D01*
X171137913Y-121744992D01*
X171405211Y-121464302D01*
X171643842Y-121158868D01*
X171645498Y-121156258D01*
X171645504Y-121156250D01*
X171849875Y-120834212D01*
X171849879Y-120834205D01*
X171851529Y-120831605D01*
X172026290Y-120485638D01*
X172027397Y-120482784D01*
X172027401Y-120482775D01*
X172165341Y-120127144D01*
X172165344Y-120127135D01*
X172166456Y-120124268D01*
X172270690Y-119750945D01*
X172337996Y-119369232D01*
X172367732Y-118982773D01*
X172369279Y-118872000D01*
X172367422Y-118834018D01*
X172350495Y-118487934D01*
X172350345Y-118484861D01*
X172293723Y-118101418D01*
X172199954Y-117725330D01*
X172181112Y-117672414D01*
X172070964Y-117363086D01*
X172069932Y-117360187D01*
X171904899Y-117009475D01*
X171706431Y-116676541D01*
X171476421Y-116364563D01*
X171474365Y-116362280D01*
X171474358Y-116362271D01*
X171219134Y-116078816D01*
X171219126Y-116078808D01*
X171217065Y-116076519D01*
X170930839Y-115815159D01*
X170620474Y-115582977D01*
X170567286Y-115550765D01*
X170291562Y-115383780D01*
X170291553Y-115383775D01*
X170288934Y-115382189D01*
X169939382Y-115214712D01*
X169936481Y-115213656D01*
X169578044Y-115083195D01*
X169578041Y-115083194D01*
X169575156Y-115082144D01*
X169572194Y-115081384D01*
X169572186Y-115081381D01*
X169202701Y-114986514D01*
X169202695Y-114986513D01*
X169199732Y-114985752D01*
X168816694Y-114926454D01*
X168429697Y-114904818D01*
X168426619Y-114904947D01*
X168426615Y-114904947D01*
X168175318Y-114915480D01*
X168042435Y-114921049D01*
X168039391Y-114921477D01*
X168039389Y-114921477D01*
X168000617Y-114926926D01*
X167658606Y-114974992D01*
X167281873Y-115066134D01*
X166915831Y-115193603D01*
X166563975Y-115356183D01*
X166229664Y-115552323D01*
X166071505Y-115667232D01*
X165918569Y-115778346D01*
X165918563Y-115778351D01*
X165916088Y-115780149D01*
X165626240Y-116037488D01*
X165624161Y-116039733D01*
X165624154Y-116039740D01*
X165364974Y-116319629D01*
X165362888Y-116321882D01*
X165128545Y-116630618D01*
X164925447Y-116960749D01*
X164755534Y-117309123D01*
X164620427Y-117672414D01*
X164521416Y-118047156D01*
X164459445Y-118429772D01*
X164435108Y-118816608D01*
X142118575Y-118816608D01*
X142113000Y-118815874D01*
X142104812Y-118816952D01*
X141975179Y-118834018D01*
X141975177Y-118834019D01*
X141966993Y-118835096D01*
X141830937Y-118891453D01*
X141714103Y-118981103D01*
X141624453Y-119097937D01*
X141568096Y-119233993D01*
X141548874Y-119380000D01*
X141568096Y-119526007D01*
X141624453Y-119662063D01*
X141705464Y-119767638D01*
X141731063Y-119833856D01*
X141731500Y-119844340D01*
X141731500Y-135425660D01*
X141711498Y-135493781D01*
X141705473Y-135502350D01*
X141624453Y-135607937D01*
X141568096Y-135743993D01*
X141548874Y-135890000D01*
X75184500Y-135890000D01*
X75184500Y-125476000D01*
X130626874Y-125476000D01*
X130646096Y-125622007D01*
X130702453Y-125758063D01*
X130792103Y-125874897D01*
X130908937Y-125964547D01*
X131044993Y-126020904D01*
X131053177Y-126021981D01*
X131053179Y-126021982D01*
X131182812Y-126039048D01*
X131191000Y-126040126D01*
X131199188Y-126039048D01*
X131328821Y-126021982D01*
X131328823Y-126021981D01*
X131337007Y-126020904D01*
X131473063Y-125964547D01*
X131589897Y-125874897D01*
X131679547Y-125758063D01*
X131735904Y-125622007D01*
X131755126Y-125476000D01*
X131735904Y-125329993D01*
X131679547Y-125193937D01*
X131598536Y-125088362D01*
X131572937Y-125022144D01*
X131572500Y-125011660D01*
X131572500Y-119844340D01*
X131592502Y-119776219D01*
X131598527Y-119767650D01*
X131679547Y-119662063D01*
X131735904Y-119526007D01*
X131755126Y-119380000D01*
X131735904Y-119233993D01*
X131679547Y-119097937D01*
X131589897Y-118981103D01*
X131473063Y-118891453D01*
X131337007Y-118835096D01*
X131328823Y-118834019D01*
X131328821Y-118834018D01*
X131199188Y-118816952D01*
X131191000Y-118815874D01*
X131182812Y-118816952D01*
X131053179Y-118834018D01*
X131053177Y-118834019D01*
X131044993Y-118835096D01*
X130908937Y-118891453D01*
X130792103Y-118981103D01*
X130702453Y-119097937D01*
X130646096Y-119233993D01*
X130626874Y-119380000D01*
X130646096Y-119526007D01*
X130702453Y-119662063D01*
X130783464Y-119767638D01*
X130809063Y-119833856D01*
X130809500Y-119844340D01*
X130809500Y-125011660D01*
X130789498Y-125079781D01*
X130783473Y-125088350D01*
X130702453Y-125193937D01*
X130646096Y-125329993D01*
X130626874Y-125476000D01*
X75184500Y-125476000D01*
X75184500Y-124333000D01*
X119704874Y-124333000D01*
X119724096Y-124479007D01*
X119780453Y-124615063D01*
X119870103Y-124731897D01*
X119986937Y-124821547D01*
X120122993Y-124877904D01*
X120131177Y-124878981D01*
X120131179Y-124878982D01*
X120260812Y-124896048D01*
X120269000Y-124897126D01*
X120277188Y-124896048D01*
X120406821Y-124878982D01*
X120406823Y-124878981D01*
X120415007Y-124877904D01*
X120551063Y-124821547D01*
X120667897Y-124731897D01*
X120757547Y-124615063D01*
X120813904Y-124479007D01*
X120833126Y-124333000D01*
X120813904Y-124186993D01*
X120757547Y-124050937D01*
X120676536Y-123945362D01*
X120650937Y-123879144D01*
X120650500Y-123868660D01*
X120650500Y-119844340D01*
X120670502Y-119776219D01*
X120676527Y-119767650D01*
X120757547Y-119662063D01*
X120813904Y-119526007D01*
X120833126Y-119380000D01*
X120813904Y-119233993D01*
X120757547Y-119097937D01*
X120667897Y-118981103D01*
X120551063Y-118891453D01*
X120415007Y-118835096D01*
X120406823Y-118834019D01*
X120406821Y-118834018D01*
X120277188Y-118816952D01*
X120269000Y-118815874D01*
X120260812Y-118816952D01*
X120131179Y-118834018D01*
X120131177Y-118834019D01*
X120122993Y-118835096D01*
X119986937Y-118891453D01*
X119870103Y-118981103D01*
X119780453Y-119097937D01*
X119724096Y-119233993D01*
X119704874Y-119380000D01*
X119724096Y-119526007D01*
X119780453Y-119662063D01*
X119861464Y-119767638D01*
X119887063Y-119833856D01*
X119887500Y-119844340D01*
X119887500Y-123868660D01*
X119867498Y-123936781D01*
X119861473Y-123945350D01*
X119780453Y-124050937D01*
X119724096Y-124186993D01*
X119704874Y-124333000D01*
X75184500Y-124333000D01*
X75184500Y-118816608D01*
X77821108Y-118816608D01*
X77821216Y-118819697D01*
X77826911Y-118982773D01*
X77834635Y-119203973D01*
X77835041Y-119207017D01*
X77835042Y-119207027D01*
X77856278Y-119366176D01*
X77885898Y-119588170D01*
X77886598Y-119591154D01*
X77886599Y-119591160D01*
X77943523Y-119833856D01*
X77974407Y-119965530D01*
X78099317Y-120332453D01*
X78259437Y-120685435D01*
X78453238Y-121021108D01*
X78455027Y-121023606D01*
X78455029Y-121023610D01*
X78553615Y-121161313D01*
X78678869Y-121336267D01*
X78934178Y-121627904D01*
X78936426Y-121630015D01*
X79214473Y-121891118D01*
X79214480Y-121891124D01*
X79216728Y-121893235D01*
X79219178Y-121895122D01*
X79219183Y-121895126D01*
X79350477Y-121996236D01*
X79523820Y-122129728D01*
X79526419Y-122131352D01*
X79526429Y-122131359D01*
X79668142Y-122219910D01*
X79852525Y-122335125D01*
X80199704Y-122507467D01*
X80397961Y-122582778D01*
X80559157Y-122644011D01*
X80559162Y-122644013D01*
X80562043Y-122645107D01*
X80936085Y-122746731D01*
X80939128Y-122747246D01*
X80939134Y-122747247D01*
X81315217Y-122810857D01*
X81315224Y-122810858D01*
X81318258Y-122811371D01*
X81321329Y-122811586D01*
X81321331Y-122811586D01*
X81701850Y-122838195D01*
X81701858Y-122838195D01*
X81704916Y-122838409D01*
X81955605Y-122831406D01*
X82089292Y-122827672D01*
X82089295Y-122827672D01*
X82092366Y-122827586D01*
X82095419Y-122827200D01*
X82095423Y-122827200D01*
X82279386Y-122803960D01*
X82476911Y-122779007D01*
X82479915Y-122778325D01*
X82479918Y-122778324D01*
X82851884Y-122693816D01*
X82851890Y-122693814D01*
X82854880Y-122693135D01*
X82999258Y-122645107D01*
X83219742Y-122571762D01*
X83219748Y-122571760D01*
X83222666Y-122570789D01*
X83362439Y-122508558D01*
X83573957Y-122414384D01*
X83573963Y-122414381D01*
X83576757Y-122413137D01*
X83714083Y-122335125D01*
X83911100Y-122223203D01*
X83911099Y-122223203D01*
X83913774Y-122221684D01*
X84044131Y-122129728D01*
X84227970Y-122000045D01*
X84227978Y-122000039D01*
X84230501Y-121998259D01*
X84349982Y-121895126D01*
X84521575Y-121747010D01*
X84523913Y-121744992D01*
X84791211Y-121464302D01*
X85029842Y-121158868D01*
X85031498Y-121156258D01*
X85031504Y-121156250D01*
X85235875Y-120834212D01*
X85235879Y-120834205D01*
X85237529Y-120831605D01*
X85412290Y-120485638D01*
X85413397Y-120482784D01*
X85413401Y-120482775D01*
X85551341Y-120127144D01*
X85551344Y-120127135D01*
X85552456Y-120124268D01*
X85656690Y-119750945D01*
X85723996Y-119369232D01*
X85753732Y-118982773D01*
X85755279Y-118872000D01*
X85753422Y-118834018D01*
X85736495Y-118487934D01*
X85736345Y-118484861D01*
X85679723Y-118101418D01*
X85585954Y-117725330D01*
X85567112Y-117672414D01*
X85456964Y-117363086D01*
X85455932Y-117360187D01*
X85290899Y-117009475D01*
X85092431Y-116676541D01*
X84862421Y-116364563D01*
X84860365Y-116362280D01*
X84860358Y-116362271D01*
X84605134Y-116078816D01*
X84605126Y-116078808D01*
X84603065Y-116076519D01*
X84316839Y-115815159D01*
X84006474Y-115582977D01*
X83953286Y-115550765D01*
X83677562Y-115383780D01*
X83677553Y-115383775D01*
X83674934Y-115382189D01*
X83325382Y-115214712D01*
X83322481Y-115213656D01*
X82964044Y-115083195D01*
X82964041Y-115083194D01*
X82961156Y-115082144D01*
X82958194Y-115081384D01*
X82958186Y-115081381D01*
X82588701Y-114986514D01*
X82588695Y-114986513D01*
X82585732Y-114985752D01*
X82202694Y-114926454D01*
X81815697Y-114904818D01*
X81812619Y-114904947D01*
X81812615Y-114904947D01*
X81561318Y-114915480D01*
X81428435Y-114921049D01*
X81425391Y-114921477D01*
X81425389Y-114921477D01*
X81386617Y-114926926D01*
X81044606Y-114974992D01*
X80667873Y-115066134D01*
X80301831Y-115193603D01*
X79949975Y-115356183D01*
X79615664Y-115552323D01*
X79457505Y-115667232D01*
X79304569Y-115778346D01*
X79304563Y-115778351D01*
X79302088Y-115780149D01*
X79012240Y-116037488D01*
X79010161Y-116039733D01*
X79010154Y-116039740D01*
X78750974Y-116319629D01*
X78748888Y-116321882D01*
X78514545Y-116630618D01*
X78311447Y-116960749D01*
X78141534Y-117309123D01*
X78006427Y-117672414D01*
X77907416Y-118047156D01*
X77845445Y-118429772D01*
X77821108Y-118816608D01*
X75184500Y-118816608D01*
X75184500Y-113919000D01*
X117672874Y-113919000D01*
X117692096Y-114065007D01*
X117748453Y-114201063D01*
X117838103Y-114317897D01*
X117954937Y-114407547D01*
X118090993Y-114463904D01*
X118099177Y-114464981D01*
X118099179Y-114464982D01*
X118228812Y-114482048D01*
X118237000Y-114483126D01*
X118245188Y-114482048D01*
X118374821Y-114464982D01*
X118374823Y-114464981D01*
X118383007Y-114463904D01*
X118519063Y-114407547D01*
X118522904Y-114404600D01*
X118590361Y-114388234D01*
X118657453Y-114411453D01*
X118701342Y-114467260D01*
X118707806Y-114534955D01*
X118708096Y-114534993D01*
X118688874Y-114681000D01*
X118708096Y-114827007D01*
X118764453Y-114963063D01*
X118854103Y-115079897D01*
X118970937Y-115169547D01*
X119106993Y-115225904D01*
X119115177Y-115226981D01*
X119115179Y-115226982D01*
X119244812Y-115244048D01*
X119253000Y-115245126D01*
X119261188Y-115244048D01*
X119390821Y-115226982D01*
X119390823Y-115226981D01*
X119399007Y-115225904D01*
X119535063Y-115169547D01*
X119640638Y-115088536D01*
X119706856Y-115062937D01*
X119717340Y-115062500D01*
X149903660Y-115062500D01*
X149971781Y-115082502D01*
X149980350Y-115088527D01*
X150085937Y-115169547D01*
X150221993Y-115225904D01*
X150230177Y-115226981D01*
X150230179Y-115226982D01*
X150359812Y-115244048D01*
X150368000Y-115245126D01*
X150376188Y-115244048D01*
X150505821Y-115226982D01*
X150505823Y-115226981D01*
X150514007Y-115225904D01*
X150650063Y-115169547D01*
X150766897Y-115079897D01*
X150856547Y-114963063D01*
X150912904Y-114827007D01*
X150932126Y-114681000D01*
X150923559Y-114615927D01*
X150934498Y-114545779D01*
X150981626Y-114492680D01*
X151049980Y-114473490D01*
X151064926Y-114474559D01*
X151130000Y-114483126D01*
X151138188Y-114482048D01*
X151267821Y-114464982D01*
X151267823Y-114464981D01*
X151276007Y-114463904D01*
X151412063Y-114407547D01*
X151528897Y-114317897D01*
X151618547Y-114201063D01*
X151674904Y-114065007D01*
X151694126Y-113919000D01*
X151685559Y-113853927D01*
X151696498Y-113783779D01*
X151743626Y-113730680D01*
X151811980Y-113711490D01*
X151826926Y-113712559D01*
X151892000Y-113721126D01*
X151900188Y-113720048D01*
X152029821Y-113702982D01*
X152029823Y-113702981D01*
X152038007Y-113701904D01*
X152174063Y-113645547D01*
X152290897Y-113555897D01*
X152380547Y-113439063D01*
X152436904Y-113303007D01*
X152456126Y-113157000D01*
X152447559Y-113091927D01*
X152458498Y-113021779D01*
X152505626Y-112968680D01*
X152573980Y-112949490D01*
X152588926Y-112950559D01*
X152654000Y-112959126D01*
X152662188Y-112958048D01*
X152791821Y-112940982D01*
X152791823Y-112940981D01*
X152800007Y-112939904D01*
X152936063Y-112883547D01*
X153052897Y-112793897D01*
X153142547Y-112677063D01*
X153198904Y-112541007D01*
X153218126Y-112395000D01*
X153209559Y-112329927D01*
X153220498Y-112259779D01*
X153267626Y-112206680D01*
X153335980Y-112187490D01*
X153350926Y-112188559D01*
X153416000Y-112197126D01*
X153424188Y-112196048D01*
X153553821Y-112178982D01*
X153553823Y-112178981D01*
X153562007Y-112177904D01*
X153698063Y-112121547D01*
X153814897Y-112031897D01*
X153904547Y-111915063D01*
X153960904Y-111779007D01*
X153980126Y-111633000D01*
X153971559Y-111567927D01*
X153982498Y-111497779D01*
X154029626Y-111444680D01*
X154097980Y-111425490D01*
X154112926Y-111426559D01*
X154178000Y-111435126D01*
X154186188Y-111434048D01*
X154315821Y-111416982D01*
X154315823Y-111416981D01*
X154324007Y-111415904D01*
X154460063Y-111359547D01*
X154576897Y-111269897D01*
X154666547Y-111153063D01*
X154722904Y-111017007D01*
X154742126Y-110871000D01*
X154722904Y-110724993D01*
X154666547Y-110588937D01*
X154576897Y-110472103D01*
X154460063Y-110382453D01*
X154324007Y-110326096D01*
X154315823Y-110325019D01*
X154315821Y-110325018D01*
X154186188Y-110307952D01*
X154178000Y-110306874D01*
X154169812Y-110307952D01*
X154040179Y-110325018D01*
X154040177Y-110325019D01*
X154031993Y-110326096D01*
X153895937Y-110382453D01*
X153790362Y-110463464D01*
X153724144Y-110489063D01*
X153713660Y-110489500D01*
X140545340Y-110489500D01*
X140477219Y-110469498D01*
X140468650Y-110463473D01*
X140363063Y-110382453D01*
X140227007Y-110326096D01*
X140218823Y-110325019D01*
X140218821Y-110325018D01*
X140089188Y-110307952D01*
X140081000Y-110306874D01*
X140072812Y-110307952D01*
X139943179Y-110325018D01*
X139943177Y-110325019D01*
X139934993Y-110326096D01*
X139798937Y-110382453D01*
X139682103Y-110472103D01*
X139592453Y-110588937D01*
X139536096Y-110724993D01*
X139516874Y-110871000D01*
X139536096Y-111017007D01*
X139592453Y-111153063D01*
X139682103Y-111269897D01*
X139798937Y-111359547D01*
X139934993Y-111415904D01*
X139943177Y-111416981D01*
X139943179Y-111416982D01*
X140072812Y-111434048D01*
X140081000Y-111435126D01*
X140089188Y-111434048D01*
X140218821Y-111416982D01*
X140218823Y-111416981D01*
X140227007Y-111415904D01*
X140363063Y-111359547D01*
X140366904Y-111356600D01*
X140434361Y-111340234D01*
X140501453Y-111363453D01*
X140545342Y-111419260D01*
X140551806Y-111486955D01*
X140552096Y-111486993D01*
X140532874Y-111633000D01*
X140552096Y-111779007D01*
X140555255Y-111786633D01*
X140555257Y-111786640D01*
X140577062Y-111839281D01*
X140584652Y-111909870D01*
X140552874Y-111973358D01*
X140491816Y-112009586D01*
X140460654Y-112013500D01*
X129623340Y-112013500D01*
X129555219Y-111993498D01*
X129546650Y-111987473D01*
X129441063Y-111906453D01*
X129305007Y-111850096D01*
X129296823Y-111849019D01*
X129296821Y-111849018D01*
X129167188Y-111831952D01*
X129159000Y-111830874D01*
X129150812Y-111831952D01*
X129021179Y-111849018D01*
X129021177Y-111849019D01*
X129012993Y-111850096D01*
X128876937Y-111906453D01*
X128760103Y-111996103D01*
X128670453Y-112112937D01*
X128614096Y-112248993D01*
X128594874Y-112395000D01*
X128614096Y-112541007D01*
X128670453Y-112677063D01*
X128760103Y-112793897D01*
X128876937Y-112883547D01*
X129012993Y-112939904D01*
X129021177Y-112940981D01*
X129021179Y-112940982D01*
X129150812Y-112958048D01*
X129159000Y-112959126D01*
X129167188Y-112958048D01*
X129296821Y-112940982D01*
X129296823Y-112940981D01*
X129305007Y-112939904D01*
X129441063Y-112883547D01*
X129444904Y-112880600D01*
X129512361Y-112864234D01*
X129579453Y-112887453D01*
X129623342Y-112943260D01*
X129629806Y-113010955D01*
X129630096Y-113010993D01*
X129610874Y-113157000D01*
X129630096Y-113303007D01*
X129633255Y-113310633D01*
X129633257Y-113310640D01*
X129655062Y-113363281D01*
X129662652Y-113433870D01*
X129630874Y-113497358D01*
X129569816Y-113533586D01*
X129538654Y-113537500D01*
X118701340Y-113537500D01*
X118633219Y-113517498D01*
X118624650Y-113511473D01*
X118519063Y-113430453D01*
X118383007Y-113374096D01*
X118374823Y-113373019D01*
X118374821Y-113373018D01*
X118245188Y-113355952D01*
X118237000Y-113354874D01*
X118228812Y-113355952D01*
X118099179Y-113373018D01*
X118099177Y-113373019D01*
X118090993Y-113374096D01*
X117954937Y-113430453D01*
X117838103Y-113520103D01*
X117748453Y-113636937D01*
X117692096Y-113772993D01*
X117672874Y-113919000D01*
X75184500Y-113919000D01*
X75184500Y-100216933D01*
X86445490Y-100216933D01*
X86445491Y-101967066D01*
X86460256Y-102041301D01*
X86516506Y-102125484D01*
X86600689Y-102181734D01*
X86674923Y-102196500D01*
X87549848Y-102196500D01*
X88425056Y-102196499D01*
X88460808Y-102189388D01*
X88487116Y-102184156D01*
X88487118Y-102184155D01*
X88499291Y-102181734D01*
X88509611Y-102174839D01*
X88509612Y-102174838D01*
X88573158Y-102132377D01*
X88583474Y-102125484D01*
X88639724Y-102041301D01*
X88654490Y-101967067D01*
X88654489Y-100216934D01*
X88639724Y-100142699D01*
X88583474Y-100058516D01*
X88499291Y-100002266D01*
X88425057Y-99987500D01*
X87550132Y-99987500D01*
X86674924Y-99987501D01*
X86639172Y-99994612D01*
X86612864Y-99999844D01*
X86612862Y-99999845D01*
X86600689Y-100002266D01*
X86590369Y-100009161D01*
X86590368Y-100009162D01*
X86529975Y-100049516D01*
X86516506Y-100058516D01*
X86460256Y-100142699D01*
X86445490Y-100216933D01*
X75184500Y-100216933D01*
X75184500Y-95136933D01*
X86525500Y-95136933D01*
X86525501Y-96887066D01*
X86540266Y-96961301D01*
X86596516Y-97045484D01*
X86680699Y-97101734D01*
X86754933Y-97116500D01*
X87629858Y-97116500D01*
X88505066Y-97116499D01*
X88540818Y-97109388D01*
X88567126Y-97104156D01*
X88567128Y-97104155D01*
X88579301Y-97101734D01*
X88589621Y-97094839D01*
X88589622Y-97094838D01*
X88653168Y-97052377D01*
X88663484Y-97045484D01*
X88719734Y-96961301D01*
X88734500Y-96887067D01*
X88734499Y-95136934D01*
X88719734Y-95062699D01*
X88663484Y-94978516D01*
X88579301Y-94922266D01*
X88505067Y-94907500D01*
X87630142Y-94907500D01*
X86754934Y-94907501D01*
X86719182Y-94914612D01*
X86692874Y-94919844D01*
X86692872Y-94919845D01*
X86680699Y-94922266D01*
X86670379Y-94929161D01*
X86670378Y-94929162D01*
X86609985Y-94969516D01*
X86596516Y-94978516D01*
X86540266Y-95062699D01*
X86525500Y-95136933D01*
X75184500Y-95136933D01*
X75184500Y-79958677D01*
X179994524Y-79958677D01*
X180022351Y-80199176D01*
X180088271Y-80432133D01*
X180190589Y-80651553D01*
X180193430Y-80655733D01*
X180193432Y-80655737D01*
X180271997Y-80771342D01*
X180326671Y-80851793D01*
X180330148Y-80855470D01*
X180330153Y-80855476D01*
X180420114Y-80950606D01*
X180493018Y-81027699D01*
X180685348Y-81174747D01*
X180898715Y-81289153D01*
X180903496Y-81290799D01*
X180903500Y-81290801D01*
X181035502Y-81336253D01*
X181127629Y-81367975D01*
X181227763Y-81385271D01*
X181362290Y-81408508D01*
X181362296Y-81408509D01*
X181366200Y-81409183D01*
X181370161Y-81409363D01*
X181370162Y-81409363D01*
X181393784Y-81410436D01*
X181393803Y-81410436D01*
X181395203Y-81410500D01*
X184063841Y-81410500D01*
X184066349Y-81410298D01*
X184066354Y-81410298D01*
X184239283Y-81396385D01*
X184239288Y-81396384D01*
X184244324Y-81395979D01*
X184249232Y-81394774D01*
X184249235Y-81394773D01*
X184474525Y-81339436D01*
X184479439Y-81338229D01*
X184484091Y-81336254D01*
X184484095Y-81336253D01*
X184697642Y-81245607D01*
X184697643Y-81245607D01*
X184702297Y-81243631D01*
X184907163Y-81114620D01*
X185088768Y-80954514D01*
X185242439Y-80767432D01*
X185364222Y-80558188D01*
X185366035Y-80553465D01*
X185449169Y-80336894D01*
X185449170Y-80336891D01*
X185450984Y-80332165D01*
X185500493Y-80095177D01*
X185511476Y-79853323D01*
X185483649Y-79612824D01*
X185424889Y-79405168D01*
X185419107Y-79384736D01*
X185419106Y-79384734D01*
X185417729Y-79379867D01*
X185315411Y-79160447D01*
X185309956Y-79152419D01*
X185182178Y-78964399D01*
X185182177Y-78964398D01*
X185179329Y-78960207D01*
X185175852Y-78956530D01*
X185175847Y-78956524D01*
X185016461Y-78787980D01*
X185016462Y-78787980D01*
X185012982Y-78784301D01*
X184820652Y-78637253D01*
X184781704Y-78616369D01*
X184611746Y-78525239D01*
X184607285Y-78522847D01*
X184602504Y-78521201D01*
X184602500Y-78521199D01*
X184383160Y-78445674D01*
X184378371Y-78444025D01*
X184278237Y-78426729D01*
X184143710Y-78403492D01*
X184143704Y-78403491D01*
X184139800Y-78402817D01*
X184135839Y-78402637D01*
X184135838Y-78402637D01*
X184112216Y-78401564D01*
X184112197Y-78401564D01*
X184110797Y-78401500D01*
X181442159Y-78401500D01*
X181439651Y-78401702D01*
X181439646Y-78401702D01*
X181266717Y-78415615D01*
X181266712Y-78415616D01*
X181261676Y-78416021D01*
X181256768Y-78417226D01*
X181256765Y-78417227D01*
X181140951Y-78445674D01*
X181026561Y-78473771D01*
X181021909Y-78475746D01*
X181021905Y-78475747D01*
X180905310Y-78525239D01*
X180803703Y-78568369D01*
X180598837Y-78697380D01*
X180417232Y-78857486D01*
X180263561Y-79044568D01*
X180261019Y-79048936D01*
X180168636Y-79207666D01*
X180141778Y-79253812D01*
X180139965Y-79258535D01*
X180095149Y-79375286D01*
X180055016Y-79479835D01*
X180005507Y-79716823D01*
X179994524Y-79958677D01*
X75184500Y-79958677D01*
X75184500Y-78089786D01*
X176673500Y-78089786D01*
X176688305Y-78264272D01*
X176689645Y-78269436D01*
X176689646Y-78269440D01*
X176742368Y-78472564D01*
X176747120Y-78490873D01*
X176749312Y-78495739D01*
X176840145Y-78697380D01*
X176843273Y-78704325D01*
X176974016Y-78898525D01*
X177135610Y-79067920D01*
X177323436Y-79207666D01*
X177532122Y-79313768D01*
X177755702Y-79383191D01*
X177760989Y-79383892D01*
X177760990Y-79383892D01*
X177982498Y-79413251D01*
X177982502Y-79413251D01*
X177987782Y-79413951D01*
X177993111Y-79413751D01*
X177993113Y-79413751D01*
X178104755Y-79409559D01*
X178221727Y-79405168D01*
X178450847Y-79357094D01*
X178455803Y-79355137D01*
X178455809Y-79355135D01*
X178663627Y-79273063D01*
X178663629Y-79273062D01*
X178668592Y-79271102D01*
X178704284Y-79249444D01*
X178864175Y-79152419D01*
X178864174Y-79152419D01*
X178868735Y-79149652D01*
X178962923Y-79067920D01*
X179041521Y-78999717D01*
X179041523Y-78999715D01*
X179045554Y-78996217D01*
X179080528Y-78953563D01*
X179190609Y-78819311D01*
X179190613Y-78819305D01*
X179193993Y-78815183D01*
X179309807Y-78611726D01*
X179389685Y-78391665D01*
X179390635Y-78386413D01*
X179430606Y-78165376D01*
X179430607Y-78165368D01*
X179431344Y-78161292D01*
X179432500Y-78136777D01*
X179432500Y-75722214D01*
X179417695Y-75547728D01*
X179414996Y-75537329D01*
X179360221Y-75326292D01*
X179360219Y-75326288D01*
X179358880Y-75321127D01*
X179348004Y-75296984D01*
X179264917Y-75112536D01*
X179264916Y-75112533D01*
X179262727Y-75107675D01*
X179131984Y-74913475D01*
X179085368Y-74864608D01*
X178974077Y-74747945D01*
X178970390Y-74744080D01*
X178837336Y-74645085D01*
X178786842Y-74607517D01*
X178786843Y-74607517D01*
X178782564Y-74604334D01*
X178573878Y-74498232D01*
X178350298Y-74428809D01*
X178345011Y-74428108D01*
X178345010Y-74428108D01*
X178123502Y-74398749D01*
X178123498Y-74398749D01*
X178118218Y-74398049D01*
X178112889Y-74398249D01*
X178112887Y-74398249D01*
X178001245Y-74402441D01*
X177884273Y-74406832D01*
X177655153Y-74454906D01*
X177650197Y-74456863D01*
X177650191Y-74456865D01*
X177442373Y-74538937D01*
X177442371Y-74538938D01*
X177437408Y-74540898D01*
X177432849Y-74543665D01*
X177432846Y-74543666D01*
X177283171Y-74634492D01*
X177237265Y-74662348D01*
X177233235Y-74665845D01*
X177138623Y-74747945D01*
X177060446Y-74815783D01*
X177057059Y-74819914D01*
X176915391Y-74992689D01*
X176915387Y-74992695D01*
X176912007Y-74996817D01*
X176796193Y-75200274D01*
X176716315Y-75420335D01*
X176715366Y-75425584D01*
X176715365Y-75425587D01*
X176675394Y-75646624D01*
X176675393Y-75646632D01*
X176674656Y-75650708D01*
X176673500Y-75675223D01*
X176673500Y-78089786D01*
X75184500Y-78089786D01*
X75184500Y-70302608D01*
X77821108Y-70302608D01*
X77821216Y-70305697D01*
X77826911Y-70468773D01*
X77834635Y-70689973D01*
X77885898Y-71074170D01*
X77886598Y-71077154D01*
X77886599Y-71077160D01*
X77924772Y-71239911D01*
X77974407Y-71451530D01*
X78099317Y-71818453D01*
X78259437Y-72171435D01*
X78453238Y-72507108D01*
X78455027Y-72509606D01*
X78455029Y-72509610D01*
X78628191Y-72751480D01*
X78678869Y-72822267D01*
X78934178Y-73113904D01*
X78936426Y-73116015D01*
X79214473Y-73377118D01*
X79214480Y-73377124D01*
X79216728Y-73379235D01*
X79219178Y-73381122D01*
X79219183Y-73381126D01*
X79237513Y-73395242D01*
X79523820Y-73615728D01*
X79526419Y-73617352D01*
X79526429Y-73617359D01*
X79668142Y-73705910D01*
X79852525Y-73821125D01*
X80199704Y-73993467D01*
X80397961Y-74068778D01*
X80559157Y-74130011D01*
X80559162Y-74130013D01*
X80562043Y-74131107D01*
X80936085Y-74232731D01*
X80939128Y-74233246D01*
X80939134Y-74233247D01*
X81315217Y-74296857D01*
X81315224Y-74296858D01*
X81318258Y-74297371D01*
X81321329Y-74297586D01*
X81321331Y-74297586D01*
X81701850Y-74324195D01*
X81701858Y-74324195D01*
X81704916Y-74324409D01*
X81955605Y-74317406D01*
X82089292Y-74313672D01*
X82089295Y-74313672D01*
X82092366Y-74313586D01*
X82095419Y-74313200D01*
X82095423Y-74313200D01*
X82279386Y-74289960D01*
X82476911Y-74265007D01*
X82479915Y-74264325D01*
X82479918Y-74264324D01*
X82851884Y-74179816D01*
X82851890Y-74179814D01*
X82854880Y-74179135D01*
X82898950Y-74164475D01*
X83219742Y-74057762D01*
X83219748Y-74057760D01*
X83222666Y-74056789D01*
X83362439Y-73994558D01*
X83573957Y-73900384D01*
X83573963Y-73900381D01*
X83576757Y-73899137D01*
X83714083Y-73821125D01*
X83911100Y-73709203D01*
X83911099Y-73709203D01*
X83913774Y-73707684D01*
X83992712Y-73652000D01*
X84227970Y-73486045D01*
X84227978Y-73486039D01*
X84230501Y-73484259D01*
X84322756Y-73404627D01*
X84521575Y-73233010D01*
X84523913Y-73230992D01*
X84791211Y-72950302D01*
X85029842Y-72644868D01*
X85031498Y-72642258D01*
X85031504Y-72642250D01*
X85235875Y-72320212D01*
X85235879Y-72320205D01*
X85237529Y-72317605D01*
X85252621Y-72287729D01*
X85410905Y-71974379D01*
X85412290Y-71971638D01*
X85413397Y-71968784D01*
X85413401Y-71968775D01*
X85551341Y-71613144D01*
X85551344Y-71613135D01*
X85552456Y-71610268D01*
X85656690Y-71236945D01*
X85723996Y-70855232D01*
X85753732Y-70468773D01*
X85755279Y-70358000D01*
X85752570Y-70302608D01*
X164435108Y-70302608D01*
X164435216Y-70305697D01*
X164440911Y-70468773D01*
X164448635Y-70689973D01*
X164499898Y-71074170D01*
X164500598Y-71077154D01*
X164500599Y-71077160D01*
X164538772Y-71239911D01*
X164588407Y-71451530D01*
X164713317Y-71818453D01*
X164873437Y-72171435D01*
X165067238Y-72507108D01*
X165069027Y-72509606D01*
X165069029Y-72509610D01*
X165242191Y-72751480D01*
X165292869Y-72822267D01*
X165548178Y-73113904D01*
X165550426Y-73116015D01*
X165828473Y-73377118D01*
X165828480Y-73377124D01*
X165830728Y-73379235D01*
X165833178Y-73381122D01*
X165833183Y-73381126D01*
X165851513Y-73395242D01*
X166137820Y-73615728D01*
X166140419Y-73617352D01*
X166140429Y-73617359D01*
X166282142Y-73705910D01*
X166466525Y-73821125D01*
X166813704Y-73993467D01*
X167011961Y-74068778D01*
X167173157Y-74130011D01*
X167173162Y-74130013D01*
X167176043Y-74131107D01*
X167550085Y-74232731D01*
X167553128Y-74233246D01*
X167553134Y-74233247D01*
X167929217Y-74296857D01*
X167929224Y-74296858D01*
X167932258Y-74297371D01*
X167935329Y-74297586D01*
X167935331Y-74297586D01*
X168315850Y-74324195D01*
X168315858Y-74324195D01*
X168318916Y-74324409D01*
X168569605Y-74317406D01*
X168703292Y-74313672D01*
X168703295Y-74313672D01*
X168706366Y-74313586D01*
X168709419Y-74313200D01*
X168709423Y-74313200D01*
X168893386Y-74289960D01*
X169090911Y-74265007D01*
X169093915Y-74264325D01*
X169093918Y-74264324D01*
X169465884Y-74179816D01*
X169465890Y-74179814D01*
X169468880Y-74179135D01*
X169494294Y-74170681D01*
X180012142Y-74170681D01*
X180068967Y-74407373D01*
X180072016Y-74416758D01*
X180166592Y-74645085D01*
X180171073Y-74653879D01*
X180300208Y-74864608D01*
X180306001Y-74872581D01*
X180466516Y-75060520D01*
X180473480Y-75067484D01*
X180661419Y-75227999D01*
X180669392Y-75233792D01*
X180880121Y-75362927D01*
X180888915Y-75367408D01*
X181117242Y-75461984D01*
X181126627Y-75465033D01*
X181366940Y-75522728D01*
X181376687Y-75524271D01*
X181561376Y-75538807D01*
X181566302Y-75539000D01*
X182480885Y-75539000D01*
X182496124Y-75534525D01*
X182497329Y-75533135D01*
X182499000Y-75525452D01*
X182499000Y-75520885D01*
X183007000Y-75520885D01*
X183011475Y-75536124D01*
X183012865Y-75537329D01*
X183020548Y-75539000D01*
X183939698Y-75539000D01*
X183944624Y-75538807D01*
X184129313Y-75524271D01*
X184139060Y-75522728D01*
X184379373Y-75465033D01*
X184388758Y-75461984D01*
X184617085Y-75367408D01*
X184625879Y-75362927D01*
X184836608Y-75233792D01*
X184844581Y-75227999D01*
X185032520Y-75067484D01*
X185039484Y-75060520D01*
X185199999Y-74872581D01*
X185205792Y-74864608D01*
X185334927Y-74653879D01*
X185339408Y-74645085D01*
X185433984Y-74416758D01*
X185437033Y-74407373D01*
X185493447Y-74172392D01*
X185491469Y-74162971D01*
X185480002Y-74160000D01*
X183025115Y-74160000D01*
X183009876Y-74164475D01*
X183008671Y-74165865D01*
X183007000Y-74173548D01*
X183007000Y-75520885D01*
X182499000Y-75520885D01*
X182499000Y-74178115D01*
X182494525Y-74162876D01*
X182493135Y-74161671D01*
X182485452Y-74160000D01*
X180028055Y-74160000D01*
X180013262Y-74164344D01*
X180012142Y-74170681D01*
X169494294Y-74170681D01*
X169512950Y-74164475D01*
X169833742Y-74057762D01*
X169833748Y-74057760D01*
X169836666Y-74056789D01*
X169976439Y-73994558D01*
X170187957Y-73900384D01*
X170187963Y-73900381D01*
X170190757Y-73899137D01*
X170328083Y-73821125D01*
X170525100Y-73709203D01*
X170525099Y-73709203D01*
X170527774Y-73707684D01*
X170606712Y-73652000D01*
X170624279Y-73639608D01*
X180012553Y-73639608D01*
X180014531Y-73649029D01*
X180025998Y-73652000D01*
X182480885Y-73652000D01*
X182496124Y-73647525D01*
X182497329Y-73646135D01*
X182499000Y-73638452D01*
X182499000Y-73633885D01*
X183007000Y-73633885D01*
X183011475Y-73649124D01*
X183012865Y-73650329D01*
X183020548Y-73652000D01*
X185477945Y-73652000D01*
X185492738Y-73647656D01*
X185493858Y-73641319D01*
X185437033Y-73404627D01*
X185433984Y-73395242D01*
X185339408Y-73166915D01*
X185334927Y-73158121D01*
X185205792Y-72947392D01*
X185199999Y-72939419D01*
X185039484Y-72751480D01*
X185032520Y-72744516D01*
X184844581Y-72584001D01*
X184836608Y-72578208D01*
X184625879Y-72449073D01*
X184617085Y-72444592D01*
X184388758Y-72350016D01*
X184379373Y-72346967D01*
X184139060Y-72289272D01*
X184129313Y-72287729D01*
X183944624Y-72273193D01*
X183939697Y-72273000D01*
X183025115Y-72273000D01*
X183009876Y-72277475D01*
X183008671Y-72278865D01*
X183007000Y-72286548D01*
X183007000Y-73633885D01*
X182499000Y-73633885D01*
X182499000Y-72291115D01*
X182494525Y-72275876D01*
X182493135Y-72274671D01*
X182485452Y-72273000D01*
X181566303Y-72273000D01*
X181561376Y-72273193D01*
X181376687Y-72287729D01*
X181366940Y-72289272D01*
X181126627Y-72346967D01*
X181117242Y-72350016D01*
X180888915Y-72444592D01*
X180880121Y-72449073D01*
X180669392Y-72578208D01*
X180661419Y-72584001D01*
X180473480Y-72744516D01*
X180466516Y-72751480D01*
X180306001Y-72939419D01*
X180300208Y-72947392D01*
X180171073Y-73158121D01*
X180166592Y-73166915D01*
X180072016Y-73395242D01*
X180068967Y-73404627D01*
X180012553Y-73639608D01*
X170624279Y-73639608D01*
X170841970Y-73486045D01*
X170841978Y-73486039D01*
X170844501Y-73484259D01*
X170936756Y-73404627D01*
X171135575Y-73233010D01*
X171137913Y-73230992D01*
X171405211Y-72950302D01*
X171643842Y-72644868D01*
X171645498Y-72642258D01*
X171645504Y-72642250D01*
X171849875Y-72320212D01*
X171849879Y-72320205D01*
X171851529Y-72317605D01*
X171866621Y-72287729D01*
X172024905Y-71974379D01*
X172026290Y-71971638D01*
X172027397Y-71968784D01*
X172027401Y-71968775D01*
X172165341Y-71613144D01*
X172165344Y-71613135D01*
X172166456Y-71610268D01*
X172270690Y-71236945D01*
X172337996Y-70855232D01*
X172367732Y-70468773D01*
X172369279Y-70358000D01*
X172350345Y-69970861D01*
X172293723Y-69587418D01*
X172199954Y-69211330D01*
X172181112Y-69158414D01*
X172070964Y-68849086D01*
X172069932Y-68846187D01*
X171904899Y-68495475D01*
X171706431Y-68162541D01*
X171476421Y-67850563D01*
X171474365Y-67848280D01*
X171474358Y-67848271D01*
X171219134Y-67564816D01*
X171219126Y-67564808D01*
X171217065Y-67562519D01*
X170930839Y-67301159D01*
X170620474Y-67068977D01*
X170567286Y-67036765D01*
X170291562Y-66869780D01*
X170291553Y-66869775D01*
X170288934Y-66868189D01*
X169939382Y-66700712D01*
X169936481Y-66699656D01*
X169578044Y-66569195D01*
X169578041Y-66569194D01*
X169575156Y-66568144D01*
X169572194Y-66567384D01*
X169572186Y-66567381D01*
X169202701Y-66472514D01*
X169202695Y-66472513D01*
X169199732Y-66471752D01*
X168816694Y-66412454D01*
X168429697Y-66390818D01*
X168426619Y-66390947D01*
X168426615Y-66390947D01*
X168175318Y-66401480D01*
X168042435Y-66407049D01*
X168039391Y-66407477D01*
X168039389Y-66407477D01*
X168000617Y-66412926D01*
X167658606Y-66460992D01*
X167281873Y-66552134D01*
X166915831Y-66679603D01*
X166563975Y-66842183D01*
X166229664Y-67038323D01*
X166071505Y-67153232D01*
X165918569Y-67264346D01*
X165918563Y-67264351D01*
X165916088Y-67266149D01*
X165626240Y-67523488D01*
X165624161Y-67525733D01*
X165624154Y-67525740D01*
X165364974Y-67805629D01*
X165362888Y-67807882D01*
X165128545Y-68116618D01*
X164925447Y-68446749D01*
X164755534Y-68795123D01*
X164620427Y-69158414D01*
X164521416Y-69533156D01*
X164459445Y-69915772D01*
X164435108Y-70302608D01*
X85752570Y-70302608D01*
X85736345Y-69970861D01*
X85679723Y-69587418D01*
X85585954Y-69211330D01*
X85567112Y-69158414D01*
X85456964Y-68849086D01*
X85455932Y-68846187D01*
X85290899Y-68495475D01*
X85092431Y-68162541D01*
X84862421Y-67850563D01*
X84860365Y-67848280D01*
X84860358Y-67848271D01*
X84605134Y-67564816D01*
X84605126Y-67564808D01*
X84603065Y-67562519D01*
X84316839Y-67301159D01*
X84006474Y-67068977D01*
X83953286Y-67036765D01*
X83677562Y-66869780D01*
X83677553Y-66869775D01*
X83674934Y-66868189D01*
X83325382Y-66700712D01*
X83322481Y-66699656D01*
X82964044Y-66569195D01*
X82964041Y-66569194D01*
X82961156Y-66568144D01*
X82958194Y-66567384D01*
X82958186Y-66567381D01*
X82588701Y-66472514D01*
X82588695Y-66472513D01*
X82585732Y-66471752D01*
X82202694Y-66412454D01*
X81815697Y-66390818D01*
X81812619Y-66390947D01*
X81812615Y-66390947D01*
X81561318Y-66401480D01*
X81428435Y-66407049D01*
X81425391Y-66407477D01*
X81425389Y-66407477D01*
X81386617Y-66412926D01*
X81044606Y-66460992D01*
X80667873Y-66552134D01*
X80301831Y-66679603D01*
X79949975Y-66842183D01*
X79615664Y-67038323D01*
X79457505Y-67153232D01*
X79304569Y-67264346D01*
X79304563Y-67264351D01*
X79302088Y-67266149D01*
X79012240Y-67523488D01*
X79010161Y-67525733D01*
X79010154Y-67525740D01*
X78750974Y-67805629D01*
X78748888Y-67807882D01*
X78514545Y-68116618D01*
X78311447Y-68446749D01*
X78141534Y-68795123D01*
X78006427Y-69158414D01*
X77907416Y-69533156D01*
X77845445Y-69915772D01*
X77821108Y-70302608D01*
X75184500Y-70302608D01*
X75184500Y-63880500D01*
X75204502Y-63812379D01*
X75258158Y-63765886D01*
X75310500Y-63754500D01*
X188849500Y-63754500D01*
X188917621Y-63774502D01*
G37*
G04 #@! TD.AperFunction*
M02*
