G04 #@! TF.GenerationSoftware,KiCad,Pcbnew,6.0.10-86aedd382b~118~ubuntu18.04.1*
G04 #@! TF.CreationDate,2024-12-31T19:53:44-07:00*
G04 #@! TF.ProjectId,ckt-iiab-test,636b742d-6969-4616-922d-746573742e6b,rev?*
G04 #@! TF.SameCoordinates,Original*
G04 #@! TF.FileFunction,Legend,Top*
G04 #@! TF.FilePolarity,Positive*
%FSLAX46Y46*%
G04 Gerber Fmt 4.6, Leading zero omitted, Abs format (unit mm)*
G04 Created by KiCad (PCBNEW 6.0.10-86aedd382b~118~ubuntu18.04.1) date 2024-12-31 19:53:44*
%MOMM*%
%LPD*%
G01*
G04 APERTURE LIST*
%ADD10C,0.100000*%
%ADD11C,0.152400*%
%ADD12C,0.254000*%
%ADD13C,0.150000*%
%ADD14C,0.120000*%
%ADD15C,0.127000*%
%ADD16C,0.400000*%
G04 APERTURE END LIST*
D10*
X77470000Y-123190000D02*
X172720000Y-123190000D01*
X172720000Y-123190000D02*
X172720000Y-66040000D01*
X172720000Y-66040000D02*
X77470000Y-66040000D01*
X77470000Y-66040000D02*
X77470000Y-123190000D01*
D11*
X122694095Y-135180977D02*
X122645714Y-135229358D01*
X122500571Y-135277739D01*
X122403809Y-135277739D01*
X122258666Y-135229358D01*
X122161904Y-135132596D01*
X122113523Y-135035834D01*
X122065142Y-134842310D01*
X122065142Y-134697167D01*
X122113523Y-134503643D01*
X122161904Y-134406881D01*
X122258666Y-134310120D01*
X122403809Y-134261739D01*
X122500571Y-134261739D01*
X122645714Y-134310120D01*
X122694095Y-134358500D01*
X123129523Y-135277739D02*
X123129523Y-134261739D01*
X123710095Y-135277739D02*
X123274666Y-134697167D01*
X123710095Y-134261739D02*
X123129523Y-134842310D01*
X124000380Y-134261739D02*
X124580952Y-134261739D01*
X124290666Y-135277739D02*
X124290666Y-134261739D01*
X124919619Y-134890691D02*
X125693714Y-134890691D01*
X126177523Y-135277739D02*
X126177523Y-134261739D01*
X126661333Y-135277739D02*
X126661333Y-134261739D01*
X127096761Y-134987453D02*
X127580571Y-134987453D01*
X127000000Y-135277739D02*
X127338666Y-134261739D01*
X127677333Y-135277739D01*
X128354666Y-134745548D02*
X128499809Y-134793929D01*
X128548190Y-134842310D01*
X128596571Y-134939072D01*
X128596571Y-135084215D01*
X128548190Y-135180977D01*
X128499809Y-135229358D01*
X128403047Y-135277739D01*
X128016000Y-135277739D01*
X128016000Y-134261739D01*
X128354666Y-134261739D01*
X128451428Y-134310120D01*
X128499809Y-134358500D01*
X128548190Y-134455262D01*
X128548190Y-134552024D01*
X128499809Y-134648786D01*
X128451428Y-134697167D01*
X128354666Y-134745548D01*
X128016000Y-134745548D01*
X129032000Y-134890691D02*
X129806095Y-134890691D01*
X130144761Y-134261739D02*
X130725333Y-134261739D01*
X130435047Y-135277739D02*
X130435047Y-134261739D01*
X131064000Y-134745548D02*
X131402666Y-134745548D01*
X131547809Y-135277739D02*
X131064000Y-135277739D01*
X131064000Y-134261739D01*
X131547809Y-134261739D01*
X131934857Y-135229358D02*
X132080000Y-135277739D01*
X132321904Y-135277739D01*
X132418666Y-135229358D01*
X132467047Y-135180977D01*
X132515428Y-135084215D01*
X132515428Y-134987453D01*
X132467047Y-134890691D01*
X132418666Y-134842310D01*
X132321904Y-134793929D01*
X132128380Y-134745548D01*
X132031619Y-134697167D01*
X131983238Y-134648786D01*
X131934857Y-134552024D01*
X131934857Y-134455262D01*
X131983238Y-134358500D01*
X132031619Y-134310120D01*
X132128380Y-134261739D01*
X132370285Y-134261739D01*
X132515428Y-134310120D01*
X132805714Y-134261739D02*
X133386285Y-134261739D01*
X133096000Y-135277739D02*
X133096000Y-134261739D01*
X135176380Y-134600405D02*
X135418285Y-135277739D01*
X135660190Y-134600405D01*
X136579428Y-135277739D02*
X135998857Y-135277739D01*
X136289142Y-135277739D02*
X136289142Y-134261739D01*
X136192380Y-134406881D01*
X136095619Y-134503643D01*
X135998857Y-134552024D01*
X137014857Y-135180977D02*
X137063238Y-135229358D01*
X137014857Y-135277739D01*
X136966476Y-135229358D01*
X137014857Y-135180977D01*
X137014857Y-135277739D01*
X137692190Y-134261739D02*
X137788952Y-134261739D01*
X137885714Y-134310120D01*
X137934095Y-134358500D01*
X137982476Y-134455262D01*
X138030857Y-134648786D01*
X138030857Y-134890691D01*
X137982476Y-135084215D01*
X137934095Y-135180977D01*
X137885714Y-135229358D01*
X137788952Y-135277739D01*
X137692190Y-135277739D01*
X137595428Y-135229358D01*
X137547047Y-135180977D01*
X137498666Y-135084215D01*
X137450285Y-134890691D01*
X137450285Y-134648786D01*
X137498666Y-134455262D01*
X137547047Y-134358500D01*
X137595428Y-134310120D01*
X137692190Y-134261739D01*
X124024571Y-136139403D02*
X123927809Y-136091022D01*
X123734285Y-136091022D01*
X123637523Y-136139403D01*
X123540761Y-136236165D01*
X123492380Y-136332927D01*
X123492380Y-136526451D01*
X123540761Y-136623213D01*
X123637523Y-136719975D01*
X123734285Y-136768356D01*
X123927809Y-136768356D01*
X124024571Y-136719975D01*
X123831047Y-135752356D02*
X123589142Y-135800737D01*
X123347238Y-135945880D01*
X123202095Y-136187784D01*
X123153714Y-136429689D01*
X123202095Y-136671594D01*
X123347238Y-136913499D01*
X123589142Y-137058641D01*
X123831047Y-137107022D01*
X124072952Y-137058641D01*
X124314857Y-136913499D01*
X124460000Y-136671594D01*
X124508380Y-136429689D01*
X124460000Y-136187784D01*
X124314857Y-135945880D01*
X124072952Y-135800737D01*
X123831047Y-135752356D01*
X124895428Y-135994260D02*
X124943809Y-135945880D01*
X125040571Y-135897499D01*
X125282476Y-135897499D01*
X125379238Y-135945880D01*
X125427619Y-135994260D01*
X125476000Y-136091022D01*
X125476000Y-136187784D01*
X125427619Y-136332927D01*
X124847047Y-136913499D01*
X125476000Y-136913499D01*
X126104952Y-135897499D02*
X126201714Y-135897499D01*
X126298476Y-135945880D01*
X126346857Y-135994260D01*
X126395238Y-136091022D01*
X126443619Y-136284546D01*
X126443619Y-136526451D01*
X126395238Y-136719975D01*
X126346857Y-136816737D01*
X126298476Y-136865118D01*
X126201714Y-136913499D01*
X126104952Y-136913499D01*
X126008190Y-136865118D01*
X125959809Y-136816737D01*
X125911428Y-136719975D01*
X125863047Y-136526451D01*
X125863047Y-136284546D01*
X125911428Y-136091022D01*
X125959809Y-135994260D01*
X126008190Y-135945880D01*
X126104952Y-135897499D01*
X126830666Y-135994260D02*
X126879047Y-135945880D01*
X126975809Y-135897499D01*
X127217714Y-135897499D01*
X127314476Y-135945880D01*
X127362857Y-135994260D01*
X127411238Y-136091022D01*
X127411238Y-136187784D01*
X127362857Y-136332927D01*
X126782285Y-136913499D01*
X127411238Y-136913499D01*
X128330476Y-135897499D02*
X127846666Y-135897499D01*
X127798285Y-136381308D01*
X127846666Y-136332927D01*
X127943428Y-136284546D01*
X128185333Y-136284546D01*
X128282095Y-136332927D01*
X128330476Y-136381308D01*
X128378857Y-136478070D01*
X128378857Y-136719975D01*
X128330476Y-136816737D01*
X128282095Y-136865118D01*
X128185333Y-136913499D01*
X127943428Y-136913499D01*
X127846666Y-136865118D01*
X127798285Y-136816737D01*
X130168952Y-136816737D02*
X130120571Y-136865118D01*
X129975428Y-136913499D01*
X129878666Y-136913499D01*
X129733523Y-136865118D01*
X129636761Y-136768356D01*
X129588380Y-136671594D01*
X129540000Y-136478070D01*
X129540000Y-136332927D01*
X129588380Y-136139403D01*
X129636761Y-136042641D01*
X129733523Y-135945880D01*
X129878666Y-135897499D01*
X129975428Y-135897499D01*
X130120571Y-135945880D01*
X130168952Y-135994260D01*
X131184952Y-136816737D02*
X131136571Y-136865118D01*
X130991428Y-136913499D01*
X130894666Y-136913499D01*
X130749523Y-136865118D01*
X130652761Y-136768356D01*
X130604380Y-136671594D01*
X130556000Y-136478070D01*
X130556000Y-136332927D01*
X130604380Y-136139403D01*
X130652761Y-136042641D01*
X130749523Y-135945880D01*
X130894666Y-135897499D01*
X130991428Y-135897499D01*
X131136571Y-135945880D01*
X131184952Y-135994260D01*
X132733142Y-136381308D02*
X132878285Y-136429689D01*
X132926666Y-136478070D01*
X132975047Y-136574832D01*
X132975047Y-136719975D01*
X132926666Y-136816737D01*
X132878285Y-136865118D01*
X132781523Y-136913499D01*
X132394476Y-136913499D01*
X132394476Y-135897499D01*
X132733142Y-135897499D01*
X132829904Y-135945880D01*
X132878285Y-135994260D01*
X132926666Y-136091022D01*
X132926666Y-136187784D01*
X132878285Y-136284546D01*
X132829904Y-136332927D01*
X132733142Y-136381308D01*
X132394476Y-136381308D01*
X133604000Y-136429689D02*
X133604000Y-136913499D01*
X133265333Y-135897499D02*
X133604000Y-136429689D01*
X133942666Y-135897499D01*
X134281333Y-136526451D02*
X135055428Y-136526451D01*
X135490857Y-136865118D02*
X135636000Y-136913499D01*
X135877904Y-136913499D01*
X135974666Y-136865118D01*
X136023047Y-136816737D01*
X136071428Y-136719975D01*
X136071428Y-136623213D01*
X136023047Y-136526451D01*
X135974666Y-136478070D01*
X135877904Y-136429689D01*
X135684380Y-136381308D01*
X135587619Y-136332927D01*
X135539238Y-136284546D01*
X135490857Y-136187784D01*
X135490857Y-136091022D01*
X135539238Y-135994260D01*
X135587619Y-135945880D01*
X135684380Y-135897499D01*
X135926285Y-135897499D01*
X136071428Y-135945880D01*
X136458476Y-136623213D02*
X136942285Y-136623213D01*
X136361714Y-136913499D02*
X136700380Y-135897499D01*
X137039047Y-136913499D01*
D12*
X176584428Y-118581714D02*
X175060428Y-118581714D01*
X175060428Y-118001142D01*
X175133000Y-117856000D01*
X175205571Y-117783428D01*
X175350714Y-117710857D01*
X175568428Y-117710857D01*
X175713571Y-117783428D01*
X175786142Y-117856000D01*
X175858714Y-118001142D01*
X175858714Y-118581714D01*
X176584428Y-116840000D02*
X176511857Y-116985142D01*
X176439285Y-117057714D01*
X176294142Y-117130285D01*
X175858714Y-117130285D01*
X175713571Y-117057714D01*
X175641000Y-116985142D01*
X175568428Y-116840000D01*
X175568428Y-116622285D01*
X175641000Y-116477142D01*
X175713571Y-116404571D01*
X175858714Y-116332000D01*
X176294142Y-116332000D01*
X176439285Y-116404571D01*
X176511857Y-116477142D01*
X176584428Y-116622285D01*
X176584428Y-116840000D01*
X175568428Y-115824000D02*
X176584428Y-115533714D01*
X175858714Y-115243428D01*
X176584428Y-114953142D01*
X175568428Y-114662857D01*
X176511857Y-113501714D02*
X176584428Y-113646857D01*
X176584428Y-113937142D01*
X176511857Y-114082285D01*
X176366714Y-114154857D01*
X175786142Y-114154857D01*
X175641000Y-114082285D01*
X175568428Y-113937142D01*
X175568428Y-113646857D01*
X175641000Y-113501714D01*
X175786142Y-113429142D01*
X175931285Y-113429142D01*
X176076428Y-114154857D01*
X176584428Y-112776000D02*
X175568428Y-112776000D01*
X175858714Y-112776000D02*
X175713571Y-112703428D01*
X175641000Y-112630857D01*
X175568428Y-112485714D01*
X175568428Y-112340571D01*
X85924571Y-142983857D02*
X86142285Y-143056428D01*
X86505142Y-143056428D01*
X86650285Y-142983857D01*
X86722857Y-142911285D01*
X86795428Y-142766142D01*
X86795428Y-142621000D01*
X86722857Y-142475857D01*
X86650285Y-142403285D01*
X86505142Y-142330714D01*
X86214857Y-142258142D01*
X86069714Y-142185571D01*
X85997142Y-142113000D01*
X85924571Y-141967857D01*
X85924571Y-141822714D01*
X85997142Y-141677571D01*
X86069714Y-141605000D01*
X86214857Y-141532428D01*
X86577714Y-141532428D01*
X86795428Y-141605000D01*
X87448571Y-143056428D02*
X87448571Y-142040428D01*
X87448571Y-141532428D02*
X87376000Y-141605000D01*
X87448571Y-141677571D01*
X87521142Y-141605000D01*
X87448571Y-141532428D01*
X87448571Y-141677571D01*
X88827428Y-142040428D02*
X88827428Y-143274142D01*
X88754857Y-143419285D01*
X88682285Y-143491857D01*
X88537142Y-143564428D01*
X88319428Y-143564428D01*
X88174285Y-143491857D01*
X88827428Y-142983857D02*
X88682285Y-143056428D01*
X88392000Y-143056428D01*
X88246857Y-142983857D01*
X88174285Y-142911285D01*
X88101714Y-142766142D01*
X88101714Y-142330714D01*
X88174285Y-142185571D01*
X88246857Y-142113000D01*
X88392000Y-142040428D01*
X88682285Y-142040428D01*
X88827428Y-142113000D01*
X89553142Y-142040428D02*
X89553142Y-143056428D01*
X89553142Y-142185571D02*
X89625714Y-142113000D01*
X89770857Y-142040428D01*
X89988571Y-142040428D01*
X90133714Y-142113000D01*
X90206285Y-142258142D01*
X90206285Y-143056428D01*
X91585142Y-143056428D02*
X91585142Y-142258142D01*
X91512571Y-142113000D01*
X91367428Y-142040428D01*
X91077142Y-142040428D01*
X90932000Y-142113000D01*
X91585142Y-142983857D02*
X91440000Y-143056428D01*
X91077142Y-143056428D01*
X90932000Y-142983857D01*
X90859428Y-142838714D01*
X90859428Y-142693571D01*
X90932000Y-142548428D01*
X91077142Y-142475857D01*
X91440000Y-142475857D01*
X91585142Y-142403285D01*
X92528571Y-143056428D02*
X92383428Y-142983857D01*
X92310857Y-142838714D01*
X92310857Y-141532428D01*
X94197714Y-142621000D02*
X94923428Y-142621000D01*
X94052571Y-143056428D02*
X94560571Y-141532428D01*
X95068571Y-143056428D01*
X176584428Y-101055714D02*
X175060428Y-101055714D01*
X175060428Y-100475142D01*
X175133000Y-100330000D01*
X175205571Y-100257428D01*
X175350714Y-100184857D01*
X175568428Y-100184857D01*
X175713571Y-100257428D01*
X175786142Y-100330000D01*
X175858714Y-100475142D01*
X175858714Y-101055714D01*
X176584428Y-99314000D02*
X176511857Y-99459142D01*
X176439285Y-99531714D01*
X176294142Y-99604285D01*
X175858714Y-99604285D01*
X175713571Y-99531714D01*
X175641000Y-99459142D01*
X175568428Y-99314000D01*
X175568428Y-99096285D01*
X175641000Y-98951142D01*
X175713571Y-98878571D01*
X175858714Y-98806000D01*
X176294142Y-98806000D01*
X176439285Y-98878571D01*
X176511857Y-98951142D01*
X176584428Y-99096285D01*
X176584428Y-99314000D01*
X176584428Y-97935142D02*
X176511857Y-98080285D01*
X176366714Y-98152857D01*
X175060428Y-98152857D01*
X176584428Y-96701428D02*
X175786142Y-96701428D01*
X175641000Y-96774000D01*
X175568428Y-96919142D01*
X175568428Y-97209428D01*
X175641000Y-97354571D01*
X176511857Y-96701428D02*
X176584428Y-96846571D01*
X176584428Y-97209428D01*
X176511857Y-97354571D01*
X176366714Y-97427142D01*
X176221571Y-97427142D01*
X176076428Y-97354571D01*
X176003857Y-97209428D01*
X176003857Y-96846571D01*
X175931285Y-96701428D01*
X176584428Y-95975714D02*
X175568428Y-95975714D01*
X175858714Y-95975714D02*
X175713571Y-95903142D01*
X175641000Y-95830571D01*
X175568428Y-95685428D01*
X175568428Y-95540285D01*
X176584428Y-95032285D02*
X175568428Y-95032285D01*
X175060428Y-95032285D02*
X175133000Y-95104857D01*
X175205571Y-95032285D01*
X175133000Y-94959714D01*
X175060428Y-95032285D01*
X175205571Y-95032285D01*
X175568428Y-94524285D02*
X175568428Y-93943714D01*
X175060428Y-94306571D02*
X176366714Y-94306571D01*
X176511857Y-94234000D01*
X176584428Y-94088857D01*
X176584428Y-93943714D01*
X175568428Y-93580857D02*
X176584428Y-93218000D01*
X175568428Y-92855142D02*
X176584428Y-93218000D01*
X176947285Y-93363142D01*
X177019857Y-93435714D01*
X177092428Y-93580857D01*
X101944714Y-142983857D02*
X102162428Y-143056428D01*
X102525285Y-143056428D01*
X102670428Y-142983857D01*
X102743000Y-142911285D01*
X102815571Y-142766142D01*
X102815571Y-142621000D01*
X102743000Y-142475857D01*
X102670428Y-142403285D01*
X102525285Y-142330714D01*
X102235000Y-142258142D01*
X102089857Y-142185571D01*
X102017285Y-142113000D01*
X101944714Y-141967857D01*
X101944714Y-141822714D01*
X102017285Y-141677571D01*
X102089857Y-141605000D01*
X102235000Y-141532428D01*
X102597857Y-141532428D01*
X102815571Y-141605000D01*
X103468714Y-143056428D02*
X103468714Y-142040428D01*
X103468714Y-141532428D02*
X103396142Y-141605000D01*
X103468714Y-141677571D01*
X103541285Y-141605000D01*
X103468714Y-141532428D01*
X103468714Y-141677571D01*
X104847571Y-142040428D02*
X104847571Y-143274142D01*
X104775000Y-143419285D01*
X104702428Y-143491857D01*
X104557285Y-143564428D01*
X104339571Y-143564428D01*
X104194428Y-143491857D01*
X104847571Y-142983857D02*
X104702428Y-143056428D01*
X104412142Y-143056428D01*
X104267000Y-142983857D01*
X104194428Y-142911285D01*
X104121857Y-142766142D01*
X104121857Y-142330714D01*
X104194428Y-142185571D01*
X104267000Y-142113000D01*
X104412142Y-142040428D01*
X104702428Y-142040428D01*
X104847571Y-142113000D01*
X105573285Y-142040428D02*
X105573285Y-143056428D01*
X105573285Y-142185571D02*
X105645857Y-142113000D01*
X105791000Y-142040428D01*
X106008714Y-142040428D01*
X106153857Y-142113000D01*
X106226428Y-142258142D01*
X106226428Y-143056428D01*
X107605285Y-143056428D02*
X107605285Y-142258142D01*
X107532714Y-142113000D01*
X107387571Y-142040428D01*
X107097285Y-142040428D01*
X106952142Y-142113000D01*
X107605285Y-142983857D02*
X107460142Y-143056428D01*
X107097285Y-143056428D01*
X106952142Y-142983857D01*
X106879571Y-142838714D01*
X106879571Y-142693571D01*
X106952142Y-142548428D01*
X107097285Y-142475857D01*
X107460142Y-142475857D01*
X107605285Y-142403285D01*
X108548714Y-143056428D02*
X108403571Y-142983857D01*
X108331000Y-142838714D01*
X108331000Y-141532428D01*
X110798428Y-142258142D02*
X111016142Y-142330714D01*
X111088714Y-142403285D01*
X111161285Y-142548428D01*
X111161285Y-142766142D01*
X111088714Y-142911285D01*
X111016142Y-142983857D01*
X110871000Y-143056428D01*
X110290428Y-143056428D01*
X110290428Y-141532428D01*
X110798428Y-141532428D01*
X110943571Y-141605000D01*
X111016142Y-141677571D01*
X111088714Y-141822714D01*
X111088714Y-141967857D01*
X111016142Y-142113000D01*
X110943571Y-142185571D01*
X110798428Y-142258142D01*
X110290428Y-142258142D01*
X98243571Y-135164285D02*
X98171000Y-135236857D01*
X97953285Y-135309428D01*
X97808142Y-135309428D01*
X97590428Y-135236857D01*
X97445285Y-135091714D01*
X97372714Y-134946571D01*
X97300142Y-134656285D01*
X97300142Y-134438571D01*
X97372714Y-134148285D01*
X97445285Y-134003142D01*
X97590428Y-133858000D01*
X97808142Y-133785428D01*
X97953285Y-133785428D01*
X98171000Y-133858000D01*
X98243571Y-133930571D01*
X98824142Y-134874000D02*
X99549857Y-134874000D01*
X98679000Y-135309428D02*
X99187000Y-133785428D01*
X99695000Y-135309428D01*
X181936571Y-108512428D02*
X182226857Y-108512428D01*
X182372000Y-108585000D01*
X182517142Y-108730142D01*
X182589714Y-109020428D01*
X182589714Y-109528428D01*
X182517142Y-109818714D01*
X182372000Y-109963857D01*
X182226857Y-110036428D01*
X181936571Y-110036428D01*
X181791428Y-109963857D01*
X181646285Y-109818714D01*
X181573714Y-109528428D01*
X181573714Y-109020428D01*
X181646285Y-108730142D01*
X181791428Y-108585000D01*
X181936571Y-108512428D01*
X183242857Y-110036428D02*
X183242857Y-108512428D01*
X184113714Y-110036428D01*
X184113714Y-108512428D01*
X98134714Y-138593285D02*
X98062142Y-138665857D01*
X97844428Y-138738428D01*
X97699285Y-138738428D01*
X97481571Y-138665857D01*
X97336428Y-138520714D01*
X97263857Y-138375571D01*
X97191285Y-138085285D01*
X97191285Y-137867571D01*
X97263857Y-137577285D01*
X97336428Y-137432142D01*
X97481571Y-137287000D01*
X97699285Y-137214428D01*
X97844428Y-137214428D01*
X98062142Y-137287000D01*
X98134714Y-137359571D01*
X99658714Y-138593285D02*
X99586142Y-138665857D01*
X99368428Y-138738428D01*
X99223285Y-138738428D01*
X99005571Y-138665857D01*
X98860428Y-138520714D01*
X98787857Y-138375571D01*
X98715285Y-138085285D01*
X98715285Y-137867571D01*
X98787857Y-137577285D01*
X98860428Y-137432142D01*
X99005571Y-137287000D01*
X99223285Y-137214428D01*
X99368428Y-137214428D01*
X99586142Y-137287000D01*
X99658714Y-137359571D01*
D13*
X92757666Y-73194380D02*
X92757666Y-73908666D01*
X92710047Y-74051523D01*
X92614809Y-74146761D01*
X92471952Y-74194380D01*
X92376714Y-74194380D01*
X93281476Y-74194380D02*
X93471952Y-74194380D01*
X93567190Y-74146761D01*
X93614809Y-74099142D01*
X93710047Y-73956285D01*
X93757666Y-73765809D01*
X93757666Y-73384857D01*
X93710047Y-73289619D01*
X93662428Y-73242000D01*
X93567190Y-73194380D01*
X93376714Y-73194380D01*
X93281476Y-73242000D01*
X93233857Y-73289619D01*
X93186238Y-73384857D01*
X93186238Y-73622952D01*
X93233857Y-73718190D01*
X93281476Y-73765809D01*
X93376714Y-73813428D01*
X93567190Y-73813428D01*
X93662428Y-73765809D01*
X93710047Y-73718190D01*
X93757666Y-73622952D01*
X130349666Y-115233380D02*
X130349666Y-115947666D01*
X130302047Y-116090523D01*
X130206809Y-116185761D01*
X130063952Y-116233380D01*
X129968714Y-116233380D01*
X130730619Y-115233380D02*
X131349666Y-115233380D01*
X131016333Y-115614333D01*
X131159190Y-115614333D01*
X131254428Y-115661952D01*
X131302047Y-115709571D01*
X131349666Y-115804809D01*
X131349666Y-116042904D01*
X131302047Y-116138142D01*
X131254428Y-116185761D01*
X131159190Y-116233380D01*
X130873476Y-116233380D01*
X130778238Y-116185761D01*
X130730619Y-116138142D01*
X179157333Y-131008380D02*
X178824000Y-130532190D01*
X178585904Y-131008380D02*
X178585904Y-130008380D01*
X178966857Y-130008380D01*
X179062095Y-130056000D01*
X179109714Y-130103619D01*
X179157333Y-130198857D01*
X179157333Y-130341714D01*
X179109714Y-130436952D01*
X179062095Y-130484571D01*
X178966857Y-130532190D01*
X178585904Y-130532190D01*
X179490666Y-130008380D02*
X180109714Y-130008380D01*
X179776380Y-130389333D01*
X179919238Y-130389333D01*
X180014476Y-130436952D01*
X180062095Y-130484571D01*
X180109714Y-130579809D01*
X180109714Y-130817904D01*
X180062095Y-130913142D01*
X180014476Y-130960761D01*
X179919238Y-131008380D01*
X179633523Y-131008380D01*
X179538285Y-130960761D01*
X179490666Y-130913142D01*
X151217333Y-131008380D02*
X150884000Y-130532190D01*
X150645904Y-131008380D02*
X150645904Y-130008380D01*
X151026857Y-130008380D01*
X151122095Y-130056000D01*
X151169714Y-130103619D01*
X151217333Y-130198857D01*
X151217333Y-130341714D01*
X151169714Y-130436952D01*
X151122095Y-130484571D01*
X151026857Y-130532190D01*
X150645904Y-130532190D01*
X152169714Y-131008380D02*
X151598285Y-131008380D01*
X151884000Y-131008380D02*
X151884000Y-130008380D01*
X151788761Y-130151238D01*
X151693523Y-130246476D01*
X151598285Y-130294095D01*
X87267904Y-133302380D02*
X87267904Y-132302380D01*
X87506000Y-132302380D01*
X87648857Y-132350000D01*
X87744095Y-132445238D01*
X87791714Y-132540476D01*
X87839333Y-132730952D01*
X87839333Y-132873809D01*
X87791714Y-133064285D01*
X87744095Y-133159523D01*
X87648857Y-133254761D01*
X87506000Y-133302380D01*
X87267904Y-133302380D01*
X88791714Y-133302380D02*
X88220285Y-133302380D01*
X88506000Y-133302380D02*
X88506000Y-132302380D01*
X88410761Y-132445238D01*
X88315523Y-132540476D01*
X88220285Y-132588095D01*
X168044761Y-139763333D02*
X168092380Y-139620476D01*
X168092380Y-139382380D01*
X168044761Y-139287142D01*
X167997142Y-139239523D01*
X167901904Y-139191904D01*
X167806666Y-139191904D01*
X167711428Y-139239523D01*
X167663809Y-139287142D01*
X167616190Y-139382380D01*
X167568571Y-139572857D01*
X167520952Y-139668095D01*
X167473333Y-139715714D01*
X167378095Y-139763333D01*
X167282857Y-139763333D01*
X167187619Y-139715714D01*
X167140000Y-139668095D01*
X167092380Y-139572857D01*
X167092380Y-139334761D01*
X167140000Y-139191904D01*
X167092380Y-138858571D02*
X168092380Y-138620476D01*
X167378095Y-138430000D01*
X168092380Y-138239523D01*
X167092380Y-138001428D01*
X167425714Y-137191904D02*
X168092380Y-137191904D01*
X167044761Y-137430000D02*
X167759047Y-137668095D01*
X167759047Y-137049047D01*
X91971904Y-140406380D02*
X91971904Y-139406380D01*
X92210000Y-139406380D01*
X92352857Y-139454000D01*
X92448095Y-139549238D01*
X92495714Y-139644476D01*
X92543333Y-139834952D01*
X92543333Y-139977809D01*
X92495714Y-140168285D01*
X92448095Y-140263523D01*
X92352857Y-140358761D01*
X92210000Y-140406380D01*
X91971904Y-140406380D01*
X92876666Y-139406380D02*
X93543333Y-139406380D01*
X93114761Y-140406380D01*
X182681714Y-131008380D02*
X182681714Y-130008380D01*
X182919809Y-130008380D01*
X183062666Y-130056000D01*
X183157904Y-130151238D01*
X183205523Y-130246476D01*
X183253142Y-130436952D01*
X183253142Y-130579809D01*
X183205523Y-130770285D01*
X183157904Y-130865523D01*
X183062666Y-130960761D01*
X182919809Y-131008380D01*
X182681714Y-131008380D01*
X184205523Y-131008380D02*
X183634095Y-131008380D01*
X183919809Y-131008380D02*
X183919809Y-130008380D01*
X183824571Y-130151238D01*
X183729333Y-130246476D01*
X183634095Y-130294095D01*
X185157904Y-131008380D02*
X184586476Y-131008380D01*
X184872190Y-131008380D02*
X184872190Y-130008380D01*
X184776952Y-130151238D01*
X184681714Y-130246476D01*
X184586476Y-130294095D01*
X108100904Y-140406380D02*
X108100904Y-139406380D01*
X108339000Y-139406380D01*
X108481857Y-139454000D01*
X108577095Y-139549238D01*
X108624714Y-139644476D01*
X108672333Y-139834952D01*
X108672333Y-139977809D01*
X108624714Y-140168285D01*
X108577095Y-140263523D01*
X108481857Y-140358761D01*
X108339000Y-140406380D01*
X108100904Y-140406380D01*
X109243761Y-139834952D02*
X109148523Y-139787333D01*
X109100904Y-139739714D01*
X109053285Y-139644476D01*
X109053285Y-139596857D01*
X109100904Y-139501619D01*
X109148523Y-139454000D01*
X109243761Y-139406380D01*
X109434238Y-139406380D01*
X109529476Y-139454000D01*
X109577095Y-139501619D01*
X109624714Y-139596857D01*
X109624714Y-139644476D01*
X109577095Y-139739714D01*
X109529476Y-139787333D01*
X109434238Y-139834952D01*
X109243761Y-139834952D01*
X109148523Y-139882571D01*
X109100904Y-139930190D01*
X109053285Y-140025428D01*
X109053285Y-140215904D01*
X109100904Y-140311142D01*
X109148523Y-140358761D01*
X109243761Y-140406380D01*
X109434238Y-140406380D01*
X109529476Y-140358761D01*
X109577095Y-140311142D01*
X109624714Y-140215904D01*
X109624714Y-140025428D01*
X109577095Y-139930190D01*
X109529476Y-139882571D01*
X109434238Y-139834952D01*
X168711714Y-131008380D02*
X168711714Y-130008380D01*
X168949809Y-130008380D01*
X169092666Y-130056000D01*
X169187904Y-130151238D01*
X169235523Y-130246476D01*
X169283142Y-130436952D01*
X169283142Y-130579809D01*
X169235523Y-130770285D01*
X169187904Y-130865523D01*
X169092666Y-130960761D01*
X168949809Y-131008380D01*
X168711714Y-131008380D01*
X170235523Y-131008380D02*
X169664095Y-131008380D01*
X169949809Y-131008380D02*
X169949809Y-130008380D01*
X169854571Y-130151238D01*
X169759333Y-130246476D01*
X169664095Y-130294095D01*
X170854571Y-130008380D02*
X170949809Y-130008380D01*
X171045047Y-130056000D01*
X171092666Y-130103619D01*
X171140285Y-130198857D01*
X171187904Y-130389333D01*
X171187904Y-130627428D01*
X171140285Y-130817904D01*
X171092666Y-130913142D01*
X171045047Y-130960761D01*
X170949809Y-131008380D01*
X170854571Y-131008380D01*
X170759333Y-130960761D01*
X170711714Y-130913142D01*
X170664095Y-130817904D01*
X170616476Y-130627428D01*
X170616476Y-130389333D01*
X170664095Y-130198857D01*
X170711714Y-130103619D01*
X170759333Y-130056000D01*
X170854571Y-130008380D01*
X119427666Y-115233380D02*
X119427666Y-115947666D01*
X119380047Y-116090523D01*
X119284809Y-116185761D01*
X119141952Y-116233380D01*
X119046714Y-116233380D01*
X119856238Y-115328619D02*
X119903857Y-115281000D01*
X119999095Y-115233380D01*
X120237190Y-115233380D01*
X120332428Y-115281000D01*
X120380047Y-115328619D01*
X120427666Y-115423857D01*
X120427666Y-115519095D01*
X120380047Y-115661952D01*
X119808619Y-116233380D01*
X120427666Y-116233380D01*
X108100904Y-133294380D02*
X108100904Y-132294380D01*
X108339000Y-132294380D01*
X108481857Y-132342000D01*
X108577095Y-132437238D01*
X108624714Y-132532476D01*
X108672333Y-132722952D01*
X108672333Y-132865809D01*
X108624714Y-133056285D01*
X108577095Y-133151523D01*
X108481857Y-133246761D01*
X108339000Y-133294380D01*
X108100904Y-133294380D01*
X109529476Y-132294380D02*
X109339000Y-132294380D01*
X109243761Y-132342000D01*
X109196142Y-132389619D01*
X109100904Y-132532476D01*
X109053285Y-132722952D01*
X109053285Y-133103904D01*
X109100904Y-133199142D01*
X109148523Y-133246761D01*
X109243761Y-133294380D01*
X109434238Y-133294380D01*
X109529476Y-133246761D01*
X109577095Y-133199142D01*
X109624714Y-133103904D01*
X109624714Y-132865809D01*
X109577095Y-132770571D01*
X109529476Y-132722952D01*
X109434238Y-132675333D01*
X109243761Y-132675333D01*
X109148523Y-132722952D01*
X109100904Y-132770571D01*
X109053285Y-132865809D01*
X106251476Y-73194380D02*
X106251476Y-73908666D01*
X106203857Y-74051523D01*
X106108619Y-74146761D01*
X105965761Y-74194380D01*
X105870523Y-74194380D01*
X107251476Y-74194380D02*
X106680047Y-74194380D01*
X106965761Y-74194380D02*
X106965761Y-73194380D01*
X106870523Y-73337238D01*
X106775285Y-73432476D01*
X106680047Y-73480095D01*
X108203857Y-74194380D02*
X107632428Y-74194380D01*
X107918142Y-74194380D02*
X107918142Y-73194380D01*
X107822904Y-73337238D01*
X107727666Y-73432476D01*
X107632428Y-73480095D01*
X183284761Y-98361333D02*
X183332380Y-98218476D01*
X183332380Y-97980380D01*
X183284761Y-97885142D01*
X183237142Y-97837523D01*
X183141904Y-97789904D01*
X183046666Y-97789904D01*
X182951428Y-97837523D01*
X182903809Y-97885142D01*
X182856190Y-97980380D01*
X182808571Y-98170857D01*
X182760952Y-98266095D01*
X182713333Y-98313714D01*
X182618095Y-98361333D01*
X182522857Y-98361333D01*
X182427619Y-98313714D01*
X182380000Y-98266095D01*
X182332380Y-98170857D01*
X182332380Y-97932761D01*
X182380000Y-97789904D01*
X182332380Y-97456571D02*
X183332380Y-97218476D01*
X182618095Y-97028000D01*
X183332380Y-96837523D01*
X182332380Y-96599428D01*
X183332380Y-95694666D02*
X183332380Y-96266095D01*
X183332380Y-95980380D02*
X182332380Y-95980380D01*
X182475238Y-96075619D01*
X182570476Y-96170857D01*
X182618095Y-96266095D01*
X87272904Y-140406380D02*
X87272904Y-139406380D01*
X87511000Y-139406380D01*
X87653857Y-139454000D01*
X87749095Y-139549238D01*
X87796714Y-139644476D01*
X87844333Y-139834952D01*
X87844333Y-139977809D01*
X87796714Y-140168285D01*
X87749095Y-140263523D01*
X87653857Y-140358761D01*
X87511000Y-140406380D01*
X87272904Y-140406380D01*
X88177666Y-139406380D02*
X88796714Y-139406380D01*
X88463380Y-139787333D01*
X88606238Y-139787333D01*
X88701476Y-139834952D01*
X88749095Y-139882571D01*
X88796714Y-139977809D01*
X88796714Y-140215904D01*
X88749095Y-140311142D01*
X88701476Y-140358761D01*
X88606238Y-140406380D01*
X88320523Y-140406380D01*
X88225285Y-140358761D01*
X88177666Y-140311142D01*
X155266404Y-131008380D02*
X155266404Y-130008380D01*
X155504500Y-130008380D01*
X155647357Y-130056000D01*
X155742595Y-130151238D01*
X155790214Y-130246476D01*
X155837833Y-130436952D01*
X155837833Y-130579809D01*
X155790214Y-130770285D01*
X155742595Y-130865523D01*
X155647357Y-130960761D01*
X155504500Y-131008380D01*
X155266404Y-131008380D01*
X156314023Y-131008380D02*
X156504500Y-131008380D01*
X156599738Y-130960761D01*
X156647357Y-130913142D01*
X156742595Y-130770285D01*
X156790214Y-130579809D01*
X156790214Y-130198857D01*
X156742595Y-130103619D01*
X156694976Y-130056000D01*
X156599738Y-130008380D01*
X156409261Y-130008380D01*
X156314023Y-130056000D01*
X156266404Y-130103619D01*
X156218785Y-130198857D01*
X156218785Y-130436952D01*
X156266404Y-130532190D01*
X156314023Y-130579809D01*
X156409261Y-130627428D01*
X156599738Y-130627428D01*
X156694976Y-130579809D01*
X156742595Y-130532190D01*
X156790214Y-130436952D01*
X165187333Y-131008380D02*
X164854000Y-130532190D01*
X164615904Y-131008380D02*
X164615904Y-130008380D01*
X164996857Y-130008380D01*
X165092095Y-130056000D01*
X165139714Y-130103619D01*
X165187333Y-130198857D01*
X165187333Y-130341714D01*
X165139714Y-130436952D01*
X165092095Y-130484571D01*
X164996857Y-130532190D01*
X164615904Y-130532190D01*
X165568285Y-130103619D02*
X165615904Y-130056000D01*
X165711142Y-130008380D01*
X165949238Y-130008380D01*
X166044476Y-130056000D01*
X166092095Y-130103619D01*
X166139714Y-130198857D01*
X166139714Y-130294095D01*
X166092095Y-130436952D01*
X165520666Y-131008380D01*
X166139714Y-131008380D01*
X91966904Y-133302380D02*
X91966904Y-132302380D01*
X92205000Y-132302380D01*
X92347857Y-132350000D01*
X92443095Y-132445238D01*
X92490714Y-132540476D01*
X92538333Y-132730952D01*
X92538333Y-132873809D01*
X92490714Y-133064285D01*
X92443095Y-133159523D01*
X92347857Y-133254761D01*
X92205000Y-133302380D01*
X91966904Y-133302380D01*
X93443095Y-132302380D02*
X92966904Y-132302380D01*
X92919285Y-132778571D01*
X92966904Y-132730952D01*
X93062142Y-132683333D01*
X93300238Y-132683333D01*
X93395476Y-132730952D01*
X93443095Y-132778571D01*
X93490714Y-132873809D01*
X93490714Y-133111904D01*
X93443095Y-133207142D01*
X93395476Y-133254761D01*
X93300238Y-133302380D01*
X93062142Y-133302380D01*
X92966904Y-133254761D01*
X92919285Y-133207142D01*
X178736595Y-81494264D02*
X178736595Y-82208702D01*
X178688966Y-82351589D01*
X178593708Y-82446848D01*
X178450820Y-82494477D01*
X178355562Y-82494477D01*
X179736808Y-82494477D02*
X179165258Y-82494477D01*
X179451033Y-82494477D02*
X179451033Y-81494264D01*
X179355775Y-81637151D01*
X179260516Y-81732410D01*
X179165258Y-81780039D01*
X183284761Y-116903333D02*
X183332380Y-116760476D01*
X183332380Y-116522380D01*
X183284761Y-116427142D01*
X183237142Y-116379523D01*
X183141904Y-116331904D01*
X183046666Y-116331904D01*
X182951428Y-116379523D01*
X182903809Y-116427142D01*
X182856190Y-116522380D01*
X182808571Y-116712857D01*
X182760952Y-116808095D01*
X182713333Y-116855714D01*
X182618095Y-116903333D01*
X182522857Y-116903333D01*
X182427619Y-116855714D01*
X182380000Y-116808095D01*
X182332380Y-116712857D01*
X182332380Y-116474761D01*
X182380000Y-116331904D01*
X182332380Y-115998571D02*
X183332380Y-115760476D01*
X182618095Y-115570000D01*
X183332380Y-115379523D01*
X182332380Y-115141428D01*
X182427619Y-114808095D02*
X182380000Y-114760476D01*
X182332380Y-114665238D01*
X182332380Y-114427142D01*
X182380000Y-114331904D01*
X182427619Y-114284285D01*
X182522857Y-114236666D01*
X182618095Y-114236666D01*
X182760952Y-114284285D01*
X183332380Y-114855714D01*
X183332380Y-114236666D01*
X103396904Y-133302380D02*
X103396904Y-132302380D01*
X103635000Y-132302380D01*
X103777857Y-132350000D01*
X103873095Y-132445238D01*
X103920714Y-132540476D01*
X103968333Y-132730952D01*
X103968333Y-132873809D01*
X103920714Y-133064285D01*
X103873095Y-133159523D01*
X103777857Y-133254761D01*
X103635000Y-133302380D01*
X103396904Y-133302380D01*
X104349285Y-132397619D02*
X104396904Y-132350000D01*
X104492142Y-132302380D01*
X104730238Y-132302380D01*
X104825476Y-132350000D01*
X104873095Y-132397619D01*
X104920714Y-132492857D01*
X104920714Y-132588095D01*
X104873095Y-132730952D01*
X104301666Y-133302380D01*
X104920714Y-133302380D01*
X182014761Y-139763333D02*
X182062380Y-139620476D01*
X182062380Y-139382380D01*
X182014761Y-139287142D01*
X181967142Y-139239523D01*
X181871904Y-139191904D01*
X181776666Y-139191904D01*
X181681428Y-139239523D01*
X181633809Y-139287142D01*
X181586190Y-139382380D01*
X181538571Y-139572857D01*
X181490952Y-139668095D01*
X181443333Y-139715714D01*
X181348095Y-139763333D01*
X181252857Y-139763333D01*
X181157619Y-139715714D01*
X181110000Y-139668095D01*
X181062380Y-139572857D01*
X181062380Y-139334761D01*
X181110000Y-139191904D01*
X181062380Y-138858571D02*
X182062380Y-138620476D01*
X181348095Y-138430000D01*
X182062380Y-138239523D01*
X181062380Y-138001428D01*
X181062380Y-137144285D02*
X181062380Y-137620476D01*
X181538571Y-137668095D01*
X181490952Y-137620476D01*
X181443333Y-137525238D01*
X181443333Y-137287142D01*
X181490952Y-137191904D01*
X181538571Y-137144285D01*
X181633809Y-137096666D01*
X181871904Y-137096666D01*
X181967142Y-137144285D01*
X182014761Y-137191904D01*
X182062380Y-137287142D01*
X182062380Y-137525238D01*
X182014761Y-137620476D01*
X181967142Y-137668095D01*
X154074761Y-139763333D02*
X154122380Y-139620476D01*
X154122380Y-139382380D01*
X154074761Y-139287142D01*
X154027142Y-139239523D01*
X153931904Y-139191904D01*
X153836666Y-139191904D01*
X153741428Y-139239523D01*
X153693809Y-139287142D01*
X153646190Y-139382380D01*
X153598571Y-139572857D01*
X153550952Y-139668095D01*
X153503333Y-139715714D01*
X153408095Y-139763333D01*
X153312857Y-139763333D01*
X153217619Y-139715714D01*
X153170000Y-139668095D01*
X153122380Y-139572857D01*
X153122380Y-139334761D01*
X153170000Y-139191904D01*
X153122380Y-138858571D02*
X154122380Y-138620476D01*
X153408095Y-138430000D01*
X154122380Y-138239523D01*
X153122380Y-138001428D01*
X153122380Y-137715714D02*
X153122380Y-137096666D01*
X153503333Y-137430000D01*
X153503333Y-137287142D01*
X153550952Y-137191904D01*
X153598571Y-137144285D01*
X153693809Y-137096666D01*
X153931904Y-137096666D01*
X154027142Y-137144285D01*
X154074761Y-137191904D01*
X154122380Y-137287142D01*
X154122380Y-137572857D01*
X154074761Y-137668095D01*
X154027142Y-137715714D01*
X103401904Y-140406380D02*
X103401904Y-139406380D01*
X103640000Y-139406380D01*
X103782857Y-139454000D01*
X103878095Y-139549238D01*
X103925714Y-139644476D01*
X103973333Y-139834952D01*
X103973333Y-139977809D01*
X103925714Y-140168285D01*
X103878095Y-140263523D01*
X103782857Y-140358761D01*
X103640000Y-140406380D01*
X103401904Y-140406380D01*
X104830476Y-139739714D02*
X104830476Y-140406380D01*
X104592380Y-139358761D02*
X104354285Y-140073047D01*
X104973333Y-140073047D01*
X141271666Y-115233380D02*
X141271666Y-115947666D01*
X141224047Y-116090523D01*
X141128809Y-116185761D01*
X140985952Y-116233380D01*
X140890714Y-116233380D01*
X142176428Y-115566714D02*
X142176428Y-116233380D01*
X141938333Y-115185761D02*
X141700238Y-115900047D01*
X142319285Y-115900047D01*
X86288085Y-98214380D02*
X86859513Y-98214380D01*
X86573799Y-99214380D02*
X86573799Y-98214380D01*
X87192847Y-99214380D02*
X87192847Y-98214380D01*
X87573799Y-98214380D01*
X87669037Y-98262000D01*
X87716656Y-98309619D01*
X87764275Y-98404857D01*
X87764275Y-98547714D01*
X87716656Y-98642952D01*
X87669037Y-98690571D01*
X87573799Y-98738190D01*
X87192847Y-98738190D01*
X88145228Y-98309619D02*
X88192847Y-98262000D01*
X88288085Y-98214380D01*
X88526180Y-98214380D01*
X88621418Y-98262000D01*
X88669037Y-98309619D01*
X88716656Y-98404857D01*
X88716656Y-98500095D01*
X88669037Y-98642952D01*
X88097609Y-99214380D01*
X88716656Y-99214380D01*
X86368095Y-93134380D02*
X86939523Y-93134380D01*
X86653809Y-94134380D02*
X86653809Y-93134380D01*
X87272857Y-94134380D02*
X87272857Y-93134380D01*
X87653809Y-93134380D01*
X87749047Y-93182000D01*
X87796666Y-93229619D01*
X87844285Y-93324857D01*
X87844285Y-93467714D01*
X87796666Y-93562952D01*
X87749047Y-93610571D01*
X87653809Y-93658190D01*
X87272857Y-93658190D01*
X88796666Y-94134380D02*
X88225238Y-94134380D01*
X88510952Y-94134380D02*
X88510952Y-93134380D01*
X88415714Y-93277238D01*
X88320476Y-93372476D01*
X88225238Y-93420095D01*
D14*
X96576000Y-67082000D02*
X96576000Y-66632000D01*
X96576000Y-66632000D02*
X89606000Y-66632000D01*
X96576000Y-70602000D02*
X96576000Y-71052000D01*
X95626000Y-71052000D02*
X95626000Y-72542000D01*
X89606000Y-70602000D02*
X89606000Y-71052000D01*
X89606000Y-66632000D02*
X89606000Y-67082000D01*
X96576000Y-71052000D02*
X95626000Y-71052000D01*
X89606000Y-71052000D02*
X90556000Y-71052000D01*
X133793000Y-120476000D02*
X133793000Y-117976000D01*
X127573000Y-120476000D02*
X127573000Y-117976000D01*
X127573000Y-117976000D02*
X128623000Y-117976000D01*
X133793000Y-117976000D02*
X132743000Y-117976000D01*
X128623000Y-117976000D02*
X128623000Y-116986000D01*
X128743000Y-122446000D02*
X132623000Y-122446000D01*
X179551064Y-127916000D02*
X179096936Y-127916000D01*
X179551064Y-129386000D02*
X179096936Y-129386000D01*
X151611064Y-129386000D02*
X151156936Y-129386000D01*
X151611064Y-127916000D02*
X151156936Y-127916000D01*
X86326000Y-135580000D02*
X89011000Y-135580000D01*
X86326000Y-133660000D02*
X86326000Y-135580000D01*
X89011000Y-133660000D02*
X86326000Y-133660000D01*
D11*
X166014400Y-141859640D02*
X166014400Y-143052800D01*
X169265600Y-135000360D02*
X169265600Y-133807200D01*
X169265600Y-140000360D02*
X169265600Y-139359640D01*
X166014400Y-133807200D02*
X166014400Y-135000360D01*
X169265600Y-137500360D02*
X169265600Y-136859640D01*
X169265600Y-143052800D02*
X169265600Y-141859640D01*
X169265600Y-133807200D02*
X166014400Y-133807200D01*
X166014400Y-143052800D02*
X169265600Y-143052800D01*
X166014400Y-136859640D02*
X166014400Y-137500360D01*
X166014400Y-139359640D02*
X166014400Y-140000360D01*
D14*
X94395000Y-139009000D02*
X94395000Y-137089000D01*
X91710000Y-139009000D02*
X94395000Y-139009000D01*
X94395000Y-137089000D02*
X91710000Y-137089000D01*
X185581000Y-127691000D02*
X182896000Y-127691000D01*
X185581000Y-129611000D02*
X185581000Y-127691000D01*
X182896000Y-129611000D02*
X185581000Y-129611000D01*
X110524000Y-139009000D02*
X110524000Y-137089000D01*
X110524000Y-137089000D02*
X107839000Y-137089000D01*
X107839000Y-139009000D02*
X110524000Y-139009000D01*
X168926000Y-129611000D02*
X171611000Y-129611000D01*
X171611000Y-127691000D02*
X168926000Y-127691000D01*
X171611000Y-129611000D02*
X171611000Y-127691000D01*
X116651000Y-120476000D02*
X116651000Y-117976000D01*
X117821000Y-122446000D02*
X121701000Y-122446000D01*
X116651000Y-117976000D02*
X117701000Y-117976000D01*
X117701000Y-117976000D02*
X117701000Y-116986000D01*
X122871000Y-117976000D02*
X121821000Y-117976000D01*
X122871000Y-120476000D02*
X122871000Y-117976000D01*
X107159000Y-135572000D02*
X109844000Y-135572000D01*
X107159000Y-133652000D02*
X107159000Y-135572000D01*
X109844000Y-133652000D02*
X107159000Y-133652000D01*
X110546000Y-67082000D02*
X110546000Y-66632000D01*
X109596000Y-71052000D02*
X109596000Y-72542000D01*
X110546000Y-66632000D02*
X103576000Y-66632000D01*
X110546000Y-71052000D02*
X109596000Y-71052000D01*
X103576000Y-70602000D02*
X103576000Y-71052000D01*
X103576000Y-71052000D02*
X104526000Y-71052000D01*
X110546000Y-70602000D02*
X110546000Y-71052000D01*
X103576000Y-66632000D02*
X103576000Y-67082000D01*
D11*
X184505600Y-92405200D02*
X181254400Y-92405200D01*
X184505600Y-98598360D02*
X184505600Y-97957640D01*
X181254400Y-101650800D02*
X184505600Y-101650800D01*
X181254400Y-100457640D02*
X181254400Y-101650800D01*
X184505600Y-96098360D02*
X184505600Y-95457640D01*
X184505600Y-93598360D02*
X184505600Y-92405200D01*
X184505600Y-101650800D02*
X184505600Y-100457640D01*
X181254400Y-95457640D02*
X181254400Y-96098360D01*
X181254400Y-92405200D02*
X181254400Y-93598360D01*
X181254400Y-97957640D02*
X181254400Y-98598360D01*
D14*
X87011000Y-139009000D02*
X89696000Y-139009000D01*
X89696000Y-139009000D02*
X89696000Y-137089000D01*
X89696000Y-137089000D02*
X87011000Y-137089000D01*
X157689500Y-129611000D02*
X157689500Y-127691000D01*
X157689500Y-127691000D02*
X155004500Y-127691000D01*
X155004500Y-129611000D02*
X157689500Y-129611000D01*
X165581064Y-129386000D02*
X165126936Y-129386000D01*
X165581064Y-127916000D02*
X165126936Y-127916000D01*
X91025000Y-135580000D02*
X93710000Y-135580000D01*
X91025000Y-133660000D02*
X91025000Y-135580000D01*
X93710000Y-133660000D02*
X91025000Y-133660000D01*
D15*
X187253000Y-66206000D02*
X187253000Y-80606000D01*
X178253000Y-74356000D02*
X178253000Y-66206000D01*
X187253000Y-80606000D02*
X185403000Y-80606000D01*
X178253000Y-80606000D02*
X178253000Y-79456000D01*
X178253000Y-66206000D02*
X187253000Y-66206000D01*
X180203000Y-80606000D02*
X178253000Y-80606000D01*
D16*
X182953000Y-81906000D02*
G75*
G03*
X182953000Y-81906000I-200000J0D01*
G01*
D11*
X184505600Y-112140360D02*
X184505600Y-110947200D01*
X184505600Y-114640360D02*
X184505600Y-113999640D01*
X184505600Y-110947200D02*
X181254400Y-110947200D01*
X181254400Y-120192800D02*
X184505600Y-120192800D01*
X181254400Y-110947200D02*
X181254400Y-112140360D01*
X181254400Y-116499640D02*
X181254400Y-117140360D01*
X181254400Y-118999640D02*
X181254400Y-120192800D01*
X181254400Y-113999640D02*
X181254400Y-114640360D01*
X184505600Y-120192800D02*
X184505600Y-118999640D01*
X184505600Y-117140360D02*
X184505600Y-116499640D01*
D14*
X102455000Y-135580000D02*
X105140000Y-135580000D01*
X105140000Y-133660000D02*
X102455000Y-133660000D01*
X102455000Y-133660000D02*
X102455000Y-135580000D01*
D11*
X179984400Y-133807200D02*
X179984400Y-135000360D01*
X179984400Y-143052800D02*
X183235600Y-143052800D01*
X183235600Y-140000360D02*
X183235600Y-139359640D01*
X179984400Y-141859640D02*
X179984400Y-143052800D01*
X179984400Y-139359640D02*
X179984400Y-140000360D01*
X183235600Y-143052800D02*
X183235600Y-141859640D01*
X183235600Y-133807200D02*
X179984400Y-133807200D01*
X179984400Y-136859640D02*
X179984400Y-137500360D01*
X183235600Y-135000360D02*
X183235600Y-133807200D01*
X183235600Y-137500360D02*
X183235600Y-136859640D01*
X152044400Y-139359640D02*
X152044400Y-140000360D01*
X152044400Y-133807200D02*
X152044400Y-135000360D01*
X152044400Y-141859640D02*
X152044400Y-143052800D01*
X152044400Y-143052800D02*
X155295600Y-143052800D01*
X155295600Y-133807200D02*
X152044400Y-133807200D01*
X155295600Y-137500360D02*
X155295600Y-136859640D01*
X152044400Y-136859640D02*
X152044400Y-137500360D01*
X155295600Y-140000360D02*
X155295600Y-139359640D01*
X155295600Y-143052800D02*
X155295600Y-141859640D01*
X155295600Y-135000360D02*
X155295600Y-133807200D01*
D14*
X103140000Y-139009000D02*
X105825000Y-139009000D01*
X105825000Y-139009000D02*
X105825000Y-137089000D01*
X105825000Y-137089000D02*
X103140000Y-137089000D01*
X139665000Y-122446000D02*
X143545000Y-122446000D01*
X144715000Y-117976000D02*
X143665000Y-117976000D01*
X138495000Y-117976000D02*
X139545000Y-117976000D01*
X139545000Y-117976000D02*
X139545000Y-116986000D01*
X138495000Y-120476000D02*
X138495000Y-117976000D01*
X144715000Y-120476000D02*
X144715000Y-117976000D01*
X86219990Y-101092000D02*
X86219990Y-99762000D01*
X86219990Y-102362000D02*
X88879990Y-102362000D01*
X86219990Y-102362000D02*
X86219990Y-102422000D01*
X86219990Y-102422000D02*
X88879990Y-102422000D01*
X86219990Y-99762000D02*
X87549990Y-99762000D01*
X88879990Y-102362000D02*
X88879990Y-102422000D01*
X86300000Y-97282000D02*
X88960000Y-97282000D01*
X88960000Y-97282000D02*
X88960000Y-97342000D01*
X86300000Y-94682000D02*
X87630000Y-94682000D01*
X86300000Y-97282000D02*
X86300000Y-97342000D01*
X86300000Y-96012000D02*
X86300000Y-94682000D01*
X86300000Y-97342000D02*
X88960000Y-97342000D01*
M02*
