G04 #@! TF.GenerationSoftware,KiCad,Pcbnew,6.0.10-86aedd382b~118~ubuntu18.04.1*
G04 #@! TF.CreationDate,2024-12-31T19:53:44-07:00*
G04 #@! TF.ProjectId,ckt-iiab-test,636b742d-6969-4616-922d-746573742e6b,rev?*
G04 #@! TF.SameCoordinates,Original*
G04 #@! TF.FileFunction,Paste,Top*
G04 #@! TF.FilePolarity,Positive*
%FSLAX46Y46*%
G04 Gerber Fmt 4.6, Leading zero omitted, Abs format (unit mm)*
G04 Created by KiCad (PCBNEW 6.0.10-86aedd382b~118~ubuntu18.04.1) date 2024-12-31 19:53:44*
%MOMM*%
%LPD*%
G01*
G04 APERTURE LIST*
%ADD10R,2.489200X1.193800*%
G04 APERTURE END LIST*
G36*
G01*
X95366000Y-71142000D02*
X95366000Y-72342000D01*
G75*
G02*
X95166000Y-72542000I-200000J0D01*
G01*
X94766000Y-72542000D01*
G75*
G02*
X94566000Y-72342000I0J200000D01*
G01*
X94566000Y-71142000D01*
G75*
G02*
X94766000Y-70942000I200000J0D01*
G01*
X95166000Y-70942000D01*
G75*
G02*
X95366000Y-71142000I0J-200000D01*
G01*
G37*
G36*
G01*
X94116000Y-71142000D02*
X94116000Y-72342000D01*
G75*
G02*
X93916000Y-72542000I-200000J0D01*
G01*
X93516000Y-72542000D01*
G75*
G02*
X93316000Y-72342000I0J200000D01*
G01*
X93316000Y-71142000D01*
G75*
G02*
X93516000Y-70942000I200000J0D01*
G01*
X93916000Y-70942000D01*
G75*
G02*
X94116000Y-71142000I0J-200000D01*
G01*
G37*
G36*
G01*
X92866000Y-71142000D02*
X92866000Y-72342000D01*
G75*
G02*
X92666000Y-72542000I-200000J0D01*
G01*
X92266000Y-72542000D01*
G75*
G02*
X92066000Y-72342000I0J200000D01*
G01*
X92066000Y-71142000D01*
G75*
G02*
X92266000Y-70942000I200000J0D01*
G01*
X92666000Y-70942000D01*
G75*
G02*
X92866000Y-71142000I0J-200000D01*
G01*
G37*
G36*
G01*
X91616000Y-71142000D02*
X91616000Y-72342000D01*
G75*
G02*
X91416000Y-72542000I-200000J0D01*
G01*
X91016000Y-72542000D01*
G75*
G02*
X90816000Y-72342000I0J200000D01*
G01*
X90816000Y-71142000D01*
G75*
G02*
X91016000Y-70942000I200000J0D01*
G01*
X91416000Y-70942000D01*
G75*
G02*
X91616000Y-71142000I0J-200000D01*
G01*
G37*
G36*
G01*
X89716000Y-67592001D02*
X89716000Y-70091999D01*
G75*
G02*
X89465999Y-70342000I-250001J0D01*
G01*
X87866001Y-70342000D01*
G75*
G02*
X87616000Y-70091999I0J250001D01*
G01*
X87616000Y-67592001D01*
G75*
G02*
X87866001Y-67342000I250001J0D01*
G01*
X89465999Y-67342000D01*
G75*
G02*
X89716000Y-67592001I0J-250001D01*
G01*
G37*
G36*
G01*
X98566000Y-67592001D02*
X98566000Y-70091999D01*
G75*
G02*
X98315999Y-70342000I-250001J0D01*
G01*
X96716001Y-70342000D01*
G75*
G02*
X96466000Y-70091999I0J250001D01*
G01*
X96466000Y-67592001D01*
G75*
G02*
X96716001Y-67342000I250001J0D01*
G01*
X98315999Y-67342000D01*
G75*
G02*
X98566000Y-67592001I0J-250001D01*
G01*
G37*
G36*
G01*
X128883000Y-118386000D02*
X128883000Y-117136000D01*
G75*
G02*
X129033000Y-116986000I150000J0D01*
G01*
X129333000Y-116986000D01*
G75*
G02*
X129483000Y-117136000I0J-150000D01*
G01*
X129483000Y-118386000D01*
G75*
G02*
X129333000Y-118536000I-150000J0D01*
G01*
X129033000Y-118536000D01*
G75*
G02*
X128883000Y-118386000I0J150000D01*
G01*
G37*
G36*
G01*
X129883000Y-118386000D02*
X129883000Y-117136000D01*
G75*
G02*
X130033000Y-116986000I150000J0D01*
G01*
X130333000Y-116986000D01*
G75*
G02*
X130483000Y-117136000I0J-150000D01*
G01*
X130483000Y-118386000D01*
G75*
G02*
X130333000Y-118536000I-150000J0D01*
G01*
X130033000Y-118536000D01*
G75*
G02*
X129883000Y-118386000I0J150000D01*
G01*
G37*
G36*
G01*
X130883000Y-118386000D02*
X130883000Y-117136000D01*
G75*
G02*
X131033000Y-116986000I150000J0D01*
G01*
X131333000Y-116986000D01*
G75*
G02*
X131483000Y-117136000I0J-150000D01*
G01*
X131483000Y-118386000D01*
G75*
G02*
X131333000Y-118536000I-150000J0D01*
G01*
X131033000Y-118536000D01*
G75*
G02*
X130883000Y-118386000I0J150000D01*
G01*
G37*
G36*
G01*
X131883000Y-118386000D02*
X131883000Y-117136000D01*
G75*
G02*
X132033000Y-116986000I150000J0D01*
G01*
X132333000Y-116986000D01*
G75*
G02*
X132483000Y-117136000I0J-150000D01*
G01*
X132483000Y-118386000D01*
G75*
G02*
X132333000Y-118536000I-150000J0D01*
G01*
X132033000Y-118536000D01*
G75*
G02*
X131883000Y-118386000I0J150000D01*
G01*
G37*
G36*
G01*
X127283000Y-122286000D02*
X127283000Y-120986000D01*
G75*
G02*
X127533000Y-120736000I250000J0D01*
G01*
X128233000Y-120736000D01*
G75*
G02*
X128483000Y-120986000I0J-250000D01*
G01*
X128483000Y-122286000D01*
G75*
G02*
X128233000Y-122536000I-250000J0D01*
G01*
X127533000Y-122536000D01*
G75*
G02*
X127283000Y-122286000I0J250000D01*
G01*
G37*
G36*
G01*
X132883000Y-122286000D02*
X132883000Y-120986000D01*
G75*
G02*
X133133000Y-120736000I250000J0D01*
G01*
X133833000Y-120736000D01*
G75*
G02*
X134083000Y-120986000I0J-250000D01*
G01*
X134083000Y-122286000D01*
G75*
G02*
X133833000Y-122536000I-250000J0D01*
G01*
X133133000Y-122536000D01*
G75*
G02*
X132883000Y-122286000I0J250000D01*
G01*
G37*
G36*
G01*
X180749000Y-128201000D02*
X180749000Y-129101000D01*
G75*
G02*
X180499000Y-129351000I-250000J0D01*
G01*
X179974000Y-129351000D01*
G75*
G02*
X179724000Y-129101000I0J250000D01*
G01*
X179724000Y-128201000D01*
G75*
G02*
X179974000Y-127951000I250000J0D01*
G01*
X180499000Y-127951000D01*
G75*
G02*
X180749000Y-128201000I0J-250000D01*
G01*
G37*
G36*
G01*
X178924000Y-128201000D02*
X178924000Y-129101000D01*
G75*
G02*
X178674000Y-129351000I-250000J0D01*
G01*
X178149000Y-129351000D01*
G75*
G02*
X177899000Y-129101000I0J250000D01*
G01*
X177899000Y-128201000D01*
G75*
G02*
X178149000Y-127951000I250000J0D01*
G01*
X178674000Y-127951000D01*
G75*
G02*
X178924000Y-128201000I0J-250000D01*
G01*
G37*
G36*
G01*
X152809000Y-128201000D02*
X152809000Y-129101000D01*
G75*
G02*
X152559000Y-129351000I-250000J0D01*
G01*
X152034000Y-129351000D01*
G75*
G02*
X151784000Y-129101000I0J250000D01*
G01*
X151784000Y-128201000D01*
G75*
G02*
X152034000Y-127951000I250000J0D01*
G01*
X152559000Y-127951000D01*
G75*
G02*
X152809000Y-128201000I0J-250000D01*
G01*
G37*
G36*
G01*
X150984000Y-128201000D02*
X150984000Y-129101000D01*
G75*
G02*
X150734000Y-129351000I-250000J0D01*
G01*
X150209000Y-129351000D01*
G75*
G02*
X149959000Y-129101000I0J250000D01*
G01*
X149959000Y-128201000D01*
G75*
G02*
X150209000Y-127951000I250000J0D01*
G01*
X150734000Y-127951000D01*
G75*
G02*
X150984000Y-128201000I0J-250000D01*
G01*
G37*
G36*
G01*
X86586000Y-135076250D02*
X86586000Y-134163750D01*
G75*
G02*
X86829750Y-133920000I243750J0D01*
G01*
X87317250Y-133920000D01*
G75*
G02*
X87561000Y-134163750I0J-243750D01*
G01*
X87561000Y-135076250D01*
G75*
G02*
X87317250Y-135320000I-243750J0D01*
G01*
X86829750Y-135320000D01*
G75*
G02*
X86586000Y-135076250I0J243750D01*
G01*
G37*
G36*
G01*
X88461000Y-135076250D02*
X88461000Y-134163750D01*
G75*
G02*
X88704750Y-133920000I243750J0D01*
G01*
X89192250Y-133920000D01*
G75*
G02*
X89436000Y-134163750I0J-243750D01*
G01*
X89436000Y-135076250D01*
G75*
G02*
X89192250Y-135320000I-243750J0D01*
G01*
X88704750Y-135320000D01*
G75*
G02*
X88461000Y-135076250I0J243750D01*
G01*
G37*
D10*
X170395900Y-140930000D03*
X170395900Y-138430000D03*
X170395900Y-135930000D03*
X164884100Y-140930000D03*
X164884100Y-138430000D03*
X164884100Y-135930000D03*
G36*
G01*
X94135000Y-137592750D02*
X94135000Y-138505250D01*
G75*
G02*
X93891250Y-138749000I-243750J0D01*
G01*
X93403750Y-138749000D01*
G75*
G02*
X93160000Y-138505250I0J243750D01*
G01*
X93160000Y-137592750D01*
G75*
G02*
X93403750Y-137349000I243750J0D01*
G01*
X93891250Y-137349000D01*
G75*
G02*
X94135000Y-137592750I0J-243750D01*
G01*
G37*
G36*
G01*
X92260000Y-137592750D02*
X92260000Y-138505250D01*
G75*
G02*
X92016250Y-138749000I-243750J0D01*
G01*
X91528750Y-138749000D01*
G75*
G02*
X91285000Y-138505250I0J243750D01*
G01*
X91285000Y-137592750D01*
G75*
G02*
X91528750Y-137349000I243750J0D01*
G01*
X92016250Y-137349000D01*
G75*
G02*
X92260000Y-137592750I0J-243750D01*
G01*
G37*
G36*
G01*
X185321000Y-128194750D02*
X185321000Y-129107250D01*
G75*
G02*
X185077250Y-129351000I-243750J0D01*
G01*
X184589750Y-129351000D01*
G75*
G02*
X184346000Y-129107250I0J243750D01*
G01*
X184346000Y-128194750D01*
G75*
G02*
X184589750Y-127951000I243750J0D01*
G01*
X185077250Y-127951000D01*
G75*
G02*
X185321000Y-128194750I0J-243750D01*
G01*
G37*
G36*
G01*
X183446000Y-128194750D02*
X183446000Y-129107250D01*
G75*
G02*
X183202250Y-129351000I-243750J0D01*
G01*
X182714750Y-129351000D01*
G75*
G02*
X182471000Y-129107250I0J243750D01*
G01*
X182471000Y-128194750D01*
G75*
G02*
X182714750Y-127951000I243750J0D01*
G01*
X183202250Y-127951000D01*
G75*
G02*
X183446000Y-128194750I0J-243750D01*
G01*
G37*
G36*
G01*
X110264000Y-137592750D02*
X110264000Y-138505250D01*
G75*
G02*
X110020250Y-138749000I-243750J0D01*
G01*
X109532750Y-138749000D01*
G75*
G02*
X109289000Y-138505250I0J243750D01*
G01*
X109289000Y-137592750D01*
G75*
G02*
X109532750Y-137349000I243750J0D01*
G01*
X110020250Y-137349000D01*
G75*
G02*
X110264000Y-137592750I0J-243750D01*
G01*
G37*
G36*
G01*
X108389000Y-137592750D02*
X108389000Y-138505250D01*
G75*
G02*
X108145250Y-138749000I-243750J0D01*
G01*
X107657750Y-138749000D01*
G75*
G02*
X107414000Y-138505250I0J243750D01*
G01*
X107414000Y-137592750D01*
G75*
G02*
X107657750Y-137349000I243750J0D01*
G01*
X108145250Y-137349000D01*
G75*
G02*
X108389000Y-137592750I0J-243750D01*
G01*
G37*
G36*
G01*
X171351000Y-128194750D02*
X171351000Y-129107250D01*
G75*
G02*
X171107250Y-129351000I-243750J0D01*
G01*
X170619750Y-129351000D01*
G75*
G02*
X170376000Y-129107250I0J243750D01*
G01*
X170376000Y-128194750D01*
G75*
G02*
X170619750Y-127951000I243750J0D01*
G01*
X171107250Y-127951000D01*
G75*
G02*
X171351000Y-128194750I0J-243750D01*
G01*
G37*
G36*
G01*
X169476000Y-128194750D02*
X169476000Y-129107250D01*
G75*
G02*
X169232250Y-129351000I-243750J0D01*
G01*
X168744750Y-129351000D01*
G75*
G02*
X168501000Y-129107250I0J243750D01*
G01*
X168501000Y-128194750D01*
G75*
G02*
X168744750Y-127951000I243750J0D01*
G01*
X169232250Y-127951000D01*
G75*
G02*
X169476000Y-128194750I0J-243750D01*
G01*
G37*
G36*
G01*
X117961000Y-118386000D02*
X117961000Y-117136000D01*
G75*
G02*
X118111000Y-116986000I150000J0D01*
G01*
X118411000Y-116986000D01*
G75*
G02*
X118561000Y-117136000I0J-150000D01*
G01*
X118561000Y-118386000D01*
G75*
G02*
X118411000Y-118536000I-150000J0D01*
G01*
X118111000Y-118536000D01*
G75*
G02*
X117961000Y-118386000I0J150000D01*
G01*
G37*
G36*
G01*
X118961000Y-118386000D02*
X118961000Y-117136000D01*
G75*
G02*
X119111000Y-116986000I150000J0D01*
G01*
X119411000Y-116986000D01*
G75*
G02*
X119561000Y-117136000I0J-150000D01*
G01*
X119561000Y-118386000D01*
G75*
G02*
X119411000Y-118536000I-150000J0D01*
G01*
X119111000Y-118536000D01*
G75*
G02*
X118961000Y-118386000I0J150000D01*
G01*
G37*
G36*
G01*
X119961000Y-118386000D02*
X119961000Y-117136000D01*
G75*
G02*
X120111000Y-116986000I150000J0D01*
G01*
X120411000Y-116986000D01*
G75*
G02*
X120561000Y-117136000I0J-150000D01*
G01*
X120561000Y-118386000D01*
G75*
G02*
X120411000Y-118536000I-150000J0D01*
G01*
X120111000Y-118536000D01*
G75*
G02*
X119961000Y-118386000I0J150000D01*
G01*
G37*
G36*
G01*
X120961000Y-118386000D02*
X120961000Y-117136000D01*
G75*
G02*
X121111000Y-116986000I150000J0D01*
G01*
X121411000Y-116986000D01*
G75*
G02*
X121561000Y-117136000I0J-150000D01*
G01*
X121561000Y-118386000D01*
G75*
G02*
X121411000Y-118536000I-150000J0D01*
G01*
X121111000Y-118536000D01*
G75*
G02*
X120961000Y-118386000I0J150000D01*
G01*
G37*
G36*
G01*
X116361000Y-122286000D02*
X116361000Y-120986000D01*
G75*
G02*
X116611000Y-120736000I250000J0D01*
G01*
X117311000Y-120736000D01*
G75*
G02*
X117561000Y-120986000I0J-250000D01*
G01*
X117561000Y-122286000D01*
G75*
G02*
X117311000Y-122536000I-250000J0D01*
G01*
X116611000Y-122536000D01*
G75*
G02*
X116361000Y-122286000I0J250000D01*
G01*
G37*
G36*
G01*
X121961000Y-122286000D02*
X121961000Y-120986000D01*
G75*
G02*
X122211000Y-120736000I250000J0D01*
G01*
X122911000Y-120736000D01*
G75*
G02*
X123161000Y-120986000I0J-250000D01*
G01*
X123161000Y-122286000D01*
G75*
G02*
X122911000Y-122536000I-250000J0D01*
G01*
X122211000Y-122536000D01*
G75*
G02*
X121961000Y-122286000I0J250000D01*
G01*
G37*
G36*
G01*
X107419000Y-135068250D02*
X107419000Y-134155750D01*
G75*
G02*
X107662750Y-133912000I243750J0D01*
G01*
X108150250Y-133912000D01*
G75*
G02*
X108394000Y-134155750I0J-243750D01*
G01*
X108394000Y-135068250D01*
G75*
G02*
X108150250Y-135312000I-243750J0D01*
G01*
X107662750Y-135312000D01*
G75*
G02*
X107419000Y-135068250I0J243750D01*
G01*
G37*
G36*
G01*
X109294000Y-135068250D02*
X109294000Y-134155750D01*
G75*
G02*
X109537750Y-133912000I243750J0D01*
G01*
X110025250Y-133912000D01*
G75*
G02*
X110269000Y-134155750I0J-243750D01*
G01*
X110269000Y-135068250D01*
G75*
G02*
X110025250Y-135312000I-243750J0D01*
G01*
X109537750Y-135312000D01*
G75*
G02*
X109294000Y-135068250I0J243750D01*
G01*
G37*
G36*
G01*
X109336000Y-71142000D02*
X109336000Y-72342000D01*
G75*
G02*
X109136000Y-72542000I-200000J0D01*
G01*
X108736000Y-72542000D01*
G75*
G02*
X108536000Y-72342000I0J200000D01*
G01*
X108536000Y-71142000D01*
G75*
G02*
X108736000Y-70942000I200000J0D01*
G01*
X109136000Y-70942000D01*
G75*
G02*
X109336000Y-71142000I0J-200000D01*
G01*
G37*
G36*
G01*
X108086000Y-71142000D02*
X108086000Y-72342000D01*
G75*
G02*
X107886000Y-72542000I-200000J0D01*
G01*
X107486000Y-72542000D01*
G75*
G02*
X107286000Y-72342000I0J200000D01*
G01*
X107286000Y-71142000D01*
G75*
G02*
X107486000Y-70942000I200000J0D01*
G01*
X107886000Y-70942000D01*
G75*
G02*
X108086000Y-71142000I0J-200000D01*
G01*
G37*
G36*
G01*
X106836000Y-71142000D02*
X106836000Y-72342000D01*
G75*
G02*
X106636000Y-72542000I-200000J0D01*
G01*
X106236000Y-72542000D01*
G75*
G02*
X106036000Y-72342000I0J200000D01*
G01*
X106036000Y-71142000D01*
G75*
G02*
X106236000Y-70942000I200000J0D01*
G01*
X106636000Y-70942000D01*
G75*
G02*
X106836000Y-71142000I0J-200000D01*
G01*
G37*
G36*
G01*
X105586000Y-71142000D02*
X105586000Y-72342000D01*
G75*
G02*
X105386000Y-72542000I-200000J0D01*
G01*
X104986000Y-72542000D01*
G75*
G02*
X104786000Y-72342000I0J200000D01*
G01*
X104786000Y-71142000D01*
G75*
G02*
X104986000Y-70942000I200000J0D01*
G01*
X105386000Y-70942000D01*
G75*
G02*
X105586000Y-71142000I0J-200000D01*
G01*
G37*
G36*
G01*
X103686000Y-67592001D02*
X103686000Y-70091999D01*
G75*
G02*
X103435999Y-70342000I-250001J0D01*
G01*
X101836001Y-70342000D01*
G75*
G02*
X101586000Y-70091999I0J250001D01*
G01*
X101586000Y-67592001D01*
G75*
G02*
X101836001Y-67342000I250001J0D01*
G01*
X103435999Y-67342000D01*
G75*
G02*
X103686000Y-67592001I0J-250001D01*
G01*
G37*
G36*
G01*
X112536000Y-67592001D02*
X112536000Y-70091999D01*
G75*
G02*
X112285999Y-70342000I-250001J0D01*
G01*
X110686001Y-70342000D01*
G75*
G02*
X110436000Y-70091999I0J250001D01*
G01*
X110436000Y-67592001D01*
G75*
G02*
X110686001Y-67342000I250001J0D01*
G01*
X112285999Y-67342000D01*
G75*
G02*
X112536000Y-67592001I0J-250001D01*
G01*
G37*
X180124100Y-94528000D03*
X180124100Y-97028000D03*
X180124100Y-99528000D03*
X185635900Y-94528000D03*
X185635900Y-97028000D03*
X185635900Y-99528000D03*
G36*
G01*
X89436000Y-137592750D02*
X89436000Y-138505250D01*
G75*
G02*
X89192250Y-138749000I-243750J0D01*
G01*
X88704750Y-138749000D01*
G75*
G02*
X88461000Y-138505250I0J243750D01*
G01*
X88461000Y-137592750D01*
G75*
G02*
X88704750Y-137349000I243750J0D01*
G01*
X89192250Y-137349000D01*
G75*
G02*
X89436000Y-137592750I0J-243750D01*
G01*
G37*
G36*
G01*
X87561000Y-137592750D02*
X87561000Y-138505250D01*
G75*
G02*
X87317250Y-138749000I-243750J0D01*
G01*
X86829750Y-138749000D01*
G75*
G02*
X86586000Y-138505250I0J243750D01*
G01*
X86586000Y-137592750D01*
G75*
G02*
X86829750Y-137349000I243750J0D01*
G01*
X87317250Y-137349000D01*
G75*
G02*
X87561000Y-137592750I0J-243750D01*
G01*
G37*
G36*
G01*
X157429500Y-128194750D02*
X157429500Y-129107250D01*
G75*
G02*
X157185750Y-129351000I-243750J0D01*
G01*
X156698250Y-129351000D01*
G75*
G02*
X156454500Y-129107250I0J243750D01*
G01*
X156454500Y-128194750D01*
G75*
G02*
X156698250Y-127951000I243750J0D01*
G01*
X157185750Y-127951000D01*
G75*
G02*
X157429500Y-128194750I0J-243750D01*
G01*
G37*
G36*
G01*
X155554500Y-128194750D02*
X155554500Y-129107250D01*
G75*
G02*
X155310750Y-129351000I-243750J0D01*
G01*
X154823250Y-129351000D01*
G75*
G02*
X154579500Y-129107250I0J243750D01*
G01*
X154579500Y-128194750D01*
G75*
G02*
X154823250Y-127951000I243750J0D01*
G01*
X155310750Y-127951000D01*
G75*
G02*
X155554500Y-128194750I0J-243750D01*
G01*
G37*
G36*
G01*
X166779000Y-128201000D02*
X166779000Y-129101000D01*
G75*
G02*
X166529000Y-129351000I-250000J0D01*
G01*
X166004000Y-129351000D01*
G75*
G02*
X165754000Y-129101000I0J250000D01*
G01*
X165754000Y-128201000D01*
G75*
G02*
X166004000Y-127951000I250000J0D01*
G01*
X166529000Y-127951000D01*
G75*
G02*
X166779000Y-128201000I0J-250000D01*
G01*
G37*
G36*
G01*
X164954000Y-128201000D02*
X164954000Y-129101000D01*
G75*
G02*
X164704000Y-129351000I-250000J0D01*
G01*
X164179000Y-129351000D01*
G75*
G02*
X163929000Y-129101000I0J250000D01*
G01*
X163929000Y-128201000D01*
G75*
G02*
X164179000Y-127951000I250000J0D01*
G01*
X164704000Y-127951000D01*
G75*
G02*
X164954000Y-128201000I0J-250000D01*
G01*
G37*
G36*
G01*
X91285000Y-135076250D02*
X91285000Y-134163750D01*
G75*
G02*
X91528750Y-133920000I243750J0D01*
G01*
X92016250Y-133920000D01*
G75*
G02*
X92260000Y-134163750I0J-243750D01*
G01*
X92260000Y-135076250D01*
G75*
G02*
X92016250Y-135320000I-243750J0D01*
G01*
X91528750Y-135320000D01*
G75*
G02*
X91285000Y-135076250I0J243750D01*
G01*
G37*
G36*
G01*
X93160000Y-135076250D02*
X93160000Y-134163750D01*
G75*
G02*
X93403750Y-133920000I243750J0D01*
G01*
X93891250Y-133920000D01*
G75*
G02*
X94135000Y-134163750I0J-243750D01*
G01*
X94135000Y-135076250D01*
G75*
G02*
X93891250Y-135320000I-243750J0D01*
G01*
X93403750Y-135320000D01*
G75*
G02*
X93160000Y-135076250I0J243750D01*
G01*
G37*
X180124100Y-113070000D03*
X180124100Y-115570000D03*
X180124100Y-118070000D03*
X185635900Y-113070000D03*
X185635900Y-115570000D03*
X185635900Y-118070000D03*
G36*
G01*
X102715000Y-135076250D02*
X102715000Y-134163750D01*
G75*
G02*
X102958750Y-133920000I243750J0D01*
G01*
X103446250Y-133920000D01*
G75*
G02*
X103690000Y-134163750I0J-243750D01*
G01*
X103690000Y-135076250D01*
G75*
G02*
X103446250Y-135320000I-243750J0D01*
G01*
X102958750Y-135320000D01*
G75*
G02*
X102715000Y-135076250I0J243750D01*
G01*
G37*
G36*
G01*
X104590000Y-135076250D02*
X104590000Y-134163750D01*
G75*
G02*
X104833750Y-133920000I243750J0D01*
G01*
X105321250Y-133920000D01*
G75*
G02*
X105565000Y-134163750I0J-243750D01*
G01*
X105565000Y-135076250D01*
G75*
G02*
X105321250Y-135320000I-243750J0D01*
G01*
X104833750Y-135320000D01*
G75*
G02*
X104590000Y-135076250I0J243750D01*
G01*
G37*
X184365900Y-140930000D03*
X184365900Y-138430000D03*
X184365900Y-135930000D03*
X178854100Y-140930000D03*
X178854100Y-138430000D03*
X178854100Y-135930000D03*
X156425900Y-140930000D03*
X156425900Y-138430000D03*
X156425900Y-135930000D03*
X150914100Y-140930000D03*
X150914100Y-138430000D03*
X150914100Y-135930000D03*
G36*
G01*
X105565000Y-137592750D02*
X105565000Y-138505250D01*
G75*
G02*
X105321250Y-138749000I-243750J0D01*
G01*
X104833750Y-138749000D01*
G75*
G02*
X104590000Y-138505250I0J243750D01*
G01*
X104590000Y-137592750D01*
G75*
G02*
X104833750Y-137349000I243750J0D01*
G01*
X105321250Y-137349000D01*
G75*
G02*
X105565000Y-137592750I0J-243750D01*
G01*
G37*
G36*
G01*
X103690000Y-137592750D02*
X103690000Y-138505250D01*
G75*
G02*
X103446250Y-138749000I-243750J0D01*
G01*
X102958750Y-138749000D01*
G75*
G02*
X102715000Y-138505250I0J243750D01*
G01*
X102715000Y-137592750D01*
G75*
G02*
X102958750Y-137349000I243750J0D01*
G01*
X103446250Y-137349000D01*
G75*
G02*
X103690000Y-137592750I0J-243750D01*
G01*
G37*
G36*
G01*
X139805000Y-118386000D02*
X139805000Y-117136000D01*
G75*
G02*
X139955000Y-116986000I150000J0D01*
G01*
X140255000Y-116986000D01*
G75*
G02*
X140405000Y-117136000I0J-150000D01*
G01*
X140405000Y-118386000D01*
G75*
G02*
X140255000Y-118536000I-150000J0D01*
G01*
X139955000Y-118536000D01*
G75*
G02*
X139805000Y-118386000I0J150000D01*
G01*
G37*
G36*
G01*
X140805000Y-118386000D02*
X140805000Y-117136000D01*
G75*
G02*
X140955000Y-116986000I150000J0D01*
G01*
X141255000Y-116986000D01*
G75*
G02*
X141405000Y-117136000I0J-150000D01*
G01*
X141405000Y-118386000D01*
G75*
G02*
X141255000Y-118536000I-150000J0D01*
G01*
X140955000Y-118536000D01*
G75*
G02*
X140805000Y-118386000I0J150000D01*
G01*
G37*
G36*
G01*
X141805000Y-118386000D02*
X141805000Y-117136000D01*
G75*
G02*
X141955000Y-116986000I150000J0D01*
G01*
X142255000Y-116986000D01*
G75*
G02*
X142405000Y-117136000I0J-150000D01*
G01*
X142405000Y-118386000D01*
G75*
G02*
X142255000Y-118536000I-150000J0D01*
G01*
X141955000Y-118536000D01*
G75*
G02*
X141805000Y-118386000I0J150000D01*
G01*
G37*
G36*
G01*
X142805000Y-118386000D02*
X142805000Y-117136000D01*
G75*
G02*
X142955000Y-116986000I150000J0D01*
G01*
X143255000Y-116986000D01*
G75*
G02*
X143405000Y-117136000I0J-150000D01*
G01*
X143405000Y-118386000D01*
G75*
G02*
X143255000Y-118536000I-150000J0D01*
G01*
X142955000Y-118536000D01*
G75*
G02*
X142805000Y-118386000I0J150000D01*
G01*
G37*
G36*
G01*
X138205000Y-122286000D02*
X138205000Y-120986000D01*
G75*
G02*
X138455000Y-120736000I250000J0D01*
G01*
X139155000Y-120736000D01*
G75*
G02*
X139405000Y-120986000I0J-250000D01*
G01*
X139405000Y-122286000D01*
G75*
G02*
X139155000Y-122536000I-250000J0D01*
G01*
X138455000Y-122536000D01*
G75*
G02*
X138205000Y-122286000I0J250000D01*
G01*
G37*
G36*
G01*
X143805000Y-122286000D02*
X143805000Y-120986000D01*
G75*
G02*
X144055000Y-120736000I250000J0D01*
G01*
X144755000Y-120736000D01*
G75*
G02*
X145005000Y-120986000I0J-250000D01*
G01*
X145005000Y-122286000D01*
G75*
G02*
X144755000Y-122536000I-250000J0D01*
G01*
X144055000Y-122536000D01*
G75*
G02*
X143805000Y-122286000I0J250000D01*
G01*
G37*
M02*
